<svg width="629" height="488" viewBox="0 0 629 488" fill="none" xmlns="http://www.w3.org/2000/svg">
<path opacity="0.35" d="M-0.000244141 459.078H629M-0.000244141 269.767H629M-0.000244141 80.4569H629M-0.000244141 364.422H629M-0.000244141 175.112H629M-0.000244141 411.75H629M-0.000244141 222.44H629M-0.000244141 33.1293H629M-0.000244141 317.095H629M-0.000244141 127.784H629M30.0161 488L30.0161 -3.57628e-06M191.298 488L191.298 -3.57628e-06M352.58 488V-3.57628e-06M513.862 488V-3.57628e-06M110.657 488L110.657 -3.57628e-06M271.939 488L271.939 -3.57628e-06M433.221 488L433.221 -3.57628e-06M594.503 488V-3.57628e-06M70.3366 488L70.3366 -3.57628e-06M231.619 488L231.619 -3.57628e-06M392.901 488L392.901 -3.57628e-06M554.183 488V-3.57628e-06M150.978 488L150.978 -3.57628e-06M312.26 488L312.26 -3.57628e-06M473.542 488V-3.57628e-06" stroke="url(#paint0_radial_74_407)"/>
<defs>
<radialGradient id="paint0_radial_74_407" cx="0" cy="0" r="1" gradientUnits="userSpaceOnUse" gradientTransform="translate(183 330.5) rotate(-81.7976) scale(168.221 216.823)">
<stop stop-color="#E2DFFF"/>
<stop offset="1" stop-color="#000223"/>
</radialGradient>
</defs>
</svg>
