<svg width="1920" height="878" viewBox="0 0 1920 878" fill="none" xmlns="http://www.w3.org/2000/svg">
<path style="mix-blend-mode:color-dodge" d="M1630.17 797.974C1631.99 797.974 1633.48 799.464 1633.48 801.287C1633.48 803.109 1631.99 804.682 1630.17 804.682C1628.35 804.682 1626.86 803.109 1626.86 801.287C1626.86 799.464 1628.35 797.974 1630.17 797.974Z" fill="url(#paint0_radial_2011_57620)"/>
<path style="mix-blend-mode:color-dodge" d="M718.054 72.5229C719.544 72.5229 720.786 73.7653 720.786 75.339C720.786 76.8298 719.544 78.0721 718.054 78.0721C716.564 78.0721 715.322 76.8298 715.322 75.339C715.322 73.7653 716.564 72.5229 718.054 72.5229Z" fill="url(#paint1_radial_2011_57620)"/>
<path style="mix-blend-mode:color-dodge" d="M1131.6 119.484C1132.67 119.484 1133.67 120.478 1133.67 121.637C1133.67 122.797 1132.67 123.708 1131.6 123.708C1130.44 123.708 1129.45 122.797 1129.45 121.637C1129.45 120.478 1130.44 119.484 1131.6 119.484Z" fill="url(#paint2_radial_2011_57620)"/>
<path style="mix-blend-mode:color-dodge" d="M1517.99 491.278C1519.06 491.278 1519.89 492.107 1519.89 493.1C1519.89 494.177 1519.06 495.005 1517.99 495.005C1516.99 495.005 1516.17 494.177 1516.17 493.1C1516.17 492.107 1516.99 491.278 1517.99 491.278Z" fill="url(#paint3_radial_2011_57620)"/>
<path style="mix-blend-mode:color-dodge" d="M1070.99 453.842C1072.07 453.842 1073.06 454.753 1073.06 455.912C1073.06 457.155 1072.07 458.066 1070.99 458.066C1069.84 458.066 1068.84 457.155 1068.84 455.912C1068.84 454.753 1069.84 453.842 1070.99 453.842Z" fill="url(#paint4_radial_2011_57620)"/>
<path style="mix-blend-mode:color-dodge" d="M1801.47 242.228C1802.87 242.228 1804.03 243.388 1804.03 244.878C1804.03 246.369 1802.87 247.612 1801.47 247.612C1799.98 247.612 1798.82 246.369 1798.82 244.878C1798.82 243.388 1799.98 242.228 1801.47 242.228Z" fill="url(#paint5_radial_2011_57620)"/>
<path style="mix-blend-mode:color-dodge" d="M982.159 110.787C984.229 110.787 985.968 112.526 985.968 114.679C985.968 116.833 984.229 118.572 982.159 118.572C980.007 118.572 978.268 116.833 978.268 114.679C978.268 112.526 980.007 110.787 982.159 110.787Z" fill="url(#paint6_radial_2011_57620)"/>
<path style="mix-blend-mode:color-dodge" d="M523.576 340.208C525.398 340.208 526.888 341.782 526.888 343.604C526.888 345.509 525.398 347 523.576 347C521.672 347 520.182 345.509 520.182 343.604C520.182 341.782 521.672 340.208 523.576 340.208Z" fill="url(#paint7_radial_2011_57620)"/>
<path style="mix-blend-mode:color-dodge" d="M1507.56 67.2217C1508.3 67.2217 1508.96 67.8015 1508.96 68.6297C1508.96 69.3751 1508.3 70.0377 1507.56 70.0377C1506.81 70.0377 1506.15 69.3751 1506.15 68.6297C1506.15 67.8015 1506.81 67.2217 1507.56 67.2217Z" fill="url(#paint8_radial_2011_57620)"/>
<path style="mix-blend-mode:color-dodge" d="M1921.1 733.102C1922.92 733.102 1924.41 734.592 1924.41 736.415C1924.41 738.237 1922.92 739.727 1921.1 739.727C1919.36 739.727 1917.87 738.237 1917.87 736.415C1917.87 734.592 1919.36 733.102 1921.1 733.102Z" fill="url(#paint9_radial_2011_57620)"/>
<path style="mix-blend-mode:color-dodge" d="M267.088 159.653C267.668 159.653 268.247 160.15 268.247 160.813C268.247 161.393 267.668 161.972 267.088 161.972C266.426 161.972 265.929 161.393 265.929 160.813C265.929 160.15 266.426 159.653 267.088 159.653Z" fill="url(#paint10_radial_2011_57620)"/>
<path style="mix-blend-mode:color-dodge" d="M111.522 235.271C112.681 235.271 113.592 236.265 113.592 237.424C113.592 238.584 112.681 239.578 111.522 239.578C110.363 239.578 109.369 238.584 109.369 237.424C109.369 236.265 110.363 235.271 111.522 235.271Z" fill="url(#paint11_radial_2011_57620)"/>
<path style="mix-blend-mode:color-dodge" d="M1373.52 81.6328C1376 81.6328 1377.99 83.7034 1377.99 86.2709C1377.99 88.7556 1376 90.8262 1373.52 90.8262C1371.03 90.8262 1368.96 88.7556 1368.96 86.2709C1368.96 83.7034 1371.03 81.6328 1373.52 81.6328Z" fill="url(#paint12_radial_2011_57620)"/>
<path style="mix-blend-mode:color-dodge" d="M1341.89 522.586C1342.72 522.586 1343.38 523.331 1343.38 524.16C1343.38 525.071 1342.72 525.733 1341.89 525.733C1340.98 525.733 1340.32 525.071 1340.32 524.16C1340.32 523.331 1340.98 522.586 1341.89 522.586Z" fill="url(#paint13_radial_2011_57620)"/>
<path style="mix-blend-mode:color-dodge" d="M940.101 543.043C944.075 543.043 947.221 546.273 947.221 550.249C947.221 554.141 944.075 557.371 940.101 557.371C936.21 557.371 933.063 554.141 933.063 550.249C933.063 546.273 936.21 543.043 940.101 543.043Z" fill="url(#paint14_radial_2011_57620)"/>
<path style="mix-blend-mode:color-dodge" d="M1749.06 863.653C1752.87 863.653 1756.01 866.883 1756.01 870.776C1756.01 874.669 1752.87 877.816 1749.06 877.816C1745.25 877.816 1742.1 874.669 1742.1 870.776C1742.1 866.883 1745.25 863.653 1749.06 863.653Z" fill="url(#paint15_radial_2011_57620)"/>
<path style="mix-blend-mode:color-dodge" d="M4.30667 157.417C5.87971 157.417 7.20438 158.742 7.20438 160.399C7.20438 162.055 5.87971 163.38 4.30667 163.38C2.65084 163.38 1.32617 162.055 1.32617 160.399C1.32617 158.742 2.65084 157.417 4.30667 157.417Z" fill="url(#paint16_radial_2011_57620)"/>
<path style="mix-blend-mode:color-dodge" d="M1581.65 707.779C1583.14 707.779 1584.39 709.022 1584.39 710.595C1584.39 712.086 1583.14 713.328 1581.65 713.328C1580.16 713.328 1578.92 712.086 1578.92 710.595C1578.92 709.022 1580.16 707.779 1581.65 707.779Z" fill="url(#paint17_radial_2011_57620)"/>
<path style="mix-blend-mode:color-dodge" d="M1559.13 416.82C1561.54 416.82 1563.44 418.808 1563.44 421.21C1563.44 423.612 1561.54 425.6 1559.13 425.6C1556.82 425.6 1554.91 423.612 1554.91 421.21C1554.91 418.808 1556.82 416.82 1559.13 416.82Z" fill="url(#paint18_radial_2011_57620)"/>
<path style="mix-blend-mode:color-dodge" d="M1813.47 454.919C1818.19 454.919 1822 458.729 1822 463.533C1822 468.336 1818.19 472.229 1813.47 472.229C1808.75 472.229 1804.94 468.336 1804.94 463.533C1804.94 458.729 1808.75 454.919 1813.47 454.919Z" fill="url(#paint19_radial_2011_57620)"/>
<path style="mix-blend-mode:color-dodge" d="M676.989 450.777C679.556 450.777 681.626 452.848 681.626 455.498C681.626 458.066 679.556 460.136 676.989 460.136C674.423 460.136 672.353 458.066 672.353 455.498C672.353 452.848 674.423 450.777 676.989 450.777Z" fill="url(#paint20_radial_2011_57620)"/>
<path style="mix-blend-mode:color-dodge" d="M1693.01 701.733C1697.07 701.733 1700.29 705.046 1700.29 709.105C1700.29 713.163 1697.07 716.476 1693.01 716.476C1688.95 716.476 1685.72 713.163 1685.72 709.105C1685.72 705.046 1688.95 701.733 1693.01 701.733Z" fill="url(#paint21_radial_2011_57620)"/>
<path style="mix-blend-mode:color-dodge" d="M991.68 286.539C992.674 286.539 993.419 287.284 993.419 288.278C993.419 289.272 992.674 290.018 991.68 290.018C990.687 290.018 989.942 289.272 989.942 288.278C989.942 287.284 990.687 286.539 991.68 286.539Z" fill="url(#paint22_radial_2011_57620)"/>
<path style="mix-blend-mode:color-dodge" d="M1809.33 569.381C1811.57 569.381 1813.3 571.203 1813.3 573.439C1813.3 575.675 1811.57 577.498 1809.33 577.498C1807.1 577.498 1805.27 575.675 1805.27 573.439C1805.27 571.203 1807.1 569.381 1809.33 569.381Z" fill="url(#paint23_radial_2011_57620)"/>
<path style="mix-blend-mode:color-dodge" d="M419.673 448.376C421.412 448.376 422.736 449.701 422.736 451.44C422.736 453.18 421.412 454.588 419.673 454.588C418.017 454.588 416.61 453.18 416.61 451.44C416.61 449.701 418.017 448.376 419.673 448.376Z" fill="url(#paint24_radial_2011_57620)"/>
<path style="mix-blend-mode:color-dodge" d="M9.10856 200.568C10.5988 200.568 11.8407 201.727 11.8407 203.218C11.8407 204.792 10.5988 205.951 9.10856 205.951C7.61831 205.951 6.45923 204.792 6.45923 203.218C6.45923 201.727 7.61831 200.568 9.10856 200.568Z" fill="url(#paint25_radial_2011_57620)"/>
<path style="mix-blend-mode:color-dodge" d="M86.5187 257.302C87.9261 257.302 89.0024 258.462 89.0024 259.87C89.0024 261.278 87.9261 262.437 86.5187 262.437C85.194 262.437 84.0349 261.278 84.0349 259.87C84.0349 258.462 85.194 257.302 86.5187 257.302Z" fill="url(#paint26_radial_2011_57620)"/>
<path style="mix-blend-mode:color-dodge" d="M1472.7 439.183C1475.27 439.183 1477.34 441.253 1477.34 443.904C1477.34 446.471 1475.27 448.625 1472.7 448.625C1470.13 448.625 1467.98 446.471 1467.98 443.904C1467.98 441.253 1470.13 439.183 1472.7 439.183Z" fill="url(#paint27_radial_2011_57620)"/>
<path style="mix-blend-mode:color-dodge" d="M182.557 77.0781C184.627 77.0781 186.283 78.8174 186.283 80.888C186.283 82.9586 184.627 84.6979 182.557 84.6979C180.487 84.6979 178.831 82.9586 178.831 80.888C178.831 78.8174 180.487 77.0781 182.557 77.0781Z" fill="url(#paint28_radial_2011_57620)"/>
<path style="mix-blend-mode:color-dodge" d="M1529.25 382.862C1530.9 382.862 1532.23 384.27 1532.23 385.927C1532.23 387.666 1530.9 388.991 1529.25 388.991C1527.59 388.991 1526.27 387.666 1526.27 385.927C1526.27 384.27 1527.59 382.862 1529.25 382.862Z" fill="url(#paint29_radial_2011_57620)"/>
<path style="mix-blend-mode:color-dodge" d="M189.263 560.519C189.76 560.519 190.174 561.016 190.174 561.512C190.174 562.009 189.76 562.423 189.263 562.423C188.766 562.423 188.27 562.009 188.27 561.512C188.27 561.016 188.766 560.519 189.263 560.519Z" fill="url(#paint30_radial_2011_57620)"/>
<path style="mix-blend-mode:color-dodge" d="M1167.03 130C1170.18 130 1172.66 132.567 1172.66 135.714C1172.66 138.862 1170.18 141.429 1167.03 141.429C1163.97 141.429 1161.4 138.862 1161.4 135.714C1161.4 132.567 1163.97 130 1167.03 130Z" fill="url(#paint31_radial_2011_57620)"/>
<path style="mix-blend-mode:color-dodge" d="M1907.36 629.406C1908.1 629.406 1908.68 629.986 1908.68 630.731C1908.68 631.477 1908.1 632.057 1907.36 632.057C1906.61 632.057 1906.03 631.477 1906.03 630.731C1906.03 629.986 1906.61 629.406 1907.36 629.406Z" fill="url(#paint32_radial_2011_57620)"/>
<path style="mix-blend-mode:color-dodge" d="M288.862 719.623C289.525 719.623 290.104 720.203 290.104 720.865C290.104 721.528 289.525 722.108 288.862 722.108C288.2 722.108 287.703 721.528 287.703 720.865C287.703 720.203 288.2 719.623 288.862 719.623Z" fill="url(#paint33_radial_2011_57620)"/>
<path style="mix-blend-mode:color-dodge" d="M1285.43 239.33C1286.34 239.33 1287.08 240.075 1287.08 240.986C1287.08 241.897 1286.34 242.643 1285.43 242.643C1284.51 242.643 1283.77 241.897 1283.77 240.986C1283.77 240.075 1284.51 239.33 1285.43 239.33Z" fill="url(#paint34_radial_2011_57620)"/>
<path style="mix-blend-mode:color-dodge" d="M424.972 352.383C427.869 352.383 430.27 354.785 430.27 357.683C430.27 360.665 427.869 363.067 424.972 363.067C421.991 363.067 419.673 360.665 419.673 357.683C419.673 354.785 421.991 352.383 424.972 352.383Z" fill="url(#paint35_radial_2011_57620)"/>
<path style="mix-blend-mode:color-dodge" d="M250.53 295.401C252.434 295.401 254.007 297.057 254.007 299.045C254.007 300.95 252.434 302.606 250.53 302.606C248.543 302.606 246.97 300.95 246.97 299.045C246.97 297.057 248.543 295.401 250.53 295.401Z" fill="url(#paint36_radial_2011_57620)"/>
<path style="mix-blend-mode:color-dodge" d="M861.531 495.42C865.009 495.42 867.824 498.319 867.824 501.797C867.824 505.359 865.009 508.175 861.531 508.175C858.054 508.175 855.239 505.359 855.239 501.797C855.239 498.319 858.054 495.42 861.531 495.42Z" fill="url(#paint37_radial_2011_57620)"/>
<path style="mix-blend-mode:color-dodge" d="M631.205 674.07C635.428 674.07 638.822 677.549 638.822 681.856C638.822 686.08 635.428 689.558 631.205 689.558C626.983 689.558 623.506 686.08 623.506 681.856C623.506 677.549 626.983 674.07 631.205 674.07Z" fill="url(#paint38_radial_2011_57620)"/>
<path style="mix-blend-mode:color-dodge" d="M413.878 581.639C417.852 581.639 421.081 584.869 421.081 588.927C421.081 592.985 417.852 596.298 413.878 596.298C409.821 596.298 406.592 592.985 406.592 588.927C406.592 584.869 409.821 581.639 413.878 581.639Z" fill="url(#paint39_radial_2011_57620)"/>
<path style="mix-blend-mode:color-dodge" d="M919.9 245.955C920.976 245.955 921.721 246.783 921.721 247.86C921.721 248.854 920.976 249.682 919.9 249.682C918.906 249.682 918.161 248.854 918.161 247.86C918.161 246.783 918.906 245.955 919.9 245.955Z" fill="url(#paint40_radial_2011_57620)"/>
<path style="mix-blend-mode:color-dodge" d="M1597.47 636.634C1598.71 636.634 1599.7 637.628 1599.7 638.87C1599.7 640.112 1598.71 641.106 1597.47 641.106C1596.31 641.106 1595.31 640.112 1595.31 638.87C1595.31 637.628 1596.31 636.634 1597.47 636.634Z" fill="url(#paint41_radial_2011_57620)"/>
<path style="mix-blend-mode:color-dodge" d="M1167.7 34.5063C1170.34 34.5063 1172.5 36.6598 1172.5 39.3929C1172.5 42.0433 1170.34 44.2795 1167.7 44.2795C1165.05 44.2795 1162.89 42.0433 1162.89 39.3929C1162.89 36.6598 1165.05 34.5063 1167.7 34.5063Z" fill="url(#paint42_radial_2011_57620)"/>
<path style="mix-blend-mode:color-dodge" d="M1439.75 686.659C1440.91 686.659 1441.9 687.653 1441.9 688.813C1441.9 690.055 1440.91 690.966 1439.75 690.966C1438.59 690.966 1437.6 690.055 1437.6 688.813C1437.6 687.653 1438.59 686.659 1439.75 686.659Z" fill="url(#paint43_radial_2011_57620)"/>
<path style="mix-blend-mode:color-dodge" d="M1182.18 0.300781C1183.43 0.300781 1184.5 1.29465 1184.5 2.61983C1184.5 3.86218 1183.43 4.93889 1182.18 4.93889C1180.94 4.93889 1179.87 3.86218 1179.87 2.61983C1179.87 1.29465 1180.94 0.300781 1182.18 0.300781Z" fill="url(#paint44_radial_2011_57620)"/>
<path style="mix-blend-mode:color-dodge" d="M1112.97 560.685C1115.78 560.685 1118.1 563.004 1118.1 565.902C1118.1 568.718 1115.78 571.038 1112.97 571.038C1110.16 571.038 1107.84 568.718 1107.84 565.902C1107.84 563.004 1110.16 560.685 1112.97 560.685Z" fill="url(#paint45_radial_2011_57620)"/>
<path style="mix-blend-mode:color-dodge" d="M618.207 401.498C618.952 401.498 619.615 402.161 619.615 402.989C619.615 403.734 618.952 404.397 618.207 404.397C617.379 404.397 616.8 403.734 616.8 402.989C616.8 402.161 617.379 401.498 618.207 401.498Z" fill="url(#paint46_radial_2011_57620)"/>
<path style="mix-blend-mode:color-dodge" d="M1810.66 29.8687C1812.15 29.8687 1813.39 31.111 1813.39 32.6846C1813.39 34.1755 1812.15 35.4178 1810.66 35.4178C1809.08 35.4178 1807.84 34.1755 1807.84 32.6846C1807.84 31.111 1809.08 29.8687 1810.66 29.8687Z" fill="url(#paint47_radial_2011_57620)"/>
<path style="mix-blend-mode:color-dodge" d="M55.5547 253.824C57.2933 253.824 58.7008 255.232 58.7008 257.054C58.7008 258.876 57.2933 260.284 55.5547 260.284C53.7333 260.284 52.3258 258.876 52.3258 257.054C52.3258 255.232 53.7333 253.824 55.5547 253.824Z" fill="url(#paint48_radial_2011_57620)"/>
<path style="mix-blend-mode:color-dodge" d="M476.468 36.4941C477.544 36.4941 478.455 37.3224 478.455 38.3991C478.455 39.4758 477.544 40.3868 476.468 40.3868C475.474 40.3868 474.564 39.4758 474.564 38.3991C474.564 37.3224 475.474 36.4941 476.468 36.4941Z" fill="url(#paint49_radial_2011_57620)"/>
<path style="mix-blend-mode:color-dodge" d="M1545.06 42.7891C1546.05 42.7891 1546.8 43.6173 1546.8 44.5284C1546.8 45.5222 1546.05 46.2677 1545.06 46.2677C1544.15 46.2677 1543.4 45.5222 1543.4 44.5284C1543.4 43.6173 1544.15 42.7891 1545.06 42.7891Z" fill="url(#paint50_radial_2011_57620)"/>
<path style="mix-blend-mode:color-dodge" d="M726.913 237.921C729.562 237.921 731.797 240.075 731.797 242.808C731.797 245.541 729.562 247.777 726.913 247.777C724.263 247.777 722.028 245.541 722.028 242.808C722.028 240.075 724.263 237.921 726.913 237.921Z" fill="url(#paint51_radial_2011_57620)"/>
<path style="mix-blend-mode:color-dodge" d="M1502.17 463.201C1503.17 463.201 1503.91 464.029 1503.91 465.023C1503.91 466.017 1503.17 466.845 1502.17 466.845C1501.18 466.845 1500.35 466.017 1500.35 465.023C1500.35 464.029 1501.18 463.201 1502.17 463.201Z" fill="url(#paint52_radial_2011_57620)"/>
<path style="mix-blend-mode:color-dodge" d="M1172.75 458.812C1175.06 458.812 1177.05 460.716 1177.05 463.118C1177.05 465.603 1175.06 467.508 1172.75 467.508C1170.34 467.508 1168.36 465.603 1168.36 463.118C1168.36 460.716 1170.34 458.812 1172.75 458.812Z" fill="url(#paint53_radial_2011_57620)"/>
<path style="mix-blend-mode:color-dodge" d="M694.624 165.12C696.031 165.12 697.19 166.279 697.19 167.687C697.19 169.095 696.031 170.255 694.624 170.255C693.299 170.255 692.14 169.095 692.14 167.687C692.14 166.279 693.299 165.12 694.624 165.12Z" fill="url(#paint54_radial_2011_57620)"/>
<path style="mix-blend-mode:color-dodge" d="M1737.63 637.131C1738.71 637.131 1739.54 638.042 1739.54 639.201C1739.54 640.278 1738.71 641.189 1737.63 641.189C1736.47 641.189 1735.65 640.278 1735.65 639.201C1735.65 638.042 1736.47 637.131 1737.63 637.131Z" fill="url(#paint55_radial_2011_57620)"/>
<path style="mix-blend-mode:color-dodge" d="M169.31 831.766C170.056 831.766 170.635 832.345 170.635 833.091C170.635 833.836 170.056 834.416 169.31 834.416C168.648 834.416 167.986 833.836 167.986 833.091C167.986 832.345 168.648 831.766 169.31 831.766Z" fill="url(#paint56_radial_2011_57620)"/>
<path style="mix-blend-mode:color-dodge" d="M1187.57 375.408C1190.38 375.408 1192.7 377.81 1192.7 380.709C1192.7 383.608 1190.38 386.01 1187.57 386.01C1184.67 386.01 1182.35 383.608 1182.35 380.709C1182.35 377.81 1184.67 375.408 1187.57 375.408Z" fill="url(#paint57_radial_2011_57620)"/>
<path style="mix-blend-mode:color-dodge" d="M1698.31 772.878C1698.89 772.878 1699.3 773.292 1699.3 773.872C1699.3 774.369 1698.89 774.866 1698.31 774.866C1697.81 774.866 1697.31 774.369 1697.31 773.872C1697.31 773.292 1697.81 772.878 1698.31 772.878Z" fill="url(#paint58_radial_2011_57620)"/>
<path style="mix-blend-mode:color-dodge" d="M811.029 519.024C811.691 519.024 812.188 519.521 812.188 520.184C812.188 520.847 811.691 521.343 811.029 521.343C810.366 521.343 809.87 520.847 809.87 520.184C809.87 519.521 810.366 519.024 811.029 519.024Z" fill="url(#paint59_radial_2011_57620)"/>
<path style="mix-blend-mode:color-dodge" d="M1180.69 255.397C1181.69 255.397 1182.52 256.225 1182.52 257.219C1182.52 258.213 1181.69 258.958 1180.69 258.958C1179.78 258.958 1178.96 258.213 1178.96 257.219C1178.96 256.225 1179.78 255.397 1180.69 255.397Z" fill="url(#paint60_radial_2011_57620)"/>
<path style="mix-blend-mode:color-dodge" d="M1135.9 617.419C1137.64 617.419 1139.05 618.827 1139.05 620.483C1139.05 622.223 1137.64 623.631 1135.9 623.631C1134.25 623.631 1132.84 622.223 1132.84 620.483C1132.84 618.827 1134.25 617.419 1135.9 617.419Z" fill="url(#paint61_radial_2011_57620)"/>
<path style="mix-blend-mode:color-dodge" d="M976.364 345.095C979.013 345.095 981.166 347.248 981.166 349.981C981.166 352.714 979.013 354.868 976.364 354.868C973.714 354.868 971.562 352.714 971.562 349.981C971.562 347.248 973.714 345.095 976.364 345.095Z" fill="url(#paint62_radial_2011_57620)"/>
<path style="mix-blend-mode:color-dodge" d="M923.211 161.393C924.867 161.393 926.274 162.801 926.274 164.54C926.274 166.196 924.867 167.604 923.211 167.604C921.473 167.604 920.148 166.196 920.148 164.54C920.148 162.801 921.473 161.393 923.211 161.393Z" fill="url(#paint63_radial_2011_57620)"/>
<path style="mix-blend-mode:color-dodge" d="M63.7512 464.443C67.1457 464.443 69.8778 467.177 69.8778 470.655C69.8778 474.051 67.1457 476.867 63.7512 476.867C60.3568 476.867 57.6246 474.051 57.6246 470.655C57.6246 467.177 60.3568 464.443 63.7512 464.443Z" fill="url(#paint64_radial_2011_57620)"/>
<path style="mix-blend-mode:color-dodge" d="M234.882 193.445C236.952 193.445 238.525 195.102 238.525 197.172C238.525 199.243 236.952 200.899 234.882 200.899C232.895 200.899 231.239 199.243 231.239 197.172C231.239 195.102 232.895 193.445 234.882 193.445Z" fill="url(#paint65_radial_2011_57620)"/>
<path style="mix-blend-mode:color-dodge" d="M1875.48 372.406C1876.39 372.406 1877.22 373.151 1877.22 374.145C1877.22 375.139 1876.39 375.884 1875.48 375.884C1874.49 375.884 1873.74 375.139 1873.74 374.145C1873.74 373.151 1874.49 372.406 1875.48 372.406Z" fill="url(#paint66_radial_2011_57620)"/>
<path style="mix-blend-mode:color-dodge" d="M405.599 181.85C407.834 181.85 409.738 183.755 409.738 186.156C409.738 188.476 407.834 190.38 405.599 190.38C403.28 190.38 401.376 188.476 401.376 186.156C401.376 183.755 403.28 181.85 405.599 181.85Z" fill="url(#paint67_radial_2011_57620)"/>
<path style="mix-blend-mode:color-dodge" d="M96.1226 811.889C99.1859 811.889 101.67 814.373 101.67 817.521C101.67 820.668 99.1859 823.153 96.1226 823.153C93.0593 823.153 90.5756 820.668 90.5756 817.521C90.5756 814.373 93.0593 811.889 96.1226 811.889Z" fill="url(#paint68_radial_2011_57620)"/>
<path style="mix-blend-mode:color-dodge" d="M851.597 174.644C853.253 174.644 854.577 176.052 854.577 177.708C854.577 179.365 853.253 180.773 851.597 180.773C849.941 180.773 848.533 179.365 848.533 177.708C848.533 176.052 849.941 174.644 851.597 174.644Z" fill="url(#paint69_radial_2011_57620)"/>
<path style="mix-blend-mode:color-dodge" d="M1254.96 265.75C1257.03 265.75 1258.68 267.406 1258.68 269.477C1258.68 271.548 1257.03 273.204 1254.96 273.204C1252.89 273.204 1251.23 271.548 1251.23 269.477C1251.23 267.406 1252.89 265.75 1254.96 265.75Z" fill="url(#paint70_radial_2011_57620)"/>
<path style="mix-blend-mode:color-dodge" d="M1819.27 330.187C1820.51 330.187 1821.5 331.264 1821.5 332.506C1821.5 333.748 1820.51 334.825 1819.27 334.825C1818.02 334.825 1816.95 333.748 1816.95 332.506C1816.95 331.264 1818.02 330.187 1819.27 330.187Z" fill="url(#paint71_radial_2011_57620)"/>
<path style="mix-blend-mode:color-dodge" d="M1628.51 655.352C1629.67 655.352 1630.67 656.345 1630.67 657.505C1630.67 658.664 1629.67 659.576 1628.51 659.576C1627.35 659.576 1626.44 658.664 1626.44 657.505C1626.44 656.345 1627.35 655.352 1628.51 655.352Z" fill="url(#paint72_radial_2011_57620)"/>
<path style="mix-blend-mode:color-dodge" d="M83.207 172.656C87.181 172.656 90.4099 175.969 90.4099 179.945C90.4099 184.003 87.181 187.316 83.207 187.316C79.233 187.316 76.0042 184.003 76.0042 179.945C76.0042 175.969 79.233 172.656 83.207 172.656Z" fill="url(#paint73_radial_2011_57620)"/>
<path style="mix-blend-mode:color-dodge" d="M1696.73 327.371C1699.63 327.371 1701.95 329.772 1701.95 332.671C1701.95 335.57 1699.63 337.972 1696.73 337.972C1693.92 337.972 1691.52 335.57 1691.52 332.671C1691.52 329.772 1693.92 327.371 1696.73 327.371Z" fill="url(#paint74_radial_2011_57620)"/>
<defs>
<radialGradient id="paint0_radial_2011_57620" cx="0" cy="0" r="1" gradientUnits="userSpaceOnUse" gradientTransform="translate(1630.15 801.353) scale(3.30364 3.29632)">
<stop offset="0.113" stop-color="#E6E7E8" stop-opacity="0.5"/>
<stop offset="0.636" stop-color="white" stop-opacity="0"/>
</radialGradient>
<radialGradient id="paint1_radial_2011_57620" cx="0" cy="0" r="1" gradientUnits="userSpaceOnUse" gradientTransform="translate(718.041 75.3182) scale(2.72549 2.72656)">
<stop offset="0.113" stop-color="#E6E7E8" stop-opacity="0.5"/>
<stop offset="0.636" stop-color="white" stop-opacity="0"/>
</radialGradient>
<radialGradient id="paint2_radial_2011_57620" cx="0" cy="0" r="1" gradientUnits="userSpaceOnUse" gradientTransform="translate(1131.55 121.612) scale(2.10606 2.07544)">
<stop offset="0.113" stop-color="#E6E7E8" stop-opacity="0.5"/>
<stop offset="0.636" stop-color="white" stop-opacity="0"/>
</radialGradient>
<radialGradient id="paint3_radial_2011_57620" cx="0" cy="0" r="1" gradientUnits="userSpaceOnUse" gradientTransform="translate(1518.02 493.156) scale(1.8583 1.83127)">
<stop offset="0.113" stop-color="#E6E7E8" stop-opacity="0.5"/>
<stop offset="0.636" stop-color="white" stop-opacity="0"/>
</radialGradient>
<radialGradient id="paint4_radial_2011_57620" cx="0" cy="0" r="1" gradientUnits="userSpaceOnUse" gradientTransform="translate(1070.94 455.97) scale(2.10606 2.07542)">
<stop offset="0.113" stop-color="#E6E7E8" stop-opacity="0.5"/>
<stop offset="0.636" stop-color="white" stop-opacity="0"/>
</radialGradient>
<radialGradient id="paint5_radial_2011_57620" cx="0" cy="0" r="1" gradientUnits="userSpaceOnUse" gradientTransform="translate(1801.41 244.94) scale(2.60153 2.64516)">
<stop offset="0.113" stop-color="#E6E7E8" stop-opacity="0.5"/>
<stop offset="0.636" stop-color="white" stop-opacity="0"/>
</radialGradient>
<radialGradient id="paint6_radial_2011_57620" cx="0" cy="0" r="1" gradientUnits="userSpaceOnUse" gradientTransform="translate(982.099 114.708) scale(3.8405 3.82531)">
<stop offset="0.113" stop-color="#E6E7E8" stop-opacity="0.5"/>
<stop offset="0.636" stop-color="white" stop-opacity="0"/>
</radialGradient>
<radialGradient id="paint7_radial_2011_57620" cx="0" cy="0" r="1" gradientUnits="userSpaceOnUse" gradientTransform="translate(523.519 343.629) scale(3.34492 3.33698)">
<stop offset="0.113" stop-color="#E6E7E8" stop-opacity="0.5"/>
<stop offset="0.636" stop-color="white" stop-opacity="0"/>
</radialGradient>
<radialGradient id="paint8_radial_2011_57620" cx="0" cy="0" r="1" gradientUnits="userSpaceOnUse" gradientTransform="translate(1507.55 68.6402) scale(1.40406 1.38362)">
<stop offset="0.113" stop-color="#E6E7E8" stop-opacity="0.5"/>
<stop offset="0.636" stop-color="white" stop-opacity="0"/>
</radialGradient>
<radialGradient id="paint9_radial_2011_57620" cx="0" cy="0" r="1" gradientUnits="userSpaceOnUse" gradientTransform="translate(1921.13 736.439) scale(3.2624 3.25558)">
<stop offset="0.113" stop-color="#E6E7E8" stop-opacity="0.5"/>
<stop offset="0.636" stop-color="white" stop-opacity="0"/>
</radialGradient>
<radialGradient id="paint10_radial_2011_57620" cx="0" cy="0" r="1" gradientUnits="userSpaceOnUse" gradientTransform="translate(267.082 160.821) scale(1.15627 1.13945)">
<stop offset="0.113" stop-color="#E6E7E8" stop-opacity="0.5"/>
<stop offset="0.636" stop-color="white" stop-opacity="0"/>
</radialGradient>
<radialGradient id="paint11_radial_2011_57620" cx="0" cy="0" r="1" gradientUnits="userSpaceOnUse" gradientTransform="translate(111.47 237.44) scale(2.10607 2.11613)">
<stop offset="0.113" stop-color="#E6E7E8" stop-opacity="0.5"/>
<stop offset="0.636" stop-color="white" stop-opacity="0"/>
</radialGradient>
<radialGradient id="paint12_radial_2011_57620" cx="0" cy="0" r="1" gradientUnits="userSpaceOnUse" gradientTransform="translate(1373.45 86.2638) scale(4.50122 4.51712)">
<stop offset="0.113" stop-color="#E6E7E8" stop-opacity="0.5"/>
<stop offset="0.636" stop-color="white" stop-opacity="0"/>
</radialGradient>
<radialGradient id="paint13_radial_2011_57620" cx="0" cy="0" r="1" gradientUnits="userSpaceOnUse" gradientTransform="translate(1341.84 524.171) scale(1.52791 1.5464)">
<stop offset="0.113" stop-color="#E6E7E8" stop-opacity="0.5"/>
<stop offset="0.636" stop-color="white" stop-opacity="0"/>
</radialGradient>
<radialGradient id="paint14_radial_2011_57620" cx="0" cy="0" r="1" gradientUnits="userSpaceOnUse" gradientTransform="translate(940.108 550.261) scale(7.06152 7.04019)">
<stop offset="0.113" stop-color="#E6E7E8" stop-opacity="0.5"/>
<stop offset="0.636" stop-color="white" stop-opacity="0"/>
</radialGradient>
<radialGradient id="paint15_radial_2011_57620" cx="0" cy="0" r="1" gradientUnits="userSpaceOnUse" gradientTransform="translate(1749.02 870.788) scale(6.93756 6.9588)">
<stop offset="0.113" stop-color="#E6E7E8" stop-opacity="0.5"/>
<stop offset="0.636" stop-color="white" stop-opacity="0"/>
</radialGradient>
<radialGradient id="paint16_radial_2011_57620" cx="0" cy="0" r="1" gradientUnits="userSpaceOnUse" gradientTransform="translate(4.25103 160.421) scale(2.93198 2.93003)">
<stop offset="0.113" stop-color="#E6E7E8" stop-opacity="0.5"/>
<stop offset="0.636" stop-color="white" stop-opacity="0"/>
</radialGradient>
<radialGradient id="paint17_radial_2011_57620" cx="0" cy="0" r="1" gradientUnits="userSpaceOnUse" gradientTransform="translate(1581.64 710.575) scale(2.72549 2.72653)">
<stop offset="0.113" stop-color="#E6E7E8" stop-opacity="0.5"/>
<stop offset="0.636" stop-color="white" stop-opacity="0"/>
</radialGradient>
<radialGradient id="paint18_radial_2011_57620" cx="0" cy="0" r="1" gradientUnits="userSpaceOnUse" gradientTransform="translate(1559.15 421.243) scale(4.2534 4.31365)">
<stop offset="0.113" stop-color="#E6E7E8" stop-opacity="0.5"/>
<stop offset="0.636" stop-color="white" stop-opacity="0"/>
</radialGradient>
<radialGradient id="paint19_radial_2011_57620" cx="0" cy="0" r="1" gradientUnits="userSpaceOnUse" gradientTransform="translate(1813.43 463.639) scale(8.50691 8.50521)">
<stop offset="0.113" stop-color="#E6E7E8" stop-opacity="0.5"/>
<stop offset="0.636" stop-color="white" stop-opacity="0"/>
</radialGradient>
<radialGradient id="paint20_radial_2011_57620" cx="0" cy="0" r="1" gradientUnits="userSpaceOnUse" gradientTransform="translate(676.967 455.492) scale(4.62507 4.59851)">
<stop offset="0.113" stop-color="#E6E7E8" stop-opacity="0.5"/>
<stop offset="0.636" stop-color="white" stop-opacity="0"/>
</radialGradient>
<radialGradient id="paint21_radial_2011_57620" cx="0" cy="0" r="1" gradientUnits="userSpaceOnUse" gradientTransform="translate(1692.97 709.16) scale(7.26799 7.24367)">
<stop offset="0.113" stop-color="#E6E7E8" stop-opacity="0.5"/>
<stop offset="0.636" stop-color="white" stop-opacity="0"/>
</radialGradient>
<radialGradient id="paint22_radial_2011_57620" cx="0" cy="0" r="1" gradientUnits="userSpaceOnUse" gradientTransform="translate(991.672 288.291) scale(1.73444 1.70919)">
<stop offset="0.113" stop-color="#E6E7E8" stop-opacity="0.5"/>
<stop offset="0.636" stop-color="white" stop-opacity="0"/>
</radialGradient>
<radialGradient id="paint23_radial_2011_57620" cx="0" cy="0" r="1" gradientUnits="userSpaceOnUse" gradientTransform="translate(1809.27 573.469) scale(4.00574 3.98808)">
<stop offset="0.113" stop-color="#E6E7E8" stop-opacity="0.5"/>
<stop offset="0.636" stop-color="white" stop-opacity="0"/>
</radialGradient>
<radialGradient id="paint24_radial_2011_57620" cx="0" cy="0" r="1" gradientUnits="userSpaceOnUse" gradientTransform="translate(419.658 451.505) scale(3.05588 3.05211)">
<stop offset="0.113" stop-color="#E6E7E8" stop-opacity="0.5"/>
<stop offset="0.636" stop-color="white" stop-opacity="0"/>
</radialGradient>
<radialGradient id="paint25_radial_2011_57620" cx="0" cy="0" r="1" gradientUnits="userSpaceOnUse" gradientTransform="translate(9.13691 203.28) scale(2.68421 2.64516)">
<stop offset="0.113" stop-color="#E6E7E8" stop-opacity="0.5"/>
<stop offset="0.636" stop-color="white" stop-opacity="0"/>
</radialGradient>
<radialGradient id="paint26_radial_2011_57620" cx="0" cy="0" r="1" gradientUnits="userSpaceOnUse" gradientTransform="translate(86.5066 259.889) scale(2.47773 2.52306)">
<stop offset="0.113" stop-color="#E6E7E8" stop-opacity="0.5"/>
<stop offset="0.636" stop-color="white" stop-opacity="0"/>
</radialGradient>
<radialGradient id="paint27_radial_2011_57620" cx="0" cy="0" r="1" gradientUnits="userSpaceOnUse" gradientTransform="translate(1472.64 443.939) scale(4.66641 4.63921)">
<stop offset="0.113" stop-color="#E6E7E8" stop-opacity="0.5"/>
<stop offset="0.636" stop-color="white" stop-opacity="0"/>
</radialGradient>
<radialGradient id="paint28_radial_2011_57620" cx="0" cy="0" r="1" gradientUnits="userSpaceOnUse" gradientTransform="translate(182.539 80.9164) scale(3.71659 3.74393)">
<stop offset="0.113" stop-color="#E6E7E8" stop-opacity="0.5"/>
<stop offset="0.636" stop-color="white" stop-opacity="0"/>
</radialGradient>
<radialGradient id="paint29_radial_2011_57620" cx="0" cy="0" r="1" gradientUnits="userSpaceOnUse" gradientTransform="translate(1529.23 385.95) scale(2.97325 3.01142)">
<stop offset="0.113" stop-color="#E6E7E8" stop-opacity="0.5"/>
<stop offset="0.636" stop-color="white" stop-opacity="0"/>
</radialGradient>
<radialGradient id="paint30_radial_2011_57620" cx="0" cy="0" r="1" gradientUnits="userSpaceOnUse" gradientTransform="translate(189.217 561.478) scale(0.949804 0.935975)">
<stop offset="0.113" stop-color="#E6E7E8" stop-opacity="0.5"/>
<stop offset="0.636" stop-color="white" stop-opacity="0"/>
</radialGradient>
<radialGradient id="paint31_radial_2011_57620" cx="0" cy="0" r="1" gradientUnits="userSpaceOnUse" gradientTransform="translate(1167.01 135.757) scale(5.61623 5.61589)">
<stop offset="0.113" stop-color="#E6E7E8" stop-opacity="0.5"/>
<stop offset="0.636" stop-color="white" stop-opacity="0"/>
</radialGradient>
<radialGradient id="paint32_radial_2011_57620" cx="0" cy="0" r="1" gradientUnits="userSpaceOnUse" gradientTransform="translate(1907.35 630.741) scale(1.32144 1.30224)">
<stop offset="0.113" stop-color="#E6E7E8" stop-opacity="0.5"/>
<stop offset="0.636" stop-color="white" stop-opacity="0"/>
</radialGradient>
<radialGradient id="paint33_radial_2011_57620" cx="0" cy="0" r="1" gradientUnits="userSpaceOnUse" gradientTransform="translate(288.898 720.875) scale(1.19757 1.22084)">
<stop offset="0.113" stop-color="#E6E7E8" stop-opacity="0.5"/>
<stop offset="0.636" stop-color="white" stop-opacity="0"/>
</radialGradient>
<radialGradient id="paint34_radial_2011_57620" cx="0" cy="0" r="1" gradientUnits="userSpaceOnUse" gradientTransform="translate(1285.42 240.998) scale(1.65182 1.62779)">
<stop offset="0.113" stop-color="#E6E7E8" stop-opacity="0.5"/>
<stop offset="0.636" stop-color="white" stop-opacity="0"/>
</radialGradient>
<radialGradient id="paint35_radial_2011_57620" cx="0" cy="0" r="1" gradientUnits="userSpaceOnUse" gradientTransform="translate(424.946 357.765) scale(5.28582 5.24961)">
<stop offset="0.113" stop-color="#E6E7E8" stop-opacity="0.5"/>
<stop offset="0.636" stop-color="white" stop-opacity="0"/>
</radialGradient>
<radialGradient id="paint36_radial_2011_57620" cx="0" cy="0" r="1" gradientUnits="userSpaceOnUse" gradientTransform="translate(250.471 299.031) scale(3.51012 3.54043)">
<stop offset="0.113" stop-color="#E6E7E8" stop-opacity="0.5"/>
<stop offset="0.636" stop-color="white" stop-opacity="0"/>
</radialGradient>
<radialGradient id="paint37_radial_2011_57620" cx="0" cy="0" r="1" gradientUnits="userSpaceOnUse" gradientTransform="translate(861.501 501.845) scale(6.27689 6.26698)">
<stop offset="0.113" stop-color="#E6E7E8" stop-opacity="0.5"/>
<stop offset="0.636" stop-color="white" stop-opacity="0"/>
</radialGradient>
<radialGradient id="paint38_radial_2011_57620" cx="0" cy="0" r="1" gradientUnits="userSpaceOnUse" gradientTransform="translate(631.127 681.872) scale(7.63966 7.60996)">
<stop offset="0.113" stop-color="#E6E7E8" stop-opacity="0.5"/>
<stop offset="0.636" stop-color="white" stop-opacity="0"/>
</radialGradient>
<radialGradient id="paint39_radial_2011_57620" cx="0" cy="0" r="1" gradientUnits="userSpaceOnUse" gradientTransform="translate(413.801 589.023) scale(7.22671 7.20298)">
<stop offset="0.113" stop-color="#E6E7E8" stop-opacity="0.5"/>
<stop offset="0.636" stop-color="white" stop-opacity="0"/>
</radialGradient>
<radialGradient id="paint40_radial_2011_57620" cx="0" cy="0" r="1" gradientUnits="userSpaceOnUse" gradientTransform="translate(919.932 247.833) scale(1.77568 1.83127)">
<stop offset="0.113" stop-color="#E6E7E8" stop-opacity="0.5"/>
<stop offset="0.636" stop-color="white" stop-opacity="0"/>
</radialGradient>
<radialGradient id="paint41_radial_2011_57620" cx="0" cy="0" r="1" gradientUnits="userSpaceOnUse" gradientTransform="translate(1597.5 638.887) scale(2.18863 2.1975)">
<stop offset="0.113" stop-color="#E6E7E8" stop-opacity="0.5"/>
<stop offset="0.636" stop-color="white" stop-opacity="0"/>
</radialGradient>
<radialGradient id="paint42_radial_2011_57620" cx="0" cy="0" r="1" gradientUnits="userSpaceOnUse" gradientTransform="translate(1167.67 39.4294) scale(4.79027 4.80199)">
<stop offset="0.113" stop-color="#E6E7E8" stop-opacity="0.5"/>
<stop offset="0.636" stop-color="white" stop-opacity="0"/>
</radialGradient>
<radialGradient id="paint43_radial_2011_57620" cx="0" cy="0" r="1" gradientUnits="userSpaceOnUse" gradientTransform="translate(1439.74 688.829) scale(2.14734 2.11611)">
<stop offset="0.113" stop-color="#E6E7E8" stop-opacity="0.5"/>
<stop offset="0.636" stop-color="white" stop-opacity="0"/>
</radialGradient>
<radialGradient id="paint44_radial_2011_57620" cx="0" cy="0" r="1" gradientUnits="userSpaceOnUse" gradientTransform="translate(1182.17 2.63714) scale(2.31254 2.2789)">
<stop offset="0.113" stop-color="#E6E7E8" stop-opacity="0.5"/>
<stop offset="0.636" stop-color="white" stop-opacity="0"/>
</radialGradient>
<radialGradient id="paint45_radial_2011_57620" cx="0" cy="0" r="1" gradientUnits="userSpaceOnUse" gradientTransform="translate(1112.95 565.9) scale(5.12065 5.08685)">
<stop offset="0.113" stop-color="#E6E7E8" stop-opacity="0.5"/>
<stop offset="0.636" stop-color="white" stop-opacity="0"/>
</radialGradient>
<radialGradient id="paint46_radial_2011_57620" cx="0" cy="0" r="1" gradientUnits="userSpaceOnUse" gradientTransform="translate(618.2 402.958) scale(1.40403 1.42432)">
<stop offset="0.113" stop-color="#E6E7E8" stop-opacity="0.5"/>
<stop offset="0.636" stop-color="white" stop-opacity="0"/>
</radialGradient>
<radialGradient id="paint47_radial_2011_57620" cx="0" cy="0" r="1" gradientUnits="userSpaceOnUse" gradientTransform="translate(1810.6 32.6639) scale(2.76678 2.72655)">
<stop offset="0.113" stop-color="#E6E7E8" stop-opacity="0.5"/>
<stop offset="0.636" stop-color="white" stop-opacity="0"/>
</radialGradient>
<radialGradient id="paint48_radial_2011_57620" cx="0" cy="0" r="1" gradientUnits="userSpaceOnUse" gradientTransform="translate(55.4978 257.078) scale(3.17975 3.17419)">
<stop offset="0.113" stop-color="#E6E7E8" stop-opacity="0.5"/>
<stop offset="0.636" stop-color="white" stop-opacity="0"/>
</radialGradient>
<radialGradient id="paint49_radial_2011_57620" cx="0" cy="0" r="1" gradientUnits="userSpaceOnUse" gradientTransform="translate(476.5 38.455) scale(1.94089 1.91265)">
<stop offset="0.113" stop-color="#E6E7E8" stop-opacity="0.5"/>
<stop offset="0.636" stop-color="white" stop-opacity="0"/>
</radialGradient>
<radialGradient id="paint50_radial_2011_57620" cx="0" cy="0" r="1" gradientUnits="userSpaceOnUse" gradientTransform="translate(1545.09 44.5413) scale(1.6931 1.70919)">
<stop offset="0.113" stop-color="#E6E7E8" stop-opacity="0.5"/>
<stop offset="0.636" stop-color="white" stop-opacity="0"/>
</radialGradient>
<radialGradient id="paint51_radial_2011_57620" cx="0" cy="0" r="1" gradientUnits="userSpaceOnUse" gradientTransform="translate(726.889 242.886) scale(4.87289 4.84268)">
<stop offset="0.113" stop-color="#E6E7E8" stop-opacity="0.5"/>
<stop offset="0.636" stop-color="white" stop-opacity="0"/>
</radialGradient>
<radialGradient id="paint52_radial_2011_57620" cx="0" cy="0" r="1" gradientUnits="userSpaceOnUse" gradientTransform="translate(1502.12 465.037) scale(1.77573 1.79058)">
<stop offset="0.113" stop-color="#E6E7E8" stop-opacity="0.5"/>
<stop offset="0.636" stop-color="white" stop-opacity="0"/>
</radialGradient>
<radialGradient id="paint53_radial_2011_57620" cx="0" cy="0" r="1" gradientUnits="userSpaceOnUse" gradientTransform="translate(1172.68 463.192) scale(4.33603 4.27295)">
<stop offset="0.113" stop-color="#E6E7E8" stop-opacity="0.5"/>
<stop offset="0.636" stop-color="white" stop-opacity="0"/>
</radialGradient>
<radialGradient id="paint54_radial_2011_57620" cx="0" cy="0" r="1" gradientUnits="userSpaceOnUse" gradientTransform="translate(694.653 167.706) scale(2.51901 2.52307)">
<stop offset="0.113" stop-color="#E6E7E8" stop-opacity="0.5"/>
<stop offset="0.636" stop-color="white" stop-opacity="0"/>
</radialGradient>
<radialGradient id="paint55_radial_2011_57620" cx="0" cy="0" r="1" gradientUnits="userSpaceOnUse" gradientTransform="translate(1737.58 639.175) scale(1.94087 1.99405)">
<stop offset="0.113" stop-color="#E6E7E8" stop-opacity="0.5"/>
<stop offset="0.636" stop-color="white" stop-opacity="0"/>
</radialGradient>
<radialGradient id="paint56_radial_2011_57620" cx="0" cy="0" r="1" gradientUnits="userSpaceOnUse" gradientTransform="translate(169.304 833.101) scale(1.32145 1.30221)">
<stop offset="0.113" stop-color="#E6E7E8" stop-opacity="0.5"/>
<stop offset="0.636" stop-color="white" stop-opacity="0"/>
</radialGradient>
<radialGradient id="paint57_radial_2011_57620" cx="0" cy="0" r="1" gradientUnits="userSpaceOnUse" gradientTransform="translate(1187.5 380.748) scale(5.16194 5.20893)">
<stop offset="0.113" stop-color="#E6E7E8" stop-opacity="0.5"/>
<stop offset="0.636" stop-color="white" stop-opacity="0"/>
</radialGradient>
<radialGradient id="paint58_radial_2011_57620" cx="0" cy="0" r="1" gradientUnits="userSpaceOnUse" gradientTransform="translate(1698.3 773.879) scale(0.991051 0.976685)">
<stop offset="0.113" stop-color="#E6E7E8" stop-opacity="0.5"/>
<stop offset="0.636" stop-color="white" stop-opacity="0"/>
</radialGradient>
<radialGradient id="paint59_radial_2011_57620" cx="0" cy="0" r="1" gradientUnits="userSpaceOnUse" gradientTransform="translate(811.023 520.193) scale(1.15629 1.13945)">
<stop offset="0.113" stop-color="#E6E7E8" stop-opacity="0.5"/>
<stop offset="0.636" stop-color="white" stop-opacity="0"/>
</radialGradient>
<radialGradient id="paint60_radial_2011_57620" cx="0" cy="0" r="1" gradientUnits="userSpaceOnUse" gradientTransform="translate(1180.73 257.191) scale(1.77568 1.74988)">
<stop offset="0.113" stop-color="#E6E7E8" stop-opacity="0.5"/>
<stop offset="0.636" stop-color="white" stop-opacity="0"/>
</radialGradient>
<radialGradient id="paint61_radial_2011_57620" cx="0" cy="0" r="1" gradientUnits="userSpaceOnUse" gradientTransform="translate(1135.93 620.548) scale(3.09716 3.05211)">
<stop offset="0.113" stop-color="#E6E7E8" stop-opacity="0.5"/>
<stop offset="0.636" stop-color="white" stop-opacity="0"/>
</radialGradient>
<radialGradient id="paint62_radial_2011_57620" cx="0" cy="0" r="1" gradientUnits="userSpaceOnUse" gradientTransform="translate(976.34 350.018) scale(4.79027 4.80198)">
<stop offset="0.113" stop-color="#E6E7E8" stop-opacity="0.5"/>
<stop offset="0.636" stop-color="white" stop-opacity="0"/>
</radialGradient>
<radialGradient id="paint63_radial_2011_57620" cx="0" cy="0" r="1" gradientUnits="userSpaceOnUse" gradientTransform="translate(923.196 164.522) scale(3.05583 3.05211)">
<stop offset="0.113" stop-color="#E6E7E8" stop-opacity="0.5"/>
<stop offset="0.636" stop-color="white" stop-opacity="0"/>
</radialGradient>
<radialGradient id="paint64_radial_2011_57620" cx="0" cy="0" r="1" gradientUnits="userSpaceOnUse" gradientTransform="translate(63.7215 470.701) scale(6.11173 6.10422)">
<stop offset="0.113" stop-color="#E6E7E8" stop-opacity="0.5"/>
<stop offset="0.636" stop-color="white" stop-opacity="0"/>
</radialGradient>
<radialGradient id="paint65_radial_2011_57620" cx="0" cy="0" r="1" gradientUnits="userSpaceOnUse" gradientTransform="translate(234.864 197.2) scale(3.634 3.66253)">
<stop offset="0.113" stop-color="#E6E7E8" stop-opacity="0.5"/>
<stop offset="0.636" stop-color="white" stop-opacity="0"/>
</radialGradient>
<radialGradient id="paint66_radial_2011_57620" cx="0" cy="0" r="1" gradientUnits="userSpaceOnUse" gradientTransform="translate(1875.47 374.158) scale(1.73439 1.70919)">
<stop offset="0.113" stop-color="#E6E7E8" stop-opacity="0.5"/>
<stop offset="0.636" stop-color="white" stop-opacity="0"/>
</radialGradient>
<radialGradient id="paint67_radial_2011_57620" cx="0" cy="0" r="1" gradientUnits="userSpaceOnUse" gradientTransform="translate(405.537 186.147) scale(4.17083 4.19157)">
<stop offset="0.113" stop-color="#E6E7E8" stop-opacity="0.5"/>
<stop offset="0.636" stop-color="white" stop-opacity="0"/>
</radialGradient>
<radialGradient id="paint68_radial_2011_57620" cx="0" cy="0" r="1" gradientUnits="userSpaceOnUse" gradientTransform="translate(96.0957 817.563) scale(5.53359 5.53448)">
<stop offset="0.113" stop-color="#E6E7E8" stop-opacity="0.5"/>
<stop offset="0.636" stop-color="white" stop-opacity="0"/>
</radialGradient>
<radialGradient id="paint69_radial_2011_57620" cx="0" cy="0" r="1" gradientUnits="userSpaceOnUse" gradientTransform="translate(851.541 177.731) scale(3.01454 3.01141)">
<stop offset="0.113" stop-color="#E6E7E8" stop-opacity="0.5"/>
<stop offset="0.636" stop-color="white" stop-opacity="0"/>
</radialGradient>
<radialGradient id="paint70_radial_2011_57620" cx="0" cy="0" r="1" gradientUnits="userSpaceOnUse" gradientTransform="translate(1254.94 269.505) scale(3.71659 3.66253)">
<stop offset="0.113" stop-color="#E6E7E8" stop-opacity="0.5"/>
<stop offset="0.636" stop-color="white" stop-opacity="0"/>
</radialGradient>
<radialGradient id="paint71_radial_2011_57620" cx="0" cy="0" r="1" gradientUnits="userSpaceOnUse" gradientTransform="translate(1819.21 332.523) scale(2.27125 2.2789)">
<stop offset="0.113" stop-color="#E6E7E8" stop-opacity="0.5"/>
<stop offset="0.636" stop-color="white" stop-opacity="0"/>
</radialGradient>
<radialGradient id="paint72_radial_2011_57620" cx="0" cy="0" r="1" gradientUnits="userSpaceOnUse" gradientTransform="translate(1628.55 657.479) scale(2.10606 2.07542)">
<stop offset="0.113" stop-color="#E6E7E8" stop-opacity="0.5"/>
<stop offset="0.636" stop-color="white" stop-opacity="0"/>
</radialGradient>
<radialGradient id="paint73_radial_2011_57620" cx="0" cy="0" r="1" gradientUnits="userSpaceOnUse" gradientTransform="translate(83.1721 180.041) scale(7.18542 7.20297)">
<stop offset="0.113" stop-color="#E6E7E8" stop-opacity="0.5"/>
<stop offset="0.636" stop-color="white" stop-opacity="0"/>
</radialGradient>
<radialGradient id="paint74_radial_2011_57620" cx="0" cy="0" r="1" gradientUnits="userSpaceOnUse" gradientTransform="translate(1696.71 332.711) scale(5.20325 5.20894)">
<stop offset="0.113" stop-color="#E6E7E8" stop-opacity="0.5"/>
<stop offset="0.636" stop-color="white" stop-opacity="0"/>
</radialGradient>
</defs>
</svg>
