<svg width="41" height="41" viewBox="0 0 41 41" fill="none" xmlns="http://www.w3.org/2000/svg">
<path d="M20.0264 16.5843V0.0770047C23.2739 -0.374041 30.3643 0.942092 30.5808 9.81866C30.7973 18.6952 23.6347 20.5535 20.0264 20.3731V16.5843Z" fill="#F46D6B"/>
<path d="M23.5064 20.4123L40.008 20.8466C40.3734 24.1049 38.8712 31.1582 29.992 31.1411C21.1128 31.124 19.4436 23.915 19.7189 20.3126L23.5064 20.4123Z" fill="#F46D6B"/>
<path d="M20.1258 23.9618L19.9257 40.4679C16.673 40.8796 9.59902 39.4776 9.49014 30.599C9.38125 21.7205 16.5659 19.9491 20.1718 20.1733L20.1258 23.9618Z" fill="#F46D6B"/>
<path d="M16.6058 20.3876L0.0984889 20.4217C-0.359274 17.1751 0.942188 10.082 9.81829 9.84713C18.6944 9.61226 20.5675 16.771 20.3946 20.3797L16.6058 20.3876Z" fill="#F46D6B"/>
</svg>
