<svg width="100" height="96" viewBox="0 0 100 96" fill="none" xmlns="http://www.w3.org/2000/svg">
<path fill-rule="evenodd" clip-rule="evenodd" d="M36.247 95.98C16.2742 95.98 0 79.3361 0 58.8084C0 38.3732 16.2742 21.6367 36.247 21.6367C56.2199 21.6367 72.494 38.3732 72.494 58.8084C72.494 79.3361 56.2199 95.98 36.247 95.98ZM36.247 24.3182C17.6612 24.3182 2.58909 39.7602 2.58909 58.8084C2.58909 77.8566 17.6612 93.391 36.247 93.391C54.7404 93.391 69.9049 77.8566 69.9049 58.8084C69.9049 39.7602 54.7404 24.3182 36.247 24.3182Z" fill="white"/>
<path d="M69.0728 73.7885C68.518 73.7885 67.9632 73.3262 67.8708 72.679C67.6858 71.9392 68.1482 71.292 68.8879 71.107C84.8847 68.1481 96.443 53.9082 96.443 37.1717C96.443 18.1235 81.3709 2.68156 62.7851 2.68156C44.1992 2.68156 29.1271 18.1235 29.1271 37.1717C29.1271 45.4012 31.9936 53.3534 37.1718 59.6411C37.6341 60.1959 37.6341 61.0281 37.0793 61.4905C36.5245 61.9528 35.6923 61.8603 35.23 61.3055C29.682 54.6479 26.5381 46.0485 26.5381 37.1717C26.5381 16.7365 42.8122 0 62.7851 0C82.7579 0 99.0321 16.7365 99.0321 37.1717C99.0321 55.1103 86.5491 70.5522 69.3502 73.7885C69.2886 73.7885 69.1961 73.7885 69.0728 73.7885Z" fill="white"/>
<path fill-rule="evenodd" clip-rule="evenodd" d="M41.7951 69.3496C39.4834 69.3496 37.7266 67.5003 37.7266 65.1886C37.7266 62.9694 39.4834 61.1201 41.7951 61.1201C44.0143 61.1201 45.7712 62.9694 45.7712 65.1886C45.7712 67.5003 44.0143 69.3496 41.7951 69.3496ZM41.7951 63.7092C40.9629 63.7092 40.3156 64.3564 40.3156 65.1886C40.3156 66.0208 40.9629 66.7606 41.7951 66.7606C42.5348 66.7606 43.1821 66.0208 43.1821 65.1886C43.1821 64.3564 42.5348 63.7092 41.7951 63.7092Z" fill="white"/>
</svg>
