<svg width="517" height="356" viewBox="0 0 517 356" fill="none" xmlns="http://www.w3.org/2000/svg">
<rect width="517" height="356" rx="16" fill="white"/>
<path d="M32.2314 42.1641C31.4704 42.1641 30.8096 42.0456 30.249 41.8086C29.693 41.5671 29.2578 41.223 28.9434 40.7764C28.6289 40.3298 28.4535 39.7988 28.417 39.1836H29.9619C29.9938 39.5527 30.1123 39.8604 30.3174 40.1064C30.527 40.348 30.7982 40.528 31.1309 40.6465C31.4635 40.765 31.8281 40.8242 32.2246 40.8242C32.6576 40.8242 33.0449 40.7559 33.3867 40.6191C33.7285 40.4824 33.9951 40.291 34.1865 40.0449C34.3825 39.7943 34.4805 39.5026 34.4805 39.1699C34.4805 38.8691 34.3939 38.623 34.2207 38.4316C34.0521 38.2402 33.8219 38.083 33.5303 37.96C33.2386 37.8324 32.9105 37.7207 32.5459 37.625L31.3496 37.2969C30.5293 37.0781 29.8822 36.7523 29.4082 36.3193C28.9342 35.8818 28.6973 35.3099 28.6973 34.6035C28.6973 34.0156 28.8545 33.5029 29.1689 33.0654C29.488 32.6279 29.9186 32.2884 30.4609 32.0469C31.0078 31.8008 31.6208 31.6777 32.2998 31.6777C32.9925 31.6777 33.6009 31.8008 34.125 32.0469C34.6536 32.2884 35.0706 32.6211 35.376 33.0449C35.6859 33.4642 35.8477 33.945 35.8613 34.4873H34.3711C34.3164 34.0179 34.0977 33.6533 33.7148 33.3936C33.3366 33.1338 32.8535 33.0039 32.2656 33.0039C31.8555 33.0039 31.4954 33.07 31.1855 33.2021C30.8802 33.3298 30.6432 33.5075 30.4746 33.7354C30.3105 33.9632 30.2285 34.2253 30.2285 34.5215C30.2285 34.8405 30.3265 35.1003 30.5225 35.3008C30.723 35.5013 30.9645 35.6608 31.2471 35.7793C31.5342 35.8932 31.8099 35.9867 32.0742 36.0596L33.0654 36.3262C33.389 36.4082 33.7217 36.5176 34.0635 36.6543C34.4053 36.791 34.722 36.971 35.0137 37.1943C35.3099 37.4131 35.5469 37.6865 35.7246 38.0146C35.9069 38.3382 35.998 38.7301 35.998 39.1904C35.998 39.7601 35.8499 40.2705 35.5537 40.7217C35.2575 41.1683 34.8291 41.5215 34.2686 41.7812C33.708 42.0365 33.029 42.1641 32.2314 42.1641ZM36.6328 44.8574V34.3574H38.0684V35.6016H38.1914C38.2826 35.4421 38.4079 35.2575 38.5674 35.0479C38.7314 34.8382 38.9593 34.6559 39.251 34.501C39.5426 34.3415 39.9232 34.2617 40.3926 34.2617C41.0078 34.2617 41.5547 34.4167 42.0332 34.7266C42.5163 35.0365 42.8968 35.4854 43.1748 36.0732C43.4528 36.6611 43.5918 37.3698 43.5918 38.1992C43.5918 39.0195 43.4551 39.7259 43.1816 40.3184C42.9082 40.9062 42.5299 41.3597 42.0469 41.6787C41.5684 41.9932 41.0192 42.1504 40.3994 42.1504C39.9391 42.1504 39.5609 42.0729 39.2646 41.918C38.973 41.7585 38.7428 41.5739 38.5742 41.3643C38.4102 41.1546 38.2826 40.9701 38.1914 40.8105H38.1094V44.8574H36.6328ZM40.0781 40.8857C40.5202 40.8857 40.8893 40.7673 41.1855 40.5303C41.4818 40.2933 41.7051 39.972 41.8555 39.5664C42.0104 39.1562 42.0879 38.696 42.0879 38.1855C42.0879 37.6797 42.0127 37.2262 41.8623 36.8252C41.7119 36.4242 41.4886 36.1074 41.1924 35.875C40.8962 35.6426 40.5247 35.5264 40.0781 35.5264C39.6452 35.5264 39.2806 35.638 38.9844 35.8613C38.6882 36.0801 38.4626 36.39 38.3076 36.791C38.1572 37.1875 38.082 37.6523 38.082 38.1855C38.082 38.7188 38.1595 39.1882 38.3145 39.5938C38.4694 39.9993 38.695 40.3161 38.9912 40.5439C39.292 40.7718 39.6543 40.8857 40.0781 40.8857ZM47.46 42.1572C46.7126 42.1572 46.0654 41.9954 45.5186 41.6719C44.9717 41.3483 44.5501 40.8926 44.2539 40.3047C43.9622 39.7122 43.8164 39.0218 43.8164 38.2334C43.8164 37.4495 43.96 36.7591 44.2471 36.1621C44.5387 35.5651 44.9466 35.1003 45.4707 34.7676C45.9993 34.4303 46.6191 34.2617 47.3301 34.2617C47.763 34.2617 48.1823 34.3324 48.5879 34.4736C48.9935 34.6149 49.3581 34.8382 49.6816 35.1436C50.0052 35.4489 50.2604 35.8454 50.4473 36.333C50.6387 36.8206 50.7344 37.4085 50.7344 38.0967V38.6299H44.6572V37.5156H49.9688L49.2783 37.8848C49.2783 37.4154 49.2054 37.0007 49.0596 36.6406C48.9137 36.2806 48.695 36.0003 48.4033 35.7998C48.1162 35.5947 47.7585 35.4922 47.3301 35.4922C46.9017 35.4922 46.5348 35.5947 46.2295 35.7998C45.9287 36.0049 45.6986 36.276 45.5391 36.6133C45.3796 36.9505 45.2998 37.3197 45.2998 37.7207V38.4795C45.2998 39.0036 45.391 39.4479 45.5732 39.8125C45.7555 40.1771 46.0085 40.4551 46.332 40.6465C46.6602 40.8379 47.0407 40.9336 47.4736 40.9336C47.7562 40.9336 48.0114 40.8926 48.2393 40.8105C48.4717 40.7285 48.6722 40.6055 48.8408 40.4414C49.0094 40.2773 49.137 40.0745 49.2236 39.833L50.6318 40.0996C50.5179 40.5098 50.3174 40.8698 50.0303 41.1797C49.7432 41.4896 49.3809 41.7311 48.9434 41.9043C48.5104 42.0729 48.016 42.1572 47.46 42.1572ZM52.75 37.4678V42H51.2734V34.3574H52.709V35.6152H52.8115C52.9847 35.2005 53.2559 34.8724 53.625 34.6309C53.9941 34.3848 54.4681 34.2617 55.0469 34.2617C55.5664 34.2617 56.0199 34.3711 56.4072 34.5898C56.7992 34.804 57.1022 35.1253 57.3164 35.5537C57.5352 35.9821 57.6445 36.513 57.6445 37.1465V42H56.168V37.3242C56.168 36.7728 56.0221 36.3398 55.7305 36.0254C55.4388 35.7064 55.0423 35.5469 54.541 35.5469C54.1992 35.5469 53.8916 35.6243 53.6182 35.7793C53.3493 35.9297 53.1374 36.1462 52.9824 36.4287C52.8275 36.7113 52.75 37.0576 52.75 37.4678ZM61.4102 42.1504C60.7904 42.1504 60.2389 41.9932 59.7559 41.6787C59.2728 41.3597 58.8945 40.9062 58.6211 40.3184C58.3477 39.7259 58.2109 39.0195 58.2109 38.1992C58.2109 37.3698 58.3499 36.6611 58.6279 36.0732C58.9059 35.4854 59.2865 35.0365 59.7695 34.7266C60.2526 34.4167 60.7995 34.2617 61.4102 34.2617C61.8887 34.2617 62.2715 34.3415 62.5586 34.501C62.8503 34.6559 63.0758 34.8382 63.2354 35.0479C63.3994 35.2575 63.5247 35.4421 63.6113 35.6016H63.7002V31.8145H65.1768V42H63.7344V40.8105H63.6113C63.5247 40.9701 63.3971 41.1546 63.2285 41.3643C63.0599 41.5739 62.8298 41.7585 62.5381 41.918C62.251 42.0729 61.875 42.1504 61.4102 42.1504ZM61.7314 40.8857C62.1598 40.8857 62.5221 40.7718 62.8184 40.5439C63.1146 40.3161 63.3379 39.9993 63.4883 39.5938C63.6432 39.1882 63.7207 38.7188 63.7207 38.1855C63.7207 37.6523 63.6455 37.1875 63.4951 36.791C63.3447 36.39 63.1214 36.0801 62.8252 35.8613C62.529 35.638 62.1644 35.5264 61.7314 35.5264C61.2848 35.5264 60.9134 35.6426 60.6172 35.875C60.321 36.1074 60.0977 36.4242 59.9473 36.8252C59.7969 37.2262 59.7217 37.6797 59.7217 38.1855C59.7217 38.696 59.7969 39.1562 59.9473 39.5664C60.0977 39.972 60.321 40.2933 60.6172 40.5303C60.918 40.7673 61.2894 40.8857 61.7314 40.8857ZM66.1055 42V34.3574H67.582V42H66.1055ZM66.8506 33.1816C66.5908 33.1816 66.3698 33.0951 66.1875 32.9219C66.0052 32.7487 65.9141 32.5413 65.9141 32.2998C65.9141 32.0537 66.0052 31.8441 66.1875 31.6709C66.3698 31.4977 66.5908 31.4111 66.8506 31.4111C67.1058 31.4111 67.3245 31.4977 67.5068 31.6709C67.6937 31.8441 67.7871 32.0537 67.7871 32.2998C67.7871 32.5413 67.6937 32.7487 67.5068 32.9219C67.3245 33.0951 67.1058 33.1816 66.8506 33.1816ZM69.9805 37.4678V42H68.5039V34.3574H69.9395V35.6152H70.042C70.2152 35.2005 70.4863 34.8724 70.8555 34.6309C71.2246 34.3848 71.6986 34.2617 72.2773 34.2617C72.7969 34.2617 73.2503 34.3711 73.6377 34.5898C74.0296 34.804 74.3327 35.1253 74.5469 35.5537C74.7656 35.9821 74.875 36.513 74.875 37.1465V42H73.3984V37.3242C73.3984 36.7728 73.2526 36.3398 72.9609 36.0254C72.6693 35.7064 72.2728 35.5469 71.7715 35.5469C71.4297 35.5469 71.1221 35.6243 70.8486 35.7793C70.5798 35.9297 70.3678 36.1462 70.2129 36.4287C70.0579 36.7113 69.9805 37.0576 69.9805 37.4678ZM78.9824 45.0215C78.071 45.0215 77.3532 44.8506 76.8291 44.5088C76.305 44.167 75.9427 43.7614 75.7422 43.292L77.0137 42.7656C77.1048 42.9115 77.2256 43.0664 77.376 43.2305C77.5309 43.3945 77.7383 43.5335 77.998 43.6475C78.2578 43.7614 78.5928 43.8184 79.0029 43.8184C79.5635 43.8184 80.0283 43.6816 80.3975 43.4082C80.7666 43.1393 80.9512 42.7064 80.9512 42.1094V40.6123H80.8486C80.7666 40.7718 80.6413 40.9518 80.4727 41.1523C80.304 41.3483 80.0739 41.5192 79.7822 41.665C79.4906 41.8109 79.11 41.8838 78.6406 41.8838C78.0391 41.8838 77.4967 41.7425 77.0137 41.46C76.5352 41.1729 76.1523 40.7536 75.8652 40.2021C75.5827 39.6462 75.4414 38.9626 75.4414 38.1514C75.4414 37.3402 75.5804 36.6452 75.8584 36.0664C76.141 35.4831 76.5238 35.0365 77.0068 34.7266C77.4899 34.4167 78.0391 34.2617 78.6543 34.2617C79.1283 34.2617 79.5111 34.3415 79.8027 34.501C80.099 34.6559 80.3291 34.8382 80.4932 35.0479C80.6572 35.2575 80.7848 35.4421 80.876 35.6016H80.9854V34.3574H82.4277V42.1709C82.4277 42.8271 82.2751 43.3649 81.9697 43.7842C81.6689 44.2035 81.2588 44.5133 80.7393 44.7139C80.2197 44.9189 79.6341 45.0215 78.9824 45.0215ZM78.9688 40.6465C79.6113 40.6465 80.1035 40.4255 80.4453 39.9834C80.7917 39.5368 80.9648 38.9193 80.9648 38.1309C80.9648 37.6159 80.8896 37.1647 80.7393 36.7773C80.5889 36.3854 80.3656 36.0801 80.0693 35.8613C79.7731 35.638 79.4062 35.5264 78.9688 35.5264C78.5221 35.5264 78.1484 35.6426 77.8477 35.875C77.5514 36.1029 77.3281 36.415 77.1777 36.8115C77.0273 37.2035 76.9521 37.6432 76.9521 38.1309C76.9521 38.6276 77.0273 39.0674 77.1777 39.4502C77.3281 39.8285 77.5537 40.1224 77.8545 40.332C78.1598 40.5417 78.5312 40.6465 78.9688 40.6465ZM89.0645 36.2305L87.7178 36.4629C87.6312 36.2077 87.4694 35.973 87.2324 35.7588C87 35.5446 86.6514 35.4375 86.1865 35.4375C85.7673 35.4375 85.4163 35.5332 85.1338 35.7246C84.8558 35.9115 84.7168 36.1507 84.7168 36.4424C84.7168 36.6976 84.8102 36.9049 84.9971 37.0645C85.1885 37.224 85.4915 37.3516 85.9062 37.4473L87.1299 37.7207C87.8271 37.8802 88.349 38.1309 88.6953 38.4727C89.0417 38.8145 89.2148 39.252 89.2148 39.7852C89.2148 40.2454 89.0827 40.6556 88.8184 41.0156C88.554 41.3711 88.1872 41.6514 87.7178 41.8564C87.2484 42.057 86.7061 42.1572 86.0908 42.1572C85.234 42.1572 84.5368 41.9727 83.999 41.6035C83.4613 41.2344 83.1309 40.7148 83.0078 40.0449L84.4365 39.8262C84.5277 40.1999 84.7122 40.4824 84.9902 40.6738C85.2728 40.8652 85.6374 40.9609 86.084 40.9609C86.5671 40.9609 86.9544 40.8584 87.2461 40.6533C87.5423 40.4482 87.6904 40.1999 87.6904 39.9082C87.6904 39.4251 87.3304 39.0993 86.6104 38.9307L85.3184 38.6436C84.6029 38.4795 84.0742 38.222 83.7324 37.8711C83.3952 37.5156 83.2266 37.069 83.2266 36.5312C83.2266 36.0801 83.3519 35.6836 83.6025 35.3418C83.8577 35 84.2064 34.7357 84.6484 34.5488C85.0951 34.3574 85.6032 34.2617 86.1729 34.2617C87.0023 34.2617 87.6517 34.4417 88.1211 34.8018C88.5951 35.1618 88.9095 35.638 89.0645 36.2305Z" fill="#F46D6B"/>
<path d="M29.6406 94V73.6289H37.1191C38.5592 73.6289 39.7533 73.8659 40.7012 74.3398C41.6491 74.8138 42.3555 75.4564 42.8203 76.2676C43.2943 77.0697 43.5312 77.972 43.5312 78.9746C43.5312 79.8223 43.3717 80.5378 43.0527 81.1211C42.7428 81.7044 42.3281 82.1693 41.8086 82.5156C41.2891 82.862 40.7148 83.1172 40.0859 83.2812V83.4727C40.7695 83.5091 41.4349 83.7279 42.082 84.1289C42.7292 84.5299 43.2624 85.0996 43.6816 85.8379C44.11 86.5671 44.3242 87.4603 44.3242 88.5176C44.3242 89.5566 44.0781 90.4909 43.5859 91.3203C43.1029 92.1406 42.3555 92.7923 41.3438 93.2754C40.332 93.7585 39.0332 94 37.4473 94H29.6406ZM32.7168 91.375H37.1465C38.623 91.375 39.6803 91.0879 40.3184 90.5137C40.9564 89.9395 41.2754 89.224 41.2754 88.3672C41.2754 87.7201 41.1113 87.1322 40.7832 86.6035C40.4642 86.0658 40.0039 85.6374 39.4023 85.3184C38.8008 84.9993 38.0898 84.8398 37.2695 84.8398H32.7168V91.375ZM32.7168 82.4473H36.8457C37.5293 82.4473 38.1491 82.3151 38.7051 82.0508C39.2611 81.7865 39.6986 81.4128 40.0176 80.9297C40.3457 80.4375 40.5098 79.8678 40.5098 79.2207C40.5098 78.3822 40.2135 77.6803 39.6211 77.1152C39.0378 76.541 38.14 76.2539 36.9277 76.2539H32.7168V82.4473ZM56.2461 87.6836V78.7148H59.1992V94H56.3008V91.3477H56.1367C55.7721 92.1589 55.207 92.8379 54.4414 93.3848C53.6758 93.9316 52.7188 94.2005 51.5703 94.1914C50.5859 94.1914 49.7155 93.9772 48.959 93.5488C48.2116 93.1204 47.6237 92.4779 47.1953 91.6211C46.776 90.7643 46.5664 89.7025 46.5664 88.4355V78.7148H49.5195V88.0938C49.5195 89.1237 49.8112 89.9486 50.3945 90.5684C50.9779 91.1882 51.7298 91.4935 52.6504 91.4844C53.2064 91.4844 53.7578 91.3477 54.3047 91.0742C54.8607 90.8008 55.321 90.3815 55.6855 89.8164C56.0592 89.2513 56.2461 88.5404 56.2461 87.6836ZM73.4727 82.4609L70.7793 82.9258C70.6061 82.4154 70.2826 81.946 69.8086 81.5176C69.3438 81.0892 68.6465 80.875 67.7168 80.875C66.8783 80.875 66.1764 81.0664 65.6113 81.4492C65.0553 81.8229 64.7773 82.3014 64.7773 82.8848C64.7773 83.3952 64.9642 83.8099 65.3379 84.1289C65.7207 84.4479 66.3268 84.7031 67.1562 84.8945L69.6035 85.4414C70.998 85.7604 72.0417 86.2617 72.7344 86.9453C73.4271 87.6289 73.7734 88.5039 73.7734 89.5703C73.7734 90.4909 73.5091 91.3112 72.9805 92.0312C72.4518 92.7422 71.7181 93.3027 70.7793 93.7129C69.8405 94.1139 68.7559 94.3145 67.5254 94.3145C65.8118 94.3145 64.4173 93.9453 63.3418 93.207C62.2663 92.4688 61.6055 91.4297 61.3594 90.0898L64.2168 89.6523C64.3991 90.3997 64.7682 90.9648 65.3242 91.3477C65.8893 91.7305 66.6185 91.9219 67.5117 91.9219C68.4779 91.9219 69.2526 91.7168 69.8359 91.3066C70.4284 90.8965 70.7246 90.3997 70.7246 89.8164C70.7246 88.8503 70.0046 88.1986 68.5645 87.8613L65.9805 87.2871C64.5495 86.959 63.4922 86.444 62.8086 85.7422C62.1341 85.0312 61.7969 84.138 61.7969 83.0625C61.7969 82.1602 62.0475 81.3672 62.5488 80.6836C63.0592 80 63.7565 79.4714 64.6406 79.0977C65.5339 78.7148 66.5501 78.5234 67.6895 78.5234C69.3483 78.5234 70.6471 78.8835 71.5859 79.6035C72.5339 80.3236 73.1628 81.276 73.4727 82.4609ZM75.8516 94V78.7148H78.8047V94H75.8516ZM77.3418 76.3633C76.8223 76.3633 76.3802 76.1901 76.0156 75.8438C75.651 75.4974 75.4688 75.0827 75.4688 74.5996C75.4688 74.1074 75.651 73.6882 76.0156 73.3418C76.3802 72.9954 76.8223 72.8223 77.3418 72.8223C77.8522 72.8223 78.2897 72.9954 78.6543 73.3418C79.028 73.6882 79.2148 74.1074 79.2148 74.5996C79.2148 75.0827 79.028 75.4974 78.6543 75.8438C78.2897 76.1901 77.8522 76.3633 77.3418 76.3633ZM84.6016 84.9355V94H81.6484V78.7148H84.5195V81.2305H84.7246C85.071 80.401 85.6133 79.7448 86.3516 79.2617C87.0898 78.7695 88.0378 78.5234 89.1953 78.5234C90.2344 78.5234 91.1413 78.7422 91.916 79.1797C92.6999 79.6081 93.306 80.2507 93.7344 81.1074C94.1719 81.9642 94.3906 83.026 94.3906 84.293V94H91.4375V84.6484C91.4375 83.5456 91.1458 82.6797 90.5625 82.0508C89.9792 81.4128 89.1862 81.0938 88.1836 81.0938C87.5 81.0938 86.8848 81.2487 86.3379 81.5586C85.8001 81.8594 85.3763 82.2923 85.0664 82.8574C84.7565 83.4225 84.6016 84.1152 84.6016 84.9355ZM103.811 94.3145C102.316 94.3145 101.021 93.9909 99.9277 93.3438C98.834 92.6966 97.9909 91.7852 97.3984 90.6094C96.8151 89.4245 96.5234 88.0436 96.5234 86.4668C96.5234 84.8991 96.8105 83.5182 97.3848 82.3242C97.9681 81.1302 98.7839 80.2005 99.832 79.5352C100.889 78.8607 102.129 78.5234 103.551 78.5234C104.417 78.5234 105.255 78.6647 106.066 78.9473C106.878 79.2298 107.607 79.6764 108.254 80.2871C108.901 80.8978 109.411 81.6908 109.785 82.666C110.168 83.6413 110.359 84.8171 110.359 86.1934V87.2598H98.2051V85.0312H108.828L107.447 85.7695C107.447 84.8307 107.301 84.0013 107.01 83.2812C106.718 82.5612 106.281 82.0007 105.697 81.5996C105.123 81.1895 104.408 80.9844 103.551 80.9844C102.694 80.9844 101.96 81.1895 101.35 81.5996C100.748 82.0098 100.288 82.5521 99.9688 83.2266C99.6497 83.901 99.4902 84.6393 99.4902 85.4414V86.959C99.4902 88.0072 99.6725 88.8958 100.037 89.625C100.402 90.3542 100.908 90.9102 101.555 91.293C102.211 91.6758 102.972 91.8672 103.838 91.8672C104.403 91.8672 104.913 91.7852 105.369 91.6211C105.834 91.457 106.235 91.2109 106.572 90.8828C106.91 90.5547 107.165 90.1491 107.338 89.666L110.154 90.1992C109.926 91.0195 109.525 91.7396 108.951 92.3594C108.377 92.9792 107.652 93.4622 106.777 93.8086C105.911 94.1458 104.923 94.3145 103.811 94.3145ZM123.867 82.4609L121.174 82.9258C121.001 82.4154 120.677 81.946 120.203 81.5176C119.738 81.0892 119.041 80.875 118.111 80.875C117.273 80.875 116.571 81.0664 116.006 81.4492C115.45 81.8229 115.172 82.3014 115.172 82.8848C115.172 83.3952 115.359 83.8099 115.732 84.1289C116.115 84.4479 116.721 84.7031 117.551 84.8945L119.998 85.4414C121.393 85.7604 122.436 86.2617 123.129 86.9453C123.822 87.6289 124.168 88.5039 124.168 89.5703C124.168 90.4909 123.904 91.3112 123.375 92.0312C122.846 92.7422 122.113 93.3027 121.174 93.7129C120.235 94.1139 119.15 94.3145 117.92 94.3145C116.206 94.3145 114.812 93.9453 113.736 93.207C112.661 92.4688 112 91.4297 111.754 90.0898L114.611 89.6523C114.794 90.3997 115.163 90.9648 115.719 91.3477C116.284 91.7305 117.013 91.9219 117.906 91.9219C118.872 91.9219 119.647 91.7168 120.23 91.3066C120.823 90.8965 121.119 90.3997 121.119 89.8164C121.119 88.8503 120.399 88.1986 118.959 87.8613L116.375 87.2871C114.944 86.959 113.887 86.444 113.203 85.7422C112.529 85.0312 112.191 84.138 112.191 83.0625C112.191 82.1602 112.442 81.3672 112.943 80.6836C113.454 80 114.151 79.4714 115.035 79.0977C115.928 78.7148 116.945 78.5234 118.084 78.5234C119.743 78.5234 121.042 78.8835 121.98 79.6035C122.928 80.3236 123.557 81.276 123.867 82.4609ZM137.676 82.4609L134.982 82.9258C134.809 82.4154 134.486 81.946 134.012 81.5176C133.547 81.0892 132.85 80.875 131.92 80.875C131.081 80.875 130.38 81.0664 129.814 81.4492C129.258 81.8229 128.98 82.3014 128.98 82.8848C128.98 83.3952 129.167 83.8099 129.541 84.1289C129.924 84.4479 130.53 84.7031 131.359 84.8945L133.807 85.4414C135.201 85.7604 136.245 86.2617 136.938 86.9453C137.63 87.6289 137.977 88.5039 137.977 89.5703C137.977 90.4909 137.712 91.3112 137.184 92.0312C136.655 92.7422 135.921 93.3027 134.982 93.7129C134.044 94.1139 132.959 94.3145 131.729 94.3145C130.015 94.3145 128.62 93.9453 127.545 93.207C126.469 92.4688 125.809 91.4297 125.562 90.0898L128.42 89.6523C128.602 90.3997 128.971 90.9648 129.527 91.3477C130.092 91.7305 130.822 91.9219 131.715 91.9219C132.681 91.9219 133.456 91.7168 134.039 91.3066C134.632 90.8965 134.928 90.3997 134.928 89.8164C134.928 88.8503 134.208 88.1986 132.768 87.8613L130.184 87.2871C128.753 86.959 127.695 86.444 127.012 85.7422C126.337 85.0312 126 84.138 126 83.0625C126 82.1602 126.251 81.3672 126.752 80.6836C127.262 80 127.96 79.4714 128.844 79.0977C129.737 78.7148 130.753 78.5234 131.893 78.5234C133.551 78.5234 134.85 78.8835 135.789 79.6035C136.737 80.3236 137.366 81.276 137.676 82.4609ZM150.719 94.3281C149.753 94.3281 148.878 94.1504 148.094 93.7949C147.31 93.4303 146.69 92.9017 146.234 92.209C145.779 91.5163 145.551 90.6732 145.551 89.6797C145.551 88.8138 145.715 88.1074 146.043 87.5605C146.38 87.0046 146.831 86.5625 147.396 86.2344C147.962 85.9062 148.59 85.6602 149.283 85.4961C149.976 85.332 150.687 85.2044 151.416 85.1133C152.337 85.013 153.079 84.9264 153.645 84.8535C154.21 84.7806 154.62 84.6667 154.875 84.5117C155.139 84.3477 155.271 84.0879 155.271 83.7324V83.6641C155.271 82.7982 155.025 82.1283 154.533 81.6543C154.05 81.1803 153.33 80.9434 152.373 80.9434C151.38 80.9434 150.591 81.1621 150.008 81.5996C149.434 82.028 149.037 82.5156 148.818 83.0625L146.016 82.4199C146.353 81.4902 146.84 80.7428 147.479 80.1777C148.126 79.6035 148.864 79.1842 149.693 78.9199C150.532 78.6556 151.407 78.5234 152.318 78.5234C152.929 78.5234 153.576 78.5964 154.26 78.7422C154.943 78.8789 155.586 79.1387 156.188 79.5215C156.798 79.8952 157.295 80.4329 157.678 81.1348C158.061 81.8366 158.252 82.7435 158.252 83.8555V94H155.34V91.9082H155.23C155.048 92.2819 154.761 92.6556 154.369 93.0293C153.986 93.403 153.494 93.7129 152.893 93.959C152.291 94.2051 151.566 94.3281 150.719 94.3281ZM151.361 91.9492C152.191 91.9492 152.897 91.7897 153.48 91.4707C154.064 91.1426 154.51 90.7142 154.82 90.1855C155.13 89.6569 155.285 89.0964 155.285 88.5039V86.5215C155.176 86.6217 154.971 86.7174 154.67 86.8086C154.369 86.8997 154.027 86.9772 153.645 87.041C153.262 87.1048 152.888 87.1641 152.523 87.2188C152.159 87.2643 151.854 87.3008 151.607 87.3281C151.033 87.4102 150.509 87.5378 150.035 87.7109C149.561 87.875 149.178 88.1211 148.887 88.4492C148.604 88.7682 148.463 89.1921 148.463 89.7207C148.463 90.459 148.736 91.015 149.283 91.3887C149.83 91.7624 150.523 91.9492 151.361 91.9492ZM164.062 84.9355V94H161.109V78.7148H163.98V81.2305H164.186C164.532 80.401 165.074 79.7448 165.812 79.2617C166.551 78.7695 167.499 78.5234 168.656 78.5234C169.695 78.5234 170.602 78.7422 171.377 79.1797C172.161 79.6081 172.767 80.2507 173.195 81.1074C173.633 81.9642 173.852 83.026 173.852 84.293V94H170.898V84.6484C170.898 83.5456 170.607 82.6797 170.023 82.0508C169.44 81.4128 168.647 81.0938 167.645 81.0938C166.961 81.0938 166.346 81.2487 165.799 81.5586C165.261 81.8594 164.837 82.2923 164.527 82.8574C164.217 83.4225 164.062 84.1152 164.062 84.9355ZM181.125 94.3281C180.159 94.3281 179.284 94.1504 178.5 93.7949C177.716 93.4303 177.096 92.9017 176.641 92.209C176.185 91.5163 175.957 90.6732 175.957 89.6797C175.957 88.8138 176.121 88.1074 176.449 87.5605C176.786 87.0046 177.238 86.5625 177.803 86.2344C178.368 85.9062 178.997 85.6602 179.689 85.4961C180.382 85.332 181.093 85.2044 181.822 85.1133C182.743 85.013 183.486 84.9264 184.051 84.8535C184.616 84.7806 185.026 84.6667 185.281 84.5117C185.546 84.3477 185.678 84.0879 185.678 83.7324V83.6641C185.678 82.7982 185.432 82.1283 184.939 81.6543C184.456 81.1803 183.736 80.9434 182.779 80.9434C181.786 80.9434 180.997 81.1621 180.414 81.5996C179.84 82.028 179.443 82.5156 179.225 83.0625L176.422 82.4199C176.759 81.4902 177.247 80.7428 177.885 80.1777C178.532 79.6035 179.27 79.1842 180.1 78.9199C180.938 78.6556 181.813 78.5234 182.725 78.5234C183.335 78.5234 183.982 78.5964 184.666 78.7422C185.35 78.8789 185.992 79.1387 186.594 79.5215C187.204 79.8952 187.701 80.4329 188.084 81.1348C188.467 81.8366 188.658 82.7435 188.658 83.8555V94H185.746V91.9082H185.637C185.454 92.2819 185.167 92.6556 184.775 93.0293C184.393 93.403 183.9 93.7129 183.299 93.959C182.697 94.2051 181.973 94.3281 181.125 94.3281ZM181.768 91.9492C182.597 91.9492 183.303 91.7897 183.887 91.4707C184.47 91.1426 184.917 90.7142 185.227 90.1855C185.536 89.6569 185.691 89.0964 185.691 88.5039V86.5215C185.582 86.6217 185.377 86.7174 185.076 86.8086C184.775 86.8997 184.434 86.9772 184.051 87.041C183.668 87.1048 183.294 87.1641 182.93 87.2188C182.565 87.2643 182.26 87.3008 182.014 87.3281C181.439 87.4102 180.915 87.5378 180.441 87.7109C179.967 87.875 179.585 88.1211 179.293 88.4492C179.01 88.7682 178.869 89.1921 178.869 89.7207C178.869 90.459 179.143 91.015 179.689 91.3887C180.236 91.7624 180.929 91.9492 181.768 91.9492ZM194.469 73.6289V94H191.516V73.6289H194.469ZM199.172 99.7148C198.725 99.724 198.32 99.6921 197.955 99.6191C197.6 99.5553 197.326 99.4779 197.135 99.3867L197.859 96.9668L198.064 97.0215C198.821 97.2129 199.459 97.1992 199.979 96.9805C200.507 96.7708 200.949 96.1829 201.305 95.2168L201.674 94.2051L196.096 78.7148H199.281L203.137 90.582H203.301L207.17 78.7148H210.355L204.066 96.0234C203.775 96.8255 203.406 97.5 202.959 98.0469C202.512 98.6029 201.975 99.0176 201.346 99.291C200.726 99.5736 200.001 99.7148 199.172 99.7148ZM219.105 78.7148V81.1074H210.766V78.7148H219.105ZM212.994 75.0781H215.961V89.5156C215.961 90.2174 216.107 90.7324 216.398 91.0605C216.69 91.3796 217.16 91.5391 217.807 91.5391C217.962 91.5391 218.126 91.5299 218.299 91.5117C218.481 91.4935 218.663 91.4661 218.846 91.4297L219.406 93.8906C219.105 93.9909 218.777 94.0684 218.422 94.123C218.066 94.1777 217.711 94.2051 217.355 94.2051C216.034 94.2051 214.977 93.8359 214.184 93.0977C213.391 92.3503 212.994 91.3568 212.994 90.1172V75.0781ZM221.238 94V78.7148H224.191V94H221.238ZM222.729 76.3633C222.209 76.3633 221.767 76.1901 221.402 75.8438C221.038 75.4974 220.855 75.0827 220.855 74.5996C220.855 74.1074 221.038 73.6882 221.402 73.3418C221.767 72.9954 222.209 72.8223 222.729 72.8223C223.239 72.8223 223.676 72.9954 224.041 73.3418C224.415 73.6882 224.602 74.1074 224.602 74.5996C224.602 75.0827 224.415 75.4974 224.041 75.8438C223.676 76.1901 223.239 76.3633 222.729 76.3633ZM233.447 94.3145C231.98 94.3145 230.713 93.9772 229.646 93.3027C228.58 92.6283 227.76 91.6986 227.186 90.5137C226.611 89.3288 226.324 87.9707 226.324 86.4395C226.324 84.8809 226.616 83.5091 227.199 82.3242C227.792 81.1302 228.617 80.2005 229.674 79.5352C230.74 78.8607 231.989 78.5234 233.42 78.5234C234.587 78.5234 235.621 78.7376 236.523 79.166C237.435 79.5853 238.169 80.1823 238.725 80.957C239.29 81.7318 239.622 82.6341 239.723 83.6641H236.824C236.724 83.181 236.528 82.7389 236.236 82.3379C235.954 81.9368 235.58 81.6178 235.115 81.3809C234.65 81.1439 234.099 81.0254 233.461 81.0254C232.632 81.0254 231.907 81.2441 231.287 81.6816C230.676 82.11 230.198 82.7253 229.852 83.5273C229.505 84.3294 229.332 85.2773 229.332 86.3711C229.332 87.474 229.501 88.4355 229.838 89.2559C230.175 90.0762 230.654 90.7096 231.273 91.1562C231.902 91.5938 232.632 91.8125 233.461 91.8125C234.318 91.8125 235.047 91.5755 235.648 91.1016C236.259 90.6276 236.651 89.9805 236.824 89.1602H239.723C239.622 90.1536 239.303 91.0378 238.766 91.8125C238.228 92.5872 237.508 93.1979 236.605 93.6445C235.703 94.0911 234.65 94.3145 233.447 94.3145ZM253.258 82.4609L250.564 82.9258C250.391 82.4154 250.068 81.946 249.594 81.5176C249.129 81.0892 248.432 80.875 247.502 80.875C246.663 80.875 245.962 81.0664 245.396 81.4492C244.84 81.8229 244.562 82.3014 244.562 82.8848C244.562 83.3952 244.749 83.8099 245.123 84.1289C245.506 84.4479 246.112 84.7031 246.941 84.8945L249.389 85.4414C250.783 85.7604 251.827 86.2617 252.52 86.9453C253.212 87.6289 253.559 88.5039 253.559 89.5703C253.559 90.4909 253.294 91.3112 252.766 92.0312C252.237 92.7422 251.503 93.3027 250.564 93.7129C249.626 94.1139 248.541 94.3145 247.311 94.3145C245.597 94.3145 244.202 93.9453 243.127 93.207C242.051 92.4688 241.391 91.4297 241.145 90.0898L244.002 89.6523C244.184 90.3997 244.553 90.9648 245.109 91.3477C245.674 91.7305 246.404 91.9219 247.297 91.9219C248.263 91.9219 249.038 91.7168 249.621 91.3066C250.214 90.8965 250.51 90.3997 250.51 89.8164C250.51 88.8503 249.79 88.1986 248.35 87.8613L245.766 87.2871C244.335 86.959 243.277 86.444 242.594 85.7422C241.919 85.0312 241.582 84.138 241.582 83.0625C241.582 82.1602 241.833 81.3672 242.334 80.6836C242.844 80 243.542 79.4714 244.426 79.0977C245.319 78.7148 246.335 78.5234 247.475 78.5234C249.133 78.5234 250.432 78.8835 251.371 79.6035C252.319 80.3236 252.948 81.276 253.258 82.4609Z" fill="#0E1522"/>
<path d="M30.9439 134.909V125.818H31.5263V134.909H30.9439ZM32.7656 128.638C32.7277 128.302 32.5715 128.041 32.2969 127.857C32.0223 127.67 31.6766 127.576 31.2599 127.576C30.9616 127.576 30.7036 127.623 30.4858 127.718C30.268 127.81 30.0987 127.938 29.978 128.102C29.8596 128.263 29.8004 128.446 29.8004 128.652C29.8004 128.825 29.8407 128.974 29.9212 129.099C30.004 129.225 30.1117 129.33 30.2443 129.415C30.3793 129.498 30.5237 129.568 30.6776 129.625C30.8314 129.679 30.9794 129.724 31.1214 129.76L31.8317 129.945C32.0637 130.001 32.3016 130.078 32.5455 130.175C32.7893 130.272 33.0154 130.4 33.2237 130.559C33.4321 130.718 33.6001 130.914 33.728 131.148C33.8582 131.383 33.9233 131.663 33.9233 131.99C33.9233 132.402 33.8168 132.768 33.6037 133.087C33.393 133.407 33.0864 133.659 32.6839 133.844C32.2839 134.028 31.7997 134.121 31.2315 134.121C30.687 134.121 30.2159 134.034 29.8182 133.862C29.4205 133.689 29.1091 133.444 28.8842 133.126C28.6593 132.807 28.535 132.428 28.5114 131.99H29.6122C29.6335 132.253 29.7188 132.472 29.8679 132.647C30.0194 132.82 30.2124 132.949 30.4467 133.034C30.6835 133.117 30.9427 133.158 31.2244 133.158C31.5346 133.158 31.8104 133.11 32.0518 133.013C32.2957 132.913 32.4875 132.776 32.6271 132.601C32.7668 132.423 32.8366 132.216 32.8366 131.979C32.8366 131.764 32.7751 131.588 32.652 131.45C32.5313 131.313 32.3667 131.199 32.1584 131.109C31.9524 131.019 31.7192 130.94 31.4588 130.871L30.5994 130.637C30.017 130.478 29.5554 130.245 29.2145 129.938C28.8759 129.63 28.7067 129.223 28.7067 128.716C28.7067 128.297 28.8203 127.931 29.0476 127.619C29.2749 127.306 29.5826 127.063 29.9709 126.891C30.3591 126.715 30.7971 126.628 31.2848 126.628C31.7772 126.628 32.2116 126.714 32.5881 126.887C32.9669 127.06 33.2652 127.298 33.483 127.601C33.7008 127.902 33.8144 128.247 33.8239 128.638H32.7656ZM37.3944 126.727V134H36.2935V127.828H36.2509L34.5108 128.964V127.913L36.3255 126.727H37.3944ZM41.3936 134.121C40.8326 134.118 40.3532 133.97 39.9554 133.677C39.5577 133.383 39.2535 132.956 39.0428 132.395C38.8321 131.834 38.7267 131.158 38.7267 130.367C38.7267 129.579 38.8321 128.905 39.0428 128.347C39.2559 127.788 39.5613 127.362 39.959 127.068C40.3591 126.775 40.8373 126.628 41.3936 126.628C41.95 126.628 42.427 126.776 42.8248 127.072C43.2225 127.365 43.5267 127.791 43.7374 128.35C43.9505 128.906 44.057 129.579 44.057 130.367C44.057 131.16 43.9516 131.837 43.7409 132.398C43.5302 132.957 43.226 133.384 42.8283 133.68C42.4306 133.974 41.9524 134.121 41.3936 134.121ZM41.3936 133.173C41.8861 133.173 42.2708 132.932 42.5478 132.452C42.8271 131.971 42.9668 131.276 42.9668 130.367C42.9668 129.763 42.9029 129.253 42.775 128.837C42.6496 128.418 42.4685 128.1 42.2317 127.885C41.9973 127.667 41.718 127.558 41.3936 127.558C40.9036 127.558 40.5189 127.8 40.2395 128.283C39.9602 128.766 39.8193 129.46 39.8169 130.367C39.8169 130.973 39.8797 131.486 40.0051 131.905C40.133 132.321 40.3141 132.638 40.5485 132.853C40.7828 133.066 41.0646 133.173 41.3936 133.173ZM47.3487 134.121C46.7876 134.118 46.3082 133.97 45.9105 133.677C45.5128 133.383 45.2086 132.956 44.9979 132.395C44.7872 131.834 44.6818 131.158 44.6818 130.367C44.6818 129.579 44.7872 128.905 44.9979 128.347C45.2109 127.788 45.5163 127.362 45.9141 127.068C46.3142 126.775 46.7924 126.628 47.3487 126.628C47.9051 126.628 48.3821 126.776 48.7798 127.072C49.1776 127.365 49.4818 127.791 49.6925 128.35C49.9055 128.906 50.0121 129.579 50.0121 130.367C50.0121 131.16 49.9067 131.837 49.696 132.398C49.4853 132.957 49.1811 133.384 48.7834 133.68C48.3857 133.974 47.9074 134.121 47.3487 134.121ZM47.3487 133.173C47.8411 133.173 48.2259 132.932 48.5028 132.452C48.7822 131.971 48.9219 131.276 48.9219 130.367C48.9219 129.763 48.858 129.253 48.7301 128.837C48.6046 128.418 48.4235 128.1 48.1868 127.885C47.9524 127.667 47.6731 127.558 47.3487 127.558C46.8587 127.558 46.474 127.8 46.1946 128.283C45.9152 128.766 45.7744 129.46 45.772 130.367C45.772 130.973 45.8348 131.486 45.9602 131.905C46.0881 132.321 46.2692 132.638 46.5036 132.853C46.7379 133.066 47.0196 133.173 47.3487 133.173ZM53.3038 134.121C52.7427 134.118 52.2633 133.97 51.8656 133.677C51.4679 133.383 51.1636 132.956 50.9529 132.395C50.7422 131.834 50.6369 131.158 50.6369 130.367C50.6369 129.579 50.7422 128.905 50.9529 128.347C51.166 127.788 51.4714 127.362 51.8691 127.068C52.2692 126.775 52.7475 126.628 53.3038 126.628C53.8601 126.628 54.3372 126.776 54.7349 127.072C55.1326 127.365 55.4368 127.791 55.6475 128.35C55.8606 128.906 55.9672 129.579 55.9672 130.367C55.9672 131.16 55.8618 131.837 55.6511 132.398C55.4404 132.957 55.1362 133.384 54.7385 133.68C54.3407 133.974 53.8625 134.121 53.3038 134.121ZM53.3038 133.173C53.7962 133.173 54.1809 132.932 54.4579 132.452C54.7373 131.971 54.877 131.276 54.877 130.367C54.877 129.763 54.813 129.253 54.6852 128.837C54.5597 128.418 54.3786 128.1 54.1419 127.885C53.9075 127.667 53.6281 127.558 53.3038 127.558C52.8137 127.558 52.429 127.8 52.1497 128.283C51.8703 128.766 51.7295 129.46 51.7271 130.367C51.7271 130.973 51.7898 131.486 51.9153 131.905C52.0431 132.321 52.2243 132.638 52.4586 132.853C52.693 133.066 52.9747 133.173 53.3038 133.173Z" fill="#464646"/>
<path d="M30.9439 177.909V168.818H31.5263V177.909H30.9439ZM32.7656 171.638C32.7277 171.302 32.5715 171.041 32.2969 170.857C32.0223 170.67 31.6766 170.576 31.2599 170.576C30.9616 170.576 30.7036 170.623 30.4858 170.718C30.268 170.81 30.0987 170.938 29.978 171.102C29.8596 171.263 29.8004 171.446 29.8004 171.652C29.8004 171.825 29.8407 171.974 29.9212 172.099C30.004 172.225 30.1117 172.33 30.2443 172.415C30.3793 172.498 30.5237 172.568 30.6776 172.625C30.8314 172.679 30.9794 172.724 31.1214 172.76L31.8317 172.945C32.0637 173.001 32.3016 173.078 32.5455 173.175C32.7893 173.272 33.0154 173.4 33.2237 173.559C33.4321 173.718 33.6001 173.914 33.728 174.148C33.8582 174.383 33.9233 174.663 33.9233 174.99C33.9233 175.402 33.8168 175.768 33.6037 176.087C33.393 176.407 33.0864 176.659 32.6839 176.844C32.2839 177.028 31.7997 177.121 31.2315 177.121C30.687 177.121 30.2159 177.034 29.8182 176.862C29.4205 176.689 29.1091 176.444 28.8842 176.126C28.6593 175.807 28.535 175.428 28.5114 174.99H29.6122C29.6335 175.253 29.7188 175.472 29.8679 175.647C30.0194 175.82 30.2124 175.949 30.4467 176.034C30.6835 176.117 30.9427 176.158 31.2244 176.158C31.5346 176.158 31.8104 176.11 32.0518 176.013C32.2957 175.913 32.4875 175.776 32.6271 175.601C32.7668 175.423 32.8366 175.216 32.8366 174.979C32.8366 174.764 32.7751 174.588 32.652 174.45C32.5313 174.313 32.3667 174.199 32.1584 174.109C31.9524 174.019 31.7192 173.94 31.4588 173.871L30.5994 173.637C30.017 173.478 29.5554 173.245 29.2145 172.938C28.8759 172.63 28.7067 172.223 28.7067 171.716C28.7067 171.297 28.8203 170.931 29.0476 170.619C29.2749 170.306 29.5826 170.063 29.9709 169.891C30.3591 169.715 30.7971 169.628 31.2848 169.628C31.7772 169.628 32.2116 169.714 32.5881 169.887C32.9669 170.06 33.2652 170.298 33.483 170.601C33.7008 170.902 33.8144 171.247 33.8239 171.638H32.7656ZM37.0357 177.099C36.5906 177.099 36.1905 177.014 35.8354 176.844C35.4827 176.671 35.2009 176.434 34.9902 176.134C34.7795 175.833 34.6671 175.49 34.6529 175.104H35.7182C35.7443 175.416 35.8828 175.673 36.1337 175.874C36.3846 176.076 36.6853 176.176 37.0357 176.176C37.315 176.176 37.5624 176.112 37.7779 175.984C37.9957 175.854 38.1661 175.675 38.2892 175.448C38.4147 175.221 38.4775 174.962 38.4775 174.67C38.4775 174.375 38.4135 174.111 38.2857 173.879C38.1578 173.647 37.9815 173.464 37.7566 173.332C37.534 173.199 37.2783 173.132 36.9895 173.129C36.7694 173.129 36.548 173.167 36.3255 173.243C36.1029 173.319 35.923 173.418 35.7857 173.541L34.7807 173.392L35.1891 169.727H39.1877V170.668H36.1017L35.8709 172.703H35.9135C36.0556 172.566 36.2438 172.451 36.4782 172.359C36.7149 172.266 36.9682 172.22 37.2381 172.22C37.6808 172.22 38.075 172.326 38.4206 172.536C38.7686 172.747 39.0421 173.035 39.2409 173.399C39.4422 173.761 39.5416 174.178 39.5392 174.649C39.5416 175.12 39.4351 175.54 39.2196 175.91C39.0066 176.279 38.7106 176.57 38.3319 176.783C37.9554 176.994 37.5234 177.099 37.0357 177.099ZM42.8683 177.121C42.3072 177.118 41.8278 176.97 41.43 176.677C41.0323 176.383 40.7281 175.956 40.5174 175.395C40.3067 174.834 40.2013 174.158 40.2013 173.367C40.2013 172.579 40.3067 171.905 40.5174 171.347C40.7305 170.788 41.0359 170.362 41.4336 170.068C41.8337 169.775 42.3119 169.628 42.8683 169.628C43.4246 169.628 43.9016 169.776 44.2994 170.072C44.6971 170.365 45.0013 170.791 45.212 171.35C45.4251 171.906 45.5316 172.579 45.5316 173.367C45.5316 174.16 45.4263 174.837 45.2156 175.398C45.0049 175.957 44.7006 176.384 44.3029 176.68C43.9052 176.974 43.427 177.121 42.8683 177.121ZM42.8683 176.173C43.3607 176.173 43.7454 175.932 44.0224 175.452C44.3017 174.971 44.4414 174.276 44.4414 173.367C44.4414 172.763 44.3775 172.253 44.2496 171.837C44.1242 171.418 43.9431 171.1 43.7063 170.885C43.4719 170.667 43.1926 170.558 42.8683 170.558C42.3782 170.558 41.9935 170.8 41.7141 171.283C41.4348 171.766 41.2939 172.46 41.2915 173.367C41.2915 173.973 41.3543 174.486 41.4798 174.905C41.6076 175.321 41.7887 175.638 42.0231 175.853C42.2575 176.066 42.5392 176.173 42.8683 176.173ZM48.8233 177.121C48.2623 177.118 47.7828 176.97 47.3851 176.677C46.9874 176.383 46.6832 175.956 46.4725 175.395C46.2618 174.834 46.1564 174.158 46.1564 173.367C46.1564 172.579 46.2618 171.905 46.4725 171.347C46.6855 170.788 46.9909 170.362 47.3887 170.068C47.7888 169.775 48.267 169.628 48.8233 169.628C49.3797 169.628 49.8567 169.776 50.2544 170.072C50.6522 170.365 50.9564 170.791 51.1671 171.35C51.3801 171.906 51.4867 172.579 51.4867 173.367C51.4867 174.16 51.3813 174.837 51.1706 175.398C50.9599 175.957 50.6557 176.384 50.258 176.68C49.8603 176.974 49.382 177.121 48.8233 177.121ZM48.8233 176.173C49.3158 176.173 49.7005 175.932 49.9775 175.452C50.2568 174.971 50.3965 174.276 50.3965 173.367C50.3965 172.763 50.3326 172.253 50.2047 171.837C50.0792 171.418 49.8981 171.1 49.6614 170.885C49.427 170.667 49.1477 170.558 48.8233 170.558C48.3333 170.558 47.9486 170.8 47.6692 171.283C47.3899 171.766 47.249 172.46 47.2466 173.367C47.2466 173.973 47.3094 174.486 47.4348 174.905C47.5627 175.321 47.7438 175.638 47.9782 175.853C48.2125 176.066 48.4943 176.173 48.8233 176.173Z" fill="#464646"/>
<path d="M30.9439 220.909V211.818H31.5263V220.909H30.9439ZM32.7656 214.638C32.7277 214.302 32.5715 214.041 32.2969 213.857C32.0223 213.67 31.6766 213.576 31.2599 213.576C30.9616 213.576 30.7036 213.623 30.4858 213.718C30.268 213.81 30.0987 213.938 29.978 214.102C29.8596 214.263 29.8004 214.446 29.8004 214.652C29.8004 214.825 29.8407 214.974 29.9212 215.099C30.004 215.225 30.1117 215.33 30.2443 215.415C30.3793 215.498 30.5237 215.568 30.6776 215.625C30.8314 215.679 30.9794 215.724 31.1214 215.76L31.8317 215.945C32.0637 216.001 32.3016 216.078 32.5455 216.175C32.7893 216.272 33.0154 216.4 33.2237 216.559C33.4321 216.718 33.6001 216.914 33.728 217.148C33.8582 217.383 33.9233 217.663 33.9233 217.99C33.9233 218.402 33.8168 218.768 33.6037 219.087C33.393 219.407 33.0864 219.659 32.6839 219.844C32.2839 220.028 31.7997 220.121 31.2315 220.121C30.687 220.121 30.2159 220.034 29.8182 219.862C29.4205 219.689 29.1091 219.444 28.8842 219.126C28.6593 218.807 28.535 218.428 28.5114 217.99H29.6122C29.6335 218.253 29.7188 218.472 29.8679 218.647C30.0194 218.82 30.2124 218.949 30.4467 219.034C30.6835 219.117 30.9427 219.158 31.2244 219.158C31.5346 219.158 31.8104 219.11 32.0518 219.013C32.2957 218.913 32.4875 218.776 32.6271 218.601C32.7668 218.423 32.8366 218.216 32.8366 217.979C32.8366 217.764 32.7751 217.588 32.652 217.45C32.5313 217.313 32.3667 217.199 32.1584 217.109C31.9524 217.019 31.7192 216.94 31.4588 216.871L30.5994 216.637C30.017 216.478 29.5554 216.245 29.2145 215.938C28.8759 215.63 28.7067 215.223 28.7067 214.716C28.7067 214.297 28.8203 213.931 29.0476 213.619C29.2749 213.306 29.5826 213.063 29.9709 212.891C30.3591 212.715 30.7971 212.628 31.2848 212.628C31.7772 212.628 32.2116 212.714 32.5881 212.887C32.9669 213.06 33.2652 213.298 33.483 213.601C33.7008 213.902 33.8144 214.247 33.8239 214.638H32.7656ZM34.6351 220V219.205L37.0961 216.655C37.3588 216.378 37.5755 216.135 37.7459 215.927C37.9187 215.716 38.0478 215.516 38.133 215.327C38.2182 215.137 38.2608 214.936 38.2608 214.723C38.2608 214.482 38.204 214.273 38.0904 214.098C37.9767 213.92 37.8217 213.784 37.6252 213.69C37.4287 213.593 37.2073 213.544 36.9611 213.544C36.7007 213.544 36.4734 213.597 36.2793 213.704C36.0852 213.81 35.936 213.961 35.8319 214.155C35.7277 214.349 35.6756 214.576 35.6756 214.837H34.628C34.628 214.394 34.7298 214.007 34.9334 213.675C35.137 213.344 35.4164 213.087 35.7715 212.905C36.1266 212.72 36.5302 212.628 36.9824 212.628C37.4393 212.628 37.8418 212.719 38.1898 212.901C38.5402 213.081 38.8136 213.327 39.0101 213.64C39.2066 213.95 39.3049 214.3 39.3049 214.691C39.3049 214.961 39.254 215.225 39.1522 215.483C39.0527 215.741 38.8787 216.029 38.6301 216.346C38.3816 216.661 38.0359 217.043 37.5932 217.493L36.1479 219.006V219.059H39.4221V220H34.6351ZM42.7999 220.121C42.2388 220.118 41.7594 219.97 41.3617 219.677C40.964 219.383 40.6597 218.956 40.449 218.395C40.2383 217.834 40.133 217.158 40.133 216.367C40.133 215.579 40.2383 214.905 40.449 214.347C40.6621 213.788 40.9675 213.362 41.3652 213.068C41.7653 212.775 42.2435 212.628 42.7999 212.628C43.3562 212.628 43.8333 212.776 44.231 213.072C44.6287 213.365 44.9329 213.791 45.1436 214.35C45.3567 214.906 45.4632 215.579 45.4632 216.367C45.4632 217.16 45.3579 217.837 45.1472 218.398C44.9365 218.957 44.6323 219.384 44.2346 219.68C43.8368 219.974 43.3586 220.121 42.7999 220.121ZM42.7999 219.173C43.2923 219.173 43.677 218.932 43.954 218.452C44.2334 217.971 44.373 217.276 44.373 216.367C44.373 215.763 44.3091 215.253 44.1813 214.837C44.0558 214.418 43.8747 214.1 43.638 213.885C43.4036 213.667 43.1242 213.558 42.7999 213.558C42.3098 213.558 41.9251 213.8 41.6458 214.283C41.3664 214.766 41.2256 215.46 41.2232 216.367C41.2232 216.973 41.2859 217.486 41.4114 217.905C41.5392 218.321 41.7203 218.638 41.9547 218.853C42.1891 219.066 42.4708 219.173 42.7999 219.173ZM48.755 220.121C48.1939 220.118 47.7145 219.97 47.3168 219.677C46.919 219.383 46.6148 218.956 46.4041 218.395C46.1934 217.834 46.0881 217.158 46.0881 216.367C46.0881 215.579 46.1934 214.905 46.4041 214.347C46.6172 213.788 46.9226 213.362 47.3203 213.068C47.7204 212.775 48.1986 212.628 48.755 212.628C49.3113 212.628 49.7884 212.776 50.1861 213.072C50.5838 213.365 50.888 213.791 51.0987 214.35C51.3118 214.906 51.4183 215.579 51.4183 216.367C51.4183 217.16 51.313 217.837 51.1023 218.398C50.8916 218.957 50.5874 219.384 50.1896 219.68C49.7919 219.974 49.3137 220.121 48.755 220.121ZM48.755 219.173C49.2474 219.173 49.6321 218.932 49.9091 218.452C50.1884 217.971 50.3281 217.276 50.3281 216.367C50.3281 215.763 50.2642 215.253 50.1364 214.837C50.0109 214.418 49.8298 214.1 49.593 213.885C49.3587 213.667 49.0793 213.558 48.755 213.558C48.2649 213.558 47.8802 213.8 47.6009 214.283C47.3215 214.766 47.1806 215.46 47.1783 216.367C47.1783 216.973 47.241 217.486 47.3665 217.905C47.4943 218.321 47.6754 218.638 47.9098 218.853C48.1442 219.066 48.4259 219.173 48.755 219.173Z" fill="#464646"/>
<path d="M30.9439 263.909V254.818H31.5263V263.909H30.9439ZM32.7656 257.638C32.7277 257.302 32.5715 257.041 32.2969 256.857C32.0223 256.67 31.6766 256.576 31.2599 256.576C30.9616 256.576 30.7036 256.623 30.4858 256.718C30.268 256.81 30.0987 256.938 29.978 257.102C29.8596 257.263 29.8004 257.446 29.8004 257.652C29.8004 257.825 29.8407 257.974 29.9212 258.099C30.004 258.225 30.1117 258.33 30.2443 258.415C30.3793 258.498 30.5237 258.568 30.6776 258.625C30.8314 258.679 30.9794 258.724 31.1214 258.76L31.8317 258.945C32.0637 259.001 32.3016 259.078 32.5455 259.175C32.7893 259.272 33.0154 259.4 33.2237 259.559C33.4321 259.718 33.6001 259.914 33.728 260.148C33.8582 260.383 33.9233 260.663 33.9233 260.99C33.9233 261.402 33.8168 261.768 33.6037 262.087C33.393 262.407 33.0864 262.659 32.6839 262.844C32.2839 263.028 31.7997 263.121 31.2315 263.121C30.687 263.121 30.2159 263.034 29.8182 262.862C29.4205 262.689 29.1091 262.444 28.8842 262.126C28.6593 261.807 28.535 261.428 28.5114 260.99H29.6122C29.6335 261.253 29.7188 261.472 29.8679 261.647C30.0194 261.82 30.2124 261.949 30.4467 262.034C30.6835 262.117 30.9427 262.158 31.2244 262.158C31.5346 262.158 31.8104 262.11 32.0518 262.013C32.2957 261.913 32.4875 261.776 32.6271 261.601C32.7668 261.423 32.8366 261.216 32.8366 260.979C32.8366 260.764 32.7751 260.588 32.652 260.45C32.5313 260.313 32.3667 260.199 32.1584 260.109C31.9524 260.019 31.7192 259.94 31.4588 259.871L30.5994 259.637C30.017 259.478 29.5554 259.245 29.2145 258.938C28.8759 258.63 28.7067 258.223 28.7067 257.716C28.7067 257.297 28.8203 256.931 29.0476 256.619C29.2749 256.306 29.5826 256.063 29.9709 255.891C30.3591 255.715 30.7971 255.628 31.2848 255.628C31.7772 255.628 32.2116 255.714 32.5881 255.887C32.9669 256.06 33.2652 256.298 33.483 256.601C33.7008 256.902 33.8144 257.247 33.8239 257.638H32.7656ZM37.1671 263.121C36.606 263.118 36.1266 262.97 35.7289 262.677C35.3311 262.383 35.0269 261.956 34.8162 261.395C34.6055 260.834 34.5002 260.158 34.5002 259.367C34.5002 258.579 34.6055 257.905 34.8162 257.347C35.0293 256.788 35.3347 256.362 35.7324 256.068C36.1325 255.775 36.6107 255.628 37.1671 255.628C37.7234 255.628 38.2005 255.776 38.5982 256.072C38.9959 256.365 39.3001 256.791 39.5108 257.35C39.7239 257.906 39.8304 258.579 39.8304 259.367C39.8304 260.16 39.7251 260.837 39.5144 261.398C39.3037 261.957 38.9995 262.384 38.6017 262.68C38.204 262.974 37.7258 263.121 37.1671 263.121ZM37.1671 262.173C37.6595 262.173 38.0442 261.932 38.3212 261.452C38.6006 260.971 38.7402 260.276 38.7402 259.367C38.7402 258.763 38.6763 258.253 38.5485 257.837C38.423 257.418 38.2419 257.1 38.0051 256.885C37.7708 256.667 37.4914 256.558 37.1671 256.558C36.677 256.558 36.2923 256.8 36.013 257.283C35.7336 257.766 35.5927 258.46 35.5904 259.367C35.5904 259.973 35.6531 260.486 35.7786 260.905C35.9064 261.321 36.0875 261.638 36.3219 261.853C36.5563 262.066 36.838 262.173 37.1671 262.173Z" fill="#464646"/>
<line opacity="0.4" x1="65.2494" y1="130.249" x2="488.749" y2="129.251" stroke="#989FAA" stroke-width="0.5" stroke-linecap="round" stroke-dasharray="10 8"/>
<line opacity="0.4" x1="65.2494" y1="173.249" x2="488.749" y2="172.251" stroke="#989FAA" stroke-width="0.5" stroke-linecap="round" stroke-dasharray="10 8"/>
<line opacity="0.4" x1="65.2494" y1="216.249" x2="488.749" y2="215.251" stroke="#989FAA" stroke-width="0.5" stroke-linecap="round" stroke-dasharray="10 8"/>
<line opacity="0.4" x1="65.2494" y1="259.249" x2="488.749" y2="258.251" stroke="#989FAA" stroke-width="0.5" stroke-linecap="round" stroke-dasharray="10 8"/>
<rect x="75.5" y="164.5" width="27" height="106" rx="6" fill="#F6F4FE"/>
<mask id="mask0_924_45458" style="mask-type:alpha" maskUnits="userSpaceOnUse" x="75" y="164" width="28" height="107">
<rect x="75.5" y="164.5" width="27" height="106" rx="4" fill="#D9D9D9"/>
</mask>
<g mask="url(#mask0_924_45458)">
</g>
<rect x="75.5" y="199.5" width="27" height="71" rx="4" fill="#732CFF"/>
<rect x="122.5" y="130.5" width="27" height="140" rx="6" fill="#F6F4FE"/>
<mask id="mask1_924_45458" style="mask-type:alpha" maskUnits="userSpaceOnUse" x="122" y="130" width="28" height="141">
<rect x="122.5" y="130.5" width="27" height="140" rx="4" fill="#D9D9D9"/>
</mask>
<g mask="url(#mask1_924_45458)">
</g>
<rect x="122.5" y="240.5" width="27" height="30" rx="4" fill="#732CFF"/>
<rect x="169.5" y="215.5" width="27" height="55" rx="6" fill="#F6F4FE"/>
<mask id="mask2_924_45458" style="mask-type:alpha" maskUnits="userSpaceOnUse" x="169" y="215" width="28" height="56">
<rect x="169.5" y="215.5" width="27" height="55" rx="4" fill="#D9D9D9"/>
</mask>
<g mask="url(#mask2_924_45458)">
</g>
<rect x="169.5" y="215.5" width="27" height="55" rx="4" fill="#732CFF"/>
<rect x="216.5" y="164.5" width="27" height="106" rx="6" fill="#F6F4FE"/>
<mask id="mask3_924_45458" style="mask-type:alpha" maskUnits="userSpaceOnUse" x="216" y="164" width="28" height="107">
<rect x="216.5" y="164.5" width="27" height="106" rx="4" fill="#D9D9D9"/>
</mask>
<g mask="url(#mask3_924_45458)">
</g>
<rect x="216.5" y="199.5" width="27" height="71" rx="4" fill="#732CFF"/>
<rect x="263.5" y="182.5" width="27" height="88" rx="6" fill="#F6F4FE"/>
<mask id="mask4_924_45458" style="mask-type:alpha" maskUnits="userSpaceOnUse" x="263" y="182" width="28" height="89">
<rect x="263.5" y="182.5" width="27" height="88" rx="4" fill="#D9D9D9"/>
</mask>
<g mask="url(#mask4_924_45458)">
</g>
<rect x="263.5" y="238.5" width="27" height="32" rx="4" fill="#732CFF"/>
<rect x="310.5" y="129.5" width="27" height="141" rx="6" fill="#F6F4FE"/>
<mask id="mask5_924_45458" style="mask-type:alpha" maskUnits="userSpaceOnUse" x="310" y="129" width="28" height="142">
<rect x="310.5" y="129.5" width="27" height="141" rx="4" fill="#D9D9D9"/>
</mask>
<g mask="url(#mask5_924_45458)">
</g>
<rect x="310.5" y="238.5" width="27" height="32" rx="4" fill="#732CFF"/>
<rect x="357.5" y="155.5" width="27" height="115" rx="6" fill="#F6F4FE"/>
<mask id="mask6_924_45458" style="mask-type:alpha" maskUnits="userSpaceOnUse" x="357" y="155" width="28" height="116">
<rect x="357.5" y="155.5" width="27" height="115" rx="4" fill="#D9D9D9"/>
</mask>
<g mask="url(#mask6_924_45458)">
</g>
<rect x="357.5" y="155.5" width="27" height="115" rx="4" fill="#732CFF"/>
<rect x="404.5" y="185.5" width="27" height="85" rx="6" fill="#F6F4FE"/>
<mask id="mask7_924_45458" style="mask-type:alpha" maskUnits="userSpaceOnUse" x="404" y="185" width="28" height="86">
<rect x="404.5" y="185.5" width="27" height="85" rx="4" fill="#D9D9D9"/>
</mask>
<g mask="url(#mask7_924_45458)">
</g>
<rect x="404.5" y="199.5" width="27" height="71" rx="4" fill="#732CFF"/>
<rect x="451.5" y="155.5" width="27" height="115" rx="6" fill="#F6F4FE"/>
<mask id="mask8_924_45458" style="mask-type:alpha" maskUnits="userSpaceOnUse" x="451" y="155" width="28" height="116">
<rect x="451.5" y="155.5" width="27" height="115" rx="4" fill="#D9D9D9"/>
</mask>
<g mask="url(#mask8_924_45458)">
</g>
<rect x="451.5" y="185.5" width="27" height="85" rx="4" fill="#732CFF"/>
<path d="M32.71 310.127C31.8975 310.127 31.1696 309.932 30.5264 309.543C29.8831 309.154 29.3774 308.597 29.0093 307.874C28.6411 307.146 28.457 306.28 28.457 305.277C28.457 304.266 28.6411 303.398 29.0093 302.675C29.3817 301.947 29.8874 301.388 30.5264 300.999C31.1696 300.61 31.8975 300.415 32.71 300.415C33.2093 300.415 33.6769 300.487 34.1128 300.631C34.5529 300.775 34.9465 300.984 35.2935 301.259C35.6405 301.534 35.9261 301.871 36.1504 302.269C36.3789 302.666 36.5312 303.117 36.6074 303.621H35.1729C35.1178 303.312 35.0142 303.041 34.8618 302.808C34.7137 302.571 34.5296 302.372 34.3096 302.211C34.0938 302.046 33.8504 301.924 33.5796 301.843C33.313 301.759 33.0295 301.716 32.729 301.716C32.1873 301.716 31.6986 301.854 31.2627 302.129C30.8311 302.4 30.4904 302.802 30.2407 303.335C29.9953 303.864 29.8726 304.511 29.8726 305.277C29.8726 306.048 29.9974 306.697 30.2471 307.226C30.4967 307.751 30.8374 308.149 31.269 308.419C31.7007 308.69 32.1852 308.826 32.7227 308.826C33.0231 308.826 33.3066 308.785 33.5732 308.705C33.8398 308.625 34.0832 308.504 34.3032 308.343C34.5233 308.182 34.7074 307.988 34.8555 307.759C35.0078 307.527 35.1136 307.258 35.1729 306.953H36.6074C36.5355 307.423 36.3895 307.852 36.1694 308.242C35.9494 308.627 35.668 308.961 35.3252 309.245C34.9824 309.524 34.591 309.742 34.1509 309.898C33.7108 310.051 33.2305 310.127 32.71 310.127ZM41.968 307.067V302.903H43.3391V310H41.9934V308.769H41.9172C41.7479 309.145 41.4855 309.46 41.1301 309.714C40.7746 309.968 40.3303 310.093 39.7971 310.089C39.34 310.089 38.9359 309.989 38.5847 309.791C38.2377 309.592 37.9647 309.293 37.7658 308.896C37.5712 308.498 37.4738 308.005 37.4738 307.417V302.903H38.8449V307.258C38.8449 307.736 38.9803 308.119 39.2512 308.407C39.522 308.694 39.8711 308.836 40.2985 308.832C40.5567 308.832 40.8127 308.769 41.0666 308.642C41.3247 308.515 41.5384 308.32 41.7077 308.058C41.8812 307.795 41.968 307.465 41.968 307.067ZM44.4594 310V302.903H45.786V304.04H45.8622C45.9934 303.659 46.2219 303.358 46.5478 303.138C46.8778 302.914 47.2502 302.802 47.6649 302.802C47.7496 302.802 47.849 302.806 47.9633 302.814C48.0818 302.819 48.177 302.825 48.2489 302.833V304.154C48.1939 304.137 48.0945 304.12 47.9506 304.103C47.8109 304.086 47.6692 304.078 47.5253 304.078C47.1994 304.078 46.9075 304.147 46.6493 304.287C46.3954 304.423 46.1944 304.611 46.0463 304.852C45.9024 305.089 45.8305 305.364 45.8305 305.677V310H44.4594ZM48.7154 310V302.903H50.0421V304.04H50.1183C50.2494 303.659 50.478 303.358 50.8038 303.138C51.1339 302.914 51.5063 302.802 51.921 302.802C52.0056 302.802 52.1051 302.806 52.2193 302.814C52.3378 302.819 52.433 302.825 52.505 302.833V304.154C52.45 304.137 52.3505 304.12 52.2066 304.103C52.067 304.086 51.9252 304.078 51.7813 304.078C51.4555 304.078 51.1635 304.147 50.9054 304.287C50.6515 304.423 50.4505 304.611 50.3023 304.852C50.1585 305.089 50.0865 305.364 50.0865 305.677V310H48.7154ZM55.7708 310.146C55.0768 310.146 54.4759 309.996 53.9681 309.695C53.4603 309.395 53.0688 308.972 52.7938 308.426C52.5229 307.876 52.3875 307.235 52.3875 306.502C52.3875 305.775 52.5208 305.133 52.7874 304.579C53.0582 304.025 53.437 303.593 53.9236 303.284C54.4145 302.971 54.99 302.814 55.6502 302.814C56.0522 302.814 56.4415 302.88 56.8182 303.011C57.1948 303.142 57.5333 303.35 57.8338 303.633C58.1342 303.917 58.3712 304.285 58.5447 304.738C58.7225 305.191 58.8113 305.736 58.8113 306.375V306.871H53.1683V305.836H58.1004L57.4593 306.179C57.4593 305.743 57.3916 305.358 57.2562 305.023C57.1207 304.689 56.9176 304.429 56.6468 304.243C56.3802 304.052 56.048 303.957 55.6502 303.957C55.2524 303.957 54.9118 304.052 54.6282 304.243C54.3489 304.433 54.1352 304.685 53.9871 304.998C53.839 305.311 53.7649 305.654 53.7649 306.026V306.731C53.7649 307.218 53.8496 307.63 54.0188 307.969C54.1881 308.307 54.423 308.565 54.7234 308.743C55.0281 308.921 55.3815 309.01 55.7835 309.01C56.0459 309.01 56.2828 308.972 56.4944 308.896C56.7103 308.819 56.8965 308.705 57.053 308.553C57.2096 308.4 57.3281 308.212 57.4085 307.988L58.7161 308.235C58.6103 308.616 58.4241 308.951 58.1575 309.238C57.8909 309.526 57.5545 309.75 57.1482 309.911C56.7462 310.068 56.2871 310.146 55.7708 310.146ZM60.9473 305.792V310H59.5762V302.903H60.9092V304.071H61.0044C61.1652 303.686 61.417 303.382 61.7598 303.157C62.1025 302.929 62.5426 302.814 63.0801 302.814C63.5625 302.814 63.9836 302.916 64.3433 303.119C64.7072 303.318 64.9886 303.616 65.1875 304.014C65.3906 304.412 65.4922 304.905 65.4922 305.493V310H64.1211V305.658C64.1211 305.146 63.9857 304.744 63.7148 304.452C63.444 304.156 63.0758 304.008 62.6104 304.008C62.293 304.008 62.0073 304.08 61.7534 304.224C61.5037 304.363 61.307 304.564 61.1631 304.827C61.0192 305.089 60.9473 305.411 60.9473 305.792ZM69.9133 302.903V304.014H66.0412V302.903H69.9133ZM67.0759 301.215H68.4533V307.918C68.4533 308.244 68.521 308.483 68.6564 308.635C68.7919 308.783 69.0098 308.857 69.3103 308.857C69.3822 308.857 69.4584 308.853 69.5388 308.845C69.6234 308.836 69.708 308.824 69.7927 308.807L70.0529 309.949C69.9133 309.996 69.7609 310.032 69.5959 310.057C69.4309 310.083 69.2658 310.095 69.1008 310.095C68.4872 310.095 67.9963 309.924 67.6281 309.581C67.26 309.234 67.0759 308.773 67.0759 308.197V301.215ZM73.398 310V302.903H74.712V304.071H74.8072C74.9553 303.678 75.1966 303.371 75.5309 303.151C75.8694 302.927 76.2714 302.814 76.7369 302.814C77.2109 302.814 77.6065 302.927 77.9239 303.151C78.2455 303.371 78.4846 303.678 78.6412 304.071H78.7174C78.8867 303.686 79.1554 303.382 79.5235 303.157C79.8917 302.929 80.3297 302.814 80.8375 302.814C81.4807 302.814 82.0076 303.018 82.4181 303.424C82.8285 303.826 83.0338 304.433 83.0338 305.246V310H81.65V305.373C81.65 304.89 81.5188 304.543 81.2564 304.332C80.9941 304.116 80.6809 304.008 80.317 304.008C79.8684 304.008 79.5193 304.147 79.2696 304.427C79.0242 304.702 78.9015 305.051 78.9015 305.474V310H77.5177V305.284C77.5177 304.899 77.3992 304.59 77.1622 304.357C76.9252 304.124 76.6142 304.008 76.2291 304.008C75.9667 304.008 75.7234 304.078 75.4991 304.217C75.2791 304.353 75.1013 304.543 74.9659 304.789C74.8347 305.03 74.7691 305.309 74.7691 305.626V310H73.398ZM86.2107 310.152C85.7622 310.152 85.3559 310.07 84.992 309.905C84.6281 309.736 84.3403 309.49 84.1287 309.168C83.9171 308.847 83.8113 308.455 83.8113 307.994C83.8113 307.592 83.8875 307.264 84.0398 307.01C84.1964 306.752 84.4059 306.547 84.6683 306.395C84.9306 306.242 85.2226 306.128 85.5442 306.052C85.8659 305.976 86.1959 305.916 86.5345 305.874C86.9619 305.827 87.3068 305.787 87.5691 305.753C87.8315 305.72 88.0219 305.667 88.1404 305.595C88.2632 305.519 88.3245 305.398 88.3245 305.233V305.201C88.3245 304.799 88.2103 304.488 87.9817 304.268C87.7575 304.048 87.4231 303.938 86.9788 303.938C86.5175 303.938 86.1515 304.04 85.8807 304.243C85.6141 304.442 85.43 304.668 85.3284 304.922L84.0271 304.624C84.1837 304.192 84.4101 303.845 84.7063 303.583C85.0068 303.316 85.3496 303.121 85.7347 302.999C86.124 302.876 86.5302 302.814 86.9534 302.814C87.2369 302.814 87.5374 302.848 87.8548 302.916C88.1722 302.979 88.4705 303.1 88.7498 303.278C89.0333 303.451 89.264 303.701 89.4417 304.027C89.6194 304.353 89.7083 304.774 89.7083 305.29V310H88.3563V309.029H88.3055C88.2208 309.202 88.0875 309.376 87.9056 309.549C87.7278 309.723 87.4993 309.867 87.22 309.981C86.9407 310.095 86.6043 310.152 86.2107 310.152ZM86.5091 309.048C86.8942 309.048 87.2221 308.974 87.493 308.826C87.7638 308.673 87.9712 308.474 88.115 308.229C88.2589 307.984 88.3309 307.723 88.3309 307.448V306.528C88.2801 306.574 88.1849 306.619 88.0452 306.661C87.9056 306.703 87.7469 306.739 87.5691 306.769C87.3914 306.799 87.2179 306.826 87.0486 306.852C86.8794 306.873 86.7376 306.89 86.6233 306.902C86.3567 306.94 86.1134 307 85.8934 307.08C85.6733 307.156 85.4956 307.271 85.3602 307.423C85.229 307.571 85.1634 307.768 85.1634 308.013C85.1634 308.356 85.2903 308.614 85.5442 308.788C85.7981 308.961 86.1198 309.048 86.5091 309.048ZM90.835 310V302.903H92.1616V304.04H92.2378C92.369 303.659 92.5975 303.358 92.9233 303.138C93.2534 302.914 93.6258 302.802 94.0405 302.802C94.1252 302.802 94.2246 302.806 94.3389 302.814C94.4574 302.819 94.5526 302.825 94.6245 302.833V304.154C94.5695 304.137 94.4701 304.12 94.3262 304.103C94.1865 304.086 94.0448 304.078 93.9009 304.078C93.575 304.078 93.283 304.147 93.0249 304.287C92.771 304.423 92.57 304.611 92.4219 304.852C92.278 305.089 92.2061 305.364 92.2061 305.677V310H90.835ZM97.7951 312.806C96.9488 312.806 96.2823 312.647 95.7956 312.33C95.309 312.012 94.9725 311.636 94.7863 311.2L95.967 310.711C96.0516 310.846 96.1638 310.99 96.3034 311.143C96.4473 311.295 96.6398 311.424 96.8811 311.53C97.1223 311.636 97.4333 311.688 97.8142 311.688C98.3347 311.688 98.7663 311.562 99.1091 311.308C99.4519 311.058 99.6232 310.656 99.6232 310.102V308.711H99.528C99.4519 308.86 99.3355 309.027 99.1789 309.213C99.0223 309.395 98.8086 309.554 98.5378 309.689C98.267 309.824 97.9136 309.892 97.4777 309.892C96.9191 309.892 96.4156 309.761 95.967 309.499C95.5227 309.232 95.1672 308.843 94.9006 308.331C94.6382 307.814 94.507 307.18 94.507 306.426C94.507 305.673 94.6361 305.028 94.8942 304.49C95.1566 303.949 95.5121 303.534 95.9606 303.246C96.4092 302.958 96.9191 302.814 97.4904 302.814C97.9305 302.814 98.286 302.889 98.5568 303.037C98.8319 303.181 99.0456 303.35 99.198 303.544C99.3503 303.739 99.4688 303.91 99.5534 304.059H99.655V302.903H100.994V310.159C100.994 310.768 100.853 311.267 100.569 311.657C100.29 312.046 99.9089 312.334 99.4265 312.52C98.944 312.71 98.4003 312.806 97.7951 312.806ZM97.7824 308.743C98.3791 308.743 98.8361 308.538 99.1535 308.127C99.4751 307.713 99.6359 307.139 99.6359 306.407C99.6359 305.929 99.5661 305.51 99.4265 305.15C99.2868 304.786 99.0795 304.503 98.8044 304.3C98.5293 304.092 98.1887 303.989 97.7824 303.989C97.3677 303.989 97.0207 304.097 96.7414 304.312C96.4663 304.524 96.259 304.814 96.1193 305.182C95.9797 305.546 95.9099 305.954 95.9099 306.407C95.9099 306.868 95.9797 307.277 96.1193 307.632C96.259 307.984 96.4685 308.257 96.7478 308.451C97.0313 308.646 97.3762 308.743 97.7824 308.743ZM102.115 310V302.903H103.486V310H102.115ZM102.807 301.812C102.565 301.812 102.36 301.731 102.191 301.57C102.022 301.41 101.937 301.217 101.937 300.993C101.937 300.764 102.022 300.569 102.191 300.409C102.36 300.248 102.565 300.167 102.807 300.167C103.044 300.167 103.247 300.248 103.416 300.409C103.589 300.569 103.676 300.764 103.676 300.993C103.676 301.217 103.589 301.41 103.416 301.57C103.247 301.731 103.044 301.812 102.807 301.812ZM105.977 305.792V310H104.606V302.903H105.939V304.071H106.034C106.195 303.686 106.447 303.382 106.79 303.157C107.132 302.929 107.573 302.814 108.11 302.814C108.592 302.814 109.013 302.916 109.373 303.119C109.737 303.318 110.018 303.616 110.217 304.014C110.421 304.412 110.522 304.905 110.522 305.493V310H109.151V305.658C109.151 305.146 109.016 304.744 108.745 304.452C108.474 304.156 108.106 304.008 107.64 304.008C107.323 304.008 107.037 304.08 106.783 304.224C106.534 304.363 106.337 304.564 106.193 304.827C106.049 305.089 105.977 305.411 105.977 305.792ZM112.671 310.089C112.413 310.089 112.193 310 112.011 309.822C111.833 309.645 111.744 309.427 111.744 309.168C111.744 308.91 111.833 308.692 112.011 308.515C112.193 308.337 112.413 308.248 112.671 308.248C112.929 308.248 113.147 308.337 113.325 308.515C113.506 308.692 113.597 308.91 113.597 309.168C113.597 309.427 113.506 309.645 113.325 309.822C113.147 310 112.929 310.089 112.671 310.089ZM112.671 305.112C112.413 305.112 112.193 305.023 112.011 304.846C111.833 304.668 111.744 304.45 111.744 304.192C111.744 303.934 111.833 303.716 112.011 303.538C112.193 303.36 112.413 303.271 112.671 303.271C112.929 303.271 113.147 303.36 113.325 303.538C113.506 303.716 113.597 303.934 113.597 304.192C113.597 304.45 113.506 304.668 113.325 304.846C113.147 305.023 112.929 305.112 112.671 305.112ZM118.422 310H116.904L120.307 300.542H121.957L125.353 310H123.842L121.164 302.262H121.088L118.422 310ZM118.675 306.299H123.582V307.493H118.675V306.299ZM125.858 312.653V302.903H127.191V304.059H127.305C127.39 303.91 127.506 303.739 127.654 303.544C127.807 303.35 128.018 303.181 128.289 303.037C128.56 302.889 128.913 302.814 129.349 302.814C129.92 302.814 130.428 302.958 130.872 303.246C131.321 303.534 131.674 303.951 131.933 304.497C132.191 305.042 132.32 305.701 132.32 306.471C132.32 307.232 132.193 307.888 131.939 308.438C131.685 308.984 131.334 309.405 130.885 309.702C130.441 309.994 129.931 310.14 129.355 310.14C128.928 310.14 128.577 310.068 128.302 309.924C128.031 309.776 127.817 309.604 127.661 309.41C127.508 309.215 127.39 309.044 127.305 308.896H127.229V312.653H125.858ZM129.057 308.965C129.468 308.965 129.81 308.855 130.085 308.635C130.36 308.415 130.568 308.117 130.707 307.74C130.851 307.359 130.923 306.932 130.923 306.458C130.923 305.988 130.853 305.567 130.714 305.195C130.574 304.822 130.367 304.528 130.092 304.312C129.817 304.097 129.472 303.989 129.057 303.989C128.655 303.989 128.316 304.092 128.041 304.3C127.766 304.503 127.557 304.791 127.413 305.163C127.273 305.531 127.204 305.963 127.204 306.458C127.204 306.953 127.275 307.389 127.419 307.766C127.563 308.142 127.773 308.436 128.048 308.648C128.327 308.86 128.663 308.965 129.057 308.965ZM133.123 310V302.903H134.449V304.04H134.525C134.657 303.659 134.885 303.358 135.211 303.138C135.541 302.914 135.914 302.802 136.328 302.802C136.413 302.802 136.512 302.806 136.627 302.814C136.745 302.819 136.84 302.825 136.912 302.833V304.154C136.857 304.137 136.758 304.12 136.614 304.103C136.474 304.086 136.332 304.078 136.189 304.078C135.863 304.078 135.571 304.147 135.313 304.287C135.059 304.423 134.858 304.611 134.71 304.852C134.566 305.089 134.494 305.364 134.494 305.677V310H133.123ZM137.379 310V302.903H138.75V310H137.379ZM138.071 301.812C137.829 301.812 137.624 301.731 137.455 301.57C137.286 301.41 137.201 301.217 137.201 300.993C137.201 300.764 137.286 300.569 137.455 300.409C137.624 300.248 137.829 300.167 138.071 300.167C138.308 300.167 138.511 300.248 138.68 300.409C138.853 300.569 138.94 300.764 138.94 300.993C138.94 301.217 138.853 301.41 138.68 301.57C138.511 301.731 138.308 301.812 138.071 301.812ZM141.241 300.542V310H139.87V300.542H141.241ZM150.363 304.643L149.112 304.858C149.032 304.621 148.882 304.403 148.662 304.205C148.446 304.006 148.122 303.906 147.69 303.906C147.301 303.906 146.975 303.995 146.713 304.173C146.455 304.346 146.326 304.569 146.326 304.839C146.326 305.076 146.412 305.269 146.586 305.417C146.764 305.565 147.045 305.684 147.43 305.772L148.566 306.026C149.214 306.174 149.698 306.407 150.02 306.725C150.342 307.042 150.502 307.448 150.502 307.943C150.502 308.371 150.38 308.752 150.134 309.086C149.889 309.416 149.548 309.676 149.112 309.867C148.676 310.053 148.173 310.146 147.601 310.146C146.806 310.146 146.158 309.975 145.659 309.632C145.16 309.289 144.853 308.807 144.739 308.185L146.065 307.981C146.15 308.328 146.321 308.591 146.579 308.769C146.842 308.946 147.18 309.035 147.595 309.035C148.044 309.035 148.403 308.94 148.674 308.75C148.949 308.559 149.087 308.328 149.087 308.058C149.087 307.609 148.753 307.306 148.084 307.15L146.884 306.883C146.22 306.731 145.729 306.492 145.412 306.166C145.098 305.836 144.942 305.421 144.942 304.922C144.942 304.503 145.058 304.135 145.291 303.817C145.528 303.5 145.852 303.255 146.262 303.081C146.677 302.903 147.149 302.814 147.678 302.814C148.448 302.814 149.051 302.982 149.487 303.316C149.927 303.65 150.219 304.092 150.363 304.643ZM151.267 312.653V302.903H152.6V304.059H152.714C152.799 303.91 152.915 303.739 153.064 303.544C153.216 303.35 153.428 303.181 153.698 303.037C153.969 302.889 154.323 302.814 154.758 302.814C155.33 302.814 155.838 302.958 156.282 303.246C156.73 303.534 157.084 303.951 157.342 304.497C157.6 305.042 157.729 305.701 157.729 306.471C157.729 307.232 157.602 307.888 157.348 308.438C157.094 308.984 156.743 309.405 156.295 309.702C155.85 309.994 155.34 310.14 154.765 310.14C154.337 310.14 153.986 310.068 153.711 309.924C153.44 309.776 153.226 309.604 153.07 309.41C152.918 309.215 152.799 309.044 152.714 308.896H152.638V312.653H151.267ZM154.466 308.965C154.877 308.965 155.22 308.855 155.495 308.635C155.77 308.415 155.977 308.117 156.117 307.74C156.261 307.359 156.333 306.932 156.333 306.458C156.333 305.988 156.263 305.567 156.123 305.195C155.983 304.822 155.776 304.528 155.501 304.312C155.226 304.097 154.881 303.989 154.466 303.989C154.064 303.989 153.726 304.092 153.451 304.3C153.176 304.503 152.966 304.791 152.822 305.163C152.683 305.531 152.613 305.963 152.613 306.458C152.613 306.953 152.685 307.389 152.829 307.766C152.973 308.142 153.182 308.436 153.457 308.648C153.736 308.86 154.073 308.965 154.466 308.965ZM161.585 310.146C160.891 310.146 160.29 309.996 159.783 309.695C159.275 309.395 158.883 308.972 158.608 308.426C158.337 307.876 158.202 307.235 158.202 306.502C158.202 305.775 158.335 305.133 158.602 304.579C158.873 304.025 159.251 303.593 159.738 303.284C160.229 302.971 160.804 302.814 161.465 302.814C161.867 302.814 162.256 302.88 162.633 303.011C163.009 303.142 163.348 303.35 163.648 303.633C163.949 303.917 164.186 304.285 164.359 304.738C164.537 305.191 164.626 305.736 164.626 306.375V306.871H158.983V305.836H163.915L163.274 306.179C163.274 305.743 163.206 305.358 163.071 305.023C162.935 304.689 162.732 304.429 162.461 304.243C162.195 304.052 161.862 303.957 161.465 303.957C161.067 303.957 160.726 304.052 160.443 304.243C160.163 304.433 159.95 304.685 159.802 304.998C159.653 305.311 159.579 305.654 159.579 306.026V306.731C159.579 307.218 159.664 307.63 159.833 307.969C160.003 308.307 160.237 308.565 160.538 308.743C160.843 308.921 161.196 309.01 161.598 309.01C161.86 309.01 162.097 308.972 162.309 308.896C162.525 308.819 162.711 308.705 162.867 308.553C163.024 308.4 163.143 308.212 163.223 307.988L164.531 308.235C164.425 308.616 164.239 308.951 163.972 309.238C163.705 309.526 163.369 309.75 162.963 309.911C162.561 310.068 162.102 310.146 161.585 310.146ZM166.762 305.792V310H165.391V302.903H166.724V304.071H166.819C166.98 303.686 167.231 303.382 167.574 303.157C167.917 302.929 168.357 302.814 168.895 302.814C169.377 302.814 169.798 302.916 170.158 303.119C170.522 303.318 170.803 303.616 171.002 304.014C171.205 304.412 171.307 304.905 171.307 305.493V310H169.936V305.658C169.936 305.146 169.8 304.744 169.529 304.452C169.258 304.156 168.89 304.008 168.425 304.008C168.107 304.008 167.822 304.08 167.568 304.224C167.318 304.363 167.121 304.564 166.978 304.827C166.834 305.089 166.762 305.411 166.762 305.792ZM175.068 310.14C174.492 310.14 173.98 309.994 173.531 309.702C173.083 309.405 172.732 308.984 172.478 308.438C172.224 307.888 172.097 307.232 172.097 306.471C172.097 305.701 172.226 305.042 172.484 304.497C172.742 303.951 173.096 303.534 173.544 303.246C173.993 302.958 174.501 302.814 175.068 302.814C175.512 302.814 175.867 302.889 176.134 303.037C176.405 303.181 176.614 303.35 176.762 303.544C176.915 303.739 177.031 303.91 177.112 304.059H177.194V300.542H178.565V310H177.226V308.896H177.112C177.031 309.044 176.913 309.215 176.756 309.41C176.599 309.604 176.386 309.776 176.115 309.924C175.848 310.068 175.499 310.14 175.068 310.14ZM175.366 308.965C175.764 308.965 176.1 308.86 176.375 308.648C176.65 308.436 176.858 308.142 176.997 307.766C177.141 307.389 177.213 306.953 177.213 306.458C177.213 305.963 177.143 305.531 177.004 305.163C176.864 304.791 176.657 304.503 176.382 304.3C176.106 304.092 175.768 303.989 175.366 303.989C174.951 303.989 174.606 304.097 174.331 304.312C174.056 304.528 173.849 304.822 173.709 305.195C173.57 305.567 173.5 305.988 173.5 306.458C173.5 306.932 173.57 307.359 173.709 307.74C173.849 308.117 174.056 308.415 174.331 308.635C174.611 308.855 174.955 308.965 175.366 308.965ZM179.692 310V302.903H181.063V310H179.692ZM180.384 301.812C180.142 301.812 179.937 301.731 179.768 301.57C179.599 301.41 179.514 301.217 179.514 300.993C179.514 300.764 179.599 300.569 179.768 300.409C179.937 300.248 180.142 300.167 180.384 300.167C180.621 300.167 180.824 300.248 180.993 300.409C181.167 300.569 181.253 300.764 181.253 300.993C181.253 301.217 181.167 301.41 180.993 301.57C180.824 301.731 180.621 301.812 180.384 301.812ZM183.554 305.792V310H182.183V302.903H183.516V304.071H183.611C183.772 303.686 184.024 303.382 184.367 303.157C184.71 302.929 185.15 302.814 185.687 302.814C186.17 302.814 186.591 302.916 186.95 303.119C187.314 303.318 187.596 303.616 187.795 304.014C187.998 304.412 188.099 304.905 188.099 305.493V310H186.728V305.658C186.728 305.146 186.593 304.744 186.322 304.452C186.051 304.156 185.683 304.008 185.217 304.008C184.9 304.008 184.614 304.08 184.36 304.224C184.111 304.363 183.914 304.564 183.77 304.827C183.626 305.089 183.554 305.411 183.554 305.792ZM192.178 312.806C191.331 312.806 190.665 312.647 190.178 312.33C189.691 312.012 189.355 311.636 189.169 311.2L190.349 310.711C190.434 310.846 190.546 310.99 190.686 311.143C190.83 311.295 191.022 311.424 191.263 311.53C191.505 311.636 191.816 311.688 192.197 311.688C192.717 311.688 193.149 311.562 193.492 311.308C193.834 311.058 194.006 310.656 194.006 310.102V308.711H193.91C193.834 308.86 193.718 309.027 193.561 309.213C193.405 309.395 193.191 309.554 192.92 309.689C192.649 309.824 192.296 309.892 191.86 309.892C191.302 309.892 190.798 309.761 190.349 309.499C189.905 309.232 189.55 308.843 189.283 308.331C189.021 307.814 188.889 307.18 188.889 306.426C188.889 305.673 189.019 305.028 189.277 304.49C189.539 303.949 189.894 303.534 190.343 303.246C190.792 302.958 191.302 302.814 191.873 302.814C192.313 302.814 192.668 302.889 192.939 303.037C193.214 303.181 193.428 303.35 193.58 303.544C193.733 303.739 193.851 303.91 193.936 304.059H194.037V302.903H195.377V310.159C195.377 310.768 195.235 311.267 194.951 311.657C194.672 312.046 194.291 312.334 193.809 312.52C193.326 312.71 192.783 312.806 192.178 312.806ZM192.165 308.743C192.762 308.743 193.219 308.538 193.536 308.127C193.858 307.713 194.018 307.139 194.018 306.407C194.018 305.929 193.949 305.51 193.809 305.15C193.669 304.786 193.462 304.503 193.187 304.3C192.912 304.092 192.571 303.989 192.165 303.989C191.75 303.989 191.403 304.097 191.124 304.312C190.849 304.524 190.641 304.814 190.502 305.182C190.362 305.546 190.292 305.954 190.292 306.407C190.292 306.868 190.362 307.277 190.502 307.632C190.641 307.984 190.851 308.257 191.13 308.451C191.414 308.646 191.759 308.743 192.165 308.743ZM201.804 304.643L200.553 304.858C200.473 304.621 200.323 304.403 200.103 304.205C199.887 304.006 199.563 303.906 199.131 303.906C198.742 303.906 198.416 303.995 198.154 304.173C197.896 304.346 197.767 304.569 197.767 304.839C197.767 305.076 197.853 305.269 198.027 305.417C198.205 305.565 198.486 305.684 198.871 305.772L200.007 306.026C200.655 306.174 201.139 306.407 201.461 306.725C201.783 307.042 201.943 307.448 201.943 307.943C201.943 308.371 201.821 308.752 201.575 309.086C201.33 309.416 200.989 309.676 200.553 309.867C200.117 310.053 199.614 310.146 199.042 310.146C198.247 310.146 197.599 309.975 197.1 309.632C196.601 309.289 196.294 308.807 196.18 308.185L197.506 307.981C197.591 308.328 197.762 308.591 198.021 308.769C198.283 308.946 198.621 309.035 199.036 309.035C199.485 309.035 199.844 308.94 200.115 308.75C200.39 308.559 200.528 308.328 200.528 308.058C200.528 307.609 200.194 307.306 199.525 307.15L198.325 306.883C197.661 306.731 197.17 306.492 196.853 306.166C196.539 305.836 196.383 305.421 196.383 304.922C196.383 304.503 196.499 304.135 196.732 303.817C196.969 303.5 197.293 303.255 197.703 303.081C198.118 302.903 198.59 302.814 199.119 302.814C199.889 302.814 200.492 302.982 200.928 303.316C201.368 303.65 201.66 304.092 201.804 304.643Z" fill="#4C4E70"/>
<path d="M347.828 311.271V298.543H348.635V311.271H347.828ZM348.231 310.164C347.47 310.164 346.81 310.046 346.249 309.809C345.693 309.567 345.258 309.223 344.943 308.776C344.629 308.33 344.453 307.799 344.417 307.184H345.962C345.994 307.553 346.112 307.86 346.317 308.106C346.527 308.348 346.798 308.528 347.131 308.646C347.464 308.765 347.828 308.824 348.225 308.824C348.658 308.824 349.045 308.756 349.387 308.619C349.729 308.482 349.995 308.291 350.187 308.045C350.382 307.794 350.48 307.503 350.48 307.17C350.48 306.869 350.394 306.623 350.221 306.432C350.052 306.24 349.822 306.083 349.53 305.96C349.239 305.832 348.91 305.721 348.546 305.625L347.35 305.297C346.529 305.078 345.882 304.752 345.408 304.319C344.934 303.882 344.697 303.31 344.697 302.604C344.697 302.016 344.854 301.503 345.169 301.065C345.488 300.628 345.919 300.288 346.461 300.047C347.008 299.801 347.621 299.678 348.3 299.678C348.993 299.678 349.601 299.801 350.125 300.047C350.654 300.288 351.071 300.621 351.376 301.045C351.686 301.464 351.848 301.945 351.861 302.487H350.371C350.316 302.018 350.098 301.653 349.715 301.394C349.337 301.134 348.854 301.004 348.266 301.004C347.855 301.004 347.495 301.07 347.186 301.202C346.88 301.33 346.643 301.507 346.475 301.735C346.311 301.963 346.229 302.225 346.229 302.521C346.229 302.84 346.326 303.1 346.522 303.301C346.723 303.501 346.965 303.661 347.247 303.779C347.534 303.893 347.81 303.987 348.074 304.06L349.065 304.326C349.389 304.408 349.722 304.518 350.063 304.654C350.405 304.791 350.722 304.971 351.014 305.194C351.31 305.413 351.547 305.687 351.725 306.015C351.907 306.338 351.998 306.73 351.998 307.19C351.998 307.76 351.85 308.271 351.554 308.722C351.257 309.168 350.829 309.521 350.269 309.781C349.708 310.036 349.029 310.164 348.231 310.164ZM356.153 310.137C355.465 310.137 354.854 310.021 354.321 309.788C353.788 309.551 353.367 309.223 353.057 308.804C352.747 308.384 352.583 307.899 352.564 307.348H354.109C354.132 307.648 354.235 307.908 354.417 308.127C354.599 308.346 354.839 308.517 355.135 308.64C355.436 308.758 355.771 308.817 356.14 308.817C356.541 308.817 356.896 308.747 357.206 308.605C357.516 308.464 357.757 308.271 357.931 308.024C358.108 307.774 358.197 307.484 358.197 307.156C358.197 306.814 358.111 306.514 357.938 306.254C357.764 305.99 357.511 305.785 357.179 305.639C356.846 305.493 356.445 305.42 355.976 305.42H355.107V304.162H355.976C356.349 304.162 356.68 304.094 356.967 303.957C357.254 303.82 357.477 303.631 357.637 303.39C357.801 303.148 357.883 302.863 357.883 302.535C357.883 302.221 357.812 301.947 357.671 301.715C357.53 301.478 357.331 301.296 357.076 301.168C356.821 301.036 356.52 300.97 356.174 300.97C355.841 300.97 355.531 301.029 355.244 301.147C354.957 301.266 354.722 301.437 354.54 301.66C354.362 301.879 354.269 302.146 354.26 302.46H352.776C352.79 301.909 352.95 301.425 353.255 301.011C353.565 300.591 353.975 300.266 354.485 300.033C355 299.796 355.57 299.678 356.194 299.678C356.846 299.678 357.409 299.805 357.883 300.061C358.361 300.311 358.73 300.648 358.99 301.072C359.25 301.492 359.38 301.95 359.38 302.446C359.38 303.025 359.22 303.513 358.901 303.909C358.582 304.301 358.156 304.568 357.623 304.709V304.784C358.298 304.889 358.819 305.158 359.188 305.591C359.562 306.024 359.749 306.562 359.749 307.204C359.749 307.765 359.592 308.266 359.277 308.708C358.967 309.15 358.541 309.499 357.999 309.754C357.461 310.009 356.846 310.137 356.153 310.137ZM363.904 310.137C363.28 310.137 362.719 310.018 362.223 309.781C361.73 309.54 361.336 309.209 361.04 308.79C360.744 308.366 360.587 307.885 360.568 307.348H362.059C362.095 307.781 362.289 308.138 362.64 308.421C362.991 308.703 363.412 308.845 363.904 308.845C364.296 308.845 364.643 308.754 364.943 308.571C365.244 308.389 365.481 308.141 365.654 307.826C365.827 307.507 365.914 307.143 365.914 306.732C365.914 306.322 365.825 305.955 365.647 305.632C365.47 305.304 365.224 305.046 364.909 304.859C364.599 304.673 364.242 304.579 363.836 304.579C363.526 304.579 363.216 304.634 362.906 304.743C362.596 304.848 362.346 304.985 362.154 305.153L360.739 304.948L361.313 299.814H366.912V301.134H362.599L362.277 303.984H362.332C362.528 303.788 362.79 303.629 363.118 303.506C363.451 303.378 363.809 303.314 364.191 303.314C364.811 303.314 365.363 303.463 365.846 303.759C366.333 304.05 366.716 304.451 366.994 304.962C367.272 305.468 367.411 306.049 367.411 306.705C367.411 307.366 367.261 307.956 366.96 308.476C366.659 308.991 366.244 309.396 365.716 309.692C365.192 309.989 364.588 310.137 363.904 310.137ZM371.635 310.137C370.851 310.137 370.179 309.932 369.618 309.521C369.062 309.111 368.636 308.519 368.34 307.744C368.048 306.965 367.902 306.021 367.902 304.914C367.902 303.811 368.05 302.87 368.347 302.091C368.643 301.307 369.069 300.71 369.625 300.3C370.186 299.885 370.855 299.678 371.635 299.678C372.419 299.678 373.089 299.885 373.645 300.3C374.205 300.71 374.631 301.307 374.923 302.091C375.219 302.87 375.367 303.811 375.367 304.914C375.367 306.021 375.221 306.965 374.93 307.744C374.638 308.519 374.214 309.111 373.658 309.521C373.102 309.932 372.428 310.137 371.635 310.137ZM371.635 308.824C372.113 308.824 372.517 308.672 372.845 308.366C373.173 308.061 373.424 307.617 373.597 307.033C373.77 306.445 373.856 305.739 373.856 304.914C373.856 304.085 373.77 303.378 373.597 302.795C373.424 302.207 373.173 301.76 372.845 301.455C372.517 301.145 372.113 300.99 371.635 300.99C370.928 300.99 370.382 301.334 369.994 302.022C369.611 302.706 369.42 303.67 369.42 304.914C369.42 305.739 369.507 306.445 369.68 307.033C369.853 307.617 370.104 308.061 370.432 308.366C370.764 308.672 371.165 308.824 371.635 308.824ZM376.809 310.096C376.531 310.096 376.294 310 376.098 309.809C375.906 309.617 375.811 309.382 375.811 309.104C375.811 308.826 375.906 308.592 376.098 308.4C376.294 308.209 376.531 308.113 376.809 308.113C377.087 308.113 377.321 308.209 377.513 308.4C377.709 308.592 377.807 308.826 377.807 309.104C377.807 309.382 377.709 309.617 377.513 309.809C377.321 310 377.087 310.096 376.809 310.096ZM381.969 310.137C381.185 310.137 380.513 309.932 379.952 309.521C379.396 309.111 378.97 308.519 378.674 307.744C378.382 306.965 378.236 306.021 378.236 304.914C378.236 303.811 378.384 302.87 378.681 302.091C378.977 301.307 379.403 300.71 379.959 300.3C380.52 299.885 381.189 299.678 381.969 299.678C382.753 299.678 383.423 299.885 383.979 300.3C384.539 300.71 384.965 301.307 385.257 302.091C385.553 302.87 385.701 303.811 385.701 304.914C385.701 306.021 385.555 306.965 385.264 307.744C384.972 308.519 384.548 309.111 383.992 309.521C383.436 309.932 382.762 310.137 381.969 310.137ZM381.969 308.824C382.447 308.824 382.851 308.672 383.179 308.366C383.507 308.061 383.757 307.617 383.931 307.033C384.104 306.445 384.19 305.739 384.19 304.914C384.19 304.085 384.104 303.378 383.931 302.795C383.757 302.207 383.507 301.76 383.179 301.455C382.851 301.145 382.447 300.99 381.969 300.99C381.262 300.99 380.715 301.334 380.328 302.022C379.945 302.706 379.754 303.67 379.754 304.914C379.754 305.739 379.84 306.445 380.014 307.033C380.187 307.617 380.438 308.061 380.766 308.366C381.098 308.672 381.499 308.824 381.969 308.824ZM389.932 310.137C389.148 310.137 388.476 309.932 387.915 309.521C387.359 309.111 386.933 308.519 386.637 307.744C386.345 306.965 386.199 306.021 386.199 304.914C386.199 303.811 386.347 302.87 386.644 302.091C386.94 301.307 387.366 300.71 387.922 300.3C388.482 299.885 389.152 299.678 389.932 299.678C390.715 299.678 391.385 299.885 391.941 300.3C392.502 300.71 392.928 301.307 393.22 302.091C393.516 302.87 393.664 303.811 393.664 304.914C393.664 306.021 393.518 306.965 393.227 307.744C392.935 308.519 392.511 309.111 391.955 309.521C391.399 309.932 390.725 310.137 389.932 310.137ZM389.932 308.824C390.41 308.824 390.813 308.672 391.142 308.366C391.47 308.061 391.72 307.617 391.894 307.033C392.067 306.445 392.153 305.739 392.153 304.914C392.153 304.085 392.067 303.378 391.894 302.795C391.72 302.207 391.47 301.76 391.142 301.455C390.813 301.145 390.41 300.99 389.932 300.99C389.225 300.99 388.678 301.334 388.291 302.022C387.908 302.706 387.717 303.67 387.717 304.914C387.717 305.739 387.803 306.445 387.977 307.033C388.15 307.617 388.4 308.061 388.729 308.366C389.061 308.672 389.462 308.824 389.932 308.824Z" fill="#0E1522"/>
<path d="M409.877 299.341L406.596 311.531H405.268L408.55 299.341H409.877Z" fill="#3B2C6E"/>
<path d="M424.828 311.271V298.543H425.635V311.271H424.828ZM425.231 310.164C424.47 310.164 423.81 310.046 423.249 309.809C422.693 309.567 422.258 309.223 421.943 308.776C421.629 308.33 421.453 307.799 421.417 307.184H422.962C422.994 307.553 423.112 307.86 423.317 308.106C423.527 308.348 423.798 308.528 424.131 308.646C424.464 308.765 424.828 308.824 425.225 308.824C425.658 308.824 426.045 308.756 426.387 308.619C426.729 308.482 426.995 308.291 427.187 308.045C427.382 307.794 427.48 307.503 427.48 307.17C427.48 306.869 427.394 306.623 427.221 306.432C427.052 306.24 426.822 306.083 426.53 305.96C426.239 305.832 425.91 305.721 425.546 305.625L424.35 305.297C423.529 305.078 422.882 304.752 422.408 304.319C421.934 303.882 421.697 303.31 421.697 302.604C421.697 302.016 421.854 301.503 422.169 301.065C422.488 300.628 422.919 300.288 423.461 300.047C424.008 299.801 424.621 299.678 425.3 299.678C425.993 299.678 426.601 299.801 427.125 300.047C427.654 300.288 428.071 300.621 428.376 301.045C428.686 301.464 428.848 301.945 428.861 302.487H427.371C427.316 302.018 427.098 301.653 426.715 301.394C426.337 301.134 425.854 301.004 425.266 301.004C424.855 301.004 424.495 301.07 424.186 301.202C423.88 301.33 423.643 301.507 423.475 301.735C423.311 301.963 423.229 302.225 423.229 302.521C423.229 302.84 423.326 303.1 423.522 303.301C423.723 303.501 423.965 303.661 424.247 303.779C424.534 303.893 424.81 303.987 425.074 304.06L426.065 304.326C426.389 304.408 426.722 304.518 427.063 304.654C427.405 304.791 427.722 304.971 428.014 305.194C428.31 305.413 428.547 305.687 428.725 306.015C428.907 306.338 428.998 306.73 428.998 307.19C428.998 307.76 428.85 308.271 428.554 308.722C428.257 309.168 427.829 309.521 427.269 309.781C426.708 310.036 426.029 310.164 425.231 310.164ZM433.133 310.137C432.682 310.137 432.235 310.057 431.793 309.897C431.351 309.738 430.952 309.474 430.597 309.104C430.241 308.731 429.954 308.229 429.735 307.601C429.521 306.972 429.414 306.19 429.414 305.256C429.414 304.367 429.503 303.579 429.681 302.891C429.863 302.198 430.12 301.615 430.453 301.141C430.79 300.662 431.196 300.3 431.67 300.054C432.144 299.803 432.677 299.678 433.27 299.678C433.876 299.678 434.413 299.799 434.883 300.04C435.352 300.277 435.733 300.605 436.024 301.024C436.321 301.444 436.505 301.922 436.578 302.46H435.074C434.969 302.036 434.764 301.692 434.459 301.428C434.154 301.159 433.757 301.024 433.27 301.024C432.522 301.024 431.939 301.35 431.52 302.002C431.105 302.649 430.897 303.551 430.897 304.709H430.973C431.15 304.422 431.367 304.176 431.622 303.971C431.877 303.761 432.162 303.602 432.477 303.492C432.796 303.383 433.135 303.328 433.495 303.328C434.083 303.328 434.616 303.472 435.095 303.759C435.578 304.046 435.961 304.442 436.243 304.948C436.53 305.45 436.674 306.026 436.674 306.678C436.674 307.325 436.526 307.91 436.229 308.435C435.938 308.959 435.525 309.373 434.992 309.679C434.464 309.984 433.844 310.137 433.133 310.137ZM433.126 308.845C433.518 308.845 433.867 308.749 434.172 308.558C434.482 308.366 434.728 308.109 434.91 307.785C435.092 307.457 435.184 307.092 435.184 306.691C435.184 306.299 435.095 305.944 434.917 305.625C434.744 305.306 434.505 305.053 434.199 304.866C433.898 304.675 433.552 304.579 433.16 304.579C432.773 304.579 432.422 304.677 432.107 304.873C431.793 305.069 431.542 305.329 431.355 305.652C431.173 305.976 431.082 306.327 431.082 306.705C431.082 307.083 431.171 307.437 431.349 307.765C431.526 308.093 431.768 308.355 432.073 308.551C432.383 308.747 432.734 308.845 433.126 308.845ZM437.145 308.011V306.773L441.54 299.814H442.518V301.646H441.889L438.744 306.623V306.705H444.78V308.011H437.145ZM441.957 310V307.635L441.971 307.067V299.814H443.434V310H441.957ZM448.949 310.137C448.165 310.137 447.493 309.932 446.933 309.521C446.377 309.111 445.951 308.519 445.654 307.744C445.363 306.965 445.217 306.021 445.217 304.914C445.217 303.811 445.365 302.87 445.661 302.091C445.957 301.307 446.383 300.71 446.939 300.3C447.5 299.885 448.17 299.678 448.949 299.678C449.733 299.678 450.403 299.885 450.959 300.3C451.52 300.71 451.946 301.307 452.237 302.091C452.534 302.87 452.682 303.811 452.682 304.914C452.682 306.021 452.536 306.965 452.244 307.744C451.952 308.519 451.529 309.111 450.973 309.521C450.417 309.932 449.742 310.137 448.949 310.137ZM448.949 308.824C449.428 308.824 449.831 308.672 450.159 308.366C450.487 308.061 450.738 307.617 450.911 307.033C451.084 306.445 451.171 305.739 451.171 304.914C451.171 304.085 451.084 303.378 450.911 302.795C450.738 302.207 450.487 301.76 450.159 301.455C449.831 301.145 449.428 300.99 448.949 300.99C448.243 300.99 447.696 301.334 447.309 302.022C446.926 302.706 446.734 303.67 446.734 304.914C446.734 305.739 446.821 306.445 446.994 307.033C447.167 307.617 447.418 308.061 447.746 308.366C448.079 308.672 448.48 308.824 448.949 308.824ZM454.123 310.096C453.845 310.096 453.608 310 453.412 309.809C453.221 309.617 453.125 309.382 453.125 309.104C453.125 308.826 453.221 308.592 453.412 308.4C453.608 308.209 453.845 308.113 454.123 308.113C454.401 308.113 454.636 308.209 454.827 308.4C455.023 308.592 455.121 308.826 455.121 309.104C455.121 309.382 455.023 309.617 454.827 309.809C454.636 310 454.401 310.096 454.123 310.096ZM459.283 310.137C458.499 310.137 457.827 309.932 457.267 309.521C456.711 309.111 456.285 308.519 455.988 307.744C455.697 306.965 455.551 306.021 455.551 304.914C455.551 303.811 455.699 302.87 455.995 302.091C456.291 301.307 456.717 300.71 457.273 300.3C457.834 299.885 458.504 299.678 459.283 299.678C460.067 299.678 460.737 299.885 461.293 300.3C461.854 300.71 462.28 301.307 462.571 302.091C462.868 302.87 463.016 303.811 463.016 304.914C463.016 306.021 462.87 306.965 462.578 307.744C462.286 308.519 461.863 309.111 461.307 309.521C460.751 309.932 460.076 310.137 459.283 310.137ZM459.283 308.824C459.762 308.824 460.165 308.672 460.493 308.366C460.821 308.061 461.072 307.617 461.245 307.033C461.418 306.445 461.505 305.739 461.505 304.914C461.505 304.085 461.418 303.378 461.245 302.795C461.072 302.207 460.821 301.76 460.493 301.455C460.165 301.145 459.762 300.99 459.283 300.99C458.577 300.99 458.03 301.334 457.643 302.022C457.26 302.706 457.068 303.67 457.068 304.914C457.068 305.739 457.155 306.445 457.328 307.033C457.501 307.617 457.752 308.061 458.08 308.366C458.413 308.672 458.814 308.824 459.283 308.824ZM467.246 310.137C466.462 310.137 465.79 309.932 465.229 309.521C464.674 309.111 464.247 308.519 463.951 307.744C463.66 306.965 463.514 306.021 463.514 304.914C463.514 303.811 463.662 302.87 463.958 302.091C464.254 301.307 464.68 300.71 465.236 300.3C465.797 299.885 466.467 299.678 467.246 299.678C468.03 299.678 468.7 299.885 469.256 300.3C469.816 300.71 470.243 301.307 470.534 302.091C470.83 302.87 470.979 303.811 470.979 304.914C470.979 306.021 470.833 306.965 470.541 307.744C470.249 308.519 469.826 309.111 469.27 309.521C468.714 309.932 468.039 310.137 467.246 310.137ZM467.246 308.824C467.725 308.824 468.128 308.672 468.456 308.366C468.784 308.061 469.035 307.617 469.208 307.033C469.381 306.445 469.468 305.739 469.468 304.914C469.468 304.085 469.381 303.378 469.208 302.795C469.035 302.207 468.784 301.76 468.456 301.455C468.128 301.145 467.725 300.99 467.246 300.99C466.54 300.99 465.993 301.334 465.605 302.022C465.223 302.706 465.031 303.67 465.031 304.914C465.031 305.739 465.118 306.445 465.291 307.033C465.464 307.617 465.715 308.061 466.043 308.366C466.376 308.672 466.777 308.824 467.246 308.824Z" fill="#0E1522"/>
</svg>
