<svg width="532" height="560" viewBox="0 0 532 560" fill="none" xmlns="http://www.w3.org/2000/svg">
<path d="M459.748 193.378C459.498 193.514 459.405 193.826 459.54 194.077C459.676 194.327 459.988 194.42 460.238 194.284C460.489 194.149 460.582 193.836 460.446 193.586C460.311 193.336 459.998 193.243 459.748 193.378Z" fill="white"/>
<path d="M423.608 244.593C423.358 244.728 423.265 245.041 423.401 245.291C423.536 245.541 423.849 245.634 424.099 245.499C424.349 245.363 424.442 245.051 424.307 244.8C424.171 244.55 423.858 244.457 423.608 244.593Z" fill="white"/>
<path d="M388.021 221.083C387.771 221.218 387.678 221.531 387.814 221.781C387.949 222.031 388.262 222.124 388.512 221.989C388.762 221.853 388.855 221.541 388.72 221.291C388.584 221.04 388.272 220.947 388.021 221.083Z" fill="white"/>
<path opacity="0.11" d="M466.06 174.728C465.81 174.863 465.717 175.176 465.853 175.426C465.988 175.676 466.301 175.769 466.551 175.634C466.801 175.498 466.894 175.186 466.759 174.936C466.623 174.685 466.311 174.592 466.06 174.728Z" fill="white"/>
<path opacity="0.3" d="M406.598 253.215C406.347 253.351 406.254 253.663 406.39 253.913C406.525 254.163 406.838 254.256 407.088 254.121C407.338 253.986 407.431 253.673 407.296 253.423C407.16 253.173 406.848 253.08 406.598 253.215Z" fill="white"/>
<path opacity="0.11" d="M489.613 232.295C489.363 232.43 489.27 232.743 489.406 232.993C489.541 233.243 489.854 233.336 490.104 233.201C490.354 233.065 490.447 232.753 490.311 232.503C490.176 232.253 489.863 232.16 489.613 232.295Z" fill="white"/>
<path opacity="0.11" d="M408.281 227.109C408.031 227.244 407.938 227.557 408.074 227.807C408.209 228.057 408.522 228.15 408.772 228.015C409.022 227.879 409.115 227.567 408.979 227.317C408.844 227.066 408.531 226.973 408.281 227.109Z" fill="white"/>
<path opacity="0.3" d="M520.719 160.954C520.218 161.225 520.032 161.851 520.303 162.351C520.574 162.852 521.2 163.038 521.701 162.767C522.201 162.496 522.388 161.87 522.117 161.37C521.845 160.869 521.22 160.683 520.719 160.954Z" fill="white"/>
<path opacity="0.11" d="M501.341 189.024C500.84 189.295 500.654 189.921 500.925 190.422C501.196 190.923 501.822 191.109 502.323 190.838C502.824 190.566 503.01 189.941 502.739 189.44C502.467 188.939 501.842 188.753 501.341 189.024Z" fill="white"/>
<path d="M510.153 204.761C509.778 204.964 509.638 205.433 509.842 205.809C510.045 206.184 510.514 206.324 510.89 206.12C511.265 205.917 511.405 205.448 511.201 205.073C510.998 204.697 510.529 204.558 510.153 204.761Z" fill="white"/>
<path d="M515.656 140.252C515.281 140.455 515.141 140.924 515.345 141.3C515.548 141.675 516.017 141.815 516.392 141.611C516.768 141.408 516.907 140.939 516.704 140.564C516.501 140.188 516.032 140.049 515.656 140.252Z" fill="white"/>
<path d="M360.309 212.645C359.933 212.849 359.794 213.318 359.997 213.693C360.2 214.069 360.669 214.208 361.045 214.005C361.42 213.802 361.56 213.333 361.357 212.957C361.153 212.582 360.684 212.442 360.309 212.645Z" fill="white"/>
<path d="M526.995 183.922C526.62 184.125 526.48 184.594 526.684 184.969C526.887 185.345 527.356 185.484 527.731 185.281C528.107 185.078 528.246 184.609 528.043 184.233C527.84 183.858 527.371 183.718 526.995 183.922Z" fill="white"/>
<path d="M462.945 150.041C462.57 150.245 462.43 150.714 462.634 151.089C462.837 151.465 463.306 151.604 463.682 151.401C464.057 151.198 464.197 150.728 463.993 150.353C463.79 149.978 463.321 149.838 462.945 150.041Z" fill="white"/>
<path d="M359.55 245.874C359.174 246.077 359.035 246.546 359.238 246.922C359.441 247.297 359.911 247.437 360.286 247.233C360.661 247.03 360.801 246.561 360.598 246.185C360.394 245.81 359.925 245.67 359.55 245.874Z" fill="white"/>
<path d="M362.168 276.685C361.793 276.888 361.653 277.357 361.856 277.733C362.06 278.108 362.529 278.248 362.904 278.044C363.28 277.841 363.419 277.372 363.216 276.996C363.013 276.621 362.544 276.481 362.168 276.685Z" fill="white"/>
<path opacity="0.3" d="M472.522 224.55C472.021 224.821 471.835 225.447 472.106 225.947C472.377 226.448 473.003 226.634 473.504 226.363C474.004 226.092 474.19 225.466 473.919 224.965C473.648 224.465 473.022 224.279 472.522 224.55Z" fill="white"/>
<path d="M489.946 256.722C489.445 256.993 489.259 257.619 489.53 258.119C489.801 258.62 490.427 258.806 490.927 258.535C491.428 258.264 491.614 257.638 491.343 257.138C491.072 256.637 490.446 256.451 489.946 256.722Z" fill="white"/>
<path d="M443.788 227.217C443.413 227.42 443.273 227.889 443.476 228.264C443.68 228.64 444.149 228.779 444.524 228.576C444.9 228.373 445.039 227.904 444.836 227.528C444.633 227.153 444.164 227.013 443.788 227.217Z" fill="white"/>
<path opacity="0.3" d="M431.379 256.789C430.878 257.06 430.692 257.686 430.963 258.186C431.235 258.687 431.86 258.873 432.361 258.602C432.862 258.331 433.048 257.705 432.777 257.205C432.506 256.704 431.88 256.518 431.379 256.789Z" fill="white"/>
<path opacity="0.3" d="M369.098 248.905C368.597 249.177 368.411 249.802 368.682 250.303C368.953 250.804 369.579 250.99 370.08 250.719C370.58 250.448 370.767 249.822 370.495 249.321C370.224 248.82 369.599 248.634 369.098 248.905Z" fill="white"/>
<path opacity="0.3" d="M421.626 219.294C421.126 219.565 420.939 220.191 421.21 220.691C421.482 221.192 422.107 221.378 422.608 221.107C423.109 220.836 423.295 220.21 423.024 219.71C422.753 219.209 422.127 219.023 421.626 219.294Z" fill="white"/>
<path opacity="0.11" d="M395.037 252.44C394.537 252.711 394.351 253.337 394.622 253.837C394.893 254.338 395.518 254.524 396.019 254.253C396.52 253.982 396.706 253.356 396.435 252.856C396.164 252.355 395.538 252.169 395.037 252.44Z" fill="white"/>
<path opacity="0.11" d="M484.961 381.529C484.46 381.8 484.274 382.426 484.545 382.927C484.817 383.427 485.442 383.614 485.943 383.342C486.444 383.071 486.63 382.446 486.359 381.945C486.088 381.444 485.462 381.258 484.961 381.529Z" fill="white"/>
<path d="M479.319 378.139C478.944 378.342 478.804 378.811 479.008 379.186C479.211 379.562 479.68 379.701 480.056 379.498C480.431 379.295 480.571 378.826 480.367 378.45C480.164 378.075 479.695 377.935 479.319 378.139Z" fill="white"/>
<path d="M469.515 395.75C469.139 395.953 469 396.422 469.203 396.798C469.406 397.173 469.875 397.313 470.251 397.109C470.626 396.906 470.766 396.437 470.563 396.061C470.359 395.686 469.89 395.546 469.515 395.75Z" fill="white"/>
<path d="M508.525 375.803C508.149 376.007 508.01 376.476 508.213 376.851C508.416 377.227 508.885 377.366 509.261 377.163C509.636 376.96 509.776 376.491 509.572 376.115C509.369 375.74 508.9 375.6 508.525 375.803Z" fill="white"/>
<path opacity="0.11" d="M525.069 352.783C524.568 353.054 524.382 353.68 524.653 354.181C524.924 354.682 525.55 354.868 526.05 354.597C526.551 354.326 526.737 353.7 526.466 353.199C526.195 352.698 525.569 352.512 525.069 352.783Z" fill="white"/>
<path d="M476.757 363.12C476.507 363.256 476.414 363.568 476.549 363.818C476.685 364.068 476.997 364.161 477.247 364.026C477.497 363.891 477.59 363.578 477.455 363.328C477.32 363.078 477.007 362.985 476.757 363.12Z" fill="white"/>
<path d="M377.968 416.605C377.718 416.74 377.625 417.053 377.76 417.303C377.895 417.553 378.208 417.646 378.458 417.51C378.708 417.375 378.801 417.062 378.666 416.812C378.53 416.562 378.218 416.469 377.968 416.605Z" fill="white"/>
<path d="M341.827 467.819C341.577 467.955 341.484 468.267 341.619 468.518C341.755 468.768 342.067 468.861 342.318 468.725C342.568 468.59 342.661 468.277 342.525 468.027C342.39 467.777 342.077 467.684 341.827 467.819Z" fill="white"/>
<path d="M306.241 444.308C305.991 444.443 305.898 444.756 306.033 445.006C306.169 445.256 306.481 445.349 306.732 445.214C306.982 445.078 307.075 444.766 306.939 444.516C306.804 444.265 306.491 444.172 306.241 444.308Z" fill="white"/>
<path opacity="0.11" d="M468.823 346.315C468.573 346.451 468.48 346.764 468.616 347.014C468.751 347.264 469.064 347.357 469.314 347.221C469.564 347.086 469.657 346.773 469.521 346.523C469.386 346.273 469.073 346.18 468.823 346.315Z" fill="white"/>
<path opacity="0.11" d="M384.278 397.955C384.028 398.091 383.935 398.403 384.071 398.653C384.206 398.903 384.519 398.996 384.769 398.861C385.019 398.726 385.112 398.413 384.976 398.163C384.841 397.913 384.528 397.82 384.278 397.955Z" fill="white"/>
<path d="M528.101 396.262C527.85 396.398 527.757 396.71 527.893 396.96C528.028 397.211 528.341 397.304 528.591 397.168C528.841 397.033 528.934 396.72 528.799 396.47C528.663 396.22 528.351 396.127 528.101 396.262Z" fill="white"/>
<path d="M458.809 434.952C458.558 435.087 458.465 435.4 458.601 435.65C458.736 435.9 459.049 435.993 459.299 435.858C459.549 435.722 459.642 435.41 459.507 435.159C459.371 434.909 459.059 434.816 458.809 434.952Z" fill="white"/>
<path opacity="0.3" d="M514.051 389.804C513.801 389.939 513.708 390.252 513.843 390.502C513.979 390.752 514.291 390.845 514.541 390.71C514.791 390.574 514.884 390.262 514.749 390.011C514.613 389.761 514.301 389.668 514.051 389.804Z" fill="white"/>
<path opacity="0.3" d="M523.973 333.45C523.722 333.586 523.629 333.898 523.765 334.149C523.9 334.399 524.213 334.492 524.463 334.356C524.713 334.221 524.806 333.908 524.671 333.658C524.535 333.408 524.223 333.315 523.973 333.45Z" fill="white"/>
<path opacity="0.3" d="M324.816 476.443C324.566 476.578 324.473 476.891 324.609 477.141C324.744 477.391 325.057 477.484 325.307 477.349C325.557 477.213 325.65 476.9 325.515 476.65C325.379 476.4 325.067 476.307 324.816 476.443Z" fill="white"/>
<path opacity="0.11" d="M407.831 455.52C407.581 455.656 407.488 455.968 407.623 456.218C407.759 456.469 408.071 456.562 408.321 456.426C408.572 456.291 408.665 455.978 408.529 455.728C408.394 455.478 408.081 455.385 407.831 455.52Z" fill="white"/>
<path opacity="0.11" d="M326.502 450.335C326.252 450.47 326.159 450.783 326.294 451.033C326.43 451.283 326.742 451.376 326.992 451.24C327.243 451.105 327.336 450.792 327.2 450.542C327.065 450.292 326.752 450.199 326.502 450.335Z" fill="white"/>
<path opacity="0.3" d="M438.937 384.181C438.436 384.452 438.25 385.077 438.521 385.578C438.792 386.079 439.418 386.265 439.919 385.994C440.419 385.723 440.605 385.097 440.334 384.596C440.063 384.096 439.438 383.909 438.937 384.181Z" fill="white"/>
<path opacity="0.11" d="M419.561 412.251C419.06 412.522 418.874 413.148 419.145 413.648C419.416 414.149 420.042 414.335 420.543 414.064C421.043 413.793 421.229 413.167 420.958 412.667C420.687 412.166 420.062 411.98 419.561 412.251Z" fill="white"/>
<path d="M428.373 427.989C427.998 428.192 427.858 428.661 428.061 429.036C428.265 429.412 428.734 429.551 429.109 429.348C429.485 429.145 429.624 428.676 429.421 428.3C429.218 427.925 428.749 427.785 428.373 427.989Z" fill="white"/>
<path d="M433.875 363.48C433.5 363.683 433.36 364.153 433.563 364.528C433.767 364.903 434.236 365.043 434.611 364.84C434.987 364.636 435.126 364.167 434.923 363.792C434.72 363.416 434.251 363.277 433.875 363.48Z" fill="white"/>
<path d="M278.528 435.873C278.153 436.076 278.013 436.545 278.217 436.921C278.42 437.296 278.889 437.436 279.265 437.232C279.64 437.029 279.78 436.56 279.576 436.184C279.373 435.809 278.904 435.67 278.528 435.873Z" fill="white"/>
<path d="M445.214 407.148C444.839 407.351 444.699 407.82 444.902 408.196C445.106 408.571 445.575 408.711 445.95 408.507C446.326 408.304 446.465 407.835 446.262 407.459C446.059 407.084 445.589 406.944 445.214 407.148Z" fill="white"/>
<path d="M505.906 330.926C505.531 331.13 505.391 331.599 505.595 331.974C505.798 332.35 506.267 332.489 506.642 332.286C507.018 332.083 507.157 331.614 506.954 331.238C506.751 330.863 506.282 330.723 505.906 330.926Z" fill="white"/>
<path d="M381.164 373.269C380.789 373.472 380.649 373.941 380.852 374.317C381.056 374.692 381.525 374.832 381.9 374.628C382.276 374.425 382.415 373.956 382.212 373.58C382.009 373.205 381.54 373.065 381.164 373.269Z" fill="white"/>
<path d="M277.769 469.1C277.393 469.304 277.254 469.773 277.457 470.148C277.66 470.524 278.129 470.663 278.505 470.46C278.88 470.257 279.02 469.787 278.817 469.412C278.613 469.037 278.144 468.897 277.769 469.1Z" fill="white"/>
<path d="M280.386 499.91C280.01 500.113 279.871 500.582 280.074 500.958C280.277 501.333 280.747 501.473 281.122 501.269C281.497 501.066 281.637 500.597 281.434 500.222C281.23 499.846 280.761 499.707 280.386 499.91Z" fill="white"/>
<path opacity="0.3" d="M390.741 447.778C390.24 448.049 390.054 448.675 390.325 449.175C390.596 449.676 391.222 449.862 391.722 449.591C392.223 449.32 392.409 448.694 392.138 448.193C391.867 447.693 391.241 447.507 390.741 447.778Z" fill="white"/>
<path d="M408.165 479.95C407.665 480.221 407.478 480.847 407.75 481.347C408.021 481.848 408.646 482.034 409.147 481.763C409.648 481.492 409.834 480.866 409.563 480.366C409.292 479.865 408.666 479.679 408.165 479.95Z" fill="white"/>
<path d="M362.007 450.443C361.632 450.646 361.492 451.115 361.695 451.491C361.899 451.866 362.368 452.006 362.743 451.803C363.118 451.599 363.258 451.13 363.055 450.755C362.852 450.379 362.382 450.24 362.007 450.443Z" fill="white"/>
<path opacity="0.3" d="M349.597 480.016C349.096 480.287 348.91 480.913 349.181 481.414C349.452 481.914 350.078 482.101 350.579 481.83C351.079 481.558 351.266 480.933 350.994 480.432C350.723 479.931 350.098 479.745 349.597 480.016Z" fill="white"/>
<path opacity="0.3" d="M287.318 472.132C286.817 472.403 286.631 473.029 286.902 473.529C287.173 474.03 287.799 474.216 288.299 473.945C288.8 473.674 288.986 473.048 288.715 472.548C288.444 472.047 287.818 471.861 287.318 472.132Z" fill="white"/>
<path opacity="0.3" d="M339.845 442.52C339.344 442.792 339.158 443.417 339.429 443.918C339.7 444.419 340.326 444.605 340.827 444.334C341.327 444.063 341.514 443.437 341.243 442.936C340.971 442.435 340.346 442.249 339.845 442.52Z" fill="white"/>
<path opacity="0.11" d="M313.257 475.667C312.756 475.939 312.57 476.564 312.841 477.065C313.112 477.566 313.738 477.752 314.239 477.481C314.74 477.21 314.926 476.584 314.655 476.083C314.384 475.582 313.758 475.396 313.257 475.667Z" fill="white"/>
<path opacity="0.11" d="M208.241 439.543C207.741 439.814 207.555 440.439 207.826 440.94C208.097 441.441 208.723 441.627 209.223 441.356C209.724 441.085 209.91 440.459 209.639 439.958C209.368 439.458 208.742 439.272 208.241 439.543Z" fill="white"/>
<path d="M202.601 436.152C202.225 436.355 202.086 436.824 202.289 437.2C202.492 437.575 202.961 437.715 203.337 437.512C203.712 437.308 203.852 436.839 203.649 436.464C203.445 436.088 202.976 435.949 202.601 436.152Z" fill="white"/>
<path d="M192.797 453.763C192.422 453.966 192.282 454.436 192.485 454.811C192.689 455.186 193.158 455.326 193.533 455.123C193.909 454.919 194.048 454.45 193.845 454.075C193.642 453.699 193.172 453.56 192.797 453.763Z" fill="white"/>
<path d="M231.807 433.818C231.431 434.021 231.292 434.49 231.495 434.866C231.698 435.241 232.167 435.381 232.543 435.177C232.918 434.974 233.058 434.505 232.855 434.13C232.651 433.754 232.182 433.615 231.807 433.818Z" fill="white"/>
<path opacity="0.11" d="M248.35 410.797C247.849 411.068 247.663 411.693 247.934 412.194C248.205 412.695 248.831 412.881 249.332 412.61C249.832 412.339 250.019 411.713 249.747 411.212C249.476 410.712 248.851 410.525 248.35 410.797Z" fill="white"/>
<path d="M262.355 416.103C262.105 416.239 262.012 416.551 262.148 416.801C262.283 417.052 262.596 417.145 262.846 417.009C263.096 416.874 263.189 416.561 263.054 416.311C262.918 416.061 262.606 415.968 262.355 416.103Z" fill="white"/>
<path d="M200.037 421.134C199.787 421.27 199.694 421.582 199.829 421.832C199.965 422.083 200.277 422.176 200.528 422.04C200.778 421.905 200.871 421.592 200.735 421.342C200.6 421.092 200.287 420.999 200.037 421.134Z" fill="white"/>
<path d="M101.248 474.619C100.998 474.754 100.905 475.067 101.04 475.317C101.176 475.567 101.488 475.66 101.738 475.525C101.989 475.389 102.082 475.077 101.946 474.826C101.811 474.576 101.498 474.483 101.248 474.619Z" fill="white"/>
<path d="M65.1094 525.834C64.8592 525.969 64.7662 526.282 64.9016 526.532C65.0371 526.782 65.3497 526.875 65.5998 526.739C65.85 526.604 65.9429 526.291 65.8075 526.041C65.6721 525.791 65.3595 525.698 65.1094 525.834Z" fill="white"/>
<path d="M29.5224 502.323C29.2722 502.458 29.1793 502.771 29.3147 503.021C29.4502 503.271 29.7627 503.364 30.0129 503.228C30.263 503.093 30.356 502.78 30.2206 502.53C30.0851 502.28 29.7725 502.187 29.5224 502.323Z" fill="white"/>
<path d="M357.068 350.761C356.818 350.897 356.725 351.21 356.861 351.46C356.996 351.71 357.309 351.803 357.559 351.667C357.809 351.532 357.902 351.219 357.766 350.969C357.631 350.719 357.318 350.626 357.068 350.761Z" fill="white"/>
<path opacity="0.11" d="M377.11 371.55C376.86 371.686 376.767 371.998 376.903 372.248C377.038 372.499 377.351 372.592 377.601 372.456C377.851 372.321 377.944 372.008 377.808 371.758C377.673 371.508 377.36 371.415 377.11 371.55Z" fill="white"/>
<path opacity="0.11" d="M390.949 350.578C390.699 350.714 390.606 351.026 390.741 351.277C390.877 351.527 391.19 351.62 391.44 351.484C391.69 351.349 391.783 351.036 391.647 350.786C391.512 350.536 391.199 350.443 390.949 350.578Z" fill="white"/>
<path opacity="0.11" d="M361.276 331.486C361.026 331.622 360.933 331.934 361.069 332.185C361.204 332.435 361.517 332.528 361.767 332.392C362.017 332.257 362.11 331.944 361.974 331.694C361.839 331.444 361.526 331.351 361.276 331.486Z" fill="white"/>
<path opacity="0.11" d="M263.248 408.006C262.998 408.141 262.905 408.454 263.04 408.704C263.176 408.954 263.488 409.047 263.738 408.912C263.989 408.776 264.082 408.464 263.946 408.214C263.811 407.963 263.498 407.87 263.248 408.006Z" fill="white"/>
<path opacity="0.11" d="M192.112 404.33C191.862 404.465 191.769 404.778 191.905 405.028C192.04 405.278 192.353 405.371 192.603 405.235C192.853 405.1 192.946 404.787 192.81 404.537C192.675 404.287 192.362 404.194 192.112 404.33Z" fill="white"/>
<path opacity="0.11" d="M107.561 455.969C107.31 456.104 107.217 456.417 107.353 456.667C107.488 456.917 107.801 457.01 108.051 456.874C108.301 456.739 108.394 456.426 108.259 456.176C108.123 455.926 107.811 455.833 107.561 455.969Z" fill="white"/>
<path opacity="0.3" d="M342.353 373.376C342.103 373.511 342.01 373.824 342.146 374.074C342.281 374.324 342.594 374.417 342.844 374.282C343.094 374.146 343.187 373.834 343.052 373.584C342.916 373.334 342.604 373.241 342.353 373.376Z" fill="white"/>
<path d="M251.384 454.276C251.134 454.411 251.041 454.724 251.176 454.974C251.311 455.224 251.624 455.317 251.874 455.182C252.124 455.046 252.217 454.734 252.082 454.483C251.946 454.233 251.634 454.14 251.384 454.276Z" fill="white"/>
<path d="M182.09 492.965C181.84 493.1 181.747 493.413 181.882 493.663C182.018 493.913 182.33 494.006 182.58 493.871C182.83 493.735 182.923 493.423 182.788 493.173C182.653 492.922 182.34 492.829 182.09 492.965Z" fill="white"/>
<path d="M259.625 395.901C259.375 396.037 259.282 396.349 259.417 396.6C259.553 396.85 259.865 396.943 260.115 396.807C260.366 396.672 260.459 396.359 260.323 396.109C260.188 395.859 259.875 395.766 259.625 395.901Z" fill="white"/>
<path opacity="0.3" d="M291.344 378.727C291.094 378.863 291.001 379.175 291.136 379.425C291.271 379.676 291.584 379.769 291.834 379.633C292.084 379.498 292.177 379.185 292.042 378.935C291.906 378.685 291.594 378.592 291.344 378.727Z" fill="white"/>
<path opacity="0.11" d="M343.707 386.706C343.457 386.841 343.364 387.154 343.499 387.404C343.635 387.654 343.947 387.747 344.197 387.611C344.448 387.476 344.541 387.163 344.405 386.913C344.27 386.663 343.957 386.57 343.707 386.706Z" fill="white"/>
<path opacity="0.3" d="M237.332 447.817C237.082 447.953 236.989 448.265 237.124 448.515C237.26 448.765 237.572 448.858 237.822 448.723C238.073 448.588 238.166 448.275 238.03 448.025C237.895 447.775 237.582 447.682 237.332 447.817Z" fill="white"/>
<path opacity="0.3" d="M247.254 391.464C247.004 391.6 246.911 391.912 247.046 392.162C247.182 392.412 247.494 392.505 247.744 392.37C247.995 392.235 248.087 391.922 247.952 391.672C247.817 391.422 247.504 391.329 247.254 391.464Z" fill="white"/>
<path opacity="0.3" d="M299.634 357.246C299.384 357.381 299.291 357.694 299.426 357.944C299.561 358.194 299.874 358.287 300.124 358.152C300.374 358.016 300.467 357.704 300.332 357.454C300.196 357.203 299.884 357.11 299.634 357.246Z" fill="white"/>
<path opacity="0.3" d="M329.212 380.49C328.962 380.625 328.869 380.938 329.004 381.188C329.14 381.438 329.452 381.531 329.702 381.395C329.952 381.26 330.045 380.947 329.91 380.697C329.775 380.447 329.462 380.354 329.212 380.49Z" fill="white"/>
<path opacity="0.3" d="M48.0976 534.456C47.8474 534.592 47.7545 534.904 47.8899 535.154C48.0254 535.404 48.3379 535.497 48.5881 535.362C48.8382 535.227 48.9312 534.914 48.7958 534.664C48.6603 534.414 48.3477 534.321 48.0976 534.456Z" fill="white"/>
<path opacity="0.11" d="M131.113 513.535C130.863 513.67 130.77 513.983 130.906 514.233C131.041 514.483 131.354 514.576 131.604 514.441C131.854 514.305 131.947 513.993 131.811 513.742C131.676 513.492 131.363 513.399 131.113 513.535Z" fill="white"/>
<path opacity="0.11" d="M49.7822 508.35C49.5321 508.485 49.4391 508.798 49.5745 509.048C49.71 509.298 50.0225 509.391 50.2727 509.255C50.5228 509.12 50.6158 508.807 50.4803 508.557C50.3449 508.307 50.0323 508.214 49.7822 508.35Z" fill="white"/>
<path opacity="0.3" d="M162.219 442.194C161.718 442.465 161.532 443.091 161.803 443.592C162.074 444.092 162.7 444.279 163.201 444.008C163.701 443.736 163.888 443.111 163.617 442.61C163.345 442.109 162.72 441.923 162.219 442.194Z" fill="white"/>
<path opacity="0.11" d="M142.841 470.265C142.34 470.536 142.154 471.162 142.425 471.663C142.696 472.163 143.322 472.349 143.823 472.078C144.324 471.807 144.51 471.181 144.239 470.681C143.967 470.18 143.342 469.994 142.841 470.265Z" fill="white"/>
<path d="M151.653 486.001C151.278 486.204 151.138 486.673 151.342 487.049C151.545 487.424 152.014 487.564 152.39 487.36C152.765 487.157 152.905 486.688 152.701 486.313C152.498 485.937 152.029 485.798 151.653 486.001Z" fill="white"/>
<path d="M157.156 421.493C156.781 421.697 156.641 422.166 156.845 422.541C157.048 422.917 157.517 423.056 157.893 422.853C158.268 422.65 158.407 422.181 158.204 421.805C158.001 421.43 157.532 421.29 157.156 421.493Z" fill="white"/>
<path d="M1.80969 493.886C1.43426 494.089 1.29472 494.559 1.49799 494.934C1.70127 495.309 2.17039 495.449 2.54582 495.246C2.92125 495.042 3.0608 494.573 2.85752 494.198C2.65424 493.822 2.18512 493.683 1.80969 493.886Z" fill="white"/>
<path d="M300.072 342.358C299.697 342.562 299.557 343.031 299.761 343.406C299.964 343.782 300.433 343.921 300.809 343.718C301.184 343.515 301.324 343.046 301.12 342.67C300.917 342.295 300.448 342.155 300.072 342.358Z" fill="white"/>
<path d="M365.977 320.15C365.601 320.354 365.462 320.823 365.665 321.198C365.868 321.574 366.337 321.713 366.713 321.51C367.088 321.307 367.228 320.838 367.025 320.462C366.821 320.087 366.352 319.947 365.977 320.15Z" fill="white"/>
<path d="M383.496 334.104C383.121 334.308 382.981 334.777 383.184 335.152C383.388 335.528 383.857 335.667 384.232 335.464C384.608 335.26 384.747 334.791 384.544 334.416C384.341 334.041 383.872 333.901 383.496 334.104Z" fill="white"/>
<path d="M168.495 465.162C168.12 465.366 167.98 465.835 168.184 466.21C168.387 466.586 168.856 466.725 169.231 466.522C169.607 466.319 169.746 465.849 169.543 465.474C169.34 465.099 168.871 464.959 168.495 465.162Z" fill="white"/>
<path d="M229.188 388.94C228.812 389.143 228.673 389.612 228.876 389.988C229.079 390.363 229.548 390.503 229.924 390.299C230.299 390.096 230.439 389.627 230.235 389.252C230.032 388.876 229.563 388.737 229.188 388.94Z" fill="white"/>
<path d="M104.444 431.282C104.069 431.485 103.929 431.954 104.133 432.33C104.336 432.705 104.805 432.845 105.181 432.641C105.556 432.438 105.696 431.969 105.492 431.594C105.289 431.218 104.82 431.079 104.444 431.282Z" fill="white"/>
<path d="M1.04993 527.114C0.674497 527.317 0.534952 527.786 0.738229 528.162C0.941505 528.537 1.41063 528.677 1.78606 528.474C2.16149 528.27 2.30103 527.801 2.09775 527.426C1.89448 527.05 1.42536 526.911 1.04993 527.114Z" fill="white"/>
<path d="M3.66712 557.924C3.29168 558.127 3.15214 558.596 3.35542 558.972C3.55869 559.347 4.02781 559.487 4.40325 559.284C4.77868 559.08 4.91822 558.611 4.71494 558.236C4.51167 557.86 4.04255 557.721 3.66712 557.924Z" fill="white"/>
<path opacity="0.3" d="M114.03 505.792C113.529 506.063 113.343 506.689 113.614 507.189C113.885 507.69 114.511 507.876 115.011 507.605C115.512 507.334 115.698 506.708 115.427 506.208C115.156 505.707 114.53 505.521 114.03 505.792Z" fill="white"/>
<path d="M131.447 537.963C130.946 538.234 130.76 538.859 131.031 539.36C131.302 539.861 131.928 540.047 132.428 539.776C132.929 539.505 133.115 538.879 132.844 538.378C132.573 537.878 131.947 537.691 131.447 537.963Z" fill="white"/>
<path d="M85.2892 508.457C84.9138 508.661 84.7742 509.13 84.9775 509.505C85.1808 509.881 85.6499 510.02 86.0253 509.817C86.4007 509.614 86.5403 509.144 86.337 508.769C86.1337 508.394 85.6646 508.254 85.2892 508.457Z" fill="white"/>
<path opacity="0.3" d="M72.8792 538.029C72.3785 538.3 72.1923 538.926 72.4635 539.426C72.7346 539.927 73.3602 540.113 73.861 539.842C74.3617 539.571 74.5478 538.945 74.2767 538.444C74.0056 537.944 73.3799 537.758 72.8792 538.029Z" fill="white"/>
<path opacity="0.3" d="M10.597 530.146C10.0962 530.417 9.91011 531.043 10.1812 531.543C10.4523 532.044 11.078 532.23 11.5787 531.959C12.0795 531.688 12.2656 531.062 11.9945 530.562C11.7233 530.061 11.0977 529.875 10.597 530.146Z" fill="white"/>
<path opacity="0.3" d="M63.1262 500.535C62.6255 500.806 62.4394 501.431 62.7105 501.932C62.9816 502.433 63.6073 502.619 64.108 502.348C64.6087 502.077 64.7949 501.451 64.5238 500.95C64.2526 500.45 63.627 500.263 63.1262 500.535Z" fill="white"/>
<path opacity="0.3" d="M319.059 352.002C318.558 352.273 318.372 352.898 318.643 353.399C318.914 353.9 319.54 354.086 320.041 353.815C320.541 353.544 320.727 352.918 320.456 352.417C320.185 351.917 319.56 351.731 319.059 352.002Z" fill="white"/>
<path opacity="0.3" d="M369.262 357.048C368.761 357.319 368.575 357.945 368.846 358.446C369.117 358.946 369.743 359.133 370.244 358.862C370.744 358.59 370.931 357.965 370.66 357.464C370.388 356.963 369.763 356.777 369.262 357.048Z" fill="white"/>
<path opacity="0.11" d="M36.5384 533.681C36.0376 533.952 35.8515 534.577 36.1226 535.078C36.3937 535.579 37.0194 535.765 37.5201 535.494C38.0209 535.223 38.207 534.597 37.9359 534.096C37.6648 533.596 37.0391 533.409 36.5384 533.681Z" fill="white"/>
<path opacity="0.3" d="M312.803 407.54C312.302 407.811 312.116 408.437 312.387 408.938C312.658 409.438 313.284 409.625 313.785 409.353C314.285 409.082 314.472 408.457 314.201 407.956C313.929 407.455 313.304 407.269 312.803 407.54Z" fill="white"/>
<path opacity="0.11" d="M329.946 409.978C329.445 410.25 329.259 410.875 329.53 411.376C329.801 411.877 330.427 412.063 330.927 411.792C331.428 411.521 331.614 410.895 331.343 410.394C331.072 409.893 330.446 409.707 329.946 409.978Z" fill="white"/>
<path opacity="0.3" d="M317.865 379.016C317.365 379.287 317.179 379.913 317.45 380.413C317.721 380.914 318.347 381.1 318.847 380.829C319.348 380.558 319.534 379.932 319.263 379.432C318.992 378.931 318.366 378.745 317.865 379.016Z" fill="white"/>
<path d="M289.794 394.803C289.419 395.006 289.279 395.475 289.482 395.851C289.686 396.226 290.155 396.366 290.53 396.163C290.906 395.959 291.045 395.49 290.842 395.115C290.639 394.739 290.169 394.6 289.794 394.803Z" fill="white"/>
</svg>
