<svg width="662" height="539" viewBox="0 0 662 539" fill="none" xmlns="http://www.w3.org/2000/svg">
<path opacity="0.3" d="M594 144V28" stroke="url(#paint0_linear_2024_43075)"/>
<path opacity="0.3" d="M532 81H658" stroke="url(#paint1_linear_2024_43075)"/>
<path opacity="0.3" d="M100 79H395" stroke="url(#paint2_linear_2024_43075)"/>
<path opacity="0.3" d="M199 -1.28746e-05L199 273" stroke="url(#paint3_linear_2024_43075)"/>
<path opacity="0.3" d="M265 472H530" stroke="url(#paint4_linear_2024_43075)"/>
<rect x="274" y="157" width="244" height="242" rx="20" fill="url(#paint5_linear_2024_43075)"/>
<rect opacity="0.3" x="264.5" y="147.5" width="264" height="262" rx="19.5" stroke="white"/>
<rect opacity="0.4" x="397.5" y="16.5" width="131" height="130" rx="19.5" stroke="white"/>
<rect opacity="0.4" x="529.5" y="146.5" width="131" height="130" rx="19.5" stroke="white"/>
<rect opacity="0.4" x="530.5" y="408.5" width="131" height="130" rx="19.5" stroke="white"/>
<rect opacity="0.4" x="132.5" y="408.5" width="131" height="130" rx="19.5" stroke="white"/>
<rect opacity="0.4" x="132.5" y="278.5" width="131" height="130" rx="19.5" stroke="white"/>
<rect opacity="0.3" x="0.5" y="408.5" width="131" height="130" rx="19.5" stroke="white"/>
<path opacity="0.3" d="M390 410V538" stroke="url(#paint6_linear_2024_43075)"/>
<path opacity="0.7" d="M287 234.894V182C287 176.477 291.477 172 297 172H495C500.523 172 505 176.477 505 182V234.295C505 237.381 503.575 240.295 501.138 242.19L496.72 245.624C494.284 247.518 492.858 250.432 492.858 253.518V294.818C492.858 297.905 494.284 300.819 496.72 302.713L501.138 306.147C503.575 308.042 505 310.956 505 314.042V373C505 378.523 500.523 383 495 383H297C291.477 383 287 378.523 287 373V313.442C287 310.702 288.125 308.081 290.112 306.193L293.822 302.667C295.809 300.779 296.934 298.159 296.934 295.418V252.919C296.934 250.178 295.809 247.557 293.822 245.67L290.112 242.144C288.125 240.256 287 237.635 287 234.894Z" stroke="white"/>
<path d="M187.856 80.1815C195.9 79.5879 197.594 73.2655 197.436 70.1786C198.67 77.4135 203.61 79.5004 206.736 79.7317C207.095 79.7169 207.468 79.7175 207.855 79.7348C207.521 79.7605 207.144 79.7619 206.736 79.7317C199.443 80.033 197.777 86.7141 197.883 90.1777C197.091 81.8468 190.868 80.0424 187.856 80.1815Z" fill="url(#paint7_radial_2024_43075)"/>
<path d="M380.117 472.545C388.161 471.951 389.856 465.629 389.698 462.542C390.932 469.777 395.872 471.864 398.997 472.095C399.357 472.08 399.73 472.081 400.117 472.098C399.783 472.124 399.406 472.125 398.997 472.095C391.705 472.396 390.039 479.077 390.145 482.541C389.353 474.21 383.13 472.406 380.117 472.545Z" fill="url(#paint8_radial_2024_43075)"/>
<path d="M349.844 317H341.465L373.281 229.695H381.777L413.535 317H405.215L377.793 240.066H377.207L349.844 317ZM355.879 283.543H399.18V290.691H355.879V283.543ZM431.437 229.695V317H423.468V229.695H431.437Z" fill="white"/>
<defs>
<linearGradient id="paint0_linear_2024_43075" x1="593.082" y1="138.378" x2="601.71" y2="28.4704" gradientUnits="userSpaceOnUse">
<stop stop-color="white"/>
<stop offset="1" stop-color="white" stop-opacity="0"/>
</linearGradient>
<linearGradient id="paint1_linear_2024_43075" x1="533.424" y1="81" x2="647.797" y2="80.9999" gradientUnits="userSpaceOnUse">
<stop stop-color="white"/>
<stop offset="1" stop-color="white" stop-opacity="0"/>
</linearGradient>
<linearGradient id="paint2_linear_2024_43075" x1="391.667" y1="79" x2="123.889" y2="78.9993" gradientUnits="userSpaceOnUse">
<stop stop-color="white"/>
<stop offset="1" stop-color="white" stop-opacity="0"/>
</linearGradient>
<linearGradient id="paint3_linear_2024_43075" x1="198.5" y1="273" x2="198.5" y2="2.18557e-08" gradientUnits="userSpaceOnUse">
<stop stop-color="white"/>
<stop offset="1" stop-color="white" stop-opacity="0"/>
</linearGradient>
<linearGradient id="paint4_linear_2024_43075" x1="397.5" y1="472" x2="397.5" y2="473" gradientUnits="userSpaceOnUse">
<stop stop-color="white"/>
<stop offset="1" stop-color="white" stop-opacity="0"/>
</linearGradient>
<linearGradient id="paint5_linear_2024_43075" x1="358.012" y1="190.329" x2="550.602" y2="262.987" gradientUnits="userSpaceOnUse">
<stop stop-color="#732CFF"/>
<stop offset="1" stop-color="#F46D6B"/>
</linearGradient>
<linearGradient id="paint6_linear_2024_43075" x1="390.5" y1="410" x2="390.5" y2="538" gradientUnits="userSpaceOnUse">
<stop stop-color="white"/>
<stop offset="1" stop-color="white" stop-opacity="0"/>
</linearGradient>
<radialGradient id="paint7_radial_2024_43075" cx="0" cy="0" r="1" gradientUnits="userSpaceOnUse" gradientTransform="translate(197.86 80.1737) rotate(88.7204) scale(10.0021)">
<stop stop-color="#8541FF"/>
<stop offset="1" stop-color="#5110D0"/>
</radialGradient>
<radialGradient id="paint8_radial_2024_43075" cx="0" cy="0" r="1" gradientUnits="userSpaceOnUse" gradientTransform="translate(390.122 472.537) rotate(88.7204) scale(10.0021)">
<stop stop-color="#8541FF"/>
<stop offset="1" stop-color="#5110D0"/>
</radialGradient>
</defs>
</svg>
