<svg width="530" height="307" viewBox="0 0 530 307" fill="none" xmlns="http://www.w3.org/2000/svg">
<rect x="0.25" y="0.25" width="529.5" height="306.5" rx="19.75" fill="#1E1F40" stroke="#787996" stroke-width="0.5"/>
<line x1="303" y1="169.5" x2="499" y2="169.5" stroke="#606283"/>
<path d="M58.4121 263H56.0781L61.3125 248.449H63.8516L69.0762 263H66.752L62.6309 251.096H62.5137L58.4121 263ZM58.8027 257.307H66.3516V259.143H58.8027V257.307ZM72.6537 248.449V263H70.4564V248.449H72.6537ZM79.5841 267.082V252.082H81.6348V253.859H81.8106C81.9408 253.632 82.1199 253.368 82.3477 253.068C82.5821 252.769 82.9076 252.508 83.3243 252.287C83.741 252.059 84.2846 251.945 84.9552 251.945C85.8341 251.945 86.6153 252.167 87.2989 252.609C87.989 253.052 88.5326 253.693 88.9298 254.533C89.3269 255.373 89.5255 256.385 89.5255 257.57C89.5255 258.742 89.3302 259.751 88.9395 260.598C88.5489 261.438 88.0085 262.085 87.3184 262.541C86.6348 262.99 85.8503 263.215 84.9649 263.215C84.3074 263.215 83.767 263.104 83.3438 262.883C82.9272 262.655 82.5984 262.391 82.3575 262.092C82.1231 261.792 81.9408 261.529 81.8106 261.301H81.6934V267.082H79.5841ZM84.5059 261.408C85.1374 261.408 85.6648 261.239 86.088 260.9C86.5111 260.562 86.8302 260.103 87.045 259.523C87.2664 258.938 87.377 258.28 87.377 257.551C87.377 256.828 87.2696 256.18 87.0548 255.607C86.8399 255.035 86.5209 254.582 86.0977 254.25C85.6746 253.918 85.144 253.752 84.5059 253.752C83.8874 253.752 83.3666 253.911 82.9434 254.23C82.5203 254.543 82.198 254.986 81.9766 255.559C81.7618 256.125 81.6544 256.789 81.6544 257.551C81.6544 258.312 81.7651 258.983 81.9864 259.562C82.2078 260.142 82.53 260.594 82.9532 260.92C83.3829 261.245 83.9005 261.408 84.5059 261.408ZM91.2084 263V252.082H93.2495V253.83H93.3666C93.5685 253.244 93.92 252.782 94.4213 252.443C94.9291 252.098 95.5021 251.926 96.1401 251.926C96.2703 251.926 96.4233 251.932 96.5991 251.945C96.7814 251.952 96.9278 251.962 97.0385 251.975V254.006C96.9539 253.98 96.8009 253.954 96.5795 253.928C96.3647 253.902 96.1466 253.889 95.9252 253.889C95.4239 253.889 94.9747 253.996 94.5776 254.211C94.187 254.419 93.8777 254.709 93.6498 255.08C93.4285 255.445 93.3178 255.868 93.3178 256.35V263H91.2084ZM102.393 263.225C101.371 263.225 100.476 262.99 99.7078 262.521C98.9461 262.053 98.3536 261.395 97.9305 260.549C97.5138 259.702 97.3055 258.719 97.3055 257.6C97.3055 256.467 97.5138 255.477 97.9305 254.631C98.3536 253.778 98.9461 253.117 99.7078 252.648C100.476 252.18 101.371 251.945 102.393 251.945C103.422 251.945 104.317 252.18 105.079 252.648C105.841 253.117 106.433 253.778 106.856 254.631C107.279 255.477 107.491 256.467 107.491 257.6C107.491 258.719 107.279 259.702 106.856 260.549C106.433 261.395 105.841 262.053 105.079 262.521C104.317 262.99 103.422 263.225 102.393 263.225ZM102.393 261.438C103.064 261.438 103.617 261.262 104.054 260.91C104.49 260.559 104.812 260.093 105.02 259.514C105.235 258.928 105.343 258.29 105.343 257.6C105.343 256.896 105.235 256.252 105.02 255.666C104.812 255.08 104.49 254.611 104.054 254.26C103.617 253.908 103.064 253.732 102.393 253.732C101.729 253.732 101.179 253.908 100.743 254.26C100.313 254.611 99.991 255.08 99.7762 255.666C99.5613 256.252 99.4539 256.896 99.4539 257.6C99.4539 258.29 99.5613 258.928 99.7762 259.514C99.991 260.093 100.313 260.559 100.743 260.91C101.179 261.262 101.729 261.438 102.393 261.438ZM113.744 263.225C112.696 263.225 111.791 262.984 111.029 262.502C110.268 262.02 109.682 261.356 109.272 260.51C108.861 259.663 108.656 258.693 108.656 257.6C108.656 256.486 108.865 255.507 109.281 254.66C109.705 253.807 110.294 253.143 111.049 252.668C111.811 252.186 112.703 251.945 113.725 251.945C114.558 251.945 115.297 252.098 115.942 252.404C116.593 252.704 117.117 253.13 117.514 253.684C117.917 254.237 118.155 254.882 118.227 255.617H116.156C116.085 255.272 115.945 254.956 115.736 254.67C115.535 254.383 115.268 254.156 114.936 253.986C114.604 253.817 114.21 253.732 113.754 253.732C113.162 253.732 112.644 253.889 112.201 254.201C111.765 254.507 111.423 254.947 111.176 255.52C110.929 256.092 110.805 256.77 110.805 257.551C110.805 258.339 110.925 259.025 111.166 259.611C111.407 260.197 111.749 260.65 112.192 260.969C112.641 261.281 113.162 261.438 113.754 261.438C114.366 261.438 114.887 261.268 115.317 260.93C115.753 260.591 116.033 260.129 116.156 259.543H118.227C118.155 260.253 117.927 260.884 117.543 261.438C117.159 261.991 116.645 262.427 116 262.746C115.356 263.065 114.604 263.225 113.744 263.225ZM124.568 263.225C123.5 263.225 122.576 262.993 121.794 262.531C121.013 262.069 120.411 261.418 119.988 260.578C119.571 259.732 119.363 258.745 119.363 257.619C119.363 256.499 119.568 255.513 119.978 254.66C120.395 253.807 120.977 253.143 121.726 252.668C122.481 252.186 123.367 251.945 124.382 251.945C125.001 251.945 125.6 252.046 126.179 252.248C126.759 252.45 127.279 252.769 127.742 253.205C128.204 253.641 128.569 254.208 128.835 254.904C129.109 255.601 129.246 256.441 129.246 257.424V258.186H120.564V256.594H128.152L127.166 257.121C127.166 256.451 127.061 255.858 126.853 255.344C126.645 254.829 126.332 254.429 125.916 254.143C125.505 253.85 124.994 253.703 124.382 253.703C123.77 253.703 123.246 253.85 122.81 254.143C122.38 254.436 122.052 254.823 121.824 255.305C121.596 255.786 121.482 256.314 121.482 256.887V257.971C121.482 258.719 121.612 259.354 121.873 259.875C122.133 260.396 122.494 260.793 122.957 261.066C123.425 261.34 123.969 261.477 124.587 261.477C124.991 261.477 125.356 261.418 125.681 261.301C126.013 261.184 126.3 261.008 126.541 260.773C126.781 260.539 126.964 260.249 127.087 259.904L129.099 260.285C128.936 260.871 128.65 261.385 128.24 261.828C127.83 262.271 127.312 262.616 126.687 262.863C126.069 263.104 125.362 263.225 124.568 263.225ZM139.034 254.758L137.11 255.09C136.987 254.725 136.755 254.39 136.417 254.084C136.085 253.778 135.587 253.625 134.923 253.625C134.324 253.625 133.822 253.762 133.419 254.035C133.022 254.302 132.823 254.644 132.823 255.061C132.823 255.425 132.957 255.721 133.224 255.949C133.497 256.177 133.93 256.359 134.522 256.496L136.27 256.887C137.266 257.115 138.012 257.473 138.507 257.961C139.002 258.449 139.249 259.074 139.249 259.836C139.249 260.493 139.06 261.079 138.683 261.594C138.305 262.102 137.781 262.502 137.11 262.795C136.44 263.081 135.665 263.225 134.786 263.225C133.562 263.225 132.566 262.961 131.798 262.434C131.03 261.906 130.558 261.164 130.382 260.207L132.423 259.895C132.553 260.428 132.817 260.832 133.214 261.105C133.617 261.379 134.138 261.516 134.776 261.516C135.466 261.516 136.02 261.369 136.436 261.076C136.86 260.783 137.071 260.428 137.071 260.012C137.071 259.322 136.557 258.856 135.528 258.615L133.683 258.205C132.66 257.971 131.905 257.603 131.417 257.102C130.935 256.594 130.694 255.956 130.694 255.188C130.694 254.543 130.873 253.977 131.231 253.488C131.596 253 132.094 252.622 132.725 252.355C133.363 252.082 134.089 251.945 134.903 251.945C136.088 251.945 137.016 252.202 137.686 252.717C138.363 253.231 138.813 253.911 139.034 254.758ZM149.037 254.758L147.114 255.09C146.99 254.725 146.759 254.39 146.42 254.084C146.088 253.778 145.59 253.625 144.926 253.625C144.327 253.625 143.826 253.762 143.422 254.035C143.025 254.302 142.826 254.644 142.826 255.061C142.826 255.425 142.96 255.721 143.227 255.949C143.5 256.177 143.933 256.359 144.526 256.496L146.274 256.887C147.27 257.115 148.015 257.473 148.51 257.961C149.005 258.449 149.252 259.074 149.252 259.836C149.252 260.493 149.063 261.079 148.686 261.594C148.308 262.102 147.784 262.502 147.114 262.795C146.443 263.081 145.668 263.225 144.789 263.225C143.565 263.225 142.569 262.961 141.801 262.434C141.033 261.906 140.561 261.164 140.385 260.207L142.426 259.895C142.556 260.428 142.82 260.832 143.217 261.105C143.621 261.379 144.142 261.516 144.78 261.516C145.47 261.516 146.023 261.369 146.44 261.076C146.863 260.783 147.074 260.428 147.074 260.012C147.074 259.322 146.56 258.856 145.531 258.615L143.686 258.205C142.664 257.971 141.908 257.603 141.42 257.102C140.938 256.594 140.698 255.956 140.698 255.188C140.698 254.543 140.877 253.977 141.235 253.488C141.599 253 142.097 252.622 142.729 252.355C143.367 252.082 144.093 251.945 144.906 251.945C146.091 251.945 147.019 252.202 147.69 252.717C148.367 253.231 148.816 253.911 149.037 254.758ZM160.167 263.225C159.099 263.225 158.175 262.993 157.394 262.531C156.612 262.069 156.01 261.418 155.587 260.578C155.17 259.732 154.962 258.745 154.962 257.619C154.962 256.499 155.167 255.513 155.577 254.66C155.994 253.807 156.576 253.143 157.325 252.668C158.08 252.186 158.966 251.945 159.981 251.945C160.6 251.945 161.199 252.046 161.778 252.248C162.358 252.45 162.879 252.769 163.341 253.205C163.803 253.641 164.168 254.208 164.435 254.904C164.708 255.601 164.845 256.441 164.845 257.424V258.186H156.163V256.594H163.751L162.765 257.121C162.765 256.451 162.66 255.858 162.452 255.344C162.244 254.829 161.931 254.429 161.515 254.143C161.104 253.85 160.593 253.703 159.981 253.703C159.369 253.703 158.845 253.85 158.409 254.143C157.979 254.436 157.651 254.823 157.423 255.305C157.195 255.786 157.081 256.314 157.081 256.887V257.971C157.081 258.719 157.211 259.354 157.472 259.875C157.732 260.396 158.093 260.793 158.556 261.066C159.024 261.34 159.568 261.477 160.186 261.477C160.59 261.477 160.955 261.418 161.28 261.301C161.612 261.184 161.899 261.008 162.14 260.773C162.38 260.539 162.563 260.249 162.686 259.904L164.698 260.285C164.535 260.871 164.249 261.385 163.839 261.828C163.429 262.271 162.911 262.616 162.286 262.863C161.668 263.104 160.961 263.225 160.167 263.225ZM171.664 252.082V253.791H165.502V252.082H171.664ZM167.182 263V250.812C167.182 250.135 167.332 249.572 167.631 249.123C167.937 248.667 168.334 248.329 168.823 248.107C169.317 247.88 169.848 247.766 170.414 247.766C170.851 247.766 171.222 247.801 171.528 247.873C171.834 247.945 172.058 248.007 172.201 248.059L171.694 249.777C171.596 249.745 171.469 249.709 171.313 249.67C171.163 249.631 170.974 249.611 170.746 249.611C170.232 249.611 169.861 249.742 169.633 250.002C169.405 250.256 169.291 250.627 169.291 251.115V263H167.182ZM178.347 252.082V253.791H172.185V252.082H178.347ZM173.865 263V250.812C173.865 250.135 174.015 249.572 174.314 249.123C174.62 248.667 175.017 248.329 175.506 248.107C176 247.88 176.531 247.766 177.097 247.766C177.534 247.766 177.905 247.801 178.211 247.873C178.517 247.945 178.741 248.007 178.884 248.059L178.377 249.777C178.279 249.745 178.152 249.709 177.996 249.67C177.846 249.631 177.657 249.611 177.429 249.611C176.915 249.611 176.544 249.742 176.316 250.002C176.088 250.256 175.974 250.627 175.974 251.115V263H173.865ZM179.835 263V252.082H181.944V263H179.835ZM180.899 250.402C180.528 250.402 180.213 250.279 179.952 250.031C179.692 249.784 179.562 249.488 179.562 249.143C179.562 248.791 179.692 248.492 179.952 248.244C180.213 247.997 180.528 247.873 180.899 247.873C181.264 247.873 181.577 247.997 181.837 248.244C182.104 248.492 182.237 248.791 182.237 249.143C182.237 249.488 182.104 249.784 181.837 250.031C181.577 250.279 181.264 250.402 180.899 250.402ZM188.696 263.225C187.648 263.225 186.743 262.984 185.981 262.502C185.219 262.02 184.633 261.356 184.223 260.51C183.813 259.663 183.608 258.693 183.608 257.6C183.608 256.486 183.816 255.507 184.233 254.66C184.656 253.807 185.245 253.143 186 252.668C186.762 252.186 187.654 251.945 188.676 251.945C189.51 251.945 190.248 252.098 190.893 252.404C191.544 252.704 192.068 253.13 192.465 253.684C192.869 254.237 193.107 254.882 193.178 255.617H191.108C191.036 255.272 190.896 254.956 190.688 254.67C190.486 254.383 190.219 254.156 189.887 253.986C189.555 253.817 189.161 253.732 188.705 253.732C188.113 253.732 187.595 253.889 187.153 254.201C186.717 254.507 186.375 254.947 186.127 255.52C185.88 256.092 185.756 256.77 185.756 257.551C185.756 258.339 185.877 259.025 186.118 259.611C186.358 260.197 186.7 260.65 187.143 260.969C187.592 261.281 188.113 261.438 188.705 261.438C189.317 261.438 189.838 261.268 190.268 260.93C190.704 260.591 190.984 260.129 191.108 259.543H193.178C193.107 260.253 192.879 260.884 192.495 261.438C192.11 261.991 191.596 262.427 190.952 262.746C190.307 263.065 189.555 263.225 188.696 263.225ZM194.822 263V252.082H196.931V263H194.822ZM195.886 250.402C195.515 250.402 195.2 250.279 194.939 250.031C194.679 249.784 194.549 249.488 194.549 249.143C194.549 248.791 194.679 248.492 194.939 248.244C195.2 247.997 195.515 247.873 195.886 247.873C196.251 247.873 196.564 247.997 196.824 248.244C197.091 248.492 197.224 248.791 197.224 249.143C197.224 249.488 197.091 249.784 196.824 250.031C196.564 250.279 196.251 250.402 195.886 250.402ZM203.8 263.225C202.732 263.225 201.808 262.993 201.026 262.531C200.245 262.069 199.643 261.418 199.22 260.578C198.803 259.732 198.595 258.745 198.595 257.619C198.595 256.499 198.8 255.513 199.21 254.66C199.627 253.807 200.209 253.143 200.958 252.668C201.713 252.186 202.599 251.945 203.614 251.945C204.233 251.945 204.832 252.046 205.411 252.248C205.991 252.45 206.512 252.769 206.974 253.205C207.436 253.641 207.801 254.208 208.068 254.904C208.341 255.601 208.478 256.441 208.478 257.424V258.186H199.796V256.594H207.384L206.398 257.121C206.398 256.451 206.293 255.858 206.085 255.344C205.877 254.829 205.564 254.429 205.148 254.143C204.737 253.85 204.226 253.703 203.614 253.703C203.002 253.703 202.478 253.85 202.042 254.143C201.612 254.436 201.284 254.823 201.056 255.305C200.828 255.786 200.714 256.314 200.714 256.887V257.971C200.714 258.719 200.844 259.354 201.105 259.875C201.365 260.396 201.726 260.793 202.189 261.066C202.657 261.34 203.201 261.477 203.819 261.477C204.223 261.477 204.588 261.418 204.913 261.301C205.245 261.184 205.532 261.008 205.773 260.773C206.013 260.539 206.196 260.249 206.319 259.904L208.331 260.285C208.168 260.871 207.882 261.385 207.472 261.828C207.062 262.271 206.544 262.616 205.919 262.863C205.301 263.104 204.594 263.225 203.8 263.225ZM212.211 256.525V263H210.102V252.082H212.153V253.879H212.299C212.547 253.286 212.934 252.818 213.461 252.473C213.989 252.121 214.666 251.945 215.493 251.945C216.235 251.945 216.883 252.102 217.436 252.414C217.996 252.72 218.429 253.179 218.735 253.791C219.047 254.403 219.204 255.161 219.204 256.066V263H217.094V256.32C217.094 255.533 216.886 254.914 216.469 254.465C216.053 254.009 215.486 253.781 214.77 253.781C214.282 253.781 213.842 253.892 213.452 254.113C213.068 254.328 212.765 254.637 212.543 255.041C212.322 255.445 212.211 255.939 212.211 256.525ZM225.955 263.225C224.907 263.225 224.002 262.984 223.24 262.502C222.478 262.02 221.892 261.356 221.482 260.51C221.072 259.663 220.867 258.693 220.867 257.6C220.867 256.486 221.075 255.507 221.492 254.66C221.915 253.807 222.504 253.143 223.26 252.668C224.021 252.186 224.913 251.945 225.935 251.945C226.769 251.945 227.508 252.098 228.152 252.404C228.803 252.704 229.327 253.13 229.724 253.684C230.128 254.237 230.366 254.882 230.437 255.617H228.367C228.295 255.272 228.155 254.956 227.947 254.67C227.745 254.383 227.478 254.156 227.146 253.986C226.814 253.817 226.42 253.732 225.965 253.732C225.372 253.732 224.855 253.889 224.412 254.201C223.976 254.507 223.634 254.947 223.387 255.52C223.139 256.092 223.015 256.77 223.015 257.551C223.015 258.339 223.136 259.025 223.377 259.611C223.618 260.197 223.959 260.65 224.402 260.969C224.851 261.281 225.372 261.438 225.965 261.438C226.577 261.438 227.098 261.268 227.527 260.93C227.963 260.591 228.243 260.129 228.367 259.543H230.437C230.366 260.253 230.138 260.884 229.754 261.438C229.37 261.991 228.855 262.427 228.211 262.746C227.566 263.065 226.814 263.225 225.955 263.225ZM233.019 267.082C232.7 267.089 232.41 267.066 232.15 267.014C231.896 266.968 231.7 266.913 231.564 266.848L232.081 265.119L232.228 265.158C232.768 265.295 233.224 265.285 233.595 265.129C233.973 264.979 234.288 264.559 234.542 263.869L234.806 263.146L230.821 252.082H233.097L235.851 260.559H235.968L238.732 252.082H241.007L236.515 264.445C236.307 265.018 236.043 265.5 235.724 265.891C235.405 266.288 235.021 266.584 234.571 266.779C234.129 266.981 233.611 267.082 233.019 267.082Z" fill="white"/>
<path d="M309.34 64.8867V53.3672H311.625V64.8867H309.34ZM304.711 60.2812V57.9727H316.242V60.2812H304.711ZM325.131 48.293C325.912 48.3008 326.677 48.4453 327.427 48.7266C328.185 49 328.869 49.4531 329.478 50.0859C330.095 50.7188 330.588 51.5742 330.955 52.6523C331.322 53.7227 331.506 55.0586 331.506 56.6602C331.506 58.1836 331.353 59.5391 331.049 60.7266C330.744 61.9141 330.302 62.918 329.724 63.7383C329.154 64.5586 328.463 65.1836 327.65 65.6133C326.838 66.0352 325.927 66.2461 324.92 66.2461C323.881 66.2461 322.955 66.0391 322.142 65.625C321.33 65.2109 320.674 64.6445 320.174 63.9258C319.674 63.1992 319.357 62.3672 319.224 61.4297H321.826C321.998 62.1719 322.345 62.7773 322.869 63.2461C323.4 63.707 324.084 63.9375 324.92 63.9375C326.193 63.9375 327.185 63.3789 327.896 62.2617C328.615 61.1445 328.978 59.5859 328.986 57.5859H328.857C328.552 58.0781 328.181 58.5039 327.744 58.8633C327.306 59.2148 326.814 59.4844 326.267 59.6719C325.72 59.8594 325.142 59.9531 324.533 59.9531C323.517 59.9531 322.595 59.707 321.767 59.2148C320.939 58.7227 320.283 58.0469 319.799 57.1875C319.314 56.3203 319.068 55.332 319.06 54.2227C319.068 53.1133 319.322 52.1094 319.822 51.2109C320.33 50.3125 321.037 49.6016 321.943 49.0781C322.849 48.5469 323.912 48.2852 325.131 48.293ZM325.142 50.5195C324.478 50.5195 323.881 50.6836 323.349 51.0117C322.818 51.3398 322.4 51.7812 322.095 52.3359C321.791 52.8906 321.638 53.5078 321.638 54.1875C321.638 54.8672 321.783 55.4805 322.072 56.0273C322.369 56.5742 322.779 57.0117 323.302 57.3398C323.826 57.6602 324.42 57.8203 325.084 57.8203C325.756 57.8203 326.357 57.6523 326.888 57.3164C327.427 56.9727 327.857 56.5234 328.177 55.9688C328.498 55.4062 328.658 54.8008 328.658 54.1523C328.658 53.5117 328.506 52.9141 328.201 52.3594C327.896 51.8047 327.478 51.3594 326.947 51.0234C326.424 50.6875 325.822 50.5195 325.142 50.5195ZM339.503 48.293C340.285 48.3008 341.05 48.4453 341.8 48.7266C342.558 49 343.242 49.4531 343.851 50.0859C344.468 50.7188 344.96 51.5742 345.328 52.6523C345.695 53.7227 345.878 55.0586 345.878 56.6602C345.878 58.1836 345.726 59.5391 345.421 60.7266C345.117 61.9141 344.675 62.918 344.097 63.7383C343.527 64.5586 342.835 65.1836 342.023 65.6133C341.21 66.0352 340.3 66.2461 339.292 66.2461C338.253 66.2461 337.328 66.0391 336.515 65.625C335.703 65.2109 335.046 64.6445 334.546 63.9258C334.046 63.1992 333.73 62.3672 333.597 61.4297H336.199C336.371 62.1719 336.718 62.7773 337.242 63.2461C337.773 63.707 338.457 63.9375 339.292 63.9375C340.566 63.9375 341.558 63.3789 342.269 62.2617C342.988 61.1445 343.351 59.5859 343.359 57.5859H343.23C342.925 58.0781 342.554 58.5039 342.117 58.8633C341.679 59.2148 341.187 59.4844 340.64 59.6719C340.093 59.8594 339.515 59.9531 338.906 59.9531C337.89 59.9531 336.968 59.707 336.14 59.2148C335.312 58.7227 334.656 58.0469 334.171 57.1875C333.687 56.3203 333.441 55.332 333.433 54.2227C333.441 53.1133 333.695 52.1094 334.195 51.2109C334.703 50.3125 335.41 49.6016 336.316 49.0781C337.222 48.5469 338.285 48.2852 339.503 48.293ZM339.515 50.5195C338.851 50.5195 338.253 50.6836 337.722 51.0117C337.191 51.3398 336.773 51.7812 336.468 52.3359C336.164 52.8906 336.011 53.5078 336.011 54.1875C336.011 54.8672 336.156 55.4805 336.445 56.0273C336.742 56.5742 337.152 57.0117 337.675 57.3398C338.199 57.6602 338.792 57.8203 339.457 57.8203C340.128 57.8203 340.73 57.6523 341.261 57.3164C341.8 56.9727 342.23 56.5234 342.55 55.9688C342.871 55.4062 343.031 54.8008 343.031 54.1523C343.031 53.5117 342.878 52.9141 342.574 52.3594C342.269 51.8047 341.851 51.3594 341.32 51.0234C340.796 50.6875 340.195 50.5195 339.515 50.5195ZM349.423 66.1641C348.947 66.1641 348.54 66 348.204 65.6719C347.876 65.3438 347.712 64.9414 347.712 64.4648C347.712 63.9883 347.876 63.5859 348.204 63.2578C348.54 62.9297 348.947 62.7656 349.423 62.7656C349.9 62.7656 350.302 62.9297 350.63 63.2578C350.966 63.5859 351.134 63.9883 351.134 64.4648C351.134 64.9414 350.966 65.3438 350.63 65.6719C350.302 66 349.9 66.1641 349.423 66.1641ZM359.226 66.2344C358.007 66.2344 356.929 66.0234 355.991 65.6016C355.062 65.1797 354.331 64.6016 353.8 63.8672C353.276 63.125 353.015 62.2812 353.015 61.3359C353.015 60.6094 353.167 59.9336 353.472 59.3086C353.784 58.6836 354.206 58.1641 354.737 57.75C355.269 57.3359 355.866 57.0703 356.53 56.9531V56.8477C355.663 56.6367 354.964 56.1719 354.433 55.4531C353.909 54.7266 353.647 53.8984 353.647 52.9688C353.647 52.0703 353.886 51.2695 354.362 50.5664C354.847 49.8633 355.507 49.3125 356.343 48.9141C357.187 48.5078 358.147 48.3047 359.226 48.3047C360.288 48.3047 361.237 48.5078 362.073 48.9141C362.917 49.3125 363.577 49.8633 364.054 50.5664C364.538 51.2695 364.78 52.0703 364.78 52.9688C364.78 53.8984 364.515 54.7266 363.983 55.4531C363.46 56.1719 362.772 56.6367 361.921 56.8477V56.9531C362.577 57.0703 363.171 57.3359 363.702 57.75C364.233 58.1641 364.655 58.6836 364.968 59.3086C365.28 59.9336 365.437 60.6094 365.437 61.3359C365.437 62.2812 365.171 63.125 364.64 63.8672C364.108 64.6016 363.374 65.1797 362.437 65.6016C361.507 66.0234 360.437 66.2344 359.226 66.2344ZM359.226 64.0781C359.944 64.0781 360.569 63.9609 361.101 63.7266C361.632 63.4844 362.042 63.1445 362.331 62.707C362.62 62.2695 362.765 61.7617 362.765 61.1836C362.765 60.5742 362.608 60.0391 362.296 59.5781C361.991 59.1094 361.573 58.7422 361.042 58.4766C360.511 58.2031 359.905 58.0664 359.226 58.0664C358.538 58.0664 357.925 58.1992 357.386 58.4648C356.855 58.7305 356.437 59.0977 356.132 59.5664C355.827 60.0352 355.675 60.5742 355.675 61.1836C355.675 61.7617 355.819 62.2695 356.108 62.707C356.397 63.1445 356.808 63.4844 357.339 63.7266C357.87 63.9609 358.499 64.0781 359.226 64.0781ZM359.226 55.9688C359.804 55.9688 360.315 55.8516 360.761 55.6172C361.214 55.3828 361.569 55.0586 361.827 54.6445C362.093 54.2305 362.226 53.7461 362.226 53.1914C362.226 52.6445 362.097 52.168 361.839 51.7617C361.589 51.3555 361.237 51.0391 360.784 50.8125C360.339 50.5859 359.819 50.4727 359.226 50.4727C358.624 50.4727 358.097 50.5859 357.644 50.8125C357.19 51.0391 356.839 51.3555 356.589 51.7617C356.339 52.168 356.214 52.6445 356.214 53.1914C356.214 53.7461 356.343 54.2305 356.601 54.6445C356.858 55.0586 357.21 55.3828 357.655 55.6172C358.108 55.8516 358.632 55.9688 359.226 55.9688ZM376.809 62.7188V61.8047C376.809 61.1406 376.946 60.5352 377.22 59.9883C377.493 59.4414 377.895 59.0039 378.427 58.6758C378.958 58.3398 379.602 58.1719 380.36 58.1719C381.134 58.1719 381.782 58.3359 382.305 58.6641C382.829 58.9922 383.223 59.4336 383.489 59.9883C383.755 60.5352 383.888 61.1406 383.888 61.8047V62.7188C383.888 63.3828 383.751 63.9922 383.477 64.5469C383.212 65.0938 382.817 65.5312 382.294 65.8594C381.77 66.1875 381.126 66.3516 380.36 66.3516C379.595 66.3516 378.946 66.1875 378.415 65.8594C377.884 65.5312 377.481 65.0938 377.208 64.5469C376.942 63.9922 376.809 63.3828 376.809 62.7188ZM378.79 61.8047V62.7188C378.79 63.2109 378.907 63.6562 379.141 64.0547C379.376 64.4531 379.782 64.6523 380.36 64.6523C380.93 64.6523 381.329 64.4531 381.555 64.0547C381.782 63.6562 381.895 63.2109 381.895 62.7188V61.8047C381.895 61.3125 381.786 60.8711 381.567 60.4805C381.348 60.082 380.946 59.8828 380.36 59.8828C379.79 59.8828 379.384 60.082 379.141 60.4805C378.907 60.8711 378.79 61.3125 378.79 61.8047ZM368.032 52.7344V51.8203C368.032 51.1562 368.169 50.5508 368.442 50.0039C368.723 49.4492 369.126 49.0078 369.649 48.6797C370.18 48.3516 370.821 48.1875 371.571 48.1875C372.345 48.1875 372.993 48.3516 373.516 48.6797C374.048 49.0078 374.446 49.4492 374.712 50.0039C374.977 50.5508 375.106 51.1562 375.098 51.8203V52.7344C375.106 53.3906 374.973 53.9961 374.7 54.5508C374.427 55.0977 374.028 55.5391 373.505 55.875C372.981 56.2031 372.337 56.3672 371.571 56.3672C370.805 56.3672 370.157 56.2031 369.626 55.875C369.102 55.5391 368.704 55.0977 368.43 54.5508C368.165 53.9961 368.032 53.3906 368.032 52.7344ZM370.013 51.8203V52.7344C370.013 53.2266 370.13 53.6719 370.364 54.0703C370.598 54.4688 371.001 54.6641 371.571 54.6562C372.149 54.6641 372.552 54.4688 372.778 54.0703C373.005 53.6719 373.118 53.2266 373.118 52.7344V51.8203C373.118 51.3281 373.009 50.8828 372.79 50.4844C372.571 50.0859 372.165 49.8906 371.571 49.8984C371.009 49.8906 370.606 50.0859 370.364 50.4844C370.13 50.8828 370.013 51.3281 370.013 51.8203ZM368.841 66L380.841 48.5391H382.88L370.88 66H368.841Z" fill="white"/>
<path d="M106.083 118.177C107.222 118.189 108.339 118.399 109.433 118.81C110.538 119.208 111.535 119.869 112.423 120.792C113.323 121.715 114.041 122.962 114.577 124.535C115.112 126.096 115.38 128.044 115.38 130.379C115.38 132.601 115.158 134.578 114.713 136.31C114.269 138.041 113.625 139.505 112.782 140.702C111.951 141.898 110.942 142.809 109.757 143.436C108.572 144.051 107.245 144.359 105.775 144.359C104.26 144.359 102.91 144.057 101.725 143.453C100.54 142.849 99.5832 142.023 98.854 140.975C98.1248 139.916 97.6634 138.702 97.4697 137.335H101.264C101.514 138.417 102.021 139.3 102.785 139.984C103.559 140.656 104.556 140.992 105.775 140.992C107.632 140.992 109.079 140.178 110.116 138.548C111.164 136.919 111.694 134.646 111.706 131.729H111.518C111.073 132.447 110.532 133.068 109.894 133.592C109.256 134.105 108.538 134.498 107.741 134.771C106.943 135.045 106.1 135.182 105.211 135.182C103.73 135.182 102.386 134.823 101.178 134.105C99.9705 133.387 99.0135 132.402 98.3071 131.148C97.6007 129.884 97.2419 128.443 97.2305 126.825C97.2419 125.207 97.6121 123.743 98.3413 122.433C99.0819 121.122 100.113 120.086 101.435 119.322C102.756 118.548 104.306 118.166 106.083 118.177ZM106.1 121.424C105.132 121.424 104.26 121.664 103.485 122.142C102.711 122.621 102.101 123.264 101.657 124.073C101.212 124.882 100.99 125.782 100.99 126.773C100.99 127.765 101.201 128.659 101.623 129.457C102.056 130.254 102.654 130.892 103.417 131.371C104.18 131.838 105.046 132.071 106.015 132.071C106.994 132.071 107.872 131.826 108.646 131.336C109.433 130.835 110.059 130.18 110.526 129.371C110.993 128.551 111.227 127.668 111.227 126.722C111.227 125.788 111.005 124.916 110.561 124.107C110.116 123.299 109.507 122.649 108.732 122.159C107.969 121.669 107.091 121.424 106.1 121.424ZM127.043 118.177C128.183 118.189 129.299 118.399 130.393 118.81C131.498 119.208 132.495 119.869 133.384 120.792C134.284 121.715 135.002 122.962 135.537 124.535C136.072 126.096 136.34 128.044 136.34 130.379C136.34 132.601 136.118 134.578 135.674 136.31C135.229 138.041 134.586 139.505 133.743 140.702C132.911 141.898 131.903 142.809 130.718 143.436C129.533 144.051 128.205 144.359 126.736 144.359C125.22 144.359 123.87 144.057 122.685 143.453C121.501 142.849 120.544 142.023 119.814 140.975C119.085 139.916 118.624 138.702 118.43 137.335H122.224C122.475 138.417 122.982 139.3 123.745 139.984C124.52 140.656 125.517 140.992 126.736 140.992C128.593 140.992 130.04 140.178 131.077 138.548C132.125 136.919 132.655 134.646 132.666 131.729H132.478C132.034 132.447 131.492 133.068 130.854 133.592C130.216 134.105 129.499 134.498 128.701 134.771C127.904 135.045 127.06 135.182 126.172 135.182C124.691 135.182 123.346 134.823 122.139 134.105C120.931 133.387 119.974 132.402 119.267 131.148C118.561 129.884 118.202 128.443 118.191 126.825C118.202 125.207 118.572 123.743 119.302 122.433C120.042 121.122 121.073 120.086 122.395 119.322C123.717 118.548 125.266 118.166 127.043 118.177ZM127.06 121.424C126.092 121.424 125.22 121.664 124.446 122.142C123.671 122.621 123.061 123.264 122.617 124.073C122.173 124.882 121.951 125.782 121.951 126.773C121.951 127.765 122.161 128.659 122.583 129.457C123.016 130.254 123.614 130.892 124.377 131.371C125.141 131.838 126.007 132.071 126.975 132.071C127.955 132.071 128.832 131.826 129.607 131.336C130.393 130.835 131.02 130.18 131.487 129.371C131.954 128.551 132.187 127.668 132.187 126.722C132.187 125.788 131.965 124.916 131.521 124.107C131.077 123.299 130.467 122.649 129.692 122.159C128.929 121.669 128.052 121.424 127.06 121.424ZM141.51 144.239C140.815 144.239 140.222 144 139.732 143.521C139.254 143.043 139.014 142.456 139.014 141.761C139.014 141.066 139.254 140.479 139.732 140.001C140.222 139.522 140.815 139.283 141.51 139.283C142.205 139.283 142.791 139.522 143.27 140.001C143.76 140.479 144.005 141.066 144.005 141.761C144.005 142.456 143.76 143.043 143.27 143.521C142.791 144 142.205 144.239 141.51 144.239ZM156.181 118.177C157.32 118.189 158.437 118.399 159.53 118.81C160.636 119.208 161.633 119.869 162.521 120.792C163.421 121.715 164.139 122.962 164.675 124.535C165.21 126.096 165.478 128.044 165.478 130.379C165.478 132.601 165.256 134.578 164.811 136.31C164.367 138.041 163.723 139.505 162.88 140.702C162.048 141.898 161.04 142.809 159.855 143.436C158.67 144.051 157.343 144.359 155.873 144.359C154.358 144.359 153.008 144.057 151.823 143.453C150.638 142.849 149.681 142.023 148.952 140.975C148.223 139.916 147.761 138.702 147.568 137.335H151.362C151.612 138.417 152.119 139.3 152.883 139.984C153.657 140.656 154.654 140.992 155.873 140.992C157.73 140.992 159.177 140.178 160.214 138.548C161.262 136.919 161.792 134.646 161.803 131.729H161.615C161.171 132.447 160.63 133.068 159.992 133.592C159.354 134.105 158.636 134.498 157.839 134.771C157.041 135.045 156.198 135.182 155.309 135.182C153.828 135.182 152.484 134.823 151.276 134.105C150.068 133.387 149.111 132.402 148.405 131.148C147.699 129.884 147.34 128.443 147.328 126.825C147.34 125.207 147.71 123.743 148.439 122.433C149.18 121.122 150.211 120.086 151.532 119.322C152.854 118.548 154.404 118.166 156.181 118.177ZM156.198 121.424C155.23 121.424 154.358 121.664 153.583 122.142C152.808 122.621 152.199 123.264 151.755 124.073C151.31 124.882 151.088 125.782 151.088 126.773C151.088 127.765 151.299 128.659 151.72 129.457C152.153 130.254 152.751 130.892 153.515 131.371C154.278 131.838 155.144 132.071 156.112 132.071C157.092 132.071 157.97 131.826 158.744 131.336C159.53 130.835 160.157 130.18 160.624 129.371C161.091 128.551 161.325 127.668 161.325 126.722C161.325 125.788 161.103 124.916 160.658 124.107C160.214 123.299 159.605 122.649 158.83 122.159C158.066 121.669 157.189 121.424 156.198 121.424ZM182.063 139.215V137.882C182.063 136.913 182.262 136.03 182.661 135.233C183.06 134.435 183.647 133.797 184.421 133.319C185.196 132.829 186.136 132.584 187.241 132.584C188.369 132.584 189.315 132.823 190.078 133.302C190.842 133.78 191.417 134.424 191.804 135.233C192.192 136.03 192.385 136.913 192.385 137.882V139.215C192.385 140.183 192.186 141.072 191.787 141.881C191.4 142.678 190.824 143.316 190.061 143.795C189.298 144.273 188.358 144.513 187.241 144.513C186.125 144.513 185.179 144.273 184.404 143.795C183.63 143.316 183.043 142.678 182.644 141.881C182.257 141.072 182.063 140.183 182.063 139.215ZM184.951 137.882V139.215C184.951 139.933 185.122 140.582 185.464 141.163C185.806 141.744 186.398 142.035 187.241 142.035C188.073 142.035 188.654 141.744 188.984 141.163C189.315 140.582 189.48 139.933 189.48 139.215V137.882C189.48 137.164 189.321 136.52 189.002 135.951C188.683 135.37 188.096 135.079 187.241 135.079C186.41 135.079 185.817 135.37 185.464 135.951C185.122 136.52 184.951 137.164 184.951 137.882ZM169.263 124.654V123.321C169.263 122.353 169.462 121.47 169.861 120.672C170.271 119.863 170.858 119.22 171.621 118.741C172.396 118.263 173.33 118.023 174.424 118.023C175.552 118.023 176.497 118.263 177.261 118.741C178.036 119.22 178.617 119.863 179.004 120.672C179.391 121.47 179.579 122.353 179.568 123.321V124.654C179.579 125.611 179.386 126.494 178.987 127.303C178.588 128.101 178.007 128.744 177.244 129.234C176.48 129.713 175.54 129.952 174.424 129.952C173.307 129.952 172.362 129.713 171.587 129.234C170.824 128.744 170.243 128.101 169.844 127.303C169.456 126.494 169.263 125.611 169.263 124.654ZM172.151 123.321V124.654C172.151 125.372 172.322 126.021 172.664 126.603C173.005 127.184 173.592 127.468 174.424 127.457C175.267 127.468 175.854 127.184 176.184 126.603C176.515 126.021 176.68 125.372 176.68 124.654V123.321C176.68 122.604 176.52 121.954 176.201 121.373C175.882 120.792 175.29 120.507 174.424 120.519C173.604 120.507 173.017 120.792 172.664 121.373C172.322 121.954 172.151 122.604 172.151 123.321ZM170.442 144L187.942 118.536H190.916L173.416 144H170.442Z" fill="white"/>
<path d="M309.34 221.887V210.367H311.625V221.887H309.34ZM304.711 217.281V214.973H316.242V217.281H304.711ZM325.154 223.234C324.084 223.234 323.123 223.031 322.271 222.625C321.427 222.211 320.752 221.645 320.244 220.926C319.736 220.199 319.467 219.375 319.435 218.453H321.99C322.052 219.195 322.385 219.809 322.986 220.293C323.588 220.777 324.31 221.02 325.154 221.02C325.826 221.02 326.42 220.863 326.935 220.551C327.451 220.238 327.857 219.812 328.154 219.273C328.451 218.727 328.599 218.102 328.599 217.398C328.599 216.695 328.447 216.066 328.142 215.512C327.838 214.949 327.416 214.508 326.877 214.188C326.345 213.867 325.732 213.707 325.037 213.707C324.506 213.707 323.974 213.801 323.443 213.988C322.912 214.168 322.482 214.402 322.154 214.691L319.728 214.34L320.713 205.539H330.31V207.801H322.916L322.365 212.688H322.459C322.795 212.352 323.244 212.078 323.806 211.867C324.377 211.648 324.99 211.539 325.646 211.539C326.709 211.539 327.654 211.793 328.482 212.301C329.318 212.801 329.974 213.488 330.451 214.363C330.927 215.23 331.166 216.227 331.166 217.352C331.166 218.484 330.908 219.496 330.392 220.387C329.877 221.27 329.166 221.965 328.26 222.473C327.361 222.98 326.326 223.234 325.154 223.234ZM339.503 223.234C338.16 223.234 337.007 222.883 336.046 222.18C335.093 221.477 334.363 220.461 333.855 219.133C333.355 217.797 333.105 216.18 333.105 214.281C333.105 212.391 333.359 210.777 333.867 209.441C334.375 208.098 335.105 207.074 336.058 206.371C337.019 205.66 338.167 205.305 339.503 205.305C340.847 205.305 341.996 205.66 342.949 206.371C343.91 207.074 344.64 208.098 345.14 209.441C345.648 210.777 345.902 212.391 345.902 214.281C345.902 216.18 345.652 217.797 345.152 219.133C344.652 220.461 343.925 221.477 342.972 222.18C342.019 222.883 340.863 223.234 339.503 223.234ZM339.503 220.984C340.324 220.984 341.015 220.723 341.578 220.199C342.14 219.676 342.57 218.914 342.867 217.914C343.164 216.906 343.312 215.695 343.312 214.281C343.312 212.859 343.164 211.648 342.867 210.648C342.57 209.641 342.14 208.875 341.578 208.352C341.015 207.82 340.324 207.555 339.503 207.555C338.292 207.555 337.355 208.145 336.691 209.324C336.035 210.496 335.707 212.148 335.707 214.281C335.707 215.695 335.855 216.906 336.152 217.914C336.449 218.914 336.878 219.676 337.441 220.199C338.011 220.723 338.699 220.984 339.503 220.984Z" fill="white"/>
<path d="M303.48 102L307.608 90.8H309.032L313.144 102H311.72L308.312 92.48L304.888 102H303.48ZM305.368 99.12L305.752 98.032H310.824L311.208 99.12H305.368ZM314.745 102V90.8H316.089V102H314.745ZM325.129 102.192C324.478 102.192 323.934 102.08 323.497 101.856C323.06 101.621 322.734 101.317 322.521 100.944C322.308 100.56 322.201 100.144 322.201 99.696C322.201 99.152 322.34 98.6933 322.617 98.32C322.905 97.936 323.305 97.648 323.817 97.456C324.34 97.2533 324.953 97.152 325.657 97.152H327.785C327.785 96.6507 327.705 96.2347 327.545 95.904C327.396 95.5627 327.172 95.3067 326.873 95.136C326.585 94.9653 326.222 94.88 325.785 94.88C325.273 94.88 324.83 95.008 324.457 95.264C324.084 95.52 323.854 95.8987 323.769 96.4H322.393C322.457 95.824 322.649 95.344 322.969 94.96C323.3 94.5653 323.716 94.2667 324.217 94.064C324.718 93.8507 325.241 93.744 325.785 93.744C326.532 93.744 327.15 93.8827 327.641 94.16C328.142 94.4267 328.516 94.8053 328.761 95.296C329.006 95.776 329.129 96.3467 329.129 97.008V102H327.929L327.849 100.576C327.742 100.8 327.604 101.013 327.433 101.216C327.273 101.408 327.081 101.579 326.857 101.728C326.633 101.867 326.377 101.979 326.089 102.064C325.812 102.149 325.492 102.192 325.129 102.192ZM325.337 101.056C325.71 101.056 326.046 100.981 326.345 100.832C326.654 100.672 326.916 100.459 327.129 100.192C327.342 99.9147 327.502 99.6107 327.609 99.28C327.726 98.9493 327.785 98.6027 327.785 98.24V98.192H325.769C325.246 98.192 324.825 98.256 324.505 98.384C324.185 98.5013 323.956 98.672 323.817 98.896C323.678 99.1093 323.609 99.3547 323.609 99.632C323.609 99.92 323.673 100.171 323.801 100.384C323.94 100.597 324.137 100.763 324.393 100.88C324.66 100.997 324.974 101.056 325.337 101.056ZM334.056 102.192C333.437 102.192 332.893 102.069 332.424 101.824C331.965 101.579 331.608 101.2 331.352 100.688C331.107 100.176 330.984 99.536 330.984 98.768V93.936H332.328V98.624C332.328 99.424 332.504 100.027 332.856 100.432C333.208 100.837 333.704 101.04 334.344 101.04C334.792 101.04 335.197 100.933 335.56 100.72C335.923 100.496 336.205 100.181 336.408 99.776C336.621 99.36 336.728 98.8533 336.728 98.256V93.936H338.072V102H336.856L336.776 100.592C336.531 101.093 336.168 101.488 335.688 101.776C335.208 102.053 334.664 102.192 334.056 102.192ZM343.388 102C342.908 102 342.492 101.925 342.14 101.776C341.788 101.627 341.516 101.376 341.324 101.024C341.143 100.661 341.052 100.176 341.052 99.568V95.072H339.644V93.936H341.052L341.228 91.984H342.396V93.936H344.732V95.072H342.396V99.568C342.396 100.069 342.497 100.411 342.7 100.592C342.903 100.763 343.26 100.848 343.772 100.848H344.636V102H343.388ZM349.787 102.192C349.04 102.192 348.368 102.021 347.771 101.68C347.174 101.328 346.704 100.837 346.363 100.208C346.022 99.568 345.851 98.8267 345.851 97.984C345.851 97.12 346.022 96.3733 346.363 95.744C346.715 95.104 347.19 94.6133 347.787 94.272C348.395 93.92 349.072 93.744 349.819 93.744C350.587 93.744 351.264 93.92 351.851 94.272C352.448 94.6133 352.918 95.104 353.259 95.744C353.611 96.3733 353.787 97.1147 353.787 97.968C353.787 98.8213 353.611 99.568 353.259 100.208C352.907 100.837 352.432 101.328 351.835 101.68C351.238 102.021 350.555 102.192 349.787 102.192ZM349.803 101.04C350.262 101.04 350.688 100.928 351.083 100.704C351.478 100.469 351.798 100.123 352.043 99.664C352.288 99.2053 352.411 98.64 352.411 97.968C352.411 97.2853 352.288 96.72 352.043 96.272C351.808 95.8133 351.494 95.472 351.099 95.248C350.715 95.0133 350.288 94.896 349.819 94.896C349.371 94.896 348.944 95.0133 348.539 95.248C348.144 95.472 347.824 95.8133 347.579 96.272C347.344 96.72 347.227 97.2853 347.227 97.968C347.227 98.64 347.344 99.2053 347.579 99.664C347.824 100.123 348.139 100.469 348.523 100.704C348.918 100.928 349.344 101.04 349.803 101.04ZM355.591 102V93.936H356.807L356.887 95.088C357.143 94.672 357.485 94.3467 357.911 94.112C358.349 93.8667 358.823 93.744 359.335 93.744C359.751 93.744 360.125 93.8027 360.455 93.92C360.797 94.0267 361.095 94.1973 361.351 94.432C361.607 94.656 361.815 94.944 361.975 95.296C362.253 94.8053 362.631 94.4267 363.111 94.16C363.602 93.8827 364.125 93.744 364.679 93.744C365.298 93.744 365.837 93.872 366.295 94.128C366.765 94.3733 367.122 94.752 367.367 95.264C367.623 95.7653 367.751 96.4053 367.751 97.184V102H366.423V97.328C366.423 96.5173 366.258 95.9093 365.927 95.504C365.597 95.0987 365.133 94.896 364.535 94.896C364.119 94.896 363.746 95.008 363.415 95.232C363.085 95.4453 362.823 95.76 362.631 96.176C362.439 96.592 362.343 97.104 362.343 97.712V102H360.999V97.328C360.999 96.5173 360.834 95.9093 360.503 95.504C360.173 95.0987 359.703 94.896 359.095 94.896C358.69 94.896 358.322 95.008 357.991 95.232C357.671 95.4453 357.415 95.76 357.223 96.176C357.031 96.592 356.935 97.104 356.935 97.712V102H355.591ZM372.385 102.192C371.735 102.192 371.191 102.08 370.753 101.856C370.316 101.621 369.991 101.317 369.777 100.944C369.564 100.56 369.457 100.144 369.457 99.696C369.457 99.152 369.596 98.6933 369.873 98.32C370.161 97.936 370.561 97.648 371.073 97.456C371.596 97.2533 372.209 97.152 372.913 97.152H375.041C375.041 96.6507 374.961 96.2347 374.801 95.904C374.652 95.5627 374.428 95.3067 374.129 95.136C373.841 94.9653 373.479 94.88 373.041 94.88C372.529 94.88 372.087 95.008 371.713 95.264C371.34 95.52 371.111 95.8987 371.025 96.4H369.649C369.713 95.824 369.905 95.344 370.225 94.96C370.556 94.5653 370.972 94.2667 371.473 94.064C371.975 93.8507 372.497 93.744 373.041 93.744C373.788 93.744 374.407 93.8827 374.897 94.16C375.399 94.4267 375.772 94.8053 376.017 95.296C376.263 95.776 376.385 96.3467 376.385 97.008V102H375.185L375.105 100.576C374.999 100.8 374.86 101.013 374.689 101.216C374.529 101.408 374.337 101.579 374.113 101.728C373.889 101.867 373.633 101.979 373.345 102.064C373.068 102.149 372.748 102.192 372.385 102.192ZM372.593 101.056C372.967 101.056 373.303 100.981 373.601 100.832C373.911 100.672 374.172 100.459 374.385 100.192C374.599 99.9147 374.759 99.6107 374.865 99.28C374.983 98.9493 375.041 98.6027 375.041 98.24V98.192H373.025C372.503 98.192 372.081 98.256 371.761 98.384C371.441 98.5013 371.212 98.672 371.073 98.896C370.935 99.1093 370.865 99.3547 370.865 99.632C370.865 99.92 370.929 100.171 371.057 100.384C371.196 100.597 371.393 100.763 371.649 100.88C371.916 100.997 372.231 101.056 372.593 101.056ZM381.334 102C380.854 102 380.438 101.925 380.086 101.776C379.734 101.627 379.462 101.376 379.27 101.024C379.088 100.661 378.998 100.176 378.998 99.568V95.072H377.59V93.936H378.998L379.174 91.984H380.342V93.936H382.678V95.072H380.342V99.568C380.342 100.069 380.443 100.411 380.646 100.592C380.848 100.763 381.206 100.848 381.718 100.848H382.582V102H381.334ZM384.479 102V93.936H385.823V102H384.479ZM385.151 92.224C384.885 92.224 384.661 92.1387 384.479 91.968C384.309 91.7867 384.223 91.5627 384.223 91.296C384.223 91.0293 384.309 90.816 384.479 90.656C384.661 90.4853 384.885 90.4 385.151 90.4C385.407 90.4 385.626 90.4853 385.807 90.656C385.989 90.816 386.079 91.0293 386.079 91.296C386.079 91.5627 385.989 91.7867 385.807 91.968C385.626 92.1387 385.407 92.224 385.151 92.224ZM391.715 102.192C390.968 102.192 390.296 102.021 389.699 101.68C389.102 101.328 388.632 100.837 388.291 100.208C387.95 99.568 387.779 98.8267 387.779 97.984C387.779 97.12 387.95 96.3733 388.291 95.744C388.643 95.104 389.118 94.6133 389.715 94.272C390.323 93.92 391 93.744 391.747 93.744C392.515 93.744 393.192 93.92 393.779 94.272C394.376 94.6133 394.846 95.104 395.187 95.744C395.539 96.3733 395.715 97.1147 395.715 97.968C395.715 98.8213 395.539 99.568 395.187 100.208C394.835 100.837 394.36 101.328 393.763 101.68C393.166 102.021 392.483 102.192 391.715 102.192ZM391.731 101.04C392.19 101.04 392.616 100.928 393.011 100.704C393.406 100.469 393.726 100.123 393.971 99.664C394.216 99.2053 394.339 98.64 394.339 97.968C394.339 97.2853 394.216 96.72 393.971 96.272C393.736 95.8133 393.422 95.472 393.027 95.248C392.643 95.0133 392.216 94.896 391.747 94.896C391.299 94.896 390.872 95.0133 390.467 95.248C390.072 95.472 389.752 95.8133 389.507 96.272C389.272 96.72 389.155 97.2853 389.155 97.968C389.155 98.64 389.272 99.2053 389.507 99.664C389.752 100.123 390.067 100.469 390.451 100.704C390.846 100.928 391.272 101.04 391.731 101.04ZM397.519 102V93.936H398.735L398.799 95.344C399.055 94.8427 399.418 94.4533 399.887 94.176C400.367 93.888 400.911 93.744 401.519 93.744C402.149 93.744 402.693 93.872 403.151 94.128C403.61 94.3733 403.967 94.752 404.223 95.264C404.479 95.7653 404.607 96.4053 404.607 97.184V102H403.263V97.328C403.263 96.5173 403.082 95.9093 402.719 95.504C402.367 95.0987 401.866 94.896 401.215 94.896C400.767 94.896 400.367 95.008 400.015 95.232C399.663 95.4453 399.381 95.76 399.167 96.176C398.965 96.5813 398.863 97.088 398.863 97.696V102H397.519ZM415.021 102.192C414.562 102.192 414.146 102.128 413.773 102C413.41 101.861 413.09 101.68 412.813 101.456C412.536 101.232 412.306 100.971 412.125 100.672L412.013 102H410.797V90.48H412.141V95.264C412.397 94.848 412.765 94.4907 413.245 94.192C413.725 93.8933 414.317 93.744 415.021 93.744C415.8 93.744 416.482 93.9307 417.069 94.304C417.656 94.6667 418.109 95.168 418.429 95.808C418.76 96.4373 418.925 97.1573 418.925 97.968C418.925 98.7787 418.76 99.504 418.429 100.144C418.109 100.784 417.656 101.285 417.069 101.648C416.482 102.011 415.8 102.192 415.021 102.192ZM414.861 101.024C415.384 101.024 415.848 100.896 416.253 100.64C416.658 100.384 416.973 100.032 417.197 99.584C417.432 99.1253 417.549 98.5867 417.549 97.968C417.549 97.36 417.432 96.8267 417.197 96.368C416.973 95.9093 416.658 95.552 416.253 95.296C415.848 95.04 415.384 94.912 414.861 94.912C414.328 94.912 413.858 95.04 413.453 95.296C413.048 95.552 412.733 95.9093 412.509 96.368C412.285 96.8267 412.173 97.36 412.173 97.968C412.173 98.5867 412.285 99.1253 412.509 99.584C412.733 100.032 413.048 100.384 413.453 100.64C413.858 100.896 414.328 101.024 414.861 101.024ZM423.661 102.192C423.042 102.192 422.498 102.069 422.029 101.824C421.57 101.579 421.213 101.2 420.957 100.688C420.711 100.176 420.589 99.536 420.589 98.768V93.936H421.933V98.624C421.933 99.424 422.109 100.027 422.461 100.432C422.813 100.837 423.309 101.04 423.949 101.04C424.397 101.04 424.802 100.933 425.165 100.72C425.527 100.496 425.81 100.181 426.013 99.776C426.226 99.36 426.333 98.8533 426.333 98.256V93.936H427.677V102H426.461L426.381 100.592C426.135 101.093 425.773 101.488 425.293 101.776C424.813 102.053 424.269 102.192 423.661 102.192ZM432.864 102.192C432.192 102.192 431.606 102.08 431.104 101.856C430.614 101.632 430.219 101.323 429.92 100.928C429.632 100.523 429.456 100.048 429.392 99.504H430.768C430.822 99.7813 430.934 100.037 431.104 100.272C431.275 100.507 431.504 100.699 431.792 100.848C432.091 100.987 432.454 101.056 432.88 101.056C433.254 101.056 433.563 101.003 433.808 100.896C434.054 100.779 434.235 100.624 434.352 100.432C434.48 100.24 434.544 100.032 434.544 99.808C434.544 99.4773 434.464 99.2267 434.304 99.056C434.155 98.8853 433.931 98.752 433.632 98.656C433.334 98.5493 432.971 98.4587 432.544 98.384C432.192 98.32 431.846 98.2347 431.504 98.128C431.163 98.0213 430.859 97.8827 430.592 97.712C430.326 97.5307 430.112 97.312 429.952 97.056C429.803 96.8 429.728 96.4853 429.728 96.112C429.728 95.6533 429.846 95.248 430.08 94.896C430.315 94.5333 430.651 94.2507 431.088 94.048C431.536 93.8453 432.054 93.744 432.64 93.744C433.504 93.744 434.203 93.952 434.736 94.368C435.27 94.784 435.584 95.3867 435.68 96.176H434.352C434.299 95.7707 434.123 95.456 433.824 95.232C433.536 94.9973 433.136 94.88 432.624 94.88C432.123 94.88 431.739 94.9813 431.472 95.184C431.216 95.3867 431.088 95.6533 431.088 95.984C431.088 96.1973 431.158 96.3893 431.296 96.56C431.446 96.72 431.659 96.8587 431.936 96.976C432.224 97.0933 432.576 97.1893 432.992 97.264C433.526 97.36 434.011 97.488 434.448 97.648C434.886 97.808 435.238 98.048 435.504 98.368C435.782 98.6773 435.92 99.12 435.92 99.696C435.92 100.197 435.792 100.635 435.536 101.008C435.291 101.381 434.939 101.675 434.48 101.888C434.022 102.091 433.483 102.192 432.864 102.192ZM437.904 102V93.936H439.248V102H437.904ZM438.576 92.224C438.309 92.224 438.085 92.1387 437.904 91.968C437.733 91.7867 437.648 91.5627 437.648 91.296C437.648 91.0293 437.733 90.816 437.904 90.656C438.085 90.4853 438.309 90.4 438.576 90.4C438.832 90.4 439.05 90.4853 439.232 90.656C439.413 90.816 439.504 91.0293 439.504 91.296C439.504 91.5627 439.413 91.7867 439.232 91.968C439.05 92.1387 438.832 92.224 438.576 92.224ZM441.539 102V93.936H442.755L442.819 95.344C443.075 94.8427 443.438 94.4533 443.907 94.176C444.387 93.888 444.931 93.744 445.539 93.744C446.169 93.744 446.713 93.872 447.171 94.128C447.63 94.3733 447.987 94.752 448.243 95.264C448.499 95.7653 448.627 96.4053 448.627 97.184V102H447.283V97.328C447.283 96.5173 447.102 95.9093 446.739 95.504C446.387 95.0987 445.886 94.896 445.235 94.896C444.787 94.896 444.387 95.008 444.035 95.232C443.683 95.4453 443.401 95.76 443.187 96.176C442.985 96.5813 442.883 97.088 442.883 97.696V102H441.539ZM454.183 102.192C453.426 102.192 452.754 102.016 452.167 101.664C451.591 101.312 451.138 100.821 450.807 100.192C450.476 99.552 450.311 98.8107 450.311 97.968C450.311 97.1147 450.471 96.3733 450.791 95.744C451.122 95.1147 451.58 94.624 452.167 94.272C452.764 93.92 453.447 93.744 454.215 93.744C455.004 93.744 455.671 93.92 456.215 94.272C456.77 94.624 457.191 95.088 457.479 95.664C457.778 96.2293 457.927 96.8533 457.927 97.536C457.927 97.6427 457.927 97.7547 457.927 97.872C457.927 97.9893 457.922 98.1227 457.911 98.272H451.319V97.232H456.615C456.583 96.496 456.338 95.92 455.879 95.504C455.431 95.088 454.866 94.88 454.183 94.88C453.724 94.88 453.298 94.9867 452.903 95.2C452.519 95.4027 452.21 95.7067 451.975 96.112C451.74 96.5067 451.623 97.0027 451.623 97.6V98.048C451.623 98.7093 451.74 99.264 451.975 99.712C452.22 100.16 452.535 100.496 452.919 100.72C453.314 100.944 453.735 101.056 454.183 101.056C454.748 101.056 455.212 100.933 455.575 100.688C455.948 100.432 456.215 100.091 456.375 99.664H457.703C457.575 100.144 457.351 100.576 457.031 100.96C456.711 101.344 456.311 101.648 455.831 101.872C455.362 102.085 454.812 102.192 454.183 102.192ZM462.701 102.192C462.029 102.192 461.442 102.08 460.941 101.856C460.45 101.632 460.055 101.323 459.757 100.928C459.469 100.523 459.293 100.048 459.229 99.504H460.605C460.658 99.7813 460.77 100.037 460.941 100.272C461.111 100.507 461.341 100.699 461.629 100.848C461.927 100.987 462.29 101.056 462.717 101.056C463.09 101.056 463.399 101.003 463.645 100.896C463.89 100.779 464.071 100.624 464.189 100.432C464.317 100.24 464.381 100.032 464.381 99.808C464.381 99.4773 464.301 99.2267 464.141 99.056C463.991 98.8853 463.767 98.752 463.469 98.656C463.17 98.5493 462.807 98.4587 462.381 98.384C462.029 98.32 461.682 98.2347 461.341 98.128C460.999 98.0213 460.695 97.8827 460.429 97.712C460.162 97.5307 459.949 97.312 459.789 97.056C459.639 96.8 459.565 96.4853 459.565 96.112C459.565 95.6533 459.682 95.248 459.917 94.896C460.151 94.5333 460.487 94.2507 460.925 94.048C461.373 93.8453 461.89 93.744 462.477 93.744C463.341 93.744 464.039 93.952 464.573 94.368C465.106 94.784 465.421 95.3867 465.517 96.176H464.189C464.135 95.7707 463.959 95.456 463.661 95.232C463.373 94.9973 462.973 94.88 462.461 94.88C461.959 94.88 461.575 94.9813 461.309 95.184C461.053 95.3867 460.925 95.6533 460.925 95.984C460.925 96.1973 460.994 96.3893 461.133 96.56C461.282 96.72 461.495 96.8587 461.773 96.976C462.061 97.0933 462.413 97.1893 462.829 97.264C463.362 97.36 463.847 97.488 464.285 97.648C464.722 97.808 465.074 98.048 465.341 98.368C465.618 98.6773 465.757 99.12 465.757 99.696C465.757 100.197 465.629 100.635 465.373 101.008C465.127 101.381 464.775 101.675 464.317 101.888C463.858 102.091 463.319 102.192 462.701 102.192ZM470.652 102.192C469.98 102.192 469.393 102.08 468.892 101.856C468.401 101.632 468.007 101.323 467.708 100.928C467.42 100.523 467.244 100.048 467.18 99.504H468.556C468.609 99.7813 468.721 100.037 468.892 100.272C469.063 100.507 469.292 100.699 469.58 100.848C469.879 100.987 470.241 101.056 470.668 101.056C471.041 101.056 471.351 101.003 471.596 100.896C471.841 100.779 472.023 100.624 472.14 100.432C472.268 100.24 472.332 100.032 472.332 99.808C472.332 99.4773 472.252 99.2267 472.092 99.056C471.943 98.8853 471.719 98.752 471.42 98.656C471.121 98.5493 470.759 98.4587 470.332 98.384C469.98 98.32 469.633 98.2347 469.292 98.128C468.951 98.0213 468.647 97.8827 468.38 97.712C468.113 97.5307 467.9 97.312 467.74 97.056C467.591 96.8 467.516 96.4853 467.516 96.112C467.516 95.6533 467.633 95.248 467.868 94.896C468.103 94.5333 468.439 94.2507 468.876 94.048C469.324 93.8453 469.841 93.744 470.428 93.744C471.292 93.744 471.991 93.952 472.524 94.368C473.057 94.784 473.372 95.3867 473.468 96.176H472.14C472.087 95.7707 471.911 95.456 471.612 95.232C471.324 94.9973 470.924 94.88 470.412 94.88C469.911 94.88 469.527 94.9813 469.26 95.184C469.004 95.3867 468.876 95.6533 468.876 95.984C468.876 96.1973 468.945 96.3893 469.084 96.56C469.233 96.72 469.447 96.8587 469.724 96.976C470.012 97.0933 470.364 97.1893 470.78 97.264C471.313 97.36 471.799 97.488 472.236 97.648C472.673 97.808 473.025 98.048 473.292 98.368C473.569 98.6773 473.708 99.12 473.708 99.696C473.708 100.197 473.58 100.635 473.324 101.008C473.079 101.381 472.727 101.675 472.268 101.888C471.809 102.091 471.271 102.192 470.652 102.192ZM304.12 128V119.936H305.336L305.432 121.472C305.613 121.109 305.843 120.8 306.12 120.544C306.408 120.288 306.749 120.091 307.144 119.952C307.549 119.813 308.008 119.744 308.52 119.744V121.152H308.024C307.683 121.152 307.357 121.2 307.048 121.296C306.739 121.381 306.461 121.525 306.216 121.728C305.981 121.931 305.795 122.208 305.656 122.56C305.528 122.901 305.464 123.328 305.464 123.84V128H304.12ZM313.201 128.192C312.444 128.192 311.772 128.016 311.185 127.664C310.609 127.312 310.156 126.821 309.825 126.192C309.494 125.552 309.329 124.811 309.329 123.968C309.329 123.115 309.489 122.373 309.809 121.744C310.14 121.115 310.598 120.624 311.185 120.272C311.782 119.92 312.465 119.744 313.233 119.744C314.022 119.744 314.689 119.92 315.233 120.272C315.788 120.624 316.209 121.088 316.497 121.664C316.796 122.229 316.945 122.853 316.945 123.536C316.945 123.643 316.945 123.755 316.945 123.872C316.945 123.989 316.94 124.123 316.929 124.272H310.337V123.232H315.633C315.601 122.496 315.356 121.92 314.897 121.504C314.449 121.088 313.884 120.88 313.201 120.88C312.742 120.88 312.316 120.987 311.921 121.2C311.537 121.403 311.228 121.707 310.993 122.112C310.758 122.507 310.641 123.003 310.641 123.6V124.048C310.641 124.709 310.758 125.264 310.993 125.712C311.238 126.16 311.553 126.496 311.937 126.72C312.332 126.944 312.753 127.056 313.201 127.056C313.766 127.056 314.23 126.933 314.593 126.688C314.966 126.432 315.233 126.091 315.393 125.664H316.721C316.593 126.144 316.369 126.576 316.049 126.96C315.729 127.344 315.329 127.648 314.849 127.872C314.38 128.085 313.83 128.192 313.201 128.192ZM320.686 128L317.63 119.936H319.038L321.47 126.704L323.918 119.936H325.294L322.238 128H320.686ZM329.854 128.192C329.096 128.192 328.424 128.016 327.838 127.664C327.262 127.312 326.808 126.821 326.478 126.192C326.147 125.552 325.982 124.811 325.982 123.968C325.982 123.115 326.142 122.373 326.462 121.744C326.792 121.115 327.251 120.624 327.838 120.272C328.435 119.92 329.118 119.744 329.886 119.744C330.675 119.744 331.342 119.92 331.886 120.272C332.44 120.624 332.862 121.088 333.15 121.664C333.448 122.229 333.598 122.853 333.598 123.536C333.598 123.643 333.598 123.755 333.598 123.872C333.598 123.989 333.592 124.123 333.582 124.272H326.99V123.232H332.286C332.254 122.496 332.008 121.92 331.55 121.504C331.102 121.088 330.536 120.88 329.854 120.88C329.395 120.88 328.968 120.987 328.574 121.2C328.19 121.403 327.88 121.707 327.646 122.112C327.411 122.507 327.294 123.003 327.294 123.6V124.048C327.294 124.709 327.411 125.264 327.646 125.712C327.891 126.16 328.206 126.496 328.59 126.72C328.984 126.944 329.406 127.056 329.854 127.056C330.419 127.056 330.883 126.933 331.246 126.688C331.619 126.432 331.886 126.091 332.046 125.664H333.374C333.246 126.144 333.022 126.576 332.702 126.96C332.382 127.344 331.982 127.648 331.502 127.872C331.032 128.085 330.483 128.192 329.854 128.192ZM335.331 128V119.936H336.547L336.611 121.344C336.867 120.843 337.23 120.453 337.699 120.176C338.179 119.888 338.723 119.744 339.331 119.744C339.961 119.744 340.505 119.872 340.963 120.128C341.422 120.373 341.779 120.752 342.035 121.264C342.291 121.765 342.419 122.405 342.419 123.184V128H341.075V123.328C341.075 122.517 340.894 121.909 340.531 121.504C340.179 121.099 339.678 120.896 339.027 120.896C338.579 120.896 338.179 121.008 337.827 121.232C337.475 121.445 337.193 121.76 336.979 122.176C336.777 122.581 336.675 123.088 336.675 123.696V128H335.331ZM347.367 128.192C346.748 128.192 346.204 128.069 345.735 127.824C345.276 127.579 344.919 127.2 344.663 126.688C344.417 126.176 344.295 125.536 344.295 124.768V119.936H345.639V124.624C345.639 125.424 345.815 126.027 346.167 126.432C346.519 126.837 347.015 127.04 347.655 127.04C348.103 127.04 348.508 126.933 348.871 126.72C349.233 126.496 349.516 126.181 349.719 125.776C349.932 125.36 350.039 124.853 350.039 124.256V119.936H351.383V128H350.167L350.087 126.592C349.841 127.093 349.479 127.488 348.999 127.776C348.519 128.053 347.975 128.192 347.367 128.192ZM357.067 128.192C356.309 128.192 355.637 128.016 355.051 127.664C354.475 127.312 354.021 126.821 353.691 126.192C353.36 125.552 353.195 124.811 353.195 123.968C353.195 123.115 353.355 122.373 353.675 121.744C354.005 121.115 354.464 120.624 355.051 120.272C355.648 119.92 356.331 119.744 357.099 119.744C357.888 119.744 358.555 119.92 359.099 120.272C359.653 120.624 360.075 121.088 360.363 121.664C360.661 122.229 360.811 122.853 360.811 123.536C360.811 123.643 360.811 123.755 360.811 123.872C360.811 123.989 360.805 124.123 360.795 124.272H354.203V123.232H359.499C359.467 122.496 359.221 121.92 358.763 121.504C358.315 121.088 357.749 120.88 357.067 120.88C356.608 120.88 356.181 120.987 355.787 121.2C355.403 121.403 355.093 121.707 354.859 122.112C354.624 122.507 354.507 123.003 354.507 123.6V124.048C354.507 124.709 354.624 125.264 354.859 125.712C355.104 126.16 355.419 126.496 355.803 126.72C356.197 126.944 356.619 127.056 357.067 127.056C357.632 127.056 358.096 126.933 358.459 126.688C358.832 126.432 359.099 126.091 359.259 125.664H360.587C360.459 126.144 360.235 126.576 359.915 126.96C359.595 127.344 359.195 127.648 358.715 127.872C358.245 128.085 357.696 128.192 357.067 128.192ZM369.898 131.712C369.173 131.712 368.528 131.616 367.962 131.424C367.408 131.243 366.976 130.96 366.666 130.576C366.357 130.192 366.202 129.717 366.202 129.152C366.202 128.907 366.25 128.645 366.346 128.368C366.453 128.091 366.629 127.819 366.874 127.552C367.13 127.285 367.488 127.045 367.946 126.832L368.874 127.376C368.309 127.611 367.941 127.877 367.77 128.176C367.6 128.485 367.514 128.768 367.514 129.024C367.514 129.376 367.616 129.669 367.818 129.904C368.021 130.139 368.304 130.315 368.666 130.432C369.029 130.549 369.44 130.608 369.898 130.608C370.357 130.608 370.752 130.544 371.082 130.416C371.413 130.288 371.669 130.107 371.85 129.872C372.032 129.637 372.122 129.36 372.122 129.04C372.122 128.667 371.984 128.352 371.706 128.096C371.429 127.851 370.901 127.707 370.122 127.664C369.493 127.621 368.965 127.563 368.538 127.488C368.112 127.413 367.76 127.328 367.482 127.232C367.205 127.125 366.97 127.008 366.778 126.88C366.597 126.752 366.432 126.619 366.282 126.48V126.112L367.834 124.576L369.002 124.992L367.402 126.432L367.61 125.872C367.728 125.957 367.84 126.037 367.946 126.112C368.053 126.187 368.197 126.251 368.378 126.304C368.56 126.357 368.81 126.405 369.13 126.448C369.461 126.491 369.893 126.533 370.426 126.576C371.162 126.629 371.749 126.757 372.186 126.96C372.634 127.163 372.954 127.435 373.146 127.776C373.349 128.117 373.45 128.523 373.45 128.992C373.45 129.451 373.322 129.883 373.066 130.288C372.821 130.704 372.437 131.045 371.914 131.312C371.392 131.579 370.72 131.712 369.898 131.712ZM369.882 125.472C369.21 125.472 368.634 125.344 368.154 125.088C367.685 124.832 367.328 124.491 367.082 124.064C366.837 123.627 366.714 123.141 366.714 122.608C366.714 122.075 366.837 121.595 367.082 121.168C367.338 120.741 367.701 120.4 368.17 120.144C368.64 119.877 369.21 119.744 369.882 119.744C370.554 119.744 371.125 119.877 371.594 120.144C372.064 120.4 372.421 120.741 372.666 121.168C372.912 121.595 373.034 122.075 373.034 122.608C373.034 123.141 372.912 123.627 372.666 124.064C372.421 124.491 372.064 124.832 371.594 125.088C371.125 125.344 370.554 125.472 369.882 125.472ZM369.882 124.368C370.458 124.368 370.912 124.219 371.242 123.92C371.573 123.621 371.738 123.184 371.738 122.608C371.738 122.043 371.573 121.611 371.242 121.312C370.912 121.013 370.458 120.864 369.882 120.864C369.317 120.864 368.858 121.013 368.506 121.312C368.165 121.611 367.994 122.043 367.994 122.608C367.994 123.184 368.165 123.621 368.506 123.92C368.848 124.219 369.306 124.368 369.882 124.368ZM371.194 121.072L370.794 119.936H374.09V120.944L371.194 121.072ZM378.78 128.192C378.022 128.192 377.35 128.016 376.764 127.664C376.188 127.312 375.734 126.821 375.404 126.192C375.073 125.552 374.908 124.811 374.908 123.968C374.908 123.115 375.068 122.373 375.388 121.744C375.718 121.115 376.177 120.624 376.764 120.272C377.361 119.92 378.044 119.744 378.812 119.744C379.601 119.744 380.268 119.92 380.812 120.272C381.366 120.624 381.788 121.088 382.076 121.664C382.374 122.229 382.524 122.853 382.524 123.536C382.524 123.643 382.524 123.755 382.524 123.872C382.524 123.989 382.518 124.123 382.508 124.272H375.916V123.232H381.212C381.18 122.496 380.934 121.92 380.476 121.504C380.028 121.088 379.462 120.88 378.78 120.88C378.321 120.88 377.894 120.987 377.5 121.2C377.116 121.403 376.806 121.707 376.572 122.112C376.337 122.507 376.22 123.003 376.22 123.6V124.048C376.22 124.709 376.337 125.264 376.572 125.712C376.817 126.16 377.132 126.496 377.516 126.72C377.91 126.944 378.332 127.056 378.78 127.056C379.345 127.056 379.809 126.933 380.172 126.688C380.545 126.432 380.812 126.091 380.972 125.664H382.3C382.172 126.144 381.948 126.576 381.628 126.96C381.308 127.344 380.908 127.648 380.428 127.872C379.958 128.085 379.409 128.192 378.78 128.192ZM384.257 128V119.936H385.473L385.537 121.344C385.793 120.843 386.156 120.453 386.625 120.176C387.105 119.888 387.649 119.744 388.257 119.744C388.887 119.744 389.431 119.872 389.889 120.128C390.348 120.373 390.705 120.752 390.961 121.264C391.217 121.765 391.345 122.405 391.345 123.184V128H390.001V123.328C390.001 122.517 389.82 121.909 389.457 121.504C389.105 121.099 388.604 120.896 387.953 120.896C387.505 120.896 387.105 121.008 386.753 121.232C386.401 121.445 386.119 121.76 385.905 122.176C385.703 122.581 385.601 123.088 385.601 123.696V128H384.257ZM396.901 128.192C396.144 128.192 395.472 128.016 394.885 127.664C394.309 127.312 393.856 126.821 393.525 126.192C393.194 125.552 393.029 124.811 393.029 123.968C393.029 123.115 393.189 122.373 393.509 121.744C393.84 121.115 394.298 120.624 394.885 120.272C395.482 119.92 396.165 119.744 396.933 119.744C397.722 119.744 398.389 119.92 398.933 120.272C399.488 120.624 399.909 121.088 400.197 121.664C400.496 122.229 400.645 122.853 400.645 123.536C400.645 123.643 400.645 123.755 400.645 123.872C400.645 123.989 400.64 124.123 400.629 124.272H394.037V123.232H399.333C399.301 122.496 399.056 121.92 398.597 121.504C398.149 121.088 397.584 120.88 396.901 120.88C396.442 120.88 396.016 120.987 395.621 121.2C395.237 121.403 394.928 121.707 394.693 122.112C394.458 122.507 394.341 123.003 394.341 123.6V124.048C394.341 124.709 394.458 125.264 394.693 125.712C394.938 126.16 395.253 126.496 395.637 126.72C396.032 126.944 396.453 127.056 396.901 127.056C397.466 127.056 397.93 126.933 398.293 126.688C398.666 126.432 398.933 126.091 399.093 125.664H400.421C400.293 126.144 400.069 126.576 399.749 126.96C399.429 127.344 399.029 127.648 398.549 127.872C398.08 128.085 397.53 128.192 396.901 128.192ZM402.379 128V119.936H403.595L403.691 121.472C403.872 121.109 404.101 120.8 404.379 120.544C404.667 120.288 405.008 120.091 405.403 119.952C405.808 119.813 406.267 119.744 406.779 119.744V121.152H406.283C405.941 121.152 405.616 121.2 405.307 121.296C404.997 121.381 404.72 121.525 404.475 121.728C404.24 121.931 404.053 122.208 403.915 122.56C403.787 122.901 403.723 123.328 403.723 123.84V128H402.379ZM410.845 128.192C410.194 128.192 409.65 128.08 409.213 127.856C408.775 127.621 408.45 127.317 408.237 126.944C408.023 126.56 407.917 126.144 407.917 125.696C407.917 125.152 408.055 124.693 408.333 124.32C408.621 123.936 409.021 123.648 409.533 123.456C410.055 123.253 410.669 123.152 411.373 123.152H413.501C413.501 122.651 413.421 122.235 413.261 121.904C413.111 121.563 412.887 121.307 412.589 121.136C412.301 120.965 411.938 120.88 411.501 120.88C410.989 120.88 410.546 121.008 410.173 121.264C409.799 121.52 409.57 121.899 409.485 122.4H408.109C408.173 121.824 408.365 121.344 408.685 120.96C409.015 120.565 409.431 120.267 409.933 120.064C410.434 119.851 410.957 119.744 411.501 119.744C412.247 119.744 412.866 119.883 413.357 120.16C413.858 120.427 414.231 120.805 414.477 121.296C414.722 121.776 414.845 122.347 414.845 123.008V128H413.645L413.565 126.576C413.458 126.8 413.319 127.013 413.149 127.216C412.989 127.408 412.797 127.579 412.573 127.728C412.349 127.867 412.093 127.979 411.805 128.064C411.527 128.149 411.207 128.192 410.845 128.192ZM411.053 127.056C411.426 127.056 411.762 126.981 412.061 126.832C412.37 126.672 412.631 126.459 412.845 126.192C413.058 125.915 413.218 125.611 413.325 125.28C413.442 124.949 413.501 124.603 413.501 124.24V124.192H411.485C410.962 124.192 410.541 124.256 410.221 124.384C409.901 124.501 409.671 124.672 409.533 124.896C409.394 125.109 409.325 125.355 409.325 125.632C409.325 125.92 409.389 126.171 409.517 126.384C409.655 126.597 409.853 126.763 410.109 126.88C410.375 126.997 410.69 127.056 411.053 127.056ZM419.793 128C419.313 128 418.897 127.925 418.545 127.776C418.193 127.627 417.921 127.376 417.729 127.024C417.548 126.661 417.457 126.176 417.457 125.568V121.072H416.049V119.936H417.457L417.633 117.984H418.801V119.936H421.137V121.072H418.801V125.568C418.801 126.069 418.902 126.411 419.105 126.592C419.308 126.763 419.665 126.848 420.177 126.848H421.041V128H419.793ZM426.128 128.192C425.371 128.192 424.699 128.016 424.112 127.664C423.536 127.312 423.083 126.821 422.752 126.192C422.421 125.552 422.256 124.811 422.256 123.968C422.256 123.115 422.416 122.373 422.736 121.744C423.067 121.115 423.525 120.624 424.112 120.272C424.709 119.92 425.392 119.744 426.16 119.744C426.949 119.744 427.616 119.92 428.16 120.272C428.715 120.624 429.136 121.088 429.424 121.664C429.723 122.229 429.872 122.853 429.872 123.536C429.872 123.643 429.872 123.755 429.872 123.872C429.872 123.989 429.867 124.123 429.856 124.272H423.264V123.232H428.56C428.528 122.496 428.283 121.92 427.824 121.504C427.376 121.088 426.811 120.88 426.128 120.88C425.669 120.88 425.243 120.987 424.848 121.2C424.464 121.403 424.155 121.707 423.92 122.112C423.685 122.507 423.568 123.003 423.568 123.6V124.048C423.568 124.709 423.685 125.264 423.92 125.712C424.165 126.16 424.48 126.496 424.864 126.72C425.259 126.944 425.68 127.056 426.128 127.056C426.693 127.056 427.157 126.933 427.52 126.688C427.893 126.432 428.16 126.091 428.32 125.664H429.648C429.52 126.144 429.296 126.576 428.976 126.96C428.656 127.344 428.256 127.648 427.776 127.872C427.307 128.085 426.757 128.192 426.128 128.192ZM435.158 128.192C434.379 128.192 433.696 128.011 433.11 127.648C432.523 127.275 432.07 126.768 431.75 126.128C431.43 125.488 431.27 124.763 431.27 123.952C431.27 123.141 431.43 122.421 431.75 121.792C432.07 121.152 432.523 120.651 433.11 120.288C433.707 119.925 434.395 119.744 435.174 119.744C435.835 119.744 436.411 119.877 436.902 120.144C437.403 120.411 437.787 120.784 438.054 121.264V116.48H439.398V128H438.182L438.07 126.672C437.899 126.939 437.68 127.189 437.414 127.424C437.147 127.648 436.827 127.835 436.454 127.984C436.08 128.123 435.648 128.192 435.158 128.192ZM435.318 127.024C435.851 127.024 436.32 126.896 436.726 126.64C437.131 126.384 437.446 126.032 437.67 125.584C437.894 125.125 438.006 124.587 438.006 123.968C438.006 123.36 437.894 122.827 437.67 122.368C437.446 121.909 437.131 121.552 436.726 121.296C436.32 121.04 435.851 120.912 435.318 120.912C434.795 120.912 434.331 121.04 433.926 121.296C433.52 121.552 433.206 121.909 432.982 122.368C432.758 122.827 432.646 123.36 432.646 123.968C432.646 124.587 432.758 125.125 432.982 125.584C433.206 126.032 433.52 126.384 433.926 126.64C434.331 126.896 434.795 127.024 435.318 127.024Z" fill="#AEB9E1"/>
<path d="M303.48 257L307.608 245.8H309.032L313.144 257H311.72L308.312 247.48L304.888 257H303.48ZM305.368 254.12L305.752 253.032H310.824L311.208 254.12H305.368ZM314.745 257V245.8H316.089V257H314.745ZM325.129 257.192C324.478 257.192 323.934 257.08 323.497 256.856C323.06 256.621 322.734 256.317 322.521 255.944C322.308 255.56 322.201 255.144 322.201 254.696C322.201 254.152 322.34 253.693 322.617 253.32C322.905 252.936 323.305 252.648 323.817 252.456C324.34 252.253 324.953 252.152 325.657 252.152H327.785C327.785 251.651 327.705 251.235 327.545 250.904C327.396 250.563 327.172 250.307 326.873 250.136C326.585 249.965 326.222 249.88 325.785 249.88C325.273 249.88 324.83 250.008 324.457 250.264C324.084 250.52 323.854 250.899 323.769 251.4H322.393C322.457 250.824 322.649 250.344 322.969 249.96C323.3 249.565 323.716 249.267 324.217 249.064C324.718 248.851 325.241 248.744 325.785 248.744C326.532 248.744 327.15 248.883 327.641 249.16C328.142 249.427 328.516 249.805 328.761 250.296C329.006 250.776 329.129 251.347 329.129 252.008V257H327.929L327.849 255.576C327.742 255.8 327.604 256.013 327.433 256.216C327.273 256.408 327.081 256.579 326.857 256.728C326.633 256.867 326.377 256.979 326.089 257.064C325.812 257.149 325.492 257.192 325.129 257.192ZM325.337 256.056C325.71 256.056 326.046 255.981 326.345 255.832C326.654 255.672 326.916 255.459 327.129 255.192C327.342 254.915 327.502 254.611 327.609 254.28C327.726 253.949 327.785 253.603 327.785 253.24V253.192H325.769C325.246 253.192 324.825 253.256 324.505 253.384C324.185 253.501 323.956 253.672 323.817 253.896C323.678 254.109 323.609 254.355 323.609 254.632C323.609 254.92 323.673 255.171 323.801 255.384C323.94 255.597 324.137 255.763 324.393 255.88C324.66 255.997 324.974 256.056 325.337 256.056ZM334.056 257.192C333.437 257.192 332.893 257.069 332.424 256.824C331.965 256.579 331.608 256.2 331.352 255.688C331.107 255.176 330.984 254.536 330.984 253.768V248.936H332.328V253.624C332.328 254.424 332.504 255.027 332.856 255.432C333.208 255.837 333.704 256.04 334.344 256.04C334.792 256.04 335.197 255.933 335.56 255.72C335.923 255.496 336.205 255.181 336.408 254.776C336.621 254.36 336.728 253.853 336.728 253.256V248.936H338.072V257H336.856L336.776 255.592C336.531 256.093 336.168 256.488 335.688 256.776C335.208 257.053 334.664 257.192 334.056 257.192ZM343.388 257C342.908 257 342.492 256.925 342.14 256.776C341.788 256.627 341.516 256.376 341.324 256.024C341.143 255.661 341.052 255.176 341.052 254.568V250.072H339.644V248.936H341.052L341.228 246.984H342.396V248.936H344.732V250.072H342.396V254.568C342.396 255.069 342.497 255.411 342.7 255.592C342.903 255.763 343.26 255.848 343.772 255.848H344.636V257H343.388ZM349.787 257.192C349.04 257.192 348.368 257.021 347.771 256.68C347.174 256.328 346.704 255.837 346.363 255.208C346.022 254.568 345.851 253.827 345.851 252.984C345.851 252.12 346.022 251.373 346.363 250.744C346.715 250.104 347.19 249.613 347.787 249.272C348.395 248.92 349.072 248.744 349.819 248.744C350.587 248.744 351.264 248.92 351.851 249.272C352.448 249.613 352.918 250.104 353.259 250.744C353.611 251.373 353.787 252.115 353.787 252.968C353.787 253.821 353.611 254.568 353.259 255.208C352.907 255.837 352.432 256.328 351.835 256.68C351.238 257.021 350.555 257.192 349.787 257.192ZM349.803 256.04C350.262 256.04 350.688 255.928 351.083 255.704C351.478 255.469 351.798 255.123 352.043 254.664C352.288 254.205 352.411 253.64 352.411 252.968C352.411 252.285 352.288 251.72 352.043 251.272C351.808 250.813 351.494 250.472 351.099 250.248C350.715 250.013 350.288 249.896 349.819 249.896C349.371 249.896 348.944 250.013 348.539 250.248C348.144 250.472 347.824 250.813 347.579 251.272C347.344 251.72 347.227 252.285 347.227 252.968C347.227 253.64 347.344 254.205 347.579 254.664C347.824 255.123 348.139 255.469 348.523 255.704C348.918 255.928 349.344 256.04 349.803 256.04ZM355.591 257V248.936H356.807L356.887 250.088C357.143 249.672 357.485 249.347 357.911 249.112C358.349 248.867 358.823 248.744 359.335 248.744C359.751 248.744 360.125 248.803 360.455 248.92C360.797 249.027 361.095 249.197 361.351 249.432C361.607 249.656 361.815 249.944 361.975 250.296C362.253 249.805 362.631 249.427 363.111 249.16C363.602 248.883 364.125 248.744 364.679 248.744C365.298 248.744 365.837 248.872 366.295 249.128C366.765 249.373 367.122 249.752 367.367 250.264C367.623 250.765 367.751 251.405 367.751 252.184V257H366.423V252.328C366.423 251.517 366.258 250.909 365.927 250.504C365.597 250.099 365.133 249.896 364.535 249.896C364.119 249.896 363.746 250.008 363.415 250.232C363.085 250.445 362.823 250.76 362.631 251.176C362.439 251.592 362.343 252.104 362.343 252.712V257H360.999V252.328C360.999 251.517 360.834 250.909 360.503 250.504C360.173 250.099 359.703 249.896 359.095 249.896C358.69 249.896 358.322 250.008 357.991 250.232C357.671 250.445 357.415 250.76 357.223 251.176C357.031 251.592 356.935 252.104 356.935 252.712V257H355.591ZM372.385 257.192C371.735 257.192 371.191 257.08 370.753 256.856C370.316 256.621 369.991 256.317 369.777 255.944C369.564 255.56 369.457 255.144 369.457 254.696C369.457 254.152 369.596 253.693 369.873 253.32C370.161 252.936 370.561 252.648 371.073 252.456C371.596 252.253 372.209 252.152 372.913 252.152H375.041C375.041 251.651 374.961 251.235 374.801 250.904C374.652 250.563 374.428 250.307 374.129 250.136C373.841 249.965 373.479 249.88 373.041 249.88C372.529 249.88 372.087 250.008 371.713 250.264C371.34 250.52 371.111 250.899 371.025 251.4H369.649C369.713 250.824 369.905 250.344 370.225 249.96C370.556 249.565 370.972 249.267 371.473 249.064C371.975 248.851 372.497 248.744 373.041 248.744C373.788 248.744 374.407 248.883 374.897 249.16C375.399 249.427 375.772 249.805 376.017 250.296C376.263 250.776 376.385 251.347 376.385 252.008V257H375.185L375.105 255.576C374.999 255.8 374.86 256.013 374.689 256.216C374.529 256.408 374.337 256.579 374.113 256.728C373.889 256.867 373.633 256.979 373.345 257.064C373.068 257.149 372.748 257.192 372.385 257.192ZM372.593 256.056C372.967 256.056 373.303 255.981 373.601 255.832C373.911 255.672 374.172 255.459 374.385 255.192C374.599 254.915 374.759 254.611 374.865 254.28C374.983 253.949 375.041 253.603 375.041 253.24V253.192H373.025C372.503 253.192 372.081 253.256 371.761 253.384C371.441 253.501 371.212 253.672 371.073 253.896C370.935 254.109 370.865 254.355 370.865 254.632C370.865 254.92 370.929 255.171 371.057 255.384C371.196 255.597 371.393 255.763 371.649 255.88C371.916 255.997 372.231 256.056 372.593 256.056ZM381.334 257C380.854 257 380.438 256.925 380.086 256.776C379.734 256.627 379.462 256.376 379.27 256.024C379.088 255.661 378.998 255.176 378.998 254.568V250.072H377.59V248.936H378.998L379.174 246.984H380.342V248.936H382.678V250.072H380.342V254.568C380.342 255.069 380.443 255.411 380.646 255.592C380.848 255.763 381.206 255.848 381.718 255.848H382.582V257H381.334ZM384.479 257V248.936H385.823V257H384.479ZM385.151 247.224C384.885 247.224 384.661 247.139 384.479 246.968C384.309 246.787 384.223 246.563 384.223 246.296C384.223 246.029 384.309 245.816 384.479 245.656C384.661 245.485 384.885 245.4 385.151 245.4C385.407 245.4 385.626 245.485 385.807 245.656C385.989 245.816 386.079 246.029 386.079 246.296C386.079 246.563 385.989 246.787 385.807 246.968C385.626 247.139 385.407 247.224 385.151 247.224ZM391.715 257.192C390.968 257.192 390.296 257.021 389.699 256.68C389.102 256.328 388.632 255.837 388.291 255.208C387.95 254.568 387.779 253.827 387.779 252.984C387.779 252.12 387.95 251.373 388.291 250.744C388.643 250.104 389.118 249.613 389.715 249.272C390.323 248.92 391 248.744 391.747 248.744C392.515 248.744 393.192 248.92 393.779 249.272C394.376 249.613 394.846 250.104 395.187 250.744C395.539 251.373 395.715 252.115 395.715 252.968C395.715 253.821 395.539 254.568 395.187 255.208C394.835 255.837 394.36 256.328 393.763 256.68C393.166 257.021 392.483 257.192 391.715 257.192ZM391.731 256.04C392.19 256.04 392.616 255.928 393.011 255.704C393.406 255.469 393.726 255.123 393.971 254.664C394.216 254.205 394.339 253.64 394.339 252.968C394.339 252.285 394.216 251.72 393.971 251.272C393.736 250.813 393.422 250.472 393.027 250.248C392.643 250.013 392.216 249.896 391.747 249.896C391.299 249.896 390.872 250.013 390.467 250.248C390.072 250.472 389.752 250.813 389.507 251.272C389.272 251.72 389.155 252.285 389.155 252.968C389.155 253.64 389.272 254.205 389.507 254.664C389.752 255.123 390.067 255.469 390.451 255.704C390.846 255.928 391.272 256.04 391.731 256.04ZM397.519 257V248.936H398.735L398.799 250.344C399.055 249.843 399.418 249.453 399.887 249.176C400.367 248.888 400.911 248.744 401.519 248.744C402.149 248.744 402.693 248.872 403.151 249.128C403.61 249.373 403.967 249.752 404.223 250.264C404.479 250.765 404.607 251.405 404.607 252.184V257H403.263V252.328C403.263 251.517 403.082 250.909 402.719 250.504C402.367 250.099 401.866 249.896 401.215 249.896C400.767 249.896 400.367 250.008 400.015 250.232C399.663 250.445 399.381 250.76 399.167 251.176C398.965 251.581 398.863 252.088 398.863 252.696V257H397.519ZM415.021 257.192C414.562 257.192 414.146 257.128 413.773 257C413.41 256.861 413.09 256.68 412.813 256.456C412.536 256.232 412.306 255.971 412.125 255.672L412.013 257H410.797V245.48H412.141V250.264C412.397 249.848 412.765 249.491 413.245 249.192C413.725 248.893 414.317 248.744 415.021 248.744C415.8 248.744 416.482 248.931 417.069 249.304C417.656 249.667 418.109 250.168 418.429 250.808C418.76 251.437 418.925 252.157 418.925 252.968C418.925 253.779 418.76 254.504 418.429 255.144C418.109 255.784 417.656 256.285 417.069 256.648C416.482 257.011 415.8 257.192 415.021 257.192ZM414.861 256.024C415.384 256.024 415.848 255.896 416.253 255.64C416.658 255.384 416.973 255.032 417.197 254.584C417.432 254.125 417.549 253.587 417.549 252.968C417.549 252.36 417.432 251.827 417.197 251.368C416.973 250.909 416.658 250.552 416.253 250.296C415.848 250.04 415.384 249.912 414.861 249.912C414.328 249.912 413.858 250.04 413.453 250.296C413.048 250.552 412.733 250.909 412.509 251.368C412.285 251.827 412.173 252.36 412.173 252.968C412.173 253.587 412.285 254.125 412.509 254.584C412.733 255.032 413.048 255.384 413.453 255.64C413.858 255.896 414.328 256.024 414.861 256.024ZM423.661 257.192C423.042 257.192 422.498 257.069 422.029 256.824C421.57 256.579 421.213 256.2 420.957 255.688C420.711 255.176 420.589 254.536 420.589 253.768V248.936H421.933V253.624C421.933 254.424 422.109 255.027 422.461 255.432C422.813 255.837 423.309 256.04 423.949 256.04C424.397 256.04 424.802 255.933 425.165 255.72C425.527 255.496 425.81 255.181 426.013 254.776C426.226 254.36 426.333 253.853 426.333 253.256V248.936H427.677V257H426.461L426.381 255.592C426.135 256.093 425.773 256.488 425.293 256.776C424.813 257.053 424.269 257.192 423.661 257.192ZM432.864 257.192C432.192 257.192 431.606 257.08 431.104 256.856C430.614 256.632 430.219 256.323 429.92 255.928C429.632 255.523 429.456 255.048 429.392 254.504H430.768C430.822 254.781 430.934 255.037 431.104 255.272C431.275 255.507 431.504 255.699 431.792 255.848C432.091 255.987 432.454 256.056 432.88 256.056C433.254 256.056 433.563 256.003 433.808 255.896C434.054 255.779 434.235 255.624 434.352 255.432C434.48 255.24 434.544 255.032 434.544 254.808C434.544 254.477 434.464 254.227 434.304 254.056C434.155 253.885 433.931 253.752 433.632 253.656C433.334 253.549 432.971 253.459 432.544 253.384C432.192 253.32 431.846 253.235 431.504 253.128C431.163 253.021 430.859 252.883 430.592 252.712C430.326 252.531 430.112 252.312 429.952 252.056C429.803 251.8 429.728 251.485 429.728 251.112C429.728 250.653 429.846 250.248 430.08 249.896C430.315 249.533 430.651 249.251 431.088 249.048C431.536 248.845 432.054 248.744 432.64 248.744C433.504 248.744 434.203 248.952 434.736 249.368C435.27 249.784 435.584 250.387 435.68 251.176H434.352C434.299 250.771 434.123 250.456 433.824 250.232C433.536 249.997 433.136 249.88 432.624 249.88C432.123 249.88 431.739 249.981 431.472 250.184C431.216 250.387 431.088 250.653 431.088 250.984C431.088 251.197 431.158 251.389 431.296 251.56C431.446 251.72 431.659 251.859 431.936 251.976C432.224 252.093 432.576 252.189 432.992 252.264C433.526 252.36 434.011 252.488 434.448 252.648C434.886 252.808 435.238 253.048 435.504 253.368C435.782 253.677 435.92 254.12 435.92 254.696C435.92 255.197 435.792 255.635 435.536 256.008C435.291 256.381 434.939 256.675 434.48 256.888C434.022 257.091 433.483 257.192 432.864 257.192ZM437.904 257V248.936H439.248V257H437.904ZM438.576 247.224C438.309 247.224 438.085 247.139 437.904 246.968C437.733 246.787 437.648 246.563 437.648 246.296C437.648 246.029 437.733 245.816 437.904 245.656C438.085 245.485 438.309 245.4 438.576 245.4C438.832 245.4 439.05 245.485 439.232 245.656C439.413 245.816 439.504 246.029 439.504 246.296C439.504 246.563 439.413 246.787 439.232 246.968C439.05 247.139 438.832 247.224 438.576 247.224ZM441.539 257V248.936H442.755L442.819 250.344C443.075 249.843 443.438 249.453 443.907 249.176C444.387 248.888 444.931 248.744 445.539 248.744C446.169 248.744 446.713 248.872 447.171 249.128C447.63 249.373 447.987 249.752 448.243 250.264C448.499 250.765 448.627 251.405 448.627 252.184V257H447.283V252.328C447.283 251.517 447.102 250.909 446.739 250.504C446.387 250.099 445.886 249.896 445.235 249.896C444.787 249.896 444.387 250.008 444.035 250.232C443.683 250.445 443.401 250.76 443.187 251.176C442.985 251.581 442.883 252.088 442.883 252.696V257H441.539ZM454.183 257.192C453.426 257.192 452.754 257.016 452.167 256.664C451.591 256.312 451.138 255.821 450.807 255.192C450.476 254.552 450.311 253.811 450.311 252.968C450.311 252.115 450.471 251.373 450.791 250.744C451.122 250.115 451.58 249.624 452.167 249.272C452.764 248.92 453.447 248.744 454.215 248.744C455.004 248.744 455.671 248.92 456.215 249.272C456.77 249.624 457.191 250.088 457.479 250.664C457.778 251.229 457.927 251.853 457.927 252.536C457.927 252.643 457.927 252.755 457.927 252.872C457.927 252.989 457.922 253.123 457.911 253.272H451.319V252.232H456.615C456.583 251.496 456.338 250.92 455.879 250.504C455.431 250.088 454.866 249.88 454.183 249.88C453.724 249.88 453.298 249.987 452.903 250.2C452.519 250.403 452.21 250.707 451.975 251.112C451.74 251.507 451.623 252.003 451.623 252.6V253.048C451.623 253.709 451.74 254.264 451.975 254.712C452.22 255.16 452.535 255.496 452.919 255.72C453.314 255.944 453.735 256.056 454.183 256.056C454.748 256.056 455.212 255.933 455.575 255.688C455.948 255.432 456.215 255.091 456.375 254.664H457.703C457.575 255.144 457.351 255.576 457.031 255.96C456.711 256.344 456.311 256.648 455.831 256.872C455.362 257.085 454.812 257.192 454.183 257.192ZM462.701 257.192C462.029 257.192 461.442 257.08 460.941 256.856C460.45 256.632 460.055 256.323 459.757 255.928C459.469 255.523 459.293 255.048 459.229 254.504H460.605C460.658 254.781 460.77 255.037 460.941 255.272C461.111 255.507 461.341 255.699 461.629 255.848C461.927 255.987 462.29 256.056 462.717 256.056C463.09 256.056 463.399 256.003 463.645 255.896C463.89 255.779 464.071 255.624 464.189 255.432C464.317 255.24 464.381 255.032 464.381 254.808C464.381 254.477 464.301 254.227 464.141 254.056C463.991 253.885 463.767 253.752 463.469 253.656C463.17 253.549 462.807 253.459 462.381 253.384C462.029 253.32 461.682 253.235 461.341 253.128C460.999 253.021 460.695 252.883 460.429 252.712C460.162 252.531 459.949 252.312 459.789 252.056C459.639 251.8 459.565 251.485 459.565 251.112C459.565 250.653 459.682 250.248 459.917 249.896C460.151 249.533 460.487 249.251 460.925 249.048C461.373 248.845 461.89 248.744 462.477 248.744C463.341 248.744 464.039 248.952 464.573 249.368C465.106 249.784 465.421 250.387 465.517 251.176H464.189C464.135 250.771 463.959 250.456 463.661 250.232C463.373 249.997 462.973 249.88 462.461 249.88C461.959 249.88 461.575 249.981 461.309 250.184C461.053 250.387 460.925 250.653 460.925 250.984C460.925 251.197 460.994 251.389 461.133 251.56C461.282 251.72 461.495 251.859 461.773 251.976C462.061 252.093 462.413 252.189 462.829 252.264C463.362 252.36 463.847 252.488 464.285 252.648C464.722 252.808 465.074 253.048 465.341 253.368C465.618 253.677 465.757 254.12 465.757 254.696C465.757 255.197 465.629 255.635 465.373 256.008C465.127 256.381 464.775 256.675 464.317 256.888C463.858 257.091 463.319 257.192 462.701 257.192ZM470.652 257.192C469.98 257.192 469.393 257.08 468.892 256.856C468.401 256.632 468.007 256.323 467.708 255.928C467.42 255.523 467.244 255.048 467.18 254.504H468.556C468.609 254.781 468.721 255.037 468.892 255.272C469.063 255.507 469.292 255.699 469.58 255.848C469.879 255.987 470.241 256.056 470.668 256.056C471.041 256.056 471.351 256.003 471.596 255.896C471.841 255.779 472.023 255.624 472.14 255.432C472.268 255.24 472.332 255.032 472.332 254.808C472.332 254.477 472.252 254.227 472.092 254.056C471.943 253.885 471.719 253.752 471.42 253.656C471.121 253.549 470.759 253.459 470.332 253.384C469.98 253.32 469.633 253.235 469.292 253.128C468.951 253.021 468.647 252.883 468.38 252.712C468.113 252.531 467.9 252.312 467.74 252.056C467.591 251.8 467.516 251.485 467.516 251.112C467.516 250.653 467.633 250.248 467.868 249.896C468.103 249.533 468.439 249.251 468.876 249.048C469.324 248.845 469.841 248.744 470.428 248.744C471.292 248.744 471.991 248.952 472.524 249.368C473.057 249.784 473.372 250.387 473.468 251.176H472.14C472.087 250.771 471.911 250.456 471.612 250.232C471.324 249.997 470.924 249.88 470.412 249.88C469.911 249.88 469.527 249.981 469.26 250.184C469.004 250.387 468.876 250.653 468.876 250.984C468.876 251.197 468.945 251.389 469.084 251.56C469.233 251.72 469.447 251.859 469.724 251.976C470.012 252.093 470.364 252.189 470.78 252.264C471.313 252.36 471.799 252.488 472.236 252.648C472.673 252.808 473.025 253.048 473.292 253.368C473.569 253.677 473.708 254.12 473.708 254.696C473.708 255.197 473.58 255.635 473.324 256.008C473.079 256.381 472.727 256.675 472.268 256.888C471.809 257.091 471.271 257.192 470.652 257.192Z" fill="#AEB9E1"/>
<circle cx="145.5" cy="130.5" r="89" stroke="#535E82" stroke-width="3"/>
<path d="M61.5 130.5C61.5 127.462 59.0376 125 56 125C52.9624 125 50.5 127.462 50.5 130.5H61.5ZM237 130.5H231.5C231.5 177.444 193.444 215.5 146.5 215.5V221V226.5C199.519 226.5 242.5 183.519 242.5 130.5H237ZM146.5 221V215.5C99.5558 215.5 61.5 177.444 61.5 130.5H56H50.5C50.5 183.519 93.4807 226.5 146.5 226.5V221ZM146.5 40V45.5C193.444 45.5 231.5 83.5558 231.5 130.5H237H242.5C242.5 77.4807 199.519 34.5 146.5 34.5V40Z" fill="url(#paint0_linear_2037_43068)"/>
<g filter="url(#filter0_d_2037_43068)">
<circle cx="145.5" cy="38.5" r="11.5" fill="url(#paint1_linear_2037_43068)"/>
</g>
<circle cx="145.5" cy="38.5" r="6.5" fill="#D9D9D9"/>
<defs>
<filter id="filter0_d_2037_43068" x="130" y="27" width="31" height="31" filterUnits="userSpaceOnUse" color-interpolation-filters="sRGB">
<feFlood flood-opacity="0" result="BackgroundImageFix"/>
<feColorMatrix in="SourceAlpha" type="matrix" values="0 0 0 0 0 0 0 0 0 0 0 0 0 0 0 0 0 0 127 0" result="hardAlpha"/>
<feOffset dy="4"/>
<feGaussianBlur stdDeviation="2"/>
<feComposite in2="hardAlpha" operator="out"/>
<feColorMatrix type="matrix" values="0 0 0 0 0 0 0 0 0 0 0 0 0 0 0 0 0 0 0.25 0"/>
<feBlend mode="normal" in2="BackgroundImageFix" result="effect1_dropShadow_2037_43068"/>
<feBlend mode="normal" in="SourceGraphic" in2="effect1_dropShadow_2037_43068" result="shape"/>
</filter>
<linearGradient id="paint0_linear_2037_43068" x1="118.32" y1="64.9282" x2="261.475" y2="118.493" gradientUnits="userSpaceOnUse">
<stop stop-color="#732CFF"/>
<stop offset="1" stop-color="#F46D6B"/>
</linearGradient>
<linearGradient id="paint1_linear_2037_43068" x1="141.919" y1="30.1677" x2="160.11" y2="36.9742" gradientUnits="userSpaceOnUse">
<stop stop-color="#732CFF"/>
<stop offset="1" stop-color="#F46D6B"/>
</linearGradient>
</defs>
</svg>
