<svg width="70" height="71" viewBox="0 0 70 71" fill="none" xmlns="http://www.w3.org/2000/svg">
<rect opacity="0.4" y="0.291016" width="70" height="70" rx="16" fill="#151951"/>
<path d="M40.1367 36.68L39.4788 37.3726C39.4788 37.3726 37.915 39.019 33.6467 34.5252C29.3784 30.0314 30.9421 28.3851 30.9421 28.3851L31.3564 27.9489C32.377 26.8745 32.4732 25.1494 31.5828 23.89L29.7614 21.3139C28.6593 19.7552 26.5297 19.5493 25.2665 20.8791L22.9993 23.2661C22.373 23.9255 21.9533 24.7803 22.0042 25.7286C22.1344 28.1546 23.171 33.3741 28.9555 39.4642C35.0897 45.9223 40.8454 46.179 43.1991 45.9467C43.9436 45.8732 44.591 45.4718 45.1127 44.9225L47.1647 42.7621C48.5498 41.304 48.1592 38.8041 46.387 37.784L43.6274 36.1956C42.4637 35.5258 41.0462 35.7225 40.1367 36.68Z" fill="url(#paint0_linear_2031_43064)"/>
<defs>
<linearGradient id="paint0_linear_2031_43064" x1="30.9521" y1="23.5808" x2="51.5158" y2="31.2752" gradientUnits="userSpaceOnUse">
<stop stop-color="#732CFF"/>
<stop offset="1" stop-color="#F46D6B"/>
</linearGradient>
</defs>
</svg>
