<svg width="98" height="101" viewBox="0 0 98 101" fill="none" xmlns="http://www.w3.org/2000/svg">
<path fill-rule="evenodd" clip-rule="evenodd" d="M49 100.102C36.4323 100.102 23.8647 95.2046 14.3465 85.5016C-4.78218 65.9109 -4.78218 34.2145 14.3465 14.6238C33.4753 -4.87459 64.5247 -4.87459 83.6535 14.6238C102.782 34.2145 102.782 65.9109 83.6535 85.5016C74.1353 95.2046 61.5677 100.102 49 100.102ZM49 2.61056C36.6172 2.61056 24.9736 7.50825 16.1947 16.4719C-1.91749 35.0462 -1.91749 65.0792 16.1947 83.5611C34.3069 102.135 63.6931 102.135 81.8053 83.5611C90.5842 74.6898 95.4818 62.769 95.4818 50.0165C95.4818 37.3564 90.5842 25.4356 81.8053 16.4719C73.0264 7.50825 61.3828 2.61056 49 2.61056Z" fill="white"/>
<path d="M51.3105 100.194C42.5316 100.194 33.7528 96.9601 26.8221 90.399C19.7066 83.7456 15.6405 74.5971 15.1785 64.8017C14.8089 54.9139 18.228 45.4881 24.6966 38.2802C25.0663 37.849 25.4667 37.4485 25.898 37.0789C26.36 36.5245 27.1917 36.5245 27.6537 37.0789C28.2082 37.541 28.2082 38.465 27.6537 38.9271C27.3457 39.2967 27.0069 39.6664 26.6372 40.036C20.5382 46.7819 17.3963 55.5608 17.7659 64.7093C18.1356 73.7654 22.0168 82.267 28.5778 88.4584C42.162 101.303 63.4161 100.379 75.8914 86.5178C81.9904 79.772 85.1323 70.9931 84.7626 61.8446C84.393 52.7885 80.6042 44.2868 74.0432 38.0954C68.4986 32.9205 61.6604 29.7786 54.1752 29.1317C53.5283 29.0393 52.9739 28.4848 53.0663 27.7456C53.0663 27.0063 53.7132 26.4518 54.4524 26.5443C62.3996 27.1911 69.7924 30.5179 75.799 36.1548C82.8221 42.8083 86.9805 51.9568 87.3501 61.7522C87.7198 71.64 84.393 81.0657 77.832 88.2736C70.7164 96.1284 61.0135 100.194 51.3105 100.194Z" fill="white"/>
<path fill-rule="evenodd" clip-rule="evenodd" d="M40.776 35.3231C39.2975 35.3231 37.9113 34.6763 36.8948 33.6598C34.7694 31.5343 34.7694 27.9304 36.8948 25.805C39.0203 23.5871 42.5318 23.5871 44.6572 25.805C46.7826 27.9304 46.7826 31.5343 44.6572 33.6598C43.5483 34.6763 42.2546 35.3231 40.776 35.3231ZM40.776 26.8215C40.0368 26.8215 39.2975 27.0987 38.743 27.6532C37.6341 28.7621 37.6341 30.6102 38.743 31.8116C39.8519 32.9205 41.7001 32.9205 42.809 31.8116C43.9179 30.6102 43.9179 28.7621 42.809 27.6532C42.2546 27.0987 41.5153 26.8215 40.776 26.8215Z" fill="white"/>
</svg>
