<svg width="256" height="256" viewBox="0 0 256 256" fill="none" xmlns="http://www.w3.org/2000/svg">
<rect width="256" height="256" rx="128" fill="url(#paint0_linear_491_41566)"/>
<path d="M176.532 76.641L143.046 57.9535C140.772 56.6844 137.913 57.3635 136.468 59.5161L135.068 61.6012C134.525 62.411 134.231 63.3636 134.224 64.341L133.828 120.351C133.815 122.253 134.881 124.003 136.581 124.866L189.03 151.511C189.78 151.892 190.612 152.079 191.451 152.054L195.234 151.942C197.994 151.861 200.154 149.557 200.059 146.798L198.771 109.413C198.658 106.127 195.456 103.827 192.311 104.773L157.971 115.104C152.859 116.641 149.189 110.157 153.154 106.592L177.465 84.7272C180.01 82.4389 179.534 78.3163 176.532 76.641Z" fill="white"/>
<path d="M81.4804 77.3274L115.86 59.278C118.171 58.065 121.011 58.8145 122.393 61.0023L123.732 63.1206C124.252 63.9433 124.518 64.9023 124.497 65.8791L123.283 121.881C123.242 123.782 122.126 125.504 120.402 126.325L67.2056 151.669C66.4451 152.031 65.6073 152.197 64.7694 152.152L60.9925 151.947C58.2351 151.797 56.1411 149.442 56.3155 146.686L58.6624 109.584C58.8746 106.23 62.2717 104.007 65.4188 105.163L96.4918 116.579C101.435 118.396 105.516 112.29 101.922 108.455L80.1102 85.1791C77.8588 82.7766 78.5404 78.871 81.4804 77.3274Z" fill="white"/>
<path d="M152.309 192.01L186.857 174.727C189.443 173.434 190.47 170.413 189.131 168.04L188.022 166.075C187.596 165.321 186.961 164.696 186.183 164.264L133.752 135.191C132.18 134.319 130.205 134.332 128.582 135.225L77.2064 163.478C76.3719 163.937 75.6805 164.602 75.209 165.399L73.6409 168.049C72.2349 170.426 73.0915 173.365 75.5542 174.614L111.529 192.861C114.49 194.363 118.245 192.715 119.061 189.557L126.527 160.65C127.791 155.757 135.042 155.414 136.459 160.181L145.089 189.196C145.953 192.101 149.423 193.454 152.309 192.01Z" fill="white"/>
<defs>
<linearGradient id="paint0_linear_491_41566" x1="88.1437" y1="35.2575" x2="290.617" y2="111.018" gradientUnits="userSpaceOnUse">
<stop stop-color="#732CFF"/>
<stop offset="1" stop-color="#F46D6B"/>
</linearGradient>
</defs>
</svg>
