<svg width="1920" height="920" viewBox="0 0 1920 920" fill="none" xmlns="http://www.w3.org/2000/svg">
<path d="M844.978 87.3072L845.808 87.2708L846.321 86.6167L846.358 87.4472L847.012 87.9603L846.181 87.9966L845.668 88.6508L845.632 87.8202L844.978 87.3072Z" fill="#6F6C7D"/>
<path d="M848.046 263.58L848.877 263.543L849.39 262.889L849.426 263.72L850.08 264.233L849.25 264.269L848.737 264.923L848.7 264.093L848.046 263.58Z" fill="#6F6C7D"/>
<path d="M513.141 507.514L513.972 507.478L514.485 506.824L514.521 507.654L515.175 508.167L514.345 508.204L513.831 508.858L513.795 508.027L513.141 507.514Z" fill="#6F6C7D"/>
<path d="M175.185 573.92L176.015 573.883L176.528 573.229L176.565 574.06L177.219 574.573L176.388 574.609L175.875 575.263L175.839 574.433L175.185 573.92Z" fill="#6F6C7D"/>
<path d="M112.157 381.749L112.987 381.712L113.5 381.058L113.537 381.889L114.191 382.402L113.36 382.438L112.847 383.092L112.811 382.262L112.157 381.749Z" fill="#6F6C7D"/>
<path d="M206.746 333.874L207.577 333.837L208.09 333.183L208.126 334.014L208.78 334.527L207.95 334.563L207.437 335.217L207.401 334.387L206.746 333.874Z" fill="#6F6C7D"/>
<path d="M192.169 456.954L193 456.917L193.513 456.263L193.549 457.094L194.203 457.607L193.373 457.643L192.86 458.297L192.823 457.467L192.169 456.954Z" fill="#6F6C7D"/>
<path d="M37.4701 506.973L38.3006 506.937L38.8136 506.283L38.85 507.113L39.5041 507.626L38.6736 507.663L38.1606 508.317L38.1242 507.486L37.4701 506.973Z" fill="#6F6C7D"/>
<path d="M71.5511 664.794L72.3817 664.757L72.8947 664.103L72.931 664.934L73.5852 665.447L72.7547 665.483L72.2416 666.137L72.2053 665.307L71.5511 664.794Z" fill="#6F6C7D"/>
<path d="M619.128 145.171L619.959 145.135L620.472 144.481L620.508 145.311L621.162 145.825L620.332 145.861L619.819 146.515L619.782 145.684L619.128 145.171Z" fill="#6F6C7D"/>
<path d="M785.93 56.0572L786.761 56.0208L787.274 55.3667L787.31 56.1972L787.964 56.7103L787.134 56.7466L786.621 57.4008L786.584 56.5702L785.93 56.0572Z" fill="#6F6C7D"/>
<path d="M667.726 86.1705L668.556 86.1341L669.069 85.48L669.106 86.3105L669.76 86.8235L668.929 86.8599L668.416 87.514L668.38 86.6835L667.726 86.1705Z" fill="#6F6C7D"/>
<path d="M554.183 655.968L555.014 655.932L555.527 655.278L555.563 656.108L556.217 656.621L555.386 656.658L554.873 657.312L554.837 656.481L554.183 655.968Z" fill="#6F6C7D"/>
<path d="M179.075 887.476L179.905 887.44L180.418 886.786L180.454 887.616L181.109 888.129L180.278 888.166L179.765 888.82L179.729 887.989L179.075 887.476Z" fill="#6F6C7D"/>
<path d="M312.898 681.718L313.728 681.682L314.241 681.028L314.278 681.858L314.932 682.371L314.101 682.408L313.588 683.062L313.552 682.231L312.898 681.718Z" fill="#6F6C7D"/>
<path d="M547.18 142.631L548.011 142.595L548.524 141.941L548.56 142.771L549.214 143.284L548.384 143.321L547.871 143.975L547.834 143.144L547.18 142.631Z" fill="#6F6C7D"/>
<path d="M134.778 780.721L135.608 780.685L136.121 780.031L136.158 780.861L136.812 781.374L135.981 781.411L135.468 782.065L135.432 781.234L134.778 780.721Z" fill="#6F6C7D"/>
<path d="M686.893 623.512L687.723 623.476L688.236 622.822L688.273 623.652L688.927 624.165L688.096 624.202L687.583 624.856L687.547 624.025L686.893 623.512Z" fill="#6F6C7D"/>
<path d="M830.154 324.404L830.984 324.368L831.497 323.713L831.534 324.544L832.188 325.057L831.357 325.093L830.844 325.747L830.808 324.917L830.154 324.404Z" fill="#6F6C7D"/>
<path d="M1030 374.178L1030.83 374.142L1031.34 373.488L1031.38 374.318L1032.03 374.831L1031.2 374.868L1030.69 375.522L1030.65 374.691L1030 374.178Z" fill="white"/>
<path d="M971.584 229.628L972.415 229.591L972.928 228.937L972.964 229.768L973.618 230.281L972.788 230.317L972.275 230.971L972.238 230.141L971.584 229.628Z" fill="white"/>
<path d="M807.586 182.586L808.417 182.55L808.93 181.896L808.966 182.727L809.62 183.24L808.79 183.276L808.277 183.93L808.24 183.1L807.586 182.586Z" fill="white"/>
<path d="M642.342 376.699L643.173 376.662L643.686 376.008L643.722 376.839L644.376 377.352L643.546 377.388L643.033 378.042L642.996 377.212L642.342 376.699Z" fill="white"/>
<path d="M1542.86 125.809L1543.69 125.773L1544.21 125.119L1544.24 125.949L1544.9 126.462L1544.07 126.499L1543.55 127.153L1543.52 126.322L1542.86 125.809Z" fill="white"/>
<path d="M348.163 535.285L348.994 535.248L349.507 534.594L349.543 535.425L350.197 535.938L349.367 535.974L348.854 536.628L348.818 535.798L348.163 535.285Z" fill="white"/>
<path d="M134.855 506.782L135.685 506.745L136.198 506.091L136.235 506.922L136.889 507.435L136.058 507.471L135.545 508.125L135.509 507.295L134.855 506.782Z" fill="white"/>
<path d="M713.779 201.253L714.609 201.216L715.122 200.562L715.159 201.393L715.813 201.906L714.982 201.942L714.469 202.596L714.433 201.766L713.779 201.253Z" fill="white"/>
<path d="M799.659 1.21735L800.489 1.18101L801.002 0.526866L801.038 1.35739L801.693 1.87042L800.862 1.90677L800.349 2.56091L800.313 1.73038L799.659 1.21735Z" fill="white"/>
<path d="M702.529 110.828L703.359 110.791L703.872 110.137L703.909 110.968L704.563 111.481L703.732 111.517L703.219 112.171L703.183 111.341L702.529 110.828Z" fill="white"/>
<g filter="url(#filter0_f_2092_43064)">
<path d="M689.25 280.551L690.081 280.515L690.594 279.861L690.63 280.691L691.284 281.204L690.454 281.241L689.941 281.895L689.904 281.064L689.25 280.551Z" fill="white"/>
</g>
<g filter="url(#filter1_f_2092_43064)">
<path d="M1413.86 170.809L1414.7 170.773L1415.21 170.119L1415.24 170.949L1415.9 171.462L1415.07 171.499L1414.56 172.153L1414.52 171.322L1413.86 170.809Z" fill="white"/>
</g>
<g filter="url(#filter2_f_2092_43064)">
<path d="M455.827 557.343L456.657 557.307L457.17 556.653L457.206 557.483L457.861 557.996L457.03 558.033L456.517 558.687L456.481 557.856L455.827 557.343Z" fill="white"/>
</g>
<g filter="url(#filter3_f_2092_43064)">
<path d="M418.086 757.12L418.917 757.083L419.43 756.429L419.466 757.26L420.12 757.773L419.29 757.809L418.777 758.463L418.74 757.633L418.086 757.12Z" fill="white"/>
</g>
<g filter="url(#filter4_f_2092_43064)">
<path d="M212.647 775.391L213.477 775.355L213.99 774.701L214.027 775.531L214.681 776.044L213.85 776.081L213.337 776.735L213.301 775.904L212.647 775.391Z" fill="white"/>
</g>
<g filter="url(#filter5_f_2092_43064)">
<path d="M723.195 567.503L724.025 567.467L724.538 566.813L724.575 567.644L725.229 568.157L724.398 568.193L723.885 568.847L723.849 568.017L723.195 567.503Z" fill="white"/>
</g>
<g filter="url(#filter6_f_2092_43064)">
<path d="M847.258 425.562L848.089 425.526L848.602 424.872L848.638 425.702L849.292 426.215L848.462 426.251L847.949 426.906L847.912 426.075L847.258 425.562Z" fill="white"/>
</g>
<g filter="url(#filter7_f_2092_43064)">
<path d="M430.721 436.408L431.552 436.371L432.065 435.717L432.101 436.548L432.755 437.061L431.925 437.097L431.412 437.751L431.375 436.921L430.721 436.408Z" fill="white"/>
</g>
<g filter="url(#filter8_f_2092_43064)">
<path d="M315.227 430.568L317.774 430.456L319.347 428.45L319.459 430.997L321.465 432.57L318.918 432.682L317.344 434.688L317.233 432.141L315.227 430.568Z" fill="#868592"/>
</g>
<g filter="url(#filter9_f_2092_43064)">
<path d="M248.483 647.092L251.03 646.981L252.603 644.975L252.714 647.522L254.72 649.095L252.173 649.206L250.6 651.212L250.489 648.665L248.483 647.092Z" fill="#6E6B7C"/>
</g>
<g filter="url(#filter10_f_2092_43064)">
<path d="M619.288 611.98L621.835 611.868L623.409 609.862L623.52 612.409L625.526 613.983L622.979 614.094L621.406 616.1L621.294 613.553L619.288 611.98Z" fill="#868592"/>
</g>
<g filter="url(#filter11_f_2092_43064)">
<path d="M120.913 639.606L123.46 639.494L125.034 637.488L125.145 640.035L127.151 641.609L124.604 641.72L123.031 643.726L122.919 641.179L120.913 639.606Z" fill="white"/>
</g>
<g filter="url(#filter12_f_2092_43064)">
<path d="M623.393 471.401L625.94 471.289L627.513 469.283L627.625 471.83L629.631 473.403L627.084 473.515L625.51 475.521L625.399 472.974L623.393 471.401Z" fill="#868592"/>
</g>
<g filter="url(#filter13_f_2092_43064)">
<path d="M878.095 65.0882L880.642 64.9768L882.215 62.9708L882.327 65.5177L884.333 67.0909L881.786 67.2024L880.213 69.2084L880.101 66.6615L878.095 65.0882Z" fill="white"/>
</g>
<g filter="url(#filter14_f_2092_43064)">
<path d="M784.932 224.53L787.479 224.418L789.052 222.412L789.164 224.959L791.17 226.532L788.623 226.644L787.049 228.65L786.938 226.103L784.932 224.53Z" fill="#6E6B7C"/>
</g>
<g filter="url(#filter15_f_2092_43064)">
<path d="M1270.54 708.911L1273.08 708.799L1274.66 706.793L1274.77 709.34L1276.77 710.913L1274.23 711.025L1272.65 713.031L1272.54 710.484L1270.54 708.911Z" fill="#6E6B7C"/>
</g>
<g filter="url(#filter16_f_2092_43064)">
<path d="M609.351 272.011L611.898 271.9L613.471 269.894L613.583 272.441L615.589 274.014L613.042 274.125L611.468 276.131L611.357 273.584L609.351 272.011Z" fill="white"/>
</g>
<g filter="url(#filter17_f_2092_43064)">
<path d="M675.579 165.327L678.126 165.215L679.7 163.209L679.811 165.756L681.817 167.329L679.27 167.441L677.697 169.447L677.585 166.9L675.579 165.327Z" fill="white"/>
</g>
<path d="M1087.02 563.54L1087.64 564.102L1088.46 564.002L1087.9 564.615L1088 565.44L1087.39 564.879L1086.56 564.978L1087.12 564.365L1087.02 563.54Z" fill="#6F6C7D"/>
<path d="M964.551 710.354L965.164 710.915L965.989 710.815L965.427 711.428L965.527 712.254L964.914 711.692L964.089 711.792L964.65 711.179L964.551 710.354Z" fill="#6F6C7D"/>
<path d="M555.247 646.027L555.86 646.589L556.685 646.489L556.124 647.102L556.223 647.927L555.61 647.366L554.785 647.466L555.347 646.853L555.247 646.027Z" fill="#6F6C7D"/>
<path d="M269.322 454.012L269.935 454.573L270.76 454.474L270.199 455.087L270.299 455.912L269.686 455.35L268.86 455.45L269.422 454.837L269.322 454.012Z" fill="#6F6C7D"/>
<path d="M360.639 273.559L361.252 274.12L362.078 274.02L361.516 274.633L361.616 275.459L361.003 274.897L360.178 274.997L360.739 274.384L360.639 273.559Z" fill="#6F6C7D"/>
<path d="M461.378 306.591L461.991 307.152L462.816 307.053L462.254 307.666L462.354 308.491L461.741 307.929L460.916 308.029L461.478 307.416L461.378 306.591Z" fill="#6F6C7D"/>
<path d="M364.039 383.314L364.652 383.875L365.477 383.775L364.916 384.388L365.015 385.214L364.402 384.652L363.577 384.752L364.139 384.139L364.039 383.314Z" fill="#6F6C7D"/>
<path d="M219.281 309.294L219.894 309.856L220.719 309.756L220.158 310.369L220.258 311.194L219.645 310.632L218.819 310.732L219.381 310.119L219.281 309.294Z" fill="#6F6C7D"/>
<path d="M131.783 444.988L132.396 445.55L133.221 445.45L132.66 446.063L132.76 446.888L132.147 446.327L131.321 446.427L131.883 445.814L131.783 444.988Z" fill="#6F6C7D"/>
<path d="M886.408 464.757L887.021 465.318L887.846 465.219L887.285 465.832L887.385 466.657L886.772 466.095L885.946 466.195L886.508 465.582L886.408 464.757Z" fill="#6F6C7D"/>
<path d="M1067.37 499.689L1067.98 500.251L1068.81 500.151L1068.24 500.764L1068.34 501.59L1067.73 501.028L1066.91 501.128L1067.47 500.515L1067.37 499.689Z" fill="#6F6C7D"/>
<path d="M962.492 457.4L963.105 457.962L963.93 457.862L963.369 458.475L963.469 459.3L962.856 458.739L962.03 458.839L962.592 458.226L962.492 457.4Z" fill="#6F6C7D"/>
<path d="M479.296 780.021L479.909 780.582L480.734 780.482L480.172 781.095L480.272 781.921L479.659 781.359L478.834 781.459L479.396 780.846L479.296 780.021Z" fill="#6F6C7D"/>
<path d="M50.3534 678.48L50.9663 679.041L51.7916 678.941L51.2301 679.554L51.3299 680.38L50.7169 679.818L49.8916 679.918L50.4531 679.305L50.3534 678.48Z" fill="#6F6C7D"/>
<path d="M290.474 627.614L291.087 628.176L291.913 628.076L291.351 628.689L291.451 629.514L290.838 628.953L290.013 629.053L290.574 628.44L290.474 627.614Z" fill="#6F6C7D"/>
<path d="M837.329 412.085L837.942 412.647L838.767 412.547L838.206 413.16L838.305 413.985L837.692 413.423L836.867 413.523L837.429 412.91L837.329 412.085Z" fill="#6F6C7D"/>
<path d="M94.5184 571.671L95.1314 572.232L95.9567 572.133L95.3951 572.746L95.4949 573.571L94.8819 573.009L94.0566 573.109L94.6182 572.496L94.5184 571.671Z" fill="#6F6C7D"/>
<path d="M596.087 850.911L596.7 851.473L597.525 851.373L596.963 851.986L597.063 852.811L596.45 852.25L595.625 852.349L596.187 851.736L596.087 850.911Z" fill="#6F6C7D"/>
<path d="M908.889 740.711L909.502 741.273L910.328 741.173L909.766 741.786L909.866 742.611L909.253 742.049L908.428 742.149L908.989 741.536L908.889 740.711Z" fill="#6F6C7D"/>
<path d="M1015 917.216L1015.62 917.777L1016.44 917.678L1015.88 918.291L1015.98 919.116L1015.37 918.554L1014.54 918.654L1015.1 918.041L1015 917.216Z" fill="white"/>
<path d="M1075.91 753.7L1076.53 754.262L1077.35 754.162L1076.79 754.775L1076.89 755.6L1076.28 755.039L1075.45 755.139L1076.01 754.526L1075.91 753.7Z" fill="white"/>
<path d="M993.212 624.473L993.825 625.034L994.65 624.934L994.088 625.547L994.188 626.373L993.575 625.811L992.75 625.911L993.312 625.298L993.212 624.473Z" fill="white"/>
<path d="M739.108 644.885L739.721 645.446L740.547 645.347L739.985 645.96L740.085 646.785L739.472 646.223L738.646 646.323L739.208 645.71L739.108 644.885Z" fill="white"/>
<path d="M418.955 549.008L419.568 549.569L420.393 549.47L419.832 550.083L419.931 550.908L419.318 550.346L418.493 550.446L419.055 549.833L418.955 549.008Z" fill="white"/>
<path d="M288.277 378.022L288.89 378.583L289.715 378.483L289.154 379.096L289.254 379.922L288.641 379.36L287.815 379.46L288.377 378.847L288.277 378.022Z" fill="white"/>
<path d="M913.681 571.34L914.293 571.901L915.119 571.802L914.557 572.415L914.657 573.24L914.044 572.678L913.219 572.778L913.78 572.165L913.681 571.34Z" fill="white"/>
<path d="M1115.85 470.619L1116.47 471.181L1117.29 471.081L1116.73 471.694L1116.83 472.519L1116.22 471.958L1115.39 472.057L1115.95 471.444L1115.85 470.619Z" fill="white"/>
<path d="M969.666 499.445L970.279 500.007L971.104 499.907L970.543 500.52L970.642 501.345L970.029 500.784L969.204 500.884L969.766 500.271L969.666 499.445Z" fill="white"/>
<g filter="url(#filter18_f_2092_43064)">
<path d="M840.264 610.068L840.876 610.63L841.702 610.53L841.14 611.143L841.24 611.968L840.627 611.407L839.802 611.507L840.363 610.894L840.264 610.068Z" fill="white"/>
</g>
<g filter="url(#filter19_f_2092_43064)">
<path d="M479.486 640.733L480.099 641.295L480.924 641.195L480.363 641.808L480.463 642.634L479.85 642.072L479.024 642.172L479.586 641.559L479.486 640.733Z" fill="white"/>
</g>
<g filter="url(#filter20_f_2092_43064)">
<path d="M311.536 755.311L312.149 755.872L312.974 755.772L312.413 756.385L312.512 757.211L311.899 756.649L311.074 756.749L311.636 756.136L311.536 755.311Z" fill="white"/>
</g>
<g filter="url(#filter21_f_2092_43064)">
<path d="M153.349 622.963L153.962 623.524L154.788 623.425L154.226 624.038L154.326 624.863L153.713 624.301L152.888 624.401L153.449 623.788L153.349 622.963Z" fill="white"/>
</g>
<g filter="url(#filter22_f_2092_43064)">
<path d="M661.36 836.977L661.973 837.538L662.798 837.438L662.237 838.051L662.337 838.877L661.724 838.315L660.898 838.415L661.46 837.802L661.36 836.977Z" fill="white"/>
</g>
<g filter="url(#filter23_f_2092_43064)">
<path d="M849.455 824.335L850.068 824.897L850.893 824.797L850.332 825.41L850.431 826.235L849.818 825.673L848.993 825.773L849.555 825.16L849.455 824.335Z" fill="white"/>
</g>
<g filter="url(#filter24_f_2092_43064)">
<path d="M547.248 537.467L547.861 538.028L548.686 537.929L548.125 538.542L548.224 539.367L547.611 538.805L546.786 538.905L547.348 538.292L547.248 537.467Z" fill="white"/>
</g>
<g filter="url(#filter25_f_2092_43064)">
<path d="M469.711 451.672L471.591 453.394L474.122 453.088L472.4 454.968L472.706 457.498L470.826 455.776L468.295 456.082L470.017 454.203L469.711 451.672Z" fill="#868592"/>
</g>
<g filter="url(#filter26_f_2092_43064)">
<path d="M269.409 557.582L271.289 559.304L273.82 558.998L272.098 560.878L272.404 563.409L270.524 561.686L267.993 561.992L269.715 560.113L269.409 557.582Z" fill="#6E6B7C"/>
</g>
<g filter="url(#filter27_f_2092_43064)">
<path d="M556.438 794.954L558.318 796.676L560.848 796.37L559.126 798.25L559.432 800.781L557.553 799.059L555.022 799.365L556.744 797.485L556.438 794.954Z" fill="#868592"/>
</g>
<g filter="url(#filter28_f_2092_43064)">
<path d="M184.498 462.083L186.378 463.805L188.909 463.499L187.187 465.379L187.493 467.91L185.613 466.187L183.082 466.493L184.804 464.614L184.498 462.083Z" fill="white"/>
</g>
<g filter="url(#filter29_f_2092_43064)">
<path d="M658.745 698.451L660.625 700.173L663.156 699.867L661.434 701.747L661.74 704.278L659.86 702.556L657.329 702.862L659.051 700.982L658.745 698.451Z" fill="#868592"/>
</g>
<g filter="url(#filter30_f_2092_43064)">
<path d="M1759.95 846.996L1761.83 848.718L1764.36 848.412L1762.64 850.292L1762.94 852.823L1761.06 851.101L1758.53 851.407L1760.25 849.527L1759.95 846.996Z" fill="white"/>
</g>
<g filter="url(#filter31_f_2092_43064)">
<path d="M1673.45 154.285L1675.33 156.007L1677.86 155.701L1676.14 157.581L1676.45 160.112L1674.57 158.39L1672.04 158.696L1673.76 156.816L1673.45 154.285Z" fill="white"/>
</g>
<g filter="url(#filter32_f_2092_43064)">
<path d="M915.947 792.999L917.826 794.721L920.357 794.415L918.635 796.295L918.941 798.826L917.061 797.103L914.53 797.409L916.253 795.53L915.947 792.999Z" fill="white"/>
</g>
<g filter="url(#filter33_f_2092_43064)">
<path d="M1451.45 406.285L1453.33 408.007L1455.86 407.701L1454.14 409.581L1454.45 412.112L1452.57 410.39L1450.04 410.696L1451.76 408.816L1451.45 406.285Z" fill="white"/>
</g>
<g filter="url(#filter34_f_2092_43064)">
<path d="M1734.91 482.494L1736.79 484.216L1739.32 483.91L1737.6 485.79L1737.91 488.321L1736.03 486.599L1733.5 486.905L1735.22 485.025L1734.91 482.494Z" fill="white"/>
</g>
<g filter="url(#filter35_f_2092_43064)">
<path d="M1158.91 843.495L1160.79 845.217L1163.32 844.911L1161.6 846.791L1161.91 849.322L1160.03 847.6L1157.5 847.906L1159.22 846.026L1158.91 843.495Z" fill="white"/>
</g>
<g filter="url(#filter36_f_2092_43064)">
<path d="M947.534 638.112L949.414 639.834L951.945 639.528L950.223 641.408L950.529 643.939L948.649 642.217L946.118 642.523L947.84 640.643L947.534 638.112Z" fill="#6E6B7C"/>
</g>
<g filter="url(#filter37_f_2092_43064)">
<path d="M789.805 547.531L791.685 549.253L794.216 548.947L792.494 550.827L792.8 553.358L790.92 551.636L788.389 551.942L790.111 550.062L789.805 547.531Z" fill="white"/>
</g>
<g filter="url(#filter38_f_2092_43064)">
<path d="M912.074 518.926L913.953 520.648L916.484 520.342L914.762 522.221L915.068 524.752L913.188 523.03L910.657 523.336L912.38 521.456L912.074 518.926Z" fill="white"/>
</g>
<path opacity="0.11" d="M598.719 525.759C598.099 525.377 597.908 524.565 598.29 523.945C598.673 523.326 599.485 523.134 600.104 523.517C600.724 523.9 600.915 524.712 600.533 525.331C600.15 525.95 599.338 526.142 598.719 525.759Z" fill="white"/>
<path d="M591.272 529.673C590.807 529.387 590.664 528.778 590.951 528.313C591.237 527.849 591.846 527.705 592.311 527.992C592.775 528.279 592.919 528.888 592.632 529.352C592.345 529.817 591.736 529.96 591.272 529.673Z" fill="white"/>
<path d="M580.047 506.479C579.583 506.192 579.439 505.583 579.726 505.119C580.013 504.655 580.622 504.511 581.086 504.798C581.55 505.085 581.694 505.694 581.407 506.158C581.12 506.622 580.511 506.766 580.047 506.479Z" fill="white"/>
<path d="M628.373 534.793C627.909 534.506 627.765 533.897 628.052 533.432C628.339 532.968 628.948 532.824 629.412 533.111C629.877 533.398 630.02 534.007 629.733 534.471C629.446 534.936 628.838 535.08 628.373 534.793Z" fill="white"/>
<path opacity="0.11" d="M647.806 565.384C647.186 565.002 646.995 564.19 647.377 563.57C647.76 562.951 648.572 562.759 649.191 563.142C649.811 563.525 650.002 564.337 649.62 564.956C649.237 565.575 648.425 565.767 647.806 565.384Z" fill="white"/>
<path d="M666.067 559.634C665.758 559.443 665.662 559.038 665.853 558.728C666.044 558.419 666.45 558.323 666.759 558.514C667.069 558.705 667.164 559.111 666.973 559.421C666.782 559.73 666.376 559.826 666.067 559.634Z" fill="white"/>
<path d="M586.899 548.654C586.59 548.463 586.494 548.057 586.685 547.748C586.876 547.438 587.282 547.343 587.591 547.534C587.901 547.725 587.996 548.131 587.805 548.44C587.614 548.749 587.208 548.845 586.899 548.654Z" fill="white"/>
<path d="M464.732 473.16C464.423 472.969 464.327 472.563 464.518 472.254C464.709 471.944 465.115 471.848 465.424 472.04C465.734 472.231 465.829 472.636 465.638 472.946C465.447 473.255 465.041 473.351 464.732 473.16Z" fill="white"/>
<path d="M422.356 405.15C422.047 404.959 421.951 404.553 422.142 404.244C422.333 403.934 422.739 403.839 423.048 404.03C423.358 404.221 423.453 404.627 423.262 404.936C423.071 405.245 422.665 405.341 422.356 405.15Z" fill="white"/>
<path d="M375.215 432.55C374.906 432.359 374.81 431.953 375.001 431.644C375.193 431.335 375.598 431.239 375.908 431.43C376.217 431.621 376.313 432.027 376.122 432.336C375.93 432.646 375.525 432.742 375.215 432.55Z" fill="white"/>
<path d="M782.165 649.968C781.855 649.777 781.759 649.372 781.951 649.062C782.142 648.753 782.548 648.657 782.857 648.848C783.166 649.039 783.262 649.445 783.071 649.754C782.88 650.064 782.474 650.16 782.165 649.968Z" fill="white"/>
<path opacity="0.11" d="M809.266 624.9C808.957 624.709 808.861 624.303 809.052 623.994C809.243 623.684 809.649 623.589 809.958 623.78C810.268 623.971 810.364 624.377 810.172 624.686C809.981 624.995 809.575 625.091 809.266 624.9Z" fill="white"/>
<path opacity="0.11" d="M825.394 652.681C825.085 652.49 824.989 652.084 825.18 651.775C825.371 651.466 825.777 651.37 826.086 651.561C826.396 651.752 826.492 652.158 826.3 652.467C826.109 652.777 825.703 652.872 825.394 652.681Z" fill="white"/>
<path opacity="0.11" d="M786.124 674.876C785.814 674.684 785.718 674.279 785.91 673.969C786.101 673.66 786.507 673.564 786.816 673.755C787.125 673.947 787.221 674.352 787.03 674.662C786.839 674.971 786.433 675.067 786.124 674.876Z" fill="white"/>
<path opacity="0.11" d="M666.615 570.037C666.305 569.846 666.21 569.44 666.401 569.13C666.592 568.821 666.998 568.725 667.307 568.917C667.616 569.108 667.712 569.513 667.521 569.823C667.33 570.132 666.924 570.228 666.615 570.037Z" fill="white"/>
<path opacity="0.11" d="M575.543 569.52C575.234 569.329 575.138 568.923 575.33 568.614C575.521 568.305 575.926 568.209 576.236 568.4C576.545 568.591 576.641 568.997 576.45 569.306C576.259 569.616 575.853 569.711 575.543 569.52Z" fill="white"/>
<path opacity="0.11" d="M471.422 497.425C471.113 497.234 471.017 496.829 471.208 496.519C471.4 496.21 471.805 496.114 472.115 496.305C472.424 496.496 472.52 496.902 472.329 497.211C472.137 497.521 471.732 497.617 471.422 497.425Z" fill="white"/>
<path opacity="0.3" d="M765.042 620.028C764.732 619.837 764.636 619.431 764.828 619.122C765.019 618.812 765.424 618.717 765.734 618.908C766.043 619.099 766.139 619.505 765.948 619.814C765.757 620.123 765.351 620.219 765.042 620.028Z" fill="white"/>
<path d="M654.858 510.115C654.549 509.924 654.453 509.518 654.644 509.209C654.835 508.899 655.241 508.803 655.55 508.995C655.86 509.186 655.955 509.592 655.764 509.901C655.573 510.21 655.167 510.306 654.858 510.115Z" fill="white"/>
<path d="M569.251 455.663C568.941 455.472 568.845 455.066 569.037 454.756C569.228 454.447 569.633 454.351 569.943 454.543C570.252 454.734 570.348 455.139 570.157 455.449C569.966 455.758 569.56 455.854 569.251 455.663Z" fill="white"/>
<path d="M661.102 585.22C660.793 585.029 660.697 584.623 660.888 584.314C661.079 584.005 661.485 583.909 661.794 584.1C662.104 584.291 662.2 584.697 662.008 585.006C661.817 585.316 661.411 585.411 661.102 585.22Z" fill="white"/>
<path opacity="0.3" d="M700.329 609.464C700.019 609.273 699.924 608.868 700.115 608.558C700.306 608.249 700.712 608.153 701.021 608.344C701.33 608.535 701.426 608.941 701.235 609.251C701.044 609.56 700.638 609.656 700.329 609.464Z" fill="white"/>
<path opacity="0.11" d="M767.744 603.114C767.434 602.923 767.339 602.517 767.53 602.208C767.721 601.898 768.127 601.803 768.436 601.994C768.745 602.185 768.841 602.591 768.65 602.9C768.459 603.209 768.053 603.305 767.744 603.114Z" fill="white"/>
<path opacity="0.3" d="M636.451 517.33C636.141 517.139 636.046 516.733 636.237 516.423C636.428 516.114 636.834 516.018 637.143 516.21C637.452 516.401 637.548 516.806 637.357 517.116C637.166 517.425 636.76 517.521 636.451 517.33Z" fill="white"/>
<path opacity="0.3" d="M644.993 589.98C644.683 589.789 644.588 589.383 644.779 589.074C644.97 588.765 645.376 588.669 645.685 588.86C645.994 589.051 646.09 589.457 645.899 589.766C645.708 590.075 645.302 590.171 644.993 589.98Z" fill="white"/>
<path opacity="0.3" d="M709.337 637.486C709.028 637.295 708.932 636.889 709.123 636.58C709.315 636.27 709.72 636.175 710.03 636.366C710.339 636.557 710.435 636.963 710.244 637.272C710.053 637.581 709.647 637.677 709.337 637.486Z" fill="white"/>
<path opacity="0.3" d="M748.787 609.986C748.477 609.795 748.381 609.389 748.573 609.08C748.764 608.77 749.17 608.675 749.479 608.866C749.788 609.057 749.884 609.463 749.693 609.772C749.502 610.081 749.096 610.177 748.787 609.986Z" fill="white"/>
<path opacity="0.3" d="M401.276 392.898C400.967 392.707 400.871 392.301 401.062 391.992C401.253 391.683 401.659 391.587 401.968 391.778C402.278 391.969 402.373 392.375 402.182 392.684C401.991 392.993 401.585 393.089 401.276 392.898Z" fill="white"/>
<path opacity="0.11" d="M505.696 425.676C505.386 425.485 505.291 425.079 505.482 424.77C505.673 424.461 506.079 424.365 506.388 424.556C506.697 424.747 506.793 425.153 506.602 425.462C506.411 425.772 506.005 425.868 505.696 425.676Z" fill="white"/>
<path opacity="0.11" d="M401.514 426.34C401.205 426.149 401.109 425.744 401.3 425.434C401.491 425.125 401.897 425.029 402.206 425.22C402.516 425.411 402.612 425.817 402.42 426.127C402.229 426.436 401.824 426.532 401.514 426.34Z" fill="white"/>
<path opacity="0.3" d="M540.175 519.006C539.555 518.623 539.364 517.811 539.746 517.191C540.129 516.572 540.941 516.38 541.56 516.763C542.18 517.146 542.371 517.958 541.989 518.577C541.606 519.196 540.794 519.388 540.175 519.006Z" fill="white"/>
<path opacity="0.11" d="M517.498 481.762C516.879 481.38 516.687 480.567 517.07 479.948C517.452 479.329 518.264 479.137 518.884 479.52C519.503 479.903 519.695 480.715 519.312 481.334C518.929 481.953 518.117 482.145 517.498 481.762Z" fill="white"/>
<path d="M529.898 462.322C529.433 462.035 529.29 461.426 529.577 460.962C529.863 460.497 530.472 460.354 530.937 460.641C531.401 460.928 531.545 461.537 531.258 462.001C530.971 462.465 530.362 462.609 529.898 462.322Z" fill="white"/>
<path d="M532.198 545.057C531.734 544.77 531.59 544.161 531.877 543.697C532.164 543.233 532.773 543.089 533.237 543.376C533.702 543.663 533.846 544.272 533.559 544.736C533.272 545.2 532.663 545.344 532.198 545.057Z" fill="white"/>
<path d="M339.23 441.29C338.765 441.003 338.622 440.394 338.909 439.93C339.195 439.465 339.804 439.321 340.269 439.608C340.733 439.895 340.877 440.504 340.59 440.969C340.303 441.433 339.694 441.577 339.23 441.29Z" fill="white"/>
<path d="M708.807 656.519C708.343 656.232 708.199 655.623 708.486 655.159C708.773 654.695 709.382 654.551 709.846 654.838C710.31 655.125 710.454 655.734 710.167 656.198C709.88 656.662 709.271 656.806 708.807 656.519Z" fill="white"/>
<path d="M791.293 689.681C790.829 689.394 790.685 688.785 790.972 688.321C791.259 687.857 791.868 687.713 792.332 688C792.796 688.287 792.94 688.896 792.653 689.36C792.366 689.824 791.757 689.968 791.293 689.681Z" fill="white"/>
<path d="M814.676 673.162C814.212 672.875 814.068 672.266 814.355 671.802C814.642 671.337 815.251 671.194 815.715 671.48C816.179 671.767 816.323 672.376 816.036 672.841C815.749 673.305 815.14 673.449 814.676 673.162Z" fill="white"/>
<path d="M549.866 490.152C549.402 489.865 549.258 489.256 549.545 488.792C549.832 488.328 550.441 488.184 550.905 488.471C551.37 488.758 551.513 489.367 551.227 489.831C550.94 490.295 550.331 490.439 549.866 490.152Z" fill="white"/>
<path d="M621.747 591.879C621.283 591.592 621.139 590.983 621.426 590.518C621.713 590.054 622.322 589.91 622.786 590.197C623.251 590.484 623.394 591.093 623.107 591.557C622.82 592.022 622.212 592.166 621.747 591.879Z" fill="white"/>
<path d="M465.64 528.705C465.176 528.418 465.032 527.809 465.319 527.345C465.606 526.88 466.215 526.737 466.679 527.023C467.143 527.31 467.287 527.919 467 528.384C466.713 528.848 466.104 528.992 465.64 528.705Z" fill="white"/>
<path d="M340.694 398.826C340.229 398.539 340.085 397.93 340.372 397.466C340.659 397.001 341.268 396.858 341.733 397.145C342.197 397.431 342.341 398.04 342.054 398.505C341.767 398.969 341.158 399.113 340.694 398.826Z" fill="white"/>
<path d="M346.289 359.693C345.825 359.406 345.681 358.797 345.968 358.333C346.255 357.869 346.864 357.725 347.328 358.012C347.793 358.299 347.936 358.908 347.649 359.372C347.362 359.836 346.754 359.98 346.289 359.693Z" fill="white"/>
<path opacity="0.3" d="M483.316 434.31C482.697 433.928 482.505 433.115 482.888 432.496C483.271 431.877 484.083 431.685 484.702 432.068C485.321 432.451 485.513 433.263 485.13 433.882C484.748 434.501 483.935 434.693 483.316 434.31Z" fill="white"/>
<path d="M507.91 394.525C507.291 394.142 507.099 393.33 507.482 392.711C507.864 392.092 508.677 391.9 509.296 392.283C509.915 392.665 510.107 393.478 509.724 394.097C509.341 394.716 508.529 394.908 507.91 394.525Z" fill="white"/>
<path d="M446.839 428.803C446.375 428.516 446.231 427.907 446.518 427.443C446.805 426.979 447.414 426.835 447.878 427.122C448.342 427.409 448.486 428.018 448.199 428.482C447.912 428.947 447.303 429.09 446.839 428.803Z" fill="white"/>
<path opacity="0.3" d="M433.166 390.152C432.547 389.769 432.355 388.957 432.738 388.338C433.12 387.719 433.932 387.527 434.552 387.91C435.171 388.292 435.363 389.104 434.98 389.724C434.597 390.343 433.785 390.535 433.166 390.152Z" fill="white"/>
<path opacity="0.3" d="M353.1 395.655C352.481 395.272 352.289 394.46 352.672 393.841C353.055 393.222 353.867 393.03 354.486 393.413C355.105 393.795 355.297 394.607 354.915 395.227C354.532 395.846 353.72 396.038 353.1 395.655Z" fill="white"/>
<path opacity="0.3" d="M417.974 437.292C417.355 436.909 417.163 436.097 417.546 435.478C417.929 434.858 418.741 434.667 419.36 435.049C419.979 435.432 420.171 436.244 419.789 436.863C419.406 437.483 418.594 437.674 417.974 437.292Z" fill="white"/>
<path opacity="0.3" d="M733.745 645.602C733.126 645.22 732.934 644.407 733.317 643.788C733.699 643.169 734.512 642.977 735.131 643.36C735.75 643.743 735.942 644.555 735.559 645.174C735.176 645.793 734.364 645.985 733.745 645.602Z" fill="white"/>
<path opacity="0.3" d="M798.188 642.834C797.569 642.451 797.377 641.639 797.76 641.02C798.143 640.4 798.955 640.209 799.574 640.591C800.193 640.974 800.385 641.786 800.002 642.405C799.62 643.025 798.808 643.216 798.188 642.834Z" fill="white"/>
<path opacity="0.11" d="M386.467 393.043C385.847 392.66 385.656 391.848 386.038 391.229C386.421 390.609 387.233 390.418 387.852 390.8C388.472 391.183 388.663 391.995 388.281 392.614C387.898 393.234 387.086 393.425 386.467 393.043Z" fill="white"/>
<path opacity="0.3" d="M729.828 574.26C729.209 573.878 729.017 573.066 729.4 572.446C729.782 571.827 730.595 571.635 731.214 572.018C731.833 572.401 732.025 573.213 731.642 573.832C731.259 574.451 730.447 574.643 729.828 574.26Z" fill="white"/>
<path opacity="0.11" d="M751.884 572.403C751.264 572.02 751.073 571.208 751.455 570.589C751.838 569.97 752.65 569.778 753.269 570.161C753.889 570.543 754.08 571.355 753.698 571.975C753.315 572.594 752.503 572.786 751.884 572.403Z" fill="white"/>
<path opacity="0.3" d="M734.199 611.038C733.58 610.655 733.388 609.843 733.771 609.224C734.153 608.604 734.966 608.413 735.585 608.795C736.204 609.178 736.396 609.99 736.013 610.609C735.63 611.229 734.818 611.42 734.199 611.038Z" fill="white"/>
<path d="M699.528 588.833C699.064 588.546 698.92 587.937 699.207 587.472C699.494 587.008 700.103 586.864 700.568 587.151C701.032 587.438 701.176 588.047 700.889 588.512C700.602 588.976 699.993 589.12 699.528 588.833Z" fill="white"/>
<path opacity="0.11" d="M510.684 234.869C510.065 234.486 509.873 233.674 510.256 233.055C510.639 232.436 511.451 232.244 512.07 232.626C512.689 233.009 512.881 233.821 512.499 234.441C512.116 235.06 511.304 235.251 510.684 234.869Z" fill="white"/>
<path d="M503.236 238.785C502.772 238.498 502.628 237.889 502.915 237.425C503.202 236.96 503.811 236.817 504.276 237.104C504.74 237.39 504.884 237.999 504.597 238.464C504.31 238.928 503.701 239.072 503.236 238.785Z" fill="white"/>
<path d="M492.013 215.589C491.549 215.302 491.405 214.693 491.692 214.228C491.979 213.764 492.588 213.62 493.052 213.907C493.516 214.194 493.66 214.803 493.373 215.267C493.086 215.732 492.477 215.875 492.013 215.589Z" fill="white"/>
<path d="M540.34 243.902C539.876 243.615 539.732 243.006 540.019 242.542C540.306 242.078 540.915 241.934 541.379 242.221C541.843 242.508 541.987 243.117 541.7 243.581C541.413 244.045 540.804 244.189 540.34 243.902Z" fill="white"/>
<path opacity="0.11" d="M559.769 274.495C559.15 274.112 558.958 273.3 559.341 272.681C559.724 272.062 560.536 271.87 561.155 272.252C561.774 272.635 561.966 273.447 561.583 274.067C561.201 274.686 560.389 274.877 559.769 274.495Z" fill="white"/>
<path d="M578.032 268.747C577.722 268.556 577.627 268.15 577.818 267.84C578.009 267.531 578.415 267.435 578.724 267.627C579.033 267.818 579.129 268.223 578.938 268.533C578.747 268.842 578.341 268.938 578.032 268.747Z" fill="white"/>
<path d="M498.865 257.764C498.555 257.573 498.46 257.167 498.651 256.858C498.842 256.549 499.248 256.453 499.557 256.644C499.866 256.835 499.962 257.241 499.771 257.55C499.58 257.86 499.174 257.955 498.865 257.764Z" fill="white"/>
<path d="M376.698 182.27C376.388 182.079 376.293 181.673 376.484 181.364C376.675 181.055 377.081 180.959 377.39 181.15C377.699 181.341 377.795 181.747 377.604 182.056C377.413 182.366 377.007 182.461 376.698 182.27Z" fill="white"/>
<path d="M334.321 114.261C334.011 114.07 333.916 113.664 334.107 113.355C334.298 113.046 334.704 112.95 335.013 113.141C335.322 113.332 335.418 113.738 335.227 114.047C335.036 114.357 334.63 114.453 334.321 114.261Z" fill="white"/>
<path d="M287.181 141.665C286.872 141.474 286.776 141.068 286.967 140.758C287.158 140.449 287.564 140.353 287.873 140.544C288.183 140.736 288.279 141.141 288.087 141.451C287.896 141.76 287.491 141.856 287.181 141.665Z" fill="white"/>
<path d="M694.129 359.077C693.82 358.886 693.724 358.48 693.915 358.171C694.107 357.861 694.512 357.765 694.822 357.957C695.131 358.148 695.227 358.554 695.036 358.863C694.845 359.172 694.439 359.268 694.129 359.077Z" fill="white"/>
<path opacity="0.11" d="M721.231 334.009C720.922 333.818 720.826 333.412 721.017 333.103C721.208 332.794 721.614 332.698 721.923 332.889C722.233 333.08 722.328 333.486 722.137 333.795C721.946 334.105 721.54 334.201 721.231 334.009Z" fill="white"/>
<path opacity="0.11" d="M737.36 361.79C737.051 361.599 736.955 361.193 737.146 360.883C737.337 360.574 737.743 360.478 738.052 360.669C738.362 360.861 738.457 361.266 738.266 361.576C738.075 361.885 737.669 361.981 737.36 361.79Z" fill="white"/>
<path opacity="0.11" d="M698.089 383.985C697.78 383.794 697.684 383.388 697.875 383.079C698.067 382.769 698.472 382.674 698.782 382.865C699.091 383.056 699.187 383.462 698.996 383.771C698.804 384.08 698.399 384.176 698.089 383.985Z" fill="white"/>
<path opacity="0.11" d="M578.578 279.146C578.268 278.955 578.173 278.549 578.364 278.24C578.555 277.931 578.961 277.835 579.27 278.026C579.579 278.217 579.675 278.623 579.484 278.932C579.293 279.242 578.887 279.337 578.578 279.146Z" fill="white"/>
<path opacity="0.11" d="M487.511 278.632C487.202 278.441 487.106 278.036 487.297 277.726C487.488 277.417 487.894 277.321 488.204 277.512C488.513 277.703 488.609 278.109 488.418 278.418C488.226 278.728 487.821 278.824 487.511 278.632Z" fill="white"/>
<path opacity="0.11" d="M383.387 206.536C383.078 206.345 382.982 205.939 383.173 205.63C383.364 205.32 383.77 205.224 384.08 205.416C384.389 205.607 384.485 206.012 384.293 206.322C384.102 206.631 383.697 206.727 383.387 206.536Z" fill="white"/>
<path opacity="0.3" d="M677.008 329.135C676.699 328.944 676.603 328.538 676.794 328.229C676.986 327.92 677.391 327.824 677.701 328.015C678.01 328.206 678.106 328.612 677.915 328.921C677.723 329.231 677.318 329.327 677.008 329.135Z" fill="white"/>
<path d="M566.821 219.223C566.511 219.032 566.416 218.626 566.607 218.317C566.798 218.008 567.204 217.912 567.513 218.103C567.822 218.294 567.918 218.7 567.727 219.009C567.536 219.319 567.13 219.414 566.821 219.223Z" fill="white"/>
<path d="M481.217 164.772C480.908 164.581 480.812 164.175 481.003 163.866C481.195 163.557 481.6 163.461 481.91 163.652C482.219 163.843 482.315 164.249 482.124 164.558C481.932 164.868 481.527 164.963 481.217 164.772Z" fill="white"/>
<path d="M573.065 294.329C572.756 294.138 572.66 293.732 572.851 293.422C573.042 293.113 573.448 293.017 573.757 293.209C574.067 293.4 574.162 293.805 573.971 294.115C573.78 294.424 573.374 294.52 573.065 294.329Z" fill="white"/>
<path opacity="0.3" d="M612.293 318.571C611.983 318.38 611.887 317.974 612.079 317.665C612.27 317.355 612.675 317.26 612.985 317.451C613.294 317.642 613.39 318.048 613.199 318.357C613.008 318.666 612.602 318.762 612.293 318.571Z" fill="white"/>
<path opacity="0.11" d="M679.709 312.223C679.4 312.032 679.304 311.626 679.496 311.317C679.687 311.008 680.092 310.912 680.402 311.103C680.711 311.294 680.807 311.7 680.616 312.009C680.425 312.319 680.019 312.414 679.709 312.223Z" fill="white"/>
<path opacity="0.3" d="M548.417 226.439C548.108 226.248 548.012 225.842 548.204 225.533C548.395 225.224 548.8 225.128 549.11 225.319C549.419 225.51 549.515 225.916 549.324 226.225C549.133 226.535 548.727 226.63 548.417 226.439Z" fill="white"/>
<path opacity="0.3" d="M556.956 299.089C556.646 298.897 556.55 298.492 556.742 298.182C556.933 297.873 557.339 297.777 557.648 297.968C557.957 298.159 558.053 298.565 557.862 298.875C557.671 299.184 557.265 299.28 556.956 299.089Z" fill="white"/>
<path opacity="0.3" d="M621.301 346.595C620.992 346.404 620.896 345.998 621.087 345.689C621.279 345.38 621.684 345.284 621.994 345.475C622.303 345.666 622.399 346.072 622.208 346.381C622.016 346.691 621.611 346.787 621.301 346.595Z" fill="white"/>
<path opacity="0.3" d="M660.753 319.095C660.444 318.904 660.348 318.498 660.539 318.189C660.731 317.88 661.136 317.784 661.446 317.975C661.755 318.166 661.851 318.572 661.66 318.881C661.469 319.191 661.063 319.287 660.753 319.095Z" fill="white"/>
<path opacity="0.3" d="M313.241 102.009C312.931 101.818 312.836 101.413 313.027 101.103C313.218 100.794 313.624 100.698 313.933 100.889C314.242 101.08 314.338 101.486 314.147 101.795C313.956 102.105 313.55 102.201 313.241 102.009Z" fill="white"/>
<path opacity="0.11" d="M417.661 134.79C417.351 134.599 417.256 134.193 417.447 133.883C417.638 133.574 418.044 133.478 418.353 133.669C418.662 133.861 418.758 134.266 418.567 134.576C418.376 134.885 417.97 134.981 417.661 134.79Z" fill="white"/>
<path opacity="0.11" d="M313.48 135.454C313.171 135.263 313.075 134.857 313.266 134.547C313.457 134.238 313.863 134.142 314.172 134.334C314.482 134.525 314.577 134.93 314.386 135.24C314.195 135.549 313.789 135.645 313.48 135.454Z" fill="white"/>
<path opacity="0.3" d="M452.139 228.116C451.519 227.733 451.328 226.921 451.71 226.302C452.093 225.683 452.905 225.491 453.524 225.874C454.144 226.256 454.335 227.068 453.953 227.688C453.57 228.307 452.758 228.499 452.139 228.116Z" fill="white"/>
<path opacity="0.11" d="M429.464 190.871C428.844 190.488 428.653 189.676 429.035 189.057C429.418 188.437 430.23 188.246 430.85 188.628C431.469 189.011 431.66 189.823 431.278 190.442C430.895 191.062 430.083 191.253 429.464 190.871Z" fill="white"/>
<path d="M441.862 171.432C441.398 171.145 441.254 170.536 441.541 170.072C441.828 169.608 442.437 169.464 442.902 169.751C443.366 170.038 443.51 170.647 443.223 171.111C442.936 171.575 442.327 171.719 441.862 171.432Z" fill="white"/>
<path d="M444.163 254.165C443.699 253.878 443.555 253.269 443.842 252.805C444.129 252.34 444.738 252.196 445.202 252.483C445.667 252.77 445.81 253.379 445.523 253.844C445.237 254.308 444.628 254.452 444.163 254.165Z" fill="white"/>
<path d="M251.194 150.399C250.73 150.112 250.586 149.503 250.873 149.039C251.16 148.575 251.769 148.431 252.234 148.718C252.698 149.005 252.842 149.614 252.555 150.078C252.268 150.542 251.659 150.686 251.194 150.399Z" fill="white"/>
<path d="M620.77 365.627C620.305 365.34 620.162 364.731 620.449 364.266C620.736 363.802 621.344 363.658 621.809 363.945C622.273 364.232 622.417 364.841 622.13 365.306C621.843 365.77 621.234 365.914 620.77 365.627Z" fill="white"/>
<path d="M703.26 398.798C702.796 398.511 702.652 397.902 702.939 397.437C703.226 396.973 703.835 396.829 704.299 397.116C704.763 397.403 704.907 398.012 704.62 398.476C704.333 398.941 703.724 399.084 703.26 398.798Z" fill="white"/>
<path d="M726.641 382.269C726.177 381.982 726.033 381.373 726.32 380.909C726.607 380.445 727.216 380.301 727.68 380.588C728.144 380.875 728.288 381.484 728.001 381.948C727.714 382.412 727.105 382.556 726.641 382.269Z" fill="white"/>
<path d="M461.831 199.263C461.367 198.976 461.223 198.367 461.51 197.903C461.797 197.439 462.406 197.295 462.87 197.582C463.335 197.869 463.478 198.478 463.191 198.942C462.904 199.407 462.296 199.55 461.831 199.263Z" fill="white"/>
<path d="M533.712 300.986C533.248 300.699 533.104 300.09 533.391 299.626C533.678 299.162 534.287 299.018 534.751 299.305C535.215 299.592 535.359 300.201 535.072 300.665C534.785 301.129 534.176 301.273 533.712 300.986Z" fill="white"/>
<path d="M377.606 237.813C377.141 237.526 376.998 236.917 377.285 236.453C377.571 235.989 378.18 235.845 378.645 236.132C379.109 236.419 379.253 237.028 378.966 237.492C378.679 237.956 378.07 238.1 377.606 237.813Z" fill="white"/>
<path d="M252.657 107.934C252.193 107.647 252.049 107.038 252.336 106.574C252.623 106.11 253.232 105.966 253.696 106.253C254.161 106.54 254.305 107.149 254.018 107.613C253.731 108.077 253.122 108.221 252.657 107.934Z" fill="white"/>
<path d="M258.252 68.8044C257.788 68.5174 257.644 67.9085 257.931 67.4442C258.218 66.9799 258.827 66.8361 259.291 67.1231C259.755 67.41 259.899 68.0189 259.612 68.4832C259.325 68.9475 258.716 69.0913 258.252 68.8044Z" fill="white"/>
<path opacity="0.3" d="M395.282 143.419C394.663 143.036 394.471 142.224 394.854 141.605C395.236 140.985 396.049 140.794 396.668 141.176C397.287 141.559 397.479 142.371 397.096 142.99C396.714 143.61 395.901 143.801 395.282 143.419Z" fill="white"/>
<path d="M419.875 103.635C419.256 103.253 419.064 102.441 419.447 101.821C419.829 101.202 420.641 101.01 421.261 101.393C421.88 101.776 422.072 102.588 421.689 103.207C421.306 103.826 420.494 104.018 419.875 103.635Z" fill="white"/>
<path d="M358.804 137.914C358.34 137.627 358.196 137.018 358.483 136.554C358.77 136.089 359.379 135.945 359.843 136.232C360.307 136.519 360.451 137.128 360.164 137.593C359.877 138.057 359.268 138.201 358.804 137.914Z" fill="white"/>
<path opacity="0.3" d="M345.131 99.2624C344.512 98.8797 344.32 98.0675 344.702 97.4483C345.085 96.8291 345.897 96.6373 346.517 97.02C347.136 97.4027 347.327 98.2149 346.945 98.8341C346.562 99.4533 345.75 99.6451 345.131 99.2624Z" fill="white"/>
<path opacity="0.3" d="M265.065 104.765C264.446 104.383 264.254 103.57 264.637 102.951C265.02 102.332 265.832 102.14 266.451 102.523C267.07 102.906 267.262 103.718 266.879 104.337C266.497 104.956 265.685 105.148 265.065 104.765Z" fill="white"/>
<path opacity="0.3" d="M329.939 146.403C329.32 146.02 329.128 145.208 329.511 144.589C329.894 143.97 330.706 143.778 331.325 144.161C331.944 144.543 332.136 145.355 331.753 145.975C331.371 146.594 330.559 146.786 329.939 146.403Z" fill="white"/>
<path opacity="0.3" d="M645.708 354.711C645.089 354.328 644.897 353.516 645.28 352.897C645.662 352.277 646.474 352.086 647.094 352.468C647.713 352.851 647.905 353.663 647.522 354.282C647.139 354.902 646.327 355.093 645.708 354.711Z" fill="white"/>
<path opacity="0.3" d="M710.154 351.943C709.535 351.56 709.343 350.748 709.726 350.129C710.109 349.51 710.921 349.318 711.54 349.701C712.159 350.083 712.351 350.896 711.968 351.515C711.586 352.134 710.773 352.326 710.154 351.943Z" fill="white"/>
<path opacity="0.11" d="M298.431 102.152C297.812 101.769 297.621 100.957 298.003 100.338C298.386 99.7187 299.198 99.527 299.817 99.9096C300.436 100.292 300.628 101.105 300.246 101.724C299.863 102.343 299.051 102.535 298.431 102.152Z" fill="white"/>
<path opacity="0.3" d="M641.792 283.37C641.173 282.987 640.981 282.175 641.364 281.556C641.746 280.936 642.558 280.745 643.178 281.127C643.797 281.51 643.989 282.322 643.606 282.941C643.223 283.561 642.411 283.752 641.792 283.37Z" fill="white"/>
<path opacity="0.11" d="M663.85 281.51C663.231 281.128 663.039 280.316 663.422 279.696C663.805 279.077 664.617 278.885 665.236 279.268C665.855 279.651 666.047 280.463 665.665 281.082C665.282 281.701 664.47 281.893 663.85 281.51Z" fill="white"/>
<path opacity="0.3" d="M646.162 320.144C645.543 319.762 645.351 318.949 645.734 318.33C646.116 317.711 646.929 317.519 647.548 317.902C648.167 318.285 648.359 319.097 647.976 319.716C647.593 320.335 646.781 320.527 646.162 320.144Z" fill="white"/>
<path d="M611.49 297.941C611.026 297.654 610.882 297.045 611.169 296.581C611.456 296.117 612.065 295.973 612.529 296.26C612.994 296.547 613.138 297.156 612.851 297.62C612.564 298.084 611.955 298.228 611.49 297.941Z" fill="white"/>
<path opacity="0.11" d="M161.757 140.57C161.137 140.187 160.946 139.375 161.328 138.756C161.711 138.137 162.523 137.945 163.142 138.328C163.762 138.71 163.953 139.522 163.571 140.142C163.188 140.761 162.376 140.953 161.757 140.57Z" fill="white"/>
<path d="M154.309 144.484C153.845 144.197 153.701 143.588 153.988 143.124C154.275 142.66 154.884 142.516 155.348 142.803C155.812 143.09 155.956 143.699 155.669 144.163C155.382 144.627 154.773 144.771 154.309 144.484Z" fill="white"/>
<path d="M143.084 121.29C142.62 121.003 142.476 120.394 142.763 119.93C143.05 119.465 143.659 119.321 144.123 119.608C144.588 119.895 144.731 120.504 144.444 120.969C144.157 121.433 143.548 121.577 143.084 121.29Z" fill="white"/>
<path d="M191.412 149.602C190.948 149.315 190.804 148.706 191.091 148.242C191.378 147.778 191.987 147.634 192.451 147.921C192.916 148.208 193.059 148.817 192.772 149.281C192.486 149.745 191.877 149.889 191.412 149.602Z" fill="white"/>
<path opacity="0.11" d="M210.843 180.194C210.223 179.811 210.032 178.999 210.414 178.38C210.797 177.761 211.609 177.569 212.228 177.952C212.848 178.334 213.039 179.146 212.657 179.766C212.274 180.385 211.462 180.577 210.843 180.194Z" fill="white"/>
<path d="M229.105 174.447C228.796 174.256 228.7 173.85 228.891 173.541C229.082 173.231 229.488 173.136 229.797 173.327C230.107 173.518 230.202 173.924 230.011 174.233C229.82 174.542 229.414 174.638 229.105 174.447Z" fill="white"/>
<path d="M149.939 163.464C149.63 163.273 149.534 162.868 149.725 162.558C149.916 162.249 150.322 162.153 150.631 162.344C150.941 162.535 151.036 162.941 150.845 163.251C150.654 163.56 150.248 163.656 149.939 163.464Z" fill="white"/>
<path d="M27.7701 87.9704C27.4607 87.7792 27.365 87.3735 27.5561 87.0641C27.7473 86.7548 28.153 86.659 28.4624 86.8502C28.7717 87.0413 28.8675 87.4471 28.6763 87.7564C28.4851 88.0657 28.0794 88.1616 27.7701 87.9704Z" fill="white"/>
<path d="M345.204 264.776C344.894 264.585 344.799 264.179 344.99 263.87C345.181 263.56 345.587 263.465 345.896 263.656C346.205 263.847 346.301 264.253 346.11 264.562C345.919 264.871 345.513 264.967 345.204 264.776Z" fill="white"/>
<path opacity="0.11" d="M372.304 239.709C371.995 239.517 371.899 239.112 372.09 238.802C372.281 238.493 372.687 238.397 372.997 238.588C373.306 238.78 373.402 239.185 373.21 239.495C373.019 239.804 372.614 239.9 372.304 239.709Z" fill="white"/>
<path opacity="0.11" d="M388.433 267.491C388.124 267.3 388.028 266.894 388.219 266.585C388.41 266.275 388.816 266.179 389.125 266.371C389.435 266.562 389.531 266.968 389.339 267.277C389.148 267.586 388.742 267.682 388.433 267.491Z" fill="white"/>
<path opacity="0.11" d="M349.163 289.685C348.853 289.494 348.757 289.088 348.949 288.779C349.14 288.47 349.546 288.374 349.855 288.565C350.164 288.756 350.26 289.162 350.069 289.471C349.878 289.781 349.472 289.876 349.163 289.685Z" fill="white"/>
<path opacity="0.11" d="M229.652 184.846C229.343 184.655 229.247 184.249 229.438 183.94C229.629 183.631 230.035 183.535 230.344 183.726C230.653 183.917 230.749 184.323 230.558 184.632C230.367 184.942 229.961 185.037 229.652 184.846Z" fill="white"/>
<path opacity="0.11" d="M138.591 184.331C138.282 184.14 138.186 183.734 138.377 183.424C138.569 183.115 138.974 183.019 139.284 183.211C139.593 183.402 139.689 183.807 139.498 184.117C139.306 184.426 138.901 184.522 138.591 184.331Z" fill="white"/>
<path opacity="0.11" d="M34.4595 112.235C34.1502 112.044 34.0544 111.638 34.2455 111.329C34.4367 111.019 34.8425 110.924 35.1518 111.115C35.4612 111.306 35.5569 111.712 35.3658 112.021C35.1746 112.33 34.7689 112.426 34.4595 112.235Z" fill="white"/>
<path opacity="0.3" d="M328.08 234.836C327.77 234.644 327.674 234.239 327.866 233.929C328.057 233.62 328.463 233.524 328.772 233.715C329.081 233.907 329.177 234.312 328.986 234.622C328.795 234.931 328.389 235.027 328.08 234.836Z" fill="white"/>
<path d="M217.896 124.924C217.587 124.733 217.491 124.328 217.682 124.018C217.873 123.709 218.279 123.613 218.588 123.804C218.898 123.995 218.993 124.401 218.802 124.71C218.611 125.02 218.205 125.116 217.896 124.924Z" fill="white"/>
<path d="M132.29 70.4733C131.98 70.2821 131.884 69.8764 132.076 69.5671C132.267 69.2577 132.673 69.1619 132.982 69.3531C133.291 69.5443 133.387 69.95 133.196 70.2593C133.005 70.5687 132.599 70.6645 132.29 70.4733Z" fill="white"/>
<path d="M224.141 200.03C223.832 199.839 223.736 199.433 223.927 199.124C224.118 198.814 224.524 198.719 224.833 198.91C225.143 199.101 225.239 199.507 225.047 199.816C224.856 200.125 224.45 200.221 224.141 200.03Z" fill="white"/>
<path opacity="0.3" d="M263.367 224.271C263.057 224.08 262.962 223.674 263.153 223.365C263.344 223.056 263.75 222.96 264.059 223.151C264.368 223.342 264.464 223.748 264.273 224.057C264.082 224.367 263.676 224.462 263.367 224.271Z" fill="white"/>
<path opacity="0.11" d="M330.783 217.922C330.473 217.73 330.378 217.325 330.569 217.015C330.76 216.706 331.166 216.61 331.475 216.801C331.784 216.992 331.88 217.398 331.689 217.708C331.498 218.017 331.092 218.113 330.783 217.922Z" fill="white"/>
<path opacity="0.3" d="M199.491 132.139C199.181 131.948 199.086 131.542 199.277 131.233C199.468 130.924 199.874 130.828 200.183 131.019C200.492 131.21 200.588 131.616 200.397 131.925C200.206 132.235 199.8 132.33 199.491 132.139Z" fill="white"/>
<path opacity="0.3" d="M208.028 204.79C207.719 204.599 207.623 204.193 207.814 203.883C208.005 203.574 208.411 203.478 208.72 203.669C209.03 203.861 209.125 204.266 208.934 204.576C208.743 204.885 208.337 204.981 208.028 204.79Z" fill="white"/>
<path opacity="0.3" d="M272.375 252.296C272.066 252.104 271.97 251.699 272.162 251.389C272.353 251.08 272.758 250.984 273.068 251.175C273.377 251.366 273.473 251.772 273.282 252.082C273.091 252.391 272.685 252.487 272.375 252.296Z" fill="white"/>
<path opacity="0.3" d="M311.827 224.796C311.517 224.604 311.422 224.199 311.613 223.889C311.804 223.58 312.21 223.484 312.519 223.675C312.828 223.867 312.924 224.272 312.733 224.582C312.542 224.891 312.136 224.987 311.827 224.796Z" fill="white"/>
<path opacity="0.11" d="M68.7339 40.488C68.4246 40.2968 68.3288 39.891 68.5199 39.5817C68.7111 39.2723 69.1169 39.1766 69.4262 39.3677C69.7356 39.5589 69.8313 39.9646 69.6402 40.274C69.449 40.5833 69.0433 40.6791 68.7339 40.488Z" fill="white"/>
<path opacity="0.3" d="M103.212 133.817C102.593 133.434 102.401 132.622 102.783 132.003C103.166 131.384 103.978 131.192 104.598 131.575C105.217 131.957 105.409 132.77 105.026 133.389C104.643 134.008 103.831 134.2 103.212 133.817Z" fill="white"/>
<path opacity="0.11" d="M80.536 96.571C79.9168 96.1883 79.7251 95.3761 80.1077 94.7569C80.4904 94.1377 81.3026 93.9459 81.9218 94.3286C82.541 94.7113 82.7327 95.5235 82.3501 96.1427C81.9674 96.7619 81.1552 96.9536 80.536 96.571Z" fill="white"/>
<path d="M92.9338 77.1325C92.4695 76.8456 92.3258 76.2366 92.6127 75.7723C92.8996 75.308 93.5086 75.1643 93.9728 75.4512C94.4371 75.7381 94.5809 76.3471 94.294 76.8113C94.007 77.2756 93.3981 77.4194 92.9338 77.1325Z" fill="white"/>
<path d="M95.2365 159.866C94.7723 159.579 94.6285 158.97 94.9154 158.506C95.2024 158.041 95.8113 157.898 96.2756 158.185C96.7399 158.472 96.8836 159.08 96.5967 159.545C96.3098 160.009 95.7008 160.153 95.2365 159.866Z" fill="white"/>
<path d="M271.844 271.328C271.38 271.041 271.236 270.432 271.523 269.968C271.81 269.503 272.419 269.36 272.883 269.647C273.347 269.933 273.491 270.542 273.204 271.007C272.917 271.471 272.308 271.615 271.844 271.328Z" fill="white"/>
<path d="M354.333 304.496C353.869 304.209 353.725 303.6 354.012 303.136C354.299 302.671 354.908 302.528 355.372 302.814C355.837 303.101 355.98 303.71 355.693 304.175C355.406 304.639 354.797 304.783 354.333 304.496Z" fill="white"/>
<path d="M377.714 287.969C377.25 287.682 377.106 287.073 377.393 286.609C377.68 286.145 378.289 286.001 378.753 286.288C379.217 286.575 379.361 287.184 379.074 287.648C378.787 288.113 378.178 288.256 377.714 287.969Z" fill="white"/>
<path d="M112.904 104.962C112.439 104.675 112.295 104.066 112.582 103.601C112.869 103.137 113.478 102.993 113.943 103.28C114.407 103.567 114.551 104.176 114.264 104.64C113.977 105.105 113.368 105.249 112.904 104.962Z" fill="white"/>
<path d="M184.785 206.687C184.321 206.4 184.177 205.791 184.464 205.327C184.751 204.863 185.36 204.719 185.824 205.006C186.289 205.293 186.432 205.902 186.146 206.366C185.859 206.83 185.25 206.974 184.785 206.687Z" fill="white"/>
<path d="M28.6779 143.513C28.2137 143.226 28.0699 142.617 28.3568 142.153C28.6438 141.689 29.2527 141.545 29.717 141.832C30.1813 142.119 30.325 142.728 30.0381 143.192C29.7512 143.656 29.1422 143.8 28.6779 143.513Z" fill="white"/>
<path opacity="0.3" d="M46.3631 49.1188C45.7439 48.7361 45.5521 47.9239 45.9348 47.3047C46.3175 46.6855 47.1297 46.4937 47.7489 46.8764C48.3681 47.2591 48.5599 48.0713 48.1772 48.6905C47.7946 49.3097 46.9823 49.5015 46.3631 49.1188Z" fill="white"/>
<path d="M70.9471 9.33464C70.3279 8.95196 70.1362 8.13978 70.5189 7.52056C70.9015 6.90135 71.7137 6.7096 72.3329 7.09227C72.9521 7.47494 73.1439 8.28712 72.7612 8.90634C72.3785 9.52555 71.5664 9.71731 70.9471 9.33464Z" fill="white"/>
<path d="M9.87716 43.6149C9.41288 43.328 9.26913 42.719 9.55605 42.2547C9.84298 41.7905 10.4519 41.6467 10.9162 41.9336C11.3805 42.2205 11.5242 42.8295 11.2373 43.2938C10.9504 43.758 10.3414 43.9018 9.87716 43.6149Z" fill="white"/>
<path opacity="0.3" d="M296.783 260.41C296.164 260.027 295.972 259.215 296.355 258.596C296.737 257.977 297.55 257.785 298.169 258.167C298.788 258.55 298.98 259.362 298.597 259.982C298.214 260.601 297.402 260.792 296.783 260.41Z" fill="white"/>
<path opacity="0.3" d="M361.227 257.645C360.608 257.262 360.416 256.45 360.799 255.831C361.182 255.212 361.994 255.02 362.613 255.403C363.232 255.785 363.424 256.598 363.041 257.217C362.659 257.836 361.847 258.028 361.227 257.645Z" fill="white"/>
<path opacity="0.3" d="M292.865 189.068C292.246 188.685 292.054 187.873 292.437 187.254C292.819 186.635 293.632 186.443 294.251 186.826C294.87 187.208 295.062 188.021 294.679 188.64C294.297 189.259 293.484 189.451 292.865 189.068Z" fill="white"/>
<path opacity="0.11" d="M314.923 187.213C314.303 186.83 314.112 186.018 314.494 185.398C314.877 184.779 315.689 184.588 316.308 184.97C316.928 185.353 317.119 186.165 316.737 186.784C316.354 187.403 315.542 187.595 314.923 187.213Z" fill="white"/>
<path opacity="0.3" d="M297.237 225.844C296.618 225.462 296.426 224.65 296.809 224.03C297.192 223.411 298.004 223.219 298.623 223.602C299.242 223.985 299.434 224.797 299.051 225.416C298.669 226.035 297.856 226.227 297.237 225.844Z" fill="white"/>
<path d="M262.565 203.64C262.1 203.353 261.957 202.744 262.243 202.28C262.53 201.816 263.139 201.672 263.604 201.959C264.068 202.246 264.212 202.855 263.925 203.319C263.638 203.783 263.029 203.927 262.565 203.64Z" fill="white"/>
<defs>
<filter id="filter0_f_2092_43064" x="688.25" y="278.861" width="4.03418" height="4.0332" filterUnits="userSpaceOnUse" color-interpolation-filters="sRGB">
<feFlood flood-opacity="0" result="BackgroundImageFix"/>
<feBlend mode="normal" in="SourceGraphic" in2="BackgroundImageFix" result="shape"/>
<feGaussianBlur stdDeviation="0.5" result="effect1_foregroundBlur_2092_43064"/>
</filter>
<filter id="filter1_f_2092_43064" x="1412.86" y="169.119" width="4.03418" height="4.0332" filterUnits="userSpaceOnUse" color-interpolation-filters="sRGB">
<feFlood flood-opacity="0" result="BackgroundImageFix"/>
<feBlend mode="normal" in="SourceGraphic" in2="BackgroundImageFix" result="shape"/>
<feGaussianBlur stdDeviation="0.5" result="effect1_foregroundBlur_2092_43064"/>
</filter>
<filter id="filter2_f_2092_43064" x="454.826" y="555.653" width="4.03418" height="4.0332" filterUnits="userSpaceOnUse" color-interpolation-filters="sRGB">
<feFlood flood-opacity="0" result="BackgroundImageFix"/>
<feBlend mode="normal" in="SourceGraphic" in2="BackgroundImageFix" result="shape"/>
<feGaussianBlur stdDeviation="0.5" result="effect1_foregroundBlur_2092_43064"/>
</filter>
<filter id="filter3_f_2092_43064" x="417.086" y="755.43" width="4.03418" height="4.0332" filterUnits="userSpaceOnUse" color-interpolation-filters="sRGB">
<feFlood flood-opacity="0" result="BackgroundImageFix"/>
<feBlend mode="normal" in="SourceGraphic" in2="BackgroundImageFix" result="shape"/>
<feGaussianBlur stdDeviation="0.5" result="effect1_foregroundBlur_2092_43064"/>
</filter>
<filter id="filter4_f_2092_43064" x="211.646" y="773.701" width="4.03418" height="4.0332" filterUnits="userSpaceOnUse" color-interpolation-filters="sRGB">
<feFlood flood-opacity="0" result="BackgroundImageFix"/>
<feBlend mode="normal" in="SourceGraphic" in2="BackgroundImageFix" result="shape"/>
<feGaussianBlur stdDeviation="0.5" result="effect1_foregroundBlur_2092_43064"/>
</filter>
<filter id="filter5_f_2092_43064" x="722.194" y="565.813" width="4.03418" height="4.0332" filterUnits="userSpaceOnUse" color-interpolation-filters="sRGB">
<feFlood flood-opacity="0" result="BackgroundImageFix"/>
<feBlend mode="normal" in="SourceGraphic" in2="BackgroundImageFix" result="shape"/>
<feGaussianBlur stdDeviation="0.5" result="effect1_foregroundBlur_2092_43064"/>
</filter>
<filter id="filter6_f_2092_43064" x="846.258" y="423.872" width="4.03418" height="4.0332" filterUnits="userSpaceOnUse" color-interpolation-filters="sRGB">
<feFlood flood-opacity="0" result="BackgroundImageFix"/>
<feBlend mode="normal" in="SourceGraphic" in2="BackgroundImageFix" result="shape"/>
<feGaussianBlur stdDeviation="0.5" result="effect1_foregroundBlur_2092_43064"/>
</filter>
<filter id="filter7_f_2092_43064" x="429.721" y="434.718" width="4.03418" height="4.0332" filterUnits="userSpaceOnUse" color-interpolation-filters="sRGB">
<feFlood flood-opacity="0" result="BackgroundImageFix"/>
<feBlend mode="normal" in="SourceGraphic" in2="BackgroundImageFix" result="shape"/>
<feGaussianBlur stdDeviation="0.5" result="effect1_foregroundBlur_2092_43064"/>
</filter>
<filter id="filter8_f_2092_43064" x="314.227" y="427.45" width="8.23828" height="8.2373" filterUnits="userSpaceOnUse" color-interpolation-filters="sRGB">
<feFlood flood-opacity="0" result="BackgroundImageFix"/>
<feBlend mode="normal" in="SourceGraphic" in2="BackgroundImageFix" result="shape"/>
<feGaussianBlur stdDeviation="0.5" result="effect1_foregroundBlur_2092_43064"/>
</filter>
<filter id="filter9_f_2092_43064" x="247.482" y="643.975" width="8.23828" height="8.2373" filterUnits="userSpaceOnUse" color-interpolation-filters="sRGB">
<feFlood flood-opacity="0" result="BackgroundImageFix"/>
<feBlend mode="normal" in="SourceGraphic" in2="BackgroundImageFix" result="shape"/>
<feGaussianBlur stdDeviation="0.5" result="effect1_foregroundBlur_2092_43064"/>
</filter>
<filter id="filter10_f_2092_43064" x="618.288" y="608.862" width="8.23828" height="8.2373" filterUnits="userSpaceOnUse" color-interpolation-filters="sRGB">
<feFlood flood-opacity="0" result="BackgroundImageFix"/>
<feBlend mode="normal" in="SourceGraphic" in2="BackgroundImageFix" result="shape"/>
<feGaussianBlur stdDeviation="0.5" result="effect1_foregroundBlur_2092_43064"/>
</filter>
<filter id="filter11_f_2092_43064" x="119.913" y="636.488" width="8.23828" height="8.2373" filterUnits="userSpaceOnUse" color-interpolation-filters="sRGB">
<feFlood flood-opacity="0" result="BackgroundImageFix"/>
<feBlend mode="normal" in="SourceGraphic" in2="BackgroundImageFix" result="shape"/>
<feGaussianBlur stdDeviation="0.5" result="effect1_foregroundBlur_2092_43064"/>
</filter>
<filter id="filter12_f_2092_43064" x="622.393" y="468.283" width="8.23828" height="8.2373" filterUnits="userSpaceOnUse" color-interpolation-filters="sRGB">
<feFlood flood-opacity="0" result="BackgroundImageFix"/>
<feBlend mode="normal" in="SourceGraphic" in2="BackgroundImageFix" result="shape"/>
<feGaussianBlur stdDeviation="0.5" result="effect1_foregroundBlur_2092_43064"/>
</filter>
<filter id="filter13_f_2092_43064" x="877.095" y="61.9707" width="8.23828" height="8.2373" filterUnits="userSpaceOnUse" color-interpolation-filters="sRGB">
<feFlood flood-opacity="0" result="BackgroundImageFix"/>
<feBlend mode="normal" in="SourceGraphic" in2="BackgroundImageFix" result="shape"/>
<feGaussianBlur stdDeviation="0.5" result="effect1_foregroundBlur_2092_43064"/>
</filter>
<filter id="filter14_f_2092_43064" x="783.932" y="221.412" width="8.23828" height="8.2373" filterUnits="userSpaceOnUse" color-interpolation-filters="sRGB">
<feFlood flood-opacity="0" result="BackgroundImageFix"/>
<feBlend mode="normal" in="SourceGraphic" in2="BackgroundImageFix" result="shape"/>
<feGaussianBlur stdDeviation="0.5" result="effect1_foregroundBlur_2092_43064"/>
</filter>
<filter id="filter15_f_2092_43064" x="1269.54" y="705.793" width="8.23828" height="8.2373" filterUnits="userSpaceOnUse" color-interpolation-filters="sRGB">
<feFlood flood-opacity="0" result="BackgroundImageFix"/>
<feBlend mode="normal" in="SourceGraphic" in2="BackgroundImageFix" result="shape"/>
<feGaussianBlur stdDeviation="0.5" result="effect1_foregroundBlur_2092_43064"/>
</filter>
<filter id="filter16_f_2092_43064" x="608.351" y="268.894" width="8.23828" height="8.2373" filterUnits="userSpaceOnUse" color-interpolation-filters="sRGB">
<feFlood flood-opacity="0" result="BackgroundImageFix"/>
<feBlend mode="normal" in="SourceGraphic" in2="BackgroundImageFix" result="shape"/>
<feGaussianBlur stdDeviation="0.5" result="effect1_foregroundBlur_2092_43064"/>
</filter>
<filter id="filter17_f_2092_43064" x="674.579" y="162.209" width="8.23828" height="8.2373" filterUnits="userSpaceOnUse" color-interpolation-filters="sRGB">
<feFlood flood-opacity="0" result="BackgroundImageFix"/>
<feBlend mode="normal" in="SourceGraphic" in2="BackgroundImageFix" result="shape"/>
<feGaussianBlur stdDeviation="0.5" result="effect1_foregroundBlur_2092_43064"/>
</filter>
<filter id="filter18_f_2092_43064" x="838.802" y="609.068" width="3.90039" height="3.90039" filterUnits="userSpaceOnUse" color-interpolation-filters="sRGB">
<feFlood flood-opacity="0" result="BackgroundImageFix"/>
<feBlend mode="normal" in="SourceGraphic" in2="BackgroundImageFix" result="shape"/>
<feGaussianBlur stdDeviation="0.5" result="effect1_foregroundBlur_2092_43064"/>
</filter>
<filter id="filter19_f_2092_43064" x="478.024" y="639.733" width="3.90039" height="3.90039" filterUnits="userSpaceOnUse" color-interpolation-filters="sRGB">
<feFlood flood-opacity="0" result="BackgroundImageFix"/>
<feBlend mode="normal" in="SourceGraphic" in2="BackgroundImageFix" result="shape"/>
<feGaussianBlur stdDeviation="0.5" result="effect1_foregroundBlur_2092_43064"/>
</filter>
<filter id="filter20_f_2092_43064" x="310.074" y="754.311" width="3.90039" height="3.90039" filterUnits="userSpaceOnUse" color-interpolation-filters="sRGB">
<feFlood flood-opacity="0" result="BackgroundImageFix"/>
<feBlend mode="normal" in="SourceGraphic" in2="BackgroundImageFix" result="shape"/>
<feGaussianBlur stdDeviation="0.5" result="effect1_foregroundBlur_2092_43064"/>
</filter>
<filter id="filter21_f_2092_43064" x="151.888" y="621.963" width="3.90039" height="3.90039" filterUnits="userSpaceOnUse" color-interpolation-filters="sRGB">
<feFlood flood-opacity="0" result="BackgroundImageFix"/>
<feBlend mode="normal" in="SourceGraphic" in2="BackgroundImageFix" result="shape"/>
<feGaussianBlur stdDeviation="0.5" result="effect1_foregroundBlur_2092_43064"/>
</filter>
<filter id="filter22_f_2092_43064" x="659.898" y="835.977" width="3.90039" height="3.90039" filterUnits="userSpaceOnUse" color-interpolation-filters="sRGB">
<feFlood flood-opacity="0" result="BackgroundImageFix"/>
<feBlend mode="normal" in="SourceGraphic" in2="BackgroundImageFix" result="shape"/>
<feGaussianBlur stdDeviation="0.5" result="effect1_foregroundBlur_2092_43064"/>
</filter>
<filter id="filter23_f_2092_43064" x="847.993" y="823.335" width="3.90039" height="3.90039" filterUnits="userSpaceOnUse" color-interpolation-filters="sRGB">
<feFlood flood-opacity="0" result="BackgroundImageFix"/>
<feBlend mode="normal" in="SourceGraphic" in2="BackgroundImageFix" result="shape"/>
<feGaussianBlur stdDeviation="0.5" result="effect1_foregroundBlur_2092_43064"/>
</filter>
<filter id="filter24_f_2092_43064" x="545.786" y="536.467" width="3.90039" height="3.90039" filterUnits="userSpaceOnUse" color-interpolation-filters="sRGB">
<feFlood flood-opacity="0" result="BackgroundImageFix"/>
<feBlend mode="normal" in="SourceGraphic" in2="BackgroundImageFix" result="shape"/>
<feGaussianBlur stdDeviation="0.5" result="effect1_foregroundBlur_2092_43064"/>
</filter>
<filter id="filter25_f_2092_43064" x="467.295" y="450.672" width="7.82715" height="7.82617" filterUnits="userSpaceOnUse" color-interpolation-filters="sRGB">
<feFlood flood-opacity="0" result="BackgroundImageFix"/>
<feBlend mode="normal" in="SourceGraphic" in2="BackgroundImageFix" result="shape"/>
<feGaussianBlur stdDeviation="0.5" result="effect1_foregroundBlur_2092_43064"/>
</filter>
<filter id="filter26_f_2092_43064" x="266.993" y="556.582" width="7.82715" height="7.82617" filterUnits="userSpaceOnUse" color-interpolation-filters="sRGB">
<feFlood flood-opacity="0" result="BackgroundImageFix"/>
<feBlend mode="normal" in="SourceGraphic" in2="BackgroundImageFix" result="shape"/>
<feGaussianBlur stdDeviation="0.5" result="effect1_foregroundBlur_2092_43064"/>
</filter>
<filter id="filter27_f_2092_43064" x="554.021" y="793.954" width="7.82715" height="7.82617" filterUnits="userSpaceOnUse" color-interpolation-filters="sRGB">
<feFlood flood-opacity="0" result="BackgroundImageFix"/>
<feBlend mode="normal" in="SourceGraphic" in2="BackgroundImageFix" result="shape"/>
<feGaussianBlur stdDeviation="0.5" result="effect1_foregroundBlur_2092_43064"/>
</filter>
<filter id="filter28_f_2092_43064" x="182.082" y="461.083" width="7.82715" height="7.82617" filterUnits="userSpaceOnUse" color-interpolation-filters="sRGB">
<feFlood flood-opacity="0" result="BackgroundImageFix"/>
<feBlend mode="normal" in="SourceGraphic" in2="BackgroundImageFix" result="shape"/>
<feGaussianBlur stdDeviation="0.5" result="effect1_foregroundBlur_2092_43064"/>
</filter>
<filter id="filter29_f_2092_43064" x="656.329" y="697.451" width="7.82715" height="7.82617" filterUnits="userSpaceOnUse" color-interpolation-filters="sRGB">
<feFlood flood-opacity="0" result="BackgroundImageFix"/>
<feBlend mode="normal" in="SourceGraphic" in2="BackgroundImageFix" result="shape"/>
<feGaussianBlur stdDeviation="0.5" result="effect1_foregroundBlur_2092_43064"/>
</filter>
<filter id="filter30_f_2092_43064" x="1757.53" y="845.996" width="7.82715" height="7.82617" filterUnits="userSpaceOnUse" color-interpolation-filters="sRGB">
<feFlood flood-opacity="0" result="BackgroundImageFix"/>
<feBlend mode="normal" in="SourceGraphic" in2="BackgroundImageFix" result="shape"/>
<feGaussianBlur stdDeviation="0.5" result="effect1_foregroundBlur_2092_43064"/>
</filter>
<filter id="filter31_f_2092_43064" x="1671.04" y="153.285" width="7.82715" height="7.82617" filterUnits="userSpaceOnUse" color-interpolation-filters="sRGB">
<feFlood flood-opacity="0" result="BackgroundImageFix"/>
<feBlend mode="normal" in="SourceGraphic" in2="BackgroundImageFix" result="shape"/>
<feGaussianBlur stdDeviation="0.5" result="effect1_foregroundBlur_2092_43064"/>
</filter>
<filter id="filter32_f_2092_43064" x="913.53" y="791.999" width="7.82715" height="7.82617" filterUnits="userSpaceOnUse" color-interpolation-filters="sRGB">
<feFlood flood-opacity="0" result="BackgroundImageFix"/>
<feBlend mode="normal" in="SourceGraphic" in2="BackgroundImageFix" result="shape"/>
<feGaussianBlur stdDeviation="0.5" result="effect1_foregroundBlur_2092_43064"/>
</filter>
<filter id="filter33_f_2092_43064" x="1449.04" y="405.285" width="7.82715" height="7.82617" filterUnits="userSpaceOnUse" color-interpolation-filters="sRGB">
<feFlood flood-opacity="0" result="BackgroundImageFix"/>
<feBlend mode="normal" in="SourceGraphic" in2="BackgroundImageFix" result="shape"/>
<feGaussianBlur stdDeviation="0.5" result="effect1_foregroundBlur_2092_43064"/>
</filter>
<filter id="filter34_f_2092_43064" x="1732.5" y="481.494" width="7.82715" height="7.82617" filterUnits="userSpaceOnUse" color-interpolation-filters="sRGB">
<feFlood flood-opacity="0" result="BackgroundImageFix"/>
<feBlend mode="normal" in="SourceGraphic" in2="BackgroundImageFix" result="shape"/>
<feGaussianBlur stdDeviation="0.5" result="effect1_foregroundBlur_2092_43064"/>
</filter>
<filter id="filter35_f_2092_43064" x="1156.5" y="842.495" width="7.82715" height="7.82617" filterUnits="userSpaceOnUse" color-interpolation-filters="sRGB">
<feFlood flood-opacity="0" result="BackgroundImageFix"/>
<feBlend mode="normal" in="SourceGraphic" in2="BackgroundImageFix" result="shape"/>
<feGaussianBlur stdDeviation="0.5" result="effect1_foregroundBlur_2092_43064"/>
</filter>
<filter id="filter36_f_2092_43064" x="945.118" y="637.112" width="7.82715" height="7.82617" filterUnits="userSpaceOnUse" color-interpolation-filters="sRGB">
<feFlood flood-opacity="0" result="BackgroundImageFix"/>
<feBlend mode="normal" in="SourceGraphic" in2="BackgroundImageFix" result="shape"/>
<feGaussianBlur stdDeviation="0.5" result="effect1_foregroundBlur_2092_43064"/>
</filter>
<filter id="filter37_f_2092_43064" x="787.389" y="546.531" width="7.82715" height="7.82617" filterUnits="userSpaceOnUse" color-interpolation-filters="sRGB">
<feFlood flood-opacity="0" result="BackgroundImageFix"/>
<feBlend mode="normal" in="SourceGraphic" in2="BackgroundImageFix" result="shape"/>
<feGaussianBlur stdDeviation="0.5" result="effect1_foregroundBlur_2092_43064"/>
</filter>
<filter id="filter38_f_2092_43064" x="909.657" y="517.926" width="7.82715" height="7.82617" filterUnits="userSpaceOnUse" color-interpolation-filters="sRGB">
<feFlood flood-opacity="0" result="BackgroundImageFix"/>
<feBlend mode="normal" in="SourceGraphic" in2="BackgroundImageFix" result="shape"/>
<feGaussianBlur stdDeviation="0.5" result="effect1_foregroundBlur_2092_43064"/>
</filter>
</defs>
</svg>
