<svg width="930" height="991" viewBox="0 0 930 991" fill="none" xmlns="http://www.w3.org/2000/svg">
<path opacity="0.11" d="M720.497 289.844C719.945 289.996 719.62 290.567 719.772 291.119C719.925 291.672 720.496 291.996 721.048 291.844C721.601 291.692 721.925 291.121 721.773 290.568C721.621 290.016 721.049 289.691 720.497 289.844Z" fill="white"/>
<path d="M715.737 285.24C715.323 285.354 715.079 285.782 715.193 286.197C715.307 286.611 715.736 286.854 716.15 286.74C716.564 286.626 716.807 286.198 716.693 285.783C716.579 285.369 716.151 285.126 715.737 285.24Z" fill="white"/>
<path d="M702.128 300.281C701.714 300.395 701.471 300.823 701.585 301.237C701.699 301.651 702.127 301.895 702.542 301.781C702.956 301.666 703.199 301.238 703.085 300.824C702.971 300.41 702.543 300.167 702.128 300.281Z" fill="white"/>
<path d="M744.898 289.576C744.484 289.691 744.24 290.119 744.355 290.533C744.469 290.947 744.897 291.19 745.311 291.076C745.725 290.962 745.969 290.534 745.854 290.12C745.74 289.706 745.312 289.462 744.898 289.576Z" fill="white"/>
<path opacity="0.11" d="M766.342 270.761C765.79 270.913 765.465 271.484 765.618 272.037C765.77 272.589 766.341 272.913 766.893 272.761C767.446 272.609 767.77 272.038 767.618 271.486C767.466 270.933 766.895 270.609 766.342 270.761Z" fill="white"/>
<path d="M778.868 279.142C778.592 279.218 778.43 279.504 778.506 279.78C778.582 280.056 778.867 280.218 779.143 280.142C779.419 280.066 779.581 279.78 779.505 279.504C779.429 279.228 779.144 279.066 778.868 279.142Z" fill="white"/>
<path d="M716.63 269.934C716.354 270.01 716.192 270.295 716.268 270.571C716.344 270.847 716.629 271.009 716.905 270.933C717.181 270.857 717.343 270.572 717.267 270.296C717.191 270.02 716.906 269.858 716.63 269.934Z" fill="white"/>
<path d="M607.643 299.956C607.367 300.032 607.205 300.318 607.281 300.594C607.357 300.87 607.642 301.032 607.918 300.956C608.194 300.88 608.356 300.594 608.28 300.318C608.204 300.042 607.919 299.88 607.643 299.956Z" fill="white"/>
<path d="M560.592 341.966C560.316 342.042 560.154 342.327 560.23 342.603C560.306 342.879 560.592 343.041 560.867 342.965C561.143 342.889 561.306 342.604 561.23 342.328C561.153 342.052 560.868 341.89 560.592 341.966Z" fill="white"/>
<path d="M531.037 310.843C530.761 310.919 530.599 311.205 530.675 311.481C530.751 311.757 531.036 311.919 531.312 311.843C531.588 311.767 531.75 311.481 531.674 311.205C531.598 310.929 531.313 310.767 531.037 310.843Z" fill="white"/>
<path d="M886.548 236.569C886.272 236.645 886.11 236.93 886.186 237.206C886.262 237.482 886.548 237.644 886.824 237.568C887.1 237.492 887.262 237.207 887.186 236.931C887.11 236.655 886.824 236.493 886.548 236.569Z" fill="white"/>
<path opacity="0.11" d="M901.48 261.499C901.204 261.575 901.042 261.86 901.118 262.136C901.194 262.412 901.479 262.574 901.755 262.498C902.031 262.422 902.193 262.137 902.117 261.861C902.041 261.585 901.756 261.423 901.48 261.499Z" fill="white"/>
<path opacity="0.11" d="M919.807 244.078C919.531 244.154 919.368 244.44 919.445 244.716C919.521 244.992 919.806 245.154 920.082 245.078C920.358 245.002 920.52 244.716 920.444 244.44C920.368 244.164 920.083 244.002 919.807 244.078Z" fill="white"/>
<path opacity="0.11" d="M895.047 218.627C894.771 218.703 894.609 218.988 894.685 219.264C894.761 219.54 895.046 219.702 895.322 219.626C895.598 219.55 895.76 219.265 895.684 218.989C895.608 218.713 895.323 218.551 895.047 218.627Z" fill="white"/>
<path opacity="0.11" d="M781.58 271.405C781.305 271.481 781.142 271.766 781.218 272.042C781.294 272.318 781.58 272.48 781.856 272.404C782.132 272.328 782.294 272.043 782.218 271.767C782.142 271.491 781.856 271.329 781.58 271.405Z" fill="white"/>
<path opacity="0.11" d="M712.664 251.66C712.388 251.736 712.226 252.021 712.302 252.297C712.378 252.573 712.664 252.735 712.94 252.659C713.216 252.583 713.378 252.298 713.302 252.022C713.226 251.746 712.94 251.584 712.664 251.66Z" fill="white"/>
<path opacity="0.11" d="M618.063 283.103C617.787 283.179 617.625 283.465 617.701 283.741C617.777 284.016 618.062 284.179 618.338 284.103C618.614 284.026 618.776 283.741 618.7 283.465C618.624 283.189 618.339 283.027 618.063 283.103Z" fill="white"/>
<path opacity="0.3" d="M866.993 255.402C866.717 255.478 866.555 255.764 866.631 256.04C866.707 256.316 866.992 256.478 867.268 256.402C867.544 256.326 867.706 256.04 867.63 255.764C867.554 255.488 867.269 255.326 866.993 255.402Z" fill="white"/>
<path d="M759.45 314.076C759.174 314.152 759.012 314.437 759.088 314.713C759.164 314.989 759.449 315.151 759.725 315.075C760.001 314.999 760.163 314.714 760.087 314.438C760.011 314.162 759.726 314 759.45 314.076Z" fill="white"/>
<path d="M682.736 336.285C682.46 336.361 682.298 336.646 682.374 336.922C682.45 337.198 682.736 337.36 683.012 337.284C683.288 337.208 683.45 336.923 683.374 336.647C683.298 336.371 683.012 336.209 682.736 336.285Z" fill="white"/>
<path d="M780.772 258.717C780.496 258.793 780.334 259.078 780.41 259.354C780.486 259.63 780.772 259.792 781.048 259.716C781.324 259.64 781.486 259.355 781.41 259.079C781.334 258.803 781.048 258.641 780.772 258.717Z" fill="white"/>
<path opacity="0.3" d="M815.768 249.074C815.492 249.15 815.33 249.435 815.406 249.711C815.482 249.987 815.768 250.149 816.044 250.073C816.32 249.997 816.482 249.712 816.406 249.436C816.33 249.16 816.044 248.998 815.768 249.074Z" fill="white"/>
<path opacity="0.11" d="M865.294 268.778C865.018 268.854 864.856 269.139 864.932 269.415C865.008 269.691 865.293 269.853 865.569 269.777C865.845 269.701 866.007 269.416 865.931 269.14C865.855 268.864 865.57 268.702 865.294 268.778Z" fill="white"/>
<path opacity="0.3" d="M747.139 304.554C746.863 304.63 746.701 304.916 746.777 305.192C746.853 305.468 747.138 305.63 747.414 305.554C747.69 305.478 747.852 305.192 747.776 304.916C747.7 304.64 747.415 304.478 747.139 304.554Z" fill="white"/>
<path opacity="0.3" d="M769.654 251.559C769.378 251.635 769.216 251.92 769.292 252.196C769.368 252.472 769.654 252.634 769.93 252.558C770.205 252.482 770.368 252.197 770.292 251.921C770.216 251.645 769.93 251.483 769.654 251.559Z" fill="white"/>
<path opacity="0.3" d="M828.769 229.896C828.493 229.972 828.331 230.258 828.407 230.534C828.483 230.81 828.768 230.972 829.044 230.896C829.32 230.82 829.482 230.534 829.406 230.258C829.33 229.982 829.045 229.82 828.769 229.896Z" fill="white"/>
<path opacity="0.3" d="M852.492 259.395C852.216 259.471 852.054 259.756 852.13 260.032C852.206 260.308 852.491 260.47 852.767 260.394C853.043 260.318 853.205 260.032 853.129 259.757C853.053 259.481 852.768 259.318 852.492 259.395Z" fill="white"/>
<path opacity="0.3" d="M541.958 346.561C541.682 346.637 541.52 346.922 541.596 347.198C541.672 347.474 541.957 347.636 542.233 347.56C542.509 347.484 542.671 347.199 542.595 346.923C542.519 346.647 542.234 346.485 541.958 346.561Z" fill="white"/>
<path opacity="0.11" d="M628.092 344.885C627.816 344.961 627.654 345.247 627.73 345.523C627.806 345.799 628.092 345.961 628.367 345.885C628.643 345.809 628.806 345.523 628.73 345.247C628.653 344.971 628.368 344.809 628.092 344.885Z" fill="white"/>
<path opacity="0.11" d="M549.533 321.348C549.257 321.424 549.095 321.71 549.171 321.986C549.247 322.262 549.532 322.424 549.808 322.348C550.084 322.272 550.246 321.986 550.17 321.71C550.094 321.434 549.809 321.272 549.533 321.348Z" fill="white"/>
<path opacity="0.3" d="M674.775 282.001C674.222 282.153 673.898 282.725 674.05 283.277C674.202 283.829 674.774 284.154 675.326 284.002C675.878 283.85 676.203 283.278 676.051 282.726C675.898 282.174 675.327 281.849 674.775 282.001Z" fill="white"/>
<path opacity="0.11" d="M649.409 305.125C648.856 305.277 648.532 305.848 648.684 306.4C648.836 306.953 649.407 307.277 649.96 307.125C650.512 306.973 650.837 306.402 650.684 305.849C650.532 305.297 649.961 304.972 649.409 305.125Z" fill="white"/>
<path d="M654.477 322.553C654.063 322.667 653.82 323.095 653.934 323.509C654.048 323.923 654.476 324.167 654.891 324.052C655.305 323.938 655.548 323.51 655.434 323.096C655.32 322.682 654.892 322.438 654.477 322.553Z" fill="white"/>
<path d="M674.509 260.557C674.095 260.671 673.852 261.1 673.966 261.514C674.08 261.928 674.508 262.171 674.922 262.057C675.337 261.943 675.58 261.515 675.466 261.1C675.352 260.686 674.923 260.443 674.509 260.557Z" fill="white"/>
<path d="M505.783 296.285C505.368 296.399 505.125 296.827 505.239 297.241C505.353 297.655 505.782 297.899 506.196 297.784C506.61 297.67 506.853 297.242 506.739 296.828C506.625 296.414 506.197 296.17 505.783 296.285Z" fill="white"/>
<path d="M832.576 215.401C832.162 215.515 831.919 215.943 832.033 216.357C832.147 216.771 832.575 217.015 832.989 216.901C833.403 216.786 833.647 216.358 833.533 215.944C833.419 215.53 832.99 215.287 832.576 215.401Z" fill="white"/>
<path d="M902.229 208.579C901.815 208.693 901.571 209.121 901.686 209.535C901.8 209.949 902.228 210.193 902.642 210.078C903.056 209.964 903.3 209.536 903.185 209.122C903.071 208.708 902.643 208.464 902.229 208.579Z" fill="white"/>
<path d="M916.238 226.235C915.823 226.349 915.58 226.778 915.694 227.192C915.808 227.606 916.237 227.849 916.651 227.735C917.065 227.621 917.308 227.193 917.194 226.779C917.08 226.364 916.652 226.121 916.238 226.235Z" fill="white"/>
<path d="M675.717 305.943C675.303 306.057 675.06 306.485 675.174 306.9C675.288 307.314 675.716 307.557 676.13 307.443C676.545 307.329 676.788 306.901 676.674 306.486C676.56 306.072 676.131 305.829 675.717 305.943Z" fill="white"/>
<path d="M752.513 244.985C752.099 245.099 751.856 245.527 751.97 245.942C752.084 246.356 752.512 246.599 752.926 246.485C753.34 246.371 753.584 245.943 753.47 245.528C753.356 245.114 752.927 244.871 752.513 244.985Z" fill="white"/>
<path d="M620.61 258.194C620.196 258.309 619.952 258.737 620.066 259.151C620.181 259.565 620.609 259.808 621.023 259.694C621.437 259.58 621.68 259.152 621.566 258.738C621.452 258.324 621.024 258.08 620.61 258.194Z" fill="white"/>
<path d="M497.5 328.688C497.086 328.802 496.842 329.231 496.957 329.645C497.071 330.059 497.499 330.302 497.913 330.188C498.327 330.074 498.571 329.646 498.456 329.232C498.342 328.817 497.914 328.574 497.5 328.688Z" fill="white"/>
<path d="M493.076 359.49C492.661 359.604 492.418 360.032 492.532 360.446C492.646 360.86 493.075 361.104 493.489 360.99C493.903 360.875 494.146 360.447 494.032 360.033C493.918 359.619 493.49 359.375 493.076 359.49Z" fill="white"/>
<path opacity="0.3" d="M613.094 333.415C612.541 333.567 612.217 334.138 612.369 334.691C612.521 335.243 613.092 335.567 613.645 335.415C614.197 335.263 614.522 334.692 614.369 334.139C614.217 333.587 613.646 333.263 613.094 333.415Z" fill="white"/>
<path d="M622.877 368.909C622.324 369.062 622 369.633 622.152 370.185C622.304 370.738 622.876 371.062 623.428 370.91C623.98 370.758 624.305 370.186 624.153 369.634C624 369.082 623.429 368.757 622.877 368.909Z" fill="white"/>
<path d="M584.318 329.51C583.904 329.624 583.661 330.052 583.775 330.466C583.889 330.881 584.317 331.124 584.731 331.01C585.146 330.896 585.389 330.467 585.275 330.053C585.161 329.639 584.732 329.396 584.318 329.51Z" fill="white"/>
<path opacity="0.3" d="M565.443 355.686C564.89 355.838 564.566 356.409 564.718 356.962C564.87 357.514 565.441 357.839 565.994 357.686C566.546 357.534 566.871 356.963 566.719 356.411C566.566 355.858 565.995 355.534 565.443 355.686Z" fill="white"/>
<path opacity="0.3" d="M506.172 333.827C505.619 333.979 505.295 334.55 505.447 335.102C505.599 335.655 506.17 335.979 506.723 335.827C507.275 335.675 507.6 335.104 507.448 334.551C507.295 333.999 506.724 333.674 506.172 333.827Z" fill="white"/>
<path opacity="0.3" d="M564.389 316.714C563.837 316.866 563.512 317.437 563.664 317.989C563.817 318.542 564.388 318.866 564.94 318.714C565.493 318.562 565.817 317.991 565.665 317.438C565.513 316.886 564.941 316.561 564.389 316.714Z" fill="white"/>
<path opacity="0.3" d="M849.003 229.162C848.45 229.314 848.126 229.885 848.278 230.438C848.43 230.99 849.002 231.314 849.554 231.162C850.106 231.01 850.431 230.439 850.279 229.886C850.126 229.334 849.555 229.01 849.003 229.162Z" fill="white"/>
<path opacity="0.3" d="M897.076 245.501C896.524 245.654 896.199 246.225 896.351 246.777C896.504 247.33 897.075 247.654 897.627 247.502C898.18 247.35 898.504 246.778 898.352 246.226C898.2 245.674 897.629 245.349 897.076 245.501Z" fill="white"/>
<path opacity="0.11" d="M530.802 343.178C530.249 343.331 529.925 343.902 530.077 344.454C530.229 345.007 530.8 345.331 531.353 345.179C531.905 345.027 532.23 344.455 532.077 343.903C531.925 343.351 531.354 343.026 530.802 343.178Z" fill="white"/>
<path opacity="0.3" d="M830.269 282.192C829.717 282.345 829.393 282.916 829.545 283.468C829.697 284.021 830.268 284.345 830.821 284.193C831.373 284.041 831.697 283.469 831.545 282.917C831.393 282.365 830.822 282.04 830.269 282.192Z" fill="white"/>
<path opacity="0.11" d="M846.521 288.472C845.968 288.625 845.644 289.196 845.796 289.748C845.948 290.301 846.52 290.625 847.072 290.473C847.624 290.321 847.949 289.749 847.797 289.197C847.645 288.645 847.073 288.32 846.521 288.472Z" fill="white"/>
<path opacity="0.3" d="M841.704 255.374C841.151 255.526 840.827 256.097 840.979 256.65C841.131 257.202 841.702 257.527 842.255 257.375C842.807 257.222 843.132 256.651 842.979 256.099C842.827 255.546 842.256 255.222 841.704 255.374Z" fill="white"/>
<path d="M810.601 264.484C810.187 264.598 809.944 265.027 810.058 265.441C810.172 265.855 810.6 266.098 811.014 265.984C811.428 265.87 811.672 265.442 811.558 265.028C811.443 264.614 811.015 264.37 810.601 264.484Z" fill="white"/>
<path opacity="0.11" d="M589.673 490.138C589.12 490.291 588.796 490.862 588.948 491.414C589.1 491.967 589.671 492.291 590.224 492.139C590.776 491.987 591.101 491.416 590.949 490.863C590.796 490.311 590.225 489.986 589.673 490.138Z" fill="white"/>
<path d="M584.911 485.533C584.496 485.647 584.253 486.076 584.367 486.49C584.481 486.904 584.91 487.147 585.324 487.033C585.738 486.919 585.981 486.491 585.867 486.077C585.753 485.662 585.325 485.419 584.911 485.533Z" fill="white"/>
<path d="M571.303 500.576C570.889 500.69 570.646 501.118 570.76 501.532C570.874 501.946 571.302 502.19 571.716 502.076C572.131 501.961 572.374 501.533 572.26 501.119C572.146 500.705 571.717 500.461 571.303 500.576Z" fill="white"/>
<path d="M614.074 489.871C613.659 489.985 613.416 490.414 613.53 490.828C613.644 491.242 614.073 491.485 614.487 491.371C614.901 491.257 615.144 490.829 615.03 490.415C614.916 490.001 614.488 489.757 614.074 489.871Z" fill="white"/>
<path opacity="0.11" d="M635.516 471.056C634.964 471.208 634.639 471.779 634.791 472.332C634.944 472.884 635.515 473.208 636.067 473.056C636.62 472.904 636.944 472.333 636.792 471.78C636.64 471.228 636.068 470.904 635.516 471.056Z" fill="white"/>
<path d="M648.042 479.436C647.766 479.512 647.604 479.798 647.68 480.074C647.756 480.35 648.041 480.512 648.317 480.436C648.593 480.36 648.755 480.074 648.679 479.798C648.603 479.522 648.318 479.36 648.042 479.436Z" fill="white"/>
<path d="M585.806 470.229C585.53 470.305 585.367 470.59 585.444 470.866C585.52 471.142 585.805 471.304 586.081 471.228C586.357 471.152 586.519 470.867 586.443 470.591C586.367 470.315 586.082 470.153 585.806 470.229Z" fill="white"/>
<path d="M476.819 500.25C476.543 500.326 476.381 500.612 476.457 500.888C476.533 501.164 476.818 501.326 477.094 501.25C477.37 501.174 477.532 500.888 477.456 500.612C477.38 500.336 477.095 500.174 476.819 500.25Z" fill="white"/>
<path d="M429.767 542.26C429.491 542.336 429.329 542.621 429.405 542.897C429.481 543.173 429.767 543.335 430.043 543.259C430.319 543.183 430.481 542.898 430.405 542.622C430.329 542.346 430.043 542.184 429.767 542.26Z" fill="white"/>
<path d="M400.214 511.136C399.938 511.212 399.776 511.497 399.852 511.773C399.928 512.049 400.213 512.211 400.489 512.135C400.765 512.059 400.927 511.774 400.851 511.498C400.775 511.222 400.49 511.06 400.214 511.136Z" fill="white"/>
<path d="M755.723 436.864C755.447 436.94 755.285 437.225 755.361 437.501C755.437 437.777 755.722 437.939 755.998 437.863C756.274 437.787 756.436 437.502 756.36 437.226C756.284 436.95 755.999 436.788 755.723 436.864Z" fill="white"/>
<path opacity="0.11" d="M770.655 461.794C770.379 461.87 770.217 462.155 770.293 462.431C770.369 462.707 770.654 462.869 770.93 462.793C771.206 462.717 771.368 462.432 771.292 462.156C771.216 461.88 770.931 461.718 770.655 461.794Z" fill="white"/>
<path opacity="0.11" d="M788.982 444.373C788.706 444.449 788.544 444.735 788.62 445.011C788.696 445.286 788.981 445.449 789.257 445.373C789.533 445.296 789.695 445.011 789.619 444.735C789.543 444.459 789.258 444.297 788.982 444.373Z" fill="white"/>
<path opacity="0.11" d="M764.223 418.922C763.947 418.998 763.784 419.283 763.861 419.559C763.937 419.835 764.222 419.997 764.498 419.921C764.774 419.845 764.936 419.56 764.86 419.284C764.784 419.008 764.499 418.846 764.223 418.922Z" fill="white"/>
<path opacity="0.11" d="M650.753 471.7C650.477 471.776 650.315 472.061 650.391 472.337C650.467 472.613 650.753 472.775 651.029 472.699C651.305 472.623 651.467 472.338 651.391 472.062C651.315 471.786 651.029 471.624 650.753 471.7Z" fill="white"/>
<path opacity="0.11" d="M581.841 451.954C581.565 452.03 581.403 452.315 581.479 452.591C581.555 452.867 581.84 453.029 582.116 452.953C582.392 452.877 582.554 452.592 582.478 452.316C582.402 452.04 582.117 451.878 581.841 451.954Z" fill="white"/>
<path opacity="0.11" d="M487.237 483.398C486.961 483.474 486.799 483.759 486.875 484.035C486.951 484.311 487.237 484.473 487.513 484.397C487.788 484.321 487.951 484.036 487.875 483.76C487.799 483.484 487.513 483.322 487.237 483.398Z" fill="white"/>
<path opacity="0.3" d="M736.168 455.698C735.892 455.774 735.73 456.06 735.806 456.336C735.882 456.611 736.167 456.774 736.443 456.698C736.719 456.622 736.881 456.336 736.805 456.06C736.729 455.784 736.444 455.622 736.168 455.698Z" fill="white"/>
<path d="M628.623 514.37C628.347 514.446 628.185 514.731 628.261 515.007C628.337 515.283 628.623 515.445 628.899 515.369C629.175 515.293 629.337 515.008 629.261 514.732C629.185 514.456 628.899 514.294 628.623 514.37Z" fill="white"/>
<path d="M551.912 536.58C551.636 536.656 551.473 536.941 551.549 537.217C551.626 537.493 551.911 537.655 552.187 537.579C552.463 537.503 552.625 537.218 552.549 536.942C552.473 536.666 552.187 536.503 551.912 536.58Z" fill="white"/>
<path d="M649.947 459.011C649.671 459.087 649.509 459.373 649.585 459.649C649.661 459.925 649.946 460.087 650.222 460.011C650.498 459.935 650.66 459.649 650.584 459.373C650.508 459.097 650.223 458.935 649.947 459.011Z" fill="white"/>
<path opacity="0.3" d="M684.942 449.371C684.666 449.447 684.504 449.732 684.58 450.008C684.656 450.284 684.941 450.446 685.217 450.37C685.493 450.294 685.655 450.009 685.579 449.733C685.503 449.457 685.218 449.295 684.942 449.371Z" fill="white"/>
<path opacity="0.11" d="M734.47 469.072C734.194 469.148 734.032 469.433 734.108 469.709C734.184 469.985 734.469 470.147 734.745 470.071C735.021 469.995 735.183 469.71 735.107 469.434C735.031 469.158 734.746 468.996 734.47 469.072Z" fill="white"/>
<path opacity="0.3" d="M616.314 504.851C616.038 504.927 615.876 505.212 615.952 505.488C616.028 505.764 616.314 505.926 616.59 505.85C616.866 505.774 617.028 505.489 616.952 505.213C616.876 504.937 616.59 504.775 616.314 504.851Z" fill="white"/>
<path opacity="0.3" d="M638.828 451.853C638.552 451.929 638.389 452.214 638.465 452.49C638.542 452.766 638.827 452.928 639.103 452.852C639.379 452.776 639.541 452.491 639.465 452.215C639.389 451.939 639.103 451.777 638.828 451.853Z" fill="white"/>
<path opacity="0.3" d="M697.943 430.19C697.667 430.266 697.505 430.552 697.581 430.828C697.657 431.104 697.943 431.266 698.219 431.19C698.495 431.114 698.657 430.828 698.581 430.552C698.505 430.276 698.219 430.114 697.943 430.19Z" fill="white"/>
<path opacity="0.3" d="M721.668 459.689C721.392 459.765 721.23 460.05 721.306 460.326C721.382 460.602 721.667 460.764 721.943 460.688C722.219 460.612 722.381 460.327 722.305 460.051C722.229 459.775 721.944 459.612 721.668 459.689Z" fill="white"/>
<path opacity="0.3" d="M411.133 546.856C410.857 546.932 410.695 547.217 410.771 547.493C410.847 547.769 411.132 547.931 411.408 547.855C411.684 547.779 411.846 547.494 411.77 547.218C411.694 546.942 411.409 546.78 411.133 546.856Z" fill="white"/>
<path opacity="0.11" d="M497.267 545.179C496.991 545.255 496.829 545.54 496.905 545.816C496.981 546.092 497.267 546.254 497.543 546.178C497.819 546.102 497.981 545.817 497.905 545.541C497.829 545.265 497.543 545.103 497.267 545.179Z" fill="white"/>
<path opacity="0.11" d="M418.709 521.641C418.433 521.717 418.271 522.003 418.347 522.279C418.423 522.555 418.708 522.717 418.984 522.641C419.26 522.565 419.422 522.279 419.346 522.003C419.27 521.728 418.985 521.565 418.709 521.641Z" fill="white"/>
<path opacity="0.3" d="M543.95 482.295C543.397 482.448 543.073 483.019 543.225 483.571C543.377 484.124 543.948 484.448 544.501 484.296C545.053 484.144 545.378 483.572 545.225 483.02C545.073 482.468 544.502 482.143 543.95 482.295Z" fill="white"/>
<path opacity="0.11" d="M518.584 505.419C518.032 505.572 517.708 506.143 517.86 506.695C518.012 507.248 518.583 507.572 519.136 507.42C519.688 507.268 520.012 506.696 519.86 506.144C519.708 505.592 519.137 505.267 518.584 505.419Z" fill="white"/>
<path d="M523.652 522.847C523.238 522.961 522.995 523.389 523.109 523.803C523.223 524.217 523.651 524.461 524.065 524.347C524.48 524.233 524.723 523.804 524.609 523.39C524.495 522.976 524.066 522.733 523.652 522.847Z" fill="white"/>
<path d="M543.684 460.853C543.27 460.967 543.027 461.395 543.141 461.809C543.255 462.224 543.683 462.467 544.097 462.353C544.511 462.239 544.755 461.81 544.641 461.396C544.526 460.982 544.098 460.739 543.684 460.853Z" fill="white"/>
<path d="M374.958 496.579C374.544 496.694 374.301 497.122 374.415 497.536C374.529 497.95 374.957 498.193 375.372 498.079C375.786 497.965 376.029 497.537 375.915 497.123C375.801 496.709 375.373 496.465 374.958 496.579Z" fill="white"/>
<path d="M701.75 415.695C701.336 415.809 701.093 416.237 701.207 416.651C701.321 417.065 701.749 417.309 702.164 417.195C702.578 417.08 702.821 416.652 702.707 416.238C702.593 415.824 702.165 415.581 701.75 415.695Z" fill="white"/>
<path d="M771.404 408.875C770.99 408.989 770.746 409.417 770.86 409.832C770.974 410.246 771.403 410.489 771.817 410.375C772.231 410.261 772.474 409.833 772.36 409.418C772.246 409.004 771.818 408.761 771.404 408.875Z" fill="white"/>
<path d="M785.412 426.531C784.998 426.645 784.755 427.073 784.869 427.487C784.983 427.902 785.412 428.145 785.826 428.031C786.24 427.917 786.483 427.488 786.369 427.074C786.255 426.66 785.827 426.417 785.412 426.531Z" fill="white"/>
<path d="M544.892 506.236C544.478 506.351 544.235 506.779 544.349 507.193C544.463 507.607 544.891 507.85 545.305 507.736C545.719 507.622 545.963 507.194 545.849 506.78C545.734 506.366 545.306 506.122 544.892 506.236Z" fill="white"/>
<path d="M621.688 445.281C621.274 445.395 621.03 445.823 621.145 446.237C621.259 446.651 621.687 446.895 622.101 446.781C622.515 446.667 622.759 446.238 622.644 445.824C622.53 445.41 622.102 445.167 621.688 445.281Z" fill="white"/>
<path d="M489.786 458.49C489.371 458.604 489.128 459.033 489.242 459.447C489.356 459.861 489.785 460.104 490.199 459.99C490.613 459.876 490.856 459.448 490.742 459.034C490.628 458.619 490.2 458.376 489.786 458.49Z" fill="white"/>
<path d="M366.675 528.984C366.261 529.098 366.017 529.526 366.131 529.941C366.246 530.355 366.674 530.598 367.088 530.484C367.502 530.37 367.745 529.942 367.631 529.527C367.517 529.113 367.089 528.87 366.675 528.984Z" fill="white"/>
<path d="M362.249 559.782C361.835 559.896 361.592 560.324 361.706 560.739C361.82 561.153 362.248 561.396 362.663 561.282C363.077 561.168 363.32 560.74 363.206 560.325C363.092 559.911 362.664 559.668 362.249 559.782Z" fill="white"/>
<path opacity="0.3" d="M482.269 533.71C481.717 533.863 481.392 534.434 481.544 534.986C481.696 535.539 482.268 535.863 482.82 535.711C483.373 535.559 483.697 534.988 483.545 534.435C483.393 533.883 482.821 533.558 482.269 533.71Z" fill="white"/>
<path d="M492.052 569.204C491.499 569.356 491.175 569.928 491.327 570.48C491.479 571.032 492.05 571.357 492.603 571.205C493.155 571.052 493.48 570.481 493.327 569.929C493.175 569.376 492.604 569.052 492.052 569.204Z" fill="white"/>
<path d="M453.494 529.803C453.08 529.917 452.837 530.346 452.951 530.76C453.065 531.174 453.493 531.417 453.907 531.303C454.321 531.189 454.565 530.761 454.451 530.347C454.337 529.932 453.908 529.689 453.494 529.803Z" fill="white"/>
<path opacity="0.3" d="M434.618 555.982C434.065 556.134 433.741 556.705 433.893 557.257C434.045 557.81 434.616 558.134 435.169 557.982C435.721 557.83 436.046 557.259 435.893 556.706C435.741 556.154 435.17 555.829 434.618 555.982Z" fill="white"/>
<path opacity="0.3" d="M375.348 534.121C374.796 534.273 374.471 534.844 374.623 535.396C374.776 535.949 375.347 536.273 375.899 536.121C376.452 535.969 376.776 535.398 376.624 534.845C376.472 534.293 375.9 533.968 375.348 534.121Z" fill="white"/>
<path opacity="0.3" d="M433.564 517.008C433.011 517.16 432.687 517.731 432.839 518.283C432.991 518.836 433.563 519.16 434.115 519.008C434.667 518.856 434.992 518.285 434.84 517.732C434.687 517.18 434.116 516.855 433.564 517.008Z" fill="white"/>
<path opacity="0.3" d="M718.177 429.456C717.624 429.608 717.3 430.179 717.452 430.732C717.604 431.284 718.175 431.608 718.728 431.456C719.28 431.304 719.605 430.733 719.452 430.181C719.3 429.628 718.729 429.304 718.177 429.456Z" fill="white"/>
<path opacity="0.3" d="M766.252 445.795C765.7 445.947 765.376 446.518 765.528 447.07C765.68 447.623 766.251 447.947 766.803 447.795C767.356 447.643 767.68 447.072 767.528 446.519C767.376 445.967 766.805 445.642 766.252 445.795Z" fill="white"/>
<path opacity="0.11" d="M399.976 543.472C399.424 543.625 399.1 544.196 399.252 544.748C399.404 545.301 399.975 545.625 400.528 545.473C401.08 545.321 401.404 544.75 401.252 544.197C401.1 543.645 400.529 543.32 399.976 543.472Z" fill="white"/>
<path opacity="0.3" d="M699.444 482.486C698.892 482.638 698.567 483.209 698.72 483.761C698.872 484.314 699.443 484.638 699.995 484.486C700.548 484.334 700.872 483.763 700.72 483.21C700.568 482.658 699.997 482.334 699.444 482.486Z" fill="white"/>
<path opacity="0.11" d="M715.697 488.768C715.145 488.92 714.82 489.492 714.973 490.044C715.125 490.596 715.696 490.921 716.248 490.769C716.801 490.616 717.125 490.045 716.973 489.493C716.821 488.94 716.25 488.616 715.697 488.768Z" fill="white"/>
<path opacity="0.3" d="M710.877 455.67C710.325 455.822 710 456.393 710.153 456.946C710.305 457.498 710.876 457.822 711.428 457.67C711.981 457.518 712.305 456.947 712.153 456.394C712.001 455.842 711.43 455.518 710.877 455.67Z" fill="white"/>
<path d="M679.774 464.778C679.36 464.893 679.117 465.321 679.231 465.735C679.345 466.149 679.773 466.392 680.188 466.278C680.602 466.164 680.845 465.736 680.731 465.322C680.617 464.908 680.189 464.664 679.774 464.778Z" fill="white"/>
<path opacity="0.11" d="M305.217 484.229C304.665 484.381 304.34 484.953 304.493 485.505C304.645 486.057 305.216 486.382 305.768 486.23C306.321 486.077 306.645 485.506 306.493 484.954C306.341 484.401 305.77 484.077 305.217 484.229Z" fill="white"/>
<path d="M300.456 479.626C300.042 479.74 299.799 480.168 299.913 480.582C300.027 480.996 300.455 481.24 300.87 481.125C301.284 481.011 301.527 480.583 301.413 480.169C301.299 479.755 300.871 479.511 300.456 479.626Z" fill="white"/>
<path d="M286.848 494.667C286.434 494.781 286.191 495.209 286.305 495.624C286.419 496.038 286.847 496.281 287.261 496.167C287.675 496.053 287.919 495.625 287.805 495.21C287.691 494.796 287.262 494.553 286.848 494.667Z" fill="white"/>
<path d="M329.619 483.962C329.205 484.076 328.962 484.504 329.076 484.919C329.19 485.333 329.618 485.576 330.032 485.462C330.446 485.348 330.69 484.92 330.576 484.505C330.462 484.091 330.033 483.848 329.619 483.962Z" fill="white"/>
<path opacity="0.11" d="M351.062 465.148C350.51 465.3 350.185 465.871 350.337 466.424C350.489 466.976 351.061 467.301 351.613 467.148C352.165 466.996 352.49 466.425 352.338 465.873C352.186 465.32 351.614 464.996 351.062 465.148Z" fill="white"/>
<path d="M363.588 473.528C363.312 473.604 363.15 473.889 363.226 474.165C363.302 474.441 363.587 474.603 363.863 474.527C364.139 474.451 364.301 474.166 364.225 473.89C364.149 473.614 363.864 473.452 363.588 473.528Z" fill="white"/>
<path d="M301.351 464.321C301.075 464.397 300.913 464.682 300.989 464.958C301.065 465.234 301.351 465.397 301.627 465.32C301.903 465.244 302.065 464.959 301.989 464.683C301.913 464.407 301.627 464.245 301.351 464.321Z" fill="white"/>
<path d="M192.364 494.343C192.088 494.419 191.926 494.705 192.002 494.981C192.078 495.257 192.364 495.419 192.639 495.343C192.915 495.267 193.078 494.981 193.001 494.705C192.925 494.429 192.64 494.267 192.364 494.343Z" fill="white"/>
<path d="M145.312 536.352C145.036 536.428 144.874 536.714 144.95 536.99C145.026 537.266 145.311 537.428 145.587 537.352C145.863 537.276 146.025 536.99 145.949 536.714C145.873 536.438 145.588 536.276 145.312 536.352Z" fill="white"/>
<path d="M115.758 505.229C115.482 505.305 115.32 505.59 115.396 505.866C115.472 506.142 115.757 506.304 116.033 506.228C116.309 506.152 116.471 505.867 116.395 505.591C116.319 505.315 116.034 505.153 115.758 505.229Z" fill="white"/>
<path d="M471.268 430.956C470.992 431.032 470.83 431.318 470.906 431.594C470.982 431.87 471.268 432.032 471.544 431.956C471.82 431.88 471.982 431.594 471.906 431.318C471.83 431.042 471.544 430.88 471.268 430.956Z" fill="white"/>
<path opacity="0.11" d="M486.201 455.885C485.925 455.961 485.763 456.247 485.839 456.523C485.915 456.798 486.2 456.961 486.476 456.885C486.752 456.809 486.914 456.523 486.838 456.247C486.762 455.971 486.477 455.809 486.201 455.885Z" fill="white"/>
<path opacity="0.11" d="M504.527 438.465C504.251 438.541 504.089 438.826 504.165 439.102C504.241 439.378 504.526 439.54 504.802 439.464C505.078 439.388 505.24 439.103 505.164 438.827C505.088 438.551 504.803 438.389 504.527 438.465Z" fill="white"/>
<path opacity="0.11" d="M479.767 413.013C479.491 413.089 479.329 413.375 479.405 413.651C479.481 413.927 479.766 414.089 480.042 414.013C480.318 413.937 480.48 413.651 480.404 413.375C480.328 413.099 480.043 412.937 479.767 413.013Z" fill="white"/>
<path opacity="0.11" d="M366.3 465.792C366.024 465.868 365.862 466.154 365.938 466.43C366.014 466.705 366.299 466.868 366.575 466.792C366.851 466.716 367.013 466.43 366.937 466.154C366.861 465.878 366.576 465.716 366.3 465.792Z" fill="white"/>
<path opacity="0.11" d="M297.392 446.048C297.117 446.124 296.954 446.409 297.03 446.685C297.107 446.961 297.392 447.123 297.668 447.047C297.944 446.971 298.106 446.686 298.03 446.41C297.954 446.134 297.668 445.972 297.392 446.048Z" fill="white"/>
<path opacity="0.11" d="M202.783 477.49C202.507 477.566 202.345 477.851 202.421 478.127C202.497 478.403 202.782 478.565 203.058 478.489C203.334 478.413 203.496 478.128 203.42 477.852C203.344 477.576 203.059 477.414 202.783 477.49Z" fill="white"/>
<path opacity="0.3" d="M451.712 449.79C451.436 449.866 451.274 450.151 451.35 450.427C451.426 450.703 451.711 450.865 451.987 450.789C452.263 450.713 452.425 450.428 452.349 450.152C452.273 449.876 451.988 449.714 451.712 449.79Z" fill="white"/>
<path d="M344.17 508.462C343.894 508.538 343.732 508.824 343.808 509.1C343.884 509.376 344.17 509.538 344.446 509.462C344.722 509.386 344.884 509.1 344.808 508.824C344.732 508.548 344.446 508.386 344.17 508.462Z" fill="white"/>
<path d="M267.457 530.671C267.181 530.747 267.019 531.032 267.095 531.308C267.171 531.584 267.456 531.746 267.732 531.67C268.008 531.594 268.17 531.309 268.094 531.033C268.018 530.757 267.733 530.595 267.457 530.671Z" fill="white"/>
<path d="M365.493 453.103C365.217 453.179 365.055 453.465 365.131 453.741C365.207 454.017 365.492 454.179 365.768 454.103C366.044 454.027 366.206 453.741 366.13 453.465C366.054 453.189 365.769 453.027 365.493 453.103Z" fill="white"/>
<path opacity="0.3" d="M400.488 443.461C400.212 443.537 400.05 443.823 400.126 444.099C400.202 444.375 400.488 444.537 400.764 444.461C401.039 444.385 401.202 444.099 401.126 443.823C401.049 443.547 400.764 443.385 400.488 443.461Z" fill="white"/>
<path opacity="0.11" d="M450.015 463.164C449.739 463.24 449.576 463.525 449.653 463.801C449.729 464.077 450.014 464.239 450.29 464.163C450.566 464.087 450.728 463.802 450.652 463.526C450.576 463.25 450.291 463.088 450.015 463.164Z" fill="white"/>
<path opacity="0.3" d="M331.86 498.942C331.584 499.018 331.422 499.304 331.498 499.579C331.574 499.855 331.86 500.018 332.136 499.942C332.412 499.865 332.574 499.58 332.498 499.304C332.422 499.028 332.136 498.866 331.86 498.942Z" fill="white"/>
<path opacity="0.3" d="M354.373 445.945C354.097 446.021 353.935 446.307 354.011 446.583C354.087 446.859 354.373 447.021 354.649 446.945C354.925 446.869 355.087 446.583 355.011 446.307C354.935 446.031 354.649 445.869 354.373 445.945Z" fill="white"/>
<path opacity="0.3" d="M413.49 424.283C413.214 424.359 413.052 424.644 413.128 424.92C413.204 425.196 413.489 425.358 413.765 425.282C414.041 425.206 414.203 424.921 414.127 424.645C414.051 424.369 413.766 424.207 413.49 424.283Z" fill="white"/>
<path opacity="0.3" d="M437.213 453.78C436.937 453.856 436.775 454.141 436.851 454.417C436.927 454.693 437.212 454.855 437.488 454.779C437.764 454.703 437.926 454.418 437.85 454.142C437.774 453.866 437.489 453.704 437.213 453.78Z" fill="white"/>
<path opacity="0.3" d="M126.679 540.947C126.403 541.023 126.241 541.309 126.317 541.584C126.393 541.86 126.678 542.023 126.954 541.947C127.23 541.87 127.392 541.585 127.316 541.309C127.24 541.033 126.955 540.871 126.679 540.947Z" fill="white"/>
<path opacity="0.11" d="M212.813 539.271C212.537 539.347 212.375 539.632 212.451 539.908C212.527 540.184 212.812 540.346 213.088 540.27C213.364 540.194 213.526 539.909 213.45 539.633C213.374 539.357 213.089 539.195 212.813 539.271Z" fill="white"/>
<path opacity="0.11" d="M134.253 515.734C133.977 515.81 133.815 516.095 133.891 516.371C133.967 516.647 134.253 516.809 134.529 516.733C134.805 516.657 134.967 516.372 134.891 516.096C134.815 515.82 134.529 515.658 134.253 515.734Z" fill="white"/>
<path opacity="0.3" d="M259.496 476.388C258.944 476.54 258.619 477.111 258.771 477.663C258.924 478.216 259.495 478.54 260.047 478.388C260.6 478.236 260.924 477.665 260.772 477.112C260.62 476.56 260.048 476.235 259.496 476.388Z" fill="white"/>
<path opacity="0.11" d="M234.129 499.512C233.577 499.664 233.252 500.235 233.405 500.788C233.557 501.34 234.128 501.664 234.68 501.512C235.233 501.36 235.557 500.789 235.405 500.236C235.253 499.684 234.682 499.36 234.129 499.512Z" fill="white"/>
<path d="M239.198 516.939C238.783 517.053 238.54 517.481 238.654 517.896C238.768 518.31 239.197 518.553 239.611 518.439C240.025 518.325 240.268 517.897 240.154 517.482C240.04 517.068 239.612 516.825 239.198 516.939Z" fill="white"/>
<path d="M259.229 454.944C258.815 455.058 258.572 455.487 258.686 455.901C258.8 456.315 259.228 456.558 259.643 456.444C260.057 456.33 260.3 455.902 260.186 455.488C260.072 455.073 259.644 454.83 259.229 454.944Z" fill="white"/>
<path d="M90.5033 490.672C90.0891 490.786 89.8459 491.214 89.96 491.628C90.0741 492.042 90.5024 492.286 90.9166 492.172C91.3308 492.058 91.574 491.629 91.4599 491.215C91.3458 490.801 90.9175 490.558 90.5033 490.672Z" fill="white"/>
<path d="M417.296 409.785C416.882 409.899 416.639 410.328 416.753 410.742C416.867 411.156 417.295 411.399 417.71 411.285C418.124 411.171 418.367 410.743 418.253 410.329C418.139 409.915 417.71 409.671 417.296 409.785Z" fill="white"/>
<path d="M486.948 402.967C486.534 403.081 486.291 403.509 486.405 403.923C486.519 404.337 486.947 404.581 487.361 404.467C487.776 404.352 488.019 403.924 487.905 403.51C487.791 403.096 487.362 402.852 486.948 402.967Z" fill="white"/>
<path d="M500.957 420.621C500.543 420.735 500.3 421.163 500.414 421.577C500.528 421.992 500.956 422.235 501.371 422.121C501.785 422.007 502.028 421.578 501.914 421.164C501.8 420.75 501.372 420.507 500.957 420.621Z" fill="white"/>
<path d="M260.437 500.33C260.023 500.444 259.779 500.872 259.894 501.286C260.008 501.7 260.436 501.944 260.85 501.829C261.264 501.715 261.508 501.287 261.393 500.873C261.279 500.459 260.851 500.215 260.437 500.33Z" fill="white"/>
<path d="M337.234 439.372C336.82 439.486 336.576 439.915 336.69 440.329C336.805 440.743 337.233 440.986 337.647 440.872C338.061 440.758 338.304 440.33 338.19 439.916C338.076 439.501 337.648 439.258 337.234 439.372Z" fill="white"/>
<path d="M205.331 452.582C204.917 452.696 204.674 453.124 204.788 453.538C204.902 453.952 205.33 454.196 205.744 454.082C206.158 453.967 206.402 453.539 206.288 453.125C206.173 452.711 205.745 452.468 205.331 452.582Z" fill="white"/>
<path d="M82.2196 523.075C81.8055 523.19 81.5622 523.618 81.6763 524.032C81.7904 524.446 82.2187 524.689 82.6329 524.575C83.0471 524.461 83.2903 524.033 83.1762 523.619C83.0621 523.205 82.6338 522.961 82.2196 523.075Z" fill="white"/>
<path d="M77.7948 553.875C77.3806 553.989 77.1374 554.417 77.2515 554.832C77.3656 555.246 77.7939 555.489 78.2081 555.375C78.6223 555.261 78.8655 554.833 78.7514 554.418C78.6373 554.004 78.209 553.761 77.7948 553.875Z" fill="white"/>
<path opacity="0.3" d="M197.821 527.805C197.268 527.957 196.944 528.528 197.096 529.08C197.248 529.633 197.819 529.957 198.372 529.805C198.924 529.653 199.249 529.082 199.097 528.529C198.944 527.977 198.373 527.652 197.821 527.805Z" fill="white"/>
<path d="M207.598 563.296C207.045 563.448 206.721 564.019 206.873 564.572C207.025 565.124 207.596 565.448 208.149 565.296C208.701 565.144 209.026 564.573 208.873 564.02C208.721 563.468 208.15 563.144 207.598 563.296Z" fill="white"/>
<path d="M139.425 815.93C138.873 816.082 138.548 816.653 138.701 817.206C138.853 817.758 139.424 818.083 139.976 817.93C140.529 817.778 140.853 817.207 140.701 816.655C140.549 816.102 139.978 815.778 139.425 815.93Z" fill="white"/>
<path d="M169.039 523.896C168.625 524.011 168.382 524.439 168.496 524.853C168.61 525.267 169.039 525.51 169.453 525.396C169.867 525.282 170.11 524.854 169.996 524.44C169.882 524.026 169.454 523.782 169.039 523.896Z" fill="white"/>
<path opacity="0.3" d="M150.164 550.073C149.611 550.225 149.287 550.796 149.439 551.349C149.591 551.901 150.162 552.226 150.715 552.074C151.267 551.921 151.591 551.35 151.439 550.798C151.287 550.245 150.716 549.921 150.164 550.073Z" fill="white"/>
<path opacity="0.3" d="M90.892 528.214C90.3396 528.366 90.0152 528.937 90.1674 529.489C90.3196 530.042 90.8907 530.366 91.4431 530.214C91.9956 530.062 92.32 529.491 92.1678 528.938C92.0156 528.386 91.4444 528.061 90.892 528.214Z" fill="white"/>
<path opacity="0.3" d="M149.109 511.1C148.557 511.252 148.232 511.823 148.385 512.376C148.537 512.928 149.108 513.253 149.66 513.1C150.213 512.948 150.537 512.377 150.385 511.825C150.233 511.272 149.662 510.948 149.109 511.1Z" fill="white"/>
<path opacity="0.3" d="M433.723 423.548C433.171 423.7 432.846 424.272 432.998 424.824C433.151 425.376 433.722 425.701 434.274 425.549C434.827 425.396 435.151 424.825 434.999 424.273C434.847 423.72 434.275 423.396 433.723 423.548Z" fill="white"/>
<path opacity="0.3" d="M481.797 439.887C481.244 440.039 480.92 440.61 481.072 441.163C481.224 441.715 481.795 442.04 482.348 441.887C482.9 441.735 483.225 441.164 483.073 440.612C482.92 440.059 482.349 439.735 481.797 439.887Z" fill="white"/>
<path opacity="0.11" d="M115.521 537.564C114.969 537.716 114.645 538.287 114.797 538.84C114.949 539.392 115.52 539.717 116.073 539.564C116.625 539.412 116.949 538.841 116.797 538.289C116.645 537.736 116.074 537.412 115.521 537.564Z" fill="white"/>
<path opacity="0.3" d="M414.99 476.579C414.437 476.731 414.113 477.302 414.265 477.855C414.417 478.407 414.988 478.731 415.541 478.579C416.093 478.427 416.418 477.856 416.265 477.303C416.113 476.751 415.542 476.427 414.99 476.579Z" fill="white"/>
<path opacity="0.11" d="M431.243 482.857C430.69 483.009 430.366 483.581 430.518 484.133C430.67 484.685 431.241 485.01 431.794 484.858C432.346 484.705 432.671 484.134 432.518 483.582C432.366 483.029 431.795 482.705 431.243 482.857Z" fill="white"/>
<path opacity="0.3" d="M426.424 449.762C425.871 449.914 425.547 450.486 425.699 451.038C425.851 451.59 426.422 451.915 426.975 451.763C427.527 451.61 427.852 451.039 427.7 450.487C427.547 449.934 426.976 449.61 426.424 449.762Z" fill="white"/>
<path d="M395.321 458.871C394.906 458.985 394.663 459.413 394.777 459.827C394.891 460.242 395.32 460.485 395.734 460.371C396.148 460.257 396.391 459.828 396.277 459.414C396.163 459 395.735 458.757 395.321 458.871Z" fill="white"/>
</svg>
