<svg width="17" height="18" viewBox="0 0 17 18" fill="none" xmlns="http://www.w3.org/2000/svg">
<path d="M5.35131 9.53265L6.61872 10.982C6.70212 11.0774 6.80599 11.1528 6.92259 11.2025C7.03918 11.2522 7.16549 11.2749 7.2921 11.269C7.41871 11.2631 7.54235 11.2287 7.65381 11.1684C7.76527 11.108 7.86166 11.0233 7.93581 10.9205L10.965 6.72582M15.3163 12.1997V5.79947C15.3159 5.51933 15.2423 5.24415 15.1029 5.00117C14.9634 4.7582 14.763 4.55585 14.5213 4.41417L8.95311 1.21406C8.71163 1.07385 8.43737 1 8.15814 1C7.87891 1 7.60464 1.07385 7.36316 1.21406L1.79498 4.41417C1.55245 4.55488 1.35128 4.75701 1.21172 5.00021C1.07215 5.2434 0.999134 5.51908 1.00001 5.79947V12.2014C1.00055 12.4814 1.07418 12.7564 1.21361 12.9992C1.35303 13.242 1.55343 13.4442 1.79498 13.5858L7.36316 16.7859C7.60464 16.9261 7.87891 17 8.15814 17C8.43737 17 8.71163 16.9261 8.95311 16.7859L14.5213 13.5858C14.7639 13.445 14.9652 13.2428 15.1048 12.9994C15.2443 12.7561 15.3173 12.4802 15.3163 12.1997Z" stroke="#9864FF" stroke-width="1.5" stroke-linecap="round" stroke-linejoin="round"/>
</svg>
