<svg width="29" height="30" viewBox="0 0 29 30" fill="none" xmlns="http://www.w3.org/2000/svg">
<path d="M27.9992 21.9634V26.1785C28.0007 26.5698 27.9233 26.9571 27.7718 27.3157C27.6203 27.6742 27.3982 27.9961 27.1196 28.2606C26.841 28.5251 26.5121 28.7265 26.1539 28.8519C25.7958 28.9773 25.4162 29.0238 25.0397 28.9886C20.8623 28.5188 16.8496 27.0414 13.324 24.6751C10.0439 22.5179 7.263 19.6397 5.17871 16.2449C2.88441 12.5794 1.45663 8.40611 1.01102 4.06313C0.977094 3.67459 1.02171 3.28299 1.14202 2.91328C1.26234 2.54356 1.45571 2.20382 1.70984 1.91569C1.96397 1.62756 2.27328 1.39736 2.61808 1.23973C2.96288 1.0821 3.33561 1.0005 3.71255 1.00014H7.78521C8.44404 0.993425 9.08274 1.23489 9.58228 1.67952C10.0818 2.12415 10.4081 2.74161 10.5003 3.41681C10.6722 4.76574 10.991 6.09022 11.4506 7.36498C11.6332 7.86788 11.6728 8.41443 11.5645 8.93987C11.4562 9.4653 11.2047 9.94761 10.8397 10.3296L9.11561 12.114C11.0482 15.6316 13.8622 18.5441 17.2609 20.5443L18.985 18.7599C19.3541 18.3821 19.8201 18.1218 20.3278 18.0097C20.8355 17.8977 21.3635 17.9386 21.8494 18.1276C23.0811 18.6033 24.3608 18.9332 25.6642 19.1111C26.3236 19.2074 26.9259 19.5512 27.3564 20.0771C27.7869 20.603 28.0157 21.2743 27.9992 21.9634Z" stroke="#F46D6B" stroke-width="1.5" stroke-linecap="round" stroke-linejoin="round"/>
</svg>
