<svg width="842" height="1252" viewBox="0 0 842 1252" fill="none" xmlns="http://www.w3.org/2000/svg">
<g filter="url(#filter0_f_2089_43061)">
<ellipse cx="384.962" cy="51.0691" rx="384.962" ry="51.0691" transform="matrix(-0.781672 0.62369 0.62369 0.781672 954.828 346)" fill="#732CFF"/>
</g>
<path opacity="0.11" d="M813.067 450.897C812.56 451.156 812.359 451.777 812.618 452.284C812.877 452.791 813.498 452.993 814.005 452.734C814.512 452.475 814.713 451.854 814.454 451.346C814.195 450.839 813.574 450.638 813.067 450.897Z" fill="white"/>
<path d="M807.51 447.372C807.13 447.566 806.979 448.032 807.173 448.412C807.367 448.792 807.833 448.943 808.213 448.749C808.593 448.555 808.744 448.089 808.55 447.709C808.356 447.329 807.89 447.178 807.51 447.372Z" fill="white"/>
<path d="M797.284 464.742C796.904 464.936 796.753 465.402 796.947 465.782C797.141 466.163 797.607 466.313 797.987 466.119C798.368 465.925 798.518 465.459 798.324 465.079C798.13 464.699 797.664 464.548 797.284 464.742Z" fill="white"/>
<path d="M836.762 445.741C836.381 445.935 836.231 446.401 836.425 446.781C836.619 447.162 837.085 447.312 837.465 447.118C837.845 446.924 837.996 446.458 837.802 446.078C837.608 445.698 837.142 445.547 836.762 445.741Z" fill="white"/>
<path d="M805.307 432.297C805.054 432.427 804.953 432.737 805.083 432.99C805.212 433.244 805.522 433.344 805.776 433.215C806.029 433.085 806.129 432.775 806 432.522C805.871 432.268 805.56 432.168 805.307 432.297Z" fill="white"/>
<path d="M704.057 533.375C703.804 533.505 703.703 533.815 703.833 534.068C703.962 534.322 704.272 534.422 704.526 534.293C704.779 534.163 704.879 533.853 704.75 533.6C704.621 533.347 704.31 533.246 704.057 533.375Z" fill="white"/>
<path d="M666.695 583.706C666.441 583.835 666.341 584.145 666.47 584.398C666.6 584.652 666.91 584.752 667.163 584.623C667.417 584.494 667.517 584.183 667.388 583.93C667.258 583.677 666.948 583.576 666.695 583.706Z" fill="white"/>
<path d="M631.684 559.345C631.431 559.475 631.33 559.785 631.46 560.038C631.589 560.292 631.899 560.392 632.153 560.263C632.406 560.133 632.506 559.823 632.377 559.57C632.248 559.316 631.937 559.216 631.684 559.345Z" fill="white"/>
<path opacity="0.11" d="M797.78 415.306C797.526 415.436 797.426 415.746 797.555 415.999C797.685 416.252 797.995 416.353 798.248 416.224C798.502 416.094 798.602 415.784 798.473 415.531C798.343 415.277 798.033 415.177 797.78 415.306Z" fill="white"/>
<path opacity="0.11" d="M710.817 514.882C710.564 515.012 710.463 515.322 710.593 515.575C710.722 515.829 711.032 515.929 711.285 515.8C711.539 515.67 711.639 515.36 711.51 515.107C711.38 514.853 711.07 514.753 710.817 514.882Z" fill="white"/>
<path d="M784.433 553.661C784.18 553.79 784.079 554.1 784.209 554.354C784.338 554.607 784.648 554.707 784.902 554.578C785.155 554.449 785.255 554.138 785.126 553.885C784.997 553.632 784.686 553.531 784.433 553.661Z" fill="white"/>
<path opacity="0.3" d="M841.95 459.869C841.696 459.998 841.596 460.308 841.725 460.562C841.855 460.815 842.165 460.915 842.418 460.786C842.672 460.657 842.772 460.346 842.643 460.093C842.513 459.84 842.203 459.739 841.95 459.869Z" fill="white"/>
<path opacity="0.3" d="M649.482 591.916C649.229 592.045 649.128 592.355 649.258 592.608C649.387 592.862 649.697 592.962 649.95 592.833C650.204 592.704 650.304 592.393 650.175 592.14C650.046 591.887 649.735 591.786 649.482 591.916Z" fill="white"/>
<path opacity="0.11" d="M732.977 573C732.724 573.129 732.623 573.439 732.753 573.692C732.882 573.946 733.192 574.046 733.446 573.917C733.699 573.788 733.799 573.477 733.67 573.224C733.541 572.971 733.23 572.87 732.977 573Z" fill="white"/>
<path opacity="0.11" d="M651.793 565.858C651.54 565.987 651.44 566.298 651.569 566.551C651.698 566.804 652.009 566.905 652.262 566.775C652.515 566.646 652.616 566.336 652.486 566.082C652.357 565.829 652.047 565.729 651.793 565.858Z" fill="white"/>
<path opacity="0.3" d="M765.79 502.427C765.283 502.686 765.082 503.307 765.341 503.815C765.6 504.322 766.221 504.523 766.728 504.264C767.235 504.005 767.437 503.384 767.178 502.877C766.919 502.37 766.298 502.168 765.79 502.427Z" fill="white"/>
<path opacity="0.11" d="M745.743 530.023C745.235 530.282 745.034 530.903 745.293 531.41C745.552 531.917 746.173 532.119 746.68 531.86C747.188 531.601 747.389 530.98 747.13 530.472C746.871 529.965 746.25 529.764 745.743 530.023Z" fill="white"/>
<path d="M754.174 545.967C753.794 546.161 753.643 546.627 753.837 547.007C754.031 547.387 754.497 547.538 754.877 547.344C755.257 547.15 755.408 546.684 755.214 546.304C755.02 545.924 754.554 545.773 754.174 545.967Z" fill="white"/>
<path d="M761.228 481.61C760.847 481.804 760.696 482.269 760.891 482.65C761.085 483.03 761.55 483.181 761.931 482.986C762.311 482.792 762.462 482.327 762.268 481.946C762.073 481.566 761.608 481.415 761.228 481.61Z" fill="white"/>
<path d="M604.183 550.244C603.802 550.438 603.652 550.904 603.846 551.284C604.04 551.665 604.506 551.815 604.886 551.621C605.266 551.427 605.417 550.961 605.223 550.581C605.028 550.201 604.563 550.05 604.183 550.244Z" fill="white"/>
<path d="M771.513 525.539C771.132 525.733 770.982 526.199 771.176 526.579C771.37 526.959 771.836 527.11 772.216 526.916C772.596 526.722 772.747 526.256 772.553 525.876C772.358 525.496 771.893 525.345 771.513 525.539Z" fill="white"/>
<path d="M835.225 400.815C834.844 401.009 834.694 401.474 834.888 401.855C835.082 402.235 835.548 402.386 835.928 402.191C836.308 401.997 836.459 401.532 836.265 401.151C836.07 400.771 835.605 400.62 835.225 400.815Z" fill="white"/>
<path d="M708.296 490.127C707.916 490.321 707.765 490.787 707.959 491.167C708.153 491.547 708.619 491.698 708.999 491.504C709.379 491.31 709.53 490.844 709.336 490.464C709.142 490.084 708.676 489.933 708.296 490.127Z" fill="white"/>
<path d="M602.624 583.444C602.244 583.639 602.093 584.104 602.287 584.484C602.481 584.865 602.947 585.016 603.327 584.821C603.707 584.627 603.858 584.161 603.664 583.781C603.47 583.401 603.004 583.25 602.624 583.444Z" fill="white"/>
<path d="M604.5 614.31C604.12 614.504 603.969 614.97 604.163 615.35C604.357 615.73 604.823 615.881 605.203 615.687C605.583 615.492 605.734 615.027 605.54 614.647C605.346 614.266 604.88 614.115 604.5 614.31Z" fill="white"/>
<path opacity="0.3" d="M716.077 564.845C715.569 565.104 715.368 565.726 715.627 566.233C715.886 566.74 716.507 566.941 717.014 566.682C717.522 566.423 717.723 565.802 717.464 565.295C717.205 564.788 716.584 564.586 716.077 564.845Z" fill="white"/>
<path d="M732.722 597.427C732.215 597.686 732.014 598.307 732.273 598.814C732.532 599.321 733.153 599.522 733.66 599.263C734.167 599.004 734.368 598.383 734.109 597.876C733.85 597.369 733.229 597.168 732.722 597.427Z" fill="white"/>
<path d="M687.287 566.819C686.907 567.014 686.756 567.479 686.95 567.859C687.144 568.24 687.61 568.391 687.99 568.196C688.37 568.002 688.521 567.536 688.327 567.156C688.133 566.776 687.667 566.625 687.287 566.819Z" fill="white"/>
<path opacity="0.3" d="M674.17 596.085C673.663 596.344 673.462 596.965 673.721 597.472C673.98 597.979 674.601 598.18 675.108 597.921C675.615 597.662 675.816 597.041 675.557 596.534C675.298 596.027 674.677 595.826 674.17 596.085Z" fill="white"/>
<path opacity="0.3" d="M612.097 586.705C611.59 586.964 611.389 587.585 611.648 588.092C611.907 588.599 612.528 588.8 613.035 588.541C613.542 588.282 613.743 587.661 613.484 587.154C613.225 586.647 612.604 586.446 612.097 586.705Z" fill="white"/>
<path opacity="0.3" d="M665.323 558.366C664.816 558.625 664.614 559.246 664.873 559.753C665.132 560.26 665.753 560.461 666.261 560.202C666.768 559.943 666.969 559.322 666.71 558.815C666.451 558.308 665.83 558.107 665.323 558.366Z" fill="white"/>
<path opacity="0.11" d="M637.943 590.863C637.436 591.122 637.235 591.743 637.494 592.25C637.753 592.757 638.374 592.958 638.881 592.699C639.388 592.44 639.589 591.819 639.33 591.312C639.071 590.805 638.45 590.604 637.943 590.863Z" fill="white"/>
<path opacity="0.11" d="M724.736 722.078C724.229 722.337 724.028 722.958 724.287 723.465C724.546 723.972 725.167 724.173 725.674 723.914C726.181 723.655 726.382 723.034 726.123 722.527C725.864 722.02 725.243 721.819 724.736 722.078Z" fill="white"/>
<path d="M719.178 718.553C718.797 718.747 718.647 719.213 718.841 719.593C719.035 719.973 719.501 720.124 719.881 719.93C720.261 719.736 720.412 719.27 720.218 718.89C720.024 718.509 719.558 718.359 719.178 718.553Z" fill="white"/>
<path d="M708.952 735.923C708.572 736.117 708.421 736.583 708.615 736.963C708.809 737.343 709.275 737.494 709.655 737.3C710.036 737.106 710.186 736.64 709.992 736.26C709.798 735.88 709.332 735.729 708.952 735.923Z" fill="white"/>
<path d="M748.43 716.921C748.049 717.115 747.899 717.581 748.093 717.961C748.287 718.341 748.753 718.492 749.133 718.298C749.513 718.104 749.664 717.638 749.47 717.258C749.275 716.878 748.81 716.727 748.43 716.921Z" fill="white"/>
<path opacity="0.11" d="M765.523 694.305C765.016 694.564 764.815 695.185 765.074 695.693C765.333 696.2 765.954 696.401 766.461 696.142C766.968 695.883 767.169 695.262 766.91 694.755C766.651 694.248 766.03 694.046 765.523 694.305Z" fill="white"/>
<path d="M779.396 699.948C779.143 700.077 779.042 700.387 779.172 700.641C779.301 700.894 779.611 700.995 779.865 700.865C780.118 700.736 780.218 700.425 780.089 700.172C779.96 699.919 779.649 699.818 779.396 699.948Z" fill="white"/>
<path d="M716.977 703.477C716.724 703.606 716.623 703.917 716.753 704.17C716.882 704.423 717.192 704.524 717.446 704.394C717.699 704.265 717.799 703.955 717.67 703.701C717.541 703.448 717.23 703.348 716.977 703.477Z" fill="white"/>
<path d="M616.929 754.569C616.676 754.698 616.575 755.008 616.705 755.262C616.834 755.515 617.144 755.616 617.398 755.486C617.651 755.357 617.752 755.047 617.622 754.793C617.493 754.54 617.183 754.439 616.929 754.569Z" fill="white"/>
<path d="M579.566 804.9C579.313 805.029 579.212 805.34 579.341 805.593C579.471 805.846 579.781 805.947 580.034 805.817C580.288 805.688 580.388 805.378 580.259 805.124C580.13 804.871 579.819 804.771 579.566 804.9Z" fill="white"/>
<path d="M544.556 780.539C544.303 780.668 544.202 780.978 544.332 781.232C544.461 781.485 544.771 781.585 545.025 781.456C545.278 781.327 545.379 781.016 545.249 780.763C545.12 780.51 544.809 780.409 544.556 780.539Z" fill="white"/>
<path opacity="0.11" d="M780.482 691.875C780.229 692.004 780.128 692.314 780.258 692.567C780.387 692.821 780.697 692.921 780.95 692.792C781.204 692.662 781.304 692.352 781.175 692.099C781.046 691.846 780.735 691.745 780.482 691.875Z" fill="white"/>
<path opacity="0.11" d="M709.45 686.486C709.196 686.615 709.096 686.925 709.225 687.179C709.355 687.432 709.665 687.533 709.918 687.403C710.172 687.274 710.272 686.964 710.143 686.71C710.013 686.457 709.703 686.356 709.45 686.486Z" fill="white"/>
<path opacity="0.11" d="M623.686 736.077C623.433 736.206 623.332 736.516 623.462 736.77C623.591 737.023 623.901 737.123 624.155 736.994C624.408 736.865 624.508 736.554 624.379 736.301C624.25 736.048 623.939 735.947 623.686 736.077Z" fill="white"/>
<path d="M767.508 737.845C767.255 737.975 767.155 738.285 767.284 738.538C767.413 738.791 767.724 738.892 767.977 738.763C768.23 738.633 768.331 738.323 768.201 738.07C768.072 737.816 767.762 737.716 767.508 737.845Z" fill="white"/>
<path d="M697.305 774.856C697.052 774.985 696.951 775.296 697.081 775.549C697.21 775.802 697.52 775.903 697.774 775.773C698.027 775.644 698.128 775.334 697.998 775.08C697.869 774.827 697.559 774.727 697.305 774.856Z" fill="white"/>
<path d="M777.151 679.687C776.898 679.816 776.797 680.127 776.926 680.38C777.056 680.633 777.366 680.734 777.619 680.604C777.873 680.475 777.973 680.165 777.844 679.911C777.714 679.658 777.404 679.558 777.151 679.687Z" fill="white"/>
<path opacity="0.3" d="M810.478 613.295C810.225 613.425 810.124 613.735 810.254 613.988C810.383 614.242 810.693 614.342 810.947 614.213C811.2 614.083 811.3 613.773 811.171 613.52C811.042 613.267 810.731 613.166 810.478 613.295Z" fill="white"/>
<path opacity="0.3" d="M753.618 731.05C753.364 731.18 753.264 731.49 753.393 731.743C753.523 731.997 753.833 732.097 754.086 731.968C754.34 731.838 754.44 731.528 754.311 731.275C754.181 731.021 753.871 730.921 753.618 731.05Z" fill="white"/>
<path opacity="0.3" d="M764.892 674.952C764.639 675.081 764.538 675.391 764.668 675.645C764.797 675.898 765.107 675.998 765.361 675.869C765.614 675.74 765.714 675.429 765.585 675.176C765.456 674.923 765.145 674.822 764.892 674.952Z" fill="white"/>
<path opacity="0.3" d="M819.283 592.019C819.029 592.148 818.929 592.459 819.058 592.712C819.188 592.965 819.498 593.066 819.751 592.936C820.005 592.807 820.105 592.497 819.976 592.243C819.846 591.99 819.536 591.89 819.283 592.019Z" fill="white"/>
<path opacity="0.3" d="M562.353 813.111C562.1 813.24 561.999 813.55 562.129 813.804C562.258 814.057 562.568 814.158 562.822 814.028C563.075 813.899 563.175 813.589 563.046 813.335C562.917 813.082 562.606 812.981 562.353 813.111Z" fill="white"/>
<path opacity="0.11" d="M645.847 794.192C645.594 794.321 645.493 794.632 645.623 794.885C645.752 795.138 646.062 795.239 646.316 795.109C646.569 794.98 646.67 794.67 646.54 794.416C646.411 794.163 646.101 794.062 645.847 794.192Z" fill="white"/>
<path opacity="0.11" d="M564.667 787.051C564.413 787.181 564.313 787.491 564.442 787.744C564.571 787.998 564.882 788.098 565.135 787.969C565.388 787.839 565.489 787.529 565.359 787.276C565.23 787.022 564.92 786.922 564.667 787.051Z" fill="white"/>
<path opacity="0.3" d="M678.661 723.622C678.153 723.881 677.952 724.502 678.211 725.009C678.47 725.516 679.091 725.717 679.598 725.458C680.106 725.199 680.307 724.578 680.048 724.071C679.789 723.564 679.168 723.363 678.661 723.622Z" fill="white"/>
<path opacity="0.11" d="M658.615 751.218C658.108 751.477 657.906 752.098 658.165 752.605C658.424 753.112 659.045 753.313 659.553 753.054C660.06 752.795 660.261 752.174 660.002 751.667C659.743 751.16 659.122 750.959 658.615 751.218Z" fill="white"/>
<path d="M667.046 767.162C666.666 767.356 666.515 767.822 666.709 768.202C666.903 768.582 667.369 768.733 667.749 768.539C668.129 768.345 668.28 767.879 668.086 767.499C667.892 767.119 667.426 766.968 667.046 767.162Z" fill="white"/>
<path d="M674.099 702.805C673.718 702.999 673.568 703.465 673.762 703.845C673.956 704.225 674.422 704.376 674.802 704.182C675.182 703.988 675.333 703.522 675.139 703.142C674.944 702.761 674.479 702.611 674.099 702.805Z" fill="white"/>
<path d="M517.055 771.44C516.674 771.634 516.524 772.099 516.718 772.48C516.912 772.86 517.378 773.011 517.758 772.816C518.138 772.622 518.289 772.157 518.095 771.776C517.901 771.396 517.435 771.245 517.055 771.44Z" fill="white"/>
<path d="M820.08 577.147C819.7 577.341 819.549 577.806 819.743 578.187C819.937 578.567 820.403 578.718 820.783 578.523C821.163 578.329 821.314 577.864 821.12 577.483C820.926 577.103 820.46 576.952 820.08 577.147Z" fill="white"/>
<path d="M684.383 746.733C684.003 746.927 683.852 747.392 684.046 747.773C684.24 748.153 684.706 748.304 685.086 748.109C685.466 747.915 685.617 747.45 685.423 747.069C685.229 746.689 684.763 746.538 684.383 746.733Z" fill="white"/>
<path d="M746.893 671.993C746.512 672.187 746.362 672.653 746.556 673.033C746.75 673.414 747.216 673.564 747.596 673.37C747.976 673.176 748.127 672.71 747.933 672.33C747.738 671.95 747.273 671.799 746.893 671.993Z" fill="white"/>
<path d="M621.167 711.322C620.787 711.517 620.636 711.982 620.83 712.362C621.024 712.743 621.49 712.893 621.87 712.699C622.25 712.505 622.401 712.039 622.207 711.659C622.013 711.279 621.547 711.128 621.167 711.322Z" fill="white"/>
<path d="M515.496 804.639C515.116 804.833 514.965 805.299 515.159 805.679C515.353 806.059 515.819 806.21 516.199 806.016C516.579 805.821 516.73 805.356 516.536 804.976C516.342 804.595 515.876 804.445 515.496 804.639Z" fill="white"/>
<path d="M517.371 835.502C516.991 835.696 516.84 836.162 517.034 836.542C517.228 836.922 517.694 837.073 518.074 836.879C518.454 836.685 518.605 836.219 518.411 835.839C518.217 835.459 517.751 835.308 517.371 835.502Z" fill="white"/>
<path opacity="0.3" d="M628.948 786.04C628.441 786.299 628.239 786.92 628.498 787.427C628.757 787.934 629.378 788.135 629.886 787.876C630.393 787.617 630.594 786.996 630.335 786.489C630.076 785.982 629.455 785.781 628.948 786.04Z" fill="white"/>
<path d="M645.593 818.623C645.086 818.882 644.885 819.503 645.144 820.01C645.403 820.517 646.024 820.718 646.531 820.459C647.038 820.2 647.239 819.579 646.98 819.072C646.721 818.565 646.1 818.364 645.593 818.623Z" fill="white"/>
<path d="M600.158 788.014C599.778 788.208 599.627 788.674 599.821 789.054C600.016 789.434 600.481 789.585 600.861 789.391C601.242 789.196 601.392 788.731 601.198 788.351C601.004 787.97 600.538 787.82 600.158 788.014Z" fill="white"/>
<path opacity="0.3" d="M587.04 817.28C586.533 817.539 586.332 818.16 586.591 818.667C586.85 819.174 587.471 819.375 587.978 819.116C588.485 818.857 588.687 818.236 588.428 817.729C588.169 817.222 587.548 817.021 587.04 817.28Z" fill="white"/>
<path opacity="0.3" d="M524.969 807.899C524.462 808.158 524.261 808.779 524.52 809.286C524.779 809.793 525.4 809.995 525.907 809.736C526.414 809.477 526.615 808.856 526.356 808.348C526.097 807.841 525.476 807.64 524.969 807.899Z" fill="white"/>
<path opacity="0.3" d="M578.194 779.559C577.687 779.818 577.486 780.439 577.745 780.946C578.003 781.454 578.625 781.655 579.132 781.396C579.639 781.137 579.84 780.516 579.581 780.009C579.322 779.501 578.701 779.3 578.194 779.559Z" fill="white"/>
<path opacity="0.3" d="M838.829 587.243C838.321 587.502 838.12 588.123 838.379 588.63C838.638 589.137 839.259 589.338 839.766 589.079C840.273 588.82 840.475 588.199 840.216 587.692C839.957 587.185 839.336 586.984 838.829 587.243Z" fill="white"/>
<path opacity="0.11" d="M550.816 812.057C550.309 812.316 550.108 812.937 550.367 813.445C550.626 813.952 551.247 814.153 551.754 813.894C552.261 813.635 552.462 813.014 552.203 812.507C551.944 812 551.323 811.798 550.816 812.057Z" fill="white"/>
<path opacity="0.3" d="M831.239 642.615C830.732 642.874 830.53 643.495 830.789 644.002C831.048 644.509 831.669 644.71 832.177 644.451C832.684 644.192 832.885 643.571 832.626 643.064C832.367 642.557 831.746 642.356 831.239 642.615Z" fill="white"/>
<path opacity="0.3" d="M836.986 614.221C836.479 614.48 836.278 615.101 836.536 615.609C836.795 616.116 837.417 616.317 837.924 616.058C838.431 615.799 838.632 615.178 838.373 614.671C838.114 614.164 837.493 613.962 836.986 614.221Z" fill="white"/>
<path d="M808.542 629.327C808.162 629.521 808.011 629.987 808.205 630.367C808.399 630.748 808.865 630.898 809.245 630.704C809.625 630.51 809.776 630.044 809.582 629.664C809.388 629.284 808.922 629.133 808.542 629.327Z" fill="white"/>
<path opacity="0.11" d="M446.7 773.417C446.193 773.676 445.991 774.297 446.25 774.804C446.509 775.311 447.13 775.512 447.637 775.253C448.145 774.994 448.346 774.373 448.087 773.866C447.828 773.359 447.207 773.158 446.7 773.417Z" fill="white"/>
<path d="M441.143 769.892C440.762 770.086 440.612 770.552 440.806 770.932C441 771.312 441.466 771.463 441.846 771.269C442.226 771.074 442.377 770.609 442.183 770.229C441.988 769.848 441.523 769.698 441.143 769.892Z" fill="white"/>
<path d="M430.918 787.261C430.538 787.455 430.387 787.921 430.581 788.301C430.775 788.681 431.241 788.832 431.621 788.638C432.001 788.444 432.152 787.978 431.958 787.598C431.764 787.217 431.298 787.067 430.918 787.261Z" fill="white"/>
<path d="M470.396 768.26C470.016 768.454 469.865 768.92 470.06 769.3C470.254 769.68 470.719 769.831 471.1 769.637C471.48 769.443 471.631 768.977 471.436 768.597C471.242 768.217 470.777 768.066 470.396 768.26Z" fill="white"/>
<path opacity="0.11" d="M487.489 745.643C486.982 745.902 486.78 746.523 487.039 747.03C487.298 747.538 487.919 747.739 488.427 747.48C488.934 747.221 489.135 746.6 488.876 746.093C488.617 745.585 487.996 745.384 487.489 745.643Z" fill="white"/>
<path d="M501.362 751.286C501.109 751.415 501.008 751.725 501.137 751.979C501.267 752.232 501.577 752.332 501.83 752.203C502.084 752.074 502.184 751.763 502.055 751.51C501.925 751.257 501.615 751.156 501.362 751.286Z" fill="white"/>
<path d="M438.941 754.817C438.688 754.946 438.587 755.257 438.716 755.51C438.846 755.763 439.156 755.864 439.409 755.734C439.663 755.605 439.763 755.295 439.634 755.041C439.505 754.788 439.194 754.688 438.941 754.817Z" fill="white"/>
<path d="M338.894 805.909C338.641 806.038 338.54 806.348 338.67 806.602C338.799 806.855 339.109 806.955 339.363 806.826C339.616 806.697 339.716 806.386 339.587 806.133C339.458 805.88 339.147 805.779 338.894 805.909Z" fill="white"/>
<path d="M301.534 856.239C301.28 856.368 301.18 856.678 301.309 856.932C301.439 857.185 301.749 857.286 302.002 857.156C302.256 857.027 302.356 856.717 302.227 856.463C302.097 856.21 301.787 856.109 301.534 856.239Z" fill="white"/>
<path d="M266.522 831.878C266.269 832.008 266.168 832.318 266.298 832.571C266.427 832.825 266.737 832.925 266.99 832.796C267.244 832.666 267.344 832.356 267.215 832.103C267.086 831.849 266.775 831.749 266.522 831.878Z" fill="white"/>
<path d="M597.62 688.243C597.366 688.372 597.266 688.682 597.395 688.936C597.525 689.189 597.835 689.289 598.088 689.16C598.342 689.031 598.442 688.72 598.313 688.467C598.183 688.214 597.873 688.113 597.62 688.243Z" fill="white"/>
<path opacity="0.11" d="M617.156 709.506C616.902 709.636 616.802 709.946 616.931 710.199C617.061 710.453 617.371 710.553 617.624 710.424C617.878 710.294 617.978 709.984 617.849 709.731C617.719 709.477 617.409 709.377 617.156 709.506Z" fill="white"/>
<path opacity="0.11" d="M631.495 688.874C631.241 689.004 631.141 689.314 631.27 689.567C631.4 689.821 631.71 689.921 631.963 689.792C632.217 689.663 632.317 689.352 632.188 689.099C632.058 688.846 631.748 688.745 631.495 688.874Z" fill="white"/>
<path opacity="0.11" d="M602.291 669.074C602.037 669.203 601.937 669.513 602.066 669.767C602.196 670.02 602.506 670.12 602.759 669.991C603.012 669.862 603.113 669.551 602.984 669.298C602.854 669.045 602.544 668.944 602.291 669.074Z" fill="white"/>
<path opacity="0.11" d="M502.45 743.212C502.196 743.342 502.096 743.652 502.225 743.905C502.355 744.159 502.665 744.259 502.918 744.13C503.172 744 503.272 743.69 503.143 743.437C503.013 743.183 502.703 743.083 502.45 743.212Z" fill="white"/>
<path opacity="0.11" d="M431.423 737.826C431.17 737.955 431.07 738.265 431.199 738.519C431.328 738.772 431.639 738.872 431.892 738.743C432.145 738.614 432.246 738.303 432.116 738.05C431.987 737.797 431.677 737.696 431.423 737.826Z" fill="white"/>
<path opacity="0.11" d="M345.654 787.416C345.401 787.545 345.3 787.855 345.429 788.108C345.559 788.362 345.869 788.462 346.122 788.333C346.376 788.204 346.476 787.893 346.347 787.64C346.217 787.387 345.907 787.286 345.654 787.416Z" fill="white"/>
<path opacity="0.3" d="M582.365 710.496C582.111 710.625 582.011 710.935 582.14 711.189C582.27 711.442 582.58 711.542 582.833 711.413C583.087 711.284 583.187 710.973 583.058 710.72C582.928 710.467 582.618 710.366 582.365 710.496Z" fill="white"/>
<path d="M489.475 789.183C489.222 789.312 489.121 789.623 489.251 789.876C489.38 790.129 489.69 790.23 489.944 790.1C490.197 789.971 490.297 789.661 490.168 789.408C490.039 789.154 489.728 789.054 489.475 789.183Z" fill="white"/>
<path d="M419.271 826.194C419.018 826.323 418.917 826.633 419.047 826.887C419.176 827.14 419.486 827.241 419.74 827.111C419.993 826.982 420.093 826.672 419.964 826.418C419.835 826.165 419.524 826.064 419.271 826.194Z" fill="white"/>
<path d="M499.119 731.024C498.865 731.153 498.765 731.464 498.894 731.717C499.024 731.97 499.334 732.071 499.587 731.941C499.841 731.812 499.941 731.502 499.812 731.248C499.682 730.995 499.372 730.895 499.119 731.024Z" fill="white"/>
<path opacity="0.3" d="M531.242 714.619C530.988 714.748 530.888 715.058 531.017 715.312C531.147 715.565 531.457 715.665 531.71 715.536C531.964 715.407 532.064 715.096 531.935 714.843C531.805 714.59 531.495 714.489 531.242 714.619Z" fill="white"/>
<path opacity="0.11" d="M583.398 723.854C583.145 723.983 583.044 724.294 583.174 724.547C583.303 724.8 583.613 724.901 583.866 724.771C584.12 724.642 584.22 724.332 584.091 724.078C583.962 723.825 583.651 723.725 583.398 723.854Z" fill="white"/>
<path opacity="0.3" d="M475.583 782.388C475.329 782.518 475.229 782.828 475.358 783.081C475.487 783.334 475.798 783.435 476.051 783.306C476.304 783.176 476.405 782.866 476.275 782.613C476.146 782.359 475.836 782.259 475.583 782.388Z" fill="white"/>
<path opacity="0.3" d="M486.858 726.291C486.605 726.42 486.504 726.73 486.633 726.983C486.763 727.237 487.073 727.337 487.326 727.208C487.58 727.079 487.68 726.768 487.551 726.515C487.422 726.262 487.111 726.161 486.858 726.291Z" fill="white"/>
<path opacity="0.3" d="M540.045 693.342C539.792 693.472 539.692 693.782 539.821 694.035C539.95 694.289 540.261 694.389 540.514 694.26C540.767 694.13 540.868 693.82 540.738 693.567C540.609 693.313 540.299 693.213 540.045 693.342Z" fill="white"/>
<path opacity="0.3" d="M569.056 717.291C568.803 717.421 568.702 717.731 568.832 717.984C568.961 718.238 569.271 718.338 569.525 718.209C569.778 718.079 569.879 717.769 569.749 717.516C569.62 717.263 569.309 717.162 569.056 717.291Z" fill="white"/>
<path opacity="0.3" d="M284.319 864.45C284.066 864.579 283.965 864.889 284.094 865.143C284.224 865.396 284.534 865.496 284.787 865.367C285.041 865.238 285.141 864.927 285.012 864.674C284.882 864.421 284.572 864.32 284.319 864.45Z" fill="white"/>
<path opacity="0.11" d="M367.814 845.532C367.561 845.661 367.46 845.971 367.59 846.225C367.719 846.478 368.029 846.578 368.283 846.449C368.536 846.32 368.636 846.009 368.507 845.756C368.378 845.503 368.067 845.402 367.814 845.532Z" fill="white"/>
<path opacity="0.11" d="M286.631 838.39C286.378 838.519 286.278 838.83 286.407 839.083C286.536 839.336 286.847 839.437 287.1 839.308C287.353 839.178 287.454 838.868 287.324 838.615C287.195 838.361 286.885 838.261 286.631 838.39Z" fill="white"/>
<path opacity="0.3" d="M400.627 774.96C400.12 775.219 399.919 775.84 400.178 776.347C400.437 776.854 401.058 777.055 401.565 776.796C402.072 776.537 402.273 775.916 402.014 775.409C401.755 774.902 401.134 774.701 400.627 774.96Z" fill="white"/>
<path opacity="0.11" d="M380.58 802.556C380.072 802.815 379.871 803.436 380.13 803.944C380.389 804.451 381.01 804.652 381.517 804.393C382.024 804.134 382.226 803.513 381.967 803.006C381.708 802.499 381.087 802.297 380.58 802.556Z" fill="white"/>
<path d="M389.011 818.5C388.631 818.694 388.48 819.16 388.674 819.54C388.868 819.92 389.334 820.071 389.714 819.877C390.094 819.683 390.245 819.217 390.051 818.837C389.857 818.457 389.391 818.306 389.011 818.5Z" fill="white"/>
<path d="M396.064 754.144C395.684 754.338 395.533 754.803 395.728 755.184C395.922 755.564 396.387 755.715 396.768 755.521C397.148 755.326 397.299 754.861 397.104 754.481C396.91 754.1 396.445 753.949 396.064 754.144Z" fill="white"/>
<path d="M239.02 822.776C238.64 822.971 238.489 823.436 238.684 823.817C238.878 824.197 239.343 824.348 239.724 824.153C240.104 823.959 240.255 823.494 240.061 823.113C239.866 822.733 239.401 822.582 239.02 822.776Z" fill="white"/>
<path d="M540.843 678.47C540.463 678.664 540.312 679.13 540.506 679.51C540.7 679.89 541.166 680.041 541.546 679.847C541.926 679.653 542.077 679.187 541.883 678.807C541.689 678.426 541.223 678.276 540.843 678.47Z" fill="white"/>
<path d="M607.262 657.854C606.881 658.048 606.731 658.513 606.925 658.894C607.119 659.274 607.585 659.425 607.965 659.231C608.345 659.036 608.496 658.571 608.302 658.19C608.108 657.81 607.642 657.659 607.262 657.854Z" fill="white"/>
<path d="M624.44 672.226C624.06 672.42 623.909 672.886 624.104 673.266C624.298 673.646 624.763 673.797 625.144 673.603C625.524 673.408 625.675 672.943 625.48 672.563C625.286 672.182 624.821 672.032 624.44 672.226Z" fill="white"/>
<path d="M406.35 798.072C405.969 798.267 405.819 798.732 406.013 799.112C406.207 799.493 406.673 799.643 407.053 799.449C407.433 799.255 407.584 798.789 407.39 798.409C407.195 798.029 406.73 797.878 406.35 798.072Z" fill="white"/>
<path d="M468.857 723.332C468.477 723.526 468.326 723.992 468.521 724.372C468.715 724.752 469.18 724.903 469.561 724.709C469.941 724.515 470.092 724.049 469.897 723.669C469.703 723.289 469.238 723.138 468.857 723.332Z" fill="white"/>
<path d="M343.132 762.661C342.752 762.855 342.601 763.321 342.795 763.701C342.989 764.081 343.455 764.232 343.835 764.038C344.215 763.844 344.366 763.378 344.172 762.998C343.978 762.618 343.512 762.467 343.132 762.661Z" fill="white"/>
<path d="M237.462 855.978C237.082 856.172 236.931 856.637 237.125 857.018C237.319 857.398 237.785 857.549 238.165 857.355C238.545 857.16 238.696 856.695 238.502 856.314C238.308 855.934 237.842 855.783 237.462 855.978Z" fill="white"/>
<path d="M239.337 886.84C238.957 887.034 238.806 887.5 239 887.88C239.194 888.26 239.66 888.411 240.04 888.217C240.42 888.023 240.571 887.557 240.377 887.177C240.183 886.797 239.717 886.646 239.337 886.84Z" fill="white"/>
<path opacity="0.3" d="M350.921 837.38C350.414 837.639 350.213 838.26 350.472 838.767C350.731 839.274 351.352 839.475 351.859 839.216C352.366 838.957 352.567 838.336 352.308 837.829C352.049 837.322 351.428 837.121 350.921 837.38Z" fill="white"/>
<path d="M367.56 869.96C367.053 870.219 366.852 870.84 367.111 871.347C367.37 871.854 367.991 872.055 368.498 871.796C369.005 871.537 369.206 870.916 368.947 870.409C368.688 869.902 368.067 869.701 367.56 869.96Z" fill="white"/>
<path d="M322.126 839.353C321.746 839.547 321.595 840.012 321.789 840.393C321.983 840.773 322.449 840.924 322.829 840.73C323.209 840.535 323.36 840.07 323.166 839.689C322.972 839.309 322.506 839.158 322.126 839.353Z" fill="white"/>
<path opacity="0.3" d="M309.008 868.617C308.501 868.876 308.3 869.497 308.559 870.004C308.818 870.511 309.439 870.712 309.946 870.453C310.453 870.194 310.654 869.573 310.395 869.066C310.136 868.559 309.515 868.358 309.008 868.617Z" fill="white"/>
<path opacity="0.3" d="M246.933 859.238C246.426 859.497 246.225 860.118 246.484 860.625C246.743 861.132 247.364 861.333 247.871 861.074C248.378 860.815 248.579 860.194 248.32 859.687C248.061 859.18 247.44 858.979 246.933 859.238Z" fill="white"/>
<path opacity="0.3" d="M300.16 830.899C299.652 831.158 299.451 831.779 299.71 832.286C299.969 832.793 300.59 832.995 301.097 832.736C301.605 832.477 301.806 831.856 301.547 831.348C301.288 830.841 300.667 830.64 300.16 830.899Z" fill="white"/>
<path opacity="0.3" d="M559.591 688.567C559.084 688.826 558.883 689.447 559.142 689.954C559.401 690.461 560.022 690.662 560.529 690.404C561.036 690.145 561.237 689.523 560.978 689.016C560.719 688.509 560.098 688.308 559.591 688.567Z" fill="white"/>
<path opacity="0.3" d="M609.659 694.821C609.151 695.08 608.95 695.701 609.209 696.208C609.468 696.715 610.089 696.916 610.596 696.657C611.104 696.398 611.305 695.777 611.046 695.27C610.787 694.763 610.166 694.562 609.659 694.821Z" fill="white"/>
<path opacity="0.11" d="M272.782 863.395C272.275 863.654 272.073 864.275 272.332 864.782C272.591 865.289 273.212 865.491 273.72 865.232C274.227 864.973 274.428 864.352 274.169 863.845C273.91 863.337 273.289 863.136 272.782 863.395Z" fill="white"/>
<path opacity="0.3" d="M552.001 743.939C551.494 744.198 551.293 744.819 551.552 745.326C551.811 745.833 552.432 746.035 552.939 745.776C553.446 745.517 553.647 744.896 553.388 744.388C553.129 743.881 552.508 743.68 552.001 743.939Z" fill="white"/>
<path opacity="0.11" d="M569.08 746.789C568.573 747.048 568.372 747.669 568.631 748.176C568.89 748.683 569.511 748.884 570.018 748.625C570.525 748.366 570.727 747.745 570.468 747.238C570.209 746.731 569.588 746.53 569.08 746.789Z" fill="white"/>
<path opacity="0.3" d="M557.748 715.545C557.241 715.804 557.04 716.425 557.299 716.932C557.558 717.439 558.179 717.64 558.686 717.381C559.193 717.122 559.395 716.501 559.136 715.994C558.877 715.487 558.256 715.286 557.748 715.545Z" fill="white"/>
<path d="M529.306 730.652C528.925 730.846 528.775 731.311 528.969 731.692C529.163 732.072 529.629 732.223 530.009 732.028C530.389 731.834 530.54 731.369 530.346 730.988C530.151 730.608 529.686 730.457 529.306 730.652Z" fill="white"/>
<defs>
<filter id="filter0_f_2089_43061" x="0.745514" y="0.185944" width="1370.04" height="1251.66" filterUnits="userSpaceOnUse" color-interpolation-filters="sRGB">
<feFlood flood-opacity="0" result="BackgroundImageFix"/>
<feBlend mode="normal" in="SourceGraphic" in2="BackgroundImageFix" result="shape"/>
<feGaussianBlur stdDeviation="191.2" result="effect1_foregroundBlur_2089_43061"/>
</filter>
</defs>
</svg>
