<svg width="673" height="511" viewBox="0 0 673 511" fill="none" xmlns="http://www.w3.org/2000/svg">
<path opacity="0.11" d="M106.176 108.879C106.677 109.15 106.863 109.776 106.592 110.276C106.321 110.777 105.695 110.963 105.194 110.692C104.694 110.421 104.507 109.795 104.778 109.295C105.05 108.794 105.675 108.608 106.176 108.879Z" fill="white"/>
<path d="M111.816 105.488C112.192 105.691 112.331 106.16 112.128 106.536C111.925 106.911 111.456 107.051 111.08 106.848C110.705 106.644 110.565 106.175 110.768 105.8C110.972 105.424 111.441 105.285 111.816 105.488Z" fill="white"/>
<path d="M121.621 123.099C121.996 123.303 122.136 123.772 121.933 124.147C121.729 124.523 121.26 124.662 120.885 124.459C120.509 124.256 120.37 123.786 120.573 123.411C120.776 123.036 121.246 122.896 121.621 123.099Z" fill="white"/>
<path d="M82.6122 103.153C82.9876 103.356 83.1272 103.825 82.9239 104.201C82.7206 104.576 82.2515 104.716 81.8761 104.513C81.5006 104.309 81.3611 103.84 81.5643 103.465C81.7676 103.089 82.2368 102.95 82.6122 103.153Z" fill="white"/>
<path opacity="0.11" d="M66.0681 80.1327C66.5688 80.4039 66.7549 81.0295 66.4838 81.5302C66.2127 82.031 65.587 82.2171 65.0863 81.946C64.5856 81.6749 64.3995 81.0492 64.6706 80.5485C64.9417 80.0477 65.5674 79.8616 66.0681 80.1327Z" fill="white"/>
<path d="M52.0645 85.4409C52.3146 85.5764 52.4076 85.8889 52.2722 86.1391C52.1368 86.3892 51.8242 86.4822 51.574 86.3468C51.3239 86.2114 51.2309 85.8988 51.3663 85.6486C51.5018 85.3985 51.8143 85.3055 52.0645 85.4409Z" fill="white"/>
<path d="M114.381 90.4702C114.631 90.6057 114.724 90.9182 114.589 91.1684C114.453 91.4185 114.141 91.5115 113.89 91.3761C113.64 91.2407 113.547 90.928 113.683 90.6779C113.818 90.4278 114.131 90.3348 114.381 90.4702Z" fill="white"/>
<path d="M213.17 143.956C213.42 144.091 213.513 144.404 213.378 144.654C213.242 144.904 212.93 144.997 212.679 144.861C212.429 144.726 212.336 144.413 212.472 144.163C212.607 143.913 212.92 143.82 213.17 143.956Z" fill="white"/>
<path d="M249.31 195.17C249.56 195.306 249.653 195.618 249.517 195.869C249.382 196.119 249.069 196.212 248.819 196.076C248.569 195.941 248.476 195.628 248.611 195.378C248.747 195.128 249.059 195.035 249.31 195.17Z" fill="white"/>
<path d="M284.897 171.66C285.147 171.795 285.24 172.108 285.104 172.358C284.969 172.608 284.656 172.701 284.406 172.566C284.156 172.43 284.063 172.118 284.198 171.867C284.334 171.617 284.646 171.524 284.897 171.66Z" fill="white"/>
<path opacity="0.11" d="M51.1714 77.3414C51.4215 77.4768 51.5145 77.7894 51.3791 78.0395C51.2437 78.2897 50.9311 78.3826 50.6809 78.2472C50.4308 78.1117 50.3378 77.7992 50.4733 77.549C50.6087 77.2989 50.9213 77.2059 51.1714 77.3414Z" fill="white"/>
<path opacity="0.11" d="M122.314 73.6655C122.565 73.801 122.658 74.1136 122.522 74.3637C122.387 74.6139 122.074 74.7068 121.824 74.5714C121.574 74.436 121.481 74.1234 121.616 73.8733C121.752 73.6231 122.064 73.5301 122.314 73.6655Z" fill="white"/>
<path opacity="0.11" d="M206.857 125.305C207.108 125.441 207.201 125.753 207.065 126.003C206.93 126.254 206.617 126.347 206.367 126.211C206.117 126.076 206.024 125.763 206.159 125.513C206.295 125.263 206.607 125.17 206.857 125.305Z" fill="white"/>
<path d="M63.0362 123.612C63.2863 123.747 63.3793 124.06 63.2439 124.31C63.1084 124.56 62.7959 124.653 62.5457 124.518C62.2956 124.382 62.2026 124.07 62.338 123.82C62.4734 123.569 62.786 123.476 63.0362 123.612Z" fill="white"/>
<path d="M132.329 162.301C132.579 162.437 132.672 162.749 132.536 162.999C132.401 163.25 132.088 163.343 131.838 163.207C131.588 163.072 131.495 162.759 131.63 162.509C131.766 162.259 132.079 162.166 132.329 162.301Z" fill="white"/>
<path d="M54.7949 65.2388C55.0451 65.3743 55.1381 65.6868 55.0026 65.937C54.8672 66.1871 54.5546 66.2801 54.3045 66.1446C54.0543 66.0092 53.9613 65.6967 54.0968 65.4465C54.2322 65.1964 54.5448 65.1034 54.7949 65.2388Z" fill="white"/>
<path opacity="0.3" d="M23.0752 48.0631C23.3254 48.1985 23.4184 48.5111 23.2829 48.7612C23.1475 49.0113 22.8349 49.1043 22.5848 48.9689C22.3346 48.8334 22.2416 48.5209 22.3771 48.2707C22.5125 48.0206 22.8251 47.9276 23.0752 48.0631Z" fill="white"/>
<path opacity="0.3" d="M77.086 117.153C77.3361 117.288 77.4291 117.601 77.2937 117.851C77.1582 118.101 76.8457 118.194 76.5955 118.059C76.3454 117.923 76.2524 117.611 76.3878 117.361C76.5232 117.11 76.8358 117.017 77.086 117.153Z" fill="white"/>
<path opacity="0.3" d="M67.1641 60.8003C67.4142 60.9357 67.5072 61.2484 67.3718 61.4985C67.2363 61.7486 66.9238 61.8416 66.6736 61.7062C66.4235 61.5707 66.3305 61.2582 66.4659 61.008C66.6014 60.7579 66.914 60.6649 67.1641 60.8003Z" fill="white"/>
<path opacity="0.3" d="M14.7852 26.5816C15.0353 26.717 15.1283 27.0296 14.9929 27.2798C14.8574 27.5299 14.5449 27.6229 14.2947 27.4874C14.0446 27.352 13.9516 27.0394 14.087 26.7893C14.2225 26.5391 14.535 26.4462 14.7852 26.5816Z" fill="white"/>
<path opacity="0.3" d="M266.32 203.793C266.571 203.928 266.663 204.241 266.528 204.491C266.393 204.741 266.08 204.834 265.83 204.698C265.58 204.563 265.487 204.25 265.622 204C265.758 203.75 266.07 203.657 266.32 203.793Z" fill="white"/>
<path opacity="0.11" d="M183.305 182.873C183.555 183.008 183.648 183.321 183.513 183.571C183.377 183.821 183.065 183.914 182.815 183.778C182.565 183.643 182.472 183.33 182.607 183.08C182.742 182.83 183.055 182.737 183.305 182.873Z" fill="white"/>
<path opacity="0.11" d="M264.637 177.686C264.887 177.821 264.98 178.134 264.844 178.384C264.709 178.634 264.396 178.727 264.146 178.592C263.896 178.456 263.803 178.144 263.939 177.894C264.074 177.644 264.387 177.551 264.637 177.686Z" fill="white"/>
<path opacity="0.3" d="M152.199 111.531C152.7 111.802 152.886 112.428 152.615 112.929C152.344 113.429 151.718 113.616 151.217 113.344C150.716 113.073 150.53 112.448 150.801 111.947C151.073 111.446 151.698 111.26 152.199 111.531Z" fill="white"/>
<path opacity="0.11" d="M171.577 139.601C172.078 139.873 172.264 140.498 171.993 140.999C171.722 141.5 171.096 141.686 170.595 141.415C170.094 141.144 169.908 140.518 170.179 140.017C170.45 139.516 171.076 139.33 171.577 139.601Z" fill="white"/>
<path d="M162.764 155.339C163.139 155.542 163.279 156.011 163.076 156.386C162.872 156.762 162.403 156.901 162.028 156.698C161.652 156.495 161.513 156.026 161.716 155.65C161.919 155.275 162.389 155.135 162.764 155.339Z" fill="white"/>
<path d="M157.262 90.8289C157.637 91.0321 157.777 91.5013 157.573 91.8767C157.37 92.2521 156.901 92.3917 156.525 92.1884C156.15 91.9851 156.01 91.516 156.214 91.1405C156.417 90.7651 156.886 90.6256 157.262 90.8289Z" fill="white"/>
<path d="M312.609 163.222C312.984 163.426 313.124 163.895 312.92 164.27C312.717 164.646 312.248 164.785 311.873 164.582C311.497 164.379 311.358 163.91 311.561 163.534C311.764 163.159 312.233 163.019 312.609 163.222Z" fill="white"/>
<path d="M14.3466 11.6951C14.722 11.8983 14.8615 12.3675 14.6583 12.7429C14.455 13.1183 13.9859 13.2579 13.6104 13.0546C13.235 12.8513 13.0954 12.3822 13.2987 12.0068C13.502 11.6313 13.9711 11.4918 14.3466 11.6951Z" fill="white"/>
<path d="M145.923 134.499C146.298 134.702 146.438 135.171 146.234 135.547C146.031 135.922 145.562 136.062 145.187 135.858C144.811 135.655 144.672 135.186 144.875 134.81C145.078 134.435 145.547 134.295 145.923 134.499Z" fill="white"/>
<path d="M85.2299 58.2761C85.6053 58.4794 85.7449 58.9485 85.5416 59.3239C85.3383 59.6993 84.8692 59.8389 84.4938 59.6356C84.1183 59.4324 83.9788 58.9632 84.182 58.5878C84.3853 58.2123 84.8545 58.0728 85.2299 58.2761Z" fill="white"/>
<path d="M209.973 100.618C210.348 100.821 210.488 101.29 210.284 101.666C210.081 102.041 209.612 102.181 209.236 101.977C208.861 101.774 208.721 101.305 208.925 100.93C209.128 100.554 209.597 100.415 209.973 100.618Z" fill="white"/>
<path d="M313.368 196.451C313.744 196.654 313.883 197.123 313.68 197.499C313.476 197.874 313.007 198.014 312.632 197.81C312.257 197.607 312.117 197.138 312.32 196.763C312.523 196.387 312.993 196.248 313.368 196.451Z" fill="white"/>
<path d="M310.75 227.262C311.125 227.466 311.265 227.935 311.062 228.31C310.858 228.686 310.389 228.825 310.014 228.622C309.638 228.419 309.499 227.95 309.702 227.574C309.905 227.199 310.374 227.059 310.75 227.262Z" fill="white"/>
<path opacity="0.3" d="M200.396 175.127C200.897 175.398 201.083 176.024 200.812 176.524C200.541 177.025 199.915 177.211 199.414 176.94C198.914 176.669 198.728 176.043 198.999 175.543C199.27 175.042 199.896 174.856 200.396 175.127Z" fill="white"/>
<path d="M182.972 207.299C183.473 207.57 183.659 208.196 183.388 208.696C183.117 209.197 182.491 209.383 181.991 209.112C181.49 208.841 181.304 208.215 181.575 207.714C181.846 207.214 182.472 207.028 182.972 207.299Z" fill="white"/>
<path d="M229.13 177.794C229.505 177.997 229.645 178.466 229.442 178.842C229.238 179.217 228.769 179.357 228.394 179.153C228.018 178.95 227.879 178.481 228.082 178.105C228.285 177.73 228.754 177.59 229.13 177.794Z" fill="white"/>
<path opacity="0.3" d="M241.539 207.366C242.04 207.637 242.226 208.263 241.955 208.764C241.684 209.264 241.058 209.45 240.558 209.179C240.057 208.908 239.871 208.283 240.142 207.782C240.413 207.281 241.039 207.095 241.539 207.366Z" fill="white"/>
<path opacity="0.3" d="M303.821 199.482C304.321 199.753 304.507 200.379 304.236 200.88C303.965 201.381 303.339 201.567 302.839 201.296C302.338 201.024 302.152 200.399 302.423 199.898C302.694 199.397 303.32 199.211 303.821 199.482Z" fill="white"/>
<path opacity="0.3" d="M251.292 169.871C251.792 170.142 251.979 170.768 251.707 171.269C251.436 171.769 250.811 171.955 250.31 171.684C249.809 171.413 249.623 170.787 249.894 170.287C250.165 169.786 250.791 169.6 251.292 169.871Z" fill="white"/>
<path opacity="0.11" d="M277.88 203.017C278.381 203.289 278.567 203.914 278.296 204.415C278.025 204.916 277.399 205.102 276.898 204.831C276.398 204.56 276.211 203.934 276.483 203.433C276.754 202.932 277.379 202.746 277.88 203.017Z" fill="white"/>
<path opacity="0.3" d="M1.61597 76.8768C2.11668 77.1479 2.3028 77.7737 2.03168 78.2744C1.76057 78.7751 1.13488 78.9612 0.634168 78.6901C0.133452 78.419 -0.0526861 77.7933 0.218426 77.2926C0.489539 76.7919 1.11525 76.6057 1.61597 76.8768Z" fill="white"/>
<path d="M24.6254 64.1384C25.0008 64.3417 25.1404 64.8108 24.9371 65.1863C24.7338 65.5617 24.2647 65.7012 23.8892 65.4979C23.5138 65.2947 23.3743 64.8256 23.5775 64.4501C23.7808 64.0747 24.25 63.9351 24.6254 64.1384Z" fill="white"/>
<path opacity="0.11" d="M187.957 332.105C188.457 332.376 188.644 333.002 188.372 333.503C188.101 334.004 187.476 334.19 186.975 333.919C186.474 333.648 186.288 333.022 186.559 332.521C186.83 332.02 187.456 331.834 187.957 332.105Z" fill="white"/>
<path d="M193.599 328.716C193.974 328.919 194.114 329.388 193.91 329.763C193.707 330.139 193.238 330.278 192.862 330.075C192.487 329.872 192.347 329.403 192.551 329.027C192.754 328.652 193.223 328.512 193.599 328.716Z" fill="white"/>
<path d="M203.403 346.327C203.779 346.53 203.918 346.999 203.715 347.375C203.512 347.75 203.043 347.89 202.667 347.686C202.292 347.483 202.152 347.014 202.355 346.639C202.559 346.263 203.028 346.124 203.403 346.327Z" fill="white"/>
<path d="M164.393 326.38C164.768 326.583 164.908 327.052 164.705 327.427C164.501 327.803 164.032 327.942 163.657 327.739C163.281 327.536 163.142 327.067 163.345 326.691C163.548 326.316 164.018 326.176 164.393 326.38Z" fill="white"/>
<path opacity="0.11" d="M147.849 303.36C148.35 303.631 148.536 304.257 148.265 304.758C147.994 305.258 147.368 305.445 146.868 305.174C146.367 304.902 146.181 304.277 146.452 303.776C146.723 303.275 147.349 303.089 147.849 303.36Z" fill="white"/>
<path d="M133.844 308.667C134.094 308.802 134.187 309.115 134.052 309.365C133.917 309.615 133.604 309.708 133.354 309.572C133.104 309.437 133.011 309.124 133.146 308.874C133.282 308.624 133.594 308.531 133.844 308.667Z" fill="white"/>
<path d="M196.161 313.697C196.411 313.832 196.504 314.145 196.369 314.395C196.233 314.645 195.921 314.738 195.671 314.603C195.421 314.467 195.328 314.155 195.463 313.904C195.598 313.654 195.911 313.561 196.161 313.697Z" fill="white"/>
<path d="M294.95 367.181C295.2 367.317 295.293 367.629 295.158 367.879C295.022 368.13 294.71 368.222 294.46 368.087C294.21 367.952 294.117 367.639 294.252 367.389C294.388 367.139 294.7 367.046 294.95 367.181Z" fill="white"/>
<path d="M331.091 418.396C331.341 418.531 331.434 418.844 331.299 419.094C331.163 419.344 330.851 419.437 330.6 419.302C330.35 419.166 330.257 418.854 330.393 418.604C330.528 418.354 330.841 418.261 331.091 418.396Z" fill="white"/>
<path d="M366.677 394.884C366.927 395.02 367.02 395.332 366.884 395.582C366.749 395.833 366.436 395.926 366.186 395.79C365.936 395.655 365.843 395.342 365.979 395.092C366.114 394.842 366.427 394.749 366.677 394.884Z" fill="white"/>
<path d="M39.1329 243.325C39.383 243.46 39.476 243.773 39.3405 244.023C39.2051 244.273 38.8925 244.366 38.6424 244.231C38.3922 244.095 38.2993 243.783 38.4347 243.532C38.5701 243.282 38.8827 243.189 39.1329 243.325Z" fill="white"/>
<path opacity="0.11" d="M19.0909 264.114C19.341 264.249 19.434 264.562 19.2985 264.812C19.1631 265.062 18.8505 265.155 18.6004 265.02C18.3502 264.884 18.2572 264.572 18.3927 264.322C18.5281 264.071 18.8407 263.978 19.0909 264.114Z" fill="white"/>
<path opacity="0.11" d="M5.25101 243.142C5.50115 243.278 5.59416 243.59 5.45871 243.84C5.32327 244.09 5.01069 244.183 4.76054 244.048C4.5104 243.913 4.41742 243.6 4.55286 243.35C4.6883 243.1 5.00086 243.007 5.25101 243.142Z" fill="white"/>
<path opacity="0.11" d="M34.9239 224.05C35.174 224.186 35.267 224.498 35.1316 224.748C34.9961 224.999 34.6835 225.092 34.4334 224.956C34.1832 224.821 34.0903 224.508 34.2257 224.258C34.3611 224.008 34.6737 223.915 34.9239 224.05Z" fill="white"/>
<path opacity="0.11" d="M132.953 300.57C133.203 300.705 133.296 301.018 133.161 301.268C133.025 301.518 132.713 301.611 132.463 301.476C132.213 301.34 132.12 301.028 132.255 300.778C132.39 300.527 132.703 300.434 132.953 300.57Z" fill="white"/>
<path opacity="0.11" d="M204.095 296.892C204.345 297.028 204.438 297.34 204.302 297.59C204.167 297.84 203.854 297.933 203.604 297.798C203.354 297.663 203.261 297.35 203.397 297.1C203.532 296.85 203.845 296.757 204.095 296.892Z" fill="white"/>
<path opacity="0.11" d="M288.64 348.532C288.89 348.667 288.983 348.98 288.847 349.23C288.712 349.48 288.399 349.573 288.149 349.438C287.899 349.302 287.806 348.99 287.942 348.739C288.077 348.489 288.39 348.396 288.64 348.532Z" fill="white"/>
<path opacity="0.3" d="M53.8448 265.94C54.0949 266.075 54.1879 266.388 54.0525 266.638C53.917 266.888 53.6044 266.981 53.3543 266.846C53.1042 266.71 53.0112 266.398 53.1466 266.148C53.282 265.898 53.5946 265.805 53.8448 265.94Z" fill="white"/>
<path d="M144.817 346.839C145.068 346.975 145.161 347.287 145.025 347.538C144.89 347.788 144.577 347.881 144.327 347.745C144.077 347.61 143.984 347.297 144.119 347.047C144.255 346.797 144.567 346.704 144.817 346.839Z" fill="white"/>
<path d="M214.11 385.529C214.36 385.664 214.453 385.977 214.318 386.227C214.182 386.477 213.87 386.57 213.619 386.435C213.369 386.299 213.276 385.987 213.412 385.737C213.547 385.486 213.86 385.393 214.11 385.529Z" fill="white"/>
<path d="M136.577 288.465C136.827 288.601 136.92 288.913 136.784 289.164C136.649 289.414 136.336 289.507 136.086 289.371C135.836 289.236 135.743 288.923 135.879 288.673C136.014 288.423 136.327 288.33 136.577 288.465Z" fill="white"/>
<path opacity="0.3" d="M104.856 271.292C105.107 271.427 105.2 271.74 105.064 271.99C104.929 272.24 104.616 272.333 104.366 272.197C104.116 272.062 104.023 271.749 104.158 271.499C104.294 271.249 104.606 271.156 104.856 271.292Z" fill="white"/>
<path opacity="0.11" d="M52.4917 279.269C52.7419 279.404 52.8349 279.717 52.6994 279.967C52.564 280.217 52.2514 280.31 52.0013 280.175C51.7511 280.039 51.6581 279.727 51.7936 279.477C51.929 279.227 52.2416 279.134 52.4917 279.269Z" fill="white"/>
<path opacity="0.3" d="M158.867 340.38C159.117 340.516 159.21 340.828 159.075 341.079C158.939 341.329 158.627 341.422 158.377 341.286C158.127 341.151 158.034 340.838 158.169 340.588C158.305 340.338 158.617 340.245 158.867 340.38Z" fill="white"/>
<path opacity="0.3" d="M148.945 284.027C149.196 284.162 149.288 284.475 149.153 284.725C149.018 284.975 148.705 285.068 148.455 284.933C148.205 284.797 148.112 284.485 148.247 284.235C148.383 283.984 148.695 283.891 148.945 284.027Z" fill="white"/>
<path opacity="0.3" d="M96.5664 249.81C96.8166 249.946 96.9096 250.258 96.7741 250.508C96.6387 250.758 96.3261 250.851 96.076 250.716C95.8258 250.58 95.7328 250.268 95.8683 250.018C96.0037 249.768 96.3163 249.675 96.5664 249.81Z" fill="white"/>
<path opacity="0.3" d="M66.9893 273.052C67.2394 273.188 67.3324 273.5 67.197 273.75C67.0615 274.001 66.749 274.094 66.4988 273.958C66.2487 273.823 66.1557 273.51 66.2911 273.26C66.4266 273.01 66.7392 272.917 66.9893 273.052Z" fill="white"/>
<path opacity="0.3" d="M348.102 427.019C348.352 427.155 348.445 427.467 348.309 427.717C348.174 427.967 347.861 428.06 347.611 427.925C347.361 427.789 347.268 427.477 347.403 427.227C347.539 426.977 347.851 426.884 348.102 427.019Z" fill="white"/>
<path opacity="0.11" d="M265.087 406.097C265.337 406.233 265.43 406.545 265.295 406.795C265.159 407.046 264.847 407.138 264.596 407.003C264.346 406.868 264.253 406.555 264.389 406.305C264.524 406.055 264.837 405.962 265.087 406.097Z" fill="white"/>
<path opacity="0.11" d="M346.417 400.912C346.667 401.047 346.76 401.36 346.624 401.61C346.489 401.86 346.176 401.953 345.926 401.818C345.676 401.682 345.583 401.369 345.718 401.119C345.854 400.869 346.166 400.776 346.417 400.912Z" fill="white"/>
<path opacity="0.3" d="M233.981 334.758C234.482 335.029 234.668 335.654 234.397 336.155C234.126 336.656 233.5 336.842 232.999 336.571C232.499 336.3 232.313 335.674 232.584 335.173C232.855 334.673 233.48 334.487 233.981 334.758Z" fill="white"/>
<path opacity="0.11" d="M253.357 362.828C253.857 363.099 254.044 363.725 253.772 364.226C253.501 364.726 252.876 364.912 252.375 364.641C251.874 364.37 251.688 363.744 251.959 363.244C252.23 362.743 252.856 362.557 253.357 362.828Z" fill="white"/>
<path d="M244.545 378.565C244.92 378.768 245.06 379.238 244.857 379.613C244.653 379.988 244.184 380.128 243.809 379.925C243.433 379.721 243.294 379.252 243.497 378.877C243.7 378.501 244.169 378.362 244.545 378.565Z" fill="white"/>
<path d="M239.043 314.057C239.418 314.261 239.558 314.73 239.355 315.105C239.151 315.481 238.682 315.62 238.307 315.417C237.931 315.214 237.792 314.744 237.995 314.369C238.198 313.994 238.667 313.854 239.043 314.057Z" fill="white"/>
<path d="M394.389 386.45C394.765 386.653 394.904 387.122 394.701 387.498C394.498 387.873 394.028 388.013 393.653 387.809C393.278 387.606 393.138 387.137 393.341 386.762C393.544 386.386 394.014 386.247 394.389 386.45Z" fill="white"/>
<path d="M96.1278 234.923C96.5033 235.126 96.6428 235.595 96.4395 235.97C96.2363 236.346 95.7671 236.485 95.3917 236.282C95.0163 236.079 94.8767 235.61 95.08 235.234C95.2833 234.859 95.7524 234.719 96.1278 234.923Z" fill="white"/>
<path d="M30.223 212.715C30.5985 212.918 30.738 213.387 30.5347 213.762C30.3315 214.138 29.8623 214.277 29.4869 214.074C29.1115 213.871 28.9719 213.402 29.1752 213.026C29.3785 212.651 29.8476 212.511 30.223 212.715Z" fill="white"/>
<path d="M12.704 226.668C13.0794 226.871 13.219 227.34 13.0157 227.716C12.8124 228.091 12.3433 228.231 11.9679 228.027C11.5924 227.824 11.4529 227.355 11.6562 226.979C11.8594 226.604 12.3286 226.464 12.704 226.668Z" fill="white"/>
<path d="M227.704 357.724C228.079 357.928 228.219 358.397 228.016 358.772C227.812 359.148 227.343 359.287 226.968 359.084C226.592 358.881 226.453 358.411 226.656 358.036C226.859 357.661 227.329 357.521 227.704 357.724Z" fill="white"/>
<path d="M167.012 281.504C167.387 281.707 167.527 282.176 167.323 282.551C167.12 282.927 166.651 283.066 166.275 282.863C165.9 282.66 165.76 282.191 165.964 281.815C166.167 281.44 166.636 281.3 167.012 281.504Z" fill="white"/>
<path d="M291.753 323.845C292.129 324.049 292.268 324.518 292.065 324.893C291.862 325.269 291.393 325.408 291.017 325.205C290.642 325.002 290.502 324.533 290.705 324.157C290.909 323.782 291.378 323.642 291.753 323.845Z" fill="white"/>
<path d="M395.15 419.677C395.525 419.881 395.665 420.35 395.461 420.725C395.258 421.101 394.789 421.24 394.414 421.037C394.038 420.834 393.899 420.365 394.102 419.989C394.305 419.614 394.774 419.474 395.15 419.677Z" fill="white"/>
<path d="M392.532 450.487C392.907 450.69 393.047 451.159 392.843 451.535C392.64 451.91 392.171 452.05 391.795 451.847C391.42 451.643 391.281 451.174 391.484 450.799C391.687 450.423 392.156 450.284 392.532 450.487Z" fill="white"/>
<path opacity="0.3" d="M282.177 398.354C282.678 398.626 282.864 399.251 282.593 399.752C282.322 400.253 281.696 400.439 281.196 400.168C280.695 399.897 280.509 399.271 280.78 398.77C281.051 398.269 281.677 398.083 282.177 398.354Z" fill="white"/>
<path d="M264.753 430.526C265.254 430.797 265.44 431.423 265.169 431.924C264.898 432.425 264.272 432.611 263.771 432.34C263.271 432.068 263.085 431.443 263.356 430.942C263.627 430.441 264.252 430.255 264.753 430.526Z" fill="white"/>
<path d="M310.911 401.02C311.286 401.224 311.426 401.693 311.223 402.068C311.019 402.444 310.55 402.583 310.175 402.38C309.799 402.177 309.66 401.707 309.863 401.332C310.066 400.957 310.536 400.817 310.911 401.02Z" fill="white"/>
<path opacity="0.3" d="M323.321 430.593C323.822 430.864 324.008 431.489 323.737 431.99C323.466 432.491 322.84 432.677 322.339 432.406C321.839 432.135 321.652 431.509 321.924 431.008C322.195 430.508 322.82 430.322 323.321 430.593Z" fill="white"/>
<path opacity="0.3" d="M385.6 422.709C386.101 422.98 386.287 423.606 386.016 424.106C385.745 424.607 385.119 424.793 384.619 424.522C384.118 424.251 383.932 423.625 384.203 423.125C384.474 422.624 385.1 422.438 385.6 422.709Z" fill="white"/>
<path opacity="0.3" d="M333.073 393.098C333.574 393.369 333.76 393.994 333.489 394.495C333.218 394.996 332.592 395.182 332.091 394.911C331.59 394.64 331.404 394.014 331.675 393.513C331.947 393.013 332.572 392.826 333.073 393.098Z" fill="white"/>
<path opacity="0.3" d="M77.1413 244.565C77.6421 244.836 77.8282 245.462 77.5571 245.963C77.286 246.464 76.6603 246.65 76.1596 246.379C75.6588 246.107 75.4727 245.482 75.7438 244.981C76.0149 244.48 76.6406 244.294 77.1413 244.565Z" fill="white"/>
<path opacity="0.3" d="M26.9372 249.613C27.438 249.884 27.6241 250.51 27.353 251.011C27.0819 251.511 26.4562 251.698 25.9555 251.426C25.4547 251.155 25.2686 250.53 25.5397 250.029C25.8108 249.528 26.4365 249.342 26.9372 249.613Z" fill="white"/>
<path opacity="0.11" d="M359.661 426.244C360.162 426.515 360.348 427.141 360.077 427.642C359.805 428.142 359.18 428.328 358.679 428.057C358.178 427.786 357.992 427.16 358.263 426.66C358.534 426.159 359.16 425.973 359.661 426.244Z" fill="white"/>
<path opacity="0.3" d="M83.3962 300.102C83.8969 300.374 84.0831 300.999 83.812 301.5C83.5408 302.001 82.9152 302.187 82.4144 301.916C81.9137 301.645 81.7276 301.019 81.9987 300.518C82.2698 300.017 82.8955 299.831 83.3962 300.102Z" fill="white"/>
<path opacity="0.11" d="M66.2541 302.543C66.7548 302.814 66.941 303.44 66.6699 303.94C66.3988 304.441 65.7731 304.627 65.2723 304.356C64.7716 304.085 64.5855 303.459 64.8566 302.959C65.1277 302.458 65.7534 302.272 66.2541 302.543Z" fill="white"/>
<path opacity="0.3" d="M78.3347 271.579C78.8354 271.85 79.0216 272.476 78.7504 272.977C78.4793 273.477 77.8536 273.663 77.3529 273.392C76.8522 273.121 76.6661 272.495 76.9372 271.995C77.2083 271.494 77.834 271.308 78.3347 271.579Z" fill="white"/>
<path d="M106.406 287.366C106.782 287.569 106.921 288.038 106.718 288.414C106.515 288.789 106.045 288.929 105.67 288.725C105.295 288.522 105.155 288.053 105.358 287.678C105.562 287.302 106.031 287.163 106.406 287.366Z" fill="white"/>
<path opacity="0.11" d="M464.676 390.119C465.177 390.39 465.363 391.016 465.092 391.517C464.821 392.017 464.195 392.203 463.694 391.932C463.193 391.661 463.007 391.035 463.278 390.535C463.55 390.034 464.175 389.848 464.676 390.119Z" fill="white"/>
<path d="M470.317 386.729C470.692 386.932 470.832 387.402 470.628 387.777C470.425 388.152 469.956 388.292 469.581 388.089C469.205 387.885 469.066 387.416 469.269 387.041C469.472 386.665 469.941 386.526 470.317 386.729Z" fill="white"/>
<path d="M480.121 404.34C480.497 404.543 480.636 405.012 480.433 405.387C480.23 405.763 479.761 405.902 479.385 405.699C479.01 405.496 478.87 405.027 479.074 404.651C479.277 404.276 479.746 404.136 480.121 404.34Z" fill="white"/>
<path d="M441.111 384.394C441.486 384.598 441.626 385.067 441.422 385.442C441.219 385.818 440.75 385.957 440.375 385.754C439.999 385.551 439.86 385.081 440.063 384.706C440.266 384.331 440.735 384.191 441.111 384.394Z" fill="white"/>
<path opacity="0.11" d="M424.568 361.373C425.068 361.644 425.254 362.27 424.983 362.77C424.712 363.271 424.087 363.457 423.586 363.186C423.085 362.915 422.899 362.289 423.17 361.789C423.441 361.288 424.067 361.102 424.568 361.373Z" fill="white"/>
<path d="M410.562 366.68C410.812 366.816 410.905 367.128 410.77 367.378C410.634 367.628 410.322 367.721 410.072 367.586C409.821 367.451 409.728 367.138 409.864 366.888C409.999 366.638 410.312 366.545 410.562 366.68Z" fill="white"/>
<path d="M472.88 371.711C473.131 371.847 473.224 372.159 473.088 372.41C472.953 372.66 472.64 372.753 472.39 372.617C472.14 372.482 472.047 372.169 472.182 371.919C472.318 371.669 472.63 371.576 472.88 371.711Z" fill="white"/>
<path d="M571.67 425.195C571.92 425.33 572.013 425.643 571.878 425.893C571.742 426.143 571.43 426.236 571.179 426.101C570.929 425.965 570.836 425.653 570.972 425.403C571.107 425.152 571.42 425.059 571.67 425.195Z" fill="white"/>
<path d="M607.809 476.411C608.059 476.546 608.152 476.859 608.017 477.109C607.881 477.359 607.569 477.452 607.319 477.317C607.068 477.181 606.976 476.869 607.111 476.618C607.246 476.368 607.559 476.275 607.809 476.411Z" fill="white"/>
<path d="M643.396 452.899C643.646 453.034 643.739 453.347 643.603 453.597C643.468 453.847 643.155 453.94 642.905 453.805C642.655 453.669 642.562 453.357 642.697 453.107C642.833 452.856 643.145 452.764 643.396 452.899Z" fill="white"/>
<path d="M315.85 301.338C316.1 301.474 316.193 301.786 316.057 302.037C315.922 302.287 315.609 302.38 315.359 302.244C315.109 302.109 315.016 301.796 315.151 301.546C315.287 301.296 315.6 301.203 315.85 301.338Z" fill="white"/>
<path opacity="0.11" d="M295.808 322.127C296.058 322.263 296.151 322.575 296.015 322.826C295.88 323.076 295.567 323.169 295.317 323.033C295.067 322.898 294.974 322.585 295.109 322.335C295.245 322.085 295.558 321.992 295.808 322.127Z" fill="white"/>
<path opacity="0.11" d="M281.969 301.155C282.219 301.29 282.312 301.603 282.176 301.853C282.041 302.103 281.728 302.196 281.478 302.061C281.228 301.925 281.135 301.613 281.271 301.362C281.406 301.112 281.719 301.019 281.969 301.155Z" fill="white"/>
<path opacity="0.11" d="M311.642 282.063C311.892 282.198 311.985 282.511 311.849 282.761C311.714 283.011 311.401 283.104 311.151 282.969C310.901 282.833 310.808 282.521 310.943 282.271C311.079 282.021 311.392 281.928 311.642 282.063Z" fill="white"/>
<path opacity="0.11" d="M409.67 358.583C409.92 358.718 410.013 359.031 409.877 359.281C409.742 359.531 409.429 359.624 409.179 359.488C408.929 359.353 408.836 359.04 408.971 358.79C409.107 358.54 409.419 358.447 409.67 358.583Z" fill="white"/>
<path opacity="0.11" d="M480.806 354.907C481.056 355.042 481.149 355.355 481.013 355.605C480.878 355.855 480.565 355.948 480.315 355.813C480.065 355.677 479.972 355.365 480.108 355.114C480.243 354.864 480.556 354.771 480.806 354.907Z" fill="white"/>
<path opacity="0.11" d="M565.358 406.545C565.608 406.681 565.701 406.993 565.566 407.244C565.43 407.494 565.118 407.587 564.867 407.451C564.617 407.316 564.524 407.003 564.66 406.753C564.795 406.503 565.108 406.41 565.358 406.545Z" fill="white"/>
<path opacity="0.3" d="M330.564 323.953C330.814 324.088 330.907 324.401 330.772 324.651C330.636 324.901 330.324 324.994 330.074 324.859C329.823 324.723 329.73 324.41 329.866 324.16C330.001 323.91 330.314 323.817 330.564 323.953Z" fill="white"/>
<path d="M421.534 404.852C421.784 404.988 421.877 405.3 421.742 405.55C421.606 405.8 421.294 405.893 421.044 405.758C420.794 405.623 420.701 405.31 420.836 405.06C420.971 404.81 421.284 404.717 421.534 404.852Z" fill="white"/>
<path d="M490.828 443.542C491.078 443.677 491.171 443.99 491.036 444.24C490.9 444.49 490.588 444.583 490.338 444.447C490.088 444.312 489.995 443.999 490.13 443.749C490.265 443.499 490.578 443.406 490.828 443.542Z" fill="white"/>
<path d="M413.294 346.478C413.544 346.614 413.637 346.926 413.501 347.176C413.366 347.426 413.053 347.519 412.803 347.384C412.553 347.248 412.46 346.936 412.595 346.686C412.731 346.436 413.043 346.343 413.294 346.478Z" fill="white"/>
<path opacity="0.3" d="M381.574 329.304C381.824 329.44 381.917 329.752 381.782 330.002C381.646 330.253 381.334 330.346 381.084 330.21C380.834 330.075 380.741 329.762 380.876 329.512C381.012 329.262 381.324 329.169 381.574 329.304Z" fill="white"/>
<path opacity="0.11" d="M329.211 337.283C329.461 337.418 329.554 337.731 329.419 337.981C329.283 338.231 328.971 338.324 328.721 338.189C328.47 338.053 328.377 337.741 328.513 337.49C328.648 337.24 328.961 337.147 329.211 337.283Z" fill="white"/>
<path opacity="0.3" d="M435.586 398.394C435.836 398.53 435.929 398.842 435.793 399.092C435.658 399.342 435.345 399.435 435.095 399.3C434.845 399.164 434.752 398.852 434.887 398.602C435.023 398.352 435.335 398.259 435.586 398.394Z" fill="white"/>
<path opacity="0.3" d="M425.664 342.041C425.914 342.176 426.007 342.489 425.872 342.739C425.736 342.989 425.424 343.082 425.174 342.946C424.923 342.811 424.83 342.498 424.966 342.248C425.101 341.998 425.414 341.905 425.664 342.041Z" fill="white"/>
<path opacity="0.3" d="M373.284 307.823C373.534 307.958 373.627 308.271 373.492 308.521C373.356 308.771 373.044 308.864 372.794 308.729C372.544 308.593 372.451 308.281 372.586 308.03C372.722 307.78 373.034 307.687 373.284 307.823Z" fill="white"/>
<path opacity="0.3" d="M343.706 331.066C343.956 331.201 344.049 331.514 343.914 331.764C343.778 332.014 343.466 332.107 343.216 331.972C342.965 331.836 342.872 331.524 343.008 331.274C343.143 331.023 343.456 330.93 343.706 331.066Z" fill="white"/>
<path opacity="0.3" d="M624.821 485.033C625.071 485.168 625.164 485.481 625.029 485.731C624.893 485.981 624.581 486.074 624.33 485.939C624.08 485.803 623.987 485.491 624.123 485.24C624.258 484.99 624.571 484.897 624.821 485.033Z" fill="white"/>
<path opacity="0.11" d="M541.805 464.112C542.055 464.247 542.148 464.56 542.013 464.81C541.877 465.06 541.565 465.153 541.315 465.018C541.065 464.882 540.972 464.57 541.107 464.32C541.242 464.069 541.555 463.976 541.805 464.112Z" fill="white"/>
<path opacity="0.11" d="M623.136 458.926C623.386 459.062 623.479 459.374 623.343 459.624C623.208 459.875 622.895 459.968 622.645 459.832C622.395 459.697 622.302 459.384 622.438 459.134C622.573 458.884 622.886 458.791 623.136 458.926Z" fill="white"/>
<path opacity="0.3" d="M510.699 392.771C511.199 393.043 511.385 393.668 511.114 394.169C510.843 394.67 510.217 394.856 509.717 394.585C509.216 394.314 509.03 393.688 509.301 393.187C509.572 392.686 510.198 392.5 510.699 392.771Z" fill="white"/>
<path opacity="0.11" d="M530.076 420.842C530.577 421.113 530.763 421.738 530.492 422.239C530.221 422.74 529.595 422.926 529.095 422.655C528.594 422.384 528.408 421.758 528.679 421.257C528.95 420.757 529.576 420.571 530.076 420.842Z" fill="white"/>
<path d="M521.264 436.578C521.639 436.781 521.779 437.25 521.576 437.626C521.372 438.001 520.903 438.141 520.528 437.937C520.152 437.734 520.013 437.265 520.216 436.89C520.419 436.514 520.889 436.375 521.264 436.578Z" fill="white"/>
<path d="M515.761 372.07C516.137 372.273 516.276 372.742 516.073 373.118C515.87 373.493 515.4 373.633 515.025 373.43C514.65 373.226 514.51 372.757 514.713 372.382C514.917 372.006 515.386 371.867 515.761 372.07Z" fill="white"/>
<path d="M671.108 444.463C671.484 444.666 671.623 445.135 671.42 445.51C671.217 445.886 670.748 446.025 670.372 445.822C669.997 445.619 669.857 445.15 670.06 444.774C670.264 444.399 670.733 444.259 671.108 444.463Z" fill="white"/>
<path d="M372.846 292.935C373.221 293.139 373.361 293.608 373.157 293.983C372.954 294.359 372.485 294.498 372.109 294.295C371.734 294.092 371.594 293.622 371.798 293.247C372.001 292.872 372.47 292.732 372.846 292.935Z" fill="white"/>
<path d="M306.941 270.727C307.316 270.931 307.456 271.4 307.253 271.775C307.049 272.151 306.58 272.29 306.205 272.087C305.829 271.884 305.69 271.414 305.893 271.039C306.096 270.664 306.565 270.524 306.941 270.727Z" fill="white"/>
<path d="M289.422 284.68C289.798 284.884 289.937 285.353 289.734 285.728C289.531 286.104 289.062 286.243 288.686 286.04C288.311 285.837 288.171 285.368 288.374 284.992C288.578 284.617 289.047 284.477 289.422 284.68Z" fill="white"/>
<path d="M504.423 415.739C504.798 415.942 504.938 416.411 504.734 416.787C504.531 417.162 504.062 417.302 503.687 417.099C503.311 416.895 503.172 416.426 503.375 416.051C503.578 415.675 504.047 415.536 504.423 415.739Z" fill="white"/>
<path d="M443.731 339.516C444.106 339.72 444.246 340.189 444.043 340.564C443.839 340.94 443.37 341.079 442.995 340.876C442.619 340.673 442.48 340.203 442.683 339.828C442.886 339.453 443.355 339.313 443.731 339.516Z" fill="white"/>
<path d="M568.473 381.859C568.848 382.062 568.988 382.531 568.785 382.907C568.581 383.282 568.112 383.422 567.737 383.219C567.361 383.015 567.222 382.546 567.425 382.171C567.628 381.795 568.098 381.656 568.473 381.859Z" fill="white"/>
<path d="M671.868 477.691C672.243 477.894 672.383 478.364 672.18 478.739C671.976 479.114 671.507 479.254 671.132 479.051C670.756 478.847 670.617 478.378 670.82 478.003C671.023 477.627 671.493 477.488 671.868 477.691Z" fill="white"/>
<path d="M669.251 508.501C669.626 508.704 669.766 509.173 669.563 509.549C669.359 509.924 668.89 510.064 668.515 509.86C668.139 509.657 668 509.188 668.203 508.812C668.406 508.437 668.875 508.297 669.251 508.501Z" fill="white"/>
<path opacity="0.3" d="M558.888 456.369C559.389 456.64 559.575 457.266 559.304 457.767C559.033 458.267 558.407 458.453 557.907 458.182C557.406 457.911 557.22 457.285 557.491 456.785C557.762 456.284 558.388 456.098 558.888 456.369Z" fill="white"/>
<path d="M541.471 488.539C541.972 488.81 542.158 489.436 541.887 489.936C541.616 490.437 540.99 490.623 540.49 490.352C539.989 490.081 539.803 489.455 540.074 488.955C540.345 488.454 540.971 488.268 541.471 488.539Z" fill="white"/>
<path d="M587.629 459.034C588.005 459.237 588.144 459.706 587.941 460.082C587.738 460.457 587.269 460.597 586.893 460.393C586.518 460.19 586.378 459.721 586.581 459.346C586.785 458.97 587.254 458.831 587.629 459.034Z" fill="white"/>
<path opacity="0.3" d="M600.039 488.605C600.54 488.876 600.726 489.502 600.455 490.003C600.183 490.504 599.558 490.69 599.057 490.419C598.556 490.148 598.37 489.522 598.641 489.021C598.912 488.52 599.538 488.334 600.039 488.605Z" fill="white"/>
<path opacity="0.3" d="M662.321 480.723C662.821 480.994 663.007 481.619 662.736 482.12C662.465 482.621 661.839 482.807 661.339 482.536C660.838 482.265 660.652 481.639 660.923 481.138C661.194 480.638 661.82 480.451 662.321 480.723Z" fill="white"/>
<path opacity="0.3" d="M609.792 451.111C610.292 451.382 610.479 452.008 610.207 452.509C609.936 453.009 609.311 453.196 608.81 452.924C608.309 452.653 608.123 452.028 608.394 451.527C608.665 451.026 609.291 450.84 609.792 451.111Z" fill="white"/>
<path opacity="0.3" d="M353.86 302.578C354.36 302.849 354.546 303.475 354.275 303.976C354.004 304.476 353.379 304.662 352.878 304.391C352.377 304.12 352.191 303.494 352.462 302.994C352.733 302.493 353.359 302.307 353.86 302.578Z" fill="white"/>
<path opacity="0.3" d="M303.656 307.625C304.156 307.896 304.342 308.522 304.071 309.022C303.8 309.523 303.174 309.709 302.674 309.438C302.173 309.167 301.987 308.541 302.258 308.041C302.529 307.54 303.155 307.354 303.656 307.625Z" fill="white"/>
<path opacity="0.11" d="M636.38 484.258C636.88 484.529 637.066 485.155 636.795 485.655C636.524 486.156 635.899 486.342 635.398 486.071C634.897 485.8 634.711 485.174 634.982 484.673C635.253 484.173 635.879 483.987 636.38 484.258Z" fill="white"/>
<path opacity="0.3" d="M360.115 358.117C360.615 358.388 360.801 359.014 360.53 359.515C360.259 360.015 359.633 360.201 359.133 359.93C358.632 359.659 358.446 359.034 358.717 358.533C358.988 358.032 359.614 357.846 360.115 358.117Z" fill="white"/>
<path opacity="0.11" d="M342.972 360.556C343.473 360.827 343.659 361.452 343.388 361.953C343.117 362.454 342.491 362.64 341.99 362.369C341.489 362.098 341.303 361.472 341.574 360.971C341.845 360.471 342.471 360.284 342.972 360.556Z" fill="white"/>
<path opacity="0.3" d="M355.052 329.593C355.553 329.864 355.739 330.489 355.468 330.99C355.197 331.491 354.571 331.677 354.07 331.406C353.569 331.135 353.383 330.509 353.654 330.008C353.926 329.508 354.551 329.322 355.052 329.593Z" fill="white"/>
<path d="M383.124 345.38C383.5 345.583 383.639 346.052 383.436 346.427C383.233 346.803 382.764 346.942 382.388 346.739C382.013 346.536 381.873 346.067 382.077 345.691C382.28 345.316 382.749 345.176 383.124 345.38Z" fill="white"/>
</svg>
