<svg width="889" height="1236" viewBox="0 0 889 1236" fill="none" xmlns="http://www.w3.org/2000/svg">
<g filter="url(#filter0_f_236_4720)">
<ellipse cx="359.374" cy="47.6745" rx="359.374" ry="47.6745" transform="matrix(-0.763461 0.645854 0.645854 0.763461 902.736 349.549)" fill="#732CFF"/>
<path d="M628.691 582.034C552.938 646.118 487.809 708.202 443.749 756.77C421.717 781.057 404.967 801.95 394.79 818.013C389.699 826.048 386.27 832.85 384.639 838.247C382.998 843.675 383.222 847.524 385.173 849.831C387.124 852.137 390.883 852.995 396.507 852.277C402.101 851.563 409.376 849.309 418.144 845.62C435.672 838.246 459.052 825.19 486.654 807.488C541.853 772.087 613.873 718.15 689.627 654.066C765.38 589.982 830.508 527.898 874.568 479.329C896.601 455.043 913.352 434.151 923.529 418.087C928.62 410.052 932.049 403.251 933.68 397.853C935.32 392.426 935.097 388.577 933.146 386.27C931.194 383.964 927.435 383.105 921.811 383.823C916.218 384.537 908.942 386.792 900.175 390.48C882.647 397.854 859.266 410.91 831.664 428.612C776.465 464.013 704.444 517.95 628.691 582.034Z" stroke="black"/>
</g>
<defs>
<filter id="filter0_f_236_4720" x="0.643951" y="0.676422" width="1317.03" height="1234.75" filterUnits="userSpaceOnUse" color-interpolation-filters="sRGB">
<feFlood flood-opacity="0" result="BackgroundImageFix"/>
<feBlend mode="normal" in="SourceGraphic" in2="BackgroundImageFix" result="shape"/>
<feGaussianBlur stdDeviation="191.2" result="effect1_foregroundBlur_236_4720"/>
</filter>
</defs>
</svg>
