<svg version="1.2" xmlns="http://www.w3.org/2000/svg" viewBox="0 0 1335 1246" width="1335" height="1246">
	<title>optimar-about-benefits-glow</title>
	<defs>
		<filter x="-50%" y="-50%" width="200%" height="200%" id="f1"> <feGaussianBlur stdDeviation="191.2"/> </filter>
	</defs>
	<style>
		.s0 { opacity: .11;fill: #ffffff } 
		.s1 { fill: #ffffff } 
		.s2 { opacity: .3;fill: #ffffff } 
		.s3 { filter: url(#f1);fill: #f46d6b } 
	</style>
	<path class="s0" d="m467.4 746.3c0.5-0.3 1.1-0.3 1.5 0.2 0.3 0.4 0.3 1.1-0.2 1.4-0.4 0.4-1.1 0.3-1.4-0.1-0.4-0.5-0.3-1.1 0.1-1.5z"/>
	<path class="s1" d="m466.4 739.8c0.3-0.3 0.8-0.2 1.1 0.1 0.3 0.4 0.2 0.8-0.1 1.1-0.3 0.3-0.8 0.2-1.1-0.1-0.3-0.3-0.2-0.8 0.1-1.1z"/>
	<path class="s1" d="m486.4 737.4c0.4-0.3 0.8-0.2 1.1 0.1 0.3 0.3 0.2 0.8-0.1 1.1-0.3 0.3-0.8 0.2-1.1-0.1-0.3-0.4-0.2-0.8 0.1-1.1z"/>
	<path class="s1" d="m453.2 766c0.4-0.3 0.8-0.2 1.1 0.1 0.3 0.3 0.2 0.8-0.1 1.1-0.3 0.2-0.8 0.2-1.1-0.1-0.2-0.4-0.2-0.9 0.1-1.1z"/>
	<path class="s0" d="m425.7 772.6c0.4-0.4 1.1-0.3 1.4 0.1 0.4 0.5 0.3 1.1-0.1 1.5-0.5 0.4-1.1 0.3-1.5-0.1-0.3-0.5-0.3-1.1 0.2-1.5z"/>
	<path class="s1" d="m425.3 787.6c0.2-0.2 0.5-0.2 0.7 0 0.2 0.3 0.2 0.6-0.1 0.8-0.2 0.2-0.5 0.1-0.7-0.1-0.2-0.2-0.1-0.5 0.1-0.7z"/>
	<path class="s1" d="m453.5 731.8c0.2-0.2 0.5-0.2 0.7 0 0.2 0.3 0.2 0.6-0.1 0.8-0.2 0.1-0.5 0.1-0.7-0.1-0.2-0.2-0.1-0.5 0.1-0.7z"/>
	<path class="s1" d="m540.3 660.5c0.2-0.2 0.6-0.1 0.7 0.1 0.2 0.2 0.2 0.5 0 0.7-0.3 0.2-0.6 0.2-0.8-0.1-0.1-0.2-0.1-0.5 0.1-0.7z"/>
	<path class="s1" d="m601.4 646.4c0.2-0.2 0.5-0.2 0.7 0.1 0.2 0.2 0.2 0.5-0.1 0.7-0.2 0.2-0.5 0.1-0.7-0.1-0.2-0.2-0.1-0.5 0.1-0.7z"/>
	<path class="s1" d="m593.1 604.6c0.2-0.2 0.5-0.2 0.7 0 0.2 0.2 0.1 0.6-0.1 0.8-0.2 0.1-0.5 0.1-0.7-0.1-0.2-0.2-0.2-0.6 0.1-0.7z"/>
	<path class="s1" d="m329 850.6c0.2-0.2 0.6-0.1 0.7 0.1 0.2 0.2 0.2 0.5 0 0.7-0.2 0.2-0.6 0.1-0.8-0.1-0.1-0.2-0.1-0.5 0.1-0.7z"/>
	<path class="s0" d="m309.6 847.2c0.2-0.2 0.5-0.1 0.7 0.1 0.2 0.2 0.2 0.5-0.1 0.7-0.2 0.2-0.5 0.2-0.7-0.1-0.2-0.2-0.1-0.5 0.1-0.7z"/>
	<path class="s0" d="m417.5 785.3c0.2-0.1 0.5-0.1 0.7 0.1 0.2 0.2 0.1 0.6-0.1 0.7-0.2 0.2-0.5 0.2-0.7 0-0.2-0.3-0.2-0.6 0.1-0.8z"/>
	<path class="s0" d="m440.9 718.1c0.2-0.2 0.6-0.2 0.7 0 0.2 0.3 0.2 0.6 0 0.8-0.3 0.2-0.6 0.1-0.8-0.1-0.1-0.2-0.1-0.5 0.1-0.7z"/>
	<path class="s0" d="m520.7 659.3c0.2-0.2 0.5-0.2 0.7 0.1 0.2 0.2 0.1 0.5-0.1 0.7-0.2 0.2-0.5 0.1-0.7-0.1-0.2-0.2-0.2-0.5 0.1-0.7z"/>
	<path class="s2" d="m355.5 845.5c0.2-0.2 0.6-0.1 0.7 0.1 0.2 0.2 0.2 0.5 0 0.7-0.2 0.2-0.6 0.2-0.8-0.1-0.1-0.2-0.1-0.5 0.1-0.7z"/>
	<path class="s1" d="m464.8 791.8c0.2-0.1 0.5-0.1 0.7 0.1 0.2 0.2 0.2 0.5-0.1 0.7-0.2 0.2-0.5 0.2-0.7 0-0.2-0.3-0.1-0.6 0.1-0.8z"/>
	<path class="s1" d="m526.8 742.3c0.2-0.2 0.5-0.2 0.7 0 0.2 0.3 0.1 0.6-0.1 0.8-0.2 0.2-0.5 0.1-0.7-0.1-0.2-0.2-0.1-0.5 0.1-0.7z"/>
	<path class="s1" d="m407.6 777.4c0.2-0.2 0.6-0.1 0.7 0.1 0.2 0.2 0.2 0.5 0 0.7-0.3 0.2-0.6 0.2-0.8-0.1-0.1-0.2-0.1-0.5 0.1-0.7z"/>
	<path class="s2" d="m379.7 800.3c0.3-0.2 0.6-0.1 0.8 0.1 0.1 0.2 0.1 0.5-0.1 0.7-0.2 0.2-0.6 0.1-0.7-0.1-0.2-0.2-0.2-0.5 0-0.7z"/>
	<path class="s0" d="m367.3 851.8c0.3-0.2 0.6-0.1 0.8 0.1 0.2 0.2 0.1 0.5-0.1 0.7-0.2 0.2-0.5 0.1-0.7-0.1-0.2-0.2-0.2-0.5 0-0.7z"/>
	<path class="s2" d="m464.1 776.4c0.2-0.2 0.5-0.2 0.7 0.1 0.2 0.2 0.2 0.5 0 0.7-0.3 0.2-0.6 0.1-0.8-0.1-0.1-0.2-0.1-0.5 0.1-0.7z"/>
	<path class="s2" d="m408.2 764.3c0.2-0.2 0.5-0.2 0.7 0.1 0.2 0.2 0.2 0.5-0.1 0.7-0.2 0.2-0.5 0.1-0.7-0.1-0.2-0.2-0.1-0.5 0.1-0.7z"/>
	<path class="s2" d="m356.7 799.9c0.2-0.2 0.6-0.2 0.7 0 0.2 0.3 0.2 0.6 0 0.8-0.3 0.1-0.6 0.1-0.8-0.1-0.1-0.2-0.1-0.6 0.1-0.7z"/>
	<path class="s2" d="m367.1 836c0.2-0.1 0.5-0.1 0.7 0.1 0.2 0.2 0.1 0.5-0.1 0.7-0.2 0.2-0.5 0.2-0.7 0-0.2-0.3-0.2-0.6 0.1-0.8z"/>
	<path class="s2" d="m615.8 633.9c0.2-0.2 0.5-0.2 0.7 0.1 0.2 0.2 0.2 0.5-0.1 0.7-0.2 0.2-0.5 0.1-0.7-0.1-0.2-0.2-0.1-0.5 0.1-0.7z"/>
	<path class="s0" d="m565.1 702.8c0.2-0.1 0.5-0.1 0.7 0.1 0.2 0.2 0.1 0.6-0.1 0.7-0.2 0.2-0.5 0.2-0.7 0-0.2-0.3-0.2-0.6 0.1-0.8z"/>
	<path class="s0" d="m591 625.6c0.2-0.2 0.5-0.2 0.7 0.1 0.2 0.2 0.2 0.5-0.1 0.7-0.2 0.2-0.5 0.1-0.7-0.1-0.2-0.2-0.1-0.5 0.1-0.7z"/>
	<path class="s2" d="m487.3 704.7c0.4-0.4 1.1-0.3 1.4 0.1 0.4 0.5 0.3 1.1-0.1 1.5-0.5 0.4-1.1 0.3-1.5-0.1-0.3-0.5-0.3-1.1 0.2-1.5z"/>
	<path class="s0" d="m520.6 697.4c0.4-0.4 1.1-0.3 1.4 0.1 0.4 0.4 0.3 1.1-0.1 1.5-0.5 0.3-1.1 0.3-1.5-0.2-0.3-0.4-0.3-1.1 0.2-1.4z"/>
	<path class="s1" d="m531.8 711.5c0.3-0.3 0.8-0.3 1.1 0.1 0.3 0.3 0.2 0.8-0.1 1.1-0.3 0.2-0.8 0.2-1.1-0.1-0.3-0.4-0.2-0.9 0.1-1.1z"/>
	<path class="s1" d="m470 692.2c0.3-0.3 0.8-0.2 1.1 0.1 0.3 0.3 0.2 0.8-0.1 1.1-0.3 0.3-0.8 0.2-1.1-0.1-0.3-0.3-0.2-0.8 0.1-1.1z"/>
	<path class="s1" d="m595.7 575.7c0.3-0.3 0.8-0.2 1.1 0.1 0.3 0.3 0.2 0.8-0.1 1.1-0.3 0.3-0.8 0.2-1.1-0.1-0.3-0.3-0.2-0.8 0.1-1.1z"/>
	<path class="s1" d="m342.8 794.7c0.3-0.3 0.8-0.3 1.1 0.1 0.2 0.3 0.2 0.8-0.2 1-0.3 0.3-0.8 0.3-1-0.1-0.3-0.3-0.3-0.8 0.1-1z"/>
	<path class="s1" d="m506.2 719.2c0.3-0.3 0.8-0.2 1 0.1 0.3 0.3 0.3 0.8-0.1 1.1-0.3 0.3-0.8 0.2-1-0.1-0.3-0.4-0.3-0.8 0.1-1.1z"/>
	<path class="s1" d="m412.7 746.6c0.3-0.3 0.8-0.2 1 0.1 0.3 0.3 0.3 0.8-0.1 1.1-0.3 0.3-0.8 0.2-1-0.1-0.3-0.3-0.3-0.8 0.1-1.1z"/>
	<path class="s1" d="m499 647.1c0.3-0.3 0.8-0.2 1.1 0.1 0.2 0.3 0.2 0.8-0.1 1.1-0.4 0.3-0.9 0.2-1.1-0.1-0.3-0.3-0.3-0.8 0.1-1.1z"/>
	<path class="s1" d="m626.8 587.6c0.3-0.3 0.8-0.3 1 0.1 0.3 0.3 0.3 0.8-0.1 1-0.3 0.3-0.8 0.3-1-0.1-0.3-0.3-0.3-0.8 0.1-1z"/>
	<path class="s1" d="m654.3 601.6c0.3-0.3 0.8-0.2 1.1 0.1 0.3 0.3 0.2 0.8-0.1 1.1-0.3 0.3-0.8 0.2-1.1-0.1-0.3-0.3-0.2-0.8 0.1-1.1z"/>
	<path class="s2" d="m564.3 684.1c0.5-0.4 1.1-0.3 1.5 0.1 0.4 0.5 0.3 1.1-0.1 1.5-0.5 0.3-1.1 0.3-1.5-0.2-0.4-0.4-0.3-1 0.1-1.4z"/>
	<path class="s1" d="m587.6 712.4c0.4-0.4 1-0.3 1.4 0.1 0.4 0.5 0.3 1.1-0.1 1.5-0.5 0.3-1.1 0.3-1.5-0.2-0.3-0.4-0.3-1.1 0.2-1.4z"/>
	<path class="s1" d="m577.7 658.5c0.3-0.3 0.8-0.2 1.1 0.1 0.2 0.3 0.2 0.8-0.1 1.1-0.4 0.3-0.9 0.2-1.1-0.1-0.3-0.3-0.3-0.8 0.1-1.1z"/>
	<path class="s2" d="m609.7 658.2c0.5-0.4 1.1-0.3 1.5 0.1 0.4 0.5 0.3 1.1-0.2 1.5-0.4 0.3-1 0.3-1.4-0.2-0.4-0.4-0.3-1.1 0.1-1.4z"/>
	<path class="s2" d="m626 597.5c0.4-0.3 1-0.3 1.4 0.2 0.4 0.4 0.3 1.1-0.1 1.4-0.5 0.4-1.1 0.3-1.5-0.1-0.3-0.4-0.3-1.1 0.2-1.5z"/>
	<path class="s2" d="m578.7 635c0.4-0.4 1.1-0.3 1.5 0.1 0.3 0.5 0.3 1.1-0.2 1.5-0.4 0.4-1.1 0.3-1.4-0.2-0.4-0.4-0.3-1 0.1-1.4z"/>
	<path class="s2" d="m344.5 815.9c0.5-0.4 1.1-0.3 1.5 0.1 0.3 0.5 0.3 1.1-0.2 1.5-0.4 0.3-1.1 0.3-1.4-0.2-0.4-0.4-0.3-1.1 0.1-1.4z"/>
	<path class="s0" d="m619.4 622.9c0.5-0.4 1.1-0.3 1.5 0.1 0.3 0.5 0.3 1.1-0.2 1.5-0.4 0.4-1 0.3-1.4-0.2-0.4-0.4-0.3-1 0.1-1.4z"/>
	<path class="s2" d="m398.3 831.1c0.5-0.4 1.1-0.3 1.5 0.1 0.3 0.4 0.3 1.1-0.2 1.4-0.4 0.4-1.1 0.3-1.4-0.1-0.4-0.4-0.3-1.1 0.1-1.4z"/>
	<path class="s0" d="m394.1 847.8c0.4-0.3 1.1-0.2 1.4 0.2 0.4 0.4 0.3 1.1-0.1 1.4-0.4 0.4-1.1 0.3-1.4-0.1-0.4-0.4-0.3-1.1 0.1-1.5z"/>
	<path class="s2" d="m370 825c0.4-0.4 1.1-0.3 1.4 0.1 0.4 0.5 0.3 1.1-0.1 1.5-0.4 0.3-1.1 0.3-1.5-0.2-0.3-0.4-0.3-1.1 0.2-1.4z"/>
	<path class="s1" d="m395.2 804.9c0.3-0.2 0.8-0.2 1.1 0.1 0.3 0.4 0.2 0.9-0.1 1.1-0.3 0.3-0.8 0.3-1.1-0.1-0.3-0.3-0.2-0.8 0.1-1.1z"/>
	<path class="s0" d="m705 754.9c0.4-0.4 1.1-0.3 1.5 0.1 0.3 0.5 0.3 1.1-0.2 1.5-0.4 0.3-1.1 0.3-1.4-0.2-0.4-0.4-0.3-1.1 0.1-1.4z"/>
	<path class="s1" d="m704 748.4c0.3-0.3 0.8-0.2 1.1 0.1 0.3 0.3 0.2 0.8-0.1 1.1-0.3 0.3-0.8 0.2-1.1-0.1-0.3-0.4-0.2-0.8 0.1-1.1z"/>
	<path class="s1" d="m724 746c0.3-0.3 0.8-0.3 1.1 0.1 0.3 0.3 0.2 0.8-0.1 1.1-0.3 0.2-0.8 0.2-1.1-0.2-0.3-0.3-0.2-0.8 0.1-1z"/>
	<path class="s1" d="m690.8 774.5c0.3-0.2 0.8-0.2 1.1 0.2 0.3 0.3 0.2 0.8-0.1 1-0.3 0.3-0.8 0.3-1.1-0.1-0.3-0.3-0.2-0.8 0.1-1.1z"/>
	<path class="s0" d="m663.2 781.2c0.5-0.4 1.1-0.3 1.5 0.1 0.4 0.5 0.3 1.1-0.1 1.5-0.5 0.3-1.1 0.3-1.5-0.2-0.4-0.4-0.3-1.1 0.1-1.4z"/>
	<path class="s1" d="m662.9 796.1c0.2-0.1 0.5-0.1 0.7 0.1 0.2 0.2 0.1 0.6-0.1 0.7-0.2 0.2-0.5 0.2-0.7 0-0.2-0.3-0.1-0.6 0.1-0.8z"/>
	<path class="s1" d="m691.1 740.3c0.2-0.1 0.5-0.1 0.7 0.1 0.2 0.2 0.1 0.6-0.1 0.7-0.2 0.2-0.5 0.2-0.7 0-0.2-0.3-0.2-0.6 0.1-0.8z"/>
	<path class="s1" d="m777.9 669.1c0.2-0.2 0.5-0.2 0.7 0 0.2 0.3 0.2 0.6-0.1 0.8-0.2 0.2-0.5 0.1-0.7-0.1-0.2-0.2-0.1-0.5 0.1-0.7z"/>
	<path class="s1" d="m839 655c0.2-0.2 0.5-0.2 0.7 0 0.2 0.2 0.1 0.6-0.1 0.8-0.2 0.1-0.5 0.1-0.7-0.1-0.2-0.2-0.2-0.6 0.1-0.7z"/>
	<path class="s1" d="m830.6 613.1c0.3-0.2 0.6-0.1 0.8 0.1 0.1 0.2 0.1 0.5-0.1 0.7-0.2 0.2-0.6 0.2-0.7 0-0.2-0.3-0.2-0.6 0-0.8z"/>
	<path class="s1" d="m566.6 859.2c0.2-0.2 0.5-0.2 0.7 0 0.2 0.3 0.2 0.6 0 0.8-0.3 0.1-0.6 0.1-0.8-0.1-0.1-0.2-0.1-0.6 0.1-0.7z"/>
	<path class="s0" d="m578.3 885.6c0.2-0.2 0.5-0.2 0.7 0 0.2 0.3 0.2 0.6-0.1 0.8-0.2 0.2-0.5 0.1-0.7-0.1-0.2-0.2-0.1-0.5 0.1-0.7z"/>
	<path class="s0" d="m553.6 890.5c0.3-0.2 0.6-0.2 0.8 0 0.1 0.3 0.1 0.6-0.1 0.8-0.2 0.1-0.6 0.1-0.7-0.1-0.2-0.2-0.2-0.5 0-0.7z"/>
	<path class="s0" d="m547.2 855.8c0.2-0.2 0.5-0.2 0.7 0.1 0.2 0.2 0.1 0.5-0.1 0.7-0.2 0.2-0.5 0.1-0.7-0.1-0.2-0.2-0.2-0.5 0.1-0.7z"/>
	<path class="s0" d="m655 793.9c0.3-0.2 0.6-0.1 0.8 0.1 0.1 0.2 0.1 0.5-0.1 0.7-0.2 0.2-0.6 0.2-0.7-0.1-0.2-0.2-0.2-0.5 0-0.7z"/>
	<path class="s0" d="m678.5 726.6c0.2-0.1 0.5-0.1 0.7 0.1 0.2 0.2 0.2 0.6-0.1 0.7-0.2 0.2-0.5 0.2-0.7 0-0.2-0.2-0.1-0.6 0.1-0.8z"/>
	<path class="s0" d="m758.2 667.9c0.3-0.2 0.6-0.2 0.8 0.1 0.1 0.2 0.1 0.5-0.1 0.7-0.2 0.2-0.5 0.1-0.7-0.1-0.2-0.2-0.2-0.5 0-0.7z"/>
	<path class="s2" d="m593.1 854.1c0.2-0.2 0.5-0.2 0.7 0.1 0.2 0.2 0.2 0.5 0 0.7-0.3 0.2-0.6 0.1-0.8-0.1-0.2-0.2-0.1-0.5 0.1-0.7z"/>
	<path class="s1" d="m702.4 800.4c0.2-0.2 0.5-0.2 0.7 0.1 0.2 0.2 0.1 0.5-0.1 0.7-0.2 0.2-0.5 0.1-0.7-0.1-0.2-0.2-0.2-0.5 0.1-0.7z"/>
	<path class="s1" d="m764.4 750.9c0.2-0.2 0.5-0.2 0.7 0 0.2 0.3 0.1 0.6-0.1 0.8-0.2 0.1-0.5 0.1-0.7-0.1-0.2-0.2-0.2-0.6 0.1-0.7z"/>
	<path class="s1" d="m645.2 786c0.2-0.2 0.5-0.2 0.7 0.1 0.2 0.2 0.2 0.5 0 0.7-0.3 0.2-0.6 0.1-0.8-0.1-0.2-0.2-0.1-0.5 0.1-0.7z"/>
	<path class="s2" d="m617.3 808.9c0.2-0.2 0.6-0.2 0.7 0 0.2 0.3 0.2 0.6 0 0.8-0.2 0.1-0.6 0.1-0.8-0.1-0.1-0.2-0.1-0.5 0.1-0.7z"/>
	<path class="s0" d="m604.9 860.4c0.3-0.2 0.6-0.2 0.8 0 0.1 0.3 0.1 0.6-0.1 0.8-0.2 0.1-0.6 0.1-0.7-0.1-0.2-0.2-0.2-0.5 0-0.7z"/>
	<path class="s2" d="m701.7 784.9c0.2-0.1 0.5-0.1 0.7 0.1 0.2 0.2 0.2 0.6-0.1 0.7-0.2 0.2-0.5 0.2-0.7 0-0.2-0.2-0.1-0.6 0.1-0.8z"/>
	<path class="s2" d="m645.8 772.9c0.2-0.2 0.5-0.2 0.7 0 0.2 0.2 0.1 0.6-0.1 0.8-0.2 0.1-0.5 0.1-0.7-0.1-0.2-0.2-0.2-0.6 0.1-0.7z"/>
	<path class="s2" d="m594.3 808.4c0.2-0.1 0.5-0.1 0.7 0.1 0.2 0.2 0.2 0.6-0.1 0.7-0.2 0.2-0.5 0.2-0.7 0-0.2-0.3-0.1-0.6 0.1-0.8z"/>
	<path class="s2" d="m604.6 844.6c0.3-0.2 0.6-0.1 0.8 0.1 0.2 0.2 0.1 0.5-0.1 0.7-0.2 0.2-0.5 0.1-0.7-0.1-0.2-0.2-0.2-0.5 0-0.7z"/>
	<path class="s2" d="m853.4 642.5c0.2-0.2 0.5-0.2 0.7 0 0.2 0.3 0.1 0.6-0.1 0.8-0.2 0.1-0.5 0.1-0.7-0.1-0.2-0.2-0.1-0.6 0.1-0.7z"/>
	<path class="s0" d="m802.7 711.4c0.2-0.2 0.5-0.1 0.7 0.1 0.2 0.2 0.1 0.5-0.1 0.7-0.2 0.2-0.5 0.2-0.7 0-0.2-0.3-0.2-0.6 0.1-0.8z"/>
	<path class="s0" d="m828.6 634.2c0.2-0.2 0.5-0.2 0.7 0 0.2 0.3 0.1 0.6-0.1 0.8-0.2 0.1-0.5 0.1-0.7-0.1-0.2-0.2-0.2-0.6 0.1-0.7z"/>
	<path class="s2" d="m724.8 713.3c0.5-0.4 1.1-0.3 1.5 0.1 0.4 0.5 0.3 1.1-0.1 1.5-0.5 0.3-1.1 0.3-1.5-0.2-0.4-0.4-0.3-1 0.1-1.4z"/>
	<path class="s0" d="m758.2 705.9c0.4-0.3 1-0.2 1.4 0.2 0.4 0.4 0.3 1.1-0.1 1.4-0.5 0.4-1.1 0.3-1.5-0.1-0.3-0.4-0.3-1.1 0.2-1.5z"/>
	<path class="s1" d="m769.4 720.1c0.3-0.3 0.8-0.3 1.1 0.1 0.3 0.3 0.2 0.8-0.1 1-0.3 0.3-0.8 0.3-1.1-0.1-0.3-0.3-0.2-0.8 0.1-1z"/>
	<path class="s1" d="m707.6 700.8c0.3-0.3 0.8-0.2 1.1 0.1 0.2 0.3 0.2 0.8-0.1 1.1-0.4 0.3-0.8 0.2-1.1-0.1-0.3-0.4-0.2-0.8 0.1-1.1z"/>
	<path class="s1" d="m833.3 584.3c0.3-0.3 0.8-0.2 1.1 0.1 0.2 0.3 0.2 0.8-0.1 1.1-0.4 0.2-0.9 0.2-1.1-0.1-0.3-0.4-0.2-0.9 0.1-1.1z"/>
	<path class="s1" d="m580.3 803.2c0.4-0.3 0.9-0.2 1.1 0.1 0.3 0.4 0.3 0.8-0.1 1.1-0.3 0.3-0.8 0.2-1.1-0.1-0.2-0.3-0.2-0.8 0.1-1.1z"/>
	<path class="s1" d="m534.9 855.9c0.3-0.3 0.8-0.3 1.1 0.1 0.3 0.3 0.2 0.8-0.1 1.1-0.4 0.2-0.8 0.2-1.1-0.2-0.3-0.3-0.2-0.8 0.1-1z"/>
	<path class="s1" d="m541.2 877.4c0.3-0.3 0.8-0.3 1.1 0.1 0.3 0.3 0.2 0.8-0.1 1-0.4 0.3-0.8 0.3-1.1-0.1-0.3-0.3-0.2-0.8 0.1-1z"/>
	<path class="s1" d="m743.7 727.8c0.4-0.3 0.9-0.2 1.1 0.1 0.3 0.3 0.3 0.8-0.1 1.1-0.3 0.2-0.8 0.2-1.1-0.1-0.2-0.4-0.2-0.9 0.1-1.1z"/>
	<path class="s1" d="m650.2 755.2c0.4-0.3 0.9-0.2 1.1 0.1 0.3 0.3 0.3 0.8-0.1 1.1-0.3 0.2-0.8 0.2-1.1-0.1-0.2-0.4-0.2-0.9 0.1-1.1z"/>
	<path class="s1" d="m736.6 655.7c0.3-0.3 0.8-0.2 1 0.1 0.3 0.3 0.3 0.8-0.1 1.1-0.3 0.2-0.8 0.2-1-0.1-0.3-0.4-0.3-0.9 0.1-1.1z"/>
	<path class="s1" d="m864.3 596.1c0.4-0.2 0.9-0.2 1.1 0.1 0.3 0.4 0.3 0.8-0.1 1.1-0.3 0.3-0.8 0.2-1.1-0.1-0.2-0.3-0.2-0.8 0.1-1.1z"/>
	<path class="s1" d="m891.9 610.2c0.3-0.3 0.8-0.2 1.1 0.1 0.2 0.3 0.2 0.8-0.1 1.1-0.4 0.2-0.9 0.2-1.1-0.1-0.3-0.4-0.3-0.8 0.1-1.1z"/>
	<path class="s2" d="m801.9 692.7c0.5-0.4 1.1-0.3 1.5 0.1 0.3 0.5 0.3 1.1-0.2 1.5-0.4 0.3-1 0.3-1.4-0.2-0.4-0.4-0.3-1.1 0.1-1.4z"/>
	<path class="s1" d="m825.1 721c0.5-0.4 1.1-0.3 1.5 0.1 0.4 0.4 0.3 1.1-0.1 1.5-0.5 0.3-1.1 0.3-1.5-0.2-0.4-0.4-0.3-1.1 0.1-1.4z"/>
	<path class="s1" d="m815.3 667.1c0.3-0.3 0.8-0.2 1 0.1 0.3 0.3 0.3 0.8-0.1 1.1-0.3 0.2-0.8 0.2-1.1-0.1-0.2-0.4-0.2-0.9 0.2-1.1z"/>
	<path class="s2" d="m847.3 666.8c0.5-0.4 1.1-0.3 1.5 0.1 0.3 0.4 0.3 1.1-0.2 1.4-0.4 0.4-1.1 0.3-1.4-0.1-0.4-0.4-0.3-1.1 0.1-1.4z"/>
	<path class="s2" d="m863.5 606.1c0.5-0.4 1.1-0.3 1.5 0.2 0.4 0.4 0.3 1-0.2 1.4-0.4 0.4-1 0.3-1.4-0.1-0.4-0.5-0.3-1.1 0.1-1.5z"/>
	<path class="s2" d="m816.3 643.6c0.4-0.4 1.1-0.3 1.4 0.1 0.4 0.4 0.3 1.1-0.1 1.5-0.4 0.3-1.1 0.3-1.5-0.2-0.3-0.4-0.3-1.1 0.2-1.4z"/>
	<path class="s2" d="m582.1 824.4c0.4-0.3 1.1-0.3 1.5 0.2 0.3 0.4 0.3 1.1-0.2 1.4-0.4 0.4-1.1 0.3-1.4-0.1-0.4-0.4-0.3-1.1 0.1-1.5z"/>
	<path class="s2" d="m567.8 872.8c0.5-0.3 1.1-0.3 1.5 0.2 0.3 0.4 0.3 1.1-0.2 1.4-0.4 0.4-1.1 0.3-1.4-0.1-0.4-0.5-0.3-1.1 0.1-1.5z"/>
	<path class="s0" d="m857 631.5c0.5-0.4 1.1-0.3 1.5 0.1 0.3 0.4 0.3 1.1-0.2 1.5-0.4 0.3-1.1 0.3-1.4-0.2-0.4-0.4-0.3-1.1 0.1-1.4z"/>
	<path class="s2" d="m635.9 839.6c0.4-0.3 1.1-0.3 1.4 0.2 0.4 0.4 0.3 1.1-0.1 1.4-0.4 0.4-1.1 0.3-1.5-0.1-0.3-0.5-0.2-1.1 0.2-1.5z"/>
	<path class="s0" d="m631.7 856.4c0.4-0.3 1.1-0.3 1.4 0.2 0.4 0.4 0.3 1.1-0.1 1.4-0.5 0.4-1.1 0.3-1.5-0.1-0.3-0.5-0.3-1.1 0.2-1.5z"/>
	<path class="s2" d="m607.6 833.5c0.4-0.3 1.1-0.3 1.4 0.2 0.4 0.4 0.3 1.1-0.1 1.4-0.5 0.4-1.1 0.3-1.5-0.1-0.3-0.5-0.3-1.1 0.2-1.5z"/>
	<path class="s1" d="m632.8 813.5c0.3-0.3 0.8-0.2 1.1 0.1 0.2 0.3 0.2 0.8-0.1 1.1-0.4 0.3-0.8 0.2-1.1-0.1-0.3-0.3-0.2-0.8 0.1-1.1z"/>
	<path class="s0" d="m863.2 520.6c0.5-0.4 1.1-0.3 1.5 0.1 0.3 0.5 0.3 1.1-0.2 1.5-0.4 0.3-1.1 0.3-1.4-0.2-0.4-0.4-0.3-1.1 0.1-1.4z"/>
	<path class="s1" d="m862.2 514.1c0.3-0.3 0.8-0.2 1.1 0.1 0.3 0.3 0.2 0.8-0.1 1.1-0.3 0.2-0.8 0.2-1.1-0.1-0.3-0.4-0.2-0.9 0.1-1.1z"/>
	<path class="s1" d="m882.2 511.6c0.4-0.2 0.8-0.2 1.1 0.2 0.3 0.3 0.2 0.8-0.1 1-0.3 0.3-0.8 0.3-1.1-0.1-0.3-0.3-0.2-0.8 0.1-1.1z"/>
	<path class="s1" d="m849 540.2c0.4-0.2 0.8-0.2 1.1 0.1 0.3 0.4 0.2 0.9-0.1 1.1-0.3 0.3-0.8 0.3-1.1-0.1-0.3-0.3-0.2-0.8 0.1-1.1z"/>
	<path class="s0" d="m821.5 546.9c0.4-0.4 1.1-0.3 1.4 0.1 0.4 0.4 0.3 1.1-0.1 1.5-0.5 0.3-1.1 0.3-1.5-0.2-0.3-0.4-0.3-1.1 0.2-1.4z"/>
	<path class="s1" d="m821.1 561.8c0.2-0.1 0.5-0.1 0.7 0.1 0.2 0.2 0.2 0.6-0.1 0.7-0.2 0.2-0.5 0.2-0.7 0-0.2-0.3-0.1-0.6 0.1-0.8z"/>
	<path class="s1" d="m849.3 506c0.2-0.1 0.5-0.1 0.7 0.1 0.2 0.2 0.2 0.5-0.1 0.7-0.2 0.2-0.5 0.2-0.7 0-0.2-0.3-0.1-0.6 0.1-0.8z"/>
	<path class="s1" d="m936.1 434.8c0.2-0.2 0.5-0.2 0.7 0 0.2 0.2 0.2 0.6 0 0.8-0.3 0.1-0.6 0.1-0.8-0.1-0.1-0.2-0.1-0.6 0.1-0.7z"/>
	<path class="s1" d="m997.2 420.6c0.2-0.1 0.5-0.1 0.7 0.1 0.2 0.2 0.1 0.5-0.1 0.7-0.2 0.2-0.5 0.2-0.7 0-0.2-0.3-0.1-0.6 0.1-0.8z"/>
	<path class="s1" d="m988.8 378.8c0.3-0.2 0.6-0.1 0.8 0.1 0.1 0.2 0.1 0.5-0.1 0.7-0.2 0.2-0.5 0.1-0.7-0.1-0.2-0.2-0.2-0.5 0-0.7z"/>
	<path class="s1" d="m724.8 624.9c0.2-0.2 0.6-0.2 0.7 0 0.2 0.3 0.2 0.6 0 0.8-0.2 0.1-0.6 0.1-0.8-0.1-0.1-0.2-0.1-0.6 0.1-0.7z"/>
	<path class="s0" d="m736.5 651.3c0.2-0.2 0.5-0.2 0.7 0 0.2 0.3 0.2 0.6 0 0.8-0.3 0.1-0.6 0.1-0.8-0.1-0.2-0.2-0.1-0.5 0.1-0.7z"/>
	<path class="s0" d="m711.9 656.2c0.2-0.2 0.5-0.2 0.7 0 0.2 0.3 0.1 0.6-0.1 0.8-0.2 0.1-0.5 0.1-0.7-0.1-0.2-0.2-0.2-0.6 0.1-0.7z"/>
	<path class="s0" d="m705.4 621.5c0.2-0.2 0.5-0.2 0.7 0.1 0.2 0.2 0.2 0.5-0.1 0.7-0.2 0.2-0.5 0.1-0.7-0.1-0.2-0.2-0.1-0.5 0.1-0.7z"/>
	<path class="s0" d="m813.3 559.6c0.2-0.2 0.5-0.1 0.7 0.1 0.2 0.2 0.1 0.5-0.1 0.7-0.2 0.2-0.5 0.2-0.7-0.1-0.2-0.2-0.2-0.5 0.1-0.7z"/>
	<path class="s0" d="m836.7 492.4c0.2-0.2 0.6-0.2 0.7 0 0.2 0.2 0.2 0.6 0 0.7-0.3 0.2-0.6 0.2-0.8 0-0.1-0.2-0.1-0.6 0.1-0.7z"/>
	<path class="s0" d="m916.5 433.6c0.2-0.2 0.5-0.2 0.7 0 0.2 0.2 0.1 0.6-0.1 0.8-0.2 0.1-0.5 0.1-0.7-0.1-0.2-0.2-0.2-0.6 0.1-0.7z"/>
	<path class="s2" d="m751.3 619.8c0.2-0.2 0.6-0.2 0.7 0.1 0.2 0.2 0.2 0.5 0 0.7-0.3 0.2-0.6 0.1-0.8-0.1-0.1-0.2-0.1-0.5 0.1-0.7z"/>
	<path class="s1" d="m860.6 566.1c0.2-0.2 0.5-0.2 0.7 0.1 0.2 0.2 0.1 0.5-0.1 0.7-0.2 0.2-0.5 0.1-0.7-0.1-0.2-0.2-0.1-0.5 0.1-0.7z"/>
	<path class="s1" d="m922.6 516.5c0.2-0.1 0.5-0.1 0.7 0.1 0.2 0.2 0.1 0.6-0.1 0.7-0.2 0.2-0.5 0.2-0.7 0-0.2-0.3-0.2-0.6 0.1-0.8z"/>
	<path class="s1" d="m803.4 551.7c0.2-0.2 0.6-0.2 0.7 0.1 0.2 0.2 0.2 0.5 0 0.7-0.3 0.2-0.6 0.1-0.8-0.1-0.1-0.2-0.1-0.5 0.1-0.7z"/>
	<path class="s2" d="m775.5 574.6c0.3-0.2 0.6-0.2 0.8 0 0.1 0.3 0.1 0.6-0.1 0.8-0.2 0.1-0.6 0.1-0.7-0.1-0.2-0.2-0.2-0.6 0-0.7z"/>
	<path class="s0" d="m763.1 626.1c0.3-0.2 0.6-0.2 0.8 0 0.2 0.3 0.1 0.6-0.1 0.8-0.2 0.1-0.5 0.1-0.7-0.1-0.2-0.2-0.2-0.6 0-0.7z"/>
	<path class="s2" d="m859.9 550.6c0.2-0.1 0.5-0.1 0.7 0.1 0.2 0.2 0.2 0.6 0 0.7-0.3 0.2-0.6 0.2-0.8 0-0.2-0.3-0.1-0.6 0.1-0.8z"/>
	<path class="s2" d="m804 538.5c0.2-0.1 0.5-0.1 0.7 0.1 0.2 0.2 0.1 0.6-0.1 0.7-0.2 0.2-0.5 0.2-0.7 0-0.2-0.2-0.1-0.6 0.1-0.8z"/>
	<path class="s2" d="m752.5 574.1c0.2-0.2 0.6-0.1 0.7 0.1 0.2 0.2 0.2 0.5 0 0.7-0.3 0.2-0.6 0.2-0.8 0-0.1-0.3-0.1-0.6 0.1-0.8z"/>
	<path class="s2" d="m762.9 610.3c0.2-0.2 0.5-0.2 0.7 0.1 0.2 0.2 0.1 0.5-0.1 0.7-0.2 0.2-0.5 0.1-0.7-0.1-0.2-0.2-0.2-0.5 0.1-0.7z"/>
	<path class="s2" d="m1011.6 408.1c0.2-0.1 0.5-0.1 0.7 0.1 0.2 0.2 0.2 0.6-0.1 0.7-0.2 0.2-0.5 0.2-0.7 0-0.2-0.3-0.1-0.6 0.1-0.8z"/>
	<path class="s0" d="m960.9 477.1c0.2-0.2 0.5-0.1 0.7 0.1 0.2 0.2 0.1 0.5-0.1 0.7-0.2 0.2-0.5 0.1-0.7-0.1-0.2-0.2-0.2-0.5 0.1-0.7z"/>
	<path class="s0" d="m986.8 399.8c0.2-0.1 0.5-0.1 0.7 0.1 0.2 0.2 0.1 0.6-0.1 0.7-0.2 0.2-0.5 0.2-0.7 0-0.2-0.3-0.1-0.6 0.1-0.8z"/>
	<path class="s2" d="m883.1 479c0.4-0.4 1-0.3 1.4 0.1 0.4 0.5 0.3 1.1-0.1 1.5-0.5 0.3-1.1 0.3-1.5-0.2-0.3-0.4-0.3-1.1 0.2-1.4z"/>
	<path class="s0" d="m916.4 471.6c0.4-0.3 1.1-0.3 1.4 0.2 0.4 0.4 0.3 1.1-0.1 1.4-0.5 0.4-1.1 0.3-1.5-0.1-0.3-0.5-0.3-1.1 0.2-1.5z"/>
	<path class="s1" d="m927.6 485.7c0.3-0.2 0.8-0.2 1.1 0.1 0.3 0.4 0.2 0.9-0.1 1.1-0.3 0.3-0.8 0.2-1.1-0.1-0.3-0.3-0.2-0.8 0.1-1.1z"/>
	<path class="s1" d="m865.8 466.5c0.3-0.3 0.8-0.3 1.1 0.1 0.3 0.3 0.2 0.8-0.1 1.1-0.3 0.2-0.8 0.2-1.1-0.1-0.3-0.4-0.2-0.9 0.1-1.1z"/>
	<path class="s1" d="m991.5 350c0.3-0.3 0.8-0.3 1.1 0.1 0.3 0.3 0.2 0.8-0.1 1-0.4 0.3-0.8 0.3-1.1-0.1-0.3-0.3-0.2-0.8 0.1-1z"/>
	<path class="s1" d="m738.6 568.9c0.3-0.3 0.8-0.2 1 0.1 0.3 0.4 0.3 0.8-0.1 1.1-0.3 0.3-0.8 0.2-1-0.1-0.3-0.3-0.3-0.8 0.1-1.1z"/>
	<path class="s1" d="m693.1 621.6c0.3-0.3 0.8-0.3 1.1 0.1 0.3 0.3 0.2 0.8-0.1 1-0.3 0.3-0.8 0.3-1.1-0.1-0.3-0.3-0.2-0.8 0.1-1z"/>
	<path class="s1" d="m699.4 643c0.3-0.2 0.8-0.2 1.1 0.2 0.3 0.3 0.2 0.8-0.1 1-0.3 0.3-0.8 0.3-1.1-0.1-0.3-0.3-0.2-0.8 0.1-1.1z"/>
	<path class="s1" d="m902 493.5c0.3-0.3 0.8-0.3 1 0.1 0.3 0.3 0.3 0.8-0.1 1-0.3 0.3-0.8 0.3-1.1-0.1-0.2-0.3-0.2-0.8 0.2-1z"/>
	<path class="s1" d="m808.5 520.9c0.3-0.3 0.8-0.3 1 0.1 0.3 0.3 0.3 0.8-0.1 1.1-0.3 0.2-0.8 0.2-1-0.1-0.3-0.4-0.3-0.9 0.1-1.1z"/>
	<path class="s1" d="m894.8 421.4c0.3-0.3 0.8-0.3 1.1 0.1 0.2 0.3 0.2 0.8-0.1 1-0.4 0.3-0.9 0.3-1.1-0.1-0.3-0.3-0.3-0.8 0.1-1z"/>
	<path class="s1" d="m1022.5 361.8c0.4-0.3 0.9-0.2 1.1 0.1 0.3 0.3 0.3 0.8-0.1 1.1-0.3 0.3-0.8 0.2-1.1-0.1-0.2-0.3-0.2-0.8 0.1-1.1z"/>
	<path class="s1" d="m1050.1 375.9c0.3-0.3 0.8-0.3 1.1 0.1 0.3 0.3 0.2 0.8-0.1 1.1-0.4 0.2-0.8 0.2-1.1-0.2-0.3-0.3-0.2-0.8 0.1-1z"/>
	<path class="s2" d="m960.1 458.4c0.5-0.4 1.1-0.3 1.5 0.1 0.4 0.4 0.3 1.1-0.1 1.5-0.5 0.3-1.1 0.3-1.5-0.2-0.4-0.4-0.3-1.1 0.1-1.4z"/>
	<path class="s1" d="m983.4 486.6c0.4-0.3 1-0.3 1.4 0.2 0.4 0.4 0.3 1.1-0.1 1.4-0.5 0.4-1.1 0.3-1.5-0.1-0.3-0.5-0.3-1.1 0.2-1.5z"/>
	<path class="s1" d="m973.5 432.8c0.3-0.3 0.8-0.3 1.1 0.1 0.2 0.3 0.2 0.8-0.2 1.1-0.3 0.2-0.8 0.2-1-0.2-0.3-0.3-0.3-0.8 0.1-1z"/>
	<path class="s2" d="m1005.5 432.4c0.5-0.3 1.1-0.3 1.5 0.2 0.4 0.4 0.3 1.1-0.2 1.4-0.4 0.4-1.1 0.3-1.4-0.1-0.4-0.5-0.3-1.1 0.1-1.5z"/>
	<path class="s2" d="m1021.8 371.8c0.4-0.4 1-0.3 1.4 0.1 0.4 0.5 0.3 1.1-0.1 1.5-0.5 0.3-1.1 0.3-1.5-0.2-0.3-0.4-0.3-1.1 0.2-1.4z"/>
	<path class="s2" d="m974.5 409.2c0.4-0.3 1.1-0.3 1.4 0.2 0.4 0.4 0.3 1.1-0.1 1.4-0.4 0.4-1.1 0.3-1.4-0.1-0.4-0.4-0.3-1.1 0.1-1.5z"/>
	<path class="s2" d="m740.3 590.1c0.5-0.3 1.1-0.3 1.5 0.2 0.3 0.4 0.3 1.1-0.2 1.4-0.4 0.4-1.1 0.3-1.4-0.1-0.4-0.5-0.3-1.1 0.1-1.5z"/>
	<path class="s2" d="m726 638.5c0.5-0.3 1.1-0.3 1.5 0.2 0.3 0.4 0.3 1.1-0.2 1.4-0.4 0.4-1 0.3-1.4-0.1-0.4-0.5-0.3-1.1 0.1-1.5z"/>
	<path class="s0" d="m1015.2 397.1c0.5-0.3 1.1-0.3 1.5 0.2 0.3 0.4 0.3 1.1-0.2 1.4-0.4 0.4-1.1 0.3-1.4-0.1-0.4-0.4-0.3-1.1 0.1-1.5z"/>
	<path class="s2" d="m794.1 605.3c0.4-0.3 1.1-0.3 1.5 0.2 0.3 0.4 0.3 1.1-0.2 1.4-0.4 0.4-1.1 0.3-1.4-0.1-0.4-0.5-0.3-1.1 0.1-1.5z"/>
	<path class="s0" d="m789.9 622.1c0.4-0.4 1.1-0.3 1.4 0.2 0.4 0.4 0.3 1-0.1 1.4-0.4 0.4-1.1 0.3-1.5-0.1-0.3-0.5-0.2-1.1 0.2-1.5z"/>
	<path class="s2" d="m765.8 599.2c0.4-0.3 1.1-0.3 1.4 0.2 0.4 0.4 0.3 1.1-0.1 1.4-0.4 0.4-1.1 0.3-1.5-0.1-0.3-0.5-0.3-1.1 0.2-1.5z"/>
	<path class="s1" d="m791 579.2c0.3-0.3 0.8-0.2 1.1 0.1 0.3 0.3 0.2 0.8-0.1 1.1-0.3 0.3-0.8 0.2-1.1-0.1-0.3-0.3-0.2-0.8 0.1-1.1z"/>
	<g>
		<path fill-rule="evenodd" class="s3" d="m639 588.5c156.5-131.3 295.9-222.2 311.8-203.3 15.8 18.9-97.8 140.4-254.3 271.8-156.6 131.3-295.9 222.2-311.8 203.3-15.9-18.9 97.8-140.4 254.3-271.8z"/>
	</g>
</svg>