<svg width="622" height="35" viewBox="0 0 622 35" fill="none" xmlns="http://www.w3.org/2000/svg">
<rect x="115" width="119" height="35" rx="17.5" fill="#212141"/>
<rect width="110" height="35" rx="17.5" fill="#212B3D"/>
<rect x="243" width="119" height="35" rx="17.5" fill="#212141"/>
<rect x="370" width="119" height="35" rx="17.5" fill="#212141"/>
<rect x="497" width="125" height="35" rx="17.5" fill="#212141"/>
<path d="M406.829 23L410.441 13.2H411.687L415.285 23H414.039L411.057 14.67L408.061 23H406.829ZM408.481 20.48L408.817 19.528H413.255L413.591 20.48H408.481ZM416.658 23V13.2H417.834V23H416.658ZM426.584 23.168C425.865 23.168 425.24 23.0373 424.708 22.776C424.176 22.5147 423.765 22.1507 423.476 21.684C423.187 21.2173 423.042 20.676 423.042 20.06H424.274C424.274 20.4427 424.363 20.7973 424.54 21.124C424.717 21.4413 424.974 21.698 425.31 21.894C425.655 22.0807 426.08 22.174 426.584 22.174C427.023 22.174 427.396 22.104 427.704 21.964C428.021 21.8147 428.259 21.614 428.418 21.362C428.586 21.11 428.67 20.8253 428.67 20.508C428.67 20.1253 428.586 19.8173 428.418 19.584C428.259 19.3413 428.04 19.1453 427.76 18.996C427.48 18.8467 427.153 18.716 426.78 18.604C426.416 18.4827 426.033 18.3567 425.632 18.226C424.857 17.9647 424.288 17.638 423.924 17.246C423.56 16.854 423.378 16.3453 423.378 15.72C423.378 15.188 423.499 14.7213 423.742 14.32C423.994 13.9187 424.349 13.606 424.806 13.382C425.273 13.1487 425.823 13.032 426.458 13.032C427.083 13.032 427.625 13.1487 428.082 13.382C428.549 13.6153 428.913 13.9373 429.174 14.348C429.435 14.7493 429.566 15.216 429.566 15.748H428.334C428.334 15.4773 428.264 15.2113 428.124 14.95C427.984 14.6887 427.769 14.474 427.48 14.306C427.2 14.1287 426.845 14.04 426.416 14.04C426.061 14.0307 425.744 14.0913 425.464 14.222C425.193 14.3433 424.979 14.5207 424.82 14.754C424.671 14.9873 424.596 15.272 424.596 15.608C424.596 15.9253 424.661 16.182 424.792 16.378C424.932 16.574 425.128 16.742 425.38 16.882C425.641 17.0127 425.945 17.134 426.29 17.246C426.635 17.358 427.018 17.484 427.438 17.624C427.914 17.7827 428.334 17.9787 428.698 18.212C429.071 18.436 429.361 18.7253 429.566 19.08C429.781 19.4347 429.888 19.8873 429.888 20.438C429.888 20.9047 429.762 21.348 429.51 21.768C429.267 22.1787 428.903 22.5147 428.418 22.776C427.933 23.0373 427.321 23.168 426.584 23.168ZM433.711 23.168C433.142 23.168 432.666 23.07 432.283 22.874C431.901 22.6687 431.616 22.4027 431.429 22.076C431.243 21.74 431.149 21.376 431.149 20.984C431.149 20.508 431.271 20.1067 431.513 19.78C431.765 19.444 432.115 19.192 432.563 19.024C433.021 18.8467 433.557 18.758 434.173 18.758H436.035C436.035 18.3193 435.965 17.9553 435.825 17.666C435.695 17.3673 435.499 17.1433 435.237 16.994C434.985 16.8447 434.668 16.77 434.285 16.77C433.837 16.77 433.45 16.882 433.123 17.106C432.797 17.33 432.596 17.6613 432.521 18.1H431.317C431.373 17.596 431.541 17.176 431.821 16.84C432.111 16.4947 432.475 16.2333 432.913 16.056C433.352 15.8693 433.809 15.776 434.285 15.776C434.939 15.776 435.48 15.8973 435.909 16.14C436.348 16.3733 436.675 16.7047 436.889 17.134C437.104 17.554 437.211 18.0533 437.211 18.632V23H436.161L436.091 21.754C435.998 21.95 435.877 22.1367 435.727 22.314C435.587 22.482 435.419 22.6313 435.223 22.762C435.027 22.8833 434.803 22.9813 434.551 23.056C434.309 23.1307 434.029 23.168 433.711 23.168ZM433.893 22.174C434.22 22.174 434.514 22.1087 434.775 21.978C435.046 21.838 435.275 21.6513 435.461 21.418C435.648 21.1753 435.788 20.9093 435.881 20.62C435.984 20.3307 436.035 20.0273 436.035 19.71V19.668H434.271C433.814 19.668 433.445 19.724 433.165 19.836C432.885 19.9387 432.685 20.088 432.563 20.284C432.442 20.4707 432.381 20.6853 432.381 20.928C432.381 21.18 432.437 21.3993 432.549 21.586C432.671 21.7727 432.843 21.9173 433.067 22.02C433.301 22.1227 433.576 22.174 433.893 22.174ZM441.228 23.168C440.659 23.168 440.183 23.07 439.8 22.874C439.418 22.6687 439.133 22.4027 438.946 22.076C438.76 21.74 438.666 21.376 438.666 20.984C438.666 20.508 438.788 20.1067 439.03 19.78C439.282 19.444 439.632 19.192 440.08 19.024C440.538 18.8467 441.074 18.758 441.69 18.758H443.552C443.552 18.3193 443.482 17.9553 443.342 17.666C443.212 17.3673 443.016 17.1433 442.754 16.994C442.502 16.8447 442.185 16.77 441.802 16.77C441.354 16.77 440.967 16.882 440.64 17.106C440.314 17.33 440.113 17.6613 440.038 18.1H438.834C438.89 17.596 439.058 17.176 439.338 16.84C439.628 16.4947 439.992 16.2333 440.43 16.056C440.869 15.8693 441.326 15.776 441.802 15.776C442.456 15.776 442.997 15.8973 443.426 16.14C443.865 16.3733 444.192 16.7047 444.406 17.134C444.621 17.554 444.728 18.0533 444.728 18.632V23H443.678L443.608 21.754C443.515 21.95 443.394 22.1367 443.244 22.314C443.104 22.482 442.936 22.6313 442.74 22.762C442.544 22.8833 442.32 22.9813 442.068 23.056C441.826 23.1307 441.546 23.168 441.228 23.168ZM441.41 22.174C441.737 22.174 442.031 22.1087 442.292 21.978C442.563 21.838 442.792 21.6513 442.978 21.418C443.165 21.1753 443.305 20.9093 443.398 20.62C443.501 20.3307 443.552 20.0273 443.552 19.71V19.668H441.788C441.331 19.668 440.962 19.724 440.682 19.836C440.402 19.9387 440.202 20.088 440.08 20.284C439.959 20.4707 439.898 20.6853 439.898 20.928C439.898 21.18 439.954 21.3993 440.066 21.586C440.188 21.7727 440.36 21.9173 440.584 22.02C440.818 22.1227 441.093 22.174 441.41 22.174ZM449.642 23.168C448.923 23.168 448.298 23.0373 447.766 22.776C447.234 22.5147 446.823 22.1507 446.534 21.684C446.244 21.2173 446.1 20.676 446.1 20.06H447.332C447.332 20.4427 447.42 20.7973 447.598 21.124C447.775 21.4413 448.032 21.698 448.368 21.894C448.713 22.0807 449.138 22.174 449.642 22.174C450.08 22.174 450.454 22.104 450.762 21.964C451.079 21.8147 451.317 21.614 451.476 21.362C451.644 21.11 451.728 20.8253 451.728 20.508C451.728 20.1253 451.644 19.8173 451.476 19.584C451.317 19.3413 451.098 19.1453 450.818 18.996C450.538 18.8467 450.211 18.716 449.838 18.604C449.474 18.4827 449.091 18.3567 448.69 18.226C447.915 17.9647 447.346 17.638 446.982 17.246C446.618 16.854 446.436 16.3453 446.436 15.72C446.436 15.188 446.557 14.7213 446.8 14.32C447.052 13.9187 447.406 13.606 447.864 13.382C448.33 13.1487 448.881 13.032 449.516 13.032C450.141 13.032 450.682 13.1487 451.14 13.382C451.606 13.6153 451.97 13.9373 452.232 14.348C452.493 14.7493 452.624 15.216 452.624 15.748H451.392C451.392 15.4773 451.322 15.2113 451.182 14.95C451.042 14.6887 450.827 14.474 450.538 14.306C450.258 14.1287 449.903 14.04 449.474 14.04C449.119 14.0307 448.802 14.0913 448.522 14.222C448.251 14.3433 448.036 14.5207 447.878 14.754C447.728 14.9873 447.654 15.272 447.654 15.608C447.654 15.9253 447.719 16.182 447.85 16.378C447.99 16.574 448.186 16.742 448.438 16.882C448.699 17.0127 449.002 17.134 449.348 17.246C449.693 17.358 450.076 17.484 450.496 17.624C450.972 17.7827 451.392 17.9787 451.756 18.212C452.129 18.436 452.418 18.7253 452.624 19.08C452.838 19.4347 452.946 19.8873 452.946 20.438C452.946 20.9047 452.82 21.348 452.568 21.768C452.325 22.1787 451.961 22.5147 451.476 22.776C450.99 23.0373 450.379 23.168 449.642 23.168Z" fill="#AEB9E1"/>
<path d="M516.848 23V13.2H518.22L521.678 20.046L525.15 13.2H526.536V23H525.36V15.3L522.126 21.628H521.244L518.024 15.328V23H516.848ZM531.601 23.168C530.948 23.168 530.36 23.0187 529.837 22.72C529.314 22.412 528.904 21.9827 528.605 21.432C528.306 20.872 528.157 20.2233 528.157 19.486C528.157 18.73 528.306 18.0767 528.605 17.526C528.913 16.966 529.328 16.5367 529.851 16.238C530.383 15.93 530.976 15.776 531.629 15.776C532.301 15.776 532.894 15.93 533.407 16.238C533.93 16.5367 534.34 16.966 534.639 17.526C534.947 18.0767 535.101 18.7253 535.101 19.472C535.101 20.2187 534.947 20.872 534.639 21.432C534.331 21.9827 533.916 22.412 533.393 22.72C532.87 23.0187 532.273 23.168 531.601 23.168ZM531.615 22.16C532.016 22.16 532.39 22.062 532.735 21.866C533.08 21.6607 533.36 21.3573 533.575 20.956C533.79 20.5547 533.897 20.06 533.897 19.472C533.897 18.8747 533.79 18.38 533.575 17.988C533.37 17.5867 533.094 17.288 532.749 17.092C532.413 16.8867 532.04 16.784 531.629 16.784C531.237 16.784 530.864 16.8867 530.509 17.092C530.164 17.288 529.884 17.5867 529.669 17.988C529.464 18.38 529.361 18.8747 529.361 19.472C529.361 20.06 529.464 20.5547 529.669 20.956C529.884 21.3573 530.159 21.6607 530.495 21.866C530.84 22.062 531.214 22.16 531.615 22.16ZM539.76 23.168C539.079 23.168 538.481 23.0093 537.968 22.692C537.455 22.3653 537.058 21.922 536.778 21.362C536.498 20.802 536.358 20.1673 536.358 19.458C536.358 18.7487 536.498 18.1187 536.778 17.568C537.058 17.008 537.455 16.5693 537.968 16.252C538.491 15.9347 539.093 15.776 539.774 15.776C540.353 15.776 540.857 15.8927 541.286 16.126C541.725 16.3593 542.061 16.686 542.294 17.106V12.92H543.47V23H542.406L542.308 21.838C542.159 22.0713 541.967 22.2907 541.734 22.496C541.501 22.692 541.221 22.8553 540.894 22.986C540.567 23.1073 540.189 23.168 539.76 23.168ZM539.9 22.146C540.367 22.146 540.777 22.034 541.132 21.81C541.487 21.586 541.762 21.278 541.958 20.886C542.154 20.4847 542.252 20.0133 542.252 19.472C542.252 18.94 542.154 18.4733 541.958 18.072C541.762 17.6707 541.487 17.358 541.132 17.134C540.777 16.91 540.367 16.798 539.9 16.798C539.443 16.798 539.037 16.91 538.682 17.134C538.327 17.358 538.052 17.6707 537.856 18.072C537.66 18.4733 537.562 18.94 537.562 19.472C537.562 20.0133 537.66 20.4847 537.856 20.886C538.052 21.278 538.327 21.586 538.682 21.81C539.037 22.034 539.443 22.146 539.9 22.146ZM548.425 23.168C547.763 23.168 547.175 23.014 546.661 22.706C546.157 22.398 545.761 21.9687 545.471 21.418C545.182 20.858 545.037 20.2093 545.037 19.472C545.037 18.7253 545.177 18.0767 545.457 17.526C545.747 16.9753 546.148 16.546 546.661 16.238C547.184 15.93 547.781 15.776 548.453 15.776C549.144 15.776 549.727 15.93 550.203 16.238C550.689 16.546 551.057 16.952 551.309 17.456C551.571 17.9507 551.701 18.4967 551.701 19.094C551.701 19.1873 551.701 19.2853 551.701 19.388C551.701 19.4907 551.697 19.6073 551.687 19.738H545.919V18.828H550.553C550.525 18.184 550.311 17.68 549.909 17.316C549.517 16.952 549.023 16.77 548.425 16.77C548.024 16.77 547.651 16.8633 547.305 17.05C546.969 17.2273 546.699 17.4933 546.493 17.848C546.288 18.1933 546.185 18.6273 546.185 19.15V19.542C546.185 20.1207 546.288 20.606 546.493 20.998C546.708 21.39 546.983 21.684 547.319 21.88C547.665 22.076 548.033 22.174 548.425 22.174C548.92 22.174 549.326 22.0667 549.643 21.852C549.97 21.628 550.203 21.3293 550.343 20.956H551.505C551.393 21.376 551.197 21.754 550.917 22.09C550.637 22.426 550.287 22.692 549.867 22.888C549.457 23.0747 548.976 23.168 548.425 23.168ZM553.19 23V15.944H554.254L554.338 17.288C554.497 16.9707 554.698 16.7 554.94 16.476C555.192 16.252 555.491 16.0793 555.836 15.958C556.191 15.8367 556.592 15.776 557.04 15.776V17.008H556.606C556.308 17.008 556.023 17.05 555.752 17.134C555.482 17.2087 555.239 17.3347 555.024 17.512C554.819 17.6893 554.656 17.932 554.534 18.24C554.422 18.5387 554.366 18.912 554.366 19.36V23H553.19ZM558.274 23V15.944H559.338L559.394 17.176C559.618 16.7373 559.935 16.3967 560.346 16.154C560.766 15.902 561.242 15.776 561.774 15.776C562.325 15.776 562.801 15.888 563.202 16.112C563.603 16.3267 563.916 16.658 564.14 17.106C564.364 17.5447 564.476 18.1047 564.476 18.786V23H563.3V18.912C563.3 18.2027 563.141 17.6707 562.824 17.316C562.516 16.9613 562.077 16.784 561.508 16.784C561.116 16.784 560.766 16.882 560.458 17.078C560.15 17.2647 559.903 17.54 559.716 17.904C559.539 18.2587 559.45 18.702 559.45 19.234V23H558.274ZM572.608 23C572.188 23 571.824 22.9347 571.516 22.804C571.208 22.6733 570.97 22.454 570.802 22.146C570.643 21.8287 570.564 21.404 570.564 20.872V16.938H569.332V15.944H570.564L570.718 14.236H571.74V15.944H573.784V16.938H571.74V20.872C571.74 21.3107 571.828 21.6093 572.006 21.768C572.183 21.9173 572.496 21.992 572.944 21.992H573.7V23H572.608ZM578.123 23.168C577.46 23.168 576.872 23.014 576.359 22.706C575.855 22.398 575.458 21.9687 575.169 21.418C574.879 20.858 574.735 20.2093 574.735 19.472C574.735 18.7253 574.875 18.0767 575.155 17.526C575.444 16.9753 575.845 16.546 576.359 16.238C576.881 15.93 577.479 15.776 578.151 15.776C578.841 15.776 579.425 15.93 579.901 16.238C580.386 16.546 580.755 16.952 581.007 17.456C581.268 17.9507 581.399 18.4967 581.399 19.094C581.399 19.1873 581.399 19.2853 581.399 19.388C581.399 19.4907 581.394 19.6073 581.385 19.738H575.617V18.828H580.251C580.223 18.184 580.008 17.68 579.607 17.316C579.215 16.952 578.72 16.77 578.123 16.77C577.721 16.77 577.348 16.8633 577.003 17.05C576.667 17.2273 576.396 17.4933 576.191 17.848C575.985 18.1933 575.883 18.6273 575.883 19.15V19.542C575.883 20.1207 575.985 20.606 576.191 20.998C576.405 21.39 576.681 21.684 577.017 21.88C577.362 22.076 577.731 22.174 578.123 22.174C578.617 22.174 579.023 22.0667 579.341 21.852C579.667 21.628 579.901 21.3293 580.041 20.956H581.203C581.091 21.376 580.895 21.754 580.615 22.09C580.335 22.426 579.985 22.692 579.565 22.888C579.154 23.0747 578.673 23.168 578.123 23.168ZM585.184 23.168C584.614 23.168 584.138 23.07 583.756 22.874C583.373 22.6687 583.088 22.4027 582.902 22.076C582.715 21.74 582.622 21.376 582.622 20.984C582.622 20.508 582.743 20.1067 582.986 19.78C583.238 19.444 583.588 19.192 584.036 19.024C584.493 18.8467 585.03 18.758 585.646 18.758H587.508C587.508 18.3193 587.438 17.9553 587.298 17.666C587.167 17.3673 586.971 17.1433 586.71 16.994C586.458 16.8447 586.14 16.77 585.758 16.77C585.31 16.77 584.922 16.882 584.596 17.106C584.269 17.33 584.068 17.6613 583.994 18.1H582.79C582.846 17.596 583.014 17.176 583.294 16.84C583.583 16.4947 583.947 16.2333 584.386 16.056C584.824 15.8693 585.282 15.776 585.758 15.776C586.411 15.776 586.952 15.8973 587.382 16.14C587.82 16.3733 588.147 16.7047 588.362 17.134C588.576 17.554 588.684 18.0533 588.684 18.632V23H587.634L587.564 21.754C587.47 21.95 587.349 22.1367 587.2 22.314C587.06 22.482 586.892 22.6313 586.696 22.762C586.5 22.8833 586.276 22.9813 586.024 23.056C585.781 23.1307 585.501 23.168 585.184 23.168ZM585.366 22.174C585.692 22.174 585.986 22.1087 586.248 21.978C586.518 21.838 586.747 21.6513 586.934 21.418C587.12 21.1753 587.26 20.9093 587.354 20.62C587.456 20.3307 587.508 20.0273 587.508 19.71V19.668H585.744C585.286 19.668 584.918 19.724 584.638 19.836C584.358 19.9387 584.157 20.088 584.036 20.284C583.914 20.4707 583.854 20.6853 583.854 20.928C583.854 21.18 583.91 21.3993 584.022 21.586C584.143 21.7727 584.316 21.9173 584.54 22.02C584.773 22.1227 585.048 22.174 585.366 22.174ZM590.405 23V15.944H591.469L591.539 16.952C591.763 16.588 592.062 16.3033 592.435 16.098C592.818 15.8833 593.233 15.776 593.681 15.776C594.045 15.776 594.372 15.8273 594.661 15.93C594.96 16.0233 595.221 16.1727 595.445 16.378C595.669 16.574 595.851 16.826 595.991 17.134C596.234 16.7047 596.565 16.3733 596.985 16.14C597.414 15.8973 597.872 15.776 598.357 15.776C598.898 15.776 599.37 15.888 599.771 16.112C600.182 16.3267 600.494 16.658 600.709 17.106C600.933 17.5447 601.045 18.1047 601.045 18.786V23H599.883V18.912C599.883 18.2027 599.738 17.6707 599.449 17.316C599.16 16.9613 598.754 16.784 598.231 16.784C597.867 16.784 597.54 16.882 597.251 17.078C596.962 17.2647 596.733 17.54 596.565 17.904C596.397 18.268 596.313 18.716 596.313 19.248V23H595.137V18.912C595.137 18.2027 594.992 17.6707 594.703 17.316C594.414 16.9613 594.003 16.784 593.471 16.784C593.116 16.784 592.794 16.882 592.505 17.078C592.225 17.2647 592.001 17.54 591.833 17.904C591.665 18.268 591.581 18.716 591.581 19.248V23H590.405ZM605.436 23.168C604.848 23.168 604.334 23.07 603.896 22.874C603.466 22.678 603.121 22.4073 602.86 22.062C602.608 21.7073 602.454 21.292 602.398 20.816H603.602C603.648 21.0587 603.746 21.2827 603.896 21.488C604.045 21.6933 604.246 21.8613 604.498 21.992C604.759 22.1133 605.076 22.174 605.45 22.174C605.776 22.174 606.047 22.1273 606.262 22.034C606.476 21.9313 606.635 21.796 606.738 21.628C606.85 21.46 606.906 21.278 606.906 21.082C606.906 20.7927 606.836 20.5733 606.696 20.424C606.565 20.2747 606.369 20.158 606.108 20.074C605.846 19.9807 605.529 19.9013 605.156 19.836C604.848 19.78 604.544 19.7053 604.246 19.612C603.947 19.5187 603.681 19.3973 603.448 19.248C603.214 19.0893 603.028 18.898 602.888 18.674C602.757 18.45 602.692 18.1747 602.692 17.848C602.692 17.4467 602.794 17.092 603 16.784C603.205 16.4667 603.499 16.2193 603.882 16.042C604.274 15.8647 604.726 15.776 605.24 15.776C605.996 15.776 606.607 15.958 607.074 16.322C607.54 16.686 607.816 17.2133 607.9 17.904H606.738C606.691 17.5493 606.537 17.274 606.276 17.078C606.024 16.8727 605.674 16.77 605.226 16.77C604.787 16.77 604.451 16.8587 604.218 17.036C603.994 17.2133 603.882 17.4467 603.882 17.736C603.882 17.9227 603.942 18.0907 604.064 18.24C604.194 18.38 604.381 18.5013 604.624 18.604C604.876 18.7067 605.184 18.7907 605.548 18.856C606.014 18.94 606.439 19.052 606.822 19.192C607.204 19.332 607.512 19.542 607.746 19.822C607.988 20.0927 608.11 20.48 608.11 20.984C608.11 21.4227 607.998 21.8053 607.774 22.132C607.559 22.4587 607.251 22.7153 606.85 22.902C606.448 23.0793 605.977 23.168 605.436 23.168Z" fill="white"/>
<path d="M27.4418 23V13.2H30.8858C31.5765 13.2 32.1458 13.312 32.5938 13.536C33.0512 13.7507 33.3918 14.0493 33.6158 14.432C33.8398 14.8053 33.9518 15.2253 33.9518 15.692C33.9518 16.196 33.8398 16.616 33.6158 16.952C33.4012 17.288 33.1165 17.5447 32.7618 17.722C32.4165 17.8993 32.0478 18.0067 31.6558 18.044L31.8518 17.904C32.2718 17.9133 32.6592 18.0253 33.0138 18.24C33.3685 18.4547 33.6485 18.744 33.8538 19.108C34.0685 19.472 34.1758 19.878 34.1758 20.326C34.1758 20.8207 34.0545 21.2733 33.8118 21.684C33.5692 22.0853 33.2098 22.4073 32.7338 22.65C32.2672 22.8833 31.6885 23 30.9978 23H27.4418ZM28.6178 22.02H30.8718C31.5345 22.02 32.0478 21.866 32.4118 21.558C32.7852 21.2407 32.9718 20.802 32.9718 20.242C32.9718 19.6913 32.7805 19.2527 32.3978 18.926C32.0245 18.59 31.5065 18.422 30.8438 18.422H28.6178V22.02ZM28.6178 17.484H30.8018C31.4365 17.484 31.9172 17.3347 32.2438 17.036C32.5798 16.7373 32.7478 16.3313 32.7478 15.818C32.7478 15.3233 32.5798 14.9267 32.2438 14.628C31.9172 14.3293 31.4225 14.18 30.7598 14.18H28.6178V17.484ZM38.2714 23.168C37.73 23.168 37.254 23.0607 36.8434 22.846C36.442 22.6313 36.1294 22.3 35.9054 21.852C35.6907 21.404 35.5834 20.844 35.5834 20.172V15.944H36.7594V20.046C36.7594 20.746 36.9134 21.2733 37.2214 21.628C37.5294 21.9827 37.9634 22.16 38.5234 22.16C38.9154 22.16 39.27 22.0667 39.5874 21.88C39.9047 21.684 40.152 21.4087 40.3294 21.054C40.516 20.69 40.6094 20.2467 40.6094 19.724V15.944H41.7854V23H40.7214L40.6514 21.768C40.4367 22.2067 40.1194 22.552 39.6994 22.804C39.2794 23.0467 38.8034 23.168 38.2714 23.168ZM46.2968 23.168C45.7088 23.168 45.1954 23.07 44.7568 22.874C44.3274 22.678 43.9821 22.4073 43.7208 22.062C43.4688 21.7073 43.3148 21.292 43.2588 20.816H44.4628C44.5094 21.0587 44.6074 21.2827 44.7568 21.488C44.9061 21.6933 45.1068 21.8613 45.3588 21.992C45.6201 22.1133 45.9374 22.174 46.3108 22.174C46.6374 22.174 46.9081 22.1273 47.1228 22.034C47.3374 21.9313 47.4961 21.796 47.5988 21.628C47.7108 21.46 47.7668 21.278 47.7668 21.082C47.7668 20.7927 47.6968 20.5733 47.5568 20.424C47.4261 20.2747 47.2301 20.158 46.9688 20.074C46.7074 19.9807 46.3901 19.9013 46.0168 19.836C45.7088 19.78 45.4054 19.7053 45.1068 19.612C44.8081 19.5187 44.5421 19.3973 44.3088 19.248C44.0754 19.0893 43.8888 18.898 43.7488 18.674C43.6181 18.45 43.5528 18.1747 43.5528 17.848C43.5528 17.4467 43.6554 17.092 43.8608 16.784C44.0661 16.4667 44.3601 16.2193 44.7428 16.042C45.1348 15.8647 45.5874 15.776 46.1008 15.776C46.8568 15.776 47.4681 15.958 47.9348 16.322C48.4014 16.686 48.6768 17.2133 48.7608 17.904H47.5988C47.5521 17.5493 47.3981 17.274 47.1368 17.078C46.8848 16.8727 46.5348 16.77 46.0868 16.77C45.6481 16.77 45.3121 16.8587 45.0788 17.036C44.8548 17.2133 44.7428 17.4467 44.7428 17.736C44.7428 17.9227 44.8034 18.0907 44.9248 18.24C45.0554 18.38 45.2421 18.5013 45.4848 18.604C45.7368 18.7067 46.0448 18.7907 46.4088 18.856C46.8754 18.94 47.3001 19.052 47.6828 19.192C48.0654 19.332 48.3734 19.542 48.6068 19.822C48.8494 20.0927 48.9708 20.48 48.9708 20.984C48.9708 21.4227 48.8588 21.8053 48.6348 22.132C48.4201 22.4587 48.1121 22.7153 47.7108 22.902C47.3094 23.0793 46.8381 23.168 46.2968 23.168ZM50.6781 23V15.944H51.8541V23H50.6781ZM51.2661 14.446C51.0328 14.446 50.8368 14.3713 50.6781 14.222C50.5288 14.0633 50.4541 13.8673 50.4541 13.634C50.4541 13.4007 50.5288 13.214 50.6781 13.074C50.8368 12.9247 51.0328 12.85 51.2661 12.85C51.4901 12.85 51.6814 12.9247 51.8401 13.074C51.9988 13.214 52.0781 13.4007 52.0781 13.634C52.0781 13.8673 51.9988 14.0633 51.8401 14.222C51.6814 14.3713 51.4901 14.446 51.2661 14.446ZM53.8314 23V15.944H54.8954L54.9514 17.176C55.1754 16.7373 55.4927 16.3967 55.9034 16.154C56.3234 15.902 56.7994 15.776 57.3314 15.776C57.8821 15.776 58.3581 15.888 58.7594 16.112C59.1607 16.3267 59.4734 16.658 59.6974 17.106C59.9214 17.5447 60.0334 18.1047 60.0334 18.786V23H58.8574V18.912C58.8574 18.2027 58.6987 17.6707 58.3814 17.316C58.0734 16.9613 57.6347 16.784 57.0654 16.784C56.6734 16.784 56.3234 16.882 56.0154 17.078C55.7074 17.2647 55.4601 17.54 55.2734 17.904C55.0961 18.2587 55.0074 18.702 55.0074 19.234V23H53.8314ZM64.8665 23.168C64.2038 23.168 63.6158 23.014 63.1025 22.706C62.5985 22.398 62.2018 21.9687 61.9125 21.418C61.6231 20.858 61.4784 20.2093 61.4784 19.472C61.4784 18.7253 61.6184 18.0767 61.8985 17.526C62.1878 16.9753 62.5891 16.546 63.1025 16.238C63.6251 15.93 64.2225 15.776 64.8945 15.776C65.5851 15.776 66.1685 15.93 66.6445 16.238C67.1298 16.546 67.4985 16.952 67.7505 17.456C68.0118 17.9507 68.1425 18.4967 68.1425 19.094C68.1425 19.1873 68.1425 19.2853 68.1425 19.388C68.1425 19.4907 68.1378 19.6073 68.1285 19.738H62.3604V18.828H66.9945C66.9665 18.184 66.7518 17.68 66.3505 17.316C65.9585 16.952 65.4638 16.77 64.8665 16.77C64.4651 16.77 64.0918 16.8633 63.7465 17.05C63.4105 17.2273 63.1398 17.4933 62.9345 17.848C62.7291 18.1933 62.6265 18.6273 62.6265 19.15V19.542C62.6265 20.1207 62.7291 20.606 62.9345 20.998C63.1491 21.39 63.4245 21.684 63.7605 21.88C64.1058 22.076 64.4745 22.174 64.8665 22.174C65.3611 22.174 65.7671 22.0667 66.0845 21.852C66.4111 21.628 66.6445 21.3293 66.7845 20.956H67.9465C67.8345 21.376 67.6385 21.754 67.3585 22.09C67.0785 22.426 66.7285 22.692 66.3085 22.888C65.8978 23.0747 65.4171 23.168 64.8665 23.168ZM72.2915 23.168C71.7035 23.168 71.1901 23.07 70.7515 22.874C70.3221 22.678 69.9768 22.4073 69.7155 22.062C69.4635 21.7073 69.3095 21.292 69.2535 20.816H70.4575C70.5041 21.0587 70.6021 21.2827 70.7515 21.488C70.9008 21.6933 71.1015 21.8613 71.3535 21.992C71.6148 22.1133 71.9321 22.174 72.3055 22.174C72.6321 22.174 72.9028 22.1273 73.1175 22.034C73.3321 21.9313 73.4908 21.796 73.5935 21.628C73.7055 21.46 73.7615 21.278 73.7615 21.082C73.7615 20.7927 73.6915 20.5733 73.5515 20.424C73.4208 20.2747 73.2248 20.158 72.9635 20.074C72.7021 19.9807 72.3848 19.9013 72.0115 19.836C71.7035 19.78 71.4001 19.7053 71.1015 19.612C70.8028 19.5187 70.5368 19.3973 70.3035 19.248C70.0701 19.0893 69.8835 18.898 69.7435 18.674C69.6128 18.45 69.5475 18.1747 69.5475 17.848C69.5475 17.4467 69.6501 17.092 69.8555 16.784C70.0608 16.4667 70.3548 16.2193 70.7375 16.042C71.1295 15.8647 71.5821 15.776 72.0955 15.776C72.8515 15.776 73.4628 15.958 73.9295 16.322C74.3961 16.686 74.6715 17.2133 74.7555 17.904H73.5935C73.5468 17.5493 73.3928 17.274 73.1315 17.078C72.8795 16.8727 72.5295 16.77 72.0815 16.77C71.6428 16.77 71.3068 16.8587 71.0735 17.036C70.8495 17.2133 70.7375 17.4467 70.7375 17.736C70.7375 17.9227 70.7981 18.0907 70.9195 18.24C71.0501 18.38 71.2368 18.5013 71.4795 18.604C71.7315 18.7067 72.0395 18.7907 72.4035 18.856C72.8701 18.94 73.2948 19.052 73.6775 19.192C74.0601 19.332 74.3681 19.542 74.6015 19.822C74.8441 20.0927 74.9655 20.48 74.9655 20.984C74.9655 21.4227 74.8535 21.8053 74.6295 22.132C74.4148 22.4587 74.1068 22.7153 73.7055 22.902C73.3041 23.0793 72.8328 23.168 72.2915 23.168ZM79.2208 23.168C78.6328 23.168 78.1195 23.07 77.6808 22.874C77.2515 22.678 76.9062 22.4073 76.6448 22.062C76.3928 21.7073 76.2388 21.292 76.1828 20.816H77.3868C77.4335 21.0587 77.5315 21.2827 77.6808 21.488C77.8302 21.6933 78.0308 21.8613 78.2828 21.992C78.5442 22.1133 78.8615 22.174 79.2348 22.174C79.5615 22.174 79.8322 22.1273 80.0468 22.034C80.2615 21.9313 80.4202 21.796 80.5228 21.628C80.6348 21.46 80.6908 21.278 80.6908 21.082C80.6908 20.7927 80.6208 20.5733 80.4808 20.424C80.3502 20.2747 80.1542 20.158 79.8928 20.074C79.6315 19.9807 79.3142 19.9013 78.9408 19.836C78.6328 19.78 78.3295 19.7053 78.0308 19.612C77.7322 19.5187 77.4662 19.3973 77.2328 19.248C76.9995 19.0893 76.8128 18.898 76.6728 18.674C76.5422 18.45 76.4768 18.1747 76.4768 17.848C76.4768 17.4467 76.5795 17.092 76.7848 16.784C76.9902 16.4667 77.2842 16.2193 77.6668 16.042C78.0588 15.8647 78.5115 15.776 79.0248 15.776C79.7808 15.776 80.3922 15.958 80.8588 16.322C81.3255 16.686 81.6008 17.2133 81.6848 17.904H80.5228C80.4762 17.5493 80.3222 17.274 80.0608 17.078C79.8088 16.8727 79.4588 16.77 79.0108 16.77C78.5722 16.77 78.2362 16.8587 78.0028 17.036C77.7788 17.2133 77.6668 17.4467 77.6668 17.736C77.6668 17.9227 77.7275 18.0907 77.8488 18.24C77.9795 18.38 78.1662 18.5013 78.4088 18.604C78.6608 18.7067 78.9688 18.7907 79.3328 18.856C79.7995 18.94 80.2242 19.052 80.6068 19.192C80.9895 19.332 81.2975 19.542 81.5308 19.822C81.7735 20.0927 81.8948 20.48 81.8948 20.984C81.8948 21.4227 81.7828 21.8053 81.5588 22.132C81.3442 22.4587 81.0362 22.7153 80.6348 22.902C80.2335 23.0793 79.7622 23.168 79.2208 23.168Z" fill="white"/>
<path d="M137.312 22.168C136.36 22.168 135.534 21.958 134.834 21.538C134.143 21.1087 133.611 20.516 133.238 19.76C132.864 18.9947 132.678 18.108 132.678 17.1C132.678 16.092 132.864 15.21 133.238 14.454C133.611 13.6887 134.143 13.096 134.834 12.676C135.534 12.2467 136.36 12.032 137.312 12.032C138.432 12.032 139.342 12.298 140.042 12.83C140.742 13.362 141.19 14.1133 141.386 15.084H140.084C139.934 14.4773 139.631 13.992 139.174 13.628C138.716 13.2547 138.096 13.068 137.312 13.068C136.612 13.068 136.005 13.2313 135.492 13.558C134.978 13.8753 134.582 14.3373 134.302 14.944C134.022 15.5413 133.882 16.26 133.882 17.1C133.882 17.94 134.022 18.6633 134.302 19.27C134.582 19.8673 134.978 20.3293 135.492 20.656C136.005 20.9733 136.612 21.132 137.312 21.132C138.096 21.132 138.716 20.9547 139.174 20.6C139.631 20.236 139.934 19.7553 140.084 19.158H141.386C141.19 20.1007 140.742 20.838 140.042 21.37C139.342 21.902 138.432 22.168 137.312 22.168ZM142.923 22V11.92H144.099V22H142.923ZM149.092 22.168C148.439 22.168 147.851 22.0187 147.328 21.72C146.805 21.412 146.395 20.9827 146.096 20.432C145.797 19.872 145.648 19.2233 145.648 18.486C145.648 17.73 145.797 17.0767 146.096 16.526C146.404 15.966 146.819 15.5367 147.342 15.238C147.874 14.93 148.467 14.776 149.12 14.776C149.792 14.776 150.385 14.93 150.898 15.238C151.421 15.5367 151.831 15.966 152.13 16.526C152.438 17.0767 152.592 17.7253 152.592 18.472C152.592 19.2187 152.438 19.872 152.13 20.432C151.822 20.9827 151.407 21.412 150.884 21.72C150.361 22.0187 149.764 22.168 149.092 22.168ZM149.106 21.16C149.507 21.16 149.881 21.062 150.226 20.866C150.571 20.6607 150.851 20.3573 151.066 19.956C151.281 19.5547 151.388 19.06 151.388 18.472C151.388 17.8747 151.281 17.38 151.066 16.988C150.861 16.5867 150.585 16.288 150.24 16.092C149.904 15.8867 149.531 15.784 149.12 15.784C148.728 15.784 148.355 15.8867 148 16.092C147.655 16.288 147.375 16.5867 147.16 16.988C146.955 17.38 146.852 17.8747 146.852 18.472C146.852 19.06 146.955 19.5547 147.16 19.956C147.375 20.3573 147.65 20.6607 147.986 20.866C148.331 21.062 148.705 21.16 149.106 21.16ZM156.705 22.168C156.163 22.168 155.687 22.0607 155.277 21.846C154.875 21.6313 154.563 21.3 154.339 20.852C154.124 20.404 154.017 19.844 154.017 19.172V14.944H155.193V19.046C155.193 19.746 155.347 20.2733 155.655 20.628C155.963 20.9827 156.397 21.16 156.957 21.16C157.349 21.16 157.703 21.0667 158.021 20.88C158.338 20.684 158.585 20.4087 158.763 20.054C158.949 19.69 159.043 19.2467 159.043 18.724V14.944H160.219V22H159.155L159.085 20.768C158.87 21.2067 158.553 21.552 158.133 21.804C157.713 22.0467 157.237 22.168 156.705 22.168ZM165.178 22.168C164.497 22.168 163.9 22.0093 163.386 21.692C162.873 21.3653 162.476 20.922 162.196 20.362C161.916 19.802 161.776 19.1673 161.776 18.458C161.776 17.7487 161.916 17.1187 162.196 16.568C162.476 16.008 162.873 15.5693 163.386 15.252C163.909 14.9347 164.511 14.776 165.192 14.776C165.771 14.776 166.275 14.8927 166.704 15.126C167.143 15.3593 167.479 15.686 167.712 16.106V11.92H168.888V22H167.824L167.726 20.838C167.577 21.0713 167.386 21.2907 167.152 21.496C166.919 21.692 166.639 21.8553 166.312 21.986C165.986 22.1073 165.608 22.168 165.178 22.168ZM165.318 21.146C165.785 21.146 166.196 21.034 166.55 20.81C166.905 20.586 167.18 20.278 167.376 19.886C167.572 19.4847 167.67 19.0133 167.67 18.472C167.67 17.94 167.572 17.4733 167.376 17.072C167.18 16.6707 166.905 16.358 166.55 16.134C166.196 15.91 165.785 15.798 165.318 15.798C164.861 15.798 164.455 15.91 164.1 16.134C163.746 16.358 163.47 16.6707 163.274 17.072C163.078 17.4733 162.98 17.94 162.98 18.472C162.98 19.0133 163.078 19.4847 163.274 19.886C163.47 20.278 163.746 20.586 164.1 20.81C164.455 21.034 164.861 21.146 165.318 21.146ZM170.778 18.36V17.366H176.322V18.36H170.778ZM181.922 22.168C181.52 22.168 181.156 22.112 180.83 22C180.512 21.8787 180.232 21.72 179.99 21.524C179.747 21.328 179.546 21.0993 179.388 20.838L179.29 22H178.226V11.92H179.402V16.106C179.626 15.742 179.948 15.4293 180.368 15.168C180.788 14.9067 181.306 14.776 181.922 14.776C182.603 14.776 183.2 14.9393 183.714 15.266C184.227 15.5833 184.624 16.022 184.904 16.582C185.193 17.1327 185.338 17.7627 185.338 18.472C185.338 19.1813 185.193 19.816 184.904 20.376C184.624 20.936 184.227 21.3747 183.714 21.692C183.2 22.0093 182.603 22.168 181.922 22.168ZM181.782 21.146C182.239 21.146 182.645 21.034 183 20.81C183.354 20.586 183.63 20.278 183.826 19.886C184.031 19.4847 184.134 19.0133 184.134 18.472C184.134 17.94 184.031 17.4733 183.826 17.072C183.63 16.6707 183.354 16.358 183 16.134C182.645 15.91 182.239 15.798 181.782 15.798C181.315 15.798 180.904 15.91 180.55 16.134C180.195 16.358 179.92 16.6707 179.724 17.072C179.528 17.4733 179.43 17.94 179.43 18.472C179.43 19.0133 179.528 19.4847 179.724 19.886C179.92 20.278 180.195 20.586 180.55 20.81C180.904 21.034 181.315 21.146 181.782 21.146ZM189.187 22.168C188.618 22.168 188.142 22.07 187.759 21.874C187.377 21.6687 187.092 21.4027 186.905 21.076C186.719 20.74 186.625 20.376 186.625 19.984C186.625 19.508 186.747 19.1067 186.989 18.78C187.241 18.444 187.591 18.192 188.039 18.024C188.497 17.8467 189.033 17.758 189.649 17.758H191.511C191.511 17.3193 191.441 16.9553 191.301 16.666C191.171 16.3673 190.975 16.1433 190.713 15.994C190.461 15.8447 190.144 15.77 189.761 15.77C189.313 15.77 188.926 15.882 188.599 16.106C188.273 16.33 188.072 16.6613 187.997 17.1H186.793C186.849 16.596 187.017 16.176 187.297 15.84C187.587 15.4947 187.951 15.2333 188.389 15.056C188.828 14.8693 189.285 14.776 189.761 14.776C190.415 14.776 190.956 14.8973 191.385 15.14C191.824 15.3733 192.151 15.7047 192.365 16.134C192.58 16.554 192.687 17.0533 192.687 17.632V22H191.637L191.567 20.754C191.474 20.95 191.353 21.1367 191.203 21.314C191.063 21.482 190.895 21.6313 190.699 21.762C190.503 21.8833 190.279 21.9813 190.027 22.056C189.785 22.1307 189.505 22.168 189.187 22.168ZM189.369 21.174C189.696 21.174 189.99 21.1087 190.251 20.978C190.522 20.838 190.751 20.6513 190.937 20.418C191.124 20.1753 191.264 19.9093 191.357 19.62C191.46 19.3307 191.511 19.0273 191.511 18.71V18.668H189.747C189.29 18.668 188.921 18.724 188.641 18.836C188.361 18.9387 188.161 19.088 188.039 19.284C187.918 19.4707 187.857 19.6853 187.857 19.928C187.857 20.18 187.913 20.3993 188.025 20.586C188.147 20.7727 188.319 20.9173 188.543 21.02C188.777 21.1227 189.052 21.174 189.369 21.174ZM197.069 22.168C196.481 22.168 195.967 22.07 195.529 21.874C195.099 21.678 194.754 21.4073 194.493 21.062C194.241 20.7073 194.087 20.292 194.031 19.816H195.235C195.281 20.0587 195.379 20.2827 195.529 20.488C195.678 20.6933 195.879 20.8613 196.131 20.992C196.392 21.1133 196.709 21.174 197.083 21.174C197.409 21.174 197.68 21.1273 197.895 21.034C198.109 20.9313 198.268 20.796 198.371 20.628C198.483 20.46 198.539 20.278 198.539 20.082C198.539 19.7927 198.469 19.5733 198.329 19.424C198.198 19.2747 198.002 19.158 197.741 19.074C197.479 18.9807 197.162 18.9013 196.789 18.836C196.481 18.78 196.177 18.7053 195.879 18.612C195.58 18.5187 195.314 18.3973 195.081 18.248C194.847 18.0893 194.661 17.898 194.521 17.674C194.39 17.45 194.325 17.1747 194.325 16.848C194.325 16.4467 194.427 16.092 194.633 15.784C194.838 15.4667 195.132 15.2193 195.515 15.042C195.907 14.8647 196.359 14.776 196.873 14.776C197.629 14.776 198.24 14.958 198.707 15.322C199.173 15.686 199.449 16.2133 199.533 16.904H198.371C198.324 16.5493 198.17 16.274 197.909 16.078C197.657 15.8727 197.307 15.77 196.859 15.77C196.42 15.77 196.084 15.8587 195.851 16.036C195.627 16.2133 195.515 16.4467 195.515 16.736C195.515 16.9227 195.575 17.0907 195.697 17.24C195.827 17.38 196.014 17.5013 196.257 17.604C196.509 17.7067 196.817 17.7907 197.181 17.856C197.647 17.94 198.072 18.052 198.455 18.192C198.837 18.332 199.145 18.542 199.379 18.822C199.621 19.0927 199.743 19.48 199.743 19.984C199.743 20.4227 199.631 20.8053 199.407 21.132C199.192 21.4587 198.884 21.7153 198.483 21.902C198.081 22.0793 197.61 22.168 197.069 22.168ZM204.432 22.168C203.769 22.168 203.181 22.014 202.668 21.706C202.164 21.398 201.767 20.9687 201.478 20.418C201.189 19.858 201.044 19.2093 201.044 18.472C201.044 17.7253 201.184 17.0767 201.464 16.526C201.753 15.9753 202.155 15.546 202.668 15.238C203.191 14.93 203.788 14.776 204.46 14.776C205.151 14.776 205.734 14.93 206.21 15.238C206.695 15.546 207.064 15.952 207.316 16.456C207.577 16.9507 207.708 17.4967 207.708 18.094C207.708 18.1873 207.708 18.2853 207.708 18.388C207.708 18.4907 207.703 18.6073 207.694 18.738H201.926V17.828H206.56C206.532 17.184 206.317 16.68 205.916 16.316C205.524 15.952 205.029 15.77 204.432 15.77C204.031 15.77 203.657 15.8633 203.312 16.05C202.976 16.2273 202.705 16.4933 202.5 16.848C202.295 17.1933 202.192 17.6273 202.192 18.15V18.542C202.192 19.1207 202.295 19.606 202.5 19.998C202.715 20.39 202.99 20.684 203.326 20.88C203.671 21.076 204.04 21.174 204.432 21.174C204.927 21.174 205.333 21.0667 205.65 20.852C205.977 20.628 206.21 20.3293 206.35 19.956H207.512C207.4 20.376 207.204 20.754 206.924 21.09C206.644 21.426 206.294 21.692 205.874 21.888C205.463 22.0747 204.983 22.168 204.432 22.168ZM212.305 22.168C211.624 22.168 211.026 22.0093 210.513 21.692C210 21.3653 209.603 20.922 209.323 20.362C209.043 19.802 208.903 19.1673 208.903 18.458C208.903 17.7487 209.043 17.1187 209.323 16.568C209.603 16.008 210 15.5693 210.513 15.252C211.036 14.9347 211.638 14.776 212.319 14.776C212.898 14.776 213.402 14.8927 213.831 15.126C214.27 15.3593 214.606 15.686 214.839 16.106V11.92H216.015V22H214.951L214.853 20.838C214.704 21.0713 214.512 21.2907 214.279 21.496C214.046 21.692 213.766 21.8553 213.439 21.986C213.112 22.1073 212.734 22.168 212.305 22.168ZM212.445 21.146C212.912 21.146 213.322 21.034 213.677 20.81C214.032 20.586 214.307 20.278 214.503 19.886C214.699 19.4847 214.797 19.0133 214.797 18.472C214.797 17.94 214.699 17.4733 214.503 17.072C214.307 16.6707 214.032 16.358 213.677 16.134C213.322 15.91 212.912 15.798 212.445 15.798C211.988 15.798 211.582 15.91 211.227 16.134C210.872 16.358 210.597 16.6707 210.401 17.072C210.205 17.4733 210.107 17.94 210.107 18.472C210.107 19.0133 210.205 19.4847 210.401 19.886C210.597 20.278 210.872 20.586 211.227 20.81C211.582 21.034 211.988 21.146 212.445 21.146Z" fill="#AEB9E1"/>
<path d="M269.067 23V13.2H270.243V23H269.067ZM272.181 23V15.944H273.245L273.301 17.176C273.525 16.7373 273.842 16.3967 274.253 16.154C274.673 15.902 275.149 15.776 275.681 15.776C276.231 15.776 276.707 15.888 277.109 16.112C277.51 16.3267 277.823 16.658 278.047 17.106C278.271 17.5447 278.383 18.1047 278.383 18.786V23H277.207V18.912C277.207 18.2027 277.048 17.6707 276.731 17.316C276.423 16.9613 275.984 16.784 275.415 16.784C275.023 16.784 274.673 16.882 274.365 17.078C274.057 17.2647 273.809 17.54 273.623 17.904C273.445 18.2587 273.357 18.702 273.357 19.234V23H272.181ZM282.894 23C282.474 23 282.11 22.9347 281.802 22.804C281.494 22.6733 281.256 22.454 281.088 22.146C280.929 21.8287 280.85 21.404 280.85 20.872V16.938H279.618V15.944H280.85L281.004 14.236H282.026V15.944H284.07V16.938H282.026V20.872C282.026 21.3107 282.114 21.6093 282.292 21.768C282.469 21.9173 282.782 21.992 283.23 21.992H283.986V23H282.894ZM288.409 23.168C287.746 23.168 287.158 23.014 286.645 22.706C286.141 22.398 285.744 21.9687 285.455 21.418C285.165 20.858 285.021 20.2093 285.021 19.472C285.021 18.7253 285.161 18.0767 285.441 17.526C285.73 16.9753 286.131 16.546 286.645 16.238C287.167 15.93 287.765 15.776 288.437 15.776C289.127 15.776 289.711 15.93 290.187 16.238C290.672 16.546 291.041 16.952 291.293 17.456C291.554 17.9507 291.685 18.4967 291.685 19.094C291.685 19.1873 291.685 19.2853 291.685 19.388C291.685 19.4907 291.68 19.6073 291.671 19.738H285.903V18.828H290.537C290.509 18.184 290.294 17.68 289.893 17.316C289.501 16.952 289.006 16.77 288.409 16.77C288.007 16.77 287.634 16.8633 287.289 17.05C286.953 17.2273 286.682 17.4933 286.477 17.848C286.271 18.1933 286.169 18.6273 286.169 19.15V19.542C286.169 20.1207 286.271 20.606 286.477 20.998C286.691 21.39 286.967 21.684 287.303 21.88C287.648 22.076 288.017 22.174 288.409 22.174C288.903 22.174 289.309 22.0667 289.627 21.852C289.953 21.628 290.187 21.3293 290.327 20.956H291.489C291.377 21.376 291.181 21.754 290.901 22.09C290.621 22.426 290.271 22.692 289.851 22.888C289.44 23.0747 288.959 23.168 288.409 23.168ZM293.174 23V12.92H294.35V23H293.174ZM296.193 23V12.92H297.369V23H296.193ZM299.324 23V15.944H300.5V23H299.324ZM299.912 14.446C299.679 14.446 299.483 14.3713 299.324 14.222C299.175 14.0633 299.1 13.8673 299.1 13.634C299.1 13.4007 299.175 13.214 299.324 13.074C299.483 12.9247 299.679 12.85 299.912 12.85C300.136 12.85 300.327 12.9247 300.486 13.074C300.645 13.214 300.724 13.4007 300.724 13.634C300.724 13.8673 300.645 14.0633 300.486 14.222C300.327 14.3713 300.136 14.446 299.912 14.446ZM305.263 26.248C304.629 26.248 304.064 26.164 303.569 25.996C303.084 25.8373 302.706 25.59 302.435 25.254C302.165 24.918 302.029 24.5027 302.029 24.008C302.029 23.7933 302.071 23.5647 302.155 23.322C302.249 23.0793 302.403 22.8413 302.617 22.608C302.841 22.3747 303.154 22.1647 303.555 21.978L304.367 22.454C303.873 22.6593 303.551 22.8927 303.401 23.154C303.252 23.4247 303.177 23.672 303.177 23.896C303.177 24.204 303.266 24.4607 303.443 24.666C303.621 24.8713 303.868 25.0253 304.185 25.128C304.503 25.2307 304.862 25.282 305.263 25.282C305.665 25.282 306.01 25.226 306.299 25.114C306.589 25.002 306.813 24.8433 306.971 24.638C307.13 24.4327 307.209 24.19 307.209 23.91C307.209 23.5833 307.088 23.308 306.845 23.084C306.603 22.8693 306.141 22.7433 305.459 22.706C304.909 22.6687 304.447 22.6173 304.073 22.552C303.7 22.4867 303.392 22.412 303.149 22.328C302.907 22.2347 302.701 22.132 302.533 22.02C302.375 21.908 302.23 21.7913 302.099 21.67V21.348L303.457 20.004L304.479 20.368L303.079 21.628L303.261 21.138C303.364 21.2127 303.462 21.2827 303.555 21.348C303.649 21.4133 303.775 21.4693 303.933 21.516C304.092 21.5627 304.311 21.6047 304.591 21.642C304.881 21.6793 305.259 21.7167 305.725 21.754C306.369 21.8007 306.883 21.9127 307.265 22.09C307.657 22.2673 307.937 22.5053 308.105 22.804C308.283 23.1027 308.371 23.4573 308.371 23.868C308.371 24.2693 308.259 24.6473 308.035 25.002C307.821 25.366 307.485 25.6647 307.027 25.898C306.57 26.1313 305.982 26.248 305.263 26.248ZM305.249 20.788C304.661 20.788 304.157 20.676 303.737 20.452C303.327 20.228 303.014 19.9293 302.799 19.556C302.585 19.1733 302.477 18.7487 302.477 18.282C302.477 17.8153 302.585 17.3953 302.799 17.022C303.023 16.6487 303.341 16.35 303.751 16.126C304.162 15.8927 304.661 15.776 305.249 15.776C305.837 15.776 306.337 15.8927 306.747 16.126C307.158 16.35 307.471 16.6487 307.685 17.022C307.9 17.3953 308.007 17.8153 308.007 18.282C308.007 18.7487 307.9 19.1733 307.685 19.556C307.471 19.9293 307.158 20.228 306.747 20.452C306.337 20.676 305.837 20.788 305.249 20.788ZM305.249 19.822C305.753 19.822 306.15 19.6913 306.439 19.43C306.729 19.1687 306.873 18.786 306.873 18.282C306.873 17.7873 306.729 17.4093 306.439 17.148C306.15 16.8867 305.753 16.756 305.249 16.756C304.755 16.756 304.353 16.8867 304.045 17.148C303.747 17.4093 303.597 17.7873 303.597 18.282C303.597 18.786 303.747 19.1687 304.045 19.43C304.344 19.6913 304.745 19.822 305.249 19.822ZM306.397 16.938L306.047 15.944H308.931V16.826L306.397 16.938ZM313.007 23.168C312.344 23.168 311.756 23.014 311.243 22.706C310.739 22.398 310.342 21.9687 310.053 21.418C309.763 20.858 309.619 20.2093 309.619 19.472C309.619 18.7253 309.759 18.0767 310.039 17.526C310.328 16.9753 310.729 16.546 311.243 16.238C311.765 15.93 312.363 15.776 313.035 15.776C313.725 15.776 314.309 15.93 314.785 16.238C315.27 16.546 315.639 16.952 315.891 17.456C316.152 17.9507 316.283 18.4967 316.283 19.094C316.283 19.1873 316.283 19.2853 316.283 19.388C316.283 19.4907 316.278 19.6073 316.269 19.738H310.501V18.828H315.135C315.107 18.184 314.892 17.68 314.491 17.316C314.099 16.952 313.604 16.77 313.007 16.77C312.605 16.77 312.232 16.8633 311.887 17.05C311.551 17.2273 311.28 17.4933 311.075 17.848C310.869 18.1933 310.767 18.6273 310.767 19.15V19.542C310.767 20.1207 310.869 20.606 311.075 20.998C311.289 21.39 311.565 21.684 311.901 21.88C312.246 22.076 312.615 22.174 313.007 22.174C313.501 22.174 313.907 22.0667 314.225 21.852C314.551 21.628 314.785 21.3293 314.925 20.956H316.087C315.975 21.376 315.779 21.754 315.499 22.09C315.219 22.426 314.869 22.692 314.449 22.888C314.038 23.0747 313.557 23.168 313.007 23.168ZM317.772 23V15.944H318.836L318.892 17.176C319.116 16.7373 319.433 16.3967 319.844 16.154C320.264 15.902 320.74 15.776 321.272 15.776C321.822 15.776 322.298 15.888 322.7 16.112C323.101 16.3267 323.414 16.658 323.638 17.106C323.862 17.5447 323.974 18.1047 323.974 18.786V23H322.798V18.912C322.798 18.2027 322.639 17.6707 322.322 17.316C322.014 16.9613 321.575 16.784 321.006 16.784C320.614 16.784 320.264 16.882 319.956 17.078C319.648 17.2647 319.4 17.54 319.214 17.904C319.036 18.2587 318.948 18.702 318.948 19.234V23H317.772ZM328.891 23.168C328.228 23.168 327.631 23.014 327.099 22.706C326.576 22.398 326.165 21.9687 325.867 21.418C325.568 20.858 325.419 20.214 325.419 19.486C325.419 18.7393 325.568 18.0907 325.867 17.54C326.165 16.9893 326.576 16.56 327.099 16.252C327.631 15.9347 328.228 15.776 328.891 15.776C329.731 15.776 330.431 15.9953 330.991 16.434C331.551 16.8633 331.905 17.442 332.055 18.17H330.851C330.757 17.7313 330.529 17.3907 330.165 17.148C329.801 16.9053 329.371 16.784 328.877 16.784C328.475 16.784 328.102 16.8867 327.757 17.092C327.411 17.288 327.136 17.5867 326.931 17.988C326.725 18.3893 326.623 18.884 326.623 19.472C326.623 19.9107 326.683 20.3027 326.805 20.648C326.926 20.984 327.089 21.264 327.295 21.488C327.5 21.712 327.738 21.8847 328.009 22.006C328.289 22.118 328.578 22.174 328.877 22.174C329.213 22.174 329.516 22.1227 329.787 22.02C330.057 21.908 330.286 21.7447 330.473 21.53C330.659 21.3153 330.785 21.0633 330.851 20.774H332.055C331.905 21.4833 331.546 22.062 330.977 22.51C330.417 22.9487 329.721 23.168 328.891 23.168ZM336.72 23.168C336.058 23.168 335.47 23.014 334.956 22.706C334.452 22.398 334.056 21.9687 333.766 21.418C333.477 20.858 333.332 20.2093 333.332 19.472C333.332 18.7253 333.472 18.0767 333.752 17.526C334.042 16.9753 334.443 16.546 334.956 16.238C335.479 15.93 336.076 15.776 336.748 15.776C337.439 15.776 338.022 15.93 338.498 16.238C338.984 16.546 339.352 16.952 339.604 17.456C339.866 17.9507 339.996 18.4967 339.996 19.094C339.996 19.1873 339.996 19.2853 339.996 19.388C339.996 19.4907 339.992 19.6073 339.982 19.738H334.214V18.828H338.848C338.82 18.184 338.606 17.68 338.204 17.316C337.812 16.952 337.318 16.77 336.72 16.77C336.319 16.77 335.946 16.8633 335.6 17.05C335.264 17.2273 334.994 17.4933 334.788 17.848C334.583 18.1933 334.48 18.6273 334.48 19.15V19.542C334.48 20.1207 334.583 20.606 334.788 20.998C335.003 21.39 335.278 21.684 335.614 21.88C335.96 22.076 336.328 22.174 336.72 22.174C337.215 22.174 337.621 22.0667 337.938 21.852C338.265 21.628 338.498 21.3293 338.638 20.956H339.8C339.688 21.376 339.492 21.754 339.212 22.09C338.932 22.426 338.582 22.692 338.162 22.888C337.752 23.0747 337.271 23.168 336.72 23.168Z" fill="#AEB9E1"/>
</svg>
