<svg width="1920" height="1002" viewBox="0 0 1920 1002" fill="none" xmlns="http://www.w3.org/2000/svg">
<mask id="mask0_266_4340" style="mask-type:luminance" maskUnits="userSpaceOnUse" x="-3" y="-98" width="1925" height="1100">
<path d="M1921.48 1001.71H-3V-98H1921.48V1001.71Z" fill="white"/>
</mask>
<g mask="url(#mask0_266_4340)">
<g style="mix-blend-mode:multiply">
<path d="M1013.81 1105.9C987.137 1105.9 961.009 1102.4 935.978 1095.2C847.1 1069.76 776.601 1001.73 708.434 935.89C619.145 849.687 534.862 768.216 412.106 772.81C344.899 775.279 283.933 808.677 225.024 840.977C194.232 857.848 162.343 875.267 129.768 888.365C9.75586 936.37 -137.414 927.798 -263.873 865.323C-472.42 762.318 -546.211 595.946 -617.532 435.061C-654.153 352.492 -688.717 274.519 -740.014 210.809C-851.865 72.0061 -1024.41 6.92502 -1201.55 36.8253C-1378.69 66.7255 -1520.3 184.818 -1580.38 352.63L-1583.6 351.464C-1523.11 182.418 -1380.47 63.5709 -1202.1 33.4649C-1023.72 3.35895 -850.014 68.7829 -737.339 208.615C-685.699 272.735 -651.067 350.846 -614.378 433.621C-543.262 593.957 -469.745 759.78 -262.295 862.237C-136.728 924.232 9.34424 932.804 128.465 885.142C160.903 872.112 192.655 854.762 223.309 837.96C282.63 805.454 343.939 771.919 411.969 769.313C536.233 764.787 624.974 850.51 710.903 933.421C778.727 998.914 848.883 1066.67 936.869 1091.91C1055.72 1125.92 1199.46 1075.93 1303.22 964.556C1395.45 865.529 1448.88 736.601 1500.52 611.925L1501.68 609.045C1623.61 314.706 1697.61 255.797 1783.33 187.561C1816.32 161.364 1850.34 134.275 1889.49 91.8253C2006.49 -35.1136 2044.82 -229.122 1984.89 -391.036L1988.11 -392.202C2048.53 -229.122 2009.85 -33.6735 1892.03 94.157C1852.74 136.813 1818.58 163.97 1785.53 190.304C1700.15 258.197 1626.5 316.9 1504.91 610.416L1503.67 613.228C1451.96 738.178 1398.4 867.449 1305.75 966.956C1222.98 1055.77 1114.83 1105.9 1013.81 1105.9Z" fill="url(#paint0_linear_266_4340)"/>
</g>
<g style="mix-blend-mode:multiply">
<path d="M1004.28 1093.62C976.096 1093.62 948.527 1089.71 922.262 1081.69C836.264 1055.35 767.891 988.97 701.782 924.78C614.138 839.674 531.364 759.232 410.872 763.415C343.802 765.678 283.178 798.939 224.544 831.171C195.398 847.218 165.155 863.814 134.363 876.501C17.6421 924.78 -121.367 920.117 -247.003 863.608C-419.615 786.046 -503.006 669.325 -561.778 565.429C-583.037 527.916 -602.445 489.169 -621.236 451.657C-658.68 377.044 -693.998 306.545 -741.934 246.059C-760.107 223.153 -779.926 201.482 -800.843 181.663C-884.234 103.347 -985.731 57.3303 -1094.29 48.6208C-1295.84 32.4363 -1483.54 144.837 -1561.31 328.353L-1564.53 327.05C-1524.35 232.206 -1456.45 155.603 -1368.12 105.541C-1286.1 58.9762 -1188.79 37.5797 -1094.02 45.1919C-984.633 53.9014 -882.451 100.261 -798.443 179.194C-777.389 199.082 -757.501 220.822 -739.191 243.933C-691.049 304.693 -655.662 375.329 -618.15 450.148C-599.359 487.524 -579.951 526.27 -558.761 563.714C-500.263 667.199 -417.283 783.303 -245.631 860.454C-120.818 916.551 17.162 921.214 133.06 873.347C163.646 860.66 193.82 844.132 222.898 828.153C281.875 795.716 342.91 762.249 410.803 759.918C532.804 755.803 619.899 840.429 704.251 922.312C770.017 986.227 838.116 1052.27 923.222 1078.4C1037.47 1113.37 1177.31 1069.07 1279.56 965.448C1368.5 875.267 1422.13 756.694 1473.98 641.963L1478.16 632.704C1596.46 373.82 1674.84 306.271 1757.75 234.743C1786.01 210.466 1815.15 185.298 1846.02 151.969L1847.32 150.529C1857.81 139.213 1868.65 127.486 1879.89 114.113C1988.11 -14.6086 2029.19 -214.104 1982.01 -382.395L1985.37 -383.355C2032.75 -214.035 1991.47 -13.1684 1882.57 116.376C1871.25 129.818 1860.35 141.545 1849.86 152.929L1848.55 154.369C1817.55 187.767 1788.34 213.004 1760.02 237.418C1677.38 308.602 1599.27 375.946 1481.31 634.144L1477.13 643.403C1425.15 758.34 1371.38 877.255 1282.02 967.916C1202.34 1048.63 1099.95 1093.62 1004.28 1093.62Z" fill="url(#paint1_linear_266_4340)"/>
</g>
<g style="mix-blend-mode:multiply">
<path d="M995.092 1081.55C965.261 1081.55 936.046 1077.23 908.546 1068.18C825.497 1040.95 759.251 976.283 695.198 913.671C609.201 829.662 528.004 750.248 409.706 754.02C342.773 756.008 282.424 789.269 224.064 821.432C196.495 836.657 167.966 852.361 138.958 864.705C27.2431 912.436 -107.308 911.407 -230.201 861.962C-369.141 806.002 -468.511 723.502 -552.589 594.437C-579.883 552.467 -604.845 507.891 -628.916 464.893C-664.029 402.075 -700.375 337.131 -743.786 281.376C-762.302 257.58 -781.847 235.291 -801.734 215.061C-882.863 132.629 -975.787 82.9785 -1077.9 67.3426C-1238.03 42.7229 -1443.7 106.364 -1542.31 304.144L-1545.4 302.567C-1446.03 103.278 -1238.72 39.0883 -1077.35 63.9137C-974.484 79.6868 -880.943 129.681 -799.266 212.592C-779.241 232.96 -759.696 255.316 -741.042 279.25C-697.495 335.21 -661.08 400.223 -625.899 463.178C-601.828 506.177 -576.934 550.684 -549.64 592.517C-466.042 720.965 -367.152 803.053 -228.898 858.739C-106.828 907.91 26.7631 908.87 137.586 861.482C166.458 849.275 194.849 833.571 222.418 818.415C281.121 786.046 341.813 752.58 409.569 750.522C529.307 746.75 614.893 830.348 697.598 911.202C761.377 973.471 827.349 1037.93 909.575 1064.89C1019.3 1100.82 1155.22 1062.14 1255.9 966.339C1339.97 886.376 1392.99 780.079 1444.21 677.28L1454.71 656.295C1566.76 432.455 1648.92 358.527 1728.33 287.068C1765.44 253.739 1800.41 222.193 1837.79 176.451C1840.89 172.656 1844.07 168.816 1847.32 164.93C1854.79 155.946 1862.47 146.619 1870.29 136.47C1984.27 -12.0714 2007.11 -226.859 1979.13 -373.823L1982.56 -374.44C2010.6 -226.722 1987.7 -10.8369 1873.03 138.527C1865.22 148.814 1857.47 158.141 1849.99 167.124C1846.75 171.011 1843.57 174.851 1840.46 178.646C1802.95 224.593 1767.84 256.208 1730.67 289.606C1651.46 360.927 1569.51 434.581 1457.79 657.872L1447.3 678.858C1395.93 781.863 1342.79 888.434 1258.3 968.876C1181.9 1041.5 1085.41 1081.55 995.092 1081.55Z" fill="url(#paint2_linear_266_4340)"/>
</g>
<g style="mix-blend-mode:multiply">
<path d="M988.166 1070.44C957.443 1070.44 926.102 1065.64 894.831 1054.67C814.731 1026.55 750.61 963.527 688.615 902.63C604.263 819.65 524.575 741.196 408.54 744.625C341.607 746.339 281.533 779.6 223.446 811.763C197.524 826.165 170.71 840.978 143.621 852.842C35.3356 900.709 -91.4661 903.384 -213.33 860.248C-357.139 809.432 -458.91 736.395 -543.33 623.446C-578.58 576.264 -610.606 524.213 -641.535 473.945C-674.247 420.797 -708.056 365.797 -745.637 316.626C-764.428 292.212 -783.561 269.238 -802.626 248.39C-882.246 161.433 -966.872 108.284 -1061.44 86.0649C-1213.82 49.9926 -1415.79 95.9402 -1523.32 279.868L-1526.27 278.153C-1417.84 92.6484 -1214.3 46.3579 -1060.69 82.7045C-965.431 105.13 -880.188 158.552 -800.089 246.059C-780.955 266.975 -761.753 290.017 -742.894 314.569C-705.176 363.877 -671.367 418.877 -638.586 472.094C-607.726 522.362 -575.699 574.344 -540.587 621.389C-456.578 733.721 -355.357 806.414 -212.233 857.025C-91.1232 899.818 34.7183 897.212 142.181 849.687C169.201 837.892 195.878 823.078 221.732 808.746C280.23 776.377 340.647 742.91 408.403 741.127C525.809 737.904 606.115 816.701 691.015 900.161C752.736 960.853 816.583 1023.6 895.928 1051.38C1023.55 1096.09 1153.3 1037.25 1232.24 967.231C1312.47 896.046 1365.07 800.242 1415.96 707.524C1421.03 698.334 1426.11 689.145 1431.18 679.955C1536.59 489.375 1621.56 411.676 1696.51 343.097C1742.32 301.127 1785.6 261.557 1829.56 200.934C1833.47 195.585 1837.51 190.236 1841.69 184.681C1847.87 176.451 1854.31 167.948 1860.76 158.758C1969.25 3.70203 1990.78 -220.413 1976.31 -365.182L1979.74 -365.525C1994.28 -220.138 1972.61 4.93646 1863.57 160.747C1857.13 169.936 1850.68 178.509 1844.44 186.807C1840.25 192.293 1836.21 197.642 1832.37 202.991C1788.2 263.889 1744.79 303.596 1698.85 345.635C1624.1 414.008 1539.4 491.57 1434.2 681.601C1429.13 690.791 1424.07 700.003 1419.04 709.238C1368.02 802.162 1315.22 898.241 1234.57 969.837C1174.22 1023.33 1084.31 1070.44 988.166 1070.44Z" fill="url(#paint3_linear_266_4340)"/>
</g>
<g style="mix-blend-mode:multiply">
<path d="M979.456 1058.78C947.019 1058.78 913.895 1053.43 881.115 1041.16C803.964 1012.22 741.969 950.909 682.1 891.588C599.326 809.705 521.352 732.349 407.306 735.229C340.441 736.669 280.572 769.998 222.623 802.23C198.415 815.672 173.453 829.593 148.216 841.046C44.9364 888.296 -77.5448 894.469 -196.529 858.602C-348.704 812.654 -449.652 751.002 -534.072 652.455C-579.608 599.375 -620.618 537.586 -660.325 477.854C-688.305 435.746 -717.177 392.268 -747.557 351.944C-766.622 326.638 -785.481 303.047 -803.586 281.788C-882.108 189.344 -958.848 133.041 -1045.05 104.786C-1184.81 58.5645 -1388.15 86.0645 -1504.32 255.659L-1507.13 253.67C-1455.29 177.891 -1381.22 124.057 -1293.1 97.9285C-1212.11 73.8575 -1123.64 75.1604 -1043.95 101.495C-957.133 130.023 -879.914 186.601 -800.911 279.525C-782.807 300.852 -763.879 324.512 -744.746 349.818C-714.365 390.21 -685.425 433.826 -657.445 475.934C-617.807 535.597 -576.865 597.249 -531.466 650.192C-447.526 748.19 -346.99 809.5 -195.5 855.241C-77.3391 890.971 44.2506 884.799 146.776 837.891C171.875 826.507 196.838 812.654 220.978 799.213C279.201 766.775 339.481 733.24 407.237 731.732C522.517 728.92 601.246 806.756 684.5 889.188C744.163 948.165 805.816 1009.27 882.281 1037.87C1004.42 1083.61 1130.95 1031.83 1208.58 968.122C1285.18 905.304 1337.37 819.375 1387.77 736.258C1394.42 725.354 1401.01 714.45 1407.66 703.546C1506 543.552 1589.12 468.116 1662.5 401.526C1718.32 350.846 1770.99 302.978 1821.4 225.416C1825.51 219.107 1829.76 212.866 1834.36 206.214C1839.84 198.19 1845.53 189.892 1851.16 181.046C1967.88 -1.78473 1974.26 -276.716 1973.43 -356.61L1976.93 -356.679C1977.75 -276.51 1971.31 -0.755981 1854.11 182.897C1848.42 191.813 1842.72 200.111 1837.17 208.203C1832.64 214.786 1828.39 221.027 1824.28 227.268C1773.66 305.241 1720.79 353.247 1664.83 404.063C1591.66 470.516 1508.68 545.746 1410.61 705.397C1403.96 716.233 1397.37 727.137 1390.72 738.041C1340.11 821.364 1287.85 907.567 1210.77 970.796C1153.23 1018.05 1069.02 1058.78 979.456 1058.78Z" fill="url(#paint4_linear_266_4340)"/>
</g>
<g style="mix-blend-mode:multiply">
<path d="M971.295 1047.33C937.006 1047.33 901.894 1041.43 867.399 1027.58C793.197 997.885 733.396 938.29 675.585 880.684C594.456 799.83 517.717 723.434 406.14 725.834C338.933 727 278.995 760.603 221.046 793.041C198.826 805.522 175.853 818.347 152.81 829.25C26.2829 888.845 -97.8443 877.187 -179.659 856.888C-341.847 816.701 -441.834 765.884 -524.883 681.464C-583.586 621.663 -636.117 546.981 -686.797 474.768C-707.165 445.759 -728.218 415.79 -749.409 387.193C-769.64 359.967 -787.676 336.376 -804.478 315.117C-882.726 215.952 -951.853 156.838 -1028.66 123.44C-1160.54 65.6968 -1359.62 74.8178 -1485.33 231.383L-1488 229.257C-1361.2 71.2517 -1160.26 61.9936 -1027.29 120.285C-949.933 153.957 -880.325 213.346 -801.734 312.991C-784.933 334.25 -766.897 357.841 -746.597 385.136C-725.475 413.733 -704.353 443.77 -683.985 472.779C-633.306 544.855 -580.98 619.469 -522.414 678.995C-439.914 762.935 -340.338 813.477 -178.836 853.527C-97.57 873.689 25.7343 885.279 151.37 826.096C174.275 815.329 197.181 802.436 219.331 790.024C277.692 757.38 337.972 723.571 406.071 722.337C519.363 720.073 596.377 796.813 678.054 878.216C735.591 935.616 795.117 994.936 868.633 1024.36C985.285 1071.13 1108.52 1026.41 1184.99 969.014C1258.09 914.082 1307.4 840.909 1359.66 763.347C1367.82 751.277 1375.98 739.207 1384.21 727.137C1475.21 594.506 1555.72 523.527 1626.77 460.915C1696.65 399.332 1756.93 346.183 1813.23 249.83C1817.28 242.904 1821.67 235.909 1826.26 228.571C1831.27 220.479 1836.48 212.181 1841.63 203.334C1929.06 53.0098 1956.49 -170.282 1970.62 -348.038L1974.05 -347.763C1959.92 -169.596 1932.36 54.1756 1844.57 205.117C1839.43 213.964 1834.22 222.33 1829.21 230.354C1824.62 237.76 1820.3 244.687 1816.18 251.613C1759.67 348.378 1699.12 401.732 1629.1 463.521C1558.19 525.996 1477.82 596.838 1387.09 729.126C1378.79 741.127 1370.63 753.266 1362.54 765.335C1310.14 843.035 1260.63 916.482 1187.04 971.757C1132.45 1012.77 1054.21 1047.33 971.295 1047.33Z" fill="url(#paint5_linear_266_4340)"/>
</g>
<g style="mix-blend-mode:multiply">
<path d="M963.889 1036.22C927.474 1036.22 890.099 1029.71 853.615 1014.07C782.43 983.621 724.824 925.809 669.139 869.918C590.479 790.984 516.14 716.37 408.608 716.37C407.374 716.37 406.14 716.393 404.905 716.439C337.424 717.468 277.555 751.208 219.675 783.92C199.375 795.373 178.39 807.168 157.474 817.387C36.9127 876.158 -83.2369 870.398 -162.788 855.173C-319.353 825.273 -421.946 793.384 -515.625 710.473C-591.884 642.923 -658.817 550.342 -723.486 460.778C-732.744 447.954 -742.003 435.198 -751.261 422.511C-760.45 409.961 -769.502 397.549 -778.418 385.342C-787.539 372.792 -796.522 360.516 -805.369 348.446C-872.988 256.208 -934.022 185.778 -1012.27 142.094C-1139.83 70.429 -1336.72 69.7432 -1466.33 207.175L-1468.87 204.774C-1338.02 66.1086 -1139.28 66.7943 -1010.62 139.076C-931.828 183.035 -870.45 253.739 -802.557 346.458C-793.779 358.459 -784.795 370.803 -775.606 383.353C-766.691 395.491 -757.638 407.904 -748.449 420.454C-739.259 433.141 -730.001 445.965 -720.675 458.789C-656.074 548.147 -589.347 640.591 -513.293 707.867C-420.232 790.229 -318.118 822.05 -162.171 851.813C-83.0997 866.9 36.2269 872.592 155.965 814.301C176.813 804.151 197.729 792.287 217.96 780.903C276.252 747.985 336.532 714.039 404.905 712.942C515.934 711.227 591.507 787.144 671.607 867.449C727.019 923.135 784.419 980.672 854.986 1010.92C966.289 1058.51 1086.23 1020.93 1161.33 969.905C1231.14 922.449 1280.04 857.574 1331.74 788.927C1341.35 776.24 1350.95 763.484 1360.75 750.797C1444.49 642.237 1521.57 577.43 1589.67 520.236C1672.24 450.834 1743.56 390.897 1805.07 274.313C1809.05 266.769 1813.3 259.294 1817.83 251.339C1822.49 243.11 1827.29 234.606 1832.02 225.691C1902.18 93.1971 1930.23 -93.3366 1952.79 -243.181C1957.87 -277.333 1962.74 -309.633 1967.81 -339.396L1971.24 -338.848C1966.16 -309.085 1961.3 -276.853 1956.15 -242.701C1933.59 -92.5823 1905.54 94.2943 1835.11 227.268C1830.38 236.32 1825.51 244.824 1820.85 253.054C1816.32 260.94 1812.07 268.484 1808.09 275.89C1746.3 393.091 1674.71 453.234 1591.86 522.91C1523.97 579.968 1446.96 644.637 1363.5 752.854C1353.69 765.541 1344.09 778.297 1334.49 791.052C1282.57 859.905 1233.61 924.986 1163.32 972.717C1111.95 1007.62 1039.94 1036.22 963.889 1036.22Z" fill="url(#paint6_linear_266_4340)"/>
</g>
<g style="mix-blend-mode:multiply">
<path d="M959.363 1025.93C917.667 1025.93 877.069 1017.57 839.899 1000.56C771.732 969.357 716.32 913.328 662.829 859.151C584.855 780.286 511.271 705.946 403.739 707.044C335.915 707.798 276.046 741.882 218.166 774.868C199.855 785.292 180.928 796.059 162.069 805.591C74.9738 849.55 -49.2219 893.577 -146.398 853.39C-201.946 830.417 -255.301 820.678 -306.94 811.283C-378.33 798.253 -445.812 785.978 -506.367 739.413C-598.125 668.982 -678.567 561.657 -753.112 457.761C-770.325 434.032 -787.676 409.138 -806.261 381.844C-873.262 283.297 -926.067 209.781 -995.88 160.747C-1114.52 76.8753 -1307.71 57.6047 -1447.4 182.898L-1449.73 180.36C-1385.89 123.097 -1305.79 91.9626 -1218.01 90.3167C-1137.15 88.9451 -1057.67 112.879 -993.892 157.935C-923.599 207.243 -870.587 281.034 -803.38 379.855C-784.864 407.15 -767.445 431.975 -750.301 455.772C-675.893 559.463 -595.587 666.514 -504.241 736.67C-444.372 782.686 -377.302 794.893 -306.254 807.854C-254.546 817.318 -200.986 827.056 -145.095 850.167C-49.1534 889.874 74.0823 846.121 160.56 802.505C179.282 793.041 198.21 782.274 216.451 771.85C274.743 738.658 334.955 704.369 403.671 703.546C512.642 702.38 586.775 777.337 665.229 856.751C718.583 910.653 773.721 966.476 841.339 997.405C931.314 1038.55 1042.07 1028.61 1137.74 970.728C1204.46 930.335 1252.88 873.415 1304.11 813.066C1314.87 800.379 1326.05 787.212 1337.3 774.388C1413.7 686.95 1486.73 629.413 1551.13 578.665C1647.55 502.68 1730.87 436.981 1796.91 298.727C1800.68 290.84 1804.8 282.885 1809.12 274.519C1813.51 266.015 1818.03 257.237 1822.49 247.979C1876.19 136.196 1903.28 -13.1684 1927.07 -144.976C1939.35 -212.526 1950.87 -276.373 1965 -330.824L1968.36 -329.933C1954.23 -275.618 1942.71 -211.84 1930.5 -144.359C1906.64 -12.3454 1879.55 137.293 1825.65 249.487C1821.19 258.746 1816.59 267.592 1812.21 276.096C1807.89 284.463 1803.77 292.349 1800 300.236C1733.61 439.244 1650.02 505.08 1553.25 581.408C1489 632.087 1416.1 689.487 1339.91 776.651C1328.66 789.475 1317.48 802.642 1306.71 815.329C1255.35 875.884 1206.79 933.01 1139.52 973.677C1082.32 1008.31 1019.78 1025.93 959.363 1025.93Z" fill="url(#paint7_linear_266_4340)"/>
</g>
<g style="mix-blend-mode:multiply">
<path d="M954.151 1015.78C909.232 1015.78 865.479 1006.25 826.183 987.05C761.034 955.161 707.954 900.915 656.589 848.521C580.123 770.547 508.116 696.894 402.574 697.648C334.269 698.06 274.332 732.623 216.383 766.021C200.13 775.348 183.328 785.017 166.732 793.727C40.9589 859.562 -58.6858 879.038 -129.596 851.676C-188.299 828.976 -245.425 824.381 -300.562 819.992C-370.101 814.369 -435.731 809.157 -497.109 768.421C-578.305 714.519 -660.257 627.012 -755.032 493.078C-772.794 468.047 -790.35 441.85 -807.152 415.173C-815.93 401.252 -824.297 387.879 -832.389 374.917C-883.754 292.555 -924.284 227.474 -979.49 179.4C-1086.13 85.7217 -1279.73 46.6319 -1428.47 158.689L-1430.53 155.946C-1280.34 42.7229 -1084.9 82.2242 -977.227 176.794C-921.61 225.21 -880.943 290.497 -829.44 373.066C-821.348 386.027 -812.981 399.469 -804.203 413.321C-787.47 439.93 -769.983 466.058 -752.152 491.09C-657.719 624.681 -576.042 711.912 -495.188 765.541C-434.565 805.728 -369.347 811.009 -300.288 816.495C-244.877 820.952 -187.545 825.547 -128.362 848.452C-58.4115 875.472 40.2731 855.996 165.086 790.709C181.682 782 198.484 772.33 214.668 763.004C273.029 729.4 333.309 694.631 402.505 694.151C403.054 694.151 403.579 694.151 404.082 694.151C510.105 694.151 582.455 767.941 659.057 846.121C710.217 898.309 763.091 952.28 827.692 983.895C913.141 1025.73 1020.26 1021.13 1114.14 971.62C1178.06 937.879 1226.06 888.297 1276.88 835.765C1288.88 823.353 1301.23 810.528 1313.85 797.979C1382.97 728.989 1448.05 681.601 1511.01 635.79C1622.52 554.593 1718.87 484.506 1788.75 323.209C1792.32 314.98 1796.16 306.75 1800.27 297.972C1804.46 289.126 1808.78 279.936 1812.96 270.267C1855.55 172.474 1879.34 49.2379 1902.39 -70.0202C1920.35 -163.081 1937.36 -250.999 1962.19 -322.184L1965.48 -321.086C1940.72 -250.108 1923.78 -162.327 1905.82 -69.3345C1882.7 50.0608 1858.91 173.502 1816.11 271.638C1811.93 281.308 1807.61 290.566 1803.43 299.481C1799.31 308.191 1795.47 316.42 1791.91 324.581C1721.61 486.769 1624.99 557.131 1513.07 638.602C1450.18 684.344 1385.17 731.663 1316.25 800.379C1303.7 812.929 1291.35 825.753 1279.35 838.166C1228.33 890.903 1180.19 940.691 1115.72 974.706C1063.95 1002 1008.19 1015.78 954.151 1015.78Z" fill="url(#paint8_linear_266_4340)"/>
</g>
<g style="mix-blend-mode:multiply">
<path d="M950.585 1006.25C901.688 1006.25 854.163 995.348 812.468 973.471C750.473 941.033 699.724 888.571 650.622 837.891C576.077 760.946 505.647 688.184 403.054 688.184C402.505 688.184 401.934 688.207 401.339 688.253C332.212 688.801 272 723.845 213.777 757.791C199.855 765.884 185.522 774.182 171.327 781.931C90.7468 825.684 -26.3853 880.41 -112.794 849.961C-173.692 828.565 -233.287 829.662 -290.824 830.759C-359.677 832.062 -424.758 833.365 -487.782 797.43C-599.565 733.789 -695.849 615.971 -756.884 528.396C-774.989 502.474 -792.202 475.591 -808.044 448.502C-826.011 417.779 -841.441 389.593 -856.392 362.299C-893.012 295.298 -921.953 242.424 -963.1 197.985C-1060.55 92.7166 -1250.17 34.6991 -1409.55 134.412L-1411.33 131.463C-1340.35 87.0246 -1253.94 70.7029 -1168.01 85.4473C-1088.32 99.163 -1012.68 139.35 -960.562 195.653C-919.141 240.366 -890.132 293.446 -853.305 360.653C-838.424 387.879 -822.994 416.065 -805.095 446.788C-789.322 473.808 -772.108 500.553 -754.004 526.407C-693.175 613.708 -597.302 731.046 -486.136 794.412C-423.867 829.868 -359.266 828.633 -290.893 827.33C-233.012 826.233 -173.143 825.067 -111.628 846.738C-26.5225 876.638 89.7182 822.324 169.681 778.845C183.808 771.164 198.141 762.866 211.994 754.774C270.628 720.622 331.321 685.304 401.339 684.755C506.264 684.001 577.586 757.517 653.091 835.491C701.987 885.965 752.598 938.222 814.113 970.385C895.105 1012.84 998.453 1013.66 1090.55 972.511C1152 945.011 1199.73 902.286 1250.27 857.025C1263.23 845.366 1276.68 833.365 1290.39 821.569C1351.97 768.627 1411.43 729.263 1468.97 691.202C1596.94 606.576 1707.42 533.539 1780.59 347.623C1783.88 339.256 1787.45 330.821 1791.29 321.838C1795.27 312.442 1799.38 302.773 1803.43 292.555C1837.79 205.323 1858.91 96.9684 1879.34 -7.88815C1901.63 -122.071 1922.69 -229.877 1959.44 -313.611L1962.6 -312.171C1926.05 -228.848 1904.99 -121.18 1882.77 -7.20236C1862.27 97.7914 1841.08 206.283 1806.65 293.858C1802.6 304.076 1798.49 313.814 1794.44 323.209C1790.67 332.124 1787.11 340.559 1783.81 348.926C1710.23 535.803 1599.34 609.182 1470.89 694.082C1413.42 732.074 1354.03 771.438 1292.65 824.175C1278.94 835.971 1265.57 847.972 1252.54 859.562C1201.79 905.03 1153.92 947.96 1091.93 975.666C1046.25 996.102 997.767 1006.25 950.585 1006.25Z" fill="url(#paint9_linear_266_4340)"/>
</g>
<g style="mix-blend-mode:multiply">
<path d="M948.528 998.091C895.379 998.091 843.876 985.267 798.752 959.961C739.911 926.975 691.495 876.432 644.656 827.536C571.345 751.071 502.081 678.789 400.859 678.789C400.631 678.789 400.402 678.789 400.173 678.789C330.223 679.063 269.668 714.93 211.171 749.562C199.65 756.42 187.717 763.484 175.99 770.067C70.4477 829.662 -23.2993 856.682 -95.3067 848.384C-248.648 887.268 -366.878 880.479 -478.524 826.37C-574.945 779.737 -674.453 686.401 -758.736 563.646C-777.115 537.106 -793.985 509.606 -808.935 481.9C-832.389 438.49 -851.111 397.823 -867.57 362.025C-893.15 306.339 -915.232 258.265 -946.641 216.638C-1035.38 97.9973 -1225.69 25.7841 -1390.55 110.136L-1392.13 107.05C-1225.62 21.8752 -1033.46 94.7742 -943.898 214.512C-912.214 256.482 -890.064 304.693 -864.415 360.516C-847.956 396.383 -829.303 436.913 -805.918 480.254C-790.968 507.823 -774.166 535.254 -755.924 561.726C-671.915 683.933 -572.888 776.856 -477.015 823.284C-366.055 877.05 -248.511 883.702 -95.8554 844.955L-95.5125 844.886L-95.2381 844.955C-23.9165 853.253 69.2819 826.37 174.276 767.05C185.934 760.466 197.867 753.403 209.388 746.613C268.297 711.707 329.263 675.635 400.173 675.36C400.402 675.36 400.631 675.36 400.859 675.36C503.521 675.36 573.334 748.122 647.125 825.204C693.827 873.827 742.037 924.163 800.466 956.944C878.303 1000.63 975.479 1006.59 1066.96 973.403C1126.28 951.869 1173.95 915.522 1224.49 876.981C1238.2 866.557 1252.4 855.722 1267.01 845.161C1320.5 806.14 1373.44 774.936 1424.53 744.762C1570.47 658.627 1696.51 584.288 1772.43 372.106C1775.45 363.671 1778.74 355.167 1782.17 346.183C1786.01 336.102 1789.99 325.747 1793.83 314.911C1821.81 236.046 1840.19 139.556 1858.02 46.2891C1882.16 -80.3755 1907.19 -211.36 1956.63 -304.97L1959.72 -303.324C1910.48 -210.195 1885.52 -79.4839 1861.45 46.9063C1843.61 140.31 1825.17 236.938 1797.12 316.009C1793.28 326.913 1789.23 337.336 1785.39 347.418C1781.96 356.401 1778.67 364.836 1775.72 373.272C1699.33 586.62 1572.8 661.302 1426.31 747.779C1375.22 777.885 1322.42 809.088 1268.99 847.972C1254.52 858.533 1240.33 869.3 1226.61 879.793C1175.87 918.403 1127.93 954.886 1068.13 976.626C1028.7 990.959 988.166 998.091 948.528 998.091Z" fill="url(#paint10_linear_266_4340)"/>
</g>
<g style="mix-blend-mode:multiply">
<path d="M949.419 990.547C890.579 990.547 833.521 975.597 785.036 946.383C729.419 912.985 683.334 864.5 638.758 817.661C566.751 741.813 498.652 670.217 398.939 669.394C398.436 669.394 397.91 669.394 397.362 669.394C327.412 669.394 267.268 705.878 209.113 741.127C199.581 746.956 190.049 752.717 180.585 758.272C74.6309 820.473 -12.5324 850.167 -78.4363 846.67C-232.67 899.887 -353.231 902.561 -469.266 855.379C-572.545 813.34 -678.704 719.868 -760.587 598.964C-779.103 571.807 -795.699 543.621 -809.827 515.229C-836.229 462.355 -854.54 413.116 -870.656 369.706C-889.446 319.095 -905.699 275.342 -930.182 235.223C-1008.84 105.267 -1195.44 13.8517 -1371.69 85.8592L-1372.99 82.636C-1293.58 50.1983 -1202.99 49.444 -1117.88 80.51C-1037.92 109.656 -968.38 165.41 -927.233 233.44C-902.613 273.833 -886.292 317.723 -867.433 368.471C-851.317 411.813 -833.075 460.984 -806.741 513.652C-792.682 541.907 -776.155 569.955 -757.776 596.975C-676.236 717.399 -570.625 810.392 -467.963 852.156C-352.682 899.064 -232.807 896.321 -79.2593 843.309L-78.9164 843.172H-78.5735C-13.2867 846.807 73.3279 817.181 178.87 755.254C188.334 749.699 197.798 743.939 207.262 738.178C265.897 702.655 326.451 665.965 397.362 665.965C397.91 665.965 398.459 665.965 399.008 665.965C500.161 666.719 568.739 738.864 641.295 815.261C685.666 861.963 731.613 910.242 786.819 943.434C860.404 987.667 953.945 998.914 1043.37 974.226C1101.05 958.384 1149.12 928.004 1200.01 895.84C1214.06 886.925 1228.6 877.736 1243.55 868.752C1288.4 841.732 1333.39 818.621 1376.87 796.196C1535.83 714.382 1686.02 637.162 1764.27 396.52C1767.01 388.222 1769.89 379.718 1772.91 371.009C1776.68 360.173 1780.59 348.927 1784.29 337.2C1807.13 265.398 1822.22 182.624 1838.2 94.9801C1864.12 -47.389 1890.93 -194.559 1953.89 -296.329L1956.84 -294.477C1894.23 -193.256 1867.48 -46.4289 1841.63 95.5973C1825.58 183.309 1810.49 266.221 1787.59 338.228C1783.88 350.024 1779.97 361.271 1776.2 372.175C1773.18 380.884 1770.24 389.319 1767.56 397.617C1688.83 639.562 1538.1 717.125 1378.45 799.282C1335.04 821.639 1290.05 844.749 1245.34 871.701C1230.45 880.685 1215.92 889.874 1201.86 898.721C1150.77 931.021 1102.42 961.539 1044.33 977.586C1012.85 986.296 980.897 990.547 949.419 990.547Z" fill="url(#paint11_linear_266_4340)"/>
</g>
<g style="mix-blend-mode:multiply">
<path d="M952.437 984.718C900.248 984.787 834.687 973.745 771.321 932.873C718.995 899.132 675.448 852.704 633.272 807.854C562.568 732.486 495.704 661.302 397.773 659.999C325.697 658.97 264.799 697.031 205.753 733.721C198.895 737.972 192.037 742.224 185.248 746.408C76.8942 812.654 -1.5598 843.926 -61.4974 844.955C-213.879 912.025 -340.475 924.506 -460.007 884.319C-569.39 847.561 -682.476 754.02 -762.507 634.213C-781.092 606.507 -797.345 577.704 -810.718 548.558C-838.424 488.346 -854.608 432.112 -868.804 382.461C-881.971 336.582 -894.384 293.309 -913.723 253.808C-980.724 115.896 -1167.6 3.15317 -1352.76 61.5821L-1353.79 58.2903C-1270.13 31.8876 -1177.48 38.8826 -1092.85 78.041C-1012.82 115.073 -946.435 178.577 -910.637 252.299C-891.161 292.075 -878.679 335.485 -865.512 381.501C-851.317 431.015 -835.201 487.181 -807.564 547.118C-794.259 576.058 -778.143 604.724 -759.627 632.293C-680.007 751.482 -567.539 844.475 -458.91 881.027C-340.201 920.94 -214.222 908.459 -62.5947 841.663L-61.9089 841.457C-2.51988 840.634 75.3854 809.5 183.397 743.459C190.255 739.275 197.044 735.023 203.97 730.772C263.428 693.808 324.874 655.61 397.773 656.57C497.212 657.873 564.556 729.537 635.809 805.454C677.779 850.235 721.258 896.457 773.172 929.992C868.359 991.37 968.553 984.649 1019.85 975.117C1076.43 964.693 1125.46 939.868 1177.44 913.602C1191.23 906.676 1205.49 899.406 1220.17 892.343C1255.07 875.472 1290.6 860.111 1324.89 845.161C1505.32 766.775 1675.73 692.711 1756.18 420.934C1758.51 413.047 1760.98 404.955 1763.58 396.657C1767.29 384.724 1771.13 372.38 1774.76 359.487C1793.42 293.72 1806.17 218.97 1819.75 139.762C1846.5 -16.9403 1874.2 -179.06 1951.08 -287.688L1953.96 -285.631C1877.49 -177.688 1849.86 -15.9803 1823.11 140.379C1809.6 219.656 1796.78 294.543 1778.12 360.447C1774.42 373.409 1770.58 385.753 1766.88 397.686C1764.27 405.984 1761.8 414.076 1759.47 421.962C1678.62 695.248 1507.44 769.587 1326.26 848.384C1291.97 863.265 1256.51 878.627 1221.68 895.429C1207.07 902.492 1192.8 909.762 1178.95 916.688C1126.83 943.091 1077.52 967.985 1020.47 978.546C1002.84 981.838 979.457 984.718 952.437 984.718Z" fill="url(#paint12_linear_266_4340)"/>
</g>
<g style="mix-blend-mode:multiply">
<path d="M961.557 981.083C887.081 981.083 815.759 959.618 757.536 919.294C708.708 885.485 667.698 841.183 628.06 798.39C558.521 723.365 492.891 652.455 396.539 650.603C323.091 649.163 261.439 688.733 201.844 726.931L189.843 734.612C94.313 795.441 17.8479 837.274 -44.6271 843.172C-196.323 925.055 -325.388 947.274 -450.749 913.259C-565.687 882.056 -685.837 788.652 -764.359 669.531C-783.081 641.276 -798.991 611.788 -811.61 581.956C-839.59 515.984 -851.934 456.32 -863.935 398.646C-873.193 354.07 -881.903 311.962 -897.264 272.461C-962.62 102.249 -1158.41 -3.22467 -1333.84 37.2367L-1334.59 33.8763C-1157.59 -6.99649 -959.945 99.4374 -894.041 271.158C-878.611 311.002 -869.833 353.247 -860.575 397.96C-848.574 455.497 -836.229 514.886 -808.455 580.585C-795.837 610.279 -780.064 639.562 -761.479 667.611C-683.368 786.115 -563.973 878.97 -449.858 909.899C-325.319 943.708 -197.009 921.488 -45.9302 839.949L-45.3129 839.811C16.5449 834.051 92.6671 792.424 187.991 731.663L199.993 723.982C259.999 685.51 322.062 645.803 396.607 647.174C494.469 649.026 560.579 720.416 630.597 795.99C670.099 838.714 711.04 882.879 759.525 916.482C826.115 962.636 910.192 983.758 996.327 976.077C1052.7 971.002 1103.72 951.457 1157.62 930.747C1170.38 925.877 1183.41 920.871 1196.85 915.934C1220.1 907.361 1243.9 899.063 1266.94 891.04C1471.99 819.512 1665.65 751.962 1748.02 445.348C1749.94 438.284 1751.93 431.015 1753.98 423.54C1757.75 410.167 1761.59 396.314 1765.23 381.775C1780.39 321.426 1791.08 253.533 1802.4 181.732C1829.21 11.5197 1856.99 -164.453 1948.33 -278.979L1951.01 -276.853C1860.28 -163.013 1832.57 12.4798 1805.83 182.212C1794.51 254.151 1783.81 322.112 1768.59 382.598C1764.89 397.205 1761.05 411.058 1757.34 424.5C1755.29 431.906 1753.23 439.176 1751.31 446.308C1714.21 584.631 1649.61 687.156 1553.94 759.643C1468.63 824.381 1366.65 859.905 1268.1 894.331C1245.06 902.355 1221.26 910.653 1198.02 919.225C1184.64 924.163 1171.61 929.101 1158.86 933.97C1104.68 954.749 1053.52 974.363 996.601 979.506C984.851 980.557 973.17 981.083 961.557 981.083Z" fill="url(#paint13_linear_266_4340)"/>
</g>
<g style="mix-blend-mode:multiply">
<path d="M954.631 981.015C884.475 981.015 808.696 954.132 743.82 905.784C698.559 872.044 660.223 830.005 623.191 789.338C554.818 714.382 490.286 643.609 395.373 641.208C319.731 639.288 257.53 680.847 197.181 720.965L192.586 724.051C110.429 778.64 32.9351 830.211 -27.6883 841.458C-176.092 936.782 -311.398 969.768 -441.491 942.2C-563.355 916.414 -687.757 825.41 -766.211 704.849C-785.001 676.046 -800.569 645.872 -812.501 615.286C-840.001 544.65 -848.711 479.911 -857.146 417.368C-863.112 373.066 -868.736 331.233 -880.737 291.046C-934.708 109.176 -1129.47 -15.5686 -1314.84 12.9601L-1315.39 9.53119C-1223.15 -4.66458 -1126.39 17.9664 -1042.86 73.1721C-962.963 126.115 -902.613 205.117 -877.445 290.017C-865.307 330.479 -859.683 372.449 -853.717 416.888C-845.282 479.294 -836.641 543.758 -809.278 614.051C-797.483 644.432 -781.984 674.332 -763.33 702.929C-685.357 822.804 -561.778 913.191 -440.806 938.839C-311.535 966.202 -176.984 933.353 -29.2657 838.303L-28.6484 838.097C31.2892 827.125 108.714 775.622 190.666 721.171L195.329 718.085C256.09 677.623 318.908 635.791 395.441 637.779C491.794 640.18 556.875 711.501 625.728 787.006C662.692 827.536 700.89 869.438 745.878 903.041C815.759 955.092 898.396 982.044 972.667 976.969C1043.17 972.1 1107.84 956.532 1173.47 939.594C1182.47 937.262 1191.52 934.93 1200.62 932.599C1424.26 875.473 1655.43 816.289 1739.86 469.83C1741.27 464.07 1742.71 458.195 1744.18 452.206C1748.02 436.776 1751.99 420.865 1755.7 404.064C1767.97 348.515 1776.82 286.726 1786.15 221.37C1811.11 47.0437 1839.36 -150.6 1945.59 -270.338L1948.13 -268.006C1842.65 -149.091 1814.47 48.0038 1789.57 221.85C1780.25 287.343 1771.4 349.132 1759.06 404.818C1755.35 421.688 1751.38 437.599 1747.54 453.029C1746.07 459.018 1744.63 464.893 1743.22 470.653C1705.22 626.601 1633.35 738.521 1523.49 812.792C1426.38 878.49 1312.06 907.704 1201.45 935.959C1192.39 938.291 1183.34 940.622 1174.29 942.954C1108.59 959.893 1043.71 975.529 972.873 980.398C966.838 980.809 960.757 981.015 954.631 981.015Z" fill="url(#paint14_linear_266_4340)"/>
</g>
<g style="mix-blend-mode:multiply">
<path d="M993.789 983.827C978.908 983.827 963.958 983.072 948.87 981.358C866.645 972.031 791.003 941.239 730.105 892.206C688.615 858.877 653.091 819.238 618.802 780.971C551.389 705.809 487.817 634.762 394.138 631.813C322.199 629.55 263.291 666.308 199.101 710.953C185.248 720.554 171.601 730.223 158.228 739.687C92.7359 786.046 36.1585 826.096 -10.8178 839.675C-131.79 930.473 -250.98 976.283 -365.918 976.283C-388.183 976.283 -410.288 974.569 -432.233 971.14C-558.898 951.252 -690.774 860.591 -768.062 740.098C-786.99 710.815 -802.214 680.024 -813.393 648.683C-839.933 574.138 -844.596 504.874 -849.122 437.804C-852.208 393.16 -855.02 350.915 -864.278 309.631C-906.934 116.445 -1100.53 -27.5012 -1295.91 -11.3853L-1296.19 -14.8142C-1199.63 -22.8379 -1100.81 7.54242 -1017.89 70.7719C-938.069 131.601 -880.874 218.421 -860.849 308.877C-851.591 350.367 -848.711 392.748 -845.693 437.599C-841.167 504.394 -836.504 573.453 -810.101 647.517C-799.06 678.583 -783.904 709.17 -765.182 738.247C-688.305 857.917 -557.458 948.029 -431.684 967.711C-297.408 988.764 -156.41 944.737 -12.6009 836.726L-12.0522 836.383C34.444 823.078 90.8841 783.166 156.24 736.875C169.612 727.411 183.26 717.742 197.112 708.072C261.85 663.085 321.377 626.052 394.276 628.384C489.394 631.401 553.515 702.929 621.339 778.64C655.629 816.838 691.015 856.339 732.299 889.531C792.648 938.085 867.742 968.671 949.282 977.929C1010.25 984.787 1068.2 975.872 1135.34 965.516L1150.08 963.253C1358.97 931.227 1645.01 887.474 1731.69 494.244L1733.96 484.026C1738.07 465.647 1742.26 446.651 1746.16 426.352C1755.97 375.192 1763.17 318.889 1770.78 259.363C1794.51 73.3778 1821.46 -137.364 1942.78 -261.628L1945.25 -259.228C1824.69 -135.787 1797.87 74.338 1774.21 259.774C1766.6 319.369 1759.4 375.741 1749.53 427.037C1745.62 447.337 1741.43 466.402 1737.32 484.781L1735.12 494.999C1697.41 666.034 1620.32 785.566 1499.56 860.317C1394.77 925.192 1269.75 948.44 1150.63 966.682L1135.88 968.945C1085.07 976.763 1039.46 983.827 993.789 983.827Z" fill="url(#paint15_linear_266_4340)"/>
</g>
<g style="mix-blend-mode:multiply">
<path d="M-385.6 1002.07C-397.875 1002.07 -410.357 1001.38 -422.975 1000.08C-556.223 985.953 -692.352 897.761 -769.983 775.417C-788.91 745.585 -803.86 714.176 -814.284 682.013C-839.521 604.244 -840.001 530.797 -840.481 459.749C-840.756 414.076 -841.03 370.94 -847.751 328.284C-879.297 123.92 -1071.87 -39.3653 -1276.98 -35.7307L-1277.05 -39.1596C-1176.1 -41.0112 -1075.23 -2.81296 -992.931 68.3716C-913.312 137.156 -859.135 231.726 -844.322 327.736C-837.601 370.666 -837.327 413.939 -836.984 459.681C-836.572 530.454 -836.092 603.696 -810.992 680.915C-800.637 712.804 -785.824 743.939 -767.034 773.565C-690.02 895.086 -554.783 982.661 -422.632 996.651C-279.166 1011.88 -157.096 935.547 -39.0723 861.825C-24.6708 852.773 -10.2007 843.789 4.26926 834.874C48.9139 807.58 115.229 759.301 185.385 708.141L201.707 696.277C257.667 655.61 318.428 616.04 393.11 618.989C487.199 622.623 550.498 694.699 617.567 771.027C648.908 806.757 681.345 843.652 718.652 876.09C776.875 926.701 846.551 961.264 925.759 978.889C988.372 992.742 1051.19 990.822 1126.76 986.913C1378.45 973.746 1646.11 907.842 1723.6 518.658C1728.2 495.479 1732.65 472.711 1736.63 448.64C1744.38 401.526 1750.14 350.229 1756.18 295.915C1778.26 98.7519 1803.22 -124.608 1940.04 -252.919L1942.37 -250.45C1806.51 -122.963 1781.62 99.7806 1759.67 296.258C1753.57 350.641 1747.81 401.938 1740.06 449.188C1736.08 473.328 1731.56 496.165 1726.96 519.344C1649.06 910.791 1379.95 977.106 1126.9 990.342C1051.05 994.319 988.029 996.239 925.005 982.249C845.248 964.556 775.092 929.65 716.389 878.696C678.877 846.121 646.37 809.089 614.961 773.359C548.44 697.58 485.622 625.984 392.973 622.418C319.525 619.606 259.176 658.764 203.764 699.089L187.443 710.953C117.15 762.112 50.8341 810.46 6.05234 837.823C-8.41776 846.738 -22.8192 855.722 -37.2207 864.706C-145.438 932.324 -256.946 1002.07 -385.6 1002.07Z" fill="url(#paint16_linear_266_4340)"/>
</g>
<g style="mix-blend-mode:multiply">
<path d="M-391.635 1029.64C-398.973 1029.64 -406.31 1029.43 -413.717 1029.02C-551.217 1020.93 -695.095 933.215 -771.834 810.666C-790.899 780.354 -805.438 748.259 -815.176 715.341C-838.904 634.762 -835.064 557.474 -831.429 482.654C-829.097 435.747 -826.903 391.376 -831.223 346.937C-851.797 131.601 -1043.27 -50.9554 -1258.06 -60.0763L-1257.85 -63.5052C-1152.65 -59.0476 -1049.65 -13.1 -967.969 65.9025C-887.389 143.876 -837.601 243.521 -827.726 346.594C-823.405 391.308 -825.6 435.747 -827.931 482.86C-831.635 557.336 -835.406 634.35 -811.815 714.381C-802.214 747.025 -787.744 778.777 -768.885 808.883C-692.763 930.472 -549.983 1017.57 -413.511 1025.52C-250.363 1035.12 -117.115 935.959 11.6759 840.154L20.9339 833.297C41.4389 818.004 66.7445 797.156 96.0274 772.947C129.151 745.653 166.595 714.793 206.302 684.481C259.862 643.608 319.456 606.233 391.944 609.593C485.348 613.845 548.097 687.087 614.55 764.581C642.736 797.43 671.882 831.445 705.005 862.579C760.828 915.111 827.143 954.612 902.237 979.849C964.232 1000.7 1027.46 1007.21 1103.38 1010.57C1456.08 1026.28 1656.33 873.346 1715.44 543.072C1720.31 515.709 1724.01 492.735 1727.1 470.927C1733.13 427.517 1737.59 380.815 1742.32 331.301C1762.21 123.371 1784.71 -112.265 1937.22 -244.278L1939.49 -241.604C1788 -110.55 1765.57 124.331 1745.75 331.644C1741.02 381.158 1736.56 427.929 1730.53 471.407C1727.44 493.284 1723.74 516.258 1718.87 543.689C1685.2 731.663 1603.38 864.911 1475.76 939.868C1379.06 996.582 1257.2 1020.86 1103.24 1014C1027.05 1010.64 963.546 1004.06 901.14 983.141C825.566 957.698 758.771 917.991 702.605 865.117C669.413 833.845 640.198 799.762 611.944 766.844C543.091 686.538 483.702 617.274 391.807 613.022C320.348 609.73 261.439 646.763 208.359 687.224C168.789 717.467 131.277 748.396 98.2905 775.622C68.8703 799.83 43.5649 820.747 22.9913 836.04L13.7332 842.897C-109.708 934.793 -237.264 1029.64 -391.635 1029.64Z" fill="url(#paint17_linear_266_4340)"/>
</g>
<g style="mix-blend-mode:multiply">
<path d="M-398.767 1057.96C-400.687 1057.96 -402.584 1057.94 -404.459 1057.89C-548.2 1055.83 -696.604 970.659 -773.686 845.984C-792.819 815.123 -807.084 782.411 -815.999 748.739C-838.15 665.69 -829.989 584.768 -822.102 506.52C-817.233 457.897 -812.57 412.018 -814.627 365.591C-824.434 139.487 -1014.81 -62.408 -1239.06 -84.4217L-1238.72 -87.8506C-1129.13 -77.0838 -1024.13 -23.3868 -943.006 63.5022C-862.701 149.5 -815.93 256.757 -811.198 365.454C-809.141 412.087 -813.804 458.103 -818.673 506.863C-826.56 584.768 -834.652 665.416 -812.707 747.848C-803.792 781.177 -789.665 813.615 -770.737 844.132C-694.272 967.848 -547.034 1052.4 -404.459 1054.46C-229.309 1057.07 -84.4715 940.759 37.5298 831.651C50.9027 819.718 66.4015 804.699 84.3004 787.28C119.413 753.334 163.097 710.952 210.828 672.686C255.61 636.819 316.507 596.22 390.778 600.198C483.908 605.204 543.571 676.732 612.561 759.643C637.318 789.269 662.829 819.924 691.358 849.138C745.398 904.481 808.49 948.783 878.714 980.809C934.606 1006.32 996.738 1022.85 1079.99 1034.23C1281.89 1062.01 1631.78 1038.28 1707.28 567.486C1711.33 542.523 1714.76 517.492 1717.57 493.215C1722.16 453.371 1725.52 410.853 1729.09 365.797C1746.37 147.305 1765.98 -100.263 1934.48 -235.569L1936.61 -232.826C1769.34 -98.4803 1749.8 148.334 1732.52 366.071C1728.95 411.127 1725.59 453.714 1721 493.627C1718.18 517.972 1714.76 543.003 1710.71 568.035C1634.72 1041.71 1282.64 1065.57 1079.51 1037.66C995.915 1026.21 933.509 1009.61 877.274 983.964C806.638 951.732 743.272 907.156 688.889 851.538C660.292 822.255 634.643 791.532 609.955 761.838C541.376 679.612 482.262 608.565 390.572 603.627C317.399 599.649 257.255 639.905 213.022 675.429C165.429 713.558 121.813 755.871 86.7693 789.818C68.7331 807.237 53.2343 822.255 39.8615 834.257C-81.3168 942.611 -225.057 1057.96 -398.767 1057.96Z" fill="url(#paint18_linear_266_4340)"/>
</g>
<g style="mix-blend-mode:multiply">
<path d="M-405.145 1086.97C-549.777 1086.97 -700.924 1003.44 -775.537 881.233C-794.739 849.893 -808.661 816.563 -816.89 782.068C-837.327 696.825 -824.845 612.542 -812.776 531.002C-805.643 482.792 -798.237 432.866 -798.1 384.244C-797.277 147.374 -986.554 -73.7921 -1220.06 -108.767L-1219.58 -112.196C-1105.67 -95.12 -998.623 -33.605 -918.112 61.0334C-838.081 155.123 -794.259 269.924 -794.671 384.244C-794.808 433.141 -802.215 483.134 -809.347 531.482C-821.348 612.679 -833.829 696.688 -813.53 781.314C-805.369 815.397 -791.585 848.384 -772.589 879.45C-696.878 1003.44 -541.685 1087.38 -395.338 1083.4C-199.889 1078.19 -45.1758 936.302 54.1945 830.073C64.1385 819.444 75.2482 806.688 88.0723 791.944C122.567 752.442 165.497 703.203 215.423 660.89C253.964 628.521 314.039 585.865 389.612 590.803C483.016 596.426 542.748 670.765 611.875 756.763C632.723 782.686 654.188 809.431 677.711 835.697C730.928 895.017 790.591 944.188 855.192 981.838C912.798 1015.37 978.702 1040.27 1056.61 1057.96C1151.18 1079.42 1332.36 1099.86 1483.37 995.896C1599.68 915.865 1672.24 779.942 1699.19 591.9C1702.55 568.103 1705.57 542.386 1708.04 515.503C1711.4 479.02 1713.8 440.341 1716.4 399.469C1730.05 182.075 1747.06 -88.5364 1931.67 -226.859L1933.73 -224.048C1750.42 -86.6848 1733.48 182.966 1719.83 399.674C1717.29 440.616 1714.82 479.294 1711.46 515.846C1709 542.798 1705.98 568.583 1702.62 592.38C1675.53 781.451 1602.49 918.128 1485.36 998.777C1333.25 1103.43 1150.97 1082.92 1055.85 1061.32C977.536 1043.56 911.358 1018.53 853.478 984.786C788.602 947 728.596 897.623 675.173 838.028C651.582 811.626 630.049 784.88 609.201 758.957C540.554 673.508 481.302 599.787 389.406 594.232C315.067 589.431 255.747 631.538 217.617 663.565C167.898 705.672 125.105 754.774 90.6783 794.207C77.7856 809.02 66.6758 821.775 56.7318 832.405C-43.0499 939.113 -198.517 1081.62 -395.269 1086.83C-398.561 1086.92 -401.853 1086.97 -405.145 1086.97Z" fill="url(#paint19_linear_266_4340)"/>
</g>
<g style="mix-blend-mode:multiply">
<path d="M-411.522 1116.59C-557.115 1116.59 -704.833 1036.84 -777.389 916.551C-796.728 884.594 -810.307 850.578 -817.782 815.466C-836.504 728.166 -819.702 640.66 -803.517 556.034C-793.848 505.834 -783.904 453.92 -781.572 402.898C-770.188 155.398 -958.436 -85.0387 -1201.14 -133.112L-1200.45 -136.541C-956.105 -88.1247 -766.691 153.958 -778.143 403.104C-780.475 454.332 -790.419 506.383 -800.089 556.651C-816.273 640.934 -833.006 728.097 -814.421 814.712C-807.015 849.481 -793.574 883.153 -774.44 914.768C-698.249 1041.02 -538.598 1122.22 -386.217 1112.27C-182.127 1099.04 -25.0137 950.635 70.8592 828.428C78.8829 818.209 88.0725 805.728 97.8106 792.424C130.042 748.396 170.161 693.602 219.949 649.163C275.978 599.375 331.046 577.224 388.447 581.408C483.016 588.06 543.365 666.582 613.247 757.517C629.5 778.571 646.233 800.379 664.132 822.256C718.172 888.297 772.967 940.828 831.601 982.867C891.402 1025.59 957.374 1057.96 1033.22 1081.69C1190.27 1130.79 1347.11 1116.11 1463.42 1041.43C1588.91 960.853 1665.52 817.867 1691.03 616.314C1693.98 592.792 1696.51 566.389 1698.5 537.792C1700.9 504.12 1702.55 468.802 1704.33 431.358C1714.96 204.774 1728.27 -77.2207 1928.86 -218.081L1930.85 -215.269C1731.63 -75.3691 1718.39 205.666 1707.76 431.564C1706.05 469.008 1704.33 504.325 1701.93 538.066C1699.94 566.663 1697.47 593.203 1694.46 616.794C1668.81 819.307 1591.66 963.185 1465.27 1044.38C1348.07 1119.61 1190.27 1134.43 1032.19 1084.98C955.934 1061.11 889.687 1028.68 829.612 985.678C770.703 943.502 715.703 890.766 661.458 824.45C643.49 802.505 626.757 780.697 610.504 759.575C541.171 669.325 481.233 591.352 388.172 584.837C331.801 580.722 277.555 602.667 222.281 651.701C172.698 695.934 132.717 750.591 100.554 794.481C90.8155 807.786 81.6259 820.335 73.6023 830.554C-22.7505 953.309 -180.618 1102.4 -386.011 1115.77C-394.515 1116.32 -403.019 1116.59 -411.522 1116.59Z" fill="url(#paint20_linear_266_4340)"/>
</g>
<g style="mix-blend-mode:multiply">
<path d="M1217.08 1149.99C1149.19 1149.99 1078.42 1136.28 1008.53 1108.64C804.855 1028.06 699.45 882.605 614.687 765.747C540.759 663.702 482.399 583.191 386.938 575.441C252.592 564.537 168.789 701.557 113.309 792.15C105.148 805.591 97.399 818.209 90.4726 828.771C-30.2942 1011.67 -200.643 1126.81 -376.822 1144.64C-559.721 1163.23 -780.887 1048.7 -818.673 848.796C-835.475 759.643 -814.49 669.12 -794.191 581.613C-782.052 529.288 -769.502 475.18 -765.045 421.62C-743.305 163.49 -930.388 -96.2856 -1182.14 -157.526L-1181.32 -160.887C-927.988 -99.303 -739.739 162.118 -761.547 421.894C-766.142 475.728 -778.692 529.905 -790.83 582.368C-811.061 669.6 -831.978 759.712 -815.244 848.178C-777.869 1046.23 -558.555 1159.52 -377.165 1141.21C-202.015 1123.52 -32.626 1008.93 87.5237 826.85C94.4502 816.358 102.2 803.739 110.36 790.367C166.252 699.02 250.672 560.903 387.212 572.012C484.25 579.83 543.022 660.959 617.499 763.69C701.987 880.204 807.05 1025.25 1009.84 1105.42C1164 1166.38 1322.42 1159.25 1444.42 1085.87C1576.84 1006.25 1659.34 852.293 1682.87 640.728C1688.7 588.951 1690.48 528.739 1692.47 464.961C1699.67 228.503 1708.65 -65.6995 1926.11 -209.372L1927.97 -206.491C1712.01 -63.8479 1703.1 229.463 1695.9 465.099C1693.98 528.945 1692.12 589.226 1686.3 641.14C1662.64 853.802 1579.59 1008.58 1446.2 1088.89C1378.58 1129.49 1299.99 1149.99 1217.08 1149.99Z" fill="url(#paint21_linear_266_4340)"/>
</g>
</g>
<defs>
<linearGradient id="paint0_linear_266_4340" x1="-789.529" y1="679.226" x2="1503.32" y2="110.761" gradientUnits="userSpaceOnUse">
<stop stop-color="#423A69" stop-opacity="0.1"/>
<stop offset="0.59184" stop-color="#916AF3" stop-opacity="0.249365"/>
<stop offset="1" stop-color="#AB83FF" stop-opacity="0.13"/>
</linearGradient>
<linearGradient id="paint1_linear_266_4340" x1="-777.217" y1="672.966" x2="1494.64" y2="106.509" gradientUnits="userSpaceOnUse">
<stop stop-color="#423A69" stop-opacity="0.1"/>
<stop offset="0.59184" stop-color="#916AF3" stop-opacity="0.249365"/>
<stop offset="1" stop-color="#AB83FF" stop-opacity="0.13"/>
</linearGradient>
<linearGradient id="paint2_linear_266_4340" x1="-764.815" y1="666.873" x2="1486.1" y2="102.415" gradientUnits="userSpaceOnUse">
<stop stop-color="#423A69" stop-opacity="0.1"/>
<stop offset="0.59184" stop-color="#916AF3" stop-opacity="0.249365"/>
<stop offset="1" stop-color="#AB83FF" stop-opacity="0.13"/>
</linearGradient>
<linearGradient id="paint3_linear_266_4340" x1="-752.024" y1="661.466" x2="1479.09" y2="98.7826" gradientUnits="userSpaceOnUse">
<stop stop-color="#423A69" stop-opacity="0.1"/>
<stop offset="0.59184" stop-color="#916AF3" stop-opacity="0.249365"/>
<stop offset="1" stop-color="#AB83FF" stop-opacity="0.13"/>
</linearGradient>
<linearGradient id="paint4_linear_266_4340" x1="-738.608" y1="655.648" x2="1474.17" y2="93.684" gradientUnits="userSpaceOnUse">
<stop stop-color="#423A69" stop-opacity="0.1"/>
<stop offset="0.59184" stop-color="#916AF3" stop-opacity="0.249365"/>
<stop offset="1" stop-color="#AB83FF" stop-opacity="0.13"/>
</linearGradient>
<linearGradient id="paint5_linear_266_4340" x1="-724.344" y1="649.918" x2="1472.29" y2="87.6074" gradientUnits="userSpaceOnUse">
<stop stop-color="#423A69" stop-opacity="0.1"/>
<stop offset="0.59184" stop-color="#916AF3" stop-opacity="0.249365"/>
<stop offset="1" stop-color="#AB83FF" stop-opacity="0.13"/>
</linearGradient>
<linearGradient id="paint6_linear_266_4340" x1="-710.051" y1="644.434" x2="1470.52" y2="81.8085" gradientUnits="userSpaceOnUse">
<stop stop-color="#423A69" stop-opacity="0.1"/>
<stop offset="0.59184" stop-color="#916AF3" stop-opacity="0.249365"/>
<stop offset="1" stop-color="#AB83FF" stop-opacity="0.13"/>
</linearGradient>
<linearGradient id="paint7_linear_266_4340" x1="-695.773" y1="639.518" x2="1468.84" y2="76.8719" gradientUnits="userSpaceOnUse">
<stop stop-color="#423A69" stop-opacity="0.1"/>
<stop offset="0.59184" stop-color="#916AF3" stop-opacity="0.249365"/>
<stop offset="1" stop-color="#AB83FF" stop-opacity="0.13"/>
</linearGradient>
<linearGradient id="paint8_linear_266_4340" x1="-681.442" y1="634.72" x2="1467.14" y2="72.0558" gradientUnits="userSpaceOnUse">
<stop stop-color="#423A69" stop-opacity="0.1"/>
<stop offset="0.59184" stop-color="#916AF3" stop-opacity="0.249365"/>
<stop offset="1" stop-color="#AB83FF" stop-opacity="0.13"/>
</linearGradient>
<linearGradient id="paint9_linear_266_4340" x1="-667.111" y1="630.344" x2="1465.54" y2="67.8714" gradientUnits="userSpaceOnUse">
<stop stop-color="#423A69" stop-opacity="0.1"/>
<stop offset="0.59184" stop-color="#916AF3" stop-opacity="0.249365"/>
<stop offset="1" stop-color="#AB83FF" stop-opacity="0.13"/>
</linearGradient>
<linearGradient id="paint10_linear_266_4340" x1="-652.78" y1="626.968" x2="1464.18" y2="65.1361" gradientUnits="userSpaceOnUse">
<stop stop-color="#423A69" stop-opacity="0.1"/>
<stop offset="0.59184" stop-color="#916AF3" stop-opacity="0.249365"/>
<stop offset="1" stop-color="#AB83FF" stop-opacity="0.13"/>
</linearGradient>
<linearGradient id="paint11_linear_266_4340" x1="-638.502" y1="624.034" x2="1462.92" y2="63.0231" gradientUnits="userSpaceOnUse">
<stop stop-color="#423A69" stop-opacity="0.1"/>
<stop offset="0.59184" stop-color="#916AF3" stop-opacity="0.249365"/>
<stop offset="1" stop-color="#AB83FF" stop-opacity="0.13"/>
</linearGradient>
<linearGradient id="paint12_linear_266_4340" x1="-624.171" y1="622.326" x2="1462.01" y2="62.7839" gradientUnits="userSpaceOnUse">
<stop stop-color="#423A69" stop-opacity="0.1"/>
<stop offset="0.59184" stop-color="#916AF3" stop-opacity="0.249365"/>
<stop offset="1" stop-color="#AB83FF" stop-opacity="0.13"/>
</linearGradient>
<linearGradient id="paint13_linear_266_4340" x1="-609.855" y1="622.207" x2="1461.51" y2="64.9525" gradientUnits="userSpaceOnUse">
<stop stop-color="#423A69" stop-opacity="0.1"/>
<stop offset="0.59184" stop-color="#916AF3" stop-opacity="0.249365"/>
<stop offset="1" stop-color="#AB83FF" stop-opacity="0.13"/>
</linearGradient>
<linearGradient id="paint14_linear_266_4340" x1="-595.524" y1="624.619" x2="1461.87" y2="71.018" gradientUnits="userSpaceOnUse">
<stop stop-color="#423A69" stop-opacity="0.1"/>
<stop offset="0.59184" stop-color="#916AF3" stop-opacity="0.249365"/>
<stop offset="1" stop-color="#AB83FF" stop-opacity="0.13"/>
</linearGradient>
<linearGradient id="paint15_linear_266_4340" x1="-581.193" y1="629.111" x2="1462.85" y2="80.2369" gradientUnits="userSpaceOnUse">
<stop stop-color="#423A69" stop-opacity="0.1"/>
<stop offset="0.59184" stop-color="#916AF3" stop-opacity="0.249365"/>
<stop offset="1" stop-color="#AB83FF" stop-opacity="0.13"/>
</linearGradient>
<linearGradient id="paint16_linear_266_4340" x1="-566.915" y1="644.638" x2="1467.14" y2="106.276" gradientUnits="userSpaceOnUse">
<stop stop-color="#423A69" stop-opacity="0.1"/>
<stop offset="0.59184" stop-color="#916AF3" stop-opacity="0.249365"/>
<stop offset="1" stop-color="#AB83FF" stop-opacity="0.13"/>
</linearGradient>
<linearGradient id="paint17_linear_266_4340" x1="-552.744" y1="666.815" x2="1473.14" y2="142.171" gradientUnits="userSpaceOnUse">
<stop stop-color="#423A69" stop-opacity="0.1"/>
<stop offset="0.59184" stop-color="#916AF3" stop-opacity="0.249365"/>
<stop offset="1" stop-color="#AB83FF" stop-opacity="0.13"/>
</linearGradient>
<linearGradient id="paint18_linear_266_4340" x1="-538.574" y1="689.552" x2="1478.95" y2="178.517" gradientUnits="userSpaceOnUse">
<stop stop-color="#423A69" stop-opacity="0.1"/>
<stop offset="0.59184" stop-color="#916AF3" stop-opacity="0.249365"/>
<stop offset="1" stop-color="#AB83FF" stop-opacity="0.13"/>
</linearGradient>
<linearGradient id="paint19_linear_266_4340" x1="-524.403" y1="712.78" x2="1484.54" y2="215.23" gradientUnits="userSpaceOnUse">
<stop stop-color="#423A69" stop-opacity="0.1"/>
<stop offset="0.59184" stop-color="#916AF3" stop-opacity="0.249365"/>
<stop offset="1" stop-color="#AB83FF" stop-opacity="0.13"/>
</linearGradient>
<linearGradient id="paint20_linear_266_4340" x1="-510.286" y1="736.468" x2="1489.9" y2="252.199" gradientUnits="userSpaceOnUse">
<stop stop-color="#423A69" stop-opacity="0.1"/>
<stop offset="0.59184" stop-color="#916AF3" stop-opacity="0.249365"/>
<stop offset="1" stop-color="#AB83FF" stop-opacity="0.13"/>
</linearGradient>
<linearGradient id="paint21_linear_266_4340" x1="-496.115" y1="762.834" x2="1495.55" y2="292.693" gradientUnits="userSpaceOnUse">
<stop stop-color="#423A69" stop-opacity="0.1"/>
<stop offset="0.59184" stop-color="#916AF3" stop-opacity="0.249365"/>
<stop offset="1" stop-color="#AB83FF" stop-opacity="0.13"/>
</linearGradient>
</defs>
</svg>
