<svg width="585" height="35" viewBox="0 0 585 35" fill="none" xmlns="http://www.w3.org/2000/svg">
<rect x="482" width="103" height="35" rx="17.5" fill="#212B3D"/>
<path d="M506.442 23V13.2H509.886C510.576 13.2 511.146 13.312 511.594 13.536C512.051 13.7507 512.392 14.0493 512.616 14.432C512.84 14.8053 512.952 15.2253 512.952 15.692C512.952 16.196 512.84 16.616 512.616 16.952C512.401 17.288 512.116 17.5447 511.762 17.722C511.416 17.8993 511.048 18.0067 510.656 18.044L510.852 17.904C511.272 17.9133 511.659 18.0253 512.014 18.24C512.368 18.4547 512.648 18.744 512.854 19.108C513.068 19.472 513.176 19.878 513.176 20.326C513.176 20.8207 513.054 21.2733 512.812 21.684C512.569 22.0853 512.21 22.4073 511.734 22.65C511.267 22.8833 510.688 23 509.998 23H506.442ZM507.618 22.02H509.872C510.534 22.02 511.048 21.866 511.412 21.558C511.785 21.2407 511.972 20.802 511.972 20.242C511.972 19.6913 511.78 19.2527 511.398 18.926C511.024 18.59 510.506 18.422 509.844 18.422H507.618V22.02ZM507.618 17.484H509.802C510.436 17.484 510.917 17.3347 511.244 17.036C511.58 16.7373 511.748 16.3313 511.748 15.818C511.748 15.3233 511.58 14.9267 511.244 14.628C510.917 14.3293 510.422 14.18 509.76 14.18H507.618V17.484ZM517.271 23.168C516.73 23.168 516.254 23.0607 515.843 22.846C515.442 22.6313 515.129 22.3 514.905 21.852C514.691 21.404 514.583 20.844 514.583 20.172V15.944H515.759V20.046C515.759 20.746 515.913 21.2733 516.221 21.628C516.529 21.9827 516.963 22.16 517.523 22.16C517.915 22.16 518.27 22.0667 518.587 21.88C518.905 21.684 519.152 21.4087 519.329 21.054C519.516 20.69 519.609 20.2467 519.609 19.724V15.944H520.785V23H519.721L519.651 21.768C519.437 22.2067 519.119 22.552 518.699 22.804C518.279 23.0467 517.803 23.168 517.271 23.168ZM525.297 23.168C524.709 23.168 524.195 23.07 523.757 22.874C523.327 22.678 522.982 22.4073 522.721 22.062C522.469 21.7073 522.315 21.292 522.259 20.816H523.463C523.509 21.0587 523.607 21.2827 523.757 21.488C523.906 21.6933 524.107 21.8613 524.359 21.992C524.62 22.1133 524.937 22.174 525.311 22.174C525.637 22.174 525.908 22.1273 526.123 22.034C526.337 21.9313 526.496 21.796 526.599 21.628C526.711 21.46 526.767 21.278 526.767 21.082C526.767 20.7927 526.697 20.5733 526.557 20.424C526.426 20.2747 526.23 20.158 525.969 20.074C525.707 19.9807 525.39 19.9013 525.017 19.836C524.709 19.78 524.405 19.7053 524.107 19.612C523.808 19.5187 523.542 19.3973 523.309 19.248C523.075 19.0893 522.889 18.898 522.749 18.674C522.618 18.45 522.553 18.1747 522.553 17.848C522.553 17.4467 522.655 17.092 522.861 16.784C523.066 16.4667 523.36 16.2193 523.743 16.042C524.135 15.8647 524.587 15.776 525.101 15.776C525.857 15.776 526.468 15.958 526.935 16.322C527.401 16.686 527.677 17.2133 527.761 17.904H526.599C526.552 17.5493 526.398 17.274 526.137 17.078C525.885 16.8727 525.535 16.77 525.087 16.77C524.648 16.77 524.312 16.8587 524.079 17.036C523.855 17.2133 523.743 17.4467 523.743 17.736C523.743 17.9227 523.803 18.0907 523.925 18.24C524.055 18.38 524.242 18.5013 524.485 18.604C524.737 18.7067 525.045 18.7907 525.409 18.856C525.875 18.94 526.3 19.052 526.683 19.192C527.065 19.332 527.373 19.542 527.607 19.822C527.849 20.0927 527.971 20.48 527.971 20.984C527.971 21.4227 527.859 21.8053 527.635 22.132C527.42 22.4587 527.112 22.7153 526.711 22.902C526.309 23.0793 525.838 23.168 525.297 23.168ZM529.678 23V15.944H530.854V23H529.678ZM530.266 14.446C530.033 14.446 529.837 14.3713 529.678 14.222C529.529 14.0633 529.454 13.8673 529.454 13.634C529.454 13.4007 529.529 13.214 529.678 13.074C529.837 12.9247 530.033 12.85 530.266 12.85C530.49 12.85 530.681 12.9247 530.84 13.074C530.999 13.214 531.078 13.4007 531.078 13.634C531.078 13.8673 530.999 14.0633 530.84 14.222C530.681 14.3713 530.49 14.446 530.266 14.446ZM532.831 23V15.944H533.895L533.951 17.176C534.175 16.7373 534.493 16.3967 534.903 16.154C535.323 15.902 535.799 15.776 536.331 15.776C536.882 15.776 537.358 15.888 537.759 16.112C538.161 16.3267 538.473 16.658 538.697 17.106C538.921 17.5447 539.033 18.1047 539.033 18.786V23H537.857V18.912C537.857 18.2027 537.699 17.6707 537.381 17.316C537.073 16.9613 536.635 16.784 536.065 16.784C535.673 16.784 535.323 16.882 535.015 17.078C534.707 17.2647 534.46 17.54 534.273 17.904C534.096 18.2587 534.007 18.702 534.007 19.234V23H532.831ZM543.866 23.168C543.204 23.168 542.616 23.014 542.102 22.706C541.598 22.398 541.202 21.9687 540.912 21.418C540.623 20.858 540.478 20.2093 540.478 19.472C540.478 18.7253 540.618 18.0767 540.898 17.526C541.188 16.9753 541.589 16.546 542.102 16.238C542.625 15.93 543.222 15.776 543.894 15.776C544.585 15.776 545.168 15.93 545.644 16.238C546.13 16.546 546.498 16.952 546.75 17.456C547.012 17.9507 547.142 18.4967 547.142 19.094C547.142 19.1873 547.142 19.2853 547.142 19.388C547.142 19.4907 547.138 19.6073 547.128 19.738H541.36V18.828H545.994C545.966 18.184 545.752 17.68 545.35 17.316C544.958 16.952 544.464 16.77 543.866 16.77C543.465 16.77 543.092 16.8633 542.746 17.05C542.41 17.2273 542.14 17.4933 541.934 17.848C541.729 18.1933 541.626 18.6273 541.626 19.15V19.542C541.626 20.1207 541.729 20.606 541.934 20.998C542.149 21.39 542.424 21.684 542.76 21.88C543.106 22.076 543.474 22.174 543.866 22.174C544.361 22.174 544.767 22.0667 545.084 21.852C545.411 21.628 545.644 21.3293 545.784 20.956H546.946C546.834 21.376 546.638 21.754 546.358 22.09C546.078 22.426 545.728 22.692 545.308 22.888C544.898 23.0747 544.417 23.168 543.866 23.168ZM551.291 23.168C550.703 23.168 550.19 23.07 549.751 22.874C549.322 22.678 548.977 22.4073 548.715 22.062C548.463 21.7073 548.309 21.292 548.253 20.816H549.457C549.504 21.0587 549.602 21.2827 549.751 21.488C549.901 21.6933 550.101 21.8613 550.353 21.992C550.615 22.1133 550.932 22.174 551.305 22.174C551.632 22.174 551.903 22.1273 552.117 22.034C552.332 21.9313 552.491 21.796 552.593 21.628C552.705 21.46 552.761 21.278 552.761 21.082C552.761 20.7927 552.691 20.5733 552.551 20.424C552.421 20.2747 552.225 20.158 551.963 20.074C551.702 19.9807 551.385 19.9013 551.011 19.836C550.703 19.78 550.4 19.7053 550.101 19.612C549.803 19.5187 549.537 19.3973 549.303 19.248C549.07 19.0893 548.883 18.898 548.743 18.674C548.613 18.45 548.547 18.1747 548.547 17.848C548.547 17.4467 548.65 17.092 548.855 16.784C549.061 16.4667 549.355 16.2193 549.737 16.042C550.129 15.8647 550.582 15.776 551.095 15.776C551.851 15.776 552.463 15.958 552.929 16.322C553.396 16.686 553.671 17.2133 553.755 17.904H552.593C552.547 17.5493 552.393 17.274 552.131 17.078C551.879 16.8727 551.529 16.77 551.081 16.77C550.643 16.77 550.307 16.8587 550.073 17.036C549.849 17.2133 549.737 17.4467 549.737 17.736C549.737 17.9227 549.798 18.0907 549.919 18.24C550.05 18.38 550.237 18.5013 550.479 18.604C550.731 18.7067 551.039 18.7907 551.403 18.856C551.87 18.94 552.295 19.052 552.677 19.192C553.06 19.332 553.368 19.542 553.601 19.822C553.844 20.0927 553.965 20.48 553.965 20.984C553.965 21.4227 553.853 21.8053 553.629 22.132C553.415 22.4587 553.107 22.7153 552.705 22.902C552.304 23.0793 551.833 23.168 551.291 23.168ZM558.221 23.168C557.633 23.168 557.119 23.07 556.681 22.874C556.251 22.678 555.906 22.4073 555.645 22.062C555.393 21.7073 555.239 21.292 555.183 20.816H556.387C556.433 21.0587 556.531 21.2827 556.681 21.488C556.83 21.6933 557.031 21.8613 557.283 21.992C557.544 22.1133 557.861 22.174 558.235 22.174C558.561 22.174 558.832 22.1273 559.047 22.034C559.261 21.9313 559.42 21.796 559.523 21.628C559.635 21.46 559.691 21.278 559.691 21.082C559.691 20.7927 559.621 20.5733 559.481 20.424C559.35 20.2747 559.154 20.158 558.893 20.074C558.631 19.9807 558.314 19.9013 557.941 19.836C557.633 19.78 557.329 19.7053 557.031 19.612C556.732 19.5187 556.466 19.3973 556.233 19.248C555.999 19.0893 555.813 18.898 555.673 18.674C555.542 18.45 555.477 18.1747 555.477 17.848C555.477 17.4467 555.579 17.092 555.785 16.784C555.99 16.4667 556.284 16.2193 556.667 16.042C557.059 15.8647 557.511 15.776 558.025 15.776C558.781 15.776 559.392 15.958 559.859 16.322C560.325 16.686 560.601 17.2133 560.685 17.904H559.523C559.476 17.5493 559.322 17.274 559.061 17.078C558.809 16.8727 558.459 16.77 558.011 16.77C557.572 16.77 557.236 16.8587 557.003 17.036C556.779 17.2133 556.667 17.4467 556.667 17.736C556.667 17.9227 556.727 18.0907 556.849 18.24C556.979 18.38 557.166 18.5013 557.409 18.604C557.661 18.7067 557.969 18.7907 558.333 18.856C558.799 18.94 559.224 19.052 559.607 19.192C559.989 19.332 560.297 19.542 560.531 19.822C560.773 20.0927 560.895 20.48 560.895 20.984C560.895 21.4227 560.783 21.8053 560.559 22.132C560.344 22.4587 560.036 22.7153 559.635 22.902C559.233 23.0793 558.762 23.168 558.221 23.168Z" fill="white"/>
<rect width="112" height="35" rx="17.5" fill="#212141"/>
<rect x="244" width="112" height="35" rx="17.5" fill="#212141"/>
<rect x="365" width="112" height="35" rx="17.5" fill="#212141"/>
<rect x="122" width="112" height="35" rx="17.5" fill="#212141"/>
<path d="M29.4418 23V13.2H32.8858C33.5765 13.2 34.1458 13.312 34.5938 13.536C35.0512 13.7507 35.3918 14.0493 35.6158 14.432C35.8398 14.8053 35.9518 15.2253 35.9518 15.692C35.9518 16.196 35.8398 16.616 35.6158 16.952C35.4012 17.288 35.1165 17.5447 34.7618 17.722C34.4165 17.8993 34.0478 18.0067 33.6558 18.044L33.8518 17.904C34.2718 17.9133 34.6592 18.0253 35.0138 18.24C35.3685 18.4547 35.6485 18.744 35.8538 19.108C36.0685 19.472 36.1758 19.878 36.1758 20.326C36.1758 20.8207 36.0545 21.2733 35.8118 21.684C35.5692 22.0853 35.2098 22.4073 34.7338 22.65C34.2672 22.8833 33.6885 23 32.9978 23H29.4418ZM30.6178 22.02H32.8718C33.5345 22.02 34.0478 21.866 34.4118 21.558C34.7852 21.2407 34.9718 20.802 34.9718 20.242C34.9718 19.6913 34.7805 19.2527 34.3978 18.926C34.0245 18.59 33.5065 18.422 32.8438 18.422H30.6178V22.02ZM30.6178 17.484H32.8018C33.4365 17.484 33.9172 17.3347 34.2438 17.036C34.5798 16.7373 34.7478 16.3313 34.7478 15.818C34.7478 15.3233 34.5798 14.9267 34.2438 14.628C33.9172 14.3293 33.4225 14.18 32.7598 14.18H30.6178V17.484ZM40.2714 23.168C39.73 23.168 39.254 23.0607 38.8434 22.846C38.442 22.6313 38.1294 22.3 37.9054 21.852C37.6907 21.404 37.5834 20.844 37.5834 20.172V15.944H38.7594V20.046C38.7594 20.746 38.9134 21.2733 39.2214 21.628C39.5294 21.9827 39.9634 22.16 40.5234 22.16C40.9154 22.16 41.27 22.0667 41.5874 21.88C41.9047 21.684 42.152 21.4087 42.3294 21.054C42.516 20.69 42.6094 20.2467 42.6094 19.724V15.944H43.7854V23H42.7214L42.6514 21.768C42.4367 22.2067 42.1194 22.552 41.6994 22.804C41.2794 23.0467 40.8034 23.168 40.2714 23.168ZM48.2968 23.168C47.7088 23.168 47.1954 23.07 46.7568 22.874C46.3274 22.678 45.9821 22.4073 45.7208 22.062C45.4688 21.7073 45.3148 21.292 45.2588 20.816H46.4628C46.5094 21.0587 46.6074 21.2827 46.7568 21.488C46.9061 21.6933 47.1068 21.8613 47.3588 21.992C47.6201 22.1133 47.9374 22.174 48.3108 22.174C48.6374 22.174 48.9081 22.1273 49.1228 22.034C49.3374 21.9313 49.4961 21.796 49.5988 21.628C49.7108 21.46 49.7668 21.278 49.7668 21.082C49.7668 20.7927 49.6968 20.5733 49.5568 20.424C49.4261 20.2747 49.2301 20.158 48.9688 20.074C48.7074 19.9807 48.3901 19.9013 48.0168 19.836C47.7088 19.78 47.4054 19.7053 47.1068 19.612C46.8081 19.5187 46.5421 19.3973 46.3088 19.248C46.0754 19.0893 45.8888 18.898 45.7488 18.674C45.6181 18.45 45.5528 18.1747 45.5528 17.848C45.5528 17.4467 45.6554 17.092 45.8608 16.784C46.0661 16.4667 46.3601 16.2193 46.7428 16.042C47.1348 15.8647 47.5874 15.776 48.1008 15.776C48.8568 15.776 49.4681 15.958 49.9348 16.322C50.4014 16.686 50.6768 17.2133 50.7608 17.904H49.5988C49.5521 17.5493 49.3981 17.274 49.1368 17.078C48.8848 16.8727 48.5348 16.77 48.0868 16.77C47.6481 16.77 47.3121 16.8587 47.0788 17.036C46.8548 17.2133 46.7428 17.4467 46.7428 17.736C46.7428 17.9227 46.8034 18.0907 46.9248 18.24C47.0554 18.38 47.2421 18.5013 47.4848 18.604C47.7368 18.7067 48.0448 18.7907 48.4088 18.856C48.8754 18.94 49.3001 19.052 49.6828 19.192C50.0654 19.332 50.3734 19.542 50.6068 19.822C50.8494 20.0927 50.9708 20.48 50.9708 20.984C50.9708 21.4227 50.8588 21.8053 50.6348 22.132C50.4201 22.4587 50.1121 22.7153 49.7108 22.902C49.3094 23.0793 48.8381 23.168 48.2968 23.168ZM52.6781 23V15.944H53.8541V23H52.6781ZM53.2661 14.446C53.0328 14.446 52.8368 14.3713 52.6781 14.222C52.5288 14.0633 52.4541 13.8673 52.4541 13.634C52.4541 13.4007 52.5288 13.214 52.6781 13.074C52.8368 12.9247 53.0328 12.85 53.2661 12.85C53.4901 12.85 53.6814 12.9247 53.8401 13.074C53.9988 13.214 54.0781 13.4007 54.0781 13.634C54.0781 13.8673 53.9988 14.0633 53.8401 14.222C53.6814 14.3713 53.4901 14.446 53.2661 14.446ZM55.8314 23V15.944H56.8954L56.9514 17.176C57.1754 16.7373 57.4927 16.3967 57.9034 16.154C58.3234 15.902 58.7994 15.776 59.3314 15.776C59.8821 15.776 60.3581 15.888 60.7594 16.112C61.1607 16.3267 61.4734 16.658 61.6974 17.106C61.9214 17.5447 62.0334 18.1047 62.0334 18.786V23H60.8574V18.912C60.8574 18.2027 60.6987 17.6707 60.3814 17.316C60.0734 16.9613 59.6347 16.784 59.0654 16.784C58.6734 16.784 58.3234 16.882 58.0154 17.078C57.7074 17.2647 57.4601 17.54 57.2734 17.904C57.0961 18.2587 57.0074 18.702 57.0074 19.234V23H55.8314ZM66.8665 23.168C66.2038 23.168 65.6158 23.014 65.1025 22.706C64.5985 22.398 64.2018 21.9687 63.9125 21.418C63.6231 20.858 63.4784 20.2093 63.4784 19.472C63.4784 18.7253 63.6184 18.0767 63.8985 17.526C64.1878 16.9753 64.5891 16.546 65.1025 16.238C65.6251 15.93 66.2225 15.776 66.8945 15.776C67.5851 15.776 68.1685 15.93 68.6445 16.238C69.1298 16.546 69.4985 16.952 69.7505 17.456C70.0118 17.9507 70.1425 18.4967 70.1425 19.094C70.1425 19.1873 70.1425 19.2853 70.1425 19.388C70.1425 19.4907 70.1378 19.6073 70.1285 19.738H64.3604V18.828H68.9945C68.9665 18.184 68.7518 17.68 68.3505 17.316C67.9585 16.952 67.4638 16.77 66.8665 16.77C66.4651 16.77 66.0918 16.8633 65.7465 17.05C65.4105 17.2273 65.1398 17.4933 64.9345 17.848C64.7291 18.1933 64.6265 18.6273 64.6265 19.15V19.542C64.6265 20.1207 64.7291 20.606 64.9345 20.998C65.1491 21.39 65.4245 21.684 65.7605 21.88C66.1058 22.076 66.4745 22.174 66.8665 22.174C67.3611 22.174 67.7671 22.0667 68.0845 21.852C68.4111 21.628 68.6445 21.3293 68.7845 20.956H69.9465C69.8345 21.376 69.6385 21.754 69.3585 22.09C69.0785 22.426 68.7285 22.692 68.3085 22.888C67.8978 23.0747 67.4171 23.168 66.8665 23.168ZM74.2915 23.168C73.7035 23.168 73.1901 23.07 72.7515 22.874C72.3221 22.678 71.9768 22.4073 71.7155 22.062C71.4635 21.7073 71.3095 21.292 71.2535 20.816H72.4575C72.5041 21.0587 72.6021 21.2827 72.7515 21.488C72.9008 21.6933 73.1015 21.8613 73.3535 21.992C73.6148 22.1133 73.9321 22.174 74.3055 22.174C74.6321 22.174 74.9028 22.1273 75.1175 22.034C75.3321 21.9313 75.4908 21.796 75.5935 21.628C75.7055 21.46 75.7615 21.278 75.7615 21.082C75.7615 20.7927 75.6915 20.5733 75.5515 20.424C75.4208 20.2747 75.2248 20.158 74.9635 20.074C74.7021 19.9807 74.3848 19.9013 74.0115 19.836C73.7035 19.78 73.4001 19.7053 73.1015 19.612C72.8028 19.5187 72.5368 19.3973 72.3035 19.248C72.0701 19.0893 71.8835 18.898 71.7435 18.674C71.6128 18.45 71.5475 18.1747 71.5475 17.848C71.5475 17.4467 71.6501 17.092 71.8555 16.784C72.0608 16.4667 72.3548 16.2193 72.7375 16.042C73.1295 15.8647 73.5821 15.776 74.0955 15.776C74.8515 15.776 75.4628 15.958 75.9295 16.322C76.3961 16.686 76.6715 17.2133 76.7555 17.904H75.5935C75.5468 17.5493 75.3928 17.274 75.1315 17.078C74.8795 16.8727 74.5295 16.77 74.0815 16.77C73.6428 16.77 73.3068 16.8587 73.0735 17.036C72.8495 17.2133 72.7375 17.4467 72.7375 17.736C72.7375 17.9227 72.7981 18.0907 72.9195 18.24C73.0501 18.38 73.2368 18.5013 73.4795 18.604C73.7315 18.7067 74.0395 18.7907 74.4035 18.856C74.8701 18.94 75.2948 19.052 75.6775 19.192C76.0601 19.332 76.3681 19.542 76.6015 19.822C76.8441 20.0927 76.9655 20.48 76.9655 20.984C76.9655 21.4227 76.8535 21.8053 76.6295 22.132C76.4148 22.4587 76.1068 22.7153 75.7055 22.902C75.3041 23.0793 74.8328 23.168 74.2915 23.168ZM81.2208 23.168C80.6328 23.168 80.1195 23.07 79.6808 22.874C79.2515 22.678 78.9062 22.4073 78.6448 22.062C78.3928 21.7073 78.2388 21.292 78.1828 20.816H79.3868C79.4335 21.0587 79.5315 21.2827 79.6808 21.488C79.8302 21.6933 80.0308 21.8613 80.2828 21.992C80.5442 22.1133 80.8615 22.174 81.2348 22.174C81.5615 22.174 81.8322 22.1273 82.0468 22.034C82.2615 21.9313 82.4202 21.796 82.5228 21.628C82.6348 21.46 82.6908 21.278 82.6908 21.082C82.6908 20.7927 82.6208 20.5733 82.4808 20.424C82.3502 20.2747 82.1542 20.158 81.8928 20.074C81.6315 19.9807 81.3142 19.9013 80.9408 19.836C80.6328 19.78 80.3295 19.7053 80.0308 19.612C79.7322 19.5187 79.4662 19.3973 79.2328 19.248C78.9995 19.0893 78.8128 18.898 78.6728 18.674C78.5422 18.45 78.4768 18.1747 78.4768 17.848C78.4768 17.4467 78.5795 17.092 78.7848 16.784C78.9902 16.4667 79.2842 16.2193 79.6668 16.042C80.0588 15.8647 80.5115 15.776 81.0248 15.776C81.7808 15.776 82.3922 15.958 82.8588 16.322C83.3255 16.686 83.6008 17.2133 83.6848 17.904H82.5228C82.4762 17.5493 82.3222 17.274 82.0608 17.078C81.8088 16.8727 81.4588 16.77 81.0108 16.77C80.5722 16.77 80.2362 16.8587 80.0028 17.036C79.7788 17.2133 79.6668 17.4467 79.6668 17.736C79.6668 17.9227 79.7275 18.0907 79.8488 18.24C79.9795 18.38 80.1662 18.5013 80.4088 18.604C80.6608 18.7067 80.9688 18.7907 81.3328 18.856C81.7995 18.94 82.2242 19.052 82.6068 19.192C82.9895 19.332 83.2975 19.542 83.5308 19.822C83.7735 20.0927 83.8948 20.48 83.8948 20.984C83.8948 21.4227 83.7828 21.8053 83.5588 22.132C83.3442 22.4587 83.0362 22.7153 82.6348 22.902C82.2335 23.0793 81.7622 23.168 81.2208 23.168Z" fill="#AEB9E1"/>
<path d="M264.448 23L268.06 13.2H269.306L272.904 23H271.658L268.676 14.67L265.68 23H264.448ZM266.1 20.48L266.436 19.528H270.874L271.21 20.48H266.1ZM274.207 26.08V15.944H275.271L275.369 17.092C275.518 16.868 275.71 16.658 275.943 16.462C276.176 16.2567 276.456 16.0933 276.783 15.972C277.11 15.8413 277.483 15.776 277.903 15.776C278.594 15.776 279.191 15.9393 279.695 16.266C280.208 16.5927 280.605 17.036 280.885 17.596C281.174 18.1467 281.319 18.7767 281.319 19.486C281.319 20.1953 281.174 20.83 280.885 21.39C280.605 21.9407 280.208 22.3747 279.695 22.692C279.182 23.0093 278.58 23.168 277.889 23.168C277.32 23.168 276.816 23.0513 276.377 22.818C275.948 22.5847 275.616 22.258 275.383 21.838V26.08H274.207ZM277.763 22.146C278.22 22.146 278.626 22.034 278.981 21.81C279.336 21.586 279.611 21.278 279.807 20.886C280.012 20.4847 280.115 20.0133 280.115 19.472C280.115 18.94 280.012 18.4733 279.807 18.072C279.611 17.6707 279.336 17.358 278.981 17.134C278.626 16.91 278.22 16.798 277.763 16.798C277.296 16.798 276.886 16.91 276.531 17.134C276.176 17.358 275.901 17.6707 275.705 18.072C275.509 18.4733 275.411 18.94 275.411 19.472C275.411 20.0133 275.509 20.4847 275.705 20.886C275.901 21.278 276.176 21.586 276.531 21.81C276.886 22.034 277.296 22.146 277.763 22.146ZM282.873 26.08V15.944H283.937L284.035 17.092C284.184 16.868 284.375 16.658 284.609 16.462C284.842 16.2567 285.122 16.0933 285.449 15.972C285.775 15.8413 286.149 15.776 286.569 15.776C287.259 15.776 287.857 15.9393 288.361 16.266C288.874 16.5927 289.271 17.036 289.551 17.596C289.84 18.1467 289.985 18.7767 289.985 19.486C289.985 20.1953 289.84 20.83 289.551 21.39C289.271 21.9407 288.874 22.3747 288.361 22.692C287.847 23.0093 287.245 23.168 286.555 23.168C285.985 23.168 285.481 23.0513 285.043 22.818C284.613 22.5847 284.282 22.258 284.049 21.838V26.08H282.873ZM286.429 22.146C286.886 22.146 287.292 22.034 287.647 21.81C288.001 21.586 288.277 21.278 288.473 20.886C288.678 20.4847 288.781 20.0133 288.781 19.472C288.781 18.94 288.678 18.4733 288.473 18.072C288.277 17.6707 288.001 17.358 287.647 17.134C287.292 16.91 286.886 16.798 286.429 16.798C285.962 16.798 285.551 16.91 285.197 17.134C284.842 17.358 284.567 17.6707 284.371 18.072C284.175 18.4733 284.077 18.94 284.077 19.472C284.077 20.0133 284.175 20.4847 284.371 20.886C284.567 21.278 284.842 21.586 285.197 21.81C285.551 22.034 285.962 22.146 286.429 22.146ZM291.538 23V12.92H292.714V23H291.538ZM294.669 23V15.944H295.845V23H294.669ZM295.257 14.446C295.024 14.446 294.828 14.3713 294.669 14.222C294.52 14.0633 294.445 13.8673 294.445 13.634C294.445 13.4007 294.52 13.214 294.669 13.074C294.828 12.9247 295.024 12.85 295.257 12.85C295.481 12.85 295.673 12.9247 295.831 13.074C295.99 13.214 296.069 13.4007 296.069 13.634C296.069 13.8673 295.99 14.0633 295.831 14.222C295.673 14.3713 295.481 14.446 295.257 14.446ZM301.001 23.168C300.338 23.168 299.741 23.014 299.209 22.706C298.686 22.398 298.275 21.9687 297.977 21.418C297.678 20.858 297.529 20.214 297.529 19.486C297.529 18.7393 297.678 18.0907 297.977 17.54C298.275 16.9893 298.686 16.56 299.209 16.252C299.741 15.9347 300.338 15.776 301.001 15.776C301.841 15.776 302.541 15.9953 303.101 16.434C303.661 16.8633 304.015 17.442 304.165 18.17H302.961C302.867 17.7313 302.639 17.3907 302.275 17.148C301.911 16.9053 301.481 16.784 300.987 16.784C300.585 16.784 300.212 16.8867 299.867 17.092C299.521 17.288 299.246 17.5867 299.041 17.988C298.835 18.3893 298.733 18.884 298.733 19.472C298.733 19.9107 298.793 20.3027 298.915 20.648C299.036 20.984 299.199 21.264 299.405 21.488C299.61 21.712 299.848 21.8847 300.119 22.006C300.399 22.118 300.688 22.174 300.987 22.174C301.323 22.174 301.626 22.1227 301.897 22.02C302.167 21.908 302.396 21.7447 302.583 21.53C302.769 21.3153 302.895 21.0633 302.961 20.774H304.165C304.015 21.4833 303.656 22.062 303.087 22.51C302.527 22.9487 301.831 23.168 301.001 23.168ZM308.032 23.168C307.463 23.168 306.987 23.07 306.604 22.874C306.222 22.6687 305.937 22.4027 305.75 22.076C305.564 21.74 305.47 21.376 305.47 20.984C305.47 20.508 305.592 20.1067 305.834 19.78C306.086 19.444 306.436 19.192 306.884 19.024C307.342 18.8467 307.878 18.758 308.494 18.758H310.356C310.356 18.3193 310.286 17.9553 310.146 17.666C310.016 17.3673 309.82 17.1433 309.558 16.994C309.306 16.8447 308.989 16.77 308.606 16.77C308.158 16.77 307.771 16.882 307.444 17.106C307.118 17.33 306.917 17.6613 306.842 18.1H305.638C305.694 17.596 305.862 17.176 306.142 16.84C306.432 16.4947 306.796 16.2333 307.234 16.056C307.673 15.8693 308.13 15.776 308.606 15.776C309.26 15.776 309.801 15.8973 310.23 16.14C310.669 16.3733 310.996 16.7047 311.21 17.134C311.425 17.554 311.532 18.0533 311.532 18.632V23H310.482L310.412 21.754C310.319 21.95 310.198 22.1367 310.048 22.314C309.908 22.482 309.74 22.6313 309.544 22.762C309.348 22.8833 309.124 22.9813 308.872 23.056C308.63 23.1307 308.35 23.168 308.032 23.168ZM308.214 22.174C308.541 22.174 308.835 22.1087 309.096 21.978C309.367 21.838 309.596 21.6513 309.782 21.418C309.969 21.1753 310.109 20.9093 310.202 20.62C310.305 20.3307 310.356 20.0273 310.356 19.71V19.668H308.592C308.135 19.668 307.766 19.724 307.486 19.836C307.206 19.9387 307.006 20.088 306.884 20.284C306.763 20.4707 306.702 20.6853 306.702 20.928C306.702 21.18 306.758 21.3993 306.87 21.586C306.992 21.7727 307.164 21.9173 307.388 22.02C307.622 22.1227 307.897 22.174 308.214 22.174ZM315.834 23C315.414 23 315.05 22.9347 314.742 22.804C314.434 22.6733 314.196 22.454 314.028 22.146C313.87 21.8287 313.79 21.404 313.79 20.872V16.938H312.558V15.944H313.79L313.944 14.236H314.966V15.944H317.01V16.938H314.966V20.872C314.966 21.3107 315.055 21.6093 315.232 21.768C315.41 21.9173 315.722 21.992 316.17 21.992H316.926V23H315.834ZM318.559 23V15.944H319.735V23H318.559ZM319.147 14.446C318.913 14.446 318.717 14.3713 318.559 14.222C318.409 14.0633 318.335 13.8673 318.335 13.634C318.335 13.4007 318.409 13.214 318.559 13.074C318.717 12.9247 318.913 12.85 319.147 12.85C319.371 12.85 319.562 12.9247 319.721 13.074C319.879 13.214 319.959 13.4007 319.959 13.634C319.959 13.8673 319.879 14.0633 319.721 14.222C319.562 14.3713 319.371 14.446 319.147 14.446ZM324.862 23.168C324.209 23.168 323.621 23.0187 323.098 22.72C322.575 22.412 322.165 21.9827 321.866 21.432C321.567 20.872 321.418 20.2233 321.418 19.486C321.418 18.73 321.567 18.0767 321.866 17.526C322.174 16.966 322.589 16.5367 323.112 16.238C323.644 15.93 324.237 15.776 324.89 15.776C325.562 15.776 326.155 15.93 326.668 16.238C327.191 16.5367 327.601 16.966 327.9 17.526C328.208 18.0767 328.362 18.7253 328.362 19.472C328.362 20.2187 328.208 20.872 327.9 21.432C327.592 21.9827 327.177 22.412 326.654 22.72C326.131 23.0187 325.534 23.168 324.862 23.168ZM324.876 22.16C325.277 22.16 325.651 22.062 325.996 21.866C326.341 21.6607 326.621 21.3573 326.836 20.956C327.051 20.5547 327.158 20.06 327.158 19.472C327.158 18.8747 327.051 18.38 326.836 17.988C326.631 17.5867 326.355 17.288 326.01 17.092C325.674 16.8867 325.301 16.784 324.89 16.784C324.498 16.784 324.125 16.8867 323.77 17.092C323.425 17.288 323.145 17.5867 322.93 17.988C322.725 18.38 322.622 18.8747 322.622 19.472C322.622 20.06 322.725 20.5547 322.93 20.956C323.145 21.3573 323.42 21.6607 323.756 21.866C324.101 22.062 324.475 22.16 324.876 22.16ZM329.913 23V15.944H330.977L331.033 17.176C331.257 16.7373 331.574 16.3967 331.985 16.154C332.405 15.902 332.881 15.776 333.413 15.776C333.964 15.776 334.44 15.888 334.841 16.112C335.242 16.3267 335.555 16.658 335.779 17.106C336.003 17.5447 336.115 18.1047 336.115 18.786V23H334.939V18.912C334.939 18.2027 334.78 17.6707 334.463 17.316C334.155 16.9613 333.716 16.784 333.147 16.784C332.755 16.784 332.405 16.882 332.097 17.078C331.789 17.2647 331.542 17.54 331.355 17.904C331.178 18.2587 331.089 18.702 331.089 19.234V23H329.913Z" fill="url(#paint0_linear_5009_45139)"/>
<path d="M394.442 23V13.2H397.886C398.576 13.2 399.146 13.312 399.594 13.536C400.051 13.7507 400.392 14.0493 400.616 14.432C400.84 14.8053 400.952 15.2253 400.952 15.692C400.952 16.196 400.84 16.616 400.616 16.952C400.401 17.288 400.116 17.5447 399.762 17.722C399.416 17.8993 399.048 18.0067 398.656 18.044L398.852 17.904C399.272 17.9133 399.659 18.0253 400.014 18.24C400.368 18.4547 400.648 18.744 400.854 19.108C401.068 19.472 401.176 19.878 401.176 20.326C401.176 20.8207 401.054 21.2733 400.812 21.684C400.569 22.0853 400.21 22.4073 399.734 22.65C399.267 22.8833 398.688 23 397.998 23H394.442ZM395.618 22.02H397.872C398.534 22.02 399.048 21.866 399.412 21.558C399.785 21.2407 399.972 20.802 399.972 20.242C399.972 19.6913 399.78 19.2527 399.398 18.926C399.024 18.59 398.506 18.422 397.844 18.422H395.618V22.02ZM395.618 17.484H397.802C398.436 17.484 398.917 17.3347 399.244 17.036C399.58 16.7373 399.748 16.3313 399.748 15.818C399.748 15.3233 399.58 14.9267 399.244 14.628C398.917 14.3293 398.422 14.18 397.76 14.18H395.618V17.484ZM405.271 23.168C404.73 23.168 404.254 23.0607 403.843 22.846C403.442 22.6313 403.129 22.3 402.905 21.852C402.691 21.404 402.583 20.844 402.583 20.172V15.944H403.759V20.046C403.759 20.746 403.913 21.2733 404.221 21.628C404.529 21.9827 404.963 22.16 405.523 22.16C405.915 22.16 406.27 22.0667 406.587 21.88C406.905 21.684 407.152 21.4087 407.329 21.054C407.516 20.69 407.609 20.2467 407.609 19.724V15.944H408.785V23H407.721L407.651 21.768C407.437 22.2067 407.119 22.552 406.699 22.804C406.279 23.0467 405.803 23.168 405.271 23.168ZM413.297 23.168C412.709 23.168 412.195 23.07 411.757 22.874C411.327 22.678 410.982 22.4073 410.721 22.062C410.469 21.7073 410.315 21.292 410.259 20.816H411.463C411.509 21.0587 411.607 21.2827 411.757 21.488C411.906 21.6933 412.107 21.8613 412.359 21.992C412.62 22.1133 412.937 22.174 413.311 22.174C413.637 22.174 413.908 22.1273 414.123 22.034C414.337 21.9313 414.496 21.796 414.599 21.628C414.711 21.46 414.767 21.278 414.767 21.082C414.767 20.7927 414.697 20.5733 414.557 20.424C414.426 20.2747 414.23 20.158 413.969 20.074C413.707 19.9807 413.39 19.9013 413.017 19.836C412.709 19.78 412.405 19.7053 412.107 19.612C411.808 19.5187 411.542 19.3973 411.309 19.248C411.075 19.0893 410.889 18.898 410.749 18.674C410.618 18.45 410.553 18.1747 410.553 17.848C410.553 17.4467 410.655 17.092 410.861 16.784C411.066 16.4667 411.36 16.2193 411.743 16.042C412.135 15.8647 412.587 15.776 413.101 15.776C413.857 15.776 414.468 15.958 414.935 16.322C415.401 16.686 415.677 17.2133 415.761 17.904H414.599C414.552 17.5493 414.398 17.274 414.137 17.078C413.885 16.8727 413.535 16.77 413.087 16.77C412.648 16.77 412.312 16.8587 412.079 17.036C411.855 17.2133 411.743 17.4467 411.743 17.736C411.743 17.9227 411.803 18.0907 411.925 18.24C412.055 18.38 412.242 18.5013 412.485 18.604C412.737 18.7067 413.045 18.7907 413.409 18.856C413.875 18.94 414.3 19.052 414.683 19.192C415.065 19.332 415.373 19.542 415.607 19.822C415.849 20.0927 415.971 20.48 415.971 20.984C415.971 21.4227 415.859 21.8053 415.635 22.132C415.42 22.4587 415.112 22.7153 414.711 22.902C414.309 23.0793 413.838 23.168 413.297 23.168ZM417.678 23V15.944H418.854V23H417.678ZM418.266 14.446C418.033 14.446 417.837 14.3713 417.678 14.222C417.529 14.0633 417.454 13.8673 417.454 13.634C417.454 13.4007 417.529 13.214 417.678 13.074C417.837 12.9247 418.033 12.85 418.266 12.85C418.49 12.85 418.681 12.9247 418.84 13.074C418.999 13.214 419.078 13.4007 419.078 13.634C419.078 13.8673 418.999 14.0633 418.84 14.222C418.681 14.3713 418.49 14.446 418.266 14.446ZM420.831 23V15.944H421.895L421.951 17.176C422.175 16.7373 422.493 16.3967 422.903 16.154C423.323 15.902 423.799 15.776 424.331 15.776C424.882 15.776 425.358 15.888 425.759 16.112C426.161 16.3267 426.473 16.658 426.697 17.106C426.921 17.5447 427.033 18.1047 427.033 18.786V23H425.857V18.912C425.857 18.2027 425.699 17.6707 425.381 17.316C425.073 16.9613 424.635 16.784 424.065 16.784C423.673 16.784 423.323 16.882 423.015 17.078C422.707 17.2647 422.46 17.54 422.273 17.904C422.096 18.2587 422.007 18.702 422.007 19.234V23H420.831ZM431.866 23.168C431.204 23.168 430.616 23.014 430.102 22.706C429.598 22.398 429.202 21.9687 428.912 21.418C428.623 20.858 428.478 20.2093 428.478 19.472C428.478 18.7253 428.618 18.0767 428.898 17.526C429.188 16.9753 429.589 16.546 430.102 16.238C430.625 15.93 431.222 15.776 431.894 15.776C432.585 15.776 433.168 15.93 433.644 16.238C434.13 16.546 434.498 16.952 434.75 17.456C435.012 17.9507 435.142 18.4967 435.142 19.094C435.142 19.1873 435.142 19.2853 435.142 19.388C435.142 19.4907 435.138 19.6073 435.128 19.738H429.36V18.828H433.994C433.966 18.184 433.752 17.68 433.35 17.316C432.958 16.952 432.464 16.77 431.866 16.77C431.465 16.77 431.092 16.8633 430.746 17.05C430.41 17.2273 430.14 17.4933 429.934 17.848C429.729 18.1933 429.626 18.6273 429.626 19.15V19.542C429.626 20.1207 429.729 20.606 429.934 20.998C430.149 21.39 430.424 21.684 430.76 21.88C431.106 22.076 431.474 22.174 431.866 22.174C432.361 22.174 432.767 22.0667 433.084 21.852C433.411 21.628 433.644 21.3293 433.784 20.956H434.946C434.834 21.376 434.638 21.754 434.358 22.09C434.078 22.426 433.728 22.692 433.308 22.888C432.898 23.0747 432.417 23.168 431.866 23.168ZM439.291 23.168C438.703 23.168 438.19 23.07 437.751 22.874C437.322 22.678 436.977 22.4073 436.715 22.062C436.463 21.7073 436.309 21.292 436.253 20.816H437.457C437.504 21.0587 437.602 21.2827 437.751 21.488C437.901 21.6933 438.101 21.8613 438.353 21.992C438.615 22.1133 438.932 22.174 439.305 22.174C439.632 22.174 439.903 22.1273 440.117 22.034C440.332 21.9313 440.491 21.796 440.593 21.628C440.705 21.46 440.761 21.278 440.761 21.082C440.761 20.7927 440.691 20.5733 440.551 20.424C440.421 20.2747 440.225 20.158 439.963 20.074C439.702 19.9807 439.385 19.9013 439.011 19.836C438.703 19.78 438.4 19.7053 438.101 19.612C437.803 19.5187 437.537 19.3973 437.303 19.248C437.07 19.0893 436.883 18.898 436.743 18.674C436.613 18.45 436.547 18.1747 436.547 17.848C436.547 17.4467 436.65 17.092 436.855 16.784C437.061 16.4667 437.355 16.2193 437.737 16.042C438.129 15.8647 438.582 15.776 439.095 15.776C439.851 15.776 440.463 15.958 440.929 16.322C441.396 16.686 441.671 17.2133 441.755 17.904H440.593C440.547 17.5493 440.393 17.274 440.131 17.078C439.879 16.8727 439.529 16.77 439.081 16.77C438.643 16.77 438.307 16.8587 438.073 17.036C437.849 17.2133 437.737 17.4467 437.737 17.736C437.737 17.9227 437.798 18.0907 437.919 18.24C438.05 18.38 438.237 18.5013 438.479 18.604C438.731 18.7067 439.039 18.7907 439.403 18.856C439.87 18.94 440.295 19.052 440.677 19.192C441.06 19.332 441.368 19.542 441.601 19.822C441.844 20.0927 441.965 20.48 441.965 20.984C441.965 21.4227 441.853 21.8053 441.629 22.132C441.415 22.4587 441.107 22.7153 440.705 22.902C440.304 23.0793 439.833 23.168 439.291 23.168ZM446.221 23.168C445.633 23.168 445.119 23.07 444.681 22.874C444.251 22.678 443.906 22.4073 443.645 22.062C443.393 21.7073 443.239 21.292 443.183 20.816H444.387C444.433 21.0587 444.531 21.2827 444.681 21.488C444.83 21.6933 445.031 21.8613 445.283 21.992C445.544 22.1133 445.861 22.174 446.235 22.174C446.561 22.174 446.832 22.1273 447.047 22.034C447.261 21.9313 447.42 21.796 447.523 21.628C447.635 21.46 447.691 21.278 447.691 21.082C447.691 20.7927 447.621 20.5733 447.481 20.424C447.35 20.2747 447.154 20.158 446.893 20.074C446.631 19.9807 446.314 19.9013 445.941 19.836C445.633 19.78 445.329 19.7053 445.031 19.612C444.732 19.5187 444.466 19.3973 444.233 19.248C443.999 19.0893 443.813 18.898 443.673 18.674C443.542 18.45 443.477 18.1747 443.477 17.848C443.477 17.4467 443.579 17.092 443.785 16.784C443.99 16.4667 444.284 16.2193 444.667 16.042C445.059 15.8647 445.511 15.776 446.025 15.776C446.781 15.776 447.392 15.958 447.859 16.322C448.325 16.686 448.601 17.2133 448.685 17.904H447.523C447.476 17.5493 447.322 17.274 447.061 17.078C446.809 16.8727 446.459 16.77 446.011 16.77C445.572 16.77 445.236 16.8587 445.003 17.036C444.779 17.2133 444.667 17.4467 444.667 17.736C444.667 17.9227 444.727 18.0907 444.849 18.24C444.979 18.38 445.166 18.5013 445.409 18.604C445.661 18.7067 445.969 18.7907 446.333 18.856C446.799 18.94 447.224 19.052 447.607 19.192C447.989 19.332 448.297 19.542 448.531 19.822C448.773 20.0927 448.895 20.48 448.895 20.984C448.895 21.4227 448.783 21.8053 448.559 22.132C448.344 22.4587 448.036 22.7153 447.635 22.902C447.233 23.0793 446.762 23.168 446.221 23.168Z" fill="#AEB9E1"/>
<path d="M151.442 23V13.2H154.886C155.576 13.2 156.146 13.312 156.594 13.536C157.051 13.7507 157.392 14.0493 157.616 14.432C157.84 14.8053 157.952 15.2253 157.952 15.692C157.952 16.196 157.84 16.616 157.616 16.952C157.401 17.288 157.116 17.5447 156.762 17.722C156.416 17.8993 156.048 18.0067 155.656 18.044L155.852 17.904C156.272 17.9133 156.659 18.0253 157.014 18.24C157.368 18.4547 157.648 18.744 157.854 19.108C158.068 19.472 158.176 19.878 158.176 20.326C158.176 20.8207 158.054 21.2733 157.812 21.684C157.569 22.0853 157.21 22.4073 156.734 22.65C156.267 22.8833 155.688 23 154.998 23H151.442ZM152.618 22.02H154.872C155.534 22.02 156.048 21.866 156.412 21.558C156.785 21.2407 156.972 20.802 156.972 20.242C156.972 19.6913 156.78 19.2527 156.398 18.926C156.024 18.59 155.506 18.422 154.844 18.422H152.618V22.02ZM152.618 17.484H154.802C155.436 17.484 155.917 17.3347 156.244 17.036C156.58 16.7373 156.748 16.3313 156.748 15.818C156.748 15.3233 156.58 14.9267 156.244 14.628C155.917 14.3293 155.422 14.18 154.76 14.18H152.618V17.484ZM162.271 23.168C161.73 23.168 161.254 23.0607 160.843 22.846C160.442 22.6313 160.129 22.3 159.905 21.852C159.691 21.404 159.583 20.844 159.583 20.172V15.944H160.759V20.046C160.759 20.746 160.913 21.2733 161.221 21.628C161.529 21.9827 161.963 22.16 162.523 22.16C162.915 22.16 163.27 22.0667 163.587 21.88C163.905 21.684 164.152 21.4087 164.329 21.054C164.516 20.69 164.609 20.2467 164.609 19.724V15.944H165.785V23H164.721L164.651 21.768C164.437 22.2067 164.119 22.552 163.699 22.804C163.279 23.0467 162.803 23.168 162.271 23.168ZM170.297 23.168C169.709 23.168 169.195 23.07 168.757 22.874C168.327 22.678 167.982 22.4073 167.721 22.062C167.469 21.7073 167.315 21.292 167.259 20.816H168.463C168.509 21.0587 168.607 21.2827 168.757 21.488C168.906 21.6933 169.107 21.8613 169.359 21.992C169.62 22.1133 169.937 22.174 170.311 22.174C170.637 22.174 170.908 22.1273 171.123 22.034C171.337 21.9313 171.496 21.796 171.599 21.628C171.711 21.46 171.767 21.278 171.767 21.082C171.767 20.7927 171.697 20.5733 171.557 20.424C171.426 20.2747 171.23 20.158 170.969 20.074C170.707 19.9807 170.39 19.9013 170.017 19.836C169.709 19.78 169.405 19.7053 169.107 19.612C168.808 19.5187 168.542 19.3973 168.309 19.248C168.075 19.0893 167.889 18.898 167.749 18.674C167.618 18.45 167.553 18.1747 167.553 17.848C167.553 17.4467 167.655 17.092 167.861 16.784C168.066 16.4667 168.36 16.2193 168.743 16.042C169.135 15.8647 169.587 15.776 170.101 15.776C170.857 15.776 171.468 15.958 171.935 16.322C172.401 16.686 172.677 17.2133 172.761 17.904H171.599C171.552 17.5493 171.398 17.274 171.137 17.078C170.885 16.8727 170.535 16.77 170.087 16.77C169.648 16.77 169.312 16.8587 169.079 17.036C168.855 17.2133 168.743 17.4467 168.743 17.736C168.743 17.9227 168.803 18.0907 168.925 18.24C169.055 18.38 169.242 18.5013 169.485 18.604C169.737 18.7067 170.045 18.7907 170.409 18.856C170.875 18.94 171.3 19.052 171.683 19.192C172.065 19.332 172.373 19.542 172.607 19.822C172.849 20.0927 172.971 20.48 172.971 20.984C172.971 21.4227 172.859 21.8053 172.635 22.132C172.42 22.4587 172.112 22.7153 171.711 22.902C171.309 23.0793 170.838 23.168 170.297 23.168ZM174.678 23V15.944H175.854V23H174.678ZM175.266 14.446C175.033 14.446 174.837 14.3713 174.678 14.222C174.529 14.0633 174.454 13.8673 174.454 13.634C174.454 13.4007 174.529 13.214 174.678 13.074C174.837 12.9247 175.033 12.85 175.266 12.85C175.49 12.85 175.681 12.9247 175.84 13.074C175.999 13.214 176.078 13.4007 176.078 13.634C176.078 13.8673 175.999 14.0633 175.84 14.222C175.681 14.3713 175.49 14.446 175.266 14.446ZM177.831 23V15.944H178.895L178.951 17.176C179.175 16.7373 179.493 16.3967 179.903 16.154C180.323 15.902 180.799 15.776 181.331 15.776C181.882 15.776 182.358 15.888 182.759 16.112C183.161 16.3267 183.473 16.658 183.697 17.106C183.921 17.5447 184.033 18.1047 184.033 18.786V23H182.857V18.912C182.857 18.2027 182.699 17.6707 182.381 17.316C182.073 16.9613 181.635 16.784 181.065 16.784C180.673 16.784 180.323 16.882 180.015 17.078C179.707 17.2647 179.46 17.54 179.273 17.904C179.096 18.2587 179.007 18.702 179.007 19.234V23H177.831ZM188.866 23.168C188.204 23.168 187.616 23.014 187.102 22.706C186.598 22.398 186.202 21.9687 185.912 21.418C185.623 20.858 185.478 20.2093 185.478 19.472C185.478 18.7253 185.618 18.0767 185.898 17.526C186.188 16.9753 186.589 16.546 187.102 16.238C187.625 15.93 188.222 15.776 188.894 15.776C189.585 15.776 190.168 15.93 190.644 16.238C191.13 16.546 191.498 16.952 191.75 17.456C192.012 17.9507 192.142 18.4967 192.142 19.094C192.142 19.1873 192.142 19.2853 192.142 19.388C192.142 19.4907 192.138 19.6073 192.128 19.738H186.36V18.828H190.994C190.966 18.184 190.752 17.68 190.35 17.316C189.958 16.952 189.464 16.77 188.866 16.77C188.465 16.77 188.092 16.8633 187.746 17.05C187.41 17.2273 187.14 17.4933 186.934 17.848C186.729 18.1933 186.626 18.6273 186.626 19.15V19.542C186.626 20.1207 186.729 20.606 186.934 20.998C187.149 21.39 187.424 21.684 187.76 21.88C188.106 22.076 188.474 22.174 188.866 22.174C189.361 22.174 189.767 22.0667 190.084 21.852C190.411 21.628 190.644 21.3293 190.784 20.956H191.946C191.834 21.376 191.638 21.754 191.358 22.09C191.078 22.426 190.728 22.692 190.308 22.888C189.898 23.0747 189.417 23.168 188.866 23.168ZM196.291 23.168C195.703 23.168 195.19 23.07 194.751 22.874C194.322 22.678 193.977 22.4073 193.715 22.062C193.463 21.7073 193.309 21.292 193.253 20.816H194.457C194.504 21.0587 194.602 21.2827 194.751 21.488C194.901 21.6933 195.101 21.8613 195.353 21.992C195.615 22.1133 195.932 22.174 196.305 22.174C196.632 22.174 196.903 22.1273 197.117 22.034C197.332 21.9313 197.491 21.796 197.593 21.628C197.705 21.46 197.761 21.278 197.761 21.082C197.761 20.7927 197.691 20.5733 197.551 20.424C197.421 20.2747 197.225 20.158 196.963 20.074C196.702 19.9807 196.385 19.9013 196.011 19.836C195.703 19.78 195.4 19.7053 195.101 19.612C194.803 19.5187 194.537 19.3973 194.303 19.248C194.07 19.0893 193.883 18.898 193.743 18.674C193.613 18.45 193.547 18.1747 193.547 17.848C193.547 17.4467 193.65 17.092 193.855 16.784C194.061 16.4667 194.355 16.2193 194.737 16.042C195.129 15.8647 195.582 15.776 196.095 15.776C196.851 15.776 197.463 15.958 197.929 16.322C198.396 16.686 198.671 17.2133 198.755 17.904H197.593C197.547 17.5493 197.393 17.274 197.131 17.078C196.879 16.8727 196.529 16.77 196.081 16.77C195.643 16.77 195.307 16.8587 195.073 17.036C194.849 17.2133 194.737 17.4467 194.737 17.736C194.737 17.9227 194.798 18.0907 194.919 18.24C195.05 18.38 195.237 18.5013 195.479 18.604C195.731 18.7067 196.039 18.7907 196.403 18.856C196.87 18.94 197.295 19.052 197.677 19.192C198.06 19.332 198.368 19.542 198.601 19.822C198.844 20.0927 198.965 20.48 198.965 20.984C198.965 21.4227 198.853 21.8053 198.629 22.132C198.415 22.4587 198.107 22.7153 197.705 22.902C197.304 23.0793 196.833 23.168 196.291 23.168ZM203.221 23.168C202.633 23.168 202.119 23.07 201.681 22.874C201.251 22.678 200.906 22.4073 200.645 22.062C200.393 21.7073 200.239 21.292 200.183 20.816H201.387C201.433 21.0587 201.531 21.2827 201.681 21.488C201.83 21.6933 202.031 21.8613 202.283 21.992C202.544 22.1133 202.861 22.174 203.235 22.174C203.561 22.174 203.832 22.1273 204.047 22.034C204.261 21.9313 204.42 21.796 204.523 21.628C204.635 21.46 204.691 21.278 204.691 21.082C204.691 20.7927 204.621 20.5733 204.481 20.424C204.35 20.2747 204.154 20.158 203.893 20.074C203.631 19.9807 203.314 19.9013 202.941 19.836C202.633 19.78 202.329 19.7053 202.031 19.612C201.732 19.5187 201.466 19.3973 201.233 19.248C200.999 19.0893 200.813 18.898 200.673 18.674C200.542 18.45 200.477 18.1747 200.477 17.848C200.477 17.4467 200.579 17.092 200.785 16.784C200.99 16.4667 201.284 16.2193 201.667 16.042C202.059 15.8647 202.511 15.776 203.025 15.776C203.781 15.776 204.392 15.958 204.859 16.322C205.325 16.686 205.601 17.2133 205.685 17.904H204.523C204.476 17.5493 204.322 17.274 204.061 17.078C203.809 16.8727 203.459 16.77 203.011 16.77C202.572 16.77 202.236 16.8587 202.003 17.036C201.779 17.2133 201.667 17.4467 201.667 17.736C201.667 17.9227 201.727 18.0907 201.849 18.24C201.979 18.38 202.166 18.5013 202.409 18.604C202.661 18.7067 202.969 18.7907 203.333 18.856C203.799 18.94 204.224 19.052 204.607 19.192C204.989 19.332 205.297 19.542 205.531 19.822C205.773 20.0927 205.895 20.48 205.895 20.984C205.895 21.4227 205.783 21.8053 205.559 22.132C205.344 22.4587 205.036 22.7153 204.635 22.902C204.233 23.0793 203.762 23.168 203.221 23.168Z" fill="url(#paint1_linear_5009_45139)"/>
<defs>
<linearGradient id="paint0_linear_5009_45139" x1="289.135" y1="14.3772" x2="296.914" y2="35.6261" gradientUnits="userSpaceOnUse">
<stop stop-color="#A476FF"/>
</linearGradient>
<linearGradient id="paint1_linear_5009_45139" x1="169.626" y1="14.3772" x2="178.888" y2="34.1314" gradientUnits="userSpaceOnUse">
<stop offset="1" stop-color="#F46D6B"/>
</linearGradient>
</defs>
</svg>
