<svg width="430" height="242" viewBox="0 0 430 242" fill="none" xmlns="http://www.w3.org/2000/svg">
<g filter="url(#filter0_d_3001_45225)">
<path d="M49 21C49 16.5817 52.5817 13 57 13H297C301.418 13 305 16.5817 305 21V70C305 74.4183 301.418 78 297 78H57C52.5817 78 49 74.4183 49 70V21Z" fill="white"/>
<path d="M57 13.25H297C301.28 13.25 304.75 16.7198 304.75 21V70C304.75 74.2802 301.28 77.75 297 77.75H57C52.7198 77.75 49.25 74.2802 49.25 70V21L49.2598 20.6016C49.4671 16.5065 52.8534 13.25 57 13.25Z" stroke="#787996" stroke-width="0.5"/>
</g>
<path d="M57 177.25H297C301.28 177.25 304.75 180.72 304.75 185V234C304.75 238.28 301.28 241.75 297 241.75H57C52.7198 241.75 49.25 238.28 49.25 234V185L49.2598 184.602C49.4671 180.507 52.8534 177.25 57 177.25Z" fill="#1E1F40" stroke="#787996" stroke-width="0.5"/>
<path d="M143 95.25H388C392.28 95.25 395.75 98.7198 395.75 103V152C395.75 156.28 392.28 159.75 388 159.75H143C138.72 159.75 135.25 156.28 135.25 152V103L135.26 102.602C135.467 98.5065 138.853 95.25 143 95.25Z" fill="#1E1F40" stroke="#787996" stroke-width="0.5"/>
<path d="M48 45.5C44.8 45.5 15.3333 45.5 1 45.5V126.5H133" stroke="#333660"/>
<path d="M305 208C305 208 419.301 208 429 208V47H305" stroke="#333660"/>
<path d="M121.832 60V52.584H119.348V51.6H125.528V52.584H123.032V60H121.832ZM127.57 60.144C127.074 60.144 126.662 60.06 126.334 59.892C126.006 59.724 125.762 59.5 125.602 59.22C125.442 58.932 125.362 58.624 125.362 58.296C125.362 57.896 125.466 57.556 125.674 57.276C125.882 56.988 126.178 56.768 126.562 56.616C126.946 56.464 127.406 56.388 127.942 56.388H129.514C129.514 56.036 129.462 55.744 129.358 55.512C129.254 55.28 129.098 55.108 128.89 54.996C128.69 54.876 128.434 54.816 128.122 54.816C127.762 54.816 127.454 54.904 127.198 55.08C126.942 55.248 126.782 55.5 126.718 55.836H125.518C125.566 55.412 125.71 55.052 125.95 54.756C126.198 54.452 126.514 54.22 126.898 54.06C127.282 53.892 127.69 53.808 128.122 53.808C128.69 53.808 129.166 53.908 129.55 54.108C129.934 54.308 130.222 54.592 130.414 54.96C130.614 55.32 130.714 55.752 130.714 56.256V60H129.67L129.574 58.98C129.486 59.14 129.382 59.292 129.262 59.436C129.142 59.58 128.998 59.704 128.83 59.808C128.67 59.912 128.482 59.992 128.266 60.048C128.058 60.112 127.826 60.144 127.57 60.144ZM127.798 59.172C128.054 59.172 128.286 59.12 128.494 59.016C128.702 58.912 128.878 58.772 129.022 58.596C129.174 58.412 129.286 58.208 129.358 57.984C129.438 57.752 129.482 57.516 129.49 57.276V57.24H128.062C127.718 57.24 127.438 57.284 127.222 57.372C127.014 57.452 126.862 57.564 126.766 57.708C126.67 57.852 126.622 58.02 126.622 58.212C126.622 58.412 126.666 58.584 126.754 58.728C126.85 58.864 126.986 58.972 127.162 59.052C127.338 59.132 127.55 59.172 127.798 59.172ZM134.405 60.144C133.893 60.144 133.445 60.06 133.061 59.892C132.677 59.724 132.373 59.488 132.149 59.184C131.925 58.88 131.789 58.524 131.741 58.116H132.965C133.005 58.308 133.081 58.484 133.193 58.644C133.313 58.804 133.473 58.932 133.673 59.028C133.881 59.124 134.125 59.172 134.405 59.172C134.669 59.172 134.885 59.136 135.053 59.064C135.229 58.984 135.357 58.88 135.437 58.752C135.517 58.616 135.557 58.472 135.557 58.32C135.557 58.096 135.501 57.928 135.389 57.816C135.285 57.696 135.125 57.604 134.909 57.54C134.701 57.468 134.449 57.404 134.153 57.348C133.873 57.3 133.601 57.236 133.337 57.156C133.081 57.068 132.849 56.96 132.641 56.832C132.441 56.704 132.281 56.544 132.161 56.352C132.041 56.152 131.981 55.908 131.981 55.62C131.981 55.276 132.073 54.968 132.257 54.696C132.441 54.416 132.701 54.2 133.037 54.048C133.381 53.888 133.785 53.808 134.249 53.808C134.921 53.808 135.461 53.968 135.869 54.288C136.277 54.608 136.517 55.06 136.589 55.644H135.425C135.393 55.372 135.273 55.164 135.065 55.02C134.857 54.868 134.581 54.792 134.237 54.792C133.893 54.792 133.629 54.86 133.445 54.996C133.261 55.132 133.169 55.312 133.169 55.536C133.169 55.68 133.221 55.808 133.325 55.92C133.429 56.032 133.581 56.128 133.781 56.208C133.989 56.28 134.241 56.348 134.537 56.412C134.961 56.492 135.341 56.592 135.677 56.712C136.013 56.832 136.281 57.008 136.481 57.24C136.681 57.472 136.781 57.804 136.781 58.236C136.789 58.612 136.693 58.944 136.493 59.232C136.301 59.52 136.025 59.744 135.665 59.904C135.313 60.064 134.893 60.144 134.405 60.144ZM141.818 60L139.034 56.688L141.554 53.952H143.006L140.006 57.156V56.256L143.33 60H141.818ZM138.014 60V51.36H139.214V60H138.014ZM146.174 60.144C145.662 60.144 145.214 60.06 144.83 59.892C144.446 59.724 144.142 59.488 143.918 59.184C143.694 58.88 143.558 58.524 143.51 58.116H144.734C144.774 58.308 144.85 58.484 144.962 58.644C145.082 58.804 145.242 58.932 145.442 59.028C145.65 59.124 145.894 59.172 146.174 59.172C146.438 59.172 146.654 59.136 146.822 59.064C146.998 58.984 147.126 58.88 147.206 58.752C147.286 58.616 147.326 58.472 147.326 58.32C147.326 58.096 147.27 57.928 147.158 57.816C147.054 57.696 146.894 57.604 146.678 57.54C146.47 57.468 146.218 57.404 145.922 57.348C145.642 57.3 145.37 57.236 145.106 57.156C144.85 57.068 144.618 56.96 144.41 56.832C144.21 56.704 144.05 56.544 143.93 56.352C143.81 56.152 143.75 55.908 143.75 55.62C143.75 55.276 143.842 54.968 144.026 54.696C144.21 54.416 144.47 54.2 144.806 54.048C145.15 53.888 145.554 53.808 146.018 53.808C146.69 53.808 147.23 53.968 147.638 54.288C148.046 54.608 148.286 55.06 148.358 55.644H147.194C147.162 55.372 147.042 55.164 146.834 55.02C146.626 54.868 146.35 54.792 146.006 54.792C145.662 54.792 145.398 54.86 145.214 54.996C145.03 55.132 144.938 55.312 144.938 55.536C144.938 55.68 144.99 55.808 145.094 55.92C145.198 56.032 145.35 56.128 145.55 56.208C145.758 56.28 146.01 56.348 146.306 56.412C146.73 56.492 147.11 56.592 147.446 56.712C147.782 56.832 148.05 57.008 148.25 57.24C148.45 57.472 148.55 57.804 148.55 58.236C148.558 58.612 148.462 58.944 148.262 59.232C148.07 59.52 147.794 59.744 147.434 59.904C147.082 60.064 146.662 60.144 146.174 60.144ZM154.677 60.144C154.181 60.144 153.769 60.06 153.441 59.892C153.113 59.724 152.869 59.5 152.709 59.22C152.549 58.932 152.469 58.624 152.469 58.296C152.469 57.896 152.573 57.556 152.781 57.276C152.989 56.988 153.285 56.768 153.669 56.616C154.053 56.464 154.513 56.388 155.049 56.388H156.621C156.621 56.036 156.569 55.744 156.465 55.512C156.361 55.28 156.205 55.108 155.997 54.996C155.797 54.876 155.541 54.816 155.229 54.816C154.869 54.816 154.561 54.904 154.305 55.08C154.049 55.248 153.889 55.5 153.825 55.836H152.625C152.673 55.412 152.817 55.052 153.057 54.756C153.305 54.452 153.621 54.22 154.005 54.06C154.389 53.892 154.797 53.808 155.229 53.808C155.797 53.808 156.273 53.908 156.657 54.108C157.041 54.308 157.329 54.592 157.521 54.96C157.721 55.32 157.821 55.752 157.821 56.256V60H156.777L156.681 58.98C156.593 59.14 156.489 59.292 156.369 59.436C156.249 59.58 156.105 59.704 155.937 59.808C155.777 59.912 155.589 59.992 155.373 60.048C155.165 60.112 154.933 60.144 154.677 60.144ZM154.905 59.172C155.161 59.172 155.393 59.12 155.601 59.016C155.809 58.912 155.985 58.772 156.129 58.596C156.281 58.412 156.393 58.208 156.465 57.984C156.545 57.752 156.589 57.516 156.597 57.276V57.24H155.169C154.825 57.24 154.545 57.284 154.329 57.372C154.121 57.452 153.969 57.564 153.873 57.708C153.777 57.852 153.729 58.02 153.729 58.212C153.729 58.412 153.773 58.584 153.861 58.728C153.957 58.864 154.093 58.972 154.269 59.052C154.445 59.132 154.657 59.172 154.905 59.172ZM161.393 60.144C160.921 60.144 160.509 60.048 160.157 59.856C159.813 59.664 159.545 59.376 159.353 58.992C159.169 58.608 159.077 58.124 159.077 57.54V53.952H160.277V57.408C160.277 57.976 160.401 58.404 160.649 58.692C160.897 58.98 161.253 59.124 161.717 59.124C162.029 59.124 162.309 59.048 162.557 58.896C162.813 58.744 163.013 58.524 163.157 58.236C163.301 57.948 163.373 57.596 163.373 57.18V53.952H164.573V60H163.505L163.421 58.968C163.237 59.336 162.969 59.624 162.617 59.832C162.265 60.04 161.857 60.144 161.393 60.144ZM168.532 60C168.148 60 167.816 59.94 167.536 59.82C167.256 59.7 167.04 59.5 166.888 59.22C166.736 58.94 166.66 58.56 166.66 58.08V54.972H165.616V53.952H166.66L166.804 52.44H167.86V53.952H169.576V54.972H167.86V58.092C167.86 58.436 167.932 58.672 168.076 58.8C168.22 58.92 168.468 58.98 168.82 58.98H169.516V60H168.532ZM173.315 60.144C172.747 60.144 172.235 60.012 171.779 59.748C171.331 59.484 170.975 59.116 170.711 58.644C170.455 58.164 170.327 57.612 170.327 56.988C170.327 56.348 170.459 55.792 170.723 55.32C170.987 54.84 171.347 54.468 171.803 54.204C172.259 53.94 172.771 53.808 173.339 53.808C173.915 53.808 174.427 53.94 174.875 54.204C175.323 54.468 175.675 54.836 175.931 55.308C176.195 55.78 176.327 56.336 176.327 56.976C176.327 57.616 176.195 58.172 175.931 58.644C175.675 59.116 175.319 59.484 174.863 59.748C174.407 60.012 173.891 60.144 173.315 60.144ZM173.315 59.112C173.643 59.112 173.939 59.032 174.203 58.872C174.475 58.712 174.691 58.476 174.851 58.164C175.019 57.844 175.103 57.448 175.103 56.976C175.103 56.504 175.023 56.112 174.863 55.8C174.703 55.48 174.487 55.24 174.215 55.08C173.951 54.92 173.659 54.84 173.339 54.84C173.019 54.84 172.723 54.92 172.451 55.08C172.179 55.24 171.959 55.48 171.791 55.8C171.631 56.112 171.551 56.504 171.551 56.976C171.551 57.448 171.631 57.844 171.791 58.164C171.959 58.476 172.175 58.712 172.439 58.872C172.711 59.032 173.003 59.112 173.315 59.112ZM177.559 60V53.952H178.639L178.723 54.804C178.915 54.492 179.171 54.248 179.491 54.072C179.811 53.896 180.171 53.808 180.571 53.808C180.875 53.808 181.151 53.852 181.399 53.94C181.647 54.02 181.867 54.144 182.059 54.312C182.251 54.48 182.407 54.688 182.527 54.936C182.743 54.584 183.031 54.308 183.391 54.108C183.759 53.908 184.147 53.808 184.555 53.808C185.043 53.808 185.463 53.908 185.815 54.108C186.167 54.3 186.435 54.592 186.619 54.984C186.803 55.368 186.895 55.848 186.895 56.424V60H185.707V56.544C185.707 55.984 185.591 55.56 185.359 55.272C185.135 54.984 184.803 54.84 184.363 54.84C184.067 54.84 183.803 54.916 183.571 55.068C183.339 55.22 183.155 55.44 183.019 55.728C182.891 56.016 182.827 56.368 182.827 56.784V60H181.627V56.544C181.627 55.984 181.511 55.56 181.279 55.272C181.055 54.984 180.723 54.84 180.283 54.84C180.003 54.84 179.747 54.916 179.515 55.068C179.283 55.22 179.099 55.44 178.963 55.728C178.827 56.016 178.759 56.368 178.759 56.784V60H177.559ZM190.27 60.144C189.774 60.144 189.362 60.06 189.034 59.892C188.706 59.724 188.462 59.5 188.302 59.22C188.142 58.932 188.062 58.624 188.062 58.296C188.062 57.896 188.166 57.556 188.374 57.276C188.582 56.988 188.878 56.768 189.262 56.616C189.646 56.464 190.106 56.388 190.642 56.388H192.214C192.214 56.036 192.162 55.744 192.058 55.512C191.954 55.28 191.798 55.108 191.59 54.996C191.39 54.876 191.134 54.816 190.822 54.816C190.462 54.816 190.154 54.904 189.898 55.08C189.642 55.248 189.482 55.5 189.418 55.836H188.218C188.266 55.412 188.41 55.052 188.65 54.756C188.898 54.452 189.214 54.22 189.598 54.06C189.982 53.892 190.39 53.808 190.822 53.808C191.39 53.808 191.866 53.908 192.25 54.108C192.634 54.308 192.922 54.592 193.114 54.96C193.314 55.32 193.414 55.752 193.414 56.256V60H192.37L192.274 58.98C192.186 59.14 192.082 59.292 191.962 59.436C191.842 59.58 191.698 59.704 191.53 59.808C191.37 59.912 191.182 59.992 190.966 60.048C190.758 60.112 190.526 60.144 190.27 60.144ZM190.498 59.172C190.754 59.172 190.986 59.12 191.194 59.016C191.402 58.912 191.578 58.772 191.722 58.596C191.874 58.412 191.986 58.208 192.058 57.984C192.138 57.752 192.182 57.516 192.19 57.276V57.24H190.762C190.418 57.24 190.138 57.284 189.922 57.372C189.714 57.452 189.562 57.564 189.466 57.708C189.37 57.852 189.322 58.02 189.322 58.212C189.322 58.412 189.366 58.584 189.454 58.728C189.55 58.864 189.686 58.972 189.862 59.052C190.038 59.132 190.25 59.172 190.498 59.172ZM197.132 60C196.748 60 196.416 59.94 196.136 59.82C195.856 59.7 195.64 59.5 195.488 59.22C195.336 58.94 195.26 58.56 195.26 58.08V54.972H194.216V53.952H195.26L195.404 52.44H196.46V53.952H198.176V54.972H196.46V58.092C196.46 58.436 196.532 58.672 196.676 58.8C196.82 58.92 197.068 58.98 197.42 58.98H198.116V60H197.132ZM201.892 60.144C201.316 60.144 200.804 60.012 200.356 59.748C199.908 59.484 199.556 59.116 199.3 58.644C199.052 58.172 198.928 57.624 198.928 57C198.928 56.36 199.052 55.804 199.3 55.332C199.556 54.852 199.908 54.48 200.356 54.216C200.804 53.944 201.324 53.808 201.916 53.808C202.508 53.808 203.016 53.94 203.44 54.204C203.864 54.468 204.192 54.82 204.424 55.26C204.656 55.692 204.772 56.172 204.772 56.7C204.772 56.78 204.768 56.868 204.76 56.964C204.76 57.052 204.756 57.152 204.748 57.264H199.804V56.412H203.572C203.548 55.908 203.38 55.516 203.068 55.236C202.756 54.948 202.368 54.804 201.904 54.804C201.576 54.804 201.276 54.88 201.004 55.032C200.732 55.176 200.512 55.392 200.344 55.68C200.184 55.96 200.104 56.316 200.104 56.748V57.084C200.104 57.532 200.184 57.912 200.344 58.224C200.512 58.528 200.732 58.76 201.004 58.92C201.276 59.072 201.572 59.148 201.892 59.148C202.276 59.148 202.592 59.064 202.84 58.896C203.088 58.728 203.272 58.5 203.392 58.212H204.592C204.488 58.58 204.312 58.912 204.064 59.208C203.816 59.496 203.508 59.724 203.14 59.892C202.78 60.06 202.364 60.144 201.892 60.144ZM208.613 60.144C208.037 60.144 207.529 60.008 207.089 59.736C206.649 59.456 206.305 59.08 206.057 58.608C205.817 58.128 205.697 57.584 205.697 56.976C205.697 56.36 205.817 55.816 206.057 55.344C206.305 54.872 206.649 54.5 207.089 54.228C207.537 53.948 208.049 53.808 208.625 53.808C209.097 53.808 209.513 53.904 209.873 54.096C210.233 54.28 210.513 54.544 210.713 54.888V51.36H211.913V60H210.833L210.713 59.064C210.593 59.248 210.437 59.424 210.245 59.592C210.053 59.752 209.821 59.884 209.549 59.988C209.277 60.092 208.965 60.144 208.613 60.144ZM208.805 59.1C209.181 59.1 209.513 59.012 209.801 58.836C210.089 58.66 210.309 58.412 210.461 58.092C210.621 57.772 210.701 57.4 210.701 56.976C210.701 56.552 210.621 56.184 210.461 55.872C210.309 55.552 210.089 55.304 209.801 55.128C209.513 54.944 209.181 54.852 208.805 54.852C208.445 54.852 208.121 54.944 207.833 55.128C207.545 55.304 207.321 55.552 207.161 55.872C207.001 56.184 206.921 56.552 206.921 56.976C206.921 57.4 207.001 57.772 207.161 58.092C207.321 58.412 207.545 58.66 207.833 58.836C208.121 59.012 208.445 59.1 208.805 59.1ZM217.488 60L215.712 53.952H216.9L218.22 58.992L217.992 58.98L219.456 53.952H220.8L222.264 58.98L222.036 58.992L223.344 53.952H224.556L222.78 60H221.544L220.008 54.756H220.248L218.712 60H217.488ZM225.543 60V53.952H226.743V60H225.543ZM226.155 52.812C225.923 52.812 225.731 52.74 225.579 52.596C225.435 52.452 225.363 52.268 225.363 52.044C225.363 51.828 225.435 51.652 225.579 51.516C225.731 51.372 225.923 51.3 226.155 51.3C226.379 51.3 226.567 51.372 226.719 51.516C226.871 51.652 226.947 51.828 226.947 52.044C226.947 52.268 226.871 52.452 226.719 52.596C226.567 52.74 226.379 52.812 226.155 52.812ZM230.775 60C230.391 60 230.059 59.94 229.779 59.82C229.499 59.7 229.283 59.5 229.131 59.22C228.979 58.94 228.903 58.56 228.903 58.08V54.972H227.859V53.952H228.903L229.047 52.44H230.103V53.952H231.819V54.972H230.103V58.092C230.103 58.436 230.175 58.672 230.319 58.8C230.463 58.92 230.711 58.98 231.063 58.98H231.759V60H230.775ZM232.962 60V51.36H234.162V54.936C234.362 54.584 234.638 54.308 234.99 54.108C235.35 53.908 235.746 53.808 236.178 53.808C236.658 53.808 237.07 53.908 237.414 54.108C237.758 54.3 238.022 54.592 238.206 54.984C238.39 55.368 238.482 55.852 238.482 56.436V60H237.294V56.556C237.294 55.996 237.174 55.572 236.934 55.284C236.694 54.988 236.338 54.84 235.866 54.84C235.546 54.84 235.258 54.916 235.002 55.068C234.746 55.22 234.542 55.444 234.39 55.74C234.238 56.028 234.162 56.38 234.162 56.796V60H232.962ZM242.247 60L245.331 51.6H246.639L249.723 60H248.439L245.979 53.04L243.507 60H242.247ZM243.639 57.924L243.975 56.964H247.923L248.259 57.924H243.639ZM250.74 60V51.6H251.94V60H250.74Z" fill="#616A7B"/>
<path d="M123.645 29.6318V42H121.42V31.8149H121.345L118.457 33.666V31.6074L121.528 29.6318H123.645ZM129.74 42.166C128.932 42.166 128.21 42.0166 127.574 41.7178C126.943 41.4134 126.439 40.9956 126.063 40.4644C125.692 39.9331 125.496 39.3244 125.473 38.6382H127.648C127.681 39.1418 127.897 39.554 128.296 39.875C128.7 40.196 129.181 40.3564 129.74 40.3564C130.183 40.3564 130.573 40.2568 130.911 40.0576C131.248 39.8529 131.514 39.5734 131.707 39.2192C131.907 38.8595 132.006 38.45 132.006 37.9907C132.006 37.5203 131.907 37.1053 131.707 36.7456C131.508 36.3804 131.234 36.0954 130.886 35.8906C130.537 35.6803 130.136 35.5752 129.682 35.5752C129.306 35.5752 128.94 35.6471 128.586 35.791C128.232 35.9294 127.95 36.112 127.74 36.3389L125.706 36.0068L126.353 29.6318H133.534V31.5078H128.213L127.856 34.7866H127.922C128.155 34.5099 128.478 34.2858 128.893 34.1143C129.314 33.9372 129.776 33.8486 130.28 33.8486C131.032 33.8486 131.699 34.0257 132.28 34.3799C132.867 34.7285 133.329 35.21 133.666 35.8242C134.004 36.4385 134.173 37.144 134.173 37.9409C134.173 38.7544 133.985 39.4821 133.608 40.124C133.232 40.7604 132.712 41.2612 132.048 41.6265C131.384 41.9862 130.614 42.166 129.74 42.166ZM140.243 42.166C139.242 42.166 138.384 41.917 137.67 41.4189C136.962 40.9154 136.419 40.1932 136.043 39.2524C135.667 38.3062 135.479 37.1634 135.479 35.8242C135.479 34.485 135.667 33.3423 136.043 32.396C136.419 31.4442 136.962 30.7192 137.67 30.2212C138.384 29.7176 139.242 29.4658 140.243 29.4658C141.239 29.4658 142.094 29.7176 142.808 30.2212C143.522 30.7248 144.067 31.4497 144.444 32.396C144.82 33.3423 145.008 34.485 145.008 35.8242C145.008 37.1634 144.82 38.3062 144.444 39.2524C144.067 40.1932 143.525 40.9154 142.817 41.4189C142.108 41.917 141.251 42.166 140.243 42.166ZM140.243 40.29C140.78 40.29 141.234 40.1157 141.605 39.7671C141.981 39.4185 142.266 38.9121 142.46 38.248C142.659 37.5785 142.759 36.7705 142.759 35.8242C142.759 34.8724 142.659 34.0617 142.46 33.3921C142.266 32.7225 141.981 32.2134 141.605 31.8647C141.234 31.5106 140.78 31.3335 140.243 31.3335C139.435 31.3335 138.813 31.7264 138.376 32.5122C137.944 33.2925 137.728 34.3965 137.728 35.8242C137.728 36.7705 137.825 37.5785 138.019 38.248C138.212 38.9121 138.497 39.4185 138.874 39.7671C139.25 40.1157 139.707 40.29 140.243 40.29ZM151.07 42.166C150.069 42.166 149.211 41.917 148.497 41.4189C147.789 40.9154 147.246 40.1932 146.87 39.2524C146.494 38.3062 146.306 37.1634 146.306 35.8242C146.306 34.485 146.494 33.3423 146.87 32.396C147.246 31.4442 147.789 30.7192 148.497 30.2212C149.211 29.7176 150.069 29.4658 151.07 29.4658C152.066 29.4658 152.921 29.7176 153.635 30.2212C154.349 30.7248 154.894 31.4497 155.271 32.396C155.647 33.3423 155.835 34.485 155.835 35.8242C155.835 37.1634 155.647 38.3062 155.271 39.2524C154.894 40.1932 154.352 40.9154 153.644 41.4189C152.935 41.917 152.078 42.166 151.07 42.166ZM151.07 40.29C151.607 40.29 152.061 40.1157 152.432 39.7671C152.808 39.4185 153.093 38.9121 153.287 38.248C153.486 37.5785 153.586 36.7705 153.586 35.8242C153.586 34.8724 153.486 34.0617 153.287 33.3921C153.093 32.7225 152.808 32.2134 152.432 31.8647C152.061 31.5106 151.607 31.3335 151.07 31.3335C150.262 31.3335 149.64 31.7264 149.203 32.5122C148.771 33.2925 148.555 34.3965 148.555 35.8242C148.555 36.7705 148.652 37.5785 148.846 38.248C149.039 38.9121 149.324 39.4185 149.701 39.7671C150.077 40.1157 150.534 40.29 151.07 40.29ZM160.993 41.2695V32.9106H162.885V41.2695H160.993ZM157.764 38.0405V36.1396H166.114V38.0405H157.764Z" fill="#0E102C"/>
<circle cx="83.5" cy="45.5" r="17.5" fill="#F46D6B"/>
<g filter="url(#filter1_f_3001_45225)">
<ellipse cx="82.5" cy="64" rx="15.5" ry="1" fill="#F46D6B"/>
</g>
<path d="M215.548 142.144C214.732 142.144 214.024 141.964 213.424 141.604C212.832 141.236 212.376 140.728 212.056 140.08C211.736 139.424 211.576 138.664 211.576 137.8C211.576 136.936 211.736 136.18 212.056 135.532C212.376 134.876 212.832 134.368 213.424 134.008C214.024 133.64 214.732 133.456 215.548 133.456C216.508 133.456 217.288 133.684 217.888 134.14C218.488 134.596 218.872 135.24 219.04 136.072H217.924C217.796 135.552 217.536 135.136 217.144 134.824C216.752 134.504 216.22 134.344 215.548 134.344C214.948 134.344 214.428 134.484 213.988 134.764C213.548 135.036 213.208 135.432 212.968 135.952C212.728 136.464 212.608 137.08 212.608 137.8C212.608 138.52 212.728 139.14 212.968 139.66C213.208 140.172 213.548 140.568 213.988 140.848C214.428 141.12 214.948 141.256 215.548 141.256C216.22 141.256 216.752 141.104 217.144 140.8C217.536 140.488 217.796 140.076 217.924 139.564H219.04C218.872 140.372 218.488 141.004 217.888 141.46C217.288 141.916 216.508 142.144 215.548 142.144ZM222.458 142.144C221.994 142.144 221.586 142.052 221.234 141.868C220.89 141.684 220.622 141.4 220.43 141.016C220.246 140.632 220.154 140.152 220.154 139.576V135.952H221.162V139.468C221.162 140.068 221.294 140.52 221.558 140.824C221.822 141.128 222.194 141.28 222.674 141.28C223.01 141.28 223.314 141.2 223.586 141.04C223.858 140.872 224.07 140.636 224.222 140.332C224.382 140.02 224.462 139.64 224.462 139.192V135.952H225.47V142H224.558L224.498 140.944C224.314 141.32 224.042 141.616 223.682 141.832C223.322 142.04 222.914 142.144 222.458 142.144ZM229.24 142.144C228.736 142.144 228.296 142.06 227.92 141.892C227.552 141.724 227.256 141.492 227.032 141.196C226.816 140.892 226.684 140.536 226.636 140.128H227.668C227.708 140.336 227.792 140.528 227.92 140.704C228.048 140.88 228.22 141.024 228.436 141.136C228.66 141.24 228.932 141.292 229.252 141.292C229.532 141.292 229.764 141.252 229.948 141.172C230.132 141.084 230.268 140.968 230.356 140.824C230.452 140.68 230.5 140.524 230.5 140.356C230.5 140.108 230.44 139.92 230.32 139.792C230.208 139.664 230.04 139.564 229.816 139.492C229.592 139.412 229.32 139.344 229 139.288C228.736 139.24 228.476 139.176 228.22 139.096C227.964 139.016 227.736 138.912 227.536 138.784C227.336 138.648 227.176 138.484 227.056 138.292C226.944 138.1 226.888 137.864 226.888 137.584C226.888 137.24 226.976 136.936 227.152 136.672C227.328 136.4 227.58 136.188 227.908 136.036C228.244 135.884 228.632 135.808 229.072 135.808C229.72 135.808 230.244 135.964 230.644 136.276C231.044 136.588 231.28 137.04 231.352 137.632H230.356C230.316 137.328 230.184 137.092 229.96 136.924C229.744 136.748 229.444 136.66 229.06 136.66C228.684 136.66 228.396 136.736 228.196 136.888C228.004 137.04 227.908 137.24 227.908 137.488C227.908 137.648 227.96 137.792 228.064 137.92C228.176 138.04 228.336 138.144 228.544 138.232C228.76 138.32 229.024 138.392 229.336 138.448C229.736 138.52 230.1 138.616 230.428 138.736C230.756 138.856 231.02 139.036 231.22 139.276C231.428 139.508 231.532 139.84 231.532 140.272C231.532 140.648 231.436 140.976 231.244 141.256C231.06 141.536 230.796 141.756 230.452 141.916C230.108 142.068 229.704 142.144 229.24 142.144ZM234.91 142C234.55 142 234.238 141.944 233.974 141.832C233.71 141.72 233.506 141.532 233.362 141.268C233.226 140.996 233.158 140.632 233.158 140.176V136.804H232.102V135.952H233.158L233.29 134.488H234.166V135.952H235.918V136.804H234.166V140.176C234.166 140.552 234.242 140.808 234.394 140.944C234.546 141.072 234.814 141.136 235.198 141.136H235.846V142H234.91ZM239.59 142.144C239.03 142.144 238.526 142.016 238.078 141.76C237.63 141.496 237.278 141.128 237.022 140.656C236.766 140.176 236.638 139.62 236.638 138.988C236.638 138.34 236.766 137.78 237.022 137.308C237.286 136.828 237.642 136.46 238.09 136.204C238.546 135.94 239.054 135.808 239.614 135.808C240.19 135.808 240.698 135.94 241.138 136.204C241.586 136.46 241.938 136.828 242.194 137.308C242.458 137.78 242.59 138.336 242.59 138.976C242.59 139.616 242.458 140.176 242.194 140.656C241.93 141.128 241.574 141.496 241.126 141.76C240.678 142.016 240.166 142.144 239.59 142.144ZM239.602 141.28C239.946 141.28 240.266 141.196 240.562 141.028C240.858 140.852 241.098 140.592 241.282 140.248C241.466 139.904 241.558 139.48 241.558 138.976C241.558 138.464 241.466 138.04 241.282 137.704C241.106 137.36 240.87 137.104 240.574 136.936C240.286 136.76 239.966 136.672 239.614 136.672C239.278 136.672 238.958 136.76 238.654 136.936C238.358 137.104 238.118 137.36 237.934 137.704C237.758 138.04 237.67 138.464 237.67 138.976C237.67 139.48 237.758 139.904 237.934 140.248C238.118 140.592 238.354 140.852 238.642 141.028C238.938 141.196 239.258 141.28 239.602 141.28ZM243.823 142V135.952H244.735L244.795 136.816C244.987 136.504 245.243 136.26 245.563 136.084C245.891 135.9 246.247 135.808 246.631 135.808C246.943 135.808 247.223 135.852 247.471 135.94C247.727 136.02 247.951 136.148 248.143 136.324C248.335 136.492 248.491 136.708 248.611 136.972C248.819 136.604 249.103 136.32 249.463 136.12C249.831 135.912 250.223 135.808 250.639 135.808C251.103 135.808 251.507 135.904 251.851 136.096C252.203 136.28 252.471 136.564 252.655 136.948C252.847 137.324 252.943 137.804 252.943 138.388V142H251.947V138.496C251.947 137.888 251.823 137.432 251.575 137.128C251.327 136.824 250.979 136.672 250.531 136.672C250.219 136.672 249.939 136.756 249.691 136.924C249.443 137.084 249.247 137.32 249.103 137.632C248.959 137.944 248.887 138.328 248.887 138.784V142H247.879V138.496C247.879 137.888 247.755 137.432 247.507 137.128C247.259 136.824 246.907 136.672 246.451 136.672C246.147 136.672 245.871 136.756 245.623 136.924C245.383 137.084 245.191 137.32 245.047 137.632C244.903 137.944 244.831 138.328 244.831 138.784V142H243.823ZM257.434 142V135.952H258.442V142H257.434ZM257.938 134.668C257.738 134.668 257.57 134.604 257.434 134.476C257.306 134.34 257.242 134.172 257.242 133.972C257.242 133.772 257.306 133.612 257.434 133.492C257.57 133.364 257.738 133.3 257.938 133.3C258.13 133.3 258.294 133.364 258.43 133.492C258.566 133.612 258.634 133.772 258.634 133.972C258.634 134.172 258.566 134.34 258.43 134.476C258.294 134.604 258.13 134.668 257.938 134.668ZM260.041 142V135.952H260.953L261.001 137.008C261.193 136.632 261.465 136.34 261.817 136.132C262.177 135.916 262.585 135.808 263.041 135.808C263.513 135.808 263.921 135.904 264.265 136.096C264.609 136.28 264.877 136.564 265.069 136.948C265.261 137.324 265.357 137.804 265.357 138.388V142H264.349V138.496C264.349 137.888 264.213 137.432 263.941 137.128C263.677 136.824 263.301 136.672 262.813 136.672C262.477 136.672 262.177 136.756 261.913 136.924C261.649 137.084 261.437 137.32 261.277 137.632C261.125 137.936 261.049 138.316 261.049 138.772V142H260.041ZM269.127 142C268.767 142 268.455 141.944 268.191 141.832C267.927 141.72 267.723 141.532 267.579 141.268C267.443 140.996 267.375 140.632 267.375 140.176V136.804H266.319V135.952H267.375L267.507 134.488H268.383V135.952H270.135V136.804H268.383V140.176C268.383 140.552 268.459 140.808 268.611 140.944C268.763 141.072 269.031 141.136 269.415 141.136H270.063V142H269.127ZM273.758 142.144C273.19 142.144 272.686 142.012 272.246 141.748C271.814 141.484 271.474 141.116 271.226 140.644C270.978 140.164 270.854 139.608 270.854 138.976C270.854 138.336 270.974 137.78 271.214 137.308C271.462 136.836 271.806 136.468 272.246 136.204C272.694 135.94 273.206 135.808 273.782 135.808C274.374 135.808 274.874 135.94 275.282 136.204C275.698 136.468 276.014 136.816 276.23 137.248C276.454 137.672 276.566 138.14 276.566 138.652C276.566 138.732 276.566 138.816 276.566 138.904C276.566 138.992 276.562 139.092 276.554 139.204H271.61V138.424H275.582C275.558 137.872 275.374 137.44 275.03 137.128C274.694 136.816 274.27 136.66 273.758 136.66C273.414 136.66 273.094 136.74 272.798 136.9C272.51 137.052 272.278 137.28 272.102 137.584C271.926 137.88 271.838 138.252 271.838 138.7V139.036C271.838 139.532 271.926 139.948 272.102 140.284C272.286 140.62 272.522 140.872 272.81 141.04C273.106 141.208 273.422 141.292 273.758 141.292C274.182 141.292 274.53 141.2 274.802 141.016C275.082 140.824 275.282 140.568 275.402 140.248H276.398C276.302 140.608 276.134 140.932 275.894 141.22C275.654 141.508 275.354 141.736 274.994 141.904C274.642 142.064 274.23 142.144 273.758 142.144ZM280.1 144.784C279.556 144.784 279.072 144.712 278.648 144.568C278.232 144.432 277.908 144.22 277.676 143.932C277.444 143.644 277.328 143.288 277.328 142.864C277.328 142.68 277.364 142.484 277.436 142.276C277.516 142.068 277.648 141.864 277.832 141.664C278.024 141.464 278.292 141.284 278.636 141.124L279.332 141.532C278.908 141.708 278.632 141.908 278.504 142.132C278.376 142.364 278.312 142.576 278.312 142.768C278.312 143.032 278.388 143.252 278.54 143.428C278.692 143.604 278.904 143.736 279.176 143.824C279.448 143.912 279.756 143.956 280.1 143.956C280.444 143.956 280.74 143.908 280.988 143.812C281.236 143.716 281.428 143.58 281.564 143.404C281.7 143.228 281.768 143.02 281.768 142.78C281.768 142.5 281.664 142.264 281.456 142.072C281.248 141.888 280.852 141.78 280.268 141.748C279.796 141.716 279.4 141.672 279.08 141.616C278.76 141.56 278.496 141.496 278.288 141.424C278.08 141.344 277.904 141.256 277.76 141.16C277.624 141.064 277.5 140.964 277.388 140.86V140.584L278.552 139.432L279.428 139.744L278.228 140.824L278.384 140.404C278.472 140.468 278.556 140.528 278.636 140.584C278.716 140.64 278.824 140.688 278.96 140.728C279.096 140.768 279.284 140.804 279.524 140.836C279.772 140.868 280.096 140.9 280.496 140.932C281.048 140.972 281.488 141.068 281.816 141.22C282.152 141.372 282.392 141.576 282.536 141.832C282.688 142.088 282.764 142.392 282.764 142.744C282.764 143.088 282.668 143.412 282.476 143.716C282.292 144.028 282.004 144.284 281.612 144.484C281.22 144.684 280.716 144.784 280.1 144.784ZM280.088 140.104C279.584 140.104 279.152 140.008 278.792 139.816C278.44 139.624 278.172 139.368 277.988 139.048C277.804 138.72 277.712 138.356 277.712 137.956C277.712 137.556 277.804 137.196 277.988 136.876C278.18 136.556 278.452 136.3 278.804 136.108C279.156 135.908 279.584 135.808 280.088 135.808C280.592 135.808 281.02 135.908 281.372 136.108C281.724 136.3 281.992 136.556 282.176 136.876C282.36 137.196 282.452 137.556 282.452 137.956C282.452 138.356 282.36 138.72 282.176 139.048C281.992 139.368 281.724 139.624 281.372 139.816C281.02 140.008 280.592 140.104 280.088 140.104ZM280.088 139.276C280.52 139.276 280.86 139.164 281.108 138.94C281.356 138.716 281.48 138.388 281.48 137.956C281.48 137.532 281.356 137.208 281.108 136.984C280.86 136.76 280.52 136.648 280.088 136.648C279.664 136.648 279.32 136.76 279.056 136.984C278.8 137.208 278.672 137.532 278.672 137.956C278.672 138.388 278.8 138.716 279.056 138.94C279.312 139.164 279.656 139.276 280.088 139.276ZM281.072 136.804L280.772 135.952H283.244V136.708L281.072 136.804ZM284.223 142V135.952H285.135L285.207 137.104C285.343 136.832 285.515 136.6 285.723 136.408C285.939 136.216 286.195 136.068 286.491 135.964C286.795 135.86 287.139 135.808 287.523 135.808V136.864H287.151C286.895 136.864 286.651 136.9 286.419 136.972C286.187 137.036 285.979 137.144 285.795 137.296C285.619 137.448 285.479 137.656 285.375 137.92C285.279 138.176 285.231 138.496 285.231 138.88V142H284.223ZM290.452 142.144C289.964 142.144 289.556 142.06 289.228 141.892C288.9 141.716 288.656 141.488 288.496 141.208C288.336 140.92 288.256 140.608 288.256 140.272C288.256 139.864 288.36 139.52 288.568 139.24C288.784 138.952 289.084 138.736 289.468 138.592C289.86 138.44 290.32 138.364 290.848 138.364H292.444C292.444 137.988 292.384 137.676 292.264 137.428C292.152 137.172 291.984 136.98 291.76 136.852C291.544 136.724 291.272 136.66 290.944 136.66C290.56 136.66 290.228 136.756 289.948 136.948C289.668 137.14 289.496 137.424 289.432 137.8H288.4C288.448 137.368 288.592 137.008 288.832 136.72C289.08 136.424 289.392 136.2 289.768 136.048C290.144 135.888 290.536 135.808 290.944 135.808C291.504 135.808 291.968 135.912 292.336 136.12C292.712 136.32 292.992 136.604 293.176 136.972C293.36 137.332 293.452 137.76 293.452 138.256V142H292.552L292.492 140.932C292.412 141.1 292.308 141.26 292.18 141.412C292.06 141.556 291.916 141.684 291.748 141.796C291.58 141.9 291.388 141.984 291.172 142.048C290.964 142.112 290.724 142.144 290.452 142.144ZM290.608 141.292C290.888 141.292 291.14 141.236 291.364 141.124C291.596 141.004 291.792 140.844 291.952 140.644C292.112 140.436 292.232 140.208 292.312 139.96C292.4 139.712 292.444 139.452 292.444 139.18V139.144H290.932C290.54 139.144 290.224 139.192 289.984 139.288C289.744 139.376 289.572 139.504 289.468 139.672C289.364 139.832 289.312 140.016 289.312 140.224C289.312 140.44 289.36 140.628 289.456 140.788C289.56 140.948 289.708 141.072 289.9 141.16C290.1 141.248 290.336 141.292 290.608 141.292ZM297.044 142C296.684 142 296.372 141.944 296.108 141.832C295.844 141.72 295.64 141.532 295.496 141.268C295.36 140.996 295.292 140.632 295.292 140.176V136.804H294.236V135.952H295.292L295.424 134.488H296.3V135.952H298.052V136.804H296.3V140.176C296.3 140.552 296.376 140.808 296.528 140.944C296.68 141.072 296.948 141.136 297.332 141.136H297.98V142H297.044ZM299.283 142V135.952H300.291V142H299.283ZM299.787 134.668C299.587 134.668 299.419 134.604 299.283 134.476C299.155 134.34 299.091 134.172 299.091 133.972C299.091 133.772 299.155 133.612 299.283 133.492C299.419 133.364 299.587 133.3 299.787 133.3C299.979 133.3 300.143 133.364 300.279 133.492C300.415 133.612 300.483 133.772 300.483 133.972C300.483 134.172 300.415 134.34 300.279 134.476C300.143 134.604 299.979 134.668 299.787 134.668ZM304.59 142.144C304.03 142.144 303.526 142.016 303.078 141.76C302.63 141.496 302.278 141.128 302.022 140.656C301.766 140.176 301.638 139.62 301.638 138.988C301.638 138.34 301.766 137.78 302.022 137.308C302.286 136.828 302.642 136.46 303.09 136.204C303.546 135.94 304.054 135.808 304.614 135.808C305.19 135.808 305.698 135.94 306.138 136.204C306.586 136.46 306.938 136.828 307.194 137.308C307.458 137.78 307.59 138.336 307.59 138.976C307.59 139.616 307.458 140.176 307.194 140.656C306.93 141.128 306.574 141.496 306.126 141.76C305.678 142.016 305.166 142.144 304.59 142.144ZM304.602 141.28C304.946 141.28 305.266 141.196 305.562 141.028C305.858 140.852 306.098 140.592 306.282 140.248C306.466 139.904 306.558 139.48 306.558 138.976C306.558 138.464 306.466 138.04 306.282 137.704C306.106 137.36 305.87 137.104 305.574 136.936C305.286 136.76 304.966 136.672 304.614 136.672C304.278 136.672 303.958 136.76 303.654 136.936C303.358 137.104 303.118 137.36 302.934 137.704C302.758 138.04 302.67 138.464 302.67 138.976C302.67 139.48 302.758 139.904 302.934 140.248C303.118 140.592 303.354 140.852 303.642 141.028C303.938 141.196 304.258 141.28 304.602 141.28ZM308.823 142V135.952H309.735L309.783 137.008C309.975 136.632 310.247 136.34 310.599 136.132C310.959 135.916 311.367 135.808 311.823 135.808C312.295 135.808 312.703 135.904 313.047 136.096C313.391 136.28 313.659 136.564 313.851 136.948C314.043 137.324 314.139 137.804 314.139 138.388V142H313.131V138.496C313.131 137.888 312.995 137.432 312.723 137.128C312.459 136.824 312.083 136.672 311.595 136.672C311.259 136.672 310.959 136.756 310.695 136.924C310.431 137.084 310.219 137.32 310.059 137.632C309.907 137.936 309.831 138.316 309.831 138.772V142H308.823ZM317.814 142.144C317.31 142.144 316.87 142.06 316.494 141.892C316.126 141.724 315.83 141.492 315.606 141.196C315.39 140.892 315.258 140.536 315.21 140.128H316.242C316.282 140.336 316.366 140.528 316.494 140.704C316.622 140.88 316.794 141.024 317.01 141.136C317.234 141.24 317.506 141.292 317.826 141.292C318.106 141.292 318.338 141.252 318.522 141.172C318.706 141.084 318.842 140.968 318.93 140.824C319.026 140.68 319.074 140.524 319.074 140.356C319.074 140.108 319.014 139.92 318.894 139.792C318.782 139.664 318.614 139.564 318.39 139.492C318.166 139.412 317.894 139.344 317.574 139.288C317.31 139.24 317.05 139.176 316.794 139.096C316.538 139.016 316.31 138.912 316.11 138.784C315.91 138.648 315.75 138.484 315.63 138.292C315.518 138.1 315.462 137.864 315.462 137.584C315.462 137.24 315.55 136.936 315.726 136.672C315.902 136.4 316.154 136.188 316.482 136.036C316.818 135.884 317.206 135.808 317.646 135.808C318.294 135.808 318.818 135.964 319.218 136.276C319.618 136.588 319.854 137.04 319.926 137.632H318.93C318.89 137.328 318.758 137.092 318.534 136.924C318.318 136.748 318.018 136.66 317.634 136.66C317.258 136.66 316.97 136.736 316.77 136.888C316.578 137.04 316.482 137.24 316.482 137.488C316.482 137.648 316.534 137.792 316.638 137.92C316.75 138.04 316.91 138.144 317.118 138.232C317.334 138.32 317.598 138.392 317.91 138.448C318.31 138.52 318.674 138.616 319.002 138.736C319.33 138.856 319.594 139.036 319.794 139.276C320.002 139.508 320.106 139.84 320.106 140.272C320.106 140.648 320.01 140.976 319.818 141.256C319.634 141.536 319.37 141.756 319.026 141.916C318.682 142.068 318.278 142.144 317.814 142.144ZM324.385 144.64V135.952H325.297L325.381 136.936C325.509 136.744 325.673 136.564 325.873 136.396C326.073 136.22 326.313 136.08 326.593 135.976C326.873 135.864 327.193 135.808 327.553 135.808C328.145 135.808 328.657 135.948 329.089 136.228C329.529 136.508 329.869 136.888 330.109 137.368C330.357 137.84 330.481 138.38 330.481 138.988C330.481 139.596 330.357 140.14 330.109 140.62C329.869 141.092 329.529 141.464 329.089 141.736C328.649 142.008 328.133 142.144 327.541 142.144C327.053 142.144 326.621 142.044 326.245 141.844C325.877 141.644 325.593 141.364 325.393 141.004V144.64H324.385ZM327.433 141.268C327.825 141.268 328.173 141.172 328.477 140.98C328.781 140.788 329.017 140.524 329.185 140.188C329.361 139.844 329.449 139.44 329.449 138.976C329.449 138.52 329.361 138.12 329.185 137.776C329.017 137.432 328.781 137.164 328.477 136.972C328.173 136.78 327.825 136.684 327.433 136.684C327.033 136.684 326.681 136.78 326.377 136.972C326.073 137.164 325.837 137.432 325.669 137.776C325.501 138.12 325.417 138.52 325.417 138.976C325.417 139.44 325.501 139.844 325.669 140.188C325.837 140.524 326.073 140.788 326.377 140.98C326.681 141.172 327.033 141.268 327.433 141.268ZM334.416 142.144C333.856 142.144 333.352 142.016 332.904 141.76C332.456 141.496 332.104 141.128 331.848 140.656C331.592 140.176 331.464 139.62 331.464 138.988C331.464 138.34 331.592 137.78 331.848 137.308C332.112 136.828 332.468 136.46 332.916 136.204C333.372 135.94 333.88 135.808 334.44 135.808C335.016 135.808 335.524 135.94 335.964 136.204C336.412 136.46 336.764 136.828 337.02 137.308C337.284 137.78 337.416 138.336 337.416 138.976C337.416 139.616 337.284 140.176 337.02 140.656C336.756 141.128 336.4 141.496 335.952 141.76C335.504 142.016 334.992 142.144 334.416 142.144ZM334.428 141.28C334.772 141.28 335.092 141.196 335.388 141.028C335.684 140.852 335.924 140.592 336.108 140.248C336.292 139.904 336.384 139.48 336.384 138.976C336.384 138.464 336.292 138.04 336.108 137.704C335.932 137.36 335.696 137.104 335.4 136.936C335.112 136.76 334.792 136.672 334.44 136.672C334.104 136.672 333.784 136.76 333.48 136.936C333.184 137.104 332.944 137.36 332.76 137.704C332.584 138.04 332.496 138.464 332.496 138.976C332.496 139.48 332.584 139.904 332.76 140.248C332.944 140.592 333.18 140.852 333.468 141.028C333.764 141.196 334.084 141.28 334.428 141.28ZM339.651 142L337.875 135.952H338.883L340.263 141.052H340.083L341.583 135.952H342.723L344.247 141.04L344.055 141.052L345.423 135.952H346.443L344.679 142H343.647L342.063 136.672H342.267L340.683 142H339.651ZM349.829 142.144C349.261 142.144 348.757 142.012 348.317 141.748C347.885 141.484 347.545 141.116 347.297 140.644C347.049 140.164 346.925 139.608 346.925 138.976C346.925 138.336 347.045 137.78 347.285 137.308C347.533 136.836 347.877 136.468 348.317 136.204C348.765 135.94 349.277 135.808 349.853 135.808C350.445 135.808 350.945 135.94 351.353 136.204C351.769 136.468 352.085 136.816 352.301 137.248C352.525 137.672 352.637 138.14 352.637 138.652C352.637 138.732 352.637 138.816 352.637 138.904C352.637 138.992 352.633 139.092 352.625 139.204H347.681V138.424H351.653C351.629 137.872 351.445 137.44 351.101 137.128C350.765 136.816 350.341 136.66 349.829 136.66C349.485 136.66 349.165 136.74 348.869 136.9C348.581 137.052 348.349 137.28 348.173 137.584C347.997 137.88 347.909 138.252 347.909 138.7V139.036C347.909 139.532 347.997 139.948 348.173 140.284C348.357 140.62 348.593 140.872 348.881 141.04C349.177 141.208 349.493 141.292 349.829 141.292C350.253 141.292 350.601 141.2 350.873 141.016C351.153 140.824 351.353 140.568 351.473 140.248H352.469C352.373 140.608 352.205 140.932 351.965 141.22C351.725 141.508 351.425 141.736 351.065 141.904C350.713 142.064 350.301 142.144 349.829 142.144ZM353.817 142V135.952H354.729L354.801 137.104C354.937 136.832 355.109 136.6 355.317 136.408C355.533 136.216 355.789 136.068 356.085 135.964C356.389 135.86 356.733 135.808 357.117 135.808V136.864H356.745C356.489 136.864 356.245 136.9 356.013 136.972C355.781 137.036 355.573 137.144 355.389 137.296C355.213 137.448 355.073 137.656 354.969 137.92C354.873 138.176 354.825 138.496 354.825 138.88V142H353.817ZM360.508 142.144C359.94 142.144 359.436 142.012 358.996 141.748C358.564 141.484 358.224 141.116 357.976 140.644C357.728 140.164 357.604 139.608 357.604 138.976C357.604 138.336 357.724 137.78 357.964 137.308C358.212 136.836 358.556 136.468 358.996 136.204C359.444 135.94 359.956 135.808 360.532 135.808C361.124 135.808 361.624 135.94 362.032 136.204C362.448 136.468 362.764 136.816 362.98 137.248C363.204 137.672 363.316 138.14 363.316 138.652C363.316 138.732 363.316 138.816 363.316 138.904C363.316 138.992 363.312 139.092 363.304 139.204H358.36V138.424H362.332C362.308 137.872 362.124 137.44 361.78 137.128C361.444 136.816 361.02 136.66 360.508 136.66C360.164 136.66 359.844 136.74 359.548 136.9C359.26 137.052 359.028 137.28 358.852 137.584C358.676 137.88 358.588 138.252 358.588 138.7V139.036C358.588 139.532 358.676 139.948 358.852 140.284C359.036 140.62 359.272 140.872 359.56 141.04C359.856 141.208 360.172 141.292 360.508 141.292C360.932 141.292 361.28 141.2 361.552 141.016C361.832 140.824 362.032 140.568 362.152 140.248H363.148C363.052 140.608 362.884 140.932 362.644 141.22C362.404 141.508 362.104 141.736 361.744 141.904C361.392 142.064 360.98 142.144 360.508 142.144ZM367.16 142.144C366.576 142.144 366.064 142.008 365.624 141.736C365.184 141.456 364.844 141.076 364.604 140.596C364.364 140.116 364.244 139.572 364.244 138.964C364.244 138.356 364.364 137.816 364.604 137.344C364.844 136.864 365.184 136.488 365.624 136.216C366.072 135.944 366.588 135.808 367.172 135.808C367.668 135.808 368.1 135.908 368.468 136.108C368.844 136.308 369.132 136.588 369.332 136.948V133.36H370.34V142H369.428L369.344 141.004C369.216 141.204 369.052 141.392 368.852 141.568C368.652 141.736 368.412 141.876 368.132 141.988C367.852 142.092 367.528 142.144 367.16 142.144ZM367.28 141.268C367.68 141.268 368.032 141.172 368.336 140.98C368.64 140.788 368.876 140.524 369.044 140.188C369.212 139.844 369.296 139.44 369.296 138.976C369.296 138.52 369.212 138.12 369.044 137.776C368.876 137.432 368.64 137.164 368.336 136.972C368.032 136.78 367.68 136.684 367.28 136.684C366.888 136.684 366.54 136.78 366.236 136.972C365.932 137.164 365.696 137.432 365.528 137.776C365.36 138.12 365.276 138.52 365.276 138.976C365.276 139.44 365.36 139.844 365.528 140.188C365.696 140.524 365.932 140.788 366.236 140.98C366.54 141.172 366.888 141.268 367.28 141.268Z" fill="#AEB9E1"/>
<path d="M210.772 123V121.39L215.072 117.173C215.476 116.758 215.813 116.39 216.084 116.069C216.361 115.748 216.569 115.438 216.707 115.139C216.845 114.835 216.915 114.511 216.915 114.168C216.915 113.781 216.826 113.446 216.649 113.164C216.472 112.881 216.228 112.666 215.918 112.516C215.614 112.367 215.265 112.292 214.873 112.292C214.463 112.292 214.106 112.375 213.802 112.541C213.497 112.707 213.259 112.942 213.088 113.247C212.922 113.551 212.839 113.913 212.839 114.334H210.714C210.714 113.554 210.891 112.876 211.245 112.3C211.605 111.719 212.1 111.268 212.731 110.947C213.362 110.626 214.084 110.466 214.897 110.466C215.733 110.466 216.464 110.621 217.089 110.931C217.714 111.241 218.201 111.667 218.55 112.209C218.898 112.746 219.073 113.36 219.073 114.052C219.073 114.517 218.984 114.973 218.807 115.421C218.63 115.864 218.317 116.359 217.869 116.907C217.426 117.45 216.804 118.105 216.001 118.875L213.876 121.041V121.132H219.255V123H210.772ZM225.143 123.166C224.335 123.166 223.613 123.017 222.977 122.718C222.346 122.413 221.842 121.996 221.466 121.464C221.095 120.933 220.899 120.324 220.877 119.638H223.052C223.085 120.142 223.301 120.554 223.699 120.875C224.103 121.196 224.584 121.356 225.143 121.356C225.586 121.356 225.976 121.257 226.314 121.058C226.651 120.853 226.917 120.573 227.111 120.219C227.31 119.86 227.41 119.45 227.41 118.991C227.41 118.52 227.31 118.105 227.111 117.746C226.911 117.38 226.638 117.095 226.289 116.891C225.94 116.68 225.539 116.575 225.085 116.575C224.709 116.575 224.344 116.647 223.99 116.791C223.635 116.929 223.353 117.112 223.143 117.339L221.109 117.007L221.757 110.632H228.937V112.508H223.616L223.259 115.787H223.326C223.558 115.51 223.882 115.286 224.297 115.114C224.717 114.937 225.179 114.849 225.683 114.849C226.436 114.849 227.102 115.026 227.683 115.38C228.27 115.729 228.732 116.21 229.07 116.824C229.407 117.438 229.576 118.144 229.576 118.941C229.576 119.754 229.388 120.482 229.012 121.124C228.635 121.76 228.115 122.261 227.451 122.626C226.787 122.986 226.018 123.166 225.143 123.166ZM235.647 123.166C234.645 123.166 233.787 122.917 233.073 122.419C232.365 121.915 231.823 121.193 231.446 120.252C231.07 119.306 230.882 118.163 230.882 116.824C230.882 115.485 231.07 114.342 231.446 113.396C231.823 112.444 232.365 111.719 233.073 111.221C233.787 110.718 234.645 110.466 235.647 110.466C236.643 110.466 237.498 110.718 238.212 111.221C238.926 111.725 239.471 112.45 239.847 113.396C240.223 114.342 240.411 115.485 240.411 116.824C240.411 118.163 240.223 119.306 239.847 120.252C239.471 121.193 238.928 121.915 238.22 122.419C237.512 122.917 236.654 123.166 235.647 123.166ZM235.647 121.29C236.183 121.29 236.637 121.116 237.008 120.767C237.384 120.418 237.669 119.912 237.863 119.248C238.062 118.578 238.162 117.771 238.162 116.824C238.162 115.872 238.062 115.062 237.863 114.392C237.669 113.722 237.384 113.213 237.008 112.865C236.637 112.511 236.183 112.333 235.647 112.333C234.839 112.333 234.216 112.726 233.779 113.512C233.347 114.292 233.132 115.396 233.132 116.824C233.132 117.771 233.228 118.578 233.422 119.248C233.616 119.912 233.901 120.418 234.277 120.767C234.653 121.116 235.11 121.29 235.647 121.29ZM245.569 122.27V113.911H247.461V122.27H245.569ZM242.34 119.041V117.14H250.69V119.041H242.34Z" fill="white"/>
<circle cx="175" cy="126" r="17" fill="#3D3F65"/>
<g filter="url(#filter2_f_3001_45225)">
<ellipse cx="174.5" cy="144" rx="15.5" ry="1" fill="#4E4F84"/>
</g>
<path d="M129.868 225V217.428H127.36V216.6H133.384V217.428H130.876V225H129.868ZM135.96 225.144C135.392 225.144 134.888 225.012 134.448 224.748C134.016 224.484 133.676 224.116 133.428 223.644C133.18 223.164 133.056 222.608 133.056 221.976C133.056 221.336 133.176 220.78 133.416 220.308C133.664 219.836 134.008 219.468 134.448 219.204C134.896 218.94 135.408 218.808 135.984 218.808C136.576 218.808 137.076 218.94 137.484 219.204C137.9 219.468 138.216 219.816 138.432 220.248C138.656 220.672 138.768 221.14 138.768 221.652C138.768 221.732 138.768 221.816 138.768 221.904C138.768 221.992 138.764 222.092 138.756 222.204H133.812V221.424H137.784C137.76 220.872 137.576 220.44 137.232 220.128C136.896 219.816 136.472 219.66 135.96 219.66C135.616 219.66 135.296 219.74 135 219.9C134.712 220.052 134.48 220.28 134.304 220.584C134.128 220.88 134.04 221.252 134.04 221.7V222.036C134.04 222.532 134.128 222.948 134.304 223.284C134.488 223.62 134.724 223.872 135.012 224.04C135.308 224.208 135.624 224.292 135.96 224.292C136.384 224.292 136.732 224.2 137.004 224.016C137.284 223.824 137.484 223.568 137.604 223.248H138.6C138.504 223.608 138.336 223.932 138.096 224.22C137.856 224.508 137.556 224.736 137.196 224.904C136.844 225.064 136.432 225.144 135.96 225.144ZM141.917 225.144C141.429 225.144 141.021 225.06 140.693 224.892C140.365 224.716 140.121 224.488 139.961 224.208C139.801 223.92 139.721 223.608 139.721 223.272C139.721 222.864 139.825 222.52 140.033 222.24C140.249 221.952 140.549 221.736 140.933 221.592C141.325 221.44 141.785 221.364 142.313 221.364H143.909C143.909 220.988 143.849 220.676 143.729 220.428C143.617 220.172 143.449 219.98 143.225 219.852C143.009 219.724 142.737 219.66 142.409 219.66C142.025 219.66 141.693 219.756 141.413 219.948C141.133 220.14 140.961 220.424 140.897 220.8H139.865C139.913 220.368 140.057 220.008 140.297 219.72C140.545 219.424 140.857 219.2 141.233 219.048C141.609 218.888 142.001 218.808 142.409 218.808C142.969 218.808 143.433 218.912 143.801 219.12C144.177 219.32 144.457 219.604 144.641 219.972C144.825 220.332 144.917 220.76 144.917 221.256V225H144.017L143.957 223.932C143.877 224.1 143.773 224.26 143.645 224.412C143.525 224.556 143.381 224.684 143.213 224.796C143.045 224.9 142.853 224.984 142.637 225.048C142.429 225.112 142.189 225.144 141.917 225.144ZM142.073 224.292C142.353 224.292 142.605 224.236 142.829 224.124C143.061 224.004 143.257 223.844 143.417 223.644C143.577 223.436 143.697 223.208 143.777 222.96C143.865 222.712 143.909 222.452 143.909 222.18V222.144H142.397C142.005 222.144 141.689 222.192 141.449 222.288C141.209 222.376 141.037 222.504 140.933 222.672C140.829 222.832 140.777 223.016 140.777 223.224C140.777 223.44 140.825 223.628 140.921 223.788C141.025 223.948 141.173 224.072 141.365 224.16C141.565 224.248 141.801 224.292 142.073 224.292ZM146.296 225V218.952H147.208L147.268 219.816C147.46 219.504 147.716 219.26 148.036 219.084C148.364 218.9 148.72 218.808 149.104 218.808C149.416 218.808 149.696 218.852 149.944 218.94C150.2 219.02 150.424 219.148 150.616 219.324C150.808 219.492 150.964 219.708 151.084 219.972C151.292 219.604 151.576 219.32 151.936 219.12C152.304 218.912 152.696 218.808 153.112 218.808C153.576 218.808 153.98 218.904 154.324 219.096C154.676 219.28 154.944 219.564 155.128 219.948C155.32 220.324 155.416 220.804 155.416 221.388V225H154.42V221.496C154.42 220.888 154.296 220.432 154.048 220.128C153.8 219.824 153.452 219.672 153.004 219.672C152.692 219.672 152.412 219.756 152.164 219.924C151.916 220.084 151.72 220.32 151.576 220.632C151.432 220.944 151.36 221.328 151.36 221.784V225H150.352V221.496C150.352 220.888 150.228 220.432 149.98 220.128C149.732 219.824 149.38 219.672 148.924 219.672C148.62 219.672 148.344 219.756 148.096 219.924C147.856 220.084 147.664 220.32 147.52 220.632C147.376 220.944 147.304 221.328 147.304 221.784V225H146.296ZM159.084 225.144C158.58 225.144 158.14 225.06 157.764 224.892C157.396 224.724 157.1 224.492 156.876 224.196C156.66 223.892 156.528 223.536 156.48 223.128H157.512C157.552 223.336 157.636 223.528 157.764 223.704C157.892 223.88 158.064 224.024 158.28 224.136C158.504 224.24 158.776 224.292 159.096 224.292C159.376 224.292 159.608 224.252 159.792 224.172C159.976 224.084 160.112 223.968 160.2 223.824C160.296 223.68 160.344 223.524 160.344 223.356C160.344 223.108 160.284 222.92 160.164 222.792C160.052 222.664 159.884 222.564 159.66 222.492C159.436 222.412 159.164 222.344 158.844 222.288C158.58 222.24 158.32 222.176 158.064 222.096C157.808 222.016 157.58 221.912 157.38 221.784C157.18 221.648 157.02 221.484 156.9 221.292C156.788 221.1 156.732 220.864 156.732 220.584C156.732 220.24 156.82 219.936 156.996 219.672C157.172 219.4 157.424 219.188 157.752 219.036C158.088 218.884 158.476 218.808 158.916 218.808C159.564 218.808 160.088 218.964 160.488 219.276C160.888 219.588 161.124 220.04 161.196 220.632H160.2C160.16 220.328 160.028 220.092 159.804 219.924C159.588 219.748 159.288 219.66 158.904 219.66C158.528 219.66 158.24 219.736 158.04 219.888C157.848 220.04 157.752 220.24 157.752 220.488C157.752 220.648 157.804 220.792 157.908 220.92C158.02 221.04 158.18 221.144 158.388 221.232C158.604 221.32 158.868 221.392 159.18 221.448C159.58 221.52 159.944 221.616 160.272 221.736C160.6 221.856 160.864 222.036 161.064 222.276C161.272 222.508 161.376 222.84 161.376 223.272C161.376 223.648 161.28 223.976 161.088 224.256C160.904 224.536 160.64 224.756 160.296 224.916C159.952 225.068 159.548 225.144 159.084 225.144ZM167.935 225.144C167.431 225.144 166.991 225.06 166.615 224.892C166.247 224.724 165.951 224.492 165.727 224.196C165.511 223.892 165.379 223.536 165.331 223.128H166.363C166.403 223.336 166.487 223.528 166.615 223.704C166.743 223.88 166.915 224.024 167.131 224.136C167.355 224.24 167.627 224.292 167.947 224.292C168.227 224.292 168.459 224.252 168.643 224.172C168.827 224.084 168.963 223.968 169.051 223.824C169.147 223.68 169.195 223.524 169.195 223.356C169.195 223.108 169.135 222.92 169.015 222.792C168.903 222.664 168.735 222.564 168.511 222.492C168.287 222.412 168.015 222.344 167.695 222.288C167.431 222.24 167.171 222.176 166.915 222.096C166.659 222.016 166.431 221.912 166.231 221.784C166.031 221.648 165.871 221.484 165.751 221.292C165.639 221.1 165.583 220.864 165.583 220.584C165.583 220.24 165.671 219.936 165.847 219.672C166.023 219.4 166.275 219.188 166.603 219.036C166.939 218.884 167.327 218.808 167.767 218.808C168.415 218.808 168.939 218.964 169.339 219.276C169.739 219.588 169.975 220.04 170.047 220.632H169.051C169.011 220.328 168.879 220.092 168.655 219.924C168.439 219.748 168.139 219.66 167.755 219.66C167.379 219.66 167.091 219.736 166.891 219.888C166.699 220.04 166.603 220.24 166.603 220.488C166.603 220.648 166.655 220.792 166.759 220.92C166.871 221.04 167.031 221.144 167.239 221.232C167.455 221.32 167.719 221.392 168.031 221.448C168.431 221.52 168.795 221.616 169.123 221.736C169.451 221.856 169.715 222.036 169.915 222.276C170.123 222.508 170.227 222.84 170.227 223.272C170.227 223.648 170.131 223.976 169.939 224.256C169.755 224.536 169.491 224.756 169.147 224.916C168.803 225.068 168.399 225.144 167.935 225.144ZM174.222 225.144C173.654 225.144 173.142 225.012 172.686 224.748C172.238 224.484 171.886 224.116 171.63 223.644C171.374 223.164 171.246 222.612 171.246 221.988C171.246 221.348 171.374 220.792 171.63 220.32C171.886 219.848 172.238 219.48 172.686 219.216C173.142 218.944 173.654 218.808 174.222 218.808C174.942 218.808 175.542 218.996 176.022 219.372C176.502 219.74 176.806 220.236 176.934 220.86H175.902C175.822 220.484 175.626 220.192 175.314 219.984C175.002 219.776 174.634 219.672 174.21 219.672C173.866 219.672 173.546 219.76 173.25 219.936C172.954 220.104 172.718 220.36 172.542 220.704C172.366 221.048 172.278 221.472 172.278 221.976C172.278 222.352 172.33 222.688 172.434 222.984C172.538 223.272 172.678 223.512 172.854 223.704C173.03 223.896 173.234 224.044 173.466 224.148C173.706 224.244 173.954 224.292 174.21 224.292C174.498 224.292 174.758 224.248 174.99 224.16C175.222 224.064 175.418 223.924 175.578 223.74C175.738 223.556 175.846 223.34 175.902 223.092H176.934C176.806 223.7 176.498 224.196 176.01 224.58C175.53 224.956 174.934 225.144 174.222 225.144ZM180.153 225.144C179.665 225.144 179.257 225.06 178.929 224.892C178.601 224.716 178.357 224.488 178.197 224.208C178.037 223.92 177.957 223.608 177.957 223.272C177.957 222.864 178.061 222.52 178.269 222.24C178.485 221.952 178.785 221.736 179.169 221.592C179.561 221.44 180.021 221.364 180.549 221.364H182.145C182.145 220.988 182.085 220.676 181.965 220.428C181.853 220.172 181.685 219.98 181.461 219.852C181.245 219.724 180.973 219.66 180.645 219.66C180.261 219.66 179.929 219.756 179.649 219.948C179.369 220.14 179.197 220.424 179.133 220.8H178.101C178.149 220.368 178.293 220.008 178.533 219.72C178.781 219.424 179.093 219.2 179.469 219.048C179.845 218.888 180.237 218.808 180.645 218.808C181.205 218.808 181.669 218.912 182.037 219.12C182.413 219.32 182.693 219.604 182.877 219.972C183.061 220.332 183.153 220.76 183.153 221.256V225H182.253L182.193 223.932C182.113 224.1 182.009 224.26 181.881 224.412C181.761 224.556 181.617 224.684 181.449 224.796C181.281 224.9 181.089 224.984 180.873 225.048C180.665 225.112 180.425 225.144 180.153 225.144ZM180.309 224.292C180.589 224.292 180.841 224.236 181.065 224.124C181.297 224.004 181.493 223.844 181.653 223.644C181.813 223.436 181.933 223.208 182.013 222.96C182.101 222.712 182.145 222.452 182.145 222.18V222.144H180.633C180.241 222.144 179.925 222.192 179.685 222.288C179.445 222.376 179.273 222.504 179.169 222.672C179.065 222.832 179.013 223.016 179.013 223.224C179.013 223.44 179.061 223.628 179.157 223.788C179.261 223.948 179.409 224.072 179.601 224.16C179.801 224.248 180.037 224.292 180.309 224.292ZM184.533 225V216.36H185.541V225H184.533ZM187.12 225V218.952H188.128V225H187.12ZM187.624 217.668C187.424 217.668 187.256 217.604 187.12 217.476C186.992 217.34 186.928 217.172 186.928 216.972C186.928 216.772 186.992 216.612 187.12 216.492C187.256 216.364 187.424 216.3 187.624 216.3C187.816 216.3 187.98 216.364 188.116 216.492C188.252 216.612 188.32 216.772 188.32 216.972C188.32 217.172 188.252 217.34 188.116 217.476C187.98 217.604 187.816 217.668 187.624 217.668ZM189.727 225V218.952H190.639L190.687 220.008C190.879 219.632 191.151 219.34 191.503 219.132C191.863 218.916 192.271 218.808 192.727 218.808C193.199 218.808 193.607 218.904 193.951 219.096C194.295 219.28 194.563 219.564 194.755 219.948C194.947 220.324 195.043 220.804 195.043 221.388V225H194.035V221.496C194.035 220.888 193.899 220.432 193.627 220.128C193.363 219.824 192.987 219.672 192.499 219.672C192.163 219.672 191.863 219.756 191.599 219.924C191.335 220.084 191.123 220.32 190.963 220.632C190.811 220.936 190.735 221.316 190.735 221.772V225H189.727ZM198.826 227.784C198.282 227.784 197.798 227.712 197.374 227.568C196.958 227.432 196.634 227.22 196.402 226.932C196.17 226.644 196.054 226.288 196.054 225.864C196.054 225.68 196.09 225.484 196.162 225.276C196.242 225.068 196.374 224.864 196.558 224.664C196.75 224.464 197.018 224.284 197.362 224.124L198.058 224.532C197.634 224.708 197.358 224.908 197.23 225.132C197.102 225.364 197.038 225.576 197.038 225.768C197.038 226.032 197.114 226.252 197.266 226.428C197.418 226.604 197.63 226.736 197.902 226.824C198.174 226.912 198.482 226.956 198.826 226.956C199.17 226.956 199.466 226.908 199.714 226.812C199.962 226.716 200.154 226.58 200.29 226.404C200.426 226.228 200.494 226.02 200.494 225.78C200.494 225.5 200.39 225.264 200.182 225.072C199.974 224.888 199.578 224.78 198.994 224.748C198.522 224.716 198.126 224.672 197.806 224.616C197.486 224.56 197.222 224.496 197.014 224.424C196.806 224.344 196.63 224.256 196.486 224.16C196.35 224.064 196.226 223.964 196.114 223.86V223.584L197.278 222.432L198.154 222.744L196.954 223.824L197.11 223.404C197.198 223.468 197.282 223.528 197.362 223.584C197.442 223.64 197.55 223.688 197.686 223.728C197.822 223.768 198.01 223.804 198.25 223.836C198.498 223.868 198.822 223.9 199.222 223.932C199.774 223.972 200.214 224.068 200.542 224.22C200.878 224.372 201.118 224.576 201.262 224.832C201.414 225.088 201.49 225.392 201.49 225.744C201.49 226.088 201.394 226.412 201.202 226.716C201.018 227.028 200.73 227.284 200.338 227.484C199.946 227.684 199.442 227.784 198.826 227.784ZM198.814 223.104C198.31 223.104 197.878 223.008 197.518 222.816C197.166 222.624 196.898 222.368 196.714 222.048C196.53 221.72 196.438 221.356 196.438 220.956C196.438 220.556 196.53 220.196 196.714 219.876C196.906 219.556 197.178 219.3 197.53 219.108C197.882 218.908 198.31 218.808 198.814 218.808C199.318 218.808 199.746 218.908 200.098 219.108C200.45 219.3 200.718 219.556 200.902 219.876C201.086 220.196 201.178 220.556 201.178 220.956C201.178 221.356 201.086 221.72 200.902 222.048C200.718 222.368 200.45 222.624 200.098 222.816C199.746 223.008 199.318 223.104 198.814 223.104ZM198.814 222.276C199.246 222.276 199.586 222.164 199.834 221.94C200.082 221.716 200.206 221.388 200.206 220.956C200.206 220.532 200.082 220.208 199.834 219.984C199.586 219.76 199.246 219.648 198.814 219.648C198.39 219.648 198.046 219.76 197.782 219.984C197.526 220.208 197.398 220.532 197.398 220.956C197.398 221.388 197.526 221.716 197.782 221.94C198.038 222.164 198.382 222.276 198.814 222.276ZM199.798 219.804L199.498 218.952H201.97V219.708L199.798 219.804ZM206.293 225V218.016C206.293 217.632 206.357 217.32 206.485 217.08C206.613 216.832 206.801 216.652 207.049 216.54C207.305 216.42 207.617 216.36 207.985 216.36H208.669V217.224H208.141C207.845 217.224 207.629 217.284 207.493 217.404C207.365 217.524 207.301 217.736 207.301 218.04V225H206.293ZM205.369 219.804V218.952H208.825V219.804H205.369ZM211.588 225.144C211.1 225.144 210.692 225.06 210.364 224.892C210.036 224.716 209.792 224.488 209.632 224.208C209.472 223.92 209.392 223.608 209.392 223.272C209.392 222.864 209.496 222.52 209.704 222.24C209.92 221.952 210.22 221.736 210.604 221.592C210.996 221.44 211.456 221.364 211.984 221.364H213.58C213.58 220.988 213.52 220.676 213.4 220.428C213.288 220.172 213.12 219.98 212.896 219.852C212.68 219.724 212.408 219.66 212.08 219.66C211.696 219.66 211.364 219.756 211.084 219.948C210.804 220.14 210.632 220.424 210.568 220.8H209.536C209.584 220.368 209.728 220.008 209.968 219.72C210.216 219.424 210.528 219.2 210.904 219.048C211.28 218.888 211.672 218.808 212.08 218.808C212.64 218.808 213.104 218.912 213.472 219.12C213.848 219.32 214.128 219.604 214.312 219.972C214.496 220.332 214.588 220.76 214.588 221.256V225H213.688L213.628 223.932C213.548 224.1 213.444 224.26 213.316 224.412C213.196 224.556 213.052 224.684 212.884 224.796C212.716 224.9 212.524 224.984 212.308 225.048C212.1 225.112 211.86 225.144 211.588 225.144ZM211.744 224.292C212.024 224.292 212.276 224.236 212.5 224.124C212.732 224.004 212.928 223.844 213.088 223.644C213.248 223.436 213.368 223.208 213.448 222.96C213.536 222.712 213.58 222.452 213.58 222.18V222.144H212.068C211.676 222.144 211.36 222.192 211.12 222.288C210.88 222.376 210.708 222.504 210.604 222.672C210.5 222.832 210.448 223.016 210.448 223.224C210.448 223.44 210.496 223.628 210.592 223.788C210.696 223.948 210.844 224.072 211.036 224.16C211.236 224.248 211.472 224.292 211.744 224.292ZM218.248 225.144C217.744 225.144 217.304 225.06 216.928 224.892C216.56 224.724 216.264 224.492 216.04 224.196C215.824 223.892 215.692 223.536 215.644 223.128H216.676C216.716 223.336 216.8 223.528 216.928 223.704C217.056 223.88 217.228 224.024 217.444 224.136C217.668 224.24 217.94 224.292 218.26 224.292C218.54 224.292 218.772 224.252 218.956 224.172C219.14 224.084 219.276 223.968 219.364 223.824C219.46 223.68 219.508 223.524 219.508 223.356C219.508 223.108 219.448 222.92 219.328 222.792C219.216 222.664 219.048 222.564 218.824 222.492C218.6 222.412 218.328 222.344 218.008 222.288C217.744 222.24 217.484 222.176 217.228 222.096C216.972 222.016 216.744 221.912 216.544 221.784C216.344 221.648 216.184 221.484 216.064 221.292C215.952 221.1 215.896 220.864 215.896 220.584C215.896 220.24 215.984 219.936 216.16 219.672C216.336 219.4 216.588 219.188 216.916 219.036C217.252 218.884 217.64 218.808 218.08 218.808C218.728 218.808 219.252 218.964 219.652 219.276C220.052 219.588 220.288 220.04 220.36 220.632H219.364C219.324 220.328 219.192 220.092 218.968 219.924C218.752 219.748 218.452 219.66 218.068 219.66C217.692 219.66 217.404 219.736 217.204 219.888C217.012 220.04 216.916 220.24 216.916 220.488C216.916 220.648 216.968 220.792 217.072 220.92C217.184 221.04 217.344 221.144 217.552 221.232C217.768 221.32 218.032 221.392 218.344 221.448C218.744 221.52 219.108 221.616 219.436 221.736C219.764 221.856 220.028 222.036 220.228 222.276C220.436 222.508 220.54 222.84 220.54 223.272C220.54 223.648 220.444 223.976 220.252 224.256C220.068 224.536 219.804 224.756 219.46 224.916C219.116 225.068 218.712 225.144 218.248 225.144ZM223.918 225C223.558 225 223.246 224.944 222.982 224.832C222.718 224.72 222.514 224.532 222.37 224.268C222.234 223.996 222.166 223.632 222.166 223.176V219.804H221.11V218.952H222.166L222.298 217.488H223.174V218.952H224.926V219.804H223.174V223.176C223.174 223.552 223.25 223.808 223.402 223.944C223.554 224.072 223.822 224.136 224.206 224.136H224.854V225H223.918ZM228.549 225.144C227.981 225.144 227.477 225.012 227.037 224.748C226.605 224.484 226.265 224.116 226.017 223.644C225.769 223.164 225.645 222.608 225.645 221.976C225.645 221.336 225.765 220.78 226.005 220.308C226.253 219.836 226.597 219.468 227.037 219.204C227.485 218.94 227.997 218.808 228.573 218.808C229.165 218.808 229.665 218.94 230.073 219.204C230.489 219.468 230.805 219.816 231.021 220.248C231.245 220.672 231.357 221.14 231.357 221.652C231.357 221.732 231.357 221.816 231.357 221.904C231.357 221.992 231.353 222.092 231.345 222.204H226.401V221.424H230.373C230.349 220.872 230.165 220.44 229.821 220.128C229.485 219.816 229.061 219.66 228.549 219.66C228.205 219.66 227.885 219.74 227.589 219.9C227.301 220.052 227.069 220.28 226.893 220.584C226.717 220.88 226.629 221.252 226.629 221.7V222.036C226.629 222.532 226.717 222.948 226.893 223.284C227.077 223.62 227.313 223.872 227.601 224.04C227.897 224.208 228.213 224.292 228.549 224.292C228.973 224.292 229.321 224.2 229.593 224.016C229.873 223.824 230.073 223.568 230.193 223.248H231.189C231.093 223.608 230.925 223.932 230.685 224.22C230.445 224.508 230.145 224.736 229.785 224.904C229.433 225.064 229.021 225.144 228.549 225.144ZM232.537 225V218.952H233.449L233.521 220.104C233.657 219.832 233.829 219.6 234.037 219.408C234.253 219.216 234.509 219.068 234.805 218.964C235.109 218.86 235.453 218.808 235.837 218.808V219.864H235.465C235.209 219.864 234.965 219.9 234.733 219.972C234.501 220.036 234.293 220.144 234.109 220.296C233.933 220.448 233.793 220.656 233.689 220.92C233.593 221.176 233.545 221.496 233.545 221.88V225H232.537Z" fill="#AEB9E1"/>
<path d="M131.08 206.166C130.272 206.166 129.55 206.017 128.914 205.718C128.283 205.413 127.779 204.996 127.403 204.464C127.032 203.933 126.836 203.324 126.813 202.638H128.988C129.021 203.142 129.237 203.554 129.636 203.875C130.04 204.196 130.521 204.356 131.08 204.356C131.523 204.356 131.913 204.257 132.25 204.058C132.588 203.853 132.854 203.573 133.047 203.219C133.247 202.86 133.346 202.45 133.346 201.991C133.346 201.52 133.247 201.105 133.047 200.746C132.848 200.38 132.574 200.095 132.226 199.891C131.877 199.68 131.476 199.575 131.022 199.575C130.646 199.575 130.28 199.647 129.926 199.791C129.572 199.929 129.29 200.112 129.08 200.339L127.046 200.007L127.693 193.632H134.874V195.508H129.553L129.196 198.787H129.262C129.495 198.51 129.818 198.286 130.233 198.114C130.654 197.937 131.116 197.849 131.62 197.849C132.372 197.849 133.039 198.026 133.62 198.38C134.207 198.729 134.669 199.21 135.006 199.824C135.344 200.438 135.513 201.144 135.513 201.941C135.513 202.754 135.325 203.482 134.948 204.124C134.572 204.76 134.052 205.261 133.388 205.626C132.724 205.986 131.954 206.166 131.08 206.166ZM141.409 206.166C140.513 206.166 139.718 206.017 139.027 205.718C138.335 205.413 137.793 204.998 137.4 204.473C137.012 203.947 136.819 203.352 136.819 202.688C136.819 202.173 136.932 201.697 137.159 201.26C137.386 200.823 137.693 200.458 138.08 200.165C138.473 199.871 138.913 199.683 139.4 199.6V199.525C138.764 199.382 138.249 199.055 137.856 198.546C137.463 198.037 137.267 197.447 137.267 196.778C137.267 196.141 137.444 195.574 137.798 195.076C138.158 194.578 138.65 194.185 139.276 193.897C139.901 193.61 140.612 193.466 141.409 193.466C142.2 193.466 142.909 193.61 143.534 193.897C144.159 194.185 144.652 194.578 145.012 195.076C145.371 195.574 145.551 196.141 145.551 196.778C145.551 197.447 145.352 198.037 144.953 198.546C144.555 199.055 144.046 199.382 143.426 199.525V199.6C143.902 199.683 144.336 199.871 144.729 200.165C145.122 200.458 145.432 200.823 145.659 201.26C145.891 201.697 146.008 202.173 146.008 202.688C146.008 203.352 145.811 203.947 145.418 204.473C145.025 204.998 144.483 205.413 143.791 205.718C143.1 206.017 142.306 206.166 141.409 206.166ZM141.409 204.448C141.874 204.448 142.278 204.368 142.621 204.207C142.964 204.047 143.23 203.822 143.418 203.535C143.606 203.241 143.7 202.907 143.7 202.53C143.7 202.137 143.6 201.789 143.401 201.484C143.202 201.18 142.931 200.942 142.588 200.771C142.245 200.593 141.852 200.505 141.409 200.505C140.966 200.505 140.571 200.593 140.222 200.771C139.879 200.942 139.608 201.18 139.409 201.484C139.215 201.783 139.118 202.132 139.118 202.53C139.118 202.907 139.212 203.241 139.4 203.535C139.588 203.822 139.854 204.047 140.197 204.207C140.54 204.368 140.944 204.448 141.409 204.448ZM141.409 198.812C141.785 198.812 142.12 198.737 142.413 198.587C142.707 198.432 142.939 198.219 143.111 197.948C143.282 197.672 143.368 197.356 143.368 197.002C143.368 196.642 143.285 196.33 143.119 196.064C142.953 195.798 142.723 195.594 142.43 195.45C142.137 195.3 141.796 195.226 141.409 195.226C141.022 195.226 140.679 195.3 140.38 195.45C140.086 195.594 139.857 195.798 139.691 196.064C139.53 196.33 139.45 196.642 139.45 197.002C139.45 197.356 139.533 197.669 139.699 197.94C139.865 198.211 140.095 198.424 140.388 198.579C140.687 198.734 141.027 198.812 141.409 198.812ZM152.078 206.166C151.077 206.166 150.219 205.917 149.505 205.419C148.797 204.915 148.254 204.193 147.878 203.252C147.502 202.306 147.314 201.163 147.314 199.824C147.314 198.485 147.502 197.342 147.878 196.396C148.254 195.444 148.797 194.719 149.505 194.221C150.219 193.718 151.077 193.466 152.078 193.466C153.074 193.466 153.929 193.718 154.643 194.221C155.357 194.725 155.902 195.45 156.279 196.396C156.655 197.342 156.843 198.485 156.843 199.824C156.843 201.163 156.655 202.306 156.279 203.252C155.902 204.193 155.36 204.915 154.652 205.419C153.943 205.917 153.085 206.166 152.078 206.166ZM152.078 204.29C152.615 204.29 153.069 204.116 153.44 203.767C153.816 203.418 154.101 202.912 154.295 202.248C154.494 201.578 154.593 200.771 154.593 199.824C154.593 198.872 154.494 198.062 154.295 197.392C154.101 196.722 153.816 196.213 153.44 195.865C153.069 195.511 152.615 195.333 152.078 195.333C151.27 195.333 150.648 195.726 150.211 196.512C149.779 197.292 149.563 198.396 149.563 199.824C149.563 200.771 149.66 201.578 149.854 202.248C150.047 202.912 150.332 203.418 150.709 203.767C151.085 204.116 151.542 204.29 152.078 204.29ZM162.001 205.27V196.911H163.893V205.27H162.001ZM158.772 202.041V200.14H167.122V202.041H158.772Z" fill="white"/>
<circle cx="88" cy="211" r="17" fill="#3D3F65"/>
<g filter="url(#filter3_f_3001_45225)">
<ellipse cx="87.5" cy="229" rx="15.5" ry="1" fill="#4E4F84"/>
</g>
<defs>
<filter id="filter0_d_3001_45225" x="32.7" y="0.700001" width="288.6" height="97.6" filterUnits="userSpaceOnUse" color-interpolation-filters="sRGB">
<feFlood flood-opacity="0" result="BackgroundImageFix"/>
<feColorMatrix in="SourceAlpha" type="matrix" values="0 0 0 0 0 0 0 0 0 0 0 0 0 0 0 0 0 0 127 0" result="hardAlpha"/>
<feOffset dy="4"/>
<feGaussianBlur stdDeviation="8.15"/>
<feComposite in2="hardAlpha" operator="out"/>
<feColorMatrix type="matrix" values="0 0 0 0 0.0421598 0 0 0 0 0.0496055 0 0 0 0 0.153846 0 0 0 1 0"/>
<feBlend mode="normal" in2="BackgroundImageFix" result="effect1_dropShadow_3001_45225"/>
<feBlend mode="normal" in="SourceGraphic" in2="effect1_dropShadow_3001_45225" result="shape"/>
</filter>
<filter id="filter1_f_3001_45225" x="62.7" y="58.7" width="39.6" height="10.6" filterUnits="userSpaceOnUse" color-interpolation-filters="sRGB">
<feFlood flood-opacity="0" result="BackgroundImageFix"/>
<feBlend mode="normal" in="SourceGraphic" in2="BackgroundImageFix" result="shape"/>
<feGaussianBlur stdDeviation="2.15" result="effect1_foregroundBlur_3001_45225"/>
</filter>
<filter id="filter2_f_3001_45225" x="154.7" y="138.7" width="39.6" height="10.6" filterUnits="userSpaceOnUse" color-interpolation-filters="sRGB">
<feFlood flood-opacity="0" result="BackgroundImageFix"/>
<feBlend mode="normal" in="SourceGraphic" in2="BackgroundImageFix" result="shape"/>
<feGaussianBlur stdDeviation="2.15" result="effect1_foregroundBlur_3001_45225"/>
</filter>
<filter id="filter3_f_3001_45225" x="67.7" y="223.7" width="39.6" height="10.6" filterUnits="userSpaceOnUse" color-interpolation-filters="sRGB">
<feFlood flood-opacity="0" result="BackgroundImageFix"/>
<feBlend mode="normal" in="SourceGraphic" in2="BackgroundImageFix" result="shape"/>
<feGaussianBlur stdDeviation="2.15" result="effect1_foregroundBlur_3001_45225"/>
</filter>
</defs>
</svg>
