<svg width="1920" height="1791" viewBox="0 0 1920 1791" fill="none" xmlns="http://www.w3.org/2000/svg">
<path d="M346.442 133.515L347.273 133.479L347.786 132.825L347.822 133.655L348.476 134.168L347.646 134.205L347.133 134.859L347.096 134.028L346.442 133.515Z" fill="#6F6C7D"/>
<path d="M349.51 309.788L350.341 309.751L350.854 309.097L350.89 309.928L351.544 310.441L350.714 310.477L350.201 311.131L350.164 310.301L349.51 309.788Z" fill="#6F6C7D"/>
<path d="M14.6049 553.722L15.4354 553.686L15.9484 553.032L15.9848 553.862L16.6389 554.375L15.8084 554.412L15.2953 555.066L15.259 554.235L14.6049 553.722Z" fill="#6F6C7D"/>
<path d="M120.593 191.379L121.423 191.343L121.936 190.689L121.973 191.52L122.627 192.033L121.796 192.069L121.283 192.723L121.247 191.892L120.593 191.379Z" fill="#6F6C7D"/>
<path d="M287.394 102.265L288.224 102.229L288.737 101.575L288.774 102.405L289.428 102.918L288.597 102.955L288.084 103.609L288.048 102.778L287.394 102.265Z" fill="#6F6C7D"/>
<path d="M169.19 132.378L170.021 132.342L170.534 131.688L170.57 132.519L171.224 133.032L170.394 133.068L169.881 133.722L169.844 132.892L169.19 132.378Z" fill="#6F6C7D"/>
<path d="M55.6468 702.176L56.4774 702.14L56.9904 701.486L57.0267 702.316L57.6809 702.829L56.8504 702.866L56.3373 703.52L56.301 702.689L55.6468 702.176Z" fill="#6F6C7D"/>
<path d="M48.6439 188.839L49.4744 188.803L49.9875 188.149L50.0238 188.979L50.678 189.492L49.8474 189.529L49.3344 190.183L49.2981 189.352L48.6439 188.839Z" fill="#6F6C7D"/>
<path d="M188.357 669.72L189.187 669.684L189.7 669.03L189.737 669.86L190.391 670.373L189.56 670.41L189.047 671.064L189.011 670.233L188.357 669.72Z" fill="#6F6C7D"/>
<path d="M331.618 370.612L332.449 370.576L332.962 369.921L332.998 370.752L333.652 371.265L332.822 371.301L332.309 371.955L332.272 371.125L331.618 370.612Z" fill="#6F6C7D"/>
<path d="M531.46 420.386L532.29 420.35L532.803 419.696L532.84 420.526L533.494 421.039L532.663 421.076L532.15 421.73L532.114 420.899L531.46 420.386Z" fill="white"/>
<path d="M473.048 275.836L473.879 275.799L474.392 275.145L474.428 275.976L475.082 276.489L474.252 276.525L473.739 277.179L473.702 276.349L473.048 275.836Z" fill="white"/>
<path d="M309.051 228.795L309.881 228.758L310.394 228.104L310.431 228.935L311.085 229.448L310.254 229.484L309.741 230.138L309.705 229.308L309.051 228.795Z" fill="white"/>
<path d="M143.807 422.907L144.637 422.87L145.15 422.216L145.186 423.047L145.841 423.56L145.01 423.596L144.497 424.25L144.461 423.42L143.807 422.907Z" fill="white"/>
<path d="M1044.33 172.017L1045.16 171.981L1045.67 171.327L1045.71 172.157L1046.36 172.67L1045.53 172.707L1045.02 173.361L1044.98 172.53L1044.33 172.017Z" fill="white"/>
<path d="M215.243 247.461L216.074 247.424L216.587 246.77L216.623 247.601L217.277 248.114L216.447 248.15L215.934 248.804L215.897 247.974L215.243 247.461Z" fill="white"/>
<path d="M301.122 47.4254L301.953 47.389L302.466 46.7349L302.502 47.5654L303.156 48.0784L302.326 48.1148L301.813 48.7689L301.777 47.9384L301.122 47.4254Z" fill="white"/>
<path d="M203.993 157.036L204.823 156.999L205.336 156.345L205.372 157.176L206.027 157.689L205.196 157.725L204.683 158.379L204.647 157.549L203.993 157.036Z" fill="white"/>
<g filter="url(#filter0_f_335_4031)">
<path d="M190.714 326.759L191.545 326.723L192.058 326.069L192.094 326.899L192.748 327.412L191.918 327.449L191.405 328.103L191.368 327.272L190.714 326.759Z" fill="white"/>
</g>
<g filter="url(#filter1_f_335_4031)">
<path d="M915.326 217.017L916.157 216.981L916.67 216.327L916.706 217.157L917.36 217.67L916.53 217.707L916.017 218.361L915.98 217.53L915.326 217.017Z" fill="white"/>
</g>
<g filter="url(#filter2_f_335_4031)">
<path d="M224.659 613.711L225.49 613.675L226.003 613.021L226.039 613.852L226.693 614.365L225.863 614.401L225.35 615.055L225.313 614.225L224.659 613.711Z" fill="white"/>
</g>
<g filter="url(#filter3_f_335_4031)">
<path d="M348.723 471.77L349.553 471.734L350.066 471.08L350.102 471.91L350.757 472.423L349.926 472.46L349.413 473.114L349.377 472.283L348.723 471.77Z" fill="white"/>
</g>
<g filter="url(#filter4_f_335_4031)">
<path d="M120.753 658.188L123.3 658.076L124.873 656.07L124.984 658.617L126.99 660.191L124.444 660.302L122.87 662.308L122.759 659.761L120.753 658.188Z" fill="#868592"/>
</g>
<g filter="url(#filter5_f_335_4031)">
<path d="M124.857 517.609L127.404 517.497L128.977 515.491L129.089 518.038L131.095 519.611L128.548 519.723L126.975 521.729L126.863 519.182L124.857 517.609Z" fill="#868592"/>
</g>
<g filter="url(#filter6_f_335_4031)">
<path d="M1795 865.119L1797.55 865.007L1799.12 863.001L1799.23 865.548L1801.24 867.121L1798.69 867.233L1797.12 869.239L1797.01 866.692L1795 865.119Z" fill="#868592"/>
</g>
<g filter="url(#filter7_f_335_4031)">
<path d="M1751 239.118L1753.55 239.006L1755.12 237L1755.23 239.547L1757.24 241.12L1754.69 241.232L1753.12 243.238L1753.01 240.691L1751 239.118Z" fill="#868592"/>
</g>
<g filter="url(#filter8_f_335_4031)">
<path d="M1753 497.119L1755.55 497.008L1757.12 495.002L1757.23 497.549L1759.24 499.122L1756.69 499.234L1755.12 501.24L1755.01 498.693L1753 497.119Z" fill="white"/>
</g>
<g filter="url(#filter9_f_335_4031)">
<path d="M379.559 111.296L382.106 111.185L383.68 109.179L383.791 111.726L385.797 113.299L383.25 113.41L381.677 115.416L381.565 112.869L379.559 111.296Z" fill="white"/>
</g>
<g filter="url(#filter10_f_335_4031)">
<path d="M286.396 270.738L288.943 270.626L290.516 268.62L290.627 271.167L292.633 272.74L290.087 272.852L288.513 274.858L288.402 272.311L286.396 270.738Z" fill="#6E6B7C"/>
</g>
<g filter="url(#filter11_f_335_4031)">
<path d="M1680 593.119L1682.55 593.007L1684.12 591.001L1684.23 593.548L1686.24 595.121L1683.69 595.233L1682.12 597.239L1682.01 594.692L1680 593.119Z" fill="#6E6B7C"/>
</g>
<g filter="url(#filter12_f_335_4031)">
<path d="M772.001 755.119L774.548 755.007L776.121 753.001L776.232 755.548L778.238 757.121L775.692 757.233L774.118 759.239L774.007 756.692L772.001 755.119Z" fill="#6E6B7C"/>
</g>
<g filter="url(#filter13_f_335_4031)">
<path d="M110.815 318.219L113.362 318.108L114.935 316.102L115.046 318.649L117.052 320.222L114.506 320.333L112.932 322.339L112.821 319.792L110.815 318.219Z" fill="white"/>
</g>
<g filter="url(#filter14_f_335_4031)">
<path d="M177.044 211.535L179.591 211.423L181.164 209.417L181.275 211.964L183.281 213.537L180.735 213.649L179.161 215.655L179.05 213.108L177.044 211.535Z" fill="white"/>
</g>
<g filter="url(#filter15_f_335_4031)">
<path d="M1512 138.119L1514.55 138.007L1516.12 136.001L1516.23 138.548L1518.24 140.121L1515.69 140.233L1514.12 142.239L1514.01 139.692L1512 138.119Z" fill="white"/>
</g>
<g opacity="0.5">
<path d="M588.486 609.752L589.099 610.314L589.924 610.214L589.362 610.827L589.462 611.652L588.849 611.09L588.024 611.19L588.585 610.577L588.486 609.752Z" fill="#6F6C7D"/>
<path d="M466.012 756.565L466.625 757.127L467.45 757.027L466.889 757.64L466.989 758.466L466.376 757.904L465.55 758.004L466.112 757.391L466.012 756.565Z" fill="#6F6C7D"/>
<path d="M56.7093 692.239L57.3223 692.801L58.1476 692.701L57.586 693.314L57.6858 694.139L57.0728 693.578L56.2475 693.678L56.8091 693.065L56.7093 692.239Z" fill="#6F6C7D"/>
<path d="M387.87 510.969L388.483 511.53L389.308 511.431L388.747 512.044L388.846 512.869L388.233 512.307L387.408 512.407L387.97 511.794L387.87 510.969Z" fill="#6F6C7D"/>
<path d="M568.83 545.901L569.443 546.463L570.269 546.363L569.707 546.976L569.807 547.801L569.194 547.24L568.369 547.34L568.93 546.727L568.83 545.901Z" fill="#6F6C7D"/>
<path d="M463.953 503.612L464.566 504.174L465.392 504.074L464.83 504.687L464.93 505.512L464.317 504.951L463.492 505.051L464.053 504.438L463.953 503.612Z" fill="#6F6C7D"/>
<path d="M338.79 458.297L339.403 458.858L340.229 458.759L339.667 459.372L339.767 460.197L339.154 459.635L338.329 459.735L338.89 459.122L338.79 458.297Z" fill="#6F6C7D"/>
<path d="M97.5482 897.123L98.1612 897.685L98.9865 897.585L98.4249 898.198L98.5247 899.023L97.9117 898.462L97.0864 898.561L97.648 897.948L97.5482 897.123Z" fill="#6F6C7D"/>
<path d="M410.351 786.923L410.964 787.484L411.79 787.385L411.228 787.998L411.328 788.823L410.715 788.261L409.89 788.361L410.451 787.748L410.351 786.923Z" fill="#6F6C7D"/>
<path d="M516.465 963.428L517.078 963.989L517.903 963.89L517.341 964.503L517.441 965.328L516.828 964.766L516.003 964.866L516.564 964.253L516.465 963.428Z" fill="white"/>
<path d="M577.375 799.912L577.988 800.474L578.813 800.374L578.252 800.987L578.351 801.812L577.738 801.251L576.913 801.35L577.475 800.737L577.375 799.912Z" fill="white"/>
<path d="M494.674 670.685L495.287 671.246L496.112 671.146L495.551 671.759L495.651 672.585L495.038 672.023L494.212 672.123L494.774 671.51L494.674 670.685Z" fill="white"/>
<path d="M240.571 691.097L241.184 691.658L242.009 691.558L241.447 692.171L241.547 692.997L240.934 692.435L240.109 692.535L240.67 691.922L240.571 691.097Z" fill="white"/>
<path d="M415.143 617.552L415.756 618.113L416.581 618.014L416.02 618.627L416.119 619.452L415.506 618.89L414.681 618.99L415.243 618.377L415.143 617.552Z" fill="white"/>
<path d="M617.315 516.831L617.928 517.393L618.754 517.293L618.192 517.906L618.292 518.731L617.679 518.17L616.853 518.269L617.415 517.656L617.315 516.831Z" fill="white"/>
<path d="M471.128 545.657L471.741 546.219L472.566 546.119L472.004 546.732L472.104 547.557L471.491 546.996L470.666 547.096L471.228 546.483L471.128 545.657Z" fill="white"/>
<g filter="url(#filter16_f_335_4031)">
<path d="M341.725 656.28L342.338 656.842L343.164 656.742L342.602 657.355L342.702 658.18L342.089 657.619L341.264 657.719L341.825 657.106L341.725 656.28Z" fill="white"/>
</g>
<g filter="url(#filter17_f_335_4031)">
<path d="M162.823 883.189L163.436 883.75L164.261 883.65L163.699 884.263L163.799 885.089L163.186 884.527L162.361 884.627L162.922 884.014L162.823 883.189Z" fill="white"/>
</g>
<g filter="url(#filter18_f_335_4031)">
<path d="M350.916 870.547L351.529 871.108L352.355 871.009L351.793 871.622L351.893 872.447L351.28 871.885L350.455 871.985L351.016 871.372L350.916 870.547Z" fill="white"/>
</g>
<g filter="url(#filter19_f_335_4031)">
<path d="M48.7103 583.679L49.3233 584.24L50.1486 584.141L49.587 584.754L49.6868 585.579L49.0738 585.017L48.2485 585.117L48.8101 584.504L48.7103 583.679Z" fill="white"/>
</g>
<g filter="url(#filter20_f_335_4031)">
<path d="M57.8997 841.166L59.7795 842.888L62.3104 842.582L60.5882 844.462L60.8942 846.993L59.0145 845.27L56.4836 845.576L58.2057 843.697L57.8997 841.166Z" fill="#868592"/>
</g>
<g filter="url(#filter21_f_335_4031)">
<path d="M160.207 744.663L162.087 746.385L164.617 746.079L162.895 747.959L163.201 750.49L161.322 748.768L158.791 749.074L160.513 747.194L160.207 744.663Z" fill="#868592"/>
</g>
<g filter="url(#filter22_f_335_4031)">
<path d="M1261.41 893.208L1263.29 894.93L1265.82 894.624L1264.1 896.504L1264.4 899.035L1262.52 897.312L1259.99 897.618L1261.72 895.739L1261.41 893.208Z" fill="white"/>
</g>
<g filter="url(#filter23_f_335_4031)">
<path d="M1174.91 200.497L1176.79 202.219L1179.32 201.913L1177.6 203.793L1177.91 206.324L1176.03 204.602L1173.5 204.908L1175.22 203.028L1174.91 200.497Z" fill="white"/>
</g>
<g filter="url(#filter24_f_335_4031)">
<path d="M417.409 839.211L419.289 840.933L421.82 840.627L420.098 842.507L420.404 845.038L418.524 843.315L415.993 843.621L417.715 841.742L417.409 839.211Z" fill="white"/>
</g>
<g filter="url(#filter25_f_335_4031)">
<path d="M952.913 452.497L954.793 454.219L957.324 453.913L955.601 455.793L955.907 458.324L954.028 456.602L951.497 456.908L953.219 455.028L952.913 452.497Z" fill="white"/>
</g>
<g filter="url(#filter26_f_335_4031)">
<path d="M448.996 684.324L450.876 686.046L453.407 685.74L451.684 687.62L451.99 690.151L450.111 688.429L447.58 688.735L449.302 686.855L448.996 684.324Z" fill="#6E6B7C"/>
</g>
<g filter="url(#filter27_f_335_4031)">
<path d="M291.267 593.743L293.147 595.465L295.678 595.159L293.955 597.039L294.261 599.57L292.382 597.848L289.851 598.154L291.573 596.274L291.267 593.743Z" fill="white"/>
</g>
<g filter="url(#filter28_f_335_4031)">
<path d="M413.535 565.138L415.415 566.86L417.946 566.554L416.224 568.433L416.53 570.964L414.65 569.242L412.119 569.548L413.841 567.668L413.535 565.138Z" fill="white"/>
</g>
</g>
<defs>
<filter id="filter0_f_335_4031" x="189.714" y="325.069" width="4.03369" height="4.0332" filterUnits="userSpaceOnUse" color-interpolation-filters="sRGB">
<feFlood flood-opacity="0" result="BackgroundImageFix"/>
<feBlend mode="normal" in="SourceGraphic" in2="BackgroundImageFix" result="shape"/>
<feGaussianBlur stdDeviation="0.5" result="effect1_foregroundBlur_335_4031"/>
</filter>
<filter id="filter1_f_335_4031" x="914.326" y="215.327" width="4.03369" height="4.0332" filterUnits="userSpaceOnUse" color-interpolation-filters="sRGB">
<feFlood flood-opacity="0" result="BackgroundImageFix"/>
<feBlend mode="normal" in="SourceGraphic" in2="BackgroundImageFix" result="shape"/>
<feGaussianBlur stdDeviation="0.5" result="effect1_foregroundBlur_335_4031"/>
</filter>
<filter id="filter2_f_335_4031" x="223.659" y="612.021" width="4.03369" height="4.0332" filterUnits="userSpaceOnUse" color-interpolation-filters="sRGB">
<feFlood flood-opacity="0" result="BackgroundImageFix"/>
<feBlend mode="normal" in="SourceGraphic" in2="BackgroundImageFix" result="shape"/>
<feGaussianBlur stdDeviation="0.5" result="effect1_foregroundBlur_335_4031"/>
</filter>
<filter id="filter3_f_335_4031" x="347.723" y="470.08" width="4.03369" height="4.0332" filterUnits="userSpaceOnUse" color-interpolation-filters="sRGB">
<feFlood flood-opacity="0" result="BackgroundImageFix"/>
<feBlend mode="normal" in="SourceGraphic" in2="BackgroundImageFix" result="shape"/>
<feGaussianBlur stdDeviation="0.5" result="effect1_foregroundBlur_335_4031"/>
</filter>
<filter id="filter4_f_335_4031" x="119.753" y="655.07" width="8.2373" height="8.2373" filterUnits="userSpaceOnUse" color-interpolation-filters="sRGB">
<feFlood flood-opacity="0" result="BackgroundImageFix"/>
<feBlend mode="normal" in="SourceGraphic" in2="BackgroundImageFix" result="shape"/>
<feGaussianBlur stdDeviation="0.5" result="effect1_foregroundBlur_335_4031"/>
</filter>
<filter id="filter5_f_335_4031" x="123.857" y="514.491" width="8.2373" height="8.2373" filterUnits="userSpaceOnUse" color-interpolation-filters="sRGB">
<feFlood flood-opacity="0" result="BackgroundImageFix"/>
<feBlend mode="normal" in="SourceGraphic" in2="BackgroundImageFix" result="shape"/>
<feGaussianBlur stdDeviation="0.5" result="effect1_foregroundBlur_335_4031"/>
</filter>
<filter id="filter6_f_335_4031" x="1794" y="862.001" width="8.2373" height="8.2373" filterUnits="userSpaceOnUse" color-interpolation-filters="sRGB">
<feFlood flood-opacity="0" result="BackgroundImageFix"/>
<feBlend mode="normal" in="SourceGraphic" in2="BackgroundImageFix" result="shape"/>
<feGaussianBlur stdDeviation="0.5" result="effect1_foregroundBlur_335_4031"/>
</filter>
<filter id="filter7_f_335_4031" x="1750" y="236" width="8.2373" height="8.2373" filterUnits="userSpaceOnUse" color-interpolation-filters="sRGB">
<feFlood flood-opacity="0" result="BackgroundImageFix"/>
<feBlend mode="normal" in="SourceGraphic" in2="BackgroundImageFix" result="shape"/>
<feGaussianBlur stdDeviation="0.5" result="effect1_foregroundBlur_335_4031"/>
</filter>
<filter id="filter8_f_335_4031" x="1752" y="494.002" width="8.2373" height="8.2373" filterUnits="userSpaceOnUse" color-interpolation-filters="sRGB">
<feFlood flood-opacity="0" result="BackgroundImageFix"/>
<feBlend mode="normal" in="SourceGraphic" in2="BackgroundImageFix" result="shape"/>
<feGaussianBlur stdDeviation="0.5" result="effect1_foregroundBlur_335_4031"/>
</filter>
<filter id="filter9_f_335_4031" x="378.56" y="108.179" width="8.2373" height="8.2373" filterUnits="userSpaceOnUse" color-interpolation-filters="sRGB">
<feFlood flood-opacity="0" result="BackgroundImageFix"/>
<feBlend mode="normal" in="SourceGraphic" in2="BackgroundImageFix" result="shape"/>
<feGaussianBlur stdDeviation="0.5" result="effect1_foregroundBlur_335_4031"/>
</filter>
<filter id="filter10_f_335_4031" x="285.396" y="267.62" width="8.2373" height="8.2373" filterUnits="userSpaceOnUse" color-interpolation-filters="sRGB">
<feFlood flood-opacity="0" result="BackgroundImageFix"/>
<feBlend mode="normal" in="SourceGraphic" in2="BackgroundImageFix" result="shape"/>
<feGaussianBlur stdDeviation="0.5" result="effect1_foregroundBlur_335_4031"/>
</filter>
<filter id="filter11_f_335_4031" x="1679" y="590.001" width="8.2373" height="8.2373" filterUnits="userSpaceOnUse" color-interpolation-filters="sRGB">
<feFlood flood-opacity="0" result="BackgroundImageFix"/>
<feBlend mode="normal" in="SourceGraphic" in2="BackgroundImageFix" result="shape"/>
<feGaussianBlur stdDeviation="0.5" result="effect1_foregroundBlur_335_4031"/>
</filter>
<filter id="filter12_f_335_4031" x="771.001" y="752.001" width="8.2373" height="8.2373" filterUnits="userSpaceOnUse" color-interpolation-filters="sRGB">
<feFlood flood-opacity="0" result="BackgroundImageFix"/>
<feBlend mode="normal" in="SourceGraphic" in2="BackgroundImageFix" result="shape"/>
<feGaussianBlur stdDeviation="0.5" result="effect1_foregroundBlur_335_4031"/>
</filter>
<filter id="filter13_f_335_4031" x="109.815" y="315.102" width="8.2373" height="8.2373" filterUnits="userSpaceOnUse" color-interpolation-filters="sRGB">
<feFlood flood-opacity="0" result="BackgroundImageFix"/>
<feBlend mode="normal" in="SourceGraphic" in2="BackgroundImageFix" result="shape"/>
<feGaussianBlur stdDeviation="0.5" result="effect1_foregroundBlur_335_4031"/>
</filter>
<filter id="filter14_f_335_4031" x="176.044" y="208.417" width="8.2373" height="8.2373" filterUnits="userSpaceOnUse" color-interpolation-filters="sRGB">
<feFlood flood-opacity="0" result="BackgroundImageFix"/>
<feBlend mode="normal" in="SourceGraphic" in2="BackgroundImageFix" result="shape"/>
<feGaussianBlur stdDeviation="0.5" result="effect1_foregroundBlur_335_4031"/>
</filter>
<filter id="filter15_f_335_4031" x="1511" y="135.001" width="8.2373" height="8.2373" filterUnits="userSpaceOnUse" color-interpolation-filters="sRGB">
<feFlood flood-opacity="0" result="BackgroundImageFix"/>
<feBlend mode="normal" in="SourceGraphic" in2="BackgroundImageFix" result="shape"/>
<feGaussianBlur stdDeviation="0.5" result="effect1_foregroundBlur_335_4031"/>
</filter>
<filter id="filter16_f_335_4031" x="340.264" y="655.28" width="3.8999" height="3.90039" filterUnits="userSpaceOnUse" color-interpolation-filters="sRGB">
<feFlood flood-opacity="0" result="BackgroundImageFix"/>
<feBlend mode="normal" in="SourceGraphic" in2="BackgroundImageFix" result="shape"/>
<feGaussianBlur stdDeviation="0.5" result="effect1_foregroundBlur_335_4031"/>
</filter>
<filter id="filter17_f_335_4031" x="161.361" y="882.188" width="3.8999" height="3.90039" filterUnits="userSpaceOnUse" color-interpolation-filters="sRGB">
<feFlood flood-opacity="0" result="BackgroundImageFix"/>
<feBlend mode="normal" in="SourceGraphic" in2="BackgroundImageFix" result="shape"/>
<feGaussianBlur stdDeviation="0.5" result="effect1_foregroundBlur_335_4031"/>
</filter>
<filter id="filter18_f_335_4031" x="349.455" y="869.547" width="3.8999" height="3.90039" filterUnits="userSpaceOnUse" color-interpolation-filters="sRGB">
<feFlood flood-opacity="0" result="BackgroundImageFix"/>
<feBlend mode="normal" in="SourceGraphic" in2="BackgroundImageFix" result="shape"/>
<feGaussianBlur stdDeviation="0.5" result="effect1_foregroundBlur_335_4031"/>
</filter>
<filter id="filter19_f_335_4031" x="47.2485" y="582.679" width="3.8999" height="3.90039" filterUnits="userSpaceOnUse" color-interpolation-filters="sRGB">
<feFlood flood-opacity="0" result="BackgroundImageFix"/>
<feBlend mode="normal" in="SourceGraphic" in2="BackgroundImageFix" result="shape"/>
<feGaussianBlur stdDeviation="0.5" result="effect1_foregroundBlur_335_4031"/>
</filter>
<filter id="filter20_f_335_4031" x="55.4834" y="840.166" width="7.82715" height="7.82617" filterUnits="userSpaceOnUse" color-interpolation-filters="sRGB">
<feFlood flood-opacity="0" result="BackgroundImageFix"/>
<feBlend mode="normal" in="SourceGraphic" in2="BackgroundImageFix" result="shape"/>
<feGaussianBlur stdDeviation="0.5" result="effect1_foregroundBlur_335_4031"/>
</filter>
<filter id="filter21_f_335_4031" x="157.791" y="743.663" width="7.82715" height="7.82617" filterUnits="userSpaceOnUse" color-interpolation-filters="sRGB">
<feFlood flood-opacity="0" result="BackgroundImageFix"/>
<feBlend mode="normal" in="SourceGraphic" in2="BackgroundImageFix" result="shape"/>
<feGaussianBlur stdDeviation="0.5" result="effect1_foregroundBlur_335_4031"/>
</filter>
<filter id="filter22_f_335_4031" x="1258.99" y="892.208" width="7.82715" height="7.82617" filterUnits="userSpaceOnUse" color-interpolation-filters="sRGB">
<feFlood flood-opacity="0" result="BackgroundImageFix"/>
<feBlend mode="normal" in="SourceGraphic" in2="BackgroundImageFix" result="shape"/>
<feGaussianBlur stdDeviation="0.5" result="effect1_foregroundBlur_335_4031"/>
</filter>
<filter id="filter23_f_335_4031" x="1172.5" y="199.497" width="7.82715" height="7.82617" filterUnits="userSpaceOnUse" color-interpolation-filters="sRGB">
<feFlood flood-opacity="0" result="BackgroundImageFix"/>
<feBlend mode="normal" in="SourceGraphic" in2="BackgroundImageFix" result="shape"/>
<feGaussianBlur stdDeviation="0.5" result="effect1_foregroundBlur_335_4031"/>
</filter>
<filter id="filter24_f_335_4031" x="414.993" y="838.211" width="7.82715" height="7.82617" filterUnits="userSpaceOnUse" color-interpolation-filters="sRGB">
<feFlood flood-opacity="0" result="BackgroundImageFix"/>
<feBlend mode="normal" in="SourceGraphic" in2="BackgroundImageFix" result="shape"/>
<feGaussianBlur stdDeviation="0.5" result="effect1_foregroundBlur_335_4031"/>
</filter>
<filter id="filter25_f_335_4031" x="950.497" y="451.497" width="7.82715" height="7.82617" filterUnits="userSpaceOnUse" color-interpolation-filters="sRGB">
<feFlood flood-opacity="0" result="BackgroundImageFix"/>
<feBlend mode="normal" in="SourceGraphic" in2="BackgroundImageFix" result="shape"/>
<feGaussianBlur stdDeviation="0.5" result="effect1_foregroundBlur_335_4031"/>
</filter>
<filter id="filter26_f_335_4031" x="446.58" y="683.324" width="7.82715" height="7.82617" filterUnits="userSpaceOnUse" color-interpolation-filters="sRGB">
<feFlood flood-opacity="0" result="BackgroundImageFix"/>
<feBlend mode="normal" in="SourceGraphic" in2="BackgroundImageFix" result="shape"/>
<feGaussianBlur stdDeviation="0.5" result="effect1_foregroundBlur_335_4031"/>
</filter>
<filter id="filter27_f_335_4031" x="288.851" y="592.743" width="7.82715" height="7.82617" filterUnits="userSpaceOnUse" color-interpolation-filters="sRGB">
<feFlood flood-opacity="0" result="BackgroundImageFix"/>
<feBlend mode="normal" in="SourceGraphic" in2="BackgroundImageFix" result="shape"/>
<feGaussianBlur stdDeviation="0.5" result="effect1_foregroundBlur_335_4031"/>
</filter>
<filter id="filter28_f_335_4031" x="411.119" y="564.138" width="7.82715" height="7.82617" filterUnits="userSpaceOnUse" color-interpolation-filters="sRGB">
<feFlood flood-opacity="0" result="BackgroundImageFix"/>
<feBlend mode="normal" in="SourceGraphic" in2="BackgroundImageFix" result="shape"/>
<feGaussianBlur stdDeviation="0.5" result="effect1_foregroundBlur_335_4031"/>
</filter>
</defs>
</svg>
