<svg width="184" height="41" viewBox="0 0 184 41" fill="none" xmlns="http://www.w3.org/2000/svg">
<path d="M57.6445 28.7939C55.6445 28.7939 53.8529 28.3148 52.2695 27.3564C50.6862 26.3981 49.4362 25.0283 48.5195 23.2471C47.6029 21.4554 47.1445 19.3252 47.1445 16.8564C47.1445 14.3669 47.6029 12.2314 48.5195 10.4502C49.4362 8.65853 50.6862 7.28353 52.2695 6.3252C53.8529 5.36686 55.6445 4.8877 57.6445 4.8877C59.6654 4.8877 61.4622 5.36686 63.0352 6.3252C64.6081 7.28353 65.8477 8.65853 66.7539 10.4502C67.6706 12.2314 68.1289 14.3669 68.1289 16.8564C68.1289 19.3356 67.6706 21.4658 66.7539 23.2471C65.8477 25.0283 64.6081 26.3981 63.0352 27.3564C61.4622 28.3148 59.6654 28.7939 57.6445 28.7939ZM57.6445 25.5908C58.9883 25.5908 60.1862 25.2575 61.2383 24.5908C62.2904 23.9242 63.1185 22.9398 63.7227 21.6377C64.3372 20.3356 64.6445 18.7419 64.6445 16.8564C64.6445 14.9606 64.3372 13.3617 63.7227 12.0596C63.1185 10.7471 62.2904 9.75749 61.2383 9.09082C60.1862 8.42415 58.9883 8.09082 57.6445 8.09082C56.3112 8.09082 55.1133 8.42415 54.0508 9.09082C52.9987 9.75749 52.1654 10.7471 51.5508 12.0596C50.9362 13.3617 50.6289 14.9606 50.6289 16.8564C50.6289 18.7419 50.9362 20.3356 51.5508 21.6377C52.1654 22.9398 52.9987 23.9242 54.0508 24.5908C55.1133 25.2575 56.3112 25.5908 57.6445 25.5908ZM70.8945 35.0127V11.0127H74.1758V13.8564H74.457C74.6654 13.4919 74.9518 13.07 75.3164 12.5908C75.6914 12.1117 76.2122 11.695 76.8789 11.3408C77.5456 10.9762 78.4154 10.7939 79.4883 10.7939C80.8945 10.7939 82.1445 11.1481 83.2383 11.8564C84.3424 12.5648 85.2122 13.5908 85.8477 14.9346C86.4831 16.2783 86.8008 17.8981 86.8008 19.7939C86.8008 21.6689 86.4883 23.2835 85.8633 24.6377C85.2383 25.9814 84.3737 27.0179 83.2695 27.7471C82.1758 28.4658 80.9206 28.8252 79.5039 28.8252C78.4518 28.8252 77.5872 28.6481 76.9102 28.2939C76.2435 27.9294 75.7174 27.5075 75.332 27.0283C74.957 26.5492 74.6654 26.1273 74.457 25.7627H74.2695V35.0127H70.8945ZM78.7695 25.9346C79.7799 25.9346 80.6237 25.6637 81.3008 25.1221C81.9779 24.5804 82.4883 23.846 82.832 22.9189C83.1862 21.9814 83.3633 20.9294 83.3633 19.7627C83.3633 18.6064 83.1914 17.57 82.8477 16.6533C82.5039 15.7367 81.9935 15.0127 81.3164 14.4814C80.6393 13.9502 79.7904 13.6846 78.7695 13.6846C77.7799 13.6846 76.9466 13.9398 76.2695 14.4502C75.5924 14.9502 75.0768 15.6585 74.7227 16.5752C74.3789 17.4814 74.207 18.5439 74.207 19.7627C74.207 20.9814 74.3841 22.0544 74.7383 22.9814C75.0924 23.9085 75.6081 24.6325 76.2852 25.1533C76.9727 25.6742 77.8008 25.9346 78.7695 25.9346ZM97.3945 11.0127V13.7471H87.8633V11.0127H97.3945ZM90.4102 6.85645H93.8008V23.3564C93.8008 24.1585 93.9674 24.7471 94.3008 25.1221C94.6341 25.4867 95.1706 25.6689 95.9102 25.6689C96.0872 25.6689 96.2747 25.6585 96.4727 25.6377C96.681 25.6169 96.8893 25.5856 97.0977 25.5439L97.7383 28.3564C97.3945 28.471 97.0195 28.5596 96.6133 28.6221C96.207 28.6846 95.8008 28.7158 95.3945 28.7158C93.8841 28.7158 92.6758 28.2939 91.7695 27.4502C90.8633 26.596 90.4102 25.4606 90.4102 24.0439V6.85645ZM99.832 28.4814V11.0127H103.207V28.4814H99.832ZM101.535 8.3252C100.941 8.3252 100.436 8.12728 100.02 7.73145C99.6029 7.33561 99.3945 6.86165 99.3945 6.30957C99.3945 5.74707 99.6029 5.2679 100.02 4.87207C100.436 4.47624 100.941 4.27832 101.535 4.27832C102.118 4.27832 102.618 4.47624 103.035 4.87207C103.462 5.2679 103.676 5.74707 103.676 6.30957C103.676 6.86165 103.462 7.33561 103.035 7.73145C102.618 8.12728 102.118 8.3252 101.535 8.3252ZM106.457 28.4814V11.0127H109.691V13.8877H109.926C110.29 12.9189 110.884 12.1637 111.707 11.6221C112.54 11.07 113.53 10.7939 114.676 10.7939C115.842 10.7939 116.816 11.07 117.598 11.6221C118.389 12.1637 118.978 12.9189 119.363 13.8877H119.551C119.967 12.9398 120.629 12.1898 121.535 11.6377C122.441 11.0752 123.52 10.7939 124.77 10.7939C126.353 10.7939 127.65 11.2939 128.66 12.2939C129.671 13.2835 130.176 14.7783 130.176 16.7783V28.4814H126.77V17.0908C126.77 15.9033 126.447 15.0492 125.801 14.5283C125.155 13.9971 124.384 13.7314 123.488 13.7314C122.384 13.7314 121.525 14.0752 120.91 14.7627C120.306 15.4398 120.004 16.2992 120.004 17.3408V28.4814H116.598V16.8721C116.598 15.9242 116.306 15.1637 115.723 14.5908C115.139 14.0179 114.374 13.7314 113.426 13.7314C112.78 13.7314 112.181 13.9033 111.629 14.2471C111.087 14.5804 110.65 15.0492 110.316 15.6533C109.993 16.2471 109.832 16.9346 109.832 17.7158V28.4814H106.457ZM138.488 28.8564C137.384 28.8564 136.384 28.6533 135.488 28.2471C134.592 27.8304 133.884 27.2262 133.363 26.4346C132.842 25.6429 132.582 24.6794 132.582 23.5439C132.582 22.5544 132.77 21.7471 133.145 21.1221C133.53 20.4867 134.046 19.9814 134.691 19.6064C135.337 19.2314 136.056 18.9502 136.848 18.7627C137.639 18.5752 138.452 18.4294 139.285 18.3252C140.337 18.2106 141.186 18.1117 141.832 18.0283C142.478 17.945 142.947 17.8148 143.238 17.6377C143.54 17.4502 143.691 17.1533 143.691 16.7471V16.6689C143.691 15.6794 143.41 14.9137 142.848 14.3721C142.296 13.8304 141.473 13.5596 140.379 13.5596C139.243 13.5596 138.342 13.8096 137.676 14.3096C137.02 14.7992 136.566 15.3564 136.316 15.9814L133.113 15.2471C133.499 14.1846 134.056 13.3304 134.785 12.6846C135.525 12.0283 136.368 11.5492 137.316 11.2471C138.275 10.945 139.275 10.7939 140.316 10.7939C141.014 10.7939 141.754 10.8773 142.535 11.0439C143.316 11.2002 144.051 11.4971 144.738 11.9346C145.436 12.3617 146.004 12.9762 146.441 13.7783C146.879 14.5804 147.098 15.6169 147.098 16.8877V28.4814H143.77V26.0908H143.645C143.436 26.5179 143.108 26.945 142.66 27.3721C142.223 27.7992 141.66 28.1533 140.973 28.4346C140.285 28.7158 139.457 28.8564 138.488 28.8564ZM139.223 26.1377C140.171 26.1377 140.978 25.9554 141.645 25.5908C142.311 25.2158 142.822 24.7262 143.176 24.1221C143.53 23.5179 143.707 22.8773 143.707 22.2002V19.9346C143.582 20.0492 143.348 20.1585 143.004 20.2627C142.66 20.3669 142.27 20.4554 141.832 20.5283C141.395 20.6012 140.967 20.6689 140.551 20.7314C140.134 20.7835 139.785 20.8252 139.504 20.8564C138.848 20.9502 138.249 21.096 137.707 21.2939C137.165 21.4814 136.728 21.7627 136.395 22.1377C136.072 22.5023 135.91 22.9867 135.91 23.5908C135.91 24.4346 136.223 25.07 136.848 25.4971C137.473 25.9242 138.264 26.1377 139.223 26.1377ZM158.488 11.0127V13.7471H148.957V11.0127H158.488ZM151.504 6.85645H154.895V23.3564C154.895 24.1585 155.061 24.7471 155.395 25.1221C155.728 25.4867 156.264 25.6689 157.004 25.6689C157.181 25.6689 157.368 25.6585 157.566 25.6377C157.775 25.6169 157.983 25.5856 158.191 25.5439L158.832 28.3564C158.488 28.471 158.113 28.5596 157.707 28.6221C157.301 28.6846 156.895 28.7158 156.488 28.7158C154.978 28.7158 153.77 28.2939 152.863 27.4502C151.957 26.596 151.504 25.4606 151.504 24.0439V6.85645ZM160.926 28.4814V11.0127H164.301V28.4814H160.926ZM162.629 8.3252C162.035 8.3252 161.53 8.12728 161.113 7.73145C160.697 7.33561 160.488 6.86165 160.488 6.30957C160.488 5.74707 160.697 5.2679 161.113 4.87207C161.53 4.47624 162.035 4.27832 162.629 4.27832C163.212 4.27832 163.712 4.47624 164.129 4.87207C164.556 5.2679 164.77 5.74707 164.77 6.30957C164.77 6.86165 164.556 7.33561 164.129 7.73145C163.712 8.12728 163.212 8.3252 162.629 8.3252ZM172.613 28.8564C171.509 28.8564 170.509 28.6533 169.613 28.2471C168.717 27.8304 168.009 27.2262 167.488 26.4346C166.967 25.6429 166.707 24.6794 166.707 23.5439C166.707 22.5544 166.895 21.7471 167.27 21.1221C167.655 20.4867 168.171 19.9814 168.816 19.6064C169.462 19.2314 170.181 18.9502 170.973 18.7627C171.764 18.5752 172.577 18.4294 173.41 18.3252C174.462 18.2106 175.311 18.1117 175.957 18.0283C176.603 17.945 177.072 17.8148 177.363 17.6377C177.665 17.4502 177.816 17.1533 177.816 16.7471V16.6689C177.816 15.6794 177.535 14.9137 176.973 14.3721C176.421 13.8304 175.598 13.5596 174.504 13.5596C173.368 13.5596 172.467 13.8096 171.801 14.3096C171.145 14.7992 170.691 15.3564 170.441 15.9814L167.238 15.2471C167.624 14.1846 168.181 13.3304 168.91 12.6846C169.65 12.0283 170.493 11.5492 171.441 11.2471C172.4 10.945 173.4 10.7939 174.441 10.7939C175.139 10.7939 175.879 10.8773 176.66 11.0439C177.441 11.2002 178.176 11.4971 178.863 11.9346C179.561 12.3617 180.129 12.9762 180.566 13.7783C181.004 14.5804 181.223 15.6169 181.223 16.8877V28.4814H177.895V26.0908H177.77C177.561 26.5179 177.233 26.945 176.785 27.3721C176.348 27.7992 175.785 28.1533 175.098 28.4346C174.41 28.7158 173.582 28.8564 172.613 28.8564ZM173.348 26.1377C174.296 26.1377 175.103 25.9554 175.77 25.5908C176.436 25.2158 176.947 24.7262 177.301 24.1221C177.655 23.5179 177.832 22.8773 177.832 22.2002V19.9346C177.707 20.0492 177.473 20.1585 177.129 20.2627C176.785 20.3669 176.395 20.4554 175.957 20.5283C175.52 20.6012 175.092 20.6689 174.676 20.7314C174.259 20.7835 173.91 20.8252 173.629 20.8564C172.973 20.9502 172.374 21.096 171.832 21.2939C171.29 21.4814 170.853 21.7627 170.52 22.1377C170.197 22.5023 170.035 22.9867 170.035 23.5908C170.035 24.4346 170.348 25.07 170.973 25.4971C171.598 25.9242 172.389 26.1377 173.348 26.1377Z" fill="white"/>
<path d="M29.5104 5.64003L20.9516 0.863608C20.4967 0.60979 19.925 0.745619 19.636 1.17613L19.1517 1.89753C19.043 2.0595 18.9843 2.25001 18.9829 2.44549L18.8854 16.2337C18.8827 16.614 19.0961 16.9639 19.4359 17.1366L32.3308 23.6875C32.4807 23.7636 32.6471 23.8009 32.8148 23.796L34.0006 23.7609C34.5526 23.7446 34.9848 23.284 34.9657 22.732L34.6362 13.1689C34.6136 12.5116 33.9733 12.0517 33.3442 12.2409L23.8293 15.1032C22.807 15.4108 22.0731 14.1139 22.8659 13.4009L29.6971 7.25726C30.206 6.79961 30.1108 5.97508 29.5104 5.64003Z" fill="white"/>
<path d="M5.93396 5.79191L14.7008 1.18934C15.1629 0.946743 15.7308 1.09664 16.0074 1.5342L16.4707 2.26716C16.5747 2.43169 16.6278 2.62349 16.6236 2.81885L16.3248 16.605C16.3166 16.9851 16.0933 17.3295 15.7486 17.4937L2.67009 23.7245C2.518 23.797 2.35044 23.8302 2.18285 23.8211L0.998811 23.7569C0.447337 23.727 0.0285438 23.2559 0.0634104 22.7047L0.664615 13.2007C0.707055 12.5298 1.38647 12.0852 2.01588 12.3164L10.675 15.4978C11.6637 15.8611 12.4798 14.64 11.761 13.8729L5.65993 7.36224C5.20964 6.88173 5.34595 6.10061 5.93396 5.79191Z" fill="white"/>
<path d="M23.1339 33.6089L31.9559 29.1957C32.4732 28.9369 32.6786 28.3328 32.4107 27.8582L32.0096 27.1476C31.9245 26.9968 31.7975 26.8718 31.6418 26.7855L18.7594 19.642C18.4451 19.4677 18.05 19.4703 17.7253 19.6489L5.09176 26.5964C4.92487 26.6882 4.78657 26.8212 4.69228 26.9806L4.17237 27.8593C3.89116 28.3347 4.06248 28.9225 4.55503 29.1724L13.7271 33.8246C14.3192 34.125 15.0703 33.7954 15.2334 33.1637L17.3145 25.107C17.5673 24.1284 19.0173 24.0599 19.3009 25.0132L21.6899 33.0461C21.8627 33.6271 22.5567 33.8976 23.1339 33.6089Z" fill="white"/>
</svg>
