<svg width="101" height="13" viewBox="0 0 101 13" fill="none" xmlns="http://www.w3.org/2000/svg">
<path d="M44.809 10.156C44.2283 10.156 43.6997 10.052 43.223 9.844C42.755 9.62733 42.3823 9.30667 42.105 8.882C41.8277 8.45733 41.6803 7.92867 41.663 7.296H42.768C42.7767 7.64267 42.859 7.96333 43.015 8.258C43.1797 8.544 43.4137 8.77367 43.717 8.947C44.0203 9.12033 44.3843 9.207 44.809 9.207C45.2337 9.207 45.589 9.12467 45.875 8.96C46.161 8.79533 46.3777 8.57867 46.525 8.31C46.6723 8.03267 46.746 7.725 46.746 7.387C46.746 6.96233 46.642 6.62 46.434 6.36C46.2347 6.09133 45.9617 5.89633 45.615 5.775C45.277 5.645 44.9043 5.58 44.497 5.58H43.821V4.657H44.497C45.095 4.657 45.563 4.51833 45.901 4.241C46.239 3.96367 46.408 3.58233 46.408 3.097C46.408 2.69833 46.2737 2.36467 46.005 2.096C45.745 1.82733 45.3463 1.693 44.809 1.693C44.2977 1.693 43.8903 1.84033 43.587 2.135C43.2837 2.42967 43.1103 2.80667 43.067 3.266H41.962C41.988 2.772 42.1223 2.33433 42.365 1.953C42.6077 1.57167 42.937 1.277 43.353 1.069C43.769 0.852333 44.2587 0.744 44.822 0.744C45.4113 0.744 45.9053 0.848 46.304 1.056C46.7027 1.264 47.0017 1.54133 47.201 1.888C47.409 2.23467 47.513 2.616 47.513 3.032C47.513 3.344 47.4567 3.63867 47.344 3.916C47.2313 4.18467 47.0623 4.423 46.837 4.631C46.6117 4.839 46.3257 4.98633 45.979 5.073C46.3343 5.14233 46.6507 5.27667 46.928 5.476C47.214 5.67533 47.4393 5.93533 47.604 6.256C47.7687 6.57667 47.851 6.95367 47.851 7.387C47.851 7.881 47.734 8.34033 47.5 8.765C47.2747 9.181 46.9367 9.519 46.486 9.779C46.0353 10.0303 45.4763 10.156 44.809 10.156ZM53.0487 10.156C52.2513 10.156 51.5623 9.961 50.9817 9.571C50.4097 9.17233 49.972 8.622 49.6687 7.92C49.3653 7.20933 49.2137 6.386 49.2137 5.45C49.2137 4.514 49.3653 3.695 49.6687 2.993C49.972 2.28233 50.4097 1.732 50.9817 1.342C51.5623 0.943333 52.2513 0.744 53.0487 0.744C53.846 0.744 54.5263 0.943333 55.0897 1.342C55.6617 1.732 56.0993 2.28233 56.4027 2.993C56.706 3.695 56.8577 4.514 56.8577 5.45C56.8577 6.386 56.706 7.20933 56.4027 7.92C56.0993 8.622 55.6617 9.17233 55.0897 9.571C54.5263 9.961 53.846 10.156 53.0487 10.156ZM53.0357 9.194C53.5557 9.194 54.0193 9.04667 54.4267 8.752C54.834 8.44867 55.1547 8.01967 55.3887 7.465C55.6227 6.90167 55.7397 6.23 55.7397 5.45C55.7397 4.67 55.6227 4.00267 55.3887 3.448C55.1547 2.88467 54.834 2.45567 54.4267 2.161C54.0193 1.86633 53.5557 1.719 53.0357 1.719C52.5157 1.719 52.0477 1.86633 51.6317 2.161C51.2243 2.45567 50.9037 2.88467 50.6697 3.448C50.4443 4.00267 50.3317 4.67 50.3317 5.45C50.3317 6.23 50.4443 6.90167 50.6697 7.465C50.9037 8.01967 51.2243 8.44867 51.6317 8.752C52.0477 9.04667 52.5157 9.194 53.0357 9.194ZM61.7225 10V0.899999H64.4005C65.4665 0.899999 66.3418 1.08633 67.0265 1.459C67.7198 1.823 68.2312 2.34733 68.5605 3.032C68.8985 3.708 69.0675 4.52267 69.0675 5.476C69.0675 6.412 68.8985 7.218 68.5605 7.894C68.2312 8.57 67.7198 9.09 67.0265 9.454C66.3418 9.818 65.4665 10 64.4005 10H61.7225ZM62.8145 9.09H64.3745C65.2585 9.09 65.9605 8.947 66.4805 8.661C67.0005 8.36633 67.3732 7.95033 67.5985 7.413C67.8238 6.867 67.9365 6.22133 67.9365 5.476C67.9365 4.71333 67.8238 4.059 67.5985 3.513C67.3732 2.967 67.0005 2.54667 66.4805 2.252C65.9605 1.95733 65.2585 1.81 64.3745 1.81H62.8145V9.09ZM72.6487 10.156C72.12 10.156 71.678 10.065 71.3227 9.883C70.9674 9.69233 70.703 9.44533 70.5297 9.142C70.3564 8.83 70.2697 8.492 70.2697 8.128C70.2697 7.686 70.3824 7.31333 70.6077 7.01C70.8417 6.698 71.1667 6.464 71.5827 6.308C72.0074 6.14333 72.5057 6.061 73.0777 6.061H74.8067C74.8067 5.65367 74.7417 5.31567 74.6117 5.047C74.4904 4.76967 74.3084 4.56167 74.0657 4.423C73.8317 4.28433 73.537 4.215 73.1817 4.215C72.7657 4.215 72.406 4.319 72.1027 4.527C71.7994 4.735 71.613 5.04267 71.5437 5.45H70.4257C70.4777 4.982 70.6337 4.592 70.8937 4.28C71.1624 3.95933 71.5004 3.71667 71.9077 3.552C72.315 3.37867 72.7397 3.292 73.1817 3.292C73.7884 3.292 74.291 3.40467 74.6897 3.63C75.097 3.84667 75.4004 4.15433 75.5997 4.553C75.799 4.943 75.8987 5.40667 75.8987 5.944V10H74.9237L74.8587 8.843C74.772 9.025 74.6594 9.19833 74.5207 9.363C74.3907 9.519 74.2347 9.65767 74.0527 9.779C73.8707 9.89167 73.6627 9.98267 73.4287 10.052C73.2034 10.1213 72.9434 10.156 72.6487 10.156ZM72.8177 9.233C73.121 9.233 73.394 9.17233 73.6367 9.051C73.888 8.921 74.1004 8.74767 74.2737 8.531C74.447 8.30567 74.577 8.05867 74.6637 7.79C74.759 7.52133 74.8067 7.23967 74.8067 6.945V6.906H73.1687C72.744 6.906 72.4017 6.958 72.1417 7.062C71.8817 7.15733 71.6954 7.296 71.5827 7.478C71.47 7.65133 71.4137 7.85067 71.4137 8.076C71.4137 8.31 71.4657 8.51367 71.5697 8.687C71.6824 8.86033 71.8427 8.99467 72.0507 9.09C72.2674 9.18533 72.523 9.233 72.8177 9.233ZM78.0216 12.86L79.6206 9.272H79.2436L76.6696 3.448H77.8526L79.9846 8.453L82.2206 3.448H83.3516L79.1656 12.86H78.0216ZM86.5283 10.156C85.9823 10.156 85.5057 10.065 85.0983 9.883C84.6997 9.701 84.379 9.44967 84.1363 9.129C83.9023 8.79967 83.7593 8.414 83.7073 7.972H84.8253C84.8687 8.19733 84.9597 8.40533 85.0983 8.596C85.237 8.78667 85.4233 8.94267 85.6573 9.064C85.9 9.17667 86.1947 9.233 86.5413 9.233C86.8447 9.233 87.096 9.18967 87.2953 9.103C87.4947 9.00767 87.642 8.882 87.7373 8.726C87.8413 8.57 87.8933 8.401 87.8933 8.219C87.8933 7.95033 87.8283 7.74667 87.6983 7.608C87.577 7.46933 87.395 7.361 87.1523 7.283C86.9097 7.19633 86.615 7.12267 86.2683 7.062C85.9823 7.01 85.7007 6.94067 85.4233 6.854C85.146 6.76733 84.899 6.65467 84.6823 6.516C84.4657 6.36867 84.2923 6.191 84.1623 5.983C84.041 5.775 83.9803 5.51933 83.9803 5.216C83.9803 4.84333 84.0757 4.514 84.2663 4.228C84.457 3.93333 84.73 3.70367 85.0853 3.539C85.4493 3.37433 85.8697 3.292 86.3463 3.292C87.0483 3.292 87.616 3.461 88.0493 3.799C88.4827 4.137 88.7383 4.62667 88.8163 5.268H87.7373C87.694 4.93867 87.551 4.683 87.3083 4.501C87.0743 4.31033 86.7493 4.215 86.3333 4.215C85.926 4.215 85.614 4.29733 85.3973 4.462C85.1893 4.62667 85.0853 4.84333 85.0853 5.112C85.0853 5.28533 85.1417 5.44133 85.2543 5.58C85.3757 5.71 85.549 5.82267 85.7743 5.918C86.0083 6.01333 86.2943 6.09133 86.6323 6.152C87.0657 6.23 87.46 6.334 87.8153 6.464C88.1707 6.594 88.4567 6.789 88.6733 7.049C88.8987 7.30033 89.0113 7.66 89.0113 8.128C89.0113 8.53533 88.9073 8.89067 88.6993 9.194C88.5 9.49733 88.214 9.73567 87.8413 9.909C87.4687 10.0737 87.031 10.156 86.5283 10.156Z" fill="#535E82"/>
<path d="M4.425 11.18C3.755 11.18 3.14 11.06 2.58 10.82C2.03 10.57 1.59 10.2 1.26 9.71C0.94 9.21 0.77 8.585 0.75 7.835H2.25C2.26 8.215 2.35 8.56 2.52 8.87C2.69 9.18 2.935 9.43 3.255 9.62C3.585 9.8 3.975 9.89 4.425 9.89C4.875 9.89 5.25 9.805 5.55 9.635C5.86 9.465 6.09 9.235 6.24 8.945C6.4 8.655 6.48 8.33 6.48 7.97C6.48 7.52 6.37 7.155 6.15 6.875C5.94 6.595 5.65 6.385 5.28 6.245C4.92 6.105 4.515 6.035 4.065 6.035H3.285V4.775H4.065C4.695 4.775 5.195 4.63 5.565 4.34C5.945 4.05 6.135 3.64 6.135 3.11C6.135 2.67 5.99 2.31 5.7 2.03C5.41 1.75 4.985 1.61 4.425 1.61C3.865 1.61 3.42 1.77 3.09 2.09C2.77 2.41 2.59 2.815 2.55 3.305H1.065C1.095 2.715 1.25 2.195 1.53 1.745C1.82 1.285 2.21 0.934999 2.7 0.694999C3.2 0.445 3.775 0.32 4.425 0.32C5.125 0.32 5.71 0.445 6.18 0.694999C6.66 0.934999 7.02 1.26 7.26 1.67C7.51 2.08 7.635 2.53 7.635 3.02C7.635 3.39 7.565 3.735 7.425 4.055C7.285 4.365 7.085 4.635 6.825 4.865C6.565 5.095 6.25 5.26 5.88 5.36C6.28 5.44 6.64 5.595 6.96 5.825C7.28 6.055 7.53 6.355 7.71 6.725C7.89 7.085 7.98 7.505 7.98 7.985C7.98 8.555 7.845 9.085 7.575 9.575C7.305 10.055 6.905 10.445 6.375 10.745C5.855 11.035 5.205 11.18 4.425 11.18ZM13.5263 11.18C12.8363 11.18 12.2113 11.055 11.6513 10.805C11.1013 10.545 10.6613 10.185 10.3313 9.725C10.0113 9.265 9.85125 8.73 9.85125 8.12C9.85125 7.69 9.93125 7.295 10.0913 6.935C10.2513 6.565 10.4763 6.245 10.7663 5.975C11.0563 5.705 11.3963 5.51 11.7863 5.39C11.2663 5.18 10.8563 4.87 10.5563 4.46C10.2563 4.05 10.1063 3.6 10.1063 3.11C10.1063 2.6 10.2413 2.135 10.5113 1.715C10.7813 1.295 11.1713 0.96 11.6813 0.709999C12.1913 0.45 12.8063 0.32 13.5263 0.32C14.2463 0.32 14.8613 0.45 15.3713 0.709999C15.8813 0.96 16.2663 1.295 16.5263 1.715C16.7963 2.135 16.9313 2.6 16.9313 3.11C16.9313 3.6 16.7813 4.055 16.4812 4.475C16.1913 4.885 15.7863 5.19 15.2663 5.39C15.6563 5.51 15.9963 5.705 16.2863 5.975C16.5763 6.245 16.8013 6.565 16.9613 6.935C17.1213 7.295 17.2013 7.69 17.2013 8.12C17.2013 8.73 17.0363 9.265 16.7063 9.725C16.3863 10.185 15.9463 10.545 15.3863 10.805C14.8363 11.055 14.2163 11.18 13.5263 11.18ZM13.5263 9.89C14.2563 9.89 14.8013 9.72 15.1613 9.38C15.5313 9.03 15.7163 8.575 15.7163 8.015C15.7163 7.385 15.5163 6.905 15.1163 6.575C14.7263 6.245 14.1963 6.08 13.5263 6.08C12.8563 6.08 12.3213 6.245 11.9213 6.575C11.5313 6.905 11.3363 7.385 11.3363 8.015C11.3363 8.575 11.5163 9.03 11.8763 9.38C12.2463 9.72 12.7963 9.89 13.5263 9.89ZM13.5263 4.895C14.1163 4.895 14.5813 4.74 14.9213 4.43C15.2713 4.12 15.4463 3.725 15.4463 3.245C15.4463 2.695 15.2763 2.28 14.9363 2C14.5963 1.72 14.1263 1.58 13.5263 1.58C12.9363 1.58 12.4713 1.72 12.1313 2C11.7913 2.28 11.6213 2.695 11.6213 3.245C11.6213 3.725 11.7913 4.12 12.1313 4.43C12.4713 4.74 12.9363 4.895 13.5263 4.895ZM22.2993 11.18C21.6193 11.18 21.0393 11.05 20.5593 10.79C20.0793 10.52 19.6993 10.165 19.4193 9.725C19.1393 9.275 18.9693 8.79 18.9093 8.27H20.3043C20.4043 8.79 20.6293 9.195 20.9793 9.485C21.3293 9.765 21.7743 9.905 22.3143 9.905C22.8143 9.905 23.2543 9.755 23.6343 9.455C24.0143 9.155 24.3193 8.7 24.5493 8.09C24.7793 7.48 24.9093 6.71 24.9393 5.78C24.9493 5.75 24.9543 5.72 24.9543 5.69C24.9543 5.66 24.9543 5.63 24.9543 5.6C24.7943 5.9 24.5743 6.175 24.2943 6.425C24.0143 6.675 23.6843 6.875 23.3043 7.025C22.9343 7.165 22.5193 7.235 22.0593 7.235C21.4693 7.235 20.9143 7.1 20.3943 6.83C19.8843 6.55 19.4643 6.155 19.1343 5.645C18.8143 5.135 18.6543 4.54 18.6543 3.86C18.6543 3.25 18.7993 2.675 19.0893 2.135C19.3893 1.595 19.8093 1.16 20.3493 0.83C20.8993 0.49 21.5443 0.32 22.2843 0.32C23.0543 0.32 23.6993 0.465 24.2193 0.755C24.7493 1.035 25.1693 1.42 25.4793 1.91C25.7993 2.39 26.0293 2.93 26.1693 3.53C26.3193 4.12 26.3943 4.73 26.3943 5.36C26.3943 6.51 26.2343 7.525 25.9143 8.405C25.5943 9.275 25.1293 9.955 24.5193 10.445C23.9093 10.935 23.1693 11.18 22.2993 11.18ZM22.3893 5.96C22.8193 5.96 23.2043 5.865 23.5443 5.675C23.8843 5.475 24.1543 5.21 24.3543 4.88C24.5543 4.55 24.6543 4.185 24.6543 3.785C24.6543 3.365 24.5543 2.995 24.3543 2.675C24.1543 2.345 23.8793 2.09 23.5293 1.91C23.1893 1.72 22.8043 1.625 22.3743 1.625C21.9543 1.625 21.5743 1.72 21.2343 1.91C20.8943 2.09 20.6243 2.345 20.4243 2.675C20.2343 2.995 20.1393 3.37 20.1393 3.8C20.1393 4.23 20.2343 4.61 20.4243 4.94C20.6243 5.26 20.8943 5.51 21.2343 5.69C21.5743 5.87 21.9593 5.96 22.3893 5.96ZM30.7125 9.965V3.335H32.0325V9.965H30.7125ZM27.8775 7.28V6.02H34.8825V7.28H27.8775Z" fill="#F46D6B"/>
<path d="M96.422 9L93.2363 3.48214H99.6078L96.422 9Z" fill="#AEB9E1"/>
</svg>
