<svg width="1694" height="931" viewBox="0 0 1694 931" fill="none" xmlns="http://www.w3.org/2000/svg">
<g filter="url(#filter0_f_2033_43080)">
<ellipse cx="802.189" cy="259.313" rx="581.779" ry="65.2882" transform="rotate(29.1351 802.189 259.313)" fill="#732CFF"/>
</g>
<path opacity="0.11" d="M1053.52 361.856C1053.05 361.469 1052.35 361.537 1051.96 362.01C1051.57 362.482 1051.64 363.18 1052.12 363.567C1052.59 363.955 1053.29 363.887 1053.67 363.414C1054.06 362.942 1053.99 362.244 1053.52 361.856Z" fill="white"/>
<path d="M1054.6 354.876C1054.25 354.586 1053.73 354.637 1053.44 354.991C1053.14 355.345 1053.2 355.868 1053.55 356.159C1053.9 356.45 1054.43 356.398 1054.72 356.044C1055.01 355.69 1054.96 355.167 1054.6 354.876Z" fill="white"/>
<path d="M1033.12 352.269C1032.77 351.978 1032.25 352.029 1031.95 352.384C1031.66 352.738 1031.72 353.261 1032.07 353.552C1032.42 353.842 1032.95 353.791 1033.24 353.437C1033.53 353.082 1033.48 352.56 1033.12 352.269Z" fill="white"/>
<path d="M1068.76 382.958C1068.41 382.667 1067.89 382.719 1067.6 383.073C1067.3 383.427 1067.36 383.95 1067.71 384.241C1068.06 384.532 1068.59 384.48 1068.88 384.126C1069.17 383.772 1069.12 383.249 1068.76 382.958Z" fill="white"/>
<path opacity="0.11" d="M1098.35 390.071C1097.88 389.684 1097.18 389.752 1096.79 390.225C1096.4 390.697 1096.47 391.394 1096.95 391.782C1097.42 392.17 1098.12 392.101 1098.5 391.629C1098.89 391.156 1098.82 390.459 1098.35 390.071Z" fill="white"/>
<path d="M1098.75 406.142C1098.51 405.948 1098.16 405.983 1097.97 406.219C1097.78 406.455 1097.81 406.803 1098.05 406.997C1098.28 407.191 1098.63 407.156 1098.83 406.92C1099.02 406.684 1098.98 406.336 1098.75 406.142Z" fill="white"/>
<path d="M1068.49 346.24C1068.26 346.046 1067.91 346.08 1067.71 346.316C1067.52 346.552 1067.55 346.901 1067.79 347.095C1068.03 347.288 1068.37 347.254 1068.57 347.018C1068.76 346.782 1068.73 346.434 1068.49 346.24Z" fill="white"/>
<path d="M975.28 269.734C975.044 269.54 974.696 269.574 974.502 269.811C974.308 270.047 974.342 270.395 974.578 270.589C974.815 270.782 975.163 270.748 975.357 270.512C975.55 270.276 975.516 269.928 975.28 269.734Z" fill="white"/>
<path d="M909.725 254.572C909.489 254.378 909.141 254.412 908.947 254.648C908.754 254.884 908.788 255.233 909.024 255.427C909.26 255.62 909.608 255.586 909.802 255.35C909.996 255.114 909.961 254.766 909.725 254.572Z" fill="white"/>
<path d="M918.669 209.67C918.433 209.476 918.084 209.51 917.891 209.746C917.697 209.982 917.731 210.33 917.967 210.524C918.203 210.718 918.552 210.684 918.745 210.448C918.939 210.212 918.905 209.863 918.669 209.67Z" fill="white"/>
<path d="M1498.13 384.351C1497.89 384.157 1497.55 384.192 1497.35 384.428C1497.16 384.664 1497.19 385.012 1497.43 385.206C1497.66 385.4 1498.01 385.365 1498.21 385.129C1498.4 384.893 1498.37 384.545 1498.13 384.351Z" fill="white"/>
<path opacity="0.11" d="M1222.96 470.169C1222.72 469.976 1222.37 470.01 1222.18 470.246C1221.98 470.482 1222.02 470.83 1222.25 471.024C1222.49 471.218 1222.84 471.184 1223.03 470.948C1223.23 470.712 1223.19 470.363 1222.96 470.169Z" fill="white"/>
<path opacity="0.11" d="M1107.16 403.748C1106.92 403.554 1106.58 403.588 1106.38 403.824C1106.19 404.06 1106.22 404.409 1106.46 404.602C1106.7 404.796 1107.04 404.762 1107.24 404.526C1107.43 404.29 1107.4 403.941 1107.16 403.748Z" fill="white"/>
<path opacity="0.11" d="M1081.98 331.543C1081.74 331.349 1081.39 331.383 1081.2 331.619C1081.01 331.855 1081.04 332.204 1081.28 332.397C1081.51 332.591 1081.86 332.557 1082.05 332.321C1082.25 332.085 1082.21 331.736 1081.98 331.543Z" fill="white"/>
<path opacity="0.11" d="M996.38 268.439C996.144 268.245 995.795 268.28 995.602 268.516C995.408 268.752 995.442 269.1 995.678 269.294C995.914 269.487 996.263 269.453 996.456 269.217C996.65 268.981 996.616 268.633 996.38 268.439Z" fill="white"/>
<path opacity="0.3" d="M1173.65 468.341C1173.41 468.148 1173.06 468.182 1172.87 468.418C1172.68 468.654 1172.71 469.002 1172.95 469.196C1173.18 469.39 1173.53 469.356 1173.73 469.119C1173.92 468.883 1173.89 468.535 1173.65 468.341Z" fill="white"/>
<path d="M1056.36 410.71C1056.13 410.517 1055.78 410.551 1055.58 410.787C1055.39 411.023 1055.42 411.371 1055.66 411.565C1055.9 411.759 1056.24 411.725 1056.44 411.489C1056.63 411.253 1056.6 410.904 1056.36 410.71Z" fill="white"/>
<path d="M989.815 357.517C989.579 357.323 989.231 357.358 989.037 357.594C988.843 357.83 988.878 358.178 989.114 358.372C989.35 358.566 989.698 358.531 989.892 358.295C990.086 358.059 990.051 357.711 989.815 357.517Z" fill="white"/>
<path d="M1117.72 395.24C1117.49 395.046 1117.14 395.08 1116.95 395.316C1116.75 395.552 1116.79 395.901 1117.02 396.095C1117.26 396.288 1117.61 396.254 1117.8 396.018C1117.99 395.782 1117.96 395.434 1117.72 395.24Z" fill="white"/>
<path opacity="0.3" d="M1147.66 419.806C1147.42 419.613 1147.07 419.647 1146.88 419.883C1146.68 420.119 1146.72 420.467 1146.95 420.661C1147.19 420.855 1147.54 420.82 1147.73 420.584C1147.93 420.348 1147.89 420 1147.66 419.806Z" fill="white"/>
<path opacity="0.11" d="M1160.95 475.087C1160.71 474.894 1160.36 474.928 1160.17 475.164C1159.98 475.4 1160.01 475.748 1160.25 475.942C1160.48 476.136 1160.83 476.102 1161.02 475.866C1161.22 475.63 1161.18 475.281 1160.95 475.087Z" fill="white"/>
<path opacity="0.3" d="M1057.08 394.127C1056.85 393.933 1056.5 393.967 1056.31 394.203C1056.11 394.439 1056.15 394.787 1056.38 394.981C1056.62 395.175 1056.97 395.141 1057.16 394.905C1057.36 394.669 1057.32 394.32 1057.08 394.127Z" fill="white"/>
<path opacity="0.3" d="M1117.12 381.146C1116.88 380.952 1116.54 380.987 1116.34 381.223C1116.15 381.459 1116.18 381.807 1116.42 382.001C1116.65 382.195 1117 382.16 1117.2 381.924C1117.39 381.688 1117.36 381.34 1117.12 381.146Z" fill="white"/>
<path opacity="0.3" d="M1172.36 419.338C1172.13 419.144 1171.78 419.178 1171.59 419.414C1171.39 419.65 1171.43 419.998 1171.66 420.192C1171.9 420.386 1172.25 420.352 1172.44 420.116C1172.63 419.88 1172.6 419.531 1172.36 419.338Z" fill="white"/>
<path opacity="0.3" d="M1161.25 458.16C1161.01 457.966 1160.67 458 1160.47 458.236C1160.28 458.472 1160.31 458.821 1160.55 459.014C1160.79 459.208 1161.13 459.174 1161.33 458.938C1161.52 458.702 1161.49 458.353 1161.25 458.16Z" fill="white"/>
<path opacity="0.3" d="M894.259 241.16C894.023 240.966 893.674 241 893.48 241.236C893.287 241.472 893.321 241.821 893.557 242.014C893.793 242.208 894.141 242.174 894.335 241.938C894.529 241.702 894.495 241.353 894.259 241.16Z" fill="white"/>
<path opacity="0.11" d="M948.704 315.185C948.468 314.991 948.12 315.026 947.926 315.262C947.732 315.498 947.766 315.846 948.002 316.04C948.238 316.234 948.587 316.199 948.78 315.963C948.974 315.727 948.94 315.379 948.704 315.185Z" fill="white"/>
<path opacity="0.11" d="M920.889 232.252C920.653 232.058 920.305 232.092 920.111 232.328C919.918 232.564 919.952 232.912 920.188 233.106C920.424 233.3 920.772 233.266 920.966 233.03C921.16 232.794 921.125 232.445 920.889 232.252Z" fill="white"/>
<path opacity="0.3" d="M1032.23 317.185C1031.75 316.797 1031.06 316.865 1030.67 317.338C1030.28 317.81 1030.35 318.508 1030.82 318.895C1031.29 319.283 1031.99 319.215 1032.38 318.742C1032.77 318.27 1032.7 317.572 1032.23 317.185Z" fill="white"/>
<path opacity="0.11" d="M996.471 309.304C995.998 308.916 995.301 308.985 994.913 309.457C994.525 309.929 994.594 310.627 995.066 311.015C995.539 311.402 996.236 311.334 996.624 310.861C997.012 310.389 996.943 309.692 996.471 309.304Z" fill="white"/>
<path d="M984.4 324.443C984.046 324.152 983.523 324.203 983.232 324.558C982.941 324.912 982.993 325.435 983.347 325.725C983.701 326.016 984.224 325.965 984.515 325.611C984.806 325.256 984.754 324.733 984.4 324.443Z" fill="white"/>
<path d="M1050.75 303.763C1050.4 303.472 1049.88 303.524 1049.59 303.878C1049.29 304.232 1049.35 304.755 1049.7 305.046C1050.05 305.337 1050.58 305.285 1050.87 304.931C1051.16 304.577 1051.11 304.054 1050.75 303.763Z" fill="white"/>
<path d="M915.82 178.704C915.466 178.414 914.943 178.465 914.652 178.819C914.361 179.174 914.413 179.696 914.767 179.987C915.121 180.278 915.644 180.227 915.935 179.872C916.225 179.518 916.174 178.995 915.82 178.704Z" fill="white"/>
<path d="M1187.34 413.74C1186.99 413.449 1186.46 413.5 1186.17 413.854C1185.88 414.209 1185.93 414.732 1186.29 415.022C1186.64 415.313 1187.17 415.262 1187.46 414.907C1187.75 414.553 1187.7 414.03 1187.34 413.74Z" fill="white"/>
<path d="M1011.94 332.734C1011.58 332.443 1011.06 332.494 1010.77 332.849C1010.48 333.203 1010.53 333.726 1010.89 334.016C1011.24 334.307 1011.76 334.256 1012.05 333.902C1012.34 333.547 1012.29 333.024 1011.94 332.734Z" fill="white"/>
<path d="M1112.31 362.165C1111.95 361.875 1111.43 361.926 1111.14 362.28C1110.85 362.634 1110.9 363.157 1111.26 363.448C1111.61 363.739 1112.13 363.687 1112.42 363.333C1112.71 362.979 1112.66 362.456 1112.31 362.165Z" fill="white"/>
<path d="M1019.65 255.345C1019.3 255.054 1018.77 255.106 1018.48 255.46C1018.19 255.814 1018.24 256.337 1018.6 256.628C1018.95 256.919 1019.48 256.867 1019.77 256.513C1020.06 256.159 1020.01 255.636 1019.65 255.345Z" fill="white"/>
<path d="M882.486 191.419C882.132 191.128 881.609 191.18 881.318 191.534C881.027 191.888 881.079 192.411 881.433 192.702C881.787 192.993 882.31 192.941 882.601 192.587C882.891 192.233 882.84 191.71 882.486 191.419Z" fill="white"/>
<path d="M852.921 206.511C852.567 206.22 852.044 206.272 851.753 206.626C851.463 206.98 851.514 207.503 851.868 207.794C852.223 208.085 852.745 208.033 853.036 207.679C853.327 207.325 853.276 206.802 852.921 206.511Z" fill="white"/>
<path opacity="0.3" d="M949.477 295.058C949.004 294.67 948.307 294.738 947.919 295.211C947.531 295.683 947.6 296.381 948.072 296.769C948.545 297.156 949.242 297.088 949.63 296.615C950.018 296.143 949.949 295.445 949.477 295.058Z" fill="white"/>
<path d="M924.561 325.419C924.088 325.031 923.391 325.1 923.003 325.572C922.615 326.045 922.684 326.742 923.156 327.13C923.629 327.518 924.326 327.449 924.714 326.977C925.102 326.504 925.033 325.807 924.561 325.419Z" fill="white"/>
<path d="M935.177 267.587C934.823 267.296 934.3 267.348 934.009 267.702C933.719 268.056 933.77 268.579 934.124 268.87C934.478 269.161 935.001 269.109 935.292 268.755C935.583 268.401 935.531 267.878 935.177 267.587Z" fill="white"/>
<path opacity="0.3" d="M900.752 267.239C900.28 266.851 899.582 266.92 899.194 267.393C898.807 267.865 898.875 268.562 899.348 268.95C899.82 269.338 900.517 269.269 900.905 268.797C901.293 268.324 901.224 267.627 900.752 267.239Z" fill="white"/>
<path opacity="0.3" d="M883.342 202.138C882.869 201.75 882.172 201.819 881.784 202.291C881.396 202.763 881.465 203.461 881.938 203.849C882.41 204.236 883.107 204.168 883.495 203.695C883.883 203.223 883.814 202.526 883.342 202.138Z" fill="white"/>
<path opacity="0.3" d="M934.066 242.347C933.594 241.959 932.897 242.027 932.509 242.5C932.121 242.972 932.19 243.67 932.662 244.058C933.135 244.445 933.832 244.377 934.22 243.904C934.608 243.432 934.539 242.734 934.066 242.347Z" fill="white"/>
<path opacity="0.3" d="M1185.45 436.521C1184.98 436.133 1184.28 436.201 1183.89 436.674C1183.51 437.146 1183.57 437.844 1184.05 438.231C1184.52 438.619 1185.22 438.551 1185.6 438.078C1185.99 437.606 1185.92 436.908 1185.45 436.521Z" fill="white"/>
<path opacity="0.11" d="M890.344 229.354C889.871 228.967 889.174 229.035 888.786 229.508C888.398 229.98 888.467 230.678 888.939 231.065C889.412 231.453 890.109 231.385 890.497 230.912C890.885 230.44 890.816 229.742 890.344 229.354Z" fill="white"/>
<path opacity="0.3" d="M1127.71 452.817C1127.24 452.43 1126.54 452.498 1126.15 452.971C1125.77 453.443 1125.83 454.14 1126.31 454.528C1126.78 454.916 1127.48 454.847 1127.86 454.375C1128.25 453.903 1128.18 453.205 1127.71 452.817Z" fill="white"/>
<path opacity="0.11" d="M1132.24 470.843C1131.77 470.455 1131.07 470.524 1130.68 470.996C1130.29 471.468 1130.36 472.166 1130.83 472.554C1131.31 472.941 1132 472.873 1132.39 472.4C1132.78 471.928 1132.71 471.231 1132.24 470.843Z" fill="white"/>
<path opacity="0.3" d="M1158.12 446.284C1157.64 445.896 1156.95 445.965 1156.56 446.437C1156.17 446.91 1156.24 447.607 1156.71 447.995C1157.18 448.383 1157.88 448.314 1158.27 447.842C1158.66 447.369 1158.59 446.672 1158.12 446.284Z" fill="white"/>
<path d="M1131.05 424.782C1130.69 424.492 1130.17 424.543 1129.88 424.897C1129.59 425.252 1129.64 425.775 1129.99 426.065C1130.35 426.356 1130.87 426.305 1131.16 425.95C1131.45 425.596 1131.4 425.073 1131.05 424.782Z" fill="white"/>
<path opacity="0.11" d="M798.483 371.056C798.01 370.668 797.313 370.736 796.925 371.209C796.537 371.681 796.606 372.379 797.078 372.767C797.551 373.154 798.248 373.086 798.636 372.613C799.024 372.141 798.955 371.443 798.483 371.056Z" fill="white"/>
<path d="M799.566 364.073C799.212 363.783 798.689 363.834 798.398 364.188C798.107 364.543 798.159 365.066 798.513 365.356C798.867 365.647 799.39 365.596 799.681 365.241C799.972 364.887 799.92 364.364 799.566 364.073Z" fill="white"/>
<path d="M778.087 361.468C777.733 361.177 777.21 361.229 776.919 361.583C776.629 361.937 776.68 362.46 777.034 362.751C777.389 363.042 777.912 362.99 778.202 362.636C778.493 362.282 778.442 361.759 778.087 361.468Z" fill="white"/>
<path d="M813.726 392.157C813.372 391.867 812.849 391.918 812.558 392.272C812.267 392.627 812.319 393.15 812.673 393.44C813.027 393.731 813.55 393.68 813.841 393.325C814.132 392.971 814.08 392.448 813.726 392.157Z" fill="white"/>
<path opacity="0.11" d="M843.315 399.269C842.842 398.881 842.145 398.949 841.757 399.422C841.369 399.894 841.438 400.592 841.91 400.979C842.383 401.367 843.08 401.299 843.468 400.826C843.856 400.354 843.787 399.656 843.315 399.269Z" fill="white"/>
<path d="M843.716 415.339C843.48 415.146 843.131 415.18 842.937 415.416C842.744 415.652 842.778 416 843.014 416.194C843.25 416.388 843.598 416.354 843.792 416.118C843.986 415.882 843.952 415.533 843.716 415.339Z" fill="white"/>
<path d="M813.454 355.437C813.218 355.243 812.869 355.278 812.676 355.514C812.482 355.75 812.516 356.098 812.752 356.292C812.988 356.486 813.337 356.451 813.53 356.215C813.724 355.979 813.69 355.631 813.454 355.437Z" fill="white"/>
<path d="M720.249 278.933C720.013 278.739 719.664 278.774 719.471 279.01C719.277 279.246 719.311 279.594 719.547 279.788C719.783 279.982 720.132 279.947 720.325 279.711C720.519 279.475 720.485 279.127 720.249 278.933Z" fill="white"/>
<path d="M654.69 263.771C654.454 263.577 654.106 263.612 653.912 263.848C653.718 264.084 653.753 264.432 653.989 264.626C654.225 264.82 654.573 264.785 654.767 264.549C654.961 264.313 654.926 263.965 654.69 263.771Z" fill="white"/>
<path d="M663.638 218.867C663.401 218.673 663.053 218.707 662.859 218.943C662.666 219.179 662.7 219.528 662.936 219.721C663.172 219.915 663.52 219.881 663.714 219.645C663.908 219.409 663.874 219.06 663.638 218.867Z" fill="white"/>
<path d="M947.057 482.996C946.821 482.802 946.473 482.836 946.279 483.072C946.086 483.308 946.12 483.657 946.356 483.85C946.592 484.044 946.94 484.01 947.134 483.774C947.328 483.538 947.293 483.189 947.057 482.996Z" fill="white"/>
<path opacity="0.11" d="M934.518 511.343C934.282 511.15 933.934 511.184 933.74 511.42C933.546 511.656 933.581 512.004 933.817 512.198C934.053 512.392 934.401 512.358 934.595 512.121C934.789 511.885 934.754 511.537 934.518 511.343Z" fill="white"/>
<path opacity="0.11" d="M960.973 516.599C960.737 516.405 960.389 516.44 960.195 516.676C960.002 516.912 960.036 517.26 960.272 517.454C960.508 517.648 960.856 517.613 961.05 517.377C961.244 517.141 961.209 516.793 960.973 516.599Z" fill="white"/>
<path opacity="0.11" d="M967.923 479.365C967.687 479.171 967.338 479.205 967.145 479.441C966.951 479.677 966.985 480.026 967.221 480.22C967.457 480.413 967.805 480.379 967.999 480.143C968.193 479.907 968.159 479.559 967.923 479.365Z" fill="white"/>
<path opacity="0.11" d="M852.124 412.943C851.888 412.749 851.539 412.783 851.346 413.02C851.152 413.256 851.186 413.604 851.422 413.798C851.658 413.991 852.007 413.957 852.2 413.721C852.394 413.485 852.36 413.137 852.124 412.943Z" fill="white"/>
<path opacity="0.11" d="M826.944 340.74C826.708 340.546 826.36 340.58 826.166 340.816C825.972 341.052 826.007 341.401 826.243 341.595C826.479 341.788 826.827 341.754 827.021 341.518C827.214 341.282 827.18 340.934 826.944 340.74Z" fill="white"/>
<path opacity="0.11" d="M741.343 277.644C741.107 277.45 740.758 277.485 740.564 277.721C740.371 277.957 740.405 278.305 740.641 278.499C740.877 278.693 741.225 278.658 741.419 278.422C741.613 278.186 741.579 277.838 741.343 277.644Z" fill="white"/>
<path opacity="0.3" d="M918.614 477.539C918.378 477.345 918.03 477.379 917.836 477.615C917.642 477.851 917.676 478.2 917.912 478.393C918.149 478.587 918.497 478.553 918.691 478.317C918.884 478.081 918.85 477.732 918.614 477.539Z" fill="white"/>
<path d="M801.325 419.906C801.089 419.712 800.741 419.746 800.547 419.982C800.353 420.218 800.387 420.567 800.623 420.761C800.859 420.954 801.208 420.92 801.402 420.684C801.595 420.448 801.561 420.1 801.325 419.906Z" fill="white"/>
<path d="M734.78 366.724C734.544 366.53 734.196 366.565 734.002 366.801C733.808 367.037 733.842 367.385 734.078 367.579C734.315 367.773 734.663 367.738 734.857 367.502C735.05 367.266 735.016 366.918 734.78 366.724Z" fill="white"/>
<path d="M862.686 404.437C862.45 404.243 862.102 404.278 861.908 404.514C861.714 404.75 861.749 405.098 861.985 405.292C862.221 405.486 862.569 405.451 862.763 405.215C862.957 404.979 862.922 404.631 862.686 404.437Z" fill="white"/>
<path opacity="0.3" d="M892.616 429.003C892.38 428.81 892.032 428.844 891.838 429.08C891.644 429.316 891.678 429.664 891.914 429.858C892.15 430.052 892.499 430.018 892.693 429.782C892.886 429.546 892.852 429.197 892.616 429.003Z" fill="white"/>
<path opacity="0.11" d="M905.915 484.287C905.679 484.093 905.33 484.127 905.137 484.363C904.943 484.599 904.977 484.948 905.213 485.141C905.449 485.335 905.798 485.301 905.991 485.065C906.185 484.829 906.151 484.48 905.915 484.287Z" fill="white"/>
<path opacity="0.3" d="M802.05 403.324C801.814 403.13 801.465 403.164 801.271 403.4C801.078 403.636 801.112 403.985 801.348 404.178C801.584 404.372 801.932 404.338 802.126 404.102C802.32 403.866 802.286 403.518 802.05 403.324Z" fill="white"/>
<path opacity="0.3" d="M862.087 390.343C861.851 390.15 861.502 390.184 861.309 390.42C861.115 390.656 861.149 391.004 861.385 391.198C861.621 391.392 861.97 391.357 862.163 391.121C862.357 390.885 862.323 390.537 862.087 390.343Z" fill="white"/>
<path opacity="0.3" d="M917.331 428.537C917.095 428.343 916.746 428.377 916.553 428.613C916.359 428.849 916.393 429.198 916.629 429.391C916.865 429.585 917.214 429.551 917.407 429.315C917.601 429.079 917.567 428.73 917.331 428.537Z" fill="white"/>
<path opacity="0.3" d="M906.218 467.359C905.982 467.165 905.633 467.199 905.439 467.436C905.246 467.672 905.28 468.02 905.516 468.214C905.752 468.407 906.1 468.373 906.294 468.137C906.488 467.901 906.454 467.553 906.218 467.359Z" fill="white"/>
<path opacity="0.3" d="M639.225 250.355C638.989 250.161 638.641 250.196 638.447 250.432C638.254 250.668 638.288 251.016 638.524 251.21C638.76 251.403 639.108 251.369 639.302 251.133C639.496 250.897 639.461 250.549 639.225 250.355Z" fill="white"/>
<path opacity="0.11" d="M693.671 324.39C693.435 324.196 693.086 324.231 692.893 324.467C692.699 324.703 692.733 325.051 692.969 325.245C693.205 325.439 693.554 325.404 693.747 325.168C693.941 324.932 693.907 324.584 693.671 324.39Z" fill="white"/>
<path opacity="0.11" d="M665.858 241.449C665.622 241.255 665.274 241.289 665.08 241.525C664.886 241.761 664.921 242.11 665.157 242.303C665.393 242.497 665.741 242.463 665.935 242.227C666.129 241.991 666.094 241.643 665.858 241.449Z" fill="white"/>
<path opacity="0.3" d="M777.19 326.392C776.717 326.004 776.02 326.072 775.632 326.545C775.244 327.017 775.313 327.715 775.785 328.103C776.258 328.49 776.955 328.422 777.343 327.949C777.731 327.477 777.662 326.779 777.19 326.392Z" fill="white"/>
<path opacity="0.11" d="M741.436 318.511C740.963 318.123 740.266 318.192 739.878 318.664C739.49 319.136 739.559 319.834 740.031 320.222C740.504 320.609 741.201 320.541 741.589 320.068C741.977 319.596 741.908 318.899 741.436 318.511Z" fill="white"/>
<path d="M729.363 333.65C729.009 333.359 728.486 333.41 728.195 333.765C727.904 334.119 727.956 334.642 728.31 334.932C728.664 335.223 729.187 335.172 729.478 334.818C729.768 334.463 729.717 333.94 729.363 333.65Z" fill="white"/>
<path d="M795.714 312.968C795.36 312.677 794.837 312.729 794.546 313.083C794.256 313.437 794.307 313.96 794.661 314.251C795.016 314.542 795.538 314.49 795.829 314.136C796.12 313.782 796.069 313.259 795.714 312.968Z" fill="white"/>
<path d="M660.787 187.902C660.432 187.611 659.909 187.662 659.619 188.017C659.328 188.371 659.379 188.894 659.734 189.184C660.088 189.475 660.611 189.424 660.901 189.07C661.192 188.715 661.141 188.192 660.787 187.902Z" fill="white"/>
<path d="M932.306 422.939C931.952 422.648 931.429 422.699 931.138 423.054C930.847 423.408 930.899 423.931 931.253 424.222C931.607 424.512 932.13 424.461 932.421 424.107C932.712 423.752 932.66 423.23 932.306 422.939Z" fill="white"/>
<path d="M981.095 479.443C980.741 479.152 980.218 479.203 979.927 479.558C979.637 479.912 979.688 480.435 980.042 480.725C980.396 481.016 980.919 480.965 981.21 480.611C981.501 480.256 981.449 479.733 981.095 479.443Z" fill="white"/>
<path d="M974.326 502.513C973.971 502.222 973.449 502.274 973.158 502.628C972.867 502.982 972.918 503.505 973.273 503.796C973.627 504.087 974.15 504.035 974.441 503.681C974.731 503.327 974.68 502.804 974.326 502.513Z" fill="white"/>
<path d="M756.906 341.941C756.551 341.65 756.029 341.701 755.738 342.056C755.447 342.41 755.498 342.933 755.853 343.224C756.207 343.514 756.73 343.463 757.021 343.109C757.311 342.754 757.26 342.231 756.906 341.941Z" fill="white"/>
<path d="M857.271 371.361C856.917 371.07 856.394 371.121 856.103 371.476C855.812 371.83 855.864 372.353 856.218 372.643C856.572 372.934 857.095 372.883 857.386 372.529C857.677 372.174 857.625 371.651 857.271 371.361Z" fill="white"/>
<path d="M764.619 264.544C764.264 264.253 763.742 264.305 763.451 264.659C763.16 265.013 763.211 265.536 763.566 265.827C763.92 266.118 764.443 266.066 764.734 265.712C765.024 265.358 764.973 264.835 764.619 264.544Z" fill="white"/>
<path d="M627.451 200.615C627.096 200.324 626.574 200.375 626.283 200.729C625.992 201.084 626.043 201.607 626.398 201.897C626.752 202.188 627.275 202.137 627.566 201.782C627.856 201.428 627.805 200.905 627.451 200.615Z" fill="white"/>
<path d="M597.89 215.706C597.536 215.416 597.013 215.467 596.722 215.821C596.431 216.176 596.483 216.698 596.837 216.989C597.191 217.28 597.714 217.228 598.005 216.874C598.296 216.52 598.244 215.997 597.89 215.706Z" fill="white"/>
<path opacity="0.3" d="M694.438 304.265C693.965 303.877 693.268 303.945 692.88 304.418C692.492 304.89 692.561 305.588 693.033 305.976C693.506 306.363 694.203 306.295 694.591 305.822C694.979 305.35 694.91 304.652 694.438 304.265Z" fill="white"/>
<path d="M669.524 334.624C669.051 334.236 668.354 334.305 667.966 334.777C667.578 335.25 667.647 335.947 668.119 336.335C668.592 336.723 669.289 336.654 669.677 336.182C670.065 335.709 669.996 335.012 669.524 334.624Z" fill="white"/>
<path d="M680.144 276.784C679.79 276.494 679.267 276.545 678.976 276.899C678.685 277.254 678.737 277.776 679.091 278.067C679.445 278.358 679.968 278.307 680.259 277.952C680.55 277.598 680.498 277.075 680.144 276.784Z" fill="white"/>
<path opacity="0.3" d="M645.717 276.437C645.244 276.049 644.547 276.117 644.159 276.59C643.771 277.062 643.84 277.76 644.313 278.147C644.785 278.535 645.482 278.467 645.87 277.994C646.258 277.522 646.189 276.824 645.717 276.437Z" fill="white"/>
<path opacity="0.3" d="M628.311 211.337C627.838 210.949 627.141 211.018 626.753 211.49C626.365 211.963 626.434 212.66 626.906 213.048C627.379 213.436 628.076 213.367 628.464 212.895C628.852 212.422 628.783 211.725 628.311 211.337Z" fill="white"/>
<path opacity="0.3" d="M679.033 251.542C678.561 251.154 677.863 251.223 677.476 251.695C677.088 252.168 677.156 252.865 677.629 253.253C678.101 253.641 678.799 253.572 679.187 253.1C679.574 252.627 679.506 251.93 679.033 251.542Z" fill="white"/>
<path opacity="0.3" d="M930.416 445.72C929.944 445.332 929.246 445.401 928.858 445.873C928.471 446.345 928.539 447.043 929.012 447.431C929.484 447.818 930.182 447.75 930.569 447.277C930.957 446.805 930.889 446.108 930.416 445.72Z" fill="white"/>
<path opacity="0.3" d="M945.75 497.667C945.278 497.279 944.58 497.348 944.192 497.82C943.805 498.293 943.873 498.99 944.346 499.378C944.818 499.766 945.516 499.697 945.903 499.225C946.291 498.752 946.223 498.055 945.75 497.667Z" fill="white"/>
<path opacity="0.11" d="M635.311 238.552C634.838 238.164 634.141 238.233 633.753 238.705C633.365 239.177 633.434 239.875 633.906 240.263C634.379 240.65 635.076 240.582 635.464 240.109C635.852 239.637 635.783 238.94 635.311 238.552Z" fill="white"/>
<path opacity="0.3" d="M872.68 462.015C872.207 461.627 871.51 461.695 871.122 462.168C870.734 462.64 870.803 463.338 871.275 463.726C871.748 464.113 872.445 464.045 872.833 463.572C873.221 463.1 873.152 462.402 872.68 462.015Z" fill="white"/>
<path opacity="0.11" d="M877.199 480.042C876.727 479.654 876.03 479.723 875.642 480.195C875.254 480.668 875.323 481.365 875.795 481.753C876.267 482.141 876.965 482.072 877.353 481.6C877.74 481.127 877.672 480.43 877.199 480.042Z" fill="white"/>
<path opacity="0.3" d="M903.082 455.483C902.61 455.096 901.912 455.164 901.525 455.637C901.137 456.109 901.205 456.806 901.678 457.194C902.15 457.582 902.848 457.513 903.235 457.041C903.623 456.569 903.555 455.871 903.082 455.483Z" fill="white"/>
<path d="M876.011 433.98C875.657 433.689 875.134 433.74 874.843 434.095C874.553 434.449 874.604 434.972 874.958 435.263C875.312 435.553 875.835 435.502 876.126 435.148C876.417 434.793 876.365 434.271 876.011 433.98Z" fill="white"/>
<path opacity="0.11" d="M628.647 119.526C628.174 119.139 627.477 119.207 627.089 119.68C626.701 120.152 626.77 120.849 627.242 121.237C627.715 121.625 628.412 121.556 628.8 121.084C629.188 120.612 629.119 119.914 628.647 119.526Z" fill="white"/>
<path d="M629.732 112.546C629.378 112.255 628.855 112.307 628.564 112.661C628.273 113.015 628.325 113.538 628.679 113.829C629.033 114.12 629.556 114.068 629.847 113.714C630.138 113.36 630.086 112.837 629.732 112.546Z" fill="white"/>
<path d="M608.251 109.937C607.897 109.646 607.374 109.698 607.084 110.052C606.793 110.406 606.844 110.929 607.198 111.22C607.553 111.51 608.076 111.459 608.366 111.105C608.657 110.75 608.606 110.228 608.251 109.937Z" fill="white"/>
<path d="M643.89 140.626C643.536 140.335 643.013 140.387 642.722 140.741C642.431 141.095 642.483 141.618 642.837 141.909C643.191 142.2 643.714 142.148 644.005 141.794C644.296 141.44 644.244 140.917 643.89 140.626Z" fill="white"/>
<path opacity="0.11" d="M673.479 147.739C673.006 147.351 672.309 147.42 671.921 147.893C671.533 148.365 671.602 149.062 672.074 149.45C672.547 149.838 673.244 149.769 673.632 149.297C674.02 148.824 673.951 148.127 673.479 147.739Z" fill="white"/>
<path d="M673.882 163.812C673.646 163.618 673.297 163.653 673.104 163.889C672.91 164.125 672.944 164.473 673.18 164.667C673.416 164.861 673.764 164.826 673.958 164.59C674.152 164.354 674.118 164.006 673.882 163.812Z" fill="white"/>
<path d="M643.62 103.91C643.384 103.716 643.036 103.75 642.842 103.986C642.648 104.222 642.682 104.571 642.918 104.764C643.154 104.958 643.503 104.924 643.697 104.688C643.89 104.452 643.856 104.103 643.62 103.91Z" fill="white"/>
<path d="M550.411 27.3941C550.175 27.2004 549.827 27.2347 549.633 27.4707C549.439 27.7067 549.473 28.0551 549.709 28.2488C549.945 28.4426 550.294 28.4083 550.488 28.1723C550.681 27.9362 550.647 27.5879 550.411 27.3941Z" fill="white"/>
<path d="M484.856 12.23C484.62 12.0363 484.272 12.0706 484.078 12.3066C483.884 12.5426 483.919 12.891 484.155 13.0848C484.391 13.2785 484.739 13.2442 484.933 13.0082C485.127 12.7722 485.092 12.4238 484.856 12.23Z" fill="white"/>
<path d="M777.223 231.468C776.987 231.275 776.639 231.309 776.445 231.545C776.252 231.781 776.286 232.129 776.522 232.323C776.758 232.517 777.106 232.482 777.3 232.246C777.494 232.01 777.459 231.662 777.223 231.468Z" fill="white"/>
<path opacity="0.11" d="M764.68 259.818C764.444 259.624 764.096 259.658 763.902 259.894C763.709 260.131 763.743 260.479 763.979 260.673C764.215 260.866 764.563 260.832 764.757 260.596C764.951 260.36 764.916 260.012 764.68 259.818Z" fill="white"/>
<path opacity="0.11" d="M791.138 265.072C790.901 264.878 790.553 264.912 790.359 265.148C790.166 265.384 790.2 265.733 790.436 265.927C790.672 266.12 791.02 266.086 791.214 265.85C791.408 265.614 791.374 265.266 791.138 265.072Z" fill="white"/>
<path opacity="0.11" d="M798.089 227.837C797.853 227.644 797.504 227.678 797.311 227.914C797.117 228.15 797.151 228.498 797.387 228.692C797.623 228.886 797.972 228.852 798.165 228.616C798.359 228.38 798.325 228.031 798.089 227.837Z" fill="white"/>
<path opacity="0.11" d="M682.294 161.418C682.058 161.224 681.709 161.258 681.516 161.494C681.322 161.73 681.356 162.078 681.592 162.272C681.828 162.466 682.177 162.432 682.37 162.196C682.564 161.96 682.53 161.611 682.294 161.418Z" fill="white"/>
<path opacity="0.11" d="M657.11 89.2203C656.874 89.0266 656.526 89.0608 656.332 89.2969C656.138 89.5329 656.173 89.8813 656.409 90.075C656.645 90.2687 656.993 90.2345 657.187 89.9984C657.38 89.7624 657.346 89.414 657.11 89.2203Z" fill="white"/>
<path opacity="0.11" d="M571.509 26.107C571.273 25.9133 570.924 25.9475 570.73 26.1836C570.537 26.4196 570.571 26.768 570.807 26.9617C571.043 27.1555 571.391 27.1212 571.585 26.8851C571.779 26.6491 571.745 26.3007 571.509 26.107Z" fill="white"/>
<path opacity="0.3" d="M748.78 226.009C748.544 225.816 748.196 225.85 748.002 226.086C747.808 226.322 747.842 226.67 748.078 226.864C748.315 227.058 748.663 227.024 748.857 226.787C749.05 226.551 749.016 226.203 748.78 226.009Z" fill="white"/>
<path d="M631.491 168.378C631.255 168.185 630.907 168.219 630.713 168.455C630.519 168.691 630.553 169.039 630.789 169.233C631.025 169.427 631.374 169.393 631.568 169.157C631.761 168.921 631.727 168.572 631.491 168.378Z" fill="white"/>
<path d="M564.946 115.187C564.71 114.993 564.362 115.028 564.168 115.264C563.974 115.5 564.009 115.848 564.245 116.042C564.481 116.236 564.829 116.201 565.023 115.965C565.216 115.729 565.182 115.381 564.946 115.187Z" fill="white"/>
<path d="M692.856 152.91C692.62 152.716 692.272 152.75 692.078 152.986C691.884 153.222 691.919 153.571 692.155 153.764C692.391 153.958 692.739 153.924 692.933 153.688C693.127 153.452 693.092 153.103 692.856 152.91Z" fill="white"/>
<path opacity="0.3" d="M722.782 177.474C722.546 177.28 722.198 177.315 722.004 177.551C721.81 177.787 721.844 178.135 722.08 178.329C722.316 178.523 722.665 178.488 722.859 178.252C723.052 178.016 723.018 177.668 722.782 177.474Z" fill="white"/>
<path opacity="0.11" d="M736.077 232.757C735.841 232.564 735.493 232.598 735.299 232.834C735.105 233.07 735.139 233.418 735.375 233.612C735.611 233.806 735.96 233.772 736.154 233.536C736.347 233.3 736.313 232.951 736.077 232.757Z" fill="white"/>
<path opacity="0.3" d="M632.214 151.794C631.978 151.601 631.629 151.635 631.436 151.871C631.242 152.107 631.276 152.455 631.512 152.649C631.748 152.843 632.097 152.809 632.29 152.573C632.484 152.337 632.45 151.988 632.214 151.794Z" fill="white"/>
<path opacity="0.3" d="M692.251 138.814C692.015 138.62 691.666 138.655 691.473 138.891C691.279 139.127 691.313 139.475 691.549 139.669C691.785 139.862 692.134 139.828 692.327 139.592C692.521 139.356 692.487 139.008 692.251 138.814Z" fill="white"/>
<path opacity="0.3" d="M747.495 177.007C747.259 176.814 746.911 176.848 746.717 177.084C746.523 177.32 746.557 177.668 746.793 177.862C747.029 178.056 747.378 178.022 747.572 177.786C747.765 177.55 747.731 177.201 747.495 177.007Z" fill="white"/>
<path opacity="0.3" d="M736.38 215.83C736.144 215.636 735.795 215.67 735.602 215.906C735.408 216.142 735.442 216.491 735.678 216.684C735.914 216.878 736.263 216.844 736.456 216.608C736.65 216.372 736.616 216.023 736.38 215.83Z" fill="white"/>
<path opacity="0.3" d="M469.391 -1.18209C469.155 -1.37583 468.807 -1.34154 468.613 -1.10551C468.42 -0.86949 468.454 -0.521116 468.69 -0.327378C468.926 -0.13364 469.274 -0.167896 469.468 -0.403919C469.662 -0.639943 469.627 -0.988353 469.391 -1.18209Z" fill="white"/>
<path opacity="0.11" d="M523.835 72.8531C523.599 72.6594 523.25 72.6936 523.057 72.9296C522.863 73.1657 522.897 73.5141 523.133 73.7078C523.369 73.9016 523.718 73.8673 523.911 73.6312C524.105 73.3952 524.071 73.0468 523.835 72.8531Z" fill="white"/>
<path opacity="0.3" d="M607.359 74.8564C606.887 74.4686 606.19 74.5372 605.802 75.0097C605.414 75.4821 605.483 76.1795 605.955 76.5673C606.428 76.9551 607.125 76.8865 607.513 76.4141C607.901 75.9416 607.832 75.2442 607.359 74.8564Z" fill="white"/>
<path opacity="0.11" d="M571.602 66.9737C571.129 66.5859 570.432 66.6545 570.044 67.1269C569.656 67.5994 569.725 68.2967 570.197 68.6845C570.67 69.0723 571.367 69.0037 571.755 68.5313C572.143 68.0588 572.074 67.3615 571.602 66.9737Z" fill="white"/>
<path d="M559.533 82.1106C559.178 81.8199 558.656 81.8713 558.365 82.2256C558.074 82.5798 558.125 83.1027 558.48 83.3934C558.834 83.6842 559.357 83.6328 559.648 83.2785C559.938 82.9243 559.887 82.4014 559.533 82.1106Z" fill="white"/>
<path d="M625.88 61.4329C625.526 61.1421 625.003 61.1936 624.712 61.5478C624.422 61.9021 624.473 62.4249 624.827 62.7157C625.182 63.0065 625.704 62.955 625.995 62.6008C626.286 62.2466 626.235 61.7237 625.88 61.4329Z" fill="white"/>
<path d="M762.47 171.409C762.116 171.119 761.593 171.17 761.302 171.524C761.012 171.879 761.063 172.401 761.417 172.692C761.771 172.983 762.294 172.932 762.585 172.577C762.876 172.223 762.824 171.7 762.47 171.409Z" fill="white"/>
<path d="M811.259 227.917C810.905 227.626 810.382 227.678 810.091 228.032C809.801 228.386 809.852 228.909 810.206 229.2C810.56 229.491 811.083 229.439 811.374 229.085C811.665 228.731 811.613 228.208 811.259 227.917Z" fill="white"/>
<path d="M804.492 250.986C804.137 250.695 803.615 250.746 803.324 251.101C803.033 251.455 803.084 251.978 803.439 252.268C803.793 252.559 804.316 252.508 804.607 252.154C804.897 251.799 804.846 251.276 804.492 250.986Z" fill="white"/>
<path d="M587.072 90.4017C586.718 90.1109 586.195 90.1623 585.904 90.5166C585.613 90.8708 585.665 91.3937 586.019 91.6845C586.373 91.9752 586.896 91.9238 587.187 91.5695C587.477 91.2153 587.426 90.6924 587.072 90.4017Z" fill="white"/>
<path d="M687.437 119.833C687.083 119.543 686.56 119.594 686.269 119.948C685.978 120.302 686.03 120.825 686.384 121.116C686.738 121.407 687.261 121.355 687.552 121.001C687.843 120.647 687.791 120.124 687.437 119.833Z" fill="white"/>
<path d="M594.783 13.0032C594.428 12.7125 593.906 12.7639 593.615 13.1181C593.324 13.4724 593.375 13.9952 593.73 14.286C594.084 14.5768 594.607 14.5253 594.898 14.1711C595.188 13.8169 595.137 13.294 594.783 13.0032Z" fill="white"/>
<path opacity="0.3" d="M524.607 52.7334C524.135 52.3456 523.438 52.4142 523.05 52.8867C522.662 53.3591 522.731 54.0565 523.203 54.4443C523.676 54.8321 524.373 54.7635 524.761 54.291C525.149 53.8186 525.08 53.1212 524.607 52.7334Z" fill="white"/>
<path d="M499.692 83.0889C499.219 82.7011 498.522 82.7697 498.134 83.2422C497.746 83.7146 497.815 84.412 498.287 84.7998C498.76 85.1876 499.457 85.119 499.845 84.6465C500.233 84.1741 500.164 83.4767 499.692 83.0889Z" fill="white"/>
<path d="M510.31 25.2474C509.956 24.9566 509.433 25.008 509.142 25.3623C508.851 25.7165 508.903 26.2394 509.257 26.5302C509.611 26.8209 510.134 26.7695 510.425 26.4152C510.716 26.061 510.664 25.5381 510.31 25.2474Z" fill="white"/>
<path opacity="0.3" d="M475.883 24.8975C475.41 24.5097 474.713 24.5783 474.325 25.0507C473.937 25.5232 474.006 26.2206 474.479 26.6084C474.951 26.9962 475.648 26.9275 476.036 26.4551C476.424 25.9827 476.355 25.2853 475.883 24.8975Z" fill="white"/>
<path opacity="0.3" d="M509.199 0.00685616C508.727 -0.38095 508.03 -0.312324 507.642 0.160125C507.254 0.632574 507.323 1.32994 507.795 1.71774C508.267 2.10555 508.965 2.03693 509.353 1.56448C509.74 1.09203 509.672 0.394662 509.199 0.00685616Z" fill="white"/>
<path opacity="0.3" d="M760.582 194.19C760.11 193.803 759.412 193.871 759.025 194.344C758.637 194.816 758.705 195.514 759.178 195.901C759.65 196.289 760.348 196.221 760.735 195.748C761.123 195.276 761.055 194.578 760.582 194.19Z" fill="white"/>
<path opacity="0.3" d="M775.916 246.138C775.444 245.75 774.746 245.819 774.358 246.291C773.971 246.763 774.039 247.461 774.512 247.849C774.984 248.236 775.682 248.168 776.069 247.695C776.457 247.223 776.389 246.525 775.916 246.138Z" fill="white"/>
<path opacity="0.3" d="M702.84 210.485C702.367 210.098 701.67 210.166 701.282 210.639C700.895 211.111 700.963 211.808 701.436 212.196C701.908 212.584 702.605 212.515 702.993 212.043C703.381 211.571 703.312 210.873 702.84 210.485Z" fill="white"/>
<path opacity="0.11" d="M707.369 228.513C706.897 228.125 706.199 228.194 705.812 228.666C705.424 229.138 705.492 229.836 705.965 230.224C706.437 230.611 707.135 230.543 707.522 230.07C707.91 229.598 707.842 228.901 707.369 228.513Z" fill="white"/>
<path opacity="0.3" d="M733.248 203.954C732.776 203.566 732.078 203.635 731.691 204.107C731.303 204.58 731.371 205.277 731.844 205.665C732.316 206.053 733.014 205.984 733.401 205.512C733.789 205.039 733.721 204.342 733.248 203.954Z" fill="white"/>
<path d="M706.177 182.45C705.823 182.16 705.3 182.211 705.009 182.565C704.719 182.92 704.77 183.442 705.124 183.733C705.478 184.024 706.001 183.973 706.292 183.618C706.583 183.264 706.531 182.741 706.177 182.45Z" fill="white"/>
<defs>
<filter id="filter0_f_2033_43080" x="-89.3912" y="-412.078" width="1783.16" height="1342.78" filterUnits="userSpaceOnUse" color-interpolation-filters="sRGB">
<feFlood flood-opacity="0" result="BackgroundImageFix"/>
<feBlend mode="normal" in="SourceGraphic" in2="BackgroundImageFix" result="shape"/>
<feGaussianBlur stdDeviation="191.2" result="effect1_foregroundBlur_2033_43080"/>
</filter>
</defs>
</svg>
