<svg width="116" height="94" viewBox="0 0 116 94" fill="none" xmlns="http://www.w3.org/2000/svg">
<path fill-rule="evenodd" clip-rule="evenodd" d="M45.7908 93.533C45.5052 93.533 45.1244 93.4378 44.8388 93.1522L0.475995 47.7423C0.190398 47.4567 0 47.1711 0 46.7903C0 46.4095 0.190398 46.0287 0.475995 45.8383L44.8388 0.428396C45.41 -0.142799 46.2668 -0.142799 46.7427 0.428396L91.2006 45.8383C91.6766 46.3143 91.6766 47.1711 91.2006 47.7423L46.7427 93.1522C46.5523 93.4378 46.1716 93.533 45.7908 93.533ZM3.23679 46.7903L45.7908 90.2963L88.3447 46.7903L45.7908 3.28437L3.23679 46.7903Z" fill="white"/>
<path d="M80.2524 83.3459C79.8716 83.3459 79.586 83.1555 79.3004 82.8699L67.7814 71.0652C67.2102 70.5892 67.2102 69.7324 67.7814 69.1612C68.2574 68.6852 69.1142 68.6852 69.5902 69.1612L80.2524 80.0139L112.81 46.7895L80.2524 13.4698L46.7424 47.7414C46.2664 48.2174 45.4096 48.2174 44.8384 47.7414C44.3624 47.1702 44.3624 46.3135 44.8384 45.8375L79.3004 10.6138C79.7764 10.1378 80.6332 10.1378 81.2044 10.6138L115.571 45.8375C116.142 46.3135 116.142 47.1702 115.571 47.7414L81.2044 82.8699C80.9188 83.1555 80.538 83.3459 80.2524 83.3459Z" fill="white"/>
</svg>
