<svg width="70" height="70" viewBox="0 0 70 70" fill="none" xmlns="http://www.w3.org/2000/svg">
<rect opacity="0.4" width="70" height="70" rx="16" fill="#151951"/>
<path d="M45.4111 21H23.7805C21.4845 21 19.623 22.8615 19.623 25.1575V38.8425C19.623 41.1385 21.4845 43 23.7805 43H45.4111C47.707 43 49.5685 41.1385 49.5685 38.8425V25.1575C49.5685 22.8615 47.707 21 45.4111 21ZM30.0435 35.8438L24.2217 40.8105C23.811 41.161 23.1937 41.1123 22.8433 40.7012C22.4928 40.2906 22.5416 39.6732 22.9527 39.3228L28.7745 34.3561C29.1851 34.0056 29.8024 34.0544 30.1528 34.4655C30.5033 34.8761 30.4545 35.4934 30.0435 35.8438ZM34.5958 33.9556C33.8171 33.9537 33.0623 33.6949 32.4721 33.1845L32.4726 33.185L32.4707 33.1836C32.4712 33.1841 32.4717 33.1841 32.4721 33.1845L23.5395 25.4315C23.1312 25.0772 23.0878 24.4599 23.4416 24.0522C23.7958 23.644 24.4132 23.6005 24.8208 23.9543L33.756 31.7093C33.9469 31.8792 34.2616 32.0019 34.5958 32C34.9295 32.001 35.2389 31.8816 35.4403 31.7059L35.4447 31.7021L44.3707 23.9544C44.7784 23.6006 45.3958 23.644 45.75 24.0523C46.1038 24.4599 46.0604 25.0773 45.6521 25.4316L36.717 33.1869C36.1288 33.692 35.375 33.9546 34.5958 33.9556ZM46.3487 40.7012C45.9982 41.1123 45.3809 41.161 44.9704 40.8105L39.1486 35.8438C38.7375 35.4933 38.6888 34.8761 39.0392 34.4655C39.3896 34.0544 40.007 34.0057 40.4176 34.3561L46.2394 39.3228C46.6504 39.6732 46.6992 40.2906 46.3487 40.7012Z" fill="url(#paint0_linear_2031_43062)"/>
<defs>
<linearGradient id="paint0_linear_2031_43062" x1="29.9336" y1="24.0299" x2="51.3726" y2="34.949" gradientUnits="userSpaceOnUse">
<stop stop-color="#732CFF"/>
<stop offset="1" stop-color="#F46D6B"/>
</linearGradient>
</defs>
</svg>
