<svg width="375" height="205" viewBox="0 0 375 205" fill="none" xmlns="http://www.w3.org/2000/svg">
<path d="M352.821 42.4781C359.218 36.3823 359.463 26.2546 353.367 19.8572C347.271 13.4598 337.144 13.2153 330.746 19.311L352.821 42.4781ZM173.76 179.373L164.075 192.109L173.76 179.373ZM186.712 178.653L175.675 167.07L186.712 178.653ZM97.0716 129.986L87.6572 117.049L97.0716 129.986ZM108.996 130.118L99.3105 142.854L108.996 130.118ZM11.843 193.195L23.1937 204.472C22.755 204.914 23.0011 204.641 25.1062 202.994C26.7951 201.673 29.1222 199.894 31.9866 197.732C37.7026 193.418 45.3549 187.732 53.8857 181.435C70.9364 168.851 91.3532 153.936 106.486 142.923L97.0716 129.986L87.6572 117.049C72.4956 128.082 52.0146 143.044 34.8828 155.689C26.3224 162.007 18.5623 167.773 12.7096 172.19C9.78966 174.394 7.29328 176.3 5.3903 177.789C3.9035 178.952 1.78922 180.613 0.492291 181.919L11.843 193.195ZM108.996 130.118L99.3105 142.854L164.075 192.109L173.76 179.373L183.446 166.638L118.682 117.383L108.996 130.118ZM186.712 178.653L197.749 190.237L352.821 42.4781L341.784 30.8945L330.746 19.311L175.675 167.07L186.712 178.653ZM173.76 179.373L164.075 192.109C174.237 199.837 188.507 199.044 197.749 190.237L186.712 178.653L175.675 167.07C177.808 165.037 181.101 164.854 183.446 166.638L173.76 179.373ZM97.0716 129.986L106.486 142.923C104.326 144.495 101.406 144.448 99.3105 142.854L108.996 130.118L118.682 117.383C109.561 110.446 96.9542 110.284 87.6572 117.049L97.0716 129.986Z" fill="#212343"/>
<path d="M228.6 25.792L347.6 16.797C353.588 16.3444 358.622 21.2346 358.343 27.2334L353.154 138.739" stroke="#212343" stroke-width="32" stroke-linecap="round"/>
</svg>
