<svg width="36" height="37" viewBox="0 0 36 37" fill="none" xmlns="http://www.w3.org/2000/svg">
<path fill-rule="evenodd" clip-rule="evenodd" d="M18 36.7723C13.3833 36.7723 8.76662 34.9731 5.27016 31.4088C-1.75672 24.2122 -1.75672 12.5686 5.27016 5.37199C12.297 -1.79066 23.703 -1.79066 30.7298 5.37199C37.7567 12.5686 37.7567 24.2122 30.7298 31.4088C27.2334 34.9731 22.6167 36.7723 18 36.7723ZM18 0.958982C13.4512 0.958982 9.17397 2.75813 5.94908 6.05092C-0.704384 12.8741 -0.704384 23.9066 5.94908 30.6959C12.6025 37.5191 23.3975 37.5191 30.0509 30.6959C33.2758 27.4371 35.075 23.058 35.075 18.3734C35.075 13.7228 33.2758 9.34371 30.0509 6.05092C26.826 2.75813 22.5488 0.958982 18 0.958982Z" fill="#F46D6B"/>
<path d="M18.8489 36.8062C15.624 36.8062 12.3991 35.6181 9.85312 33.2079C7.23925 30.7637 5.74562 27.4031 5.57589 23.8048C5.4401 20.1725 6.69611 16.71 9.07235 14.0622C9.20813 13.9038 9.35524 13.7567 9.51365 13.6209C9.68338 13.4172 9.9889 13.4172 10.1586 13.6209C10.3623 13.7906 10.3623 14.1301 10.1586 14.2998C10.0455 14.4356 9.921 14.5714 9.78522 14.7072C7.54477 17.1852 6.39059 20.4101 6.52638 23.7708C6.66216 27.0975 8.08791 30.2206 10.4981 32.495C15.4882 37.2135 23.2958 36.8741 27.8786 31.7821C30.119 29.3041 31.2732 26.0792 31.1374 22.7185C31.0016 19.3918 29.6098 16.2687 27.1997 13.9943C25.1629 12.0933 22.6509 10.9391 19.9012 10.7015C19.6636 10.6676 19.4599 10.4639 19.4938 10.1923C19.4938 9.92075 19.7315 9.71707 20.003 9.75102C22.9224 9.98864 25.6381 11.2107 27.8446 13.2814C30.4245 15.7256 31.9521 19.0862 32.0879 22.6845C32.2237 26.3168 31.0016 29.7793 28.5914 32.4271C25.9776 35.3125 22.4132 36.8062 18.8489 36.8062Z" fill="#F46D6B"/>
<path fill-rule="evenodd" clip-rule="evenodd" d="M14.9786 12.9758C14.4355 12.9758 13.9263 12.7382 13.5529 12.3648C12.7721 11.584 12.7721 10.2601 13.5529 9.47932C14.3336 8.66461 15.6236 8.66461 16.4043 9.47932C17.1851 10.2601 17.1851 11.584 16.4043 12.3648C15.997 12.7382 15.5217 12.9758 14.9786 12.9758ZM14.9786 9.85273C14.707 9.85273 14.4355 9.95457 14.2318 10.1582C13.8244 10.5656 13.8244 11.2445 14.2318 11.6858C14.6391 12.0932 15.3181 12.0932 15.7254 11.6858C16.1328 11.2445 16.1328 10.5656 15.7254 10.1582C15.5217 9.95457 15.2502 9.85273 14.9786 9.85273Z" fill="#F46D6B"/>
</svg>
