<svg width="22" height="23" viewBox="0 0 22 23" fill="none" xmlns="http://www.w3.org/2000/svg">
<path d="M1.18078 9.17827C7.34947 8.37002 8.3787 3.42721 8.12223 1.05683C9.38812 6.57461 13.2835 7.9661 15.7007 8.00787C15.9767 7.98076 16.2639 7.96498 16.5627 7.96139C16.3066 7.99577 16.0163 8.01332 15.7007 8.00787C10.0976 8.55816 9.10656 13.776 9.33911 16.4387C8.36547 10.0576 3.49454 8.93963 1.18078 9.17827Z" fill="white" fill-opacity="0.8"/>
<path d="M12.5987 18.2358C15.9969 17.7905 16.5639 15.0677 16.4226 13.7619C17.1199 16.8015 19.2658 17.568 20.5973 17.591C20.7494 17.5761 20.9076 17.5674 21.0722 17.5654C20.9311 17.5844 20.7712 17.594 20.5973 17.591C17.5107 17.8942 16.9648 20.7685 17.0929 22.2354C16.5566 18.7202 13.8733 18.1043 12.5987 18.2358Z" fill="white" fill-opacity="0.8"/>
</svg>
