<svg width="530" height="307" viewBox="0 0 530 307" fill="none" xmlns="http://www.w3.org/2000/svg">
<rect x="0.25" y="0.25" width="529.5" height="306.5" rx="19.75" fill="#1E1F40" stroke="#787996" stroke-width="0.5"/>
<path d="M249.369 189.449V204H247.172V189.449H249.369ZM253.816 197.525V204H251.706V193.082H253.757V194.879H253.904C254.151 194.286 254.538 193.818 255.066 193.473C255.593 193.121 256.27 192.945 257.097 192.945C257.839 192.945 258.487 193.102 259.04 193.414C259.6 193.72 260.033 194.179 260.339 194.791C260.652 195.403 260.808 196.161 260.808 197.066V204H258.699V197.32C258.699 196.533 258.49 195.914 258.074 195.465C257.657 195.009 257.091 194.781 256.374 194.781C255.886 194.781 255.447 194.892 255.056 195.113C254.672 195.328 254.369 195.637 254.148 196.041C253.926 196.445 253.816 196.939 253.816 197.525ZM268.057 193.082V194.791H262.1V193.082H268.057ZM263.692 190.484H265.811V200.797C265.811 201.298 265.915 201.666 266.124 201.9C266.332 202.128 266.667 202.242 267.13 202.242C267.24 202.242 267.357 202.236 267.481 202.223C267.611 202.21 267.742 202.19 267.872 202.164L268.272 203.922C268.057 203.993 267.823 204.049 267.569 204.088C267.315 204.127 267.061 204.146 266.807 204.146C265.863 204.146 265.108 203.883 264.542 203.355C263.975 202.822 263.692 202.112 263.692 201.227V190.484ZM274.301 204.225C273.233 204.225 272.309 203.993 271.527 203.531C270.746 203.069 270.144 202.418 269.721 201.578C269.304 200.732 269.096 199.745 269.096 198.619C269.096 197.499 269.301 196.513 269.711 195.66C270.128 194.807 270.71 194.143 271.459 193.668C272.214 193.186 273.1 192.945 274.115 192.945C274.734 192.945 275.333 193.046 275.912 193.248C276.492 193.45 277.012 193.769 277.475 194.205C277.937 194.641 278.302 195.208 278.568 195.904C278.842 196.601 278.979 197.441 278.979 198.424V199.186H270.297V197.594H277.885L276.899 198.121C276.899 197.451 276.794 196.858 276.586 196.344C276.378 195.829 276.065 195.429 275.649 195.143C275.238 194.85 274.727 194.703 274.115 194.703C273.503 194.703 272.979 194.85 272.543 195.143C272.113 195.436 271.785 195.823 271.557 196.305C271.329 196.786 271.215 197.314 271.215 197.887V198.971C271.215 199.719 271.345 200.354 271.606 200.875C271.866 201.396 272.227 201.793 272.69 202.066C273.158 202.34 273.702 202.477 274.32 202.477C274.724 202.477 275.089 202.418 275.414 202.301C275.746 202.184 276.033 202.008 276.274 201.773C276.514 201.539 276.697 201.249 276.82 200.904L278.832 201.285C278.669 201.871 278.383 202.385 277.973 202.828C277.563 203.271 277.045 203.616 276.42 203.863C275.802 204.104 275.095 204.225 274.301 204.225ZM285.154 208.316C283.852 208.316 282.826 208.072 282.078 207.584C281.329 207.096 280.811 206.516 280.525 205.846L282.341 205.094C282.471 205.302 282.644 205.523 282.859 205.758C283.08 205.992 283.376 206.191 283.748 206.354C284.119 206.516 284.597 206.598 285.183 206.598C285.984 206.598 286.648 206.402 287.175 206.012C287.703 205.628 287.966 205.009 287.966 204.156V202.018H287.82C287.703 202.245 287.524 202.503 287.283 202.789C287.042 203.069 286.713 203.313 286.296 203.521C285.88 203.73 285.336 203.834 284.665 203.834C283.806 203.834 283.031 203.632 282.341 203.229C281.658 202.818 281.111 202.219 280.701 201.432C280.297 200.637 280.095 199.661 280.095 198.502C280.095 197.343 280.294 196.35 280.691 195.523C281.095 194.69 281.641 194.052 282.331 193.609C283.022 193.167 283.806 192.945 284.685 192.945C285.362 192.945 285.909 193.059 286.326 193.287C286.749 193.508 287.078 193.769 287.312 194.068C287.546 194.368 287.729 194.632 287.859 194.859H288.015V193.082H290.076V204.244C290.076 205.182 289.858 205.95 289.421 206.549C288.992 207.148 288.406 207.59 287.664 207.877C286.921 208.17 286.085 208.316 285.154 208.316ZM285.134 202.066C286.052 202.066 286.755 201.751 287.244 201.119C287.738 200.481 287.986 199.599 287.986 198.473C287.986 197.737 287.878 197.092 287.664 196.539C287.449 195.979 287.13 195.543 286.706 195.23C286.283 194.911 285.759 194.752 285.134 194.752C284.496 194.752 283.962 194.918 283.533 195.25C283.109 195.576 282.79 196.021 282.576 196.588C282.361 197.148 282.253 197.776 282.253 198.473C282.253 199.182 282.361 199.811 282.576 200.357C282.79 200.898 283.113 201.318 283.542 201.617C283.979 201.917 284.509 202.066 285.134 202.066ZM292.247 204V193.082H294.288V194.83H294.405C294.607 194.244 294.958 193.782 295.46 193.443C295.968 193.098 296.54 192.926 297.179 192.926C297.309 192.926 297.462 192.932 297.638 192.945C297.82 192.952 297.966 192.962 298.077 192.975V195.006C297.992 194.98 297.839 194.954 297.618 194.928C297.403 194.902 297.185 194.889 296.964 194.889C296.462 194.889 296.013 194.996 295.616 195.211C295.225 195.419 294.916 195.709 294.688 196.08C294.467 196.445 294.356 196.868 294.356 197.35V204H292.247ZM302.309 204.234C301.619 204.234 300.994 204.107 300.434 203.854C299.874 203.593 299.431 203.215 299.106 202.721C298.78 202.226 298.617 201.624 298.617 200.914C298.617 200.296 298.735 199.791 298.969 199.4C299.21 199.003 299.532 198.688 299.936 198.453C300.339 198.219 300.789 198.043 301.283 197.926C301.778 197.809 302.286 197.717 302.807 197.652C303.464 197.581 303.995 197.519 304.399 197.467C304.802 197.415 305.095 197.333 305.278 197.223C305.466 197.105 305.561 196.92 305.561 196.666V196.617C305.561 195.999 305.385 195.52 305.033 195.182C304.688 194.843 304.174 194.674 303.49 194.674C302.781 194.674 302.218 194.83 301.801 195.143C301.391 195.449 301.108 195.797 300.951 196.188L298.949 195.729C299.19 195.064 299.539 194.531 299.994 194.127C300.457 193.717 300.984 193.417 301.576 193.229C302.175 193.04 302.8 192.945 303.451 192.945C303.888 192.945 304.35 192.997 304.838 193.102C305.326 193.199 305.785 193.385 306.215 193.658C306.651 193.925 307.006 194.309 307.279 194.811C307.553 195.312 307.69 195.96 307.69 196.754V204H305.61V202.506H305.531C305.401 202.773 305.196 203.04 304.916 203.307C304.643 203.574 304.291 203.795 303.861 203.971C303.432 204.146 302.914 204.234 302.309 204.234ZM302.768 202.535C303.36 202.535 303.865 202.421 304.281 202.193C304.698 201.959 305.017 201.653 305.238 201.275C305.46 200.898 305.57 200.497 305.57 200.074V198.658C305.492 198.73 305.346 198.798 305.131 198.863C304.916 198.928 304.672 198.984 304.399 199.029C304.125 199.075 303.858 199.117 303.598 199.156C303.337 199.189 303.119 199.215 302.944 199.234C302.533 199.293 302.159 199.384 301.82 199.508C301.482 199.625 301.208 199.801 301 200.035C300.798 200.263 300.697 200.566 300.697 200.943C300.697 201.471 300.893 201.868 301.283 202.135C301.674 202.402 302.169 202.535 302.768 202.535ZM314.949 193.082V194.791H308.992V193.082H314.949ZM310.584 190.484H312.703V200.797C312.703 201.298 312.807 201.666 313.015 201.9C313.223 202.128 313.559 202.242 314.021 202.242C314.132 202.242 314.249 202.236 314.373 202.223C314.503 202.21 314.633 202.19 314.763 202.164L315.164 203.922C314.949 203.993 314.714 204.049 314.46 204.088C314.207 204.127 313.953 204.146 313.699 204.146C312.755 204.146 312 203.883 311.433 203.355C310.867 202.822 310.584 202.112 310.584 201.227V190.484ZM316.612 204V193.082H318.722V204H316.612ZM317.677 191.402C317.306 191.402 316.99 191.279 316.729 191.031C316.469 190.784 316.339 190.488 316.339 190.143C316.339 189.791 316.469 189.492 316.729 189.244C316.99 188.997 317.306 188.873 317.677 188.873C318.041 188.873 318.354 188.997 318.614 189.244C318.881 189.492 319.015 189.791 319.015 190.143C319.015 190.488 318.881 190.784 318.614 191.031C318.354 191.279 318.041 191.402 317.677 191.402ZM325.473 204.225C324.451 204.225 323.556 203.99 322.787 203.521C322.026 203.053 321.433 202.395 321.01 201.549C320.593 200.702 320.385 199.719 320.385 198.6C320.385 197.467 320.593 196.477 321.01 195.631C321.433 194.778 322.026 194.117 322.787 193.648C323.556 193.18 324.451 192.945 325.473 192.945C326.502 192.945 327.397 193.18 328.158 193.648C328.92 194.117 329.513 194.778 329.936 195.631C330.359 196.477 330.571 197.467 330.571 198.6C330.571 199.719 330.359 200.702 329.936 201.549C329.513 202.395 328.92 203.053 328.158 203.521C327.397 203.99 326.502 204.225 325.473 204.225ZM325.473 202.438C326.143 202.438 326.697 202.262 327.133 201.91C327.569 201.559 327.892 201.093 328.1 200.514C328.315 199.928 328.422 199.29 328.422 198.6C328.422 197.896 328.315 197.252 328.1 196.666C327.892 196.08 327.569 195.611 327.133 195.26C326.697 194.908 326.143 194.732 325.473 194.732C324.809 194.732 324.259 194.908 323.823 195.26C323.393 195.611 323.071 196.08 322.856 196.666C322.641 197.252 322.533 197.896 322.533 198.6C322.533 199.29 322.641 199.928 322.856 200.514C323.071 201.093 323.393 201.559 323.823 201.91C324.259 202.262 324.809 202.438 325.473 202.438ZM334.353 197.525V204H332.244V193.082H334.295V194.879H334.441C334.688 194.286 335.076 193.818 335.603 193.473C336.13 193.121 336.808 192.945 337.634 192.945C338.377 192.945 339.024 193.102 339.578 193.414C340.138 193.72 340.571 194.179 340.877 194.791C341.189 195.403 341.345 196.161 341.345 197.066V204H339.236V197.32C339.236 196.533 339.028 195.914 338.611 195.465C338.194 195.009 337.628 194.781 336.912 194.781C336.423 194.781 335.984 194.892 335.593 195.113C335.209 195.328 334.907 195.637 334.685 196.041C334.464 196.445 334.353 196.939 334.353 197.525ZM351.274 204.234C350.584 204.234 349.959 204.107 349.399 203.854C348.839 203.593 348.396 203.215 348.071 202.721C347.745 202.226 347.582 201.624 347.582 200.914C347.582 200.296 347.7 199.791 347.934 199.4C348.175 199.003 348.497 198.688 348.901 198.453C349.304 198.219 349.754 198.043 350.248 197.926C350.743 197.809 351.251 197.717 351.772 197.652C352.429 197.581 352.96 197.519 353.364 197.467C353.767 197.415 354.06 197.333 354.243 197.223C354.431 197.105 354.526 196.92 354.526 196.666V196.617C354.526 195.999 354.35 195.52 353.998 195.182C353.653 194.843 353.139 194.674 352.455 194.674C351.746 194.674 351.183 194.83 350.766 195.143C350.356 195.449 350.073 195.797 349.916 196.188L347.914 195.729C348.155 195.064 348.504 194.531 348.959 194.127C349.422 193.717 349.949 193.417 350.541 193.229C351.14 193.04 351.765 192.945 352.416 192.945C352.853 192.945 353.315 192.997 353.803 193.102C354.291 193.199 354.75 193.385 355.18 193.658C355.616 193.925 355.971 194.309 356.244 194.811C356.518 195.312 356.655 195.96 356.655 196.754V204H354.575V202.506H354.496C354.366 202.773 354.161 203.04 353.881 203.307C353.608 203.574 353.256 203.795 352.826 203.971C352.397 204.146 351.879 204.234 351.274 204.234ZM351.733 202.535C352.325 202.535 352.83 202.421 353.246 202.193C353.663 201.959 353.982 201.653 354.203 201.275C354.425 200.898 354.535 200.497 354.535 200.074V198.658C354.457 198.73 354.311 198.798 354.096 198.863C353.881 198.928 353.637 198.984 353.364 199.029C353.09 199.075 352.823 199.117 352.563 199.156C352.302 199.189 352.084 199.215 351.909 199.234C351.498 199.293 351.124 199.384 350.785 199.508C350.447 199.625 350.173 199.801 349.965 200.035C349.763 200.263 349.662 200.566 349.662 200.943C349.662 201.471 349.858 201.868 350.248 202.135C350.639 202.402 351.134 202.535 351.733 202.535ZM367.761 193.082L363.816 204H361.531L357.576 193.082H359.851L362.625 201.5H362.742L365.496 193.082H367.761ZM371.905 204.234C371.215 204.234 370.59 204.107 370.03 203.854C369.47 203.593 369.028 203.215 368.702 202.721C368.377 202.226 368.214 201.624 368.214 200.914C368.214 200.296 368.331 199.791 368.565 199.4C368.806 199.003 369.129 198.688 369.532 198.453C369.936 198.219 370.385 198.043 370.88 197.926C371.375 197.809 371.883 197.717 372.403 197.652C373.061 197.581 373.592 197.519 373.995 197.467C374.399 197.415 374.692 197.333 374.874 197.223C375.063 197.105 375.157 196.92 375.157 196.666V196.617C375.157 195.999 374.981 195.52 374.63 195.182C374.285 194.843 373.771 194.674 373.087 194.674C372.377 194.674 371.814 194.83 371.397 195.143C370.987 195.449 370.704 195.797 370.548 196.188L368.546 195.729C368.787 195.064 369.135 194.531 369.591 194.127C370.053 193.717 370.58 193.417 371.173 193.229C371.772 193.04 372.397 192.945 373.048 192.945C373.484 192.945 373.946 192.997 374.435 193.102C374.923 193.199 375.382 193.385 375.812 193.658C376.248 193.925 376.603 194.309 376.876 194.811C377.149 195.312 377.286 195.96 377.286 196.754V204H375.206V202.506H375.128C374.998 202.773 374.793 203.04 374.513 203.307C374.239 203.574 373.888 203.795 373.458 203.971C373.028 204.146 372.511 204.234 371.905 204.234ZM372.364 202.535C372.957 202.535 373.461 202.421 373.878 202.193C374.295 201.959 374.614 201.653 374.835 201.275C375.056 200.898 375.167 200.497 375.167 200.074V198.658C375.089 198.73 374.942 198.798 374.728 198.863C374.513 198.928 374.269 198.984 373.995 199.029C373.722 199.075 373.455 199.117 373.194 199.156C372.934 199.189 372.716 199.215 372.54 199.234C372.13 199.293 371.756 199.384 371.417 199.508C371.078 199.625 370.805 199.801 370.597 200.035C370.395 200.263 370.294 200.566 370.294 200.943C370.294 201.471 370.489 201.868 370.88 202.135C371.271 202.402 371.765 202.535 372.364 202.535ZM379.467 204V193.082H381.577V204H379.467ZM380.532 191.402C380.161 191.402 379.845 191.279 379.584 191.031C379.324 190.784 379.194 190.488 379.194 190.143C379.194 189.791 379.324 189.492 379.584 189.244C379.845 188.997 380.161 188.873 380.532 188.873C380.896 188.873 381.209 188.997 381.469 189.244C381.736 189.492 381.87 189.791 381.87 190.143C381.87 190.488 381.736 190.784 381.469 191.031C381.209 191.279 380.896 191.402 380.532 191.402ZM385.857 189.449V204H383.748V189.449H385.857ZM391.193 204.234C390.502 204.234 389.877 204.107 389.318 203.854C388.758 203.593 388.315 203.215 387.989 202.721C387.664 202.226 387.501 201.624 387.501 200.914C387.501 200.296 387.618 199.791 387.853 199.4C388.094 199.003 388.416 198.688 388.819 198.453C389.223 198.219 389.672 198.043 390.167 197.926C390.662 197.809 391.17 197.717 391.691 197.652C392.348 197.581 392.879 197.519 393.282 197.467C393.686 197.415 393.979 197.333 394.161 197.223C394.35 197.105 394.444 196.92 394.444 196.666V196.617C394.444 195.999 394.269 195.52 393.917 195.182C393.572 194.843 393.058 194.674 392.374 194.674C391.665 194.674 391.101 194.83 390.685 195.143C390.275 195.449 389.991 195.797 389.835 196.188L387.833 195.729C388.074 195.064 388.422 194.531 388.878 194.127C389.34 193.717 389.868 193.417 390.46 193.229C391.059 193.04 391.684 192.945 392.335 192.945C392.771 192.945 393.234 192.997 393.722 193.102C394.21 193.199 394.669 193.385 395.099 193.658C395.535 193.925 395.89 194.309 396.163 194.811C396.437 195.312 396.573 195.96 396.573 196.754V204H394.493V202.506H394.415C394.285 202.773 394.08 203.04 393.8 203.307C393.526 203.574 393.175 203.795 392.745 203.971C392.316 204.146 391.798 204.234 391.193 204.234ZM391.651 202.535C392.244 202.535 392.748 202.421 393.165 202.193C393.582 201.959 393.901 201.653 394.122 201.275C394.344 200.898 394.454 200.497 394.454 200.074V198.658C394.376 198.73 394.23 198.798 394.015 198.863C393.8 198.928 393.556 198.984 393.282 199.029C393.009 199.075 392.742 199.117 392.482 199.156C392.221 199.189 392.003 199.215 391.827 199.234C391.417 199.293 391.043 199.384 390.704 199.508C390.366 199.625 390.092 199.801 389.884 200.035C389.682 200.263 389.581 200.566 389.581 200.943C389.581 201.471 389.776 201.868 390.167 202.135C390.558 202.402 391.053 202.535 391.651 202.535ZM404.135 204.215C403.478 204.215 402.937 204.104 402.514 203.883C402.097 203.655 401.769 203.391 401.528 203.092C401.293 202.792 401.111 202.529 400.981 202.301H400.805V204H398.754V189.449H400.864V194.859H400.981C401.111 194.632 401.29 194.368 401.518 194.068C401.752 193.769 402.078 193.508 402.495 193.287C402.911 193.059 403.455 192.945 404.125 192.945C405.004 192.945 405.786 193.167 406.469 193.609C407.159 194.052 407.703 194.693 408.1 195.533C408.497 196.373 408.696 197.385 408.696 198.57C408.696 199.742 408.5 200.751 408.11 201.598C407.719 202.438 407.179 203.085 406.489 203.541C405.805 203.99 405.021 204.215 404.135 204.215ZM403.676 202.408C404.308 202.408 404.835 202.239 405.258 201.9C405.681 201.562 406 201.103 406.215 200.523C406.437 199.938 406.547 199.28 406.547 198.551C406.547 197.828 406.44 197.18 406.225 196.607C406.01 196.035 405.691 195.582 405.268 195.25C404.845 194.918 404.314 194.752 403.676 194.752C403.058 194.752 402.537 194.911 402.114 195.23C401.691 195.543 401.368 195.986 401.147 196.559C400.932 197.125 400.825 197.789 400.825 198.551C400.825 199.312 400.935 199.983 401.157 200.562C401.378 201.142 401.7 201.594 402.124 201.92C402.553 202.245 403.071 202.408 403.676 202.408ZM412.488 189.449V204H410.379V189.449H412.488ZM419.357 204.225C418.289 204.225 417.364 203.993 416.583 203.531C415.802 203.069 415.2 202.418 414.777 201.578C414.36 200.732 414.152 199.745 414.152 198.619C414.152 197.499 414.357 196.513 414.767 195.66C415.183 194.807 415.766 194.143 416.515 193.668C417.27 193.186 418.155 192.945 419.171 192.945C419.79 192.945 420.389 193.046 420.968 193.248C421.547 193.45 422.068 193.769 422.53 194.205C422.993 194.641 423.357 195.208 423.624 195.904C423.898 196.601 424.034 197.441 424.034 198.424V199.186H415.353V197.594H422.941L421.954 198.121C421.954 197.451 421.85 196.858 421.642 196.344C421.433 195.829 421.121 195.429 420.704 195.143C420.294 194.85 419.783 194.703 419.171 194.703C418.559 194.703 418.035 194.85 417.599 195.143C417.169 195.436 416.84 195.823 416.613 196.305C416.385 196.786 416.271 197.314 416.271 197.887V198.971C416.271 199.719 416.401 200.354 416.661 200.875C416.922 201.396 417.283 201.793 417.745 202.066C418.214 202.34 418.758 202.477 419.376 202.477C419.78 202.477 420.144 202.418 420.47 202.301C420.802 202.184 421.088 202.008 421.329 201.773C421.57 201.539 421.752 201.249 421.876 200.904L423.888 201.285C423.725 201.871 423.439 202.385 423.029 202.828C422.618 203.271 422.101 203.616 421.476 203.863C420.857 204.104 420.151 204.225 419.357 204.225Z" fill="white"/>
<path d="M304.903 134.536V160H301.109V138.398H300.938L294.889 142.38V138.689L301.212 134.536H304.903ZM317.866 160.342C315.906 160.342 314.225 159.829 312.824 158.804C311.434 157.778 310.369 156.297 309.628 154.36C308.899 152.412 308.535 150.054 308.535 147.285C308.535 144.528 308.905 142.175 309.645 140.227C310.386 138.267 311.451 136.775 312.841 135.75C314.243 134.713 315.917 134.194 317.866 134.194C319.825 134.194 321.5 134.713 322.89 135.75C324.291 136.775 325.357 138.267 326.086 140.227C326.826 142.175 327.197 144.528 327.197 147.285C327.197 150.054 326.832 152.412 326.103 154.36C325.374 156.297 324.314 157.778 322.924 158.804C321.534 159.829 319.848 160.342 317.866 160.342ZM317.866 157.061C319.062 157.061 320.07 156.679 320.891 155.916C321.711 155.152 322.337 154.041 322.77 152.583C323.203 151.113 323.42 149.347 323.42 147.285C323.42 145.212 323.203 143.446 322.77 141.987C322.337 140.518 321.711 139.401 320.891 138.638C320.07 137.863 319.062 137.476 317.866 137.476C316.1 137.476 314.732 138.336 313.764 140.056C312.807 141.765 312.329 144.175 312.329 147.285C312.329 149.347 312.545 151.113 312.978 152.583C313.411 154.041 314.038 155.152 314.858 155.916C315.69 156.679 316.692 157.061 317.866 157.061ZM339.373 160.342C337.413 160.342 335.733 159.829 334.331 158.804C332.941 157.778 331.876 156.297 331.136 154.36C330.406 152.412 330.042 150.054 330.042 147.285C330.042 144.528 330.412 142.175 331.153 140.227C331.893 138.267 332.958 136.775 334.348 135.75C335.75 134.713 337.425 134.194 339.373 134.194C341.332 134.194 343.007 134.713 344.397 135.75C345.799 136.775 346.864 138.267 347.593 140.227C348.334 142.175 348.704 144.528 348.704 147.285C348.704 150.054 348.339 152.412 347.61 154.36C346.881 156.297 345.821 157.778 344.431 158.804C343.041 159.829 341.355 160.342 339.373 160.342ZM339.373 157.061C340.569 157.061 341.577 156.679 342.398 155.916C343.218 155.152 343.845 154.041 344.278 152.583C344.711 151.113 344.927 149.347 344.927 147.285C344.927 145.212 344.711 143.446 344.278 141.987C343.845 140.518 343.218 139.401 342.398 138.638C341.577 137.863 340.569 137.476 339.373 137.476C337.607 137.476 336.24 138.336 335.271 140.056C334.314 141.765 333.836 144.175 333.836 147.285C333.836 149.347 334.052 151.113 334.485 152.583C334.918 154.041 335.545 155.152 336.365 155.916C337.197 156.679 338.199 157.061 339.373 157.061ZM359.564 158.376V141.577H362.897V158.376H359.564ZM352.814 151.66V148.293H369.63V151.66H352.814Z" fill="white"/>
<path d="M211.045 189.954C210.276 168.977 219.011 121.018 260.108 97" stroke="#732CFF" stroke-width="17" stroke-linecap="round"/>
<path d="M277.139 85.2751C300.273 73.7181 357.039 59.0926 399.031 93.0461" stroke="#F46D6B" stroke-width="17" stroke-linecap="round"/>
<path d="M416 107C430.031 121.469 447.569 138.569 453.654 188.554" stroke="url(#paint0_linear_3003_45221)" stroke-width="17" stroke-linecap="round"/>
<circle cx="152" cy="263" r="5" fill="#732CFF"/>
<path d="M166.168 268.5V257.3H169.608C170.909 257.3 171.987 257.529 172.84 257.988C173.693 258.447 174.323 259.097 174.728 259.94C175.144 260.772 175.352 261.764 175.352 262.916C175.352 264.068 175.144 265.06 174.728 265.892C174.323 266.724 173.693 267.369 172.84 267.828C171.997 268.276 170.92 268.5 169.608 268.5H166.168ZM167.768 267.156H169.544C170.579 267.156 171.4 266.985 172.008 266.644C172.616 266.303 173.048 265.817 173.304 265.188C173.571 264.548 173.704 263.791 173.704 262.916C173.704 262.031 173.571 261.268 173.304 260.628C173.048 259.988 172.616 259.497 172.008 259.156C171.4 258.815 170.579 258.644 169.544 258.644H167.768V267.156ZM180.045 268.692C179.416 268.692 178.867 268.564 178.397 268.308C177.939 268.052 177.581 267.668 177.325 267.156C177.08 266.644 176.957 265.999 176.957 265.22V260.436H178.557V265.044C178.557 265.801 178.723 266.372 179.053 266.756C179.384 267.14 179.859 267.332 180.477 267.332C180.893 267.332 181.267 267.231 181.597 267.028C181.939 266.825 182.205 266.532 182.397 266.148C182.589 265.764 182.685 265.295 182.685 264.74V260.436H184.285V268.5H182.861L182.749 267.124C182.504 267.615 182.147 267.999 181.677 268.276C181.208 268.553 180.664 268.692 180.045 268.692ZM186.364 268.5V260.436H187.804L187.916 261.572C188.172 261.156 188.513 260.831 188.94 260.596C189.367 260.361 189.847 260.244 190.38 260.244C190.785 260.244 191.153 260.303 191.484 260.42C191.815 260.527 192.108 260.692 192.364 260.916C192.62 261.14 192.828 261.417 192.988 261.748C193.276 261.279 193.66 260.911 194.14 260.644C194.631 260.377 195.148 260.244 195.692 260.244C196.343 260.244 196.903 260.377 197.372 260.644C197.841 260.9 198.199 261.289 198.444 261.812C198.689 262.324 198.812 262.964 198.812 263.732V268.5H197.228V263.892C197.228 263.145 197.073 262.58 196.764 262.196C196.465 261.812 196.023 261.62 195.436 261.62C195.041 261.62 194.689 261.721 194.38 261.924C194.071 262.127 193.825 262.42 193.644 262.804C193.473 263.188 193.388 263.657 193.388 264.212V268.5H191.788V263.892C191.788 263.145 191.633 262.58 191.324 262.196C191.025 261.812 190.583 261.62 189.996 261.62C189.623 261.62 189.281 261.721 188.972 261.924C188.663 262.127 188.417 262.42 188.236 262.804C188.055 263.188 187.964 263.657 187.964 264.212V268.5H186.364ZM200.768 268.5V260.436H202.208L202.32 261.572C202.576 261.156 202.917 260.831 203.344 260.596C203.77 260.361 204.25 260.244 204.784 260.244C205.189 260.244 205.557 260.303 205.888 260.42C206.218 260.527 206.512 260.692 206.768 260.916C207.024 261.14 207.232 261.417 207.392 261.748C207.68 261.279 208.064 260.911 208.544 260.644C209.034 260.377 209.552 260.244 210.096 260.244C210.746 260.244 211.306 260.377 211.776 260.644C212.245 260.9 212.602 261.289 212.848 261.812C213.093 262.324 213.216 262.964 213.216 263.732V268.5H211.632V263.892C211.632 263.145 211.477 262.58 211.168 262.196C210.869 261.812 210.426 261.62 209.84 261.62C209.445 261.62 209.093 261.721 208.784 261.924C208.474 262.127 208.229 262.42 208.048 262.804C207.877 263.188 207.792 263.657 207.792 264.212V268.5H206.192V263.892C206.192 263.145 206.037 262.58 205.728 262.196C205.429 261.812 204.986 261.62 204.4 261.62C204.026 261.62 203.685 261.721 203.376 261.924C203.066 262.127 202.821 262.42 202.64 262.804C202.458 263.188 202.368 263.657 202.368 264.212V268.5H200.768ZM215.849 272.02L217.817 267.604H217.353L214.169 260.436H215.897L218.425 266.292L220.969 260.436H222.649L217.529 272.02H215.849Z" fill="white"/>
<circle cx="293" cy="263" r="5" fill="#FE6F4C"/>
<path d="M307.516 257.359L310.969 267.156H311.109L314.562 257.359H316.031L311.766 269H310.312L306.031 257.359H307.516ZM316.922 269V260.266H318.203V261.594H318.297C318.458 261.161 318.747 260.812 319.164 260.547C319.586 260.276 320.057 260.141 320.578 260.141C320.677 260.141 320.799 260.143 320.945 260.148C321.091 260.148 321.203 260.151 321.281 260.156V261.516C321.234 261.505 321.13 261.49 320.969 261.469C320.807 261.448 320.635 261.438 320.453 261.438C320.031 261.438 319.654 261.526 319.32 261.703C318.987 261.88 318.724 262.122 318.531 262.43C318.344 262.737 318.25 263.089 318.25 263.484V269H316.922ZM325.391 269.188C324.604 269.188 323.914 269 323.32 268.625C322.727 268.25 322.263 267.724 321.93 267.047C321.602 266.37 321.438 265.583 321.438 264.688C321.438 263.776 321.602 262.982 321.93 262.305C322.263 261.622 322.727 261.094 323.32 260.719C323.914 260.344 324.604 260.156 325.391 260.156C326.182 260.156 326.875 260.344 327.469 260.719C328.062 261.094 328.526 261.622 328.859 262.305C329.193 262.982 329.359 263.776 329.359 264.688C329.359 265.583 329.193 266.37 328.859 267.047C328.526 267.724 328.062 268.25 327.469 268.625C326.875 269 326.182 269.188 325.391 269.188ZM325.391 267.984C325.995 267.984 326.49 267.831 326.875 267.523C327.26 267.216 327.547 266.812 327.734 266.312C327.922 265.807 328.016 265.266 328.016 264.688C328.016 264.099 327.922 263.552 327.734 263.047C327.547 262.542 327.26 262.135 326.875 261.828C326.49 261.516 325.995 261.359 325.391 261.359C324.797 261.359 324.307 261.516 323.922 261.828C323.536 262.135 323.25 262.542 323.062 263.047C322.875 263.552 322.781 264.099 322.781 264.688C322.781 265.266 322.875 265.807 323.062 266.312C323.25 266.812 323.536 267.216 323.922 267.523C324.307 267.831 324.797 267.984 325.391 267.984ZM331.297 260.266L333.375 263.844L335.469 260.266H337.016L334.203 264.641L337.016 269H335.469L333.375 265.609L331.297 269H329.75L332.516 264.641L329.75 260.266H331.297ZM342.172 269.188C341.615 269.188 341.167 269.094 340.828 268.906C340.49 268.714 340.229 268.497 340.047 268.258C339.865 268.013 339.724 267.812 339.625 267.656H339.469V269H338.188V257.359H339.516V261.656H339.625C339.724 261.505 339.862 261.312 340.039 261.078C340.216 260.839 340.471 260.625 340.805 260.438C341.138 260.25 341.589 260.156 342.156 260.156C342.891 260.156 343.536 260.341 344.094 260.711C344.651 261.076 345.086 261.596 345.398 262.273C345.716 262.945 345.875 263.74 345.875 264.656C345.875 265.578 345.719 266.38 345.406 267.062C345.094 267.74 344.659 268.263 344.102 268.633C343.544 269.003 342.901 269.188 342.172 269.188ZM342 267.984C342.557 267.984 343.023 267.836 343.398 267.539C343.773 267.237 344.055 266.833 344.242 266.328C344.435 265.823 344.531 265.26 344.531 264.641C344.531 264.026 344.438 263.471 344.25 262.977C344.062 262.482 343.781 262.089 343.406 261.797C343.036 261.505 342.568 261.359 342 261.359C341.453 261.359 340.995 261.497 340.625 261.773C340.255 262.044 339.974 262.427 339.781 262.922C339.594 263.411 339.5 263.984 339.5 264.641C339.5 265.297 339.596 265.878 339.789 266.383C339.982 266.883 340.263 267.276 340.633 267.562C341.008 267.844 341.464 267.984 342 267.984ZM350.703 269.188C349.917 269.188 349.227 269 348.633 268.625C348.039 268.25 347.576 267.724 347.242 267.047C346.914 266.37 346.75 265.583 346.75 264.688C346.75 263.776 346.914 262.982 347.242 262.305C347.576 261.622 348.039 261.094 348.633 260.719C349.227 260.344 349.917 260.156 350.703 260.156C351.495 260.156 352.188 260.344 352.781 260.719C353.375 261.094 353.839 261.622 354.172 262.305C354.505 262.982 354.672 263.776 354.672 264.688C354.672 265.583 354.505 266.37 354.172 267.047C353.839 267.724 353.375 268.25 352.781 268.625C352.188 269 351.495 269.188 350.703 269.188ZM350.703 267.984C351.307 267.984 351.802 267.831 352.188 267.523C352.573 267.216 352.859 266.812 353.047 266.312C353.234 265.807 353.328 265.266 353.328 264.688C353.328 264.099 353.234 263.552 353.047 263.047C352.859 262.542 352.573 262.135 352.188 261.828C351.802 261.516 351.307 261.359 350.703 261.359C350.109 261.359 349.62 261.516 349.234 261.828C348.849 262.135 348.562 262.542 348.375 263.047C348.188 263.552 348.094 264.099 348.094 264.688C348.094 265.266 348.188 265.807 348.375 266.312C348.562 266.812 348.849 267.216 349.234 267.523C349.62 267.831 350.109 267.984 350.703 267.984Z" fill="white"/>
<circle cx="426" cy="263" r="5" fill="url(#paint1_linear_3003_45221)"/>
<path d="M440.168 268.5V257.3H441.768V262.164L446.248 257.3H448.248L444.088 261.748L448.328 268.5H446.376L442.952 262.996L441.768 264.26V268.5H440.168ZM454.079 268.692C453.642 268.692 453.242 268.628 452.879 268.5C452.527 268.383 452.218 268.217 451.951 268.004C451.684 267.791 451.46 267.545 451.279 267.268L451.119 268.5H449.679V256.98H451.279V261.7C451.535 261.295 451.892 260.953 452.351 260.676C452.82 260.388 453.396 260.244 454.079 260.244C454.847 260.244 455.524 260.431 456.111 260.804C456.698 261.167 457.151 261.668 457.471 262.308C457.802 262.937 457.967 263.663 457.967 264.484C457.967 265.284 457.802 266.004 457.471 266.644C457.151 267.284 456.698 267.785 456.111 268.148C455.524 268.511 454.847 268.692 454.079 268.692ZM453.823 267.3C454.314 267.3 454.746 267.183 455.119 266.948C455.503 266.713 455.802 266.383 456.015 265.956C456.239 265.529 456.351 265.033 456.351 264.468C456.351 263.903 456.239 263.412 456.015 262.996C455.802 262.569 455.503 262.239 455.119 262.004C454.746 261.759 454.314 261.636 453.823 261.636C453.322 261.636 452.879 261.759 452.495 262.004C452.122 262.239 451.828 262.569 451.615 262.996C451.402 263.412 451.295 263.903 451.295 264.468C451.295 265.033 451.402 265.529 451.615 265.956C451.828 266.383 452.122 266.713 452.495 266.948C452.879 267.183 453.322 267.3 453.823 267.3ZM463.403 268.692C462.646 268.692 461.963 268.516 461.355 268.164C460.758 267.812 460.283 267.321 459.931 266.692C459.59 266.052 459.419 265.316 459.419 264.484C459.419 263.631 459.595 262.889 459.947 262.26C460.299 261.62 460.779 261.124 461.387 260.772C461.995 260.42 462.678 260.244 463.435 260.244C464.203 260.244 464.886 260.42 465.483 260.772C466.081 261.124 466.55 261.615 466.891 262.244C467.243 262.873 467.419 263.615 467.419 264.468C467.419 265.321 467.243 266.063 466.891 266.692C466.55 267.321 466.075 267.812 465.467 268.164C464.859 268.516 464.171 268.692 463.403 268.692ZM463.403 267.316C463.841 267.316 464.235 267.209 464.587 266.996C464.95 266.783 465.238 266.468 465.451 266.052C465.675 265.625 465.787 265.097 465.787 264.468C465.787 263.839 465.681 263.316 465.467 262.9C465.254 262.473 464.966 262.153 464.603 261.94C464.251 261.727 463.862 261.62 463.435 261.62C463.009 261.62 462.614 261.727 462.251 261.94C461.889 262.153 461.595 262.473 461.371 262.9C461.158 263.316 461.051 263.839 461.051 264.468C461.051 265.097 461.158 265.625 461.371 266.052C461.595 266.468 461.883 266.783 462.235 266.996C462.598 267.209 462.987 267.316 463.403 267.316ZM469.621 268.5V261.796H468.437V260.436H469.621V259.348C469.621 258.793 469.712 258.34 469.893 257.988C470.085 257.636 470.363 257.38 470.725 257.22C471.088 257.06 471.525 256.98 472.037 256.98H472.869V258.34H472.293C471.909 258.34 471.632 258.42 471.461 258.58C471.301 258.729 471.221 258.996 471.221 259.38V260.436H476.134V268.5H474.533V261.796H471.221V268.5H469.621ZM475.349 259.044C475.051 259.044 474.8 258.948 474.597 258.756C474.395 258.564 474.293 258.319 474.293 258.02C474.293 257.732 474.395 257.497 474.597 257.316C474.8 257.124 475.051 257.028 475.349 257.028C475.659 257.028 475.909 257.124 476.101 257.316C476.304 257.497 476.406 257.732 476.406 258.02C476.406 258.319 476.304 258.564 476.101 258.756C475.909 258.948 475.659 259.044 475.349 259.044ZM478.327 268.5V260.436H479.767L479.863 261.812C480.119 261.332 480.482 260.953 480.951 260.676C481.421 260.388 481.959 260.244 482.567 260.244C483.207 260.244 483.757 260.372 484.215 260.628C484.674 260.884 485.031 261.273 485.287 261.796C485.543 262.308 485.671 262.953 485.671 263.732V268.5H484.071V263.892C484.071 263.145 483.906 262.58 483.575 262.196C483.245 261.812 482.765 261.62 482.135 261.62C481.719 261.62 481.346 261.721 481.015 261.924C480.685 262.116 480.418 262.404 480.215 262.788C480.023 263.172 479.927 263.641 479.927 264.196V268.5H478.327Z" fill="white"/>
<path d="M34.4512 41.4492L38.5039 53.2949H38.6602L42.7129 41.4492H45.0762L39.8516 56H37.3125L32.0781 41.4492H34.4512ZM46.3002 56V45.082H48.4095V56H46.3002ZM47.3646 43.4023C46.9935 43.4023 46.6778 43.2786 46.4173 43.0312C46.1569 42.7839 46.0267 42.4876 46.0267 42.1426C46.0267 41.791 46.1569 41.4915 46.4173 41.2441C46.6778 40.9967 46.9935 40.873 47.3646 40.873C47.7292 40.873 48.0417 40.9967 48.3021 41.2441C48.569 41.4915 48.7025 41.791 48.7025 42.1426C48.7025 42.4876 48.569 42.7839 48.3021 43.0312C48.0417 43.2786 47.7292 43.4023 47.3646 43.4023ZM58.7448 47.7578L56.821 48.0898C56.6973 47.7253 56.4662 47.39 56.1277 47.084C55.7956 46.778 55.2976 46.625 54.6335 46.625C54.0346 46.625 53.5333 46.7617 53.1296 47.0352C52.7325 47.3021 52.5339 47.6439 52.5339 48.0605C52.5339 48.4251 52.6674 48.7214 52.9343 48.9492C53.2077 49.1771 53.6407 49.3594 54.2331 49.4961L55.9812 49.8867C56.9773 50.1146 57.7227 50.4727 58.2175 50.9609C58.7123 51.4492 58.9597 52.0742 58.9597 52.8359C58.9597 53.4935 58.7709 54.0794 58.3933 54.5938C58.0157 55.1016 57.4916 55.502 56.821 55.7949C56.1504 56.0814 55.3757 56.2246 54.4968 56.2246C53.2728 56.2246 52.2767 55.9609 51.5085 55.4336C50.7403 54.9062 50.2683 54.1641 50.0925 53.207L52.1335 52.8945C52.2637 53.4284 52.5274 53.832 52.9245 54.1055C53.3282 54.3789 53.849 54.5156 54.487 54.5156C55.1771 54.5156 55.7305 54.3691 56.1472 54.0762C56.5704 53.7832 56.782 53.4284 56.782 53.0117C56.782 52.3216 56.2676 51.8561 55.239 51.6152L53.3933 51.2051C52.3711 50.9707 51.6159 50.6029 51.1277 50.1016C50.6459 49.5938 50.405 48.9557 50.405 48.1875C50.405 47.543 50.584 46.9766 50.9421 46.4883C51.3067 46 51.8047 45.6224 52.4363 45.3555C53.0743 45.082 53.8002 44.9453 54.614 44.9453C55.7989 44.9453 56.7266 45.2025 57.3972 45.7168C58.0743 46.2311 58.5235 46.9115 58.7448 47.7578ZM60.5841 56V45.082H62.6934V56H60.5841ZM61.6485 43.4023C61.2774 43.4023 60.9617 43.2786 60.7013 43.0312C60.4408 42.7839 60.3106 42.4876 60.3106 42.1426C60.3106 41.791 60.4408 41.4915 60.7013 41.2441C60.9617 40.9967 61.2774 40.873 61.6485 40.873C62.0131 40.873 62.3256 40.9967 62.586 41.2441C62.8529 41.4915 62.9864 41.791 62.9864 42.1426C62.9864 42.4876 62.8529 42.7839 62.586 43.0312C62.3256 43.2786 62.0131 43.4023 61.6485 43.4023ZM69.9428 45.082V46.791H63.9858V45.082H69.9428ZM65.5776 42.4844H67.6967V52.7969C67.6967 53.2982 67.8009 53.666 68.0092 53.9004C68.2176 54.1283 68.5528 54.2422 69.0151 54.2422C69.1258 54.2422 69.2429 54.2357 69.3666 54.2227C69.4968 54.2096 69.6271 54.1901 69.7573 54.1641L70.1577 55.9219C69.9428 55.9935 69.7084 56.0488 69.4545 56.0879C69.2006 56.127 68.9467 56.1465 68.6928 56.1465C67.7488 56.1465 66.9936 55.8828 66.4272 55.3555C65.8608 54.8216 65.5776 54.112 65.5776 53.2266V42.4844ZM76.0691 56.2246C75.047 56.2246 74.1518 55.9902 73.3836 55.5215C72.6219 55.0527 72.0294 54.3952 71.6063 53.5488C71.1896 52.7025 70.9813 51.7194 70.9813 50.5996C70.9813 49.4668 71.1896 48.4772 71.6063 47.6309C72.0294 46.778 72.6219 46.1172 73.3836 45.6484C74.1518 45.1797 75.047 44.9453 76.0691 44.9453C77.0978 44.9453 77.993 45.1797 78.7547 45.6484C79.5164 46.1172 80.1089 46.778 80.532 47.6309C80.9552 48.4772 81.1668 49.4668 81.1668 50.5996C81.1668 51.7194 80.9552 52.7025 80.532 53.5488C80.1089 54.3952 79.5164 55.0527 78.7547 55.5215C77.993 55.9902 77.0978 56.2246 76.0691 56.2246ZM76.0691 54.4375C76.7397 54.4375 77.2931 54.2617 77.7293 53.9102C78.1655 53.5586 78.4878 53.0931 78.6961 52.5137C78.9109 51.9277 79.0184 51.2897 79.0184 50.5996C79.0184 49.8965 78.9109 49.252 78.6961 48.666C78.4878 48.0801 78.1655 47.6113 77.7293 47.2598C77.2931 46.9082 76.7397 46.7324 76.0691 46.7324C75.4051 46.7324 74.8549 46.9082 74.4188 47.2598C73.9891 47.6113 73.6668 48.0801 73.452 48.666C73.2371 49.252 73.1297 49.8965 73.1297 50.5996C73.1297 51.2897 73.2371 51.9277 73.452 52.5137C73.6668 53.0931 73.9891 53.5586 74.4188 53.9102C74.8549 54.2617 75.4051 54.4375 76.0691 54.4375ZM82.84 56V45.082H84.881V46.8301H84.9982C85.2 46.2441 85.5516 45.7819 86.0529 45.4434C86.5607 45.0983 87.1336 44.9258 87.7716 44.9258C87.9018 44.9258 88.0548 44.9323 88.2306 44.9453C88.4129 44.9518 88.5594 44.9616 88.6701 44.9746V47.0059C88.5854 46.9798 88.4324 46.9538 88.2111 46.9277C87.9963 46.9017 87.7782 46.8887 87.5568 46.8887C87.0555 46.8887 86.6063 46.9961 86.2091 47.2109C85.8185 47.4193 85.5093 47.709 85.2814 48.0801C85.0601 48.4447 84.9494 48.8678 84.9494 49.3496V56H82.84ZM97.5927 56.2344C96.9026 56.2344 96.2776 56.1074 95.7177 55.8535C95.1578 55.5931 94.7151 55.2155 94.3895 54.7207C94.064 54.2259 93.9012 53.6237 93.9012 52.9141C93.9012 52.2956 94.0184 51.791 94.2528 51.4004C94.4937 51.0033 94.816 50.6875 95.2196 50.4531C95.6233 50.2188 96.0725 50.043 96.5673 49.9258C97.0621 49.8086 97.5699 49.7174 98.0907 49.6523C98.7483 49.5807 99.2789 49.5189 99.6825 49.4668C100.086 49.4147 100.379 49.3333 100.561 49.2227C100.75 49.1055 100.845 48.9199 100.845 48.666V48.6172C100.845 47.9987 100.669 47.5202 100.317 47.1816C99.9722 46.8431 99.4579 46.6738 98.7743 46.6738C98.0647 46.6738 97.5015 46.8301 97.0848 47.1426C96.6747 47.4486 96.3915 47.7969 96.2352 48.1875L94.2333 47.7285C94.4742 47.0645 94.8225 46.5306 95.2782 46.127C95.7404 45.7168 96.2678 45.4173 96.8602 45.2285C97.4592 45.0397 98.0842 44.9453 98.7352 44.9453C99.1714 44.9453 99.6337 44.9974 100.122 45.1016C100.61 45.1992 101.069 45.3848 101.499 45.6582C101.935 45.9251 102.29 46.3092 102.563 46.8105C102.837 47.3118 102.974 47.9596 102.974 48.7539V56H100.893V54.5059H100.815C100.685 54.7728 100.48 55.0397 100.2 55.3066C99.9266 55.5736 99.5751 55.7949 99.1454 55.9707C98.7157 56.1465 98.1981 56.2344 97.5927 56.2344ZM98.0516 54.5352C98.6441 54.5352 99.1486 54.4212 99.5653 54.1934C99.982 53.959 100.301 53.653 100.522 53.2754C100.744 52.8978 100.854 52.4974 100.854 52.0742V50.6582C100.776 50.7298 100.63 50.7982 100.415 50.8633C100.2 50.9284 99.9559 50.9837 99.6825 51.0293C99.4091 51.0749 99.1421 51.1172 98.8817 51.1562C98.6213 51.1888 98.4032 51.2148 98.2274 51.2344C97.8173 51.293 97.4429 51.3841 97.1044 51.5078C96.7658 51.625 96.4924 51.8008 96.2841 52.0352C96.0822 52.263 95.9813 52.5658 95.9813 52.9434C95.9813 53.4707 96.1766 53.8678 96.5673 54.1348C96.9579 54.4017 97.4527 54.5352 98.0516 54.5352ZM107.264 49.5254V56H105.155V45.082H107.205V46.8789H107.352C107.599 46.2865 107.987 45.8177 108.514 45.4727C109.041 45.1211 109.718 44.9453 110.545 44.9453C111.287 44.9453 111.935 45.1016 112.489 45.4141C113.048 45.7201 113.481 46.179 113.787 46.791C114.1 47.403 114.256 48.1615 114.256 49.0664V56H112.147V49.3203C112.147 48.5326 111.938 47.9141 111.522 47.4648C111.105 47.0091 110.539 46.7812 109.823 46.7812C109.334 46.7812 108.895 46.8919 108.504 47.1133C108.12 47.3281 107.817 47.6374 107.596 48.041C107.375 48.4447 107.264 48.9395 107.264 49.5254ZM119.591 56.2344C118.901 56.2344 118.276 56.1074 117.716 55.8535C117.157 55.5931 116.714 55.2155 116.388 54.7207C116.063 54.2259 115.9 53.6237 115.9 52.9141C115.9 52.2956 116.017 51.791 116.252 51.4004C116.492 51.0033 116.815 50.6875 117.218 50.4531C117.622 50.2188 118.071 50.043 118.566 49.9258C119.061 49.8086 119.569 49.7174 120.089 49.6523C120.747 49.5807 121.278 49.5189 121.681 49.4668C122.085 49.4147 122.378 49.3333 122.56 49.2227C122.749 49.1055 122.843 48.9199 122.843 48.666V48.6172C122.843 47.9987 122.668 47.5202 122.316 47.1816C121.971 46.8431 121.457 46.6738 120.773 46.6738C120.063 46.6738 119.5 46.8301 119.084 47.1426C118.673 47.4486 118.39 47.7969 118.234 48.1875L116.232 47.7285C116.473 47.0645 116.821 46.5306 117.277 46.127C117.739 45.7168 118.267 45.4173 118.859 45.2285C119.458 45.0397 120.083 44.9453 120.734 44.9453C121.17 44.9453 121.632 44.9974 122.121 45.1016C122.609 45.1992 123.068 45.3848 123.498 45.6582C123.934 45.9251 124.289 46.3092 124.562 46.8105C124.836 47.3118 124.972 47.9596 124.972 48.7539V56H122.892V54.5059H122.814C122.684 54.7728 122.479 55.0397 122.199 55.3066C121.925 55.5736 121.574 55.7949 121.144 55.9707C120.714 56.1465 120.197 56.2344 119.591 56.2344ZM120.05 54.5352C120.643 54.5352 121.147 54.4212 121.564 54.1934C121.981 53.959 122.3 53.653 122.521 53.2754C122.742 52.8978 122.853 52.4974 122.853 52.0742V50.6582C122.775 50.7298 122.629 50.7982 122.414 50.8633C122.199 50.9284 121.955 50.9837 121.681 51.0293C121.408 51.0749 121.141 51.1172 120.88 51.1562C120.62 51.1888 120.402 51.2148 120.226 51.2344C119.816 51.293 119.442 51.3841 119.103 51.5078C118.765 51.625 118.491 51.8008 118.283 52.0352C118.081 52.263 117.98 52.5658 117.98 52.9434C117.98 53.4707 118.175 53.8678 118.566 54.1348C118.957 54.4017 119.451 54.5352 120.05 54.5352ZM129.263 41.4492V56H127.153V41.4492H129.263ZM132.762 60.082C132.443 60.0885 132.153 60.0658 131.893 60.0137C131.639 59.9681 131.444 59.9128 131.307 59.8477L131.825 58.1191L131.971 58.1582C132.511 58.2949 132.967 58.2852 133.338 58.1289C133.716 57.9792 134.032 57.5592 134.285 56.8691L134.549 56.1465L130.565 45.082H132.84L135.594 53.5586H135.711L138.475 45.082H140.75L136.258 57.4453C136.05 58.0182 135.786 58.5 135.467 58.8906C135.148 59.2878 134.764 59.584 134.315 59.7793C133.872 59.9811 133.354 60.082 132.762 60.082ZM147.14 45.082V46.791H141.183V45.082H147.14ZM142.775 42.4844H144.894V52.7969C144.894 53.2982 144.998 53.666 145.207 53.9004C145.415 54.1283 145.75 54.2422 146.213 54.2422C146.323 54.2422 146.44 54.2357 146.564 54.2227C146.694 54.2096 146.825 54.1901 146.955 54.1641L147.355 55.9219C147.14 55.9935 146.906 56.0488 146.652 56.0879C146.398 56.127 146.144 56.1465 145.89 56.1465C144.946 56.1465 144.191 55.8828 143.625 55.3555C143.058 54.8216 142.775 54.112 142.775 53.2266V42.4844ZM148.804 56V45.082H150.913V56H148.804ZM149.868 43.4023C149.497 43.4023 149.181 43.2786 148.921 43.0312C148.661 42.7839 148.53 42.4876 148.53 42.1426C148.53 41.791 148.661 41.4915 148.921 41.2441C149.181 40.9967 149.497 40.873 149.868 40.873C150.233 40.873 150.545 40.9967 150.806 41.2441C151.073 41.4915 151.206 41.791 151.206 42.1426C151.206 42.4876 151.073 42.7839 150.806 43.0312C150.545 43.2786 150.233 43.4023 149.868 43.4023ZM157.664 56.2246C156.616 56.2246 155.711 55.9837 154.95 55.502C154.188 55.0202 153.602 54.3561 153.192 53.5098C152.782 52.6634 152.577 51.6934 152.577 50.5996C152.577 49.4863 152.785 48.5065 153.202 47.6602C153.625 46.8073 154.214 46.1432 154.969 45.668C155.731 45.1862 156.623 44.9453 157.645 44.9453C158.478 44.9453 159.217 45.0983 159.862 45.4043C160.513 45.7038 161.037 46.1302 161.434 46.6836C161.838 47.237 162.075 47.8815 162.147 48.6172H160.077C160.005 48.2721 159.865 47.9564 159.657 47.6699C159.455 47.3835 159.188 47.1556 158.856 46.9863C158.524 46.8171 158.13 46.7324 157.674 46.7324C157.082 46.7324 156.564 46.8887 156.121 47.2012C155.685 47.5072 155.343 47.9466 155.096 48.5195C154.849 49.0924 154.725 49.7695 154.725 50.5508C154.725 51.3385 154.845 52.0254 155.086 52.6113C155.327 53.1973 155.669 53.6497 156.112 53.9688C156.561 54.2812 157.082 54.4375 157.674 54.4375C158.286 54.4375 158.807 54.2682 159.237 53.9297C159.673 53.5911 159.953 53.1289 160.077 52.543H162.147C162.075 53.2526 161.847 53.8841 161.463 54.4375C161.079 54.9909 160.565 55.4271 159.92 55.7461C159.276 56.0651 158.524 56.2246 157.664 56.2246ZM171.955 47.7578L170.031 48.0898C169.907 47.7253 169.676 47.39 169.338 47.084C169.006 46.778 168.508 46.625 167.844 46.625C167.245 46.625 166.743 46.7617 166.34 47.0352C165.942 47.3021 165.744 47.6439 165.744 48.0605C165.744 48.4251 165.877 48.7214 166.144 48.9492C166.418 49.1771 166.851 49.3594 167.443 49.4961L169.191 49.8867C170.187 50.1146 170.933 50.4727 171.428 50.9609C171.922 51.4492 172.17 52.0742 172.17 52.8359C172.17 53.4935 171.981 54.0794 171.603 54.5938C171.226 55.1016 170.702 55.502 170.031 55.7949C169.36 56.0814 168.586 56.2246 167.707 56.2246C166.483 56.2246 165.487 55.9609 164.719 55.4336C163.95 54.9062 163.478 54.1641 163.303 53.207L165.344 52.8945C165.474 53.4284 165.737 53.832 166.135 54.1055C166.538 54.3789 167.059 54.5156 167.697 54.5156C168.387 54.5156 168.941 54.3691 169.357 54.0762C169.78 53.7832 169.992 53.4284 169.992 53.0117C169.992 52.3216 169.478 51.8561 168.449 51.6152L166.603 51.2051C165.581 50.9707 164.826 50.6029 164.338 50.1016C163.856 49.5938 163.615 48.9557 163.615 48.1875C163.615 47.543 163.794 46.9766 164.152 46.4883C164.517 46 165.015 45.6224 165.646 45.3555C166.284 45.082 167.01 44.9453 167.824 44.9453C169.009 44.9453 169.937 45.2025 170.607 45.7168C171.284 46.2311 171.733 46.9115 171.955 47.7578Z" fill="#F46D6B"/>
<path d="M41.6719 107.312C40.099 107.312 38.7031 107.047 37.4844 106.516C36.2656 105.974 35.3021 105.224 34.5938 104.266C33.8854 103.307 33.5104 102.198 33.4688 100.938H37C37.0521 101.625 37.2865 102.219 37.7031 102.719C38.1198 103.219 38.6667 103.609 39.3438 103.891C40.0312 104.161 40.7969 104.297 41.6406 104.297C42.5573 104.297 43.3698 104.135 44.0781 103.812C44.7865 103.49 45.3385 103.047 45.7344 102.484C46.1406 101.911 46.3438 101.25 46.3438 100.5C46.3438 99.7188 46.1458 99.0312 45.75 98.4375C45.3542 97.8333 44.776 97.3646 44.0156 97.0312C43.2552 96.6979 42.3385 96.5312 41.2656 96.5312H39.2812V93.6562H41.2656C42.1198 93.6562 42.875 93.5 43.5312 93.1875C44.1875 92.875 44.6979 92.4427 45.0625 91.8906C45.4375 91.3385 45.625 90.6875 45.625 89.9375C45.625 89.2188 45.4635 88.5938 45.1406 88.0625C44.8177 87.5208 44.3646 87.1042 43.7812 86.8125C43.1979 86.5104 42.5104 86.3594 41.7188 86.3594C40.9583 86.3594 40.25 86.4948 39.5938 86.7656C38.9375 87.0365 38.401 87.4271 37.9844 87.9375C37.5781 88.4375 37.3646 89.0469 37.3438 89.7656H33.9531C33.9844 88.5052 34.349 87.401 35.0469 86.4531C35.7552 85.4948 36.6927 84.75 37.8594 84.2188C39.0365 83.6771 40.3385 83.4062 41.7656 83.4062C43.2552 83.4062 44.5417 83.6979 45.625 84.2812C46.7188 84.8542 47.5625 85.625 48.1562 86.5938C48.75 87.5521 49.0469 88.599 49.0469 89.7344C49.0469 91.0573 48.6823 92.1719 47.9531 93.0781C47.224 93.974 46.25 94.5833 45.0312 94.9062V95.0781C46.5729 95.3177 47.7656 95.9323 48.6094 96.9219C49.4635 97.9115 49.8906 99.1406 49.8906 100.609C49.8906 101.891 49.5312 103.036 48.8125 104.047C48.1042 105.057 47.1302 105.854 45.8906 106.438C44.6615 107.021 43.2552 107.312 41.6719 107.312ZM51.2038 112.766L52.5788 103.656H56.235L53.6569 112.766H51.2038ZM66.6575 107.312C65.0325 107.312 63.595 107.031 62.345 106.469C61.1054 105.906 60.1315 105.135 59.4231 104.156C58.7252 103.167 58.3762 102.042 58.3762 100.781C58.3762 99.8125 58.5794 98.9115 58.9856 98.0781C59.4023 97.2448 59.9648 96.5521 60.6731 96C61.3815 95.4479 62.1783 95.0938 63.0637 94.9375V94.7969C61.9075 94.5156 60.9752 93.8958 60.2669 92.9375C59.569 91.9688 59.22 90.8646 59.22 89.625C59.22 88.4271 59.5377 87.3594 60.1731 86.4219C60.819 85.4844 61.6992 84.75 62.8137 84.2188C63.9387 83.6771 65.22 83.4062 66.6575 83.4062C68.0742 83.4062 69.3398 83.6771 70.4544 84.2188C71.5794 84.75 72.4596 85.4844 73.095 86.4219C73.7408 87.3594 74.0637 88.4271 74.0637 89.625C74.0637 90.8646 73.7096 91.9688 73.0012 92.9375C72.3033 93.8958 71.3867 94.5156 70.2512 94.7969V94.9375C71.1262 95.0938 71.9179 95.4479 72.6262 96C73.3346 96.5521 73.8971 97.2448 74.3137 98.0781C74.7304 98.9115 74.9387 99.8125 74.9387 100.781C74.9387 102.042 74.5846 103.167 73.8762 104.156C73.1679 105.135 72.1887 105.906 70.9387 106.469C69.6992 107.031 68.2721 107.312 66.6575 107.312ZM66.6575 104.438C67.6158 104.438 68.4492 104.281 69.1575 103.969C69.8658 103.646 70.4127 103.193 70.7981 102.609C71.1835 102.026 71.3762 101.349 71.3762 100.578C71.3762 99.7656 71.1679 99.0521 70.7512 98.4375C70.345 97.8125 69.7877 97.3229 69.0794 96.9688C68.371 96.6042 67.5637 96.4219 66.6575 96.4219C65.7408 96.4219 64.9231 96.599 64.2044 96.9531C63.496 97.3073 62.9387 97.7969 62.5325 98.4219C62.1262 99.0469 61.9231 99.7656 61.9231 100.578C61.9231 101.349 62.1158 102.026 62.5012 102.609C62.8867 103.193 63.4335 103.646 64.1419 103.969C64.8502 104.281 65.6887 104.438 66.6575 104.438ZM66.6575 93.625C67.4283 93.625 68.1106 93.4688 68.7044 93.1562C69.3085 92.8438 69.7825 92.4115 70.1262 91.8594C70.4804 91.3073 70.6575 90.6615 70.6575 89.9219C70.6575 89.1927 70.4856 88.5573 70.1419 88.0156C69.8085 87.474 69.3398 87.0521 68.7356 86.75C68.1419 86.4479 67.4492 86.2969 66.6575 86.2969C65.8554 86.2969 65.1523 86.4479 64.5481 86.75C63.944 87.0521 63.4752 87.474 63.1419 88.0156C62.8085 88.5573 62.6419 89.1927 62.6419 89.9219C62.6419 90.6615 62.8137 91.3073 63.1575 91.8594C63.5012 92.4115 63.97 92.8438 64.5637 93.1562C65.1679 93.4688 65.8658 93.625 66.6575 93.625ZM85.0488 107.312C84.0175 107.312 82.9967 107.13 81.9863 106.766C80.9758 106.401 80.0644 105.797 79.2519 104.953C78.4394 104.099 77.7831 102.953 77.2831 101.516C76.7935 100.078 76.5488 98.2917 76.5488 96.1562C76.5488 94.125 76.7519 92.3229 77.1581 90.75C77.5748 89.1667 78.1633 87.8333 78.9238 86.75C79.6946 85.6562 80.6217 84.8281 81.705 84.2656C82.7883 83.6927 84.0071 83.4062 85.3613 83.4062C86.7467 83.4062 87.9758 83.6823 89.0488 84.2344C90.1217 84.776 90.9915 85.526 91.6581 86.4844C92.3352 87.4427 92.7571 88.5365 92.9238 89.7656H89.4863C89.2467 88.7969 88.7779 88.0104 88.08 87.4062C87.3821 86.7917 86.4758 86.4844 85.3613 86.4844C83.6529 86.4844 82.3196 87.2292 81.3613 88.7188C80.4133 90.1979 79.9394 92.2604 79.9394 94.9062H80.1113C80.5175 94.25 81.0123 93.6875 81.5956 93.2188C82.179 92.7396 82.83 92.375 83.5488 92.125C84.2779 91.875 85.054 91.75 85.8769 91.75C87.2206 91.75 88.4394 92.0781 89.5331 92.7344C90.6373 93.3906 91.5123 94.2969 92.1581 95.4531C92.8144 96.599 93.1425 97.9167 93.1425 99.4062C93.1425 100.885 92.804 102.224 92.1269 103.422C91.4602 104.62 90.5175 105.568 89.2988 106.266C88.0904 106.964 86.6738 107.312 85.0488 107.312ZM85.0331 104.359C85.929 104.359 86.7258 104.141 87.4238 103.703C88.1321 103.266 88.6946 102.677 89.1113 101.938C89.5279 101.188 89.7363 100.354 89.7363 99.4375C89.7363 98.5417 89.5331 97.7292 89.1269 97C88.731 96.2708 88.1842 95.6927 87.4863 95.2656C86.7988 94.8281 86.0071 94.6094 85.1113 94.6094C84.2258 94.6094 83.4238 94.8333 82.705 95.2812C81.9863 95.7292 81.4133 96.3229 80.9863 97.0625C80.5696 97.8021 80.3613 98.6042 80.3613 99.4688C80.3613 100.333 80.5644 101.141 80.9706 101.891C81.3769 102.641 81.929 103.24 82.6269 103.688C83.3352 104.135 84.1373 104.359 85.0331 104.359ZM103.299 107.312C101.726 107.312 100.331 107.047 99.1119 106.516C97.8931 105.974 96.9296 105.224 96.2212 104.266C95.5129 103.307 95.1379 102.198 95.0962 100.938H98.6275C98.6796 101.625 98.914 102.219 99.3306 102.719C99.7473 103.219 100.294 103.609 100.971 103.891C101.659 104.161 102.424 104.297 103.268 104.297C104.185 104.297 104.997 104.135 105.706 103.812C106.414 103.49 106.966 103.047 107.362 102.484C107.768 101.911 107.971 101.25 107.971 100.5C107.971 99.7188 107.773 99.0312 107.377 98.4375C106.982 97.8333 106.404 97.3646 105.643 97.0312C104.883 96.6979 103.966 96.5312 102.893 96.5312H100.909V93.6562H102.893C103.747 93.6562 104.502 93.5 105.159 93.1875C105.815 92.875 106.325 92.4427 106.69 91.8906C107.065 91.3385 107.252 90.6875 107.252 89.9375C107.252 89.2188 107.091 88.5938 106.768 88.0625C106.445 87.5208 105.992 87.1042 105.409 86.8125C104.825 86.5104 104.138 86.3594 103.346 86.3594C102.586 86.3594 101.877 86.4948 101.221 86.7656C100.565 87.0365 100.029 87.4271 99.6119 87.9375C99.2056 88.4375 98.9921 89.0469 98.9712 89.7656H95.5806C95.6119 88.5052 95.9765 87.401 96.6744 86.4531C97.3827 85.4948 98.3202 84.75 99.4869 84.2188C100.664 83.6771 101.966 83.4062 103.393 83.4062C104.883 83.4062 106.169 83.6979 107.252 84.2812C108.346 84.8542 109.19 85.625 109.784 86.5938C110.377 87.5521 110.674 88.599 110.674 89.7344C110.674 91.0573 110.31 92.1719 109.581 93.0781C108.851 93.974 107.877 94.5833 106.659 94.9062V95.0781C108.2 95.3177 109.393 95.9323 110.237 96.9219C111.091 97.9115 111.518 99.1406 111.518 100.609C111.518 101.891 111.159 103.036 110.44 104.047C109.732 105.057 108.758 105.854 107.518 106.438C106.289 107.021 104.883 107.312 103.299 107.312ZM121.925 107.312C120.133 107.312 118.597 106.844 117.316 105.906C116.045 104.969 115.071 103.615 114.394 101.844C113.727 100.062 113.394 97.9062 113.394 95.375C113.394 92.8542 113.732 90.7031 114.409 88.9219C115.086 87.1302 116.06 85.7656 117.331 84.8281C118.613 83.8802 120.144 83.4062 121.925 83.4062C123.717 83.4062 125.248 83.8802 126.519 84.8281C127.8 85.7656 128.774 87.1302 129.441 88.9219C130.118 90.7031 130.456 92.8542 130.456 95.375C130.456 97.9062 130.123 100.062 129.456 101.844C128.79 103.615 127.821 104.969 126.55 105.906C125.279 106.844 123.738 107.312 121.925 107.312ZM121.925 104.312C123.019 104.312 123.941 103.964 124.691 103.266C125.441 102.568 126.014 101.552 126.409 100.219C126.805 98.875 127.003 97.2604 127.003 95.375C127.003 93.4792 126.805 91.8646 126.409 90.5312C126.014 89.1875 125.441 88.1667 124.691 87.4688C123.941 86.7604 123.019 86.4062 121.925 86.4062C120.31 86.4062 119.06 87.1927 118.175 88.7656C117.3 90.3281 116.863 92.5312 116.863 95.375C116.863 97.2604 117.06 98.875 117.456 100.219C117.852 101.552 118.425 102.568 119.175 103.266C119.935 103.964 120.852 104.312 121.925 104.312Z" fill="white"/>
<path d="M147.06 87.235L150.998 92.0163C151.121 92.166 151.19 92.369 151.19 92.5807C151.19 92.7925 151.121 92.9955 150.998 93.1452C150.874 93.2949 150.707 93.379 150.533 93.379C150.359 93.379 150.191 93.2949 150.068 93.1452L147.252 89.7246L147.252 99.4863C147.252 99.6977 147.183 99.9004 147.06 100.05C146.937 100.199 146.77 100.283 146.596 100.283C146.422 100.283 146.255 100.199 146.132 100.05C146.009 99.9004 145.94 99.6977 145.94 99.4863L145.94 89.7246L143.122 93.1439C142.999 93.2936 142.832 93.3777 142.657 93.3777C142.483 93.3777 142.316 93.2936 142.193 93.1439C142.069 92.9942 142 92.7911 142 92.5794C142 92.3677 142.069 92.1647 142.193 92.015L146.13 87.2337C146.191 87.1594 146.264 87.1005 146.343 87.0603C146.423 87.0202 146.509 86.9995 146.595 86.9997C146.682 86.9998 146.767 87.0206 146.847 87.061C146.927 87.1014 146.999 87.1606 147.06 87.235Z" fill="#3D8C0D"/>
<defs>
<linearGradient id="paint0_linear_3003_45221" x1="428.965" y1="118.232" x2="461.931" y2="123.927" gradientUnits="userSpaceOnUse">
<stop stop-color="#732CFF"/>
<stop offset="1" stop-color="#F46D6B"/>
</linearGradient>
<linearGradient id="paint1_linear_3003_45221" x1="424.443" y1="259.377" x2="432.352" y2="262.337" gradientUnits="userSpaceOnUse">
<stop stop-color="#732CFF"/>
<stop offset="1" stop-color="#F46D6B"/>
</linearGradient>
</defs>
</svg>
