<svg width="1920" height="950" viewBox="0 0 1920 950" fill="none" xmlns="http://www.w3.org/2000/svg">
<path d="M404.982 116.308L405.813 116.272L406.326 115.618L406.362 116.448L407.016 116.961L406.186 116.998L405.673 117.652L405.636 116.821L404.982 116.308Z" fill="#6F6C7D"/>
<path d="M408.051 292.581L408.881 292.544L409.394 291.89L409.431 292.721L410.085 293.234L409.254 293.27L408.741 293.924L408.705 293.094L408.051 292.581Z" fill="#6F6C7D"/>
<path d="M73.1454 536.515L73.9759 536.479L74.4889 535.825L74.5253 536.655L75.1794 537.168L74.3489 537.205L73.8359 537.859L73.7995 537.028L73.1454 536.515Z" fill="#6F6C7D"/>
<path d="M179.133 174.172L179.964 174.136L180.477 173.482L180.513 174.312L181.167 174.825L180.337 174.862L179.824 175.516L179.787 174.685L179.133 174.172Z" fill="#6F6C7D"/>
<path d="M345.934 85.0582L346.765 85.0218L347.278 84.3677L347.314 85.1982L347.968 85.7112L347.138 85.7476L346.625 86.4017L346.589 85.5712L345.934 85.0582Z" fill="#6F6C7D"/>
<path d="M227.731 115.171L228.561 115.135L229.074 114.481L229.111 115.311L229.765 115.825L228.934 115.861L228.421 116.515L228.385 115.684L227.731 115.171Z" fill="#6F6C7D"/>
<path d="M114.187 684.969L115.018 684.933L115.531 684.279L115.567 685.109L116.221 685.622L115.391 685.659L114.878 686.313L114.842 685.482L114.187 684.969Z" fill="#6F6C7D"/>
<path d="M107.184 171.632L108.015 171.596L108.528 170.942L108.564 171.772L109.218 172.285L108.388 172.322L107.875 172.976L107.839 172.145L107.184 171.632Z" fill="#6F6C7D"/>
<path d="M246.897 652.513L247.728 652.477L248.241 651.823L248.277 652.653L248.931 653.166L248.101 653.203L247.588 653.857L247.551 653.026L246.897 652.513Z" fill="#6F6C7D"/>
<path d="M390.159 353.405L390.989 353.369L391.502 352.714L391.538 353.545L392.193 354.058L391.362 354.094L390.849 354.748L390.813 353.918L390.159 353.405Z" fill="#6F6C7D"/>
<path d="M590 403.179L590.831 403.143L591.344 402.489L591.38 403.319L592.034 403.832L591.204 403.869L590.691 404.523L590.654 403.692L590 403.179Z" fill="white"/>
<path d="M531.589 258.628L532.419 258.592L532.932 257.938L532.969 258.769L533.623 259.282L532.792 259.318L532.279 259.972L532.243 259.142L531.589 258.628Z" fill="white"/>
<path d="M367.591 211.587L368.422 211.551L368.935 210.897L368.971 211.728L369.625 212.241L368.795 212.277L368.282 212.931L368.245 212.1L367.591 211.587Z" fill="white"/>
<path d="M202.347 405.7L203.178 405.663L203.691 405.009L203.727 405.84L204.381 406.353L203.551 406.389L203.038 407.043L203.001 406.213L202.347 405.7Z" fill="white"/>
<path d="M1102.87 154.81L1103.7 154.774L1104.21 154.12L1104.25 154.95L1104.9 155.463L1104.07 155.5L1103.56 156.154L1103.52 155.323L1102.87 154.81Z" fill="white"/>
<path d="M273.784 230.253L274.614 230.217L275.127 229.563L275.163 230.394L275.818 230.907L274.987 230.943L274.474 231.597L274.438 230.767L273.784 230.253Z" fill="white"/>
<path d="M359.663 30.2183L360.493 30.182L361.007 29.5278L361.043 30.3584L361.697 30.8714L360.866 30.9077L360.353 31.5619L360.317 30.7314L359.663 30.2183Z" fill="white"/>
<path d="M262.533 139.829L263.364 139.792L263.877 139.138L263.913 139.969L264.567 140.482L263.737 140.518L263.224 141.172L263.187 140.342L262.533 139.829Z" fill="white"/>
<g filter="url(#filter0_f_2037_43065)">
<path d="M249.255 309.552L250.085 309.516L250.598 308.862L250.635 309.692L251.289 310.205L250.458 310.242L249.945 310.896L249.909 310.065L249.255 309.552Z" fill="white"/>
</g>
<g filter="url(#filter1_f_2037_43065)">
<path d="M973.867 199.81L974.697 199.774L975.21 199.12L975.246 199.95L975.901 200.463L975.07 200.5L974.557 201.154L974.521 200.323L973.867 199.81Z" fill="white"/>
</g>
<g filter="url(#filter2_f_2037_43065)">
<path d="M15.8309 586.344L16.6615 586.308L17.1745 585.654L17.2108 586.484L17.865 586.997L17.0344 587.034L16.5214 587.688L16.4851 586.857L15.8309 586.344Z" fill="white"/>
</g>
<g filter="url(#filter3_f_2037_43065)">
<path d="M283.2 596.504L284.03 596.468L284.543 595.814L284.579 596.645L285.234 597.158L284.403 597.194L283.89 597.848L283.854 597.017L283.2 596.504Z" fill="white"/>
</g>
<g filter="url(#filter4_f_2037_43065)">
<path d="M407.263 454.563L408.094 454.527L408.607 453.873L408.643 454.703L409.297 455.216L408.467 455.252L407.954 455.907L407.917 455.076L407.263 454.563Z" fill="white"/>
</g>
<g filter="url(#filter5_f_2037_43065)">
<path d="M179.293 640.981L181.84 640.869L183.413 638.863L183.524 641.41L185.53 642.984L182.984 643.095L181.41 645.101L181.299 642.554L179.293 640.981Z" fill="#868592"/>
</g>
<g filter="url(#filter6_f_2037_43065)">
<path d="M183.398 500.402L185.945 500.29L187.518 498.284L187.629 500.831L189.635 502.404L187.089 502.516L185.515 504.522L185.404 501.975L183.398 500.402Z" fill="#868592"/>
</g>
<g filter="url(#filter7_f_2037_43065)">
<path d="M1853.54 847.911L1856.09 847.8L1857.66 845.794L1857.77 848.341L1859.78 849.914L1857.23 850.026L1855.66 852.032L1855.55 849.485L1853.54 847.911Z" fill="#868592"/>
</g>
<g filter="url(#filter8_f_2037_43065)">
<path d="M1809.54 221.911L1812.09 221.799L1813.66 219.793L1813.77 222.34L1815.78 223.913L1813.23 224.025L1811.66 226.031L1811.55 223.484L1809.54 221.911Z" fill="#868592"/>
</g>
<g filter="url(#filter9_f_2037_43065)">
<path d="M1811.54 479.912L1814.09 479.801L1815.66 477.795L1815.77 480.342L1817.78 481.915L1815.23 482.027L1813.66 484.033L1813.55 481.486L1811.54 479.912Z" fill="white"/>
</g>
<g filter="url(#filter10_f_2037_43065)">
<path d="M438.1 94.0892L440.647 93.9777L442.22 91.9718L442.332 94.5187L444.338 96.0919L441.791 96.2034L440.217 98.2094L440.106 95.6625L438.1 94.0892Z" fill="white"/>
</g>
<g filter="url(#filter11_f_2037_43065)">
<path d="M344.936 253.531L347.483 253.419L349.057 251.413L349.168 253.96L351.174 255.533L348.627 255.645L347.054 257.651L346.942 255.104L344.936 253.531Z" fill="#6E6B7C"/>
</g>
<g filter="url(#filter12_f_2037_43065)">
<path d="M1738.54 575.911L1741.09 575.8L1742.66 573.794L1742.77 576.341L1744.78 577.914L1742.23 578.026L1740.66 580.032L1740.55 577.485L1738.54 575.911Z" fill="#6E6B7C"/>
</g>
<g filter="url(#filter13_f_2037_43065)">
<path d="M830.541 737.911L833.088 737.8L834.662 735.794L834.773 738.341L836.779 739.914L834.232 740.026L832.659 742.032L832.547 739.485L830.541 737.911Z" fill="#6E6B7C"/>
</g>
<g filter="url(#filter14_f_2037_43065)">
<path d="M169.355 301.012L171.902 300.901L173.475 298.895L173.587 301.442L175.593 303.015L173.046 303.126L171.473 305.132L171.361 302.585L169.355 301.012Z" fill="white"/>
</g>
<g filter="url(#filter15_f_2037_43065)">
<path d="M235.584 194.327L238.131 194.216L239.704 192.21L239.816 194.757L241.822 196.33L239.275 196.442L237.702 198.448L237.59 195.901L235.584 194.327Z" fill="white"/>
</g>
<g filter="url(#filter16_f_2037_43065)">
<path d="M1570.54 120.911L1573.09 120.8L1574.66 118.794L1574.77 121.341L1576.78 122.914L1574.23 123.026L1572.66 125.032L1572.55 122.485L1570.54 120.911Z" fill="white"/>
</g>
<g opacity="0.5">
<path d="M647.026 592.544L647.639 593.106L648.464 593.006L647.903 593.619L648.003 594.444L647.39 593.882L646.564 593.982L647.126 593.369L647.026 592.544Z" fill="#6F6C7D"/>
<path d="M524.553 739.357L525.166 739.919L525.991 739.819L525.429 740.432L525.529 741.258L524.916 740.696L524.091 740.796L524.652 740.183L524.553 739.357Z" fill="#6F6C7D"/>
<path d="M115.25 675.031L115.863 675.593L116.688 675.493L116.127 676.106L116.226 676.931L115.613 676.37L114.788 676.47L115.35 675.857L115.25 675.031Z" fill="#6F6C7D"/>
<path d="M21.3797 335.595L21.9927 336.156L22.818 336.057L22.2564 336.67L22.3562 337.495L21.7432 336.933L20.9179 337.033L21.4795 336.42L21.3797 335.595Z" fill="#6F6C7D"/>
<path d="M446.41 493.761L447.023 494.322L447.849 494.223L447.287 494.836L447.387 495.661L446.774 495.099L445.949 495.199L446.51 494.586L446.41 493.761Z" fill="#6F6C7D"/>
<path d="M627.371 528.693L627.984 529.255L628.809 529.155L628.248 529.768L628.347 530.593L627.734 530.032L626.909 530.132L627.471 529.519L627.371 528.693Z" fill="#6F6C7D"/>
<path d="M522.494 486.404L523.107 486.966L523.932 486.866L523.371 487.479L523.47 488.304L522.858 487.743L522.032 487.843L522.594 487.23L522.494 486.404Z" fill="#6F6C7D"/>
<path d="M39.2982 809.024L39.9112 809.586L40.7365 809.486L40.1749 810.099L40.2747 810.925L39.6617 810.363L38.8364 810.463L39.398 809.85L39.2982 809.024Z" fill="#6F6C7D"/>
<path d="M397.331 441.089L397.944 441.65L398.769 441.551L398.208 442.164L398.307 442.989L397.694 442.427L396.869 442.527L397.431 441.914L397.331 441.089Z" fill="#6F6C7D"/>
<path d="M156.089 879.915L156.702 880.477L157.527 880.377L156.965 880.99L157.065 881.815L156.452 881.254L155.627 881.353L156.188 880.74L156.089 879.915Z" fill="#6F6C7D"/>
<path d="M468.892 769.715L469.505 770.276L470.33 770.177L469.769 770.79L469.868 771.615L469.255 771.053L468.43 771.153L468.992 770.54L468.892 769.715Z" fill="#6F6C7D"/>
<path d="M575.005 946.22L575.618 946.781L576.443 946.682L575.881 947.295L575.981 948.12L575.368 947.558L574.543 947.658L575.105 947.045L575.005 946.22Z" fill="white"/>
<path d="M635.915 782.704L636.528 783.266L637.353 783.166L636.792 783.779L636.891 784.604L636.278 784.043L635.453 784.142L636.015 783.529L635.915 782.704Z" fill="white"/>
<path d="M553.215 653.477L553.828 654.038L554.653 653.938L554.091 654.551L554.191 655.377L553.578 654.815L552.753 654.915L553.314 654.302L553.215 653.477Z" fill="white"/>
<path d="M299.111 673.889L299.724 674.45L300.549 674.35L299.988 674.963L300.088 675.789L299.475 675.227L298.649 675.327L299.211 674.714L299.111 673.889Z" fill="white"/>
<path d="M473.683 600.344L474.296 600.905L475.122 600.806L474.56 601.419L474.66 602.244L474.047 601.682L473.222 601.782L473.783 601.169L473.683 600.344Z" fill="white"/>
<path d="M675.856 499.623L676.469 500.185L677.295 500.085L676.733 500.698L676.833 501.523L676.22 500.962L675.394 501.061L675.956 500.448L675.856 499.623Z" fill="white"/>
<path d="M529.668 528.449L530.281 529.011L531.107 528.911L530.545 529.524L530.645 530.349L530.032 529.788L529.207 529.888L529.768 529.275L529.668 528.449Z" fill="white"/>
<g filter="url(#filter17_f_2037_43065)">
<path d="M400.266 639.072L400.879 639.634L401.704 639.534L401.143 640.147L401.242 640.972L400.629 640.411L399.804 640.511L400.366 639.898L400.266 639.072Z" fill="white"/>
</g>
<g filter="url(#filter18_f_2037_43065)">
<path d="M39.4886 669.737L40.1016 670.299L40.9269 670.199L40.3653 670.812L40.4651 671.637L39.8521 671.076L39.0268 671.176L39.5884 670.563L39.4886 669.737Z" fill="white"/>
</g>
<g filter="url(#filter19_f_2037_43065)">
<path d="M221.363 865.981L221.976 866.542L222.801 866.442L222.24 867.055L222.34 867.881L221.727 867.319L220.901 867.419L221.463 866.806L221.363 865.981Z" fill="white"/>
</g>
<g filter="url(#filter20_f_2037_43065)">
<path d="M409.457 853.339L410.07 853.9L410.895 853.801L410.334 854.414L410.433 855.239L409.82 854.677L408.995 854.777L409.557 854.164L409.457 853.339Z" fill="white"/>
</g>
<g filter="url(#filter21_f_2037_43065)">
<path d="M107.251 566.471L107.864 567.032L108.689 566.933L108.128 567.545L108.227 568.371L107.614 567.809L106.789 567.909L107.351 567.296L107.251 566.471Z" fill="white"/>
</g>
<g filter="url(#filter22_f_2037_43065)">
<path d="M29.7137 480.676L31.5934 482.398L34.1243 482.092L32.4022 483.971L32.7082 486.502L30.8285 484.78L28.2976 485.086L30.0197 483.206L29.7137 480.676Z" fill="#868592"/>
</g>
<g filter="url(#filter23_f_2037_43065)">
<path d="M116.44 823.958L118.32 825.68L120.851 825.374L119.129 827.254L119.435 829.785L117.555 828.062L115.024 828.368L116.746 826.489L116.44 823.958Z" fill="#868592"/>
</g>
<g filter="url(#filter24_f_2037_43065)">
<path d="M218.747 727.455L220.627 729.177L223.158 728.871L221.436 730.751L221.742 733.282L219.862 731.56L217.331 731.866L219.053 729.986L218.747 727.455Z" fill="#868592"/>
</g>
<g filter="url(#filter25_f_2037_43065)">
<path d="M1319.95 876L1321.83 877.722L1324.36 877.416L1322.64 879.296L1322.95 881.827L1321.07 880.104L1318.53 880.41L1320.26 878.531L1319.95 876Z" fill="white"/>
</g>
<g filter="url(#filter26_f_2037_43065)">
<path d="M1233.45 183.289L1235.33 185.011L1237.86 184.705L1236.14 186.585L1236.45 189.116L1234.57 187.394L1232.04 187.7L1233.76 185.82L1233.45 183.289Z" fill="white"/>
</g>
<g filter="url(#filter27_f_2037_43065)">
<path d="M475.95 822.003L477.829 823.725L480.36 823.419L478.638 825.299L478.944 827.829L477.064 826.107L474.533 826.413L476.256 824.534L475.95 822.003Z" fill="white"/>
</g>
<g filter="url(#filter28_f_2037_43065)">
<path d="M1011.45 435.289L1013.33 437.011L1015.86 436.705L1014.14 438.585L1014.45 441.116L1012.57 439.394L1010.04 439.7L1011.76 437.82L1011.45 435.289Z" fill="white"/>
</g>
<g filter="url(#filter29_f_2037_43065)">
<path d="M507.536 667.116L509.416 668.838L511.947 668.532L510.225 670.412L510.531 672.943L508.651 671.221L506.12 671.527L507.842 669.647L507.536 667.116Z" fill="#6E6B7C"/>
</g>
<g filter="url(#filter30_f_2037_43065)">
<path d="M349.807 576.535L351.687 578.257L354.218 577.951L352.496 579.831L352.802 582.362L350.922 580.64L348.391 580.946L350.113 579.066L349.807 576.535Z" fill="white"/>
</g>
<g filter="url(#filter31_f_2037_43065)">
<path d="M472.076 547.929L473.956 549.652L476.487 549.346L474.765 551.225L475.071 553.756L473.191 552.034L470.66 552.34L472.382 550.46L472.076 547.929Z" fill="white"/>
</g>
</g>
<path opacity="0.11" d="M831.909 58.6249C832.306 59.0121 832.314 59.648 831.927 60.0452C831.54 60.4425 830.904 60.4506 830.506 60.0634C830.109 59.6762 830.101 59.0403 830.488 58.643C830.875 58.2458 831.511 58.2377 831.909 58.6249Z" fill="white"/>
<path d="M838.096 56.9471C838.394 57.2374 838.4 57.7142 838.11 58.012C837.82 58.3099 837.343 58.316 837.045 58.0257C836.747 57.7353 836.741 57.2586 837.032 56.9607C837.322 56.6629 837.799 56.6568 838.096 56.9471Z" fill="white"/>
<path d="M842.605 76.0594C842.903 76.3497 842.909 76.8265 842.619 77.1243C842.329 77.4222 841.852 77.4283 841.554 77.138C841.256 76.8477 841.25 76.3708 841.54 76.073C841.831 75.7751 842.307 75.769 842.605 76.0594Z" fill="white"/>
<path d="M811.346 46.9949C811.643 47.2852 811.649 47.762 811.359 48.0599C811.069 48.3577 810.592 48.3638 810.294 48.0735C809.996 47.7832 809.99 47.3064 810.281 47.0086C810.571 46.7107 811.048 46.7046 811.346 46.9949Z" fill="white"/>
<path opacity="0.11" d="M801.956 21.0214C802.354 21.4086 802.362 22.0445 801.975 22.4417C801.587 22.8389 800.951 22.8471 800.554 22.4599C800.157 22.0727 800.149 21.4368 800.536 21.0395C800.923 20.6423 801.559 20.6342 801.956 21.0214Z" fill="white"/>
<path d="M787.42 22.2742C787.619 22.4676 787.623 22.7853 787.429 22.9837C787.236 23.1822 786.918 23.1863 786.72 22.9928C786.521 22.7994 786.517 22.4817 786.711 22.2832C786.904 22.0848 787.222 22.0807 787.42 22.2742Z" fill="white"/>
<path d="M844.491 43.5515C844.69 43.7449 844.694 44.0626 844.501 44.2611C844.307 44.4595 843.989 44.4636 843.791 44.2702C843.593 44.0767 843.588 43.759 843.782 43.5606C843.975 43.3621 844.293 43.3581 844.491 43.5515Z" fill="white"/>
<path d="M922.866 119.94C923.065 120.134 923.069 120.451 922.876 120.65C922.682 120.848 922.364 120.852 922.166 120.659C921.968 120.465 921.963 120.148 922.157 119.949C922.35 119.751 922.668 119.747 922.866 119.94Z" fill="white"/>
<path d="M943.126 177.548C943.325 177.741 943.329 178.059 943.135 178.257C942.942 178.456 942.624 178.46 942.426 178.266C942.227 178.073 942.223 177.755 942.417 177.557C942.61 177.358 942.928 177.354 943.126 177.548Z" fill="white"/>
<path d="M982.731 164.971C982.929 165.165 982.933 165.483 982.74 165.681C982.546 165.879 982.229 165.884 982.03 165.69C981.832 165.497 981.828 165.179 982.021 164.981C982.215 164.782 982.532 164.778 982.731 164.971Z" fill="white"/>
<path opacity="0.11" d="M788.736 14.4461C788.934 14.6395 788.938 14.9572 788.745 15.1556C788.551 15.3541 788.234 15.3581 788.035 15.1647C787.837 14.9713 787.833 14.6536 788.026 14.4551C788.219 14.2567 788.537 14.2526 788.736 14.4461Z" fill="white"/>
<path opacity="0.11" d="M856.395 29.9109C856.593 30.1043 856.597 30.422 856.404 30.6205C856.21 30.8189 855.893 30.823 855.694 30.6295C855.496 30.4361 855.492 30.1184 855.685 29.92C855.879 29.7215 856.196 29.7174 856.395 29.9109Z" fill="white"/>
<path opacity="0.11" d="M921.908 100.782C922.107 100.975 922.111 101.293 921.918 101.492C921.724 101.69 921.406 101.694 921.208 101.501C921.01 101.307 921.005 100.99 921.199 100.791C921.392 100.593 921.71 100.589 921.908 100.782Z" fill="white"/>
<path d="M787.558 60.9665C787.756 61.16 787.76 61.4777 787.567 61.6761C787.373 61.8746 787.056 61.8786 786.857 61.6852C786.659 61.4918 786.655 61.1741 786.848 60.9756C787.042 60.7772 787.359 60.7731 787.558 60.9665Z" fill="white"/>
<path d="M842.221 115.647C842.419 115.841 842.423 116.158 842.23 116.357C842.037 116.555 841.719 116.559 841.52 116.366C841.322 116.172 841.318 115.855 841.511 115.656C841.705 115.458 842.022 115.454 842.221 115.647Z" fill="white"/>
<path d="M795.351 4.06423C795.549 4.25766 795.553 4.57534 795.36 4.77379C795.166 4.97224 794.849 4.97629 794.65 4.78286C794.452 4.58942 794.448 4.27176 794.641 4.0733C794.835 3.87485 795.152 3.8708 795.351 4.06423Z" fill="white"/>
<path opacity="0.3" d="M802.445 58.6472C802.643 58.8406 802.647 59.1583 802.454 59.3568C802.26 59.5552 801.943 59.5593 801.744 59.3659C801.546 59.1724 801.542 58.8548 801.735 58.6563C801.928 58.4579 802.246 58.4538 802.445 58.6472Z" fill="white"/>
<path opacity="0.3" d="M808.122 3.19115C808.321 3.38458 808.325 3.70229 808.131 3.90074C807.938 4.09919 807.62 4.10324 807.422 3.90981C807.223 3.71637 807.219 3.39871 807.413 3.20026C807.606 3.00181 807.924 2.99771 808.122 3.19115Z" fill="white"/>
<path opacity="0.3" d="M956.779 190.152C956.977 190.346 956.981 190.663 956.788 190.862C956.594 191.06 956.277 191.064 956.078 190.871C955.88 190.677 955.876 190.36 956.069 190.161C956.262 189.963 956.58 189.959 956.779 190.152Z" fill="white"/>
<path opacity="0.11" d="M884.531 148.478C884.73 148.672 884.734 148.989 884.541 149.188C884.347 149.386 884.029 149.39 883.831 149.197C883.633 149.003 883.628 148.686 883.822 148.487C884.015 148.289 884.333 148.285 884.531 148.478Z" fill="white"/>
<path opacity="0.11" d="M962.139 165.236C962.337 165.43 962.341 165.747 962.148 165.946C961.955 166.144 961.637 166.148 961.438 165.955C961.24 165.761 961.236 165.444 961.429 165.245C961.623 165.047 961.94 165.043 962.139 165.236Z" fill="white"/>
<path opacity="0.3" d="M874.339 73.3446C874.736 73.7318 874.745 74.3677 874.357 74.7649C873.97 75.1621 873.334 75.1703 872.937 74.7831C872.54 74.3959 872.532 73.76 872.919 73.3627C873.306 72.9655 873.942 72.9574 874.339 73.3446Z" fill="white"/>
<path opacity="0.11" d="M885.04 104.803C885.438 105.19 885.446 105.826 885.059 106.223C884.671 106.62 884.035 106.628 883.638 106.241C883.241 105.854 883.233 105.218 883.62 104.821C884.007 104.424 884.643 104.415 885.04 104.803Z" fill="white"/>
<path d="M872.597 117.211C872.895 117.501 872.901 117.978 872.611 118.276C872.321 118.574 871.844 118.58 871.546 118.289C871.248 117.999 871.242 117.522 871.533 117.224C871.823 116.927 872.3 116.92 872.597 117.211Z" fill="white"/>
<path d="M884.587 55.286C884.885 55.5763 884.891 56.0531 884.6 56.3509C884.31 56.6488 883.833 56.6549 883.535 56.3645C883.238 56.0742 883.231 55.5974 883.522 55.2996C883.812 55.0017 884.289 54.9956 884.587 55.286Z" fill="white"/>
<path d="M1010.95 164.43C1011.24 164.721 1011.25 165.198 1010.96 165.495C1010.67 165.793 1010.19 165.799 1009.9 165.509C1009.6 165.219 1009.59 164.742 1009.88 164.444C1010.17 164.146 1010.65 164.14 1010.95 164.43Z" fill="white"/>
<path d="M862.352 93.2019C862.65 93.4922 862.656 93.969 862.366 94.2669C862.076 94.5647 861.599 94.5709 861.301 94.2805C861.003 93.9902 860.997 93.5134 861.287 93.2156C861.578 92.9177 862.055 92.9116 862.352 93.2019Z" fill="white"/>
<path d="M825.728 5.6287C826.026 5.91902 826.032 6.3958 825.742 6.69365C825.452 6.9915 824.975 6.99763 824.677 6.70731C824.379 6.417 824.373 5.94016 824.663 5.64232C824.954 5.34447 825.43 5.33838 825.728 5.6287Z" fill="white"/>
<path d="M931.389 78.4715C931.687 78.7618 931.693 79.2386 931.403 79.5365C931.113 79.8343 930.636 79.8404 930.338 79.5501C930.04 79.2598 930.034 78.783 930.324 78.4851C930.615 78.1873 931.092 78.1812 931.389 78.4715Z" fill="white"/>
<path d="M1002.83 195.775C1003.12 196.066 1003.13 196.542 1002.84 196.84C1002.55 197.138 1002.07 197.144 1001.77 196.854C1001.48 196.563 1001.47 196.087 1001.76 195.789C1002.05 195.491 1002.53 195.485 1002.83 195.775Z" fill="white"/>
<path d="M992.182 223.959C992.48 224.249 992.486 224.726 992.196 225.024C991.906 225.322 991.429 225.328 991.131 225.037C990.833 224.747 990.827 224.27 991.117 223.972C991.408 223.675 991.885 223.668 992.182 223.959Z" fill="white"/>
<path opacity="0.3" d="M902.609 145.762C903.006 146.149 903.014 146.785 902.627 147.182C902.24 147.579 901.604 147.587 901.207 147.2C900.809 146.813 900.801 146.177 901.188 145.78C901.576 145.383 902.212 145.374 902.609 145.762Z" fill="white"/>
<path d="M877.727 171.284C878.124 171.671 878.132 172.307 877.745 172.704C877.358 173.102 876.722 173.11 876.325 172.723C875.928 172.335 875.919 171.699 876.307 171.302C876.694 170.905 877.33 170.897 877.727 171.284Z" fill="white"/>
<path d="M928.831 155.898C929.129 156.189 929.135 156.665 928.845 156.963C928.554 157.261 928.077 157.267 927.78 156.977C927.482 156.687 927.476 156.21 927.766 155.912C928.056 155.614 928.533 155.608 928.831 155.898Z" fill="white"/>
<path opacity="0.3" d="M932.602 186.914C932.999 187.301 933.007 187.937 932.62 188.334C932.233 188.732 931.597 188.74 931.2 188.352C930.803 187.965 930.794 187.329 931.182 186.932C931.569 186.535 932.205 186.527 932.602 186.914Z" fill="white"/>
<path opacity="0.3" d="M993.072 196.079C993.469 196.466 993.477 197.102 993.09 197.499C992.703 197.897 992.067 197.905 991.669 197.518C991.272 197.13 991.264 196.494 991.651 196.097C992.038 195.7 992.674 195.692 993.072 196.079Z" fill="white"/>
<path opacity="0.3" d="M951.708 154.364C952.106 154.751 952.114 155.387 951.727 155.784C951.339 156.182 950.703 156.19 950.306 155.803C949.909 155.415 949.901 154.78 950.288 154.382C950.675 153.985 951.311 153.977 951.708 154.364Z" fill="white"/>
<path opacity="0.11" d="M967.819 192.498C968.216 192.885 968.224 193.521 967.837 193.918C967.45 194.315 966.814 194.324 966.417 193.936C966.019 193.549 966.011 192.913 966.398 192.516C966.786 192.119 967.421 192.111 967.819 192.498Z" fill="white"/>
<path opacity="0.3" d="M742.413 0.835769C742.811 1.22297 742.819 1.85891 742.432 2.25615C742.044 2.65339 741.409 2.66153 741.011 2.27433C740.614 1.88713 740.606 1.25122 740.993 0.853981C741.38 0.45674 742.016 0.448571 742.413 0.835769Z" fill="white"/>
<path opacity="0.11" d="M725.7 -1.43474C726.097 -1.04754 726.105 -0.411596 725.718 -0.0143544C725.331 0.382887 724.695 0.391019 724.297 0.00382053C723.9 -0.383378 723.892 -1.01929 724.279 -1.41653C724.666 -1.81377 725.302 -1.82194 725.7 -1.43474Z" fill="white"/>
<path opacity="0.11" d="M849.224 289.587C849.621 289.974 849.629 290.61 849.242 291.007C848.855 291.404 848.219 291.412 847.822 291.025C847.425 290.638 847.416 290.002 847.804 289.605C848.191 289.208 848.827 289.2 849.224 289.587Z" fill="white"/>
<path d="M855.413 287.908C855.711 288.198 855.717 288.675 855.427 288.973C855.136 289.271 854.659 289.277 854.362 288.987C854.064 288.696 854.058 288.219 854.348 287.922C854.638 287.624 855.115 287.618 855.413 287.908Z" fill="white"/>
<path d="M859.921 307.021C860.219 307.312 860.225 307.788 859.934 308.086C859.644 308.384 859.167 308.39 858.869 308.1C858.572 307.81 858.565 307.333 858.856 307.035C859.146 306.737 859.623 306.731 859.921 307.021Z" fill="white"/>
<path d="M828.66 277.957C828.958 278.247 828.964 278.724 828.674 279.022C828.383 279.32 827.906 279.326 827.609 279.035C827.311 278.745 827.305 278.268 827.595 277.97C827.885 277.673 828.362 277.667 828.66 277.957Z" fill="white"/>
<path opacity="0.11" d="M819.273 251.982C819.67 252.369 819.678 253.005 819.291 253.403C818.904 253.8 818.268 253.808 817.871 253.421C817.473 253.034 817.465 252.398 817.852 252C818.24 251.603 818.876 251.595 819.273 251.982Z" fill="white"/>
<path d="M804.737 253.234C804.935 253.428 804.939 253.745 804.746 253.944C804.552 254.142 804.235 254.146 804.036 253.953C803.838 253.759 803.834 253.442 804.027 253.243C804.22 253.045 804.538 253.041 804.737 253.234Z" fill="white"/>
<path d="M861.807 274.513C862.005 274.707 862.009 275.025 861.816 275.223C861.623 275.421 861.305 275.426 861.106 275.232C860.908 275.039 860.904 274.721 861.097 274.523C861.291 274.324 861.608 274.32 861.807 274.513Z" fill="white"/>
<path d="M940.182 350.901C940.38 351.095 940.384 351.412 940.191 351.611C939.998 351.809 939.68 351.813 939.481 351.62C939.283 351.426 939.279 351.109 939.472 350.91C939.666 350.712 939.983 350.708 940.182 350.901Z" fill="white"/>
<path d="M960.443 408.509C960.641 408.702 960.645 409.02 960.452 409.218C960.258 409.417 959.941 409.421 959.742 409.227C959.544 409.034 959.54 408.716 959.733 408.518C959.926 408.319 960.244 408.315 960.443 408.509Z" fill="white"/>
<path d="M1000.05 395.93C1000.24 396.124 1000.25 396.442 1000.06 396.64C999.862 396.838 999.544 396.843 999.346 396.649C999.147 396.456 999.143 396.138 999.337 395.939C999.53 395.741 999.848 395.737 1000.05 395.93Z" fill="white"/>
<path d="M733.334 166.815C733.533 167.009 733.537 167.326 733.343 167.525C733.15 167.723 732.832 167.727 732.634 167.534C732.435 167.34 732.431 167.023 732.625 166.824C732.818 166.626 733.136 166.622 733.334 166.815Z" fill="white"/>
<path opacity="0.11" d="M709.023 180.974C709.221 181.168 709.225 181.485 709.032 181.684C708.838 181.882 708.521 181.886 708.322 181.693C708.124 181.5 708.12 181.182 708.313 180.983C708.507 180.785 708.824 180.781 709.023 180.974Z" fill="white"/>
<path opacity="0.11" d="M701.625 157.638C701.824 157.832 701.828 158.15 701.634 158.348C701.441 158.546 701.123 158.551 700.925 158.357C700.726 158.164 700.722 157.846 700.916 157.648C701.109 157.449 701.427 157.445 701.625 157.638Z" fill="white"/>
<path opacity="0.11" d="M734.513 147.631C734.711 147.824 734.715 148.142 734.522 148.34C734.329 148.539 734.011 148.543 733.812 148.349C733.614 148.156 733.61 147.838 733.803 147.64C733.997 147.441 734.314 147.437 734.513 147.631Z" fill="white"/>
<path opacity="0.11" d="M806.052 245.408C806.25 245.601 806.255 245.919 806.061 246.118C805.868 246.316 805.55 246.32 805.352 246.127C805.153 245.933 805.149 245.616 805.342 245.417C805.536 245.219 805.854 245.215 806.052 245.408Z" fill="white"/>
<path opacity="0.11" d="M873.709 260.871C873.908 261.064 873.912 261.382 873.718 261.58C873.525 261.779 873.207 261.783 873.009 261.59C872.81 261.396 872.806 261.078 873 260.88C873.193 260.681 873.511 260.677 873.709 260.871Z" fill="white"/>
<path opacity="0.11" d="M939.224 331.744C939.422 331.937 939.426 332.255 939.233 332.453C939.04 332.652 938.722 332.656 938.523 332.463C938.325 332.269 938.321 331.951 938.514 331.753C938.708 331.555 939.025 331.55 939.224 331.744Z" fill="white"/>
<path opacity="0.3" d="M741.112 191.924C741.31 192.117 741.314 192.435 741.121 192.633C740.927 192.832 740.61 192.836 740.411 192.642C740.213 192.449 740.209 192.131 740.402 191.933C740.595 191.734 740.913 191.73 741.112 191.924Z" fill="white"/>
<path d="M804.874 291.929C805.073 292.123 805.077 292.441 804.883 292.639C804.69 292.837 804.372 292.842 804.174 292.648C803.975 292.455 803.971 292.137 804.165 291.939C804.358 291.74 804.676 291.736 804.874 291.929Z" fill="white"/>
<path d="M859.535 346.609C859.734 346.803 859.738 347.12 859.544 347.319C859.351 347.517 859.033 347.521 858.835 347.328C858.636 347.134 858.632 346.817 858.826 346.618C859.019 346.42 859.337 346.416 859.535 346.609Z" fill="white"/>
<path d="M812.667 235.027C812.866 235.221 812.87 235.538 812.676 235.737C812.483 235.935 812.165 235.939 811.967 235.746C811.768 235.552 811.764 235.235 811.958 235.036C812.151 234.838 812.469 234.834 812.667 235.027Z" fill="white"/>
<path opacity="0.3" d="M787.501 210.498C787.7 210.691 787.704 211.009 787.51 211.207C787.317 211.406 786.999 211.41 786.801 211.216C786.602 211.023 786.598 210.705 786.792 210.507C786.985 210.308 787.303 210.304 787.501 210.498Z" fill="white"/>
<path opacity="0.11" d="M736.301 204.056C736.499 204.25 736.504 204.568 736.31 204.766C736.117 204.964 735.799 204.968 735.601 204.775C735.402 204.582 735.398 204.264 735.591 204.065C735.785 203.867 736.103 203.863 736.301 204.056Z" fill="white"/>
<path opacity="0.3" d="M819.759 289.609C819.957 289.803 819.962 290.12 819.768 290.319C819.575 290.517 819.257 290.521 819.059 290.328C818.86 290.134 818.856 289.817 819.049 289.618C819.243 289.42 819.561 289.416 819.759 289.609Z" fill="white"/>
<path opacity="0.3" d="M825.439 234.154C825.637 234.347 825.641 234.665 825.448 234.864C825.254 235.062 824.937 235.066 824.738 234.873C824.54 234.679 824.536 234.362 824.729 234.163C824.923 233.965 825.24 233.961 825.439 234.154Z" fill="white"/>
<path opacity="0.3" d="M785.442 188.16C785.64 188.353 785.644 188.671 785.451 188.869C785.257 189.068 784.94 189.072 784.741 188.879C784.543 188.685 784.539 188.367 784.732 188.169C784.925 187.971 785.243 187.966 785.442 188.16Z" fill="white"/>
<path opacity="0.3" d="M751.54 202.083C751.739 202.276 751.743 202.594 751.549 202.792C751.356 202.991 751.038 202.995 750.84 202.801C750.641 202.608 750.637 202.29 750.831 202.092C751.024 201.893 751.342 201.889 751.54 202.083Z" fill="white"/>
<path opacity="0.3" d="M974.094 421.113C974.292 421.306 974.297 421.624 974.103 421.823C973.91 422.021 973.592 422.025 973.394 421.832C973.195 421.638 973.191 421.321 973.384 421.122C973.578 420.924 973.896 420.92 974.094 421.113Z" fill="white"/>
<path opacity="0.11" d="M901.848 379.437C902.046 379.631 902.05 379.948 901.857 380.147C901.664 380.345 901.346 380.349 901.147 380.156C900.949 379.962 900.945 379.645 901.138 379.446C901.332 379.248 901.649 379.244 901.848 379.437Z" fill="white"/>
<path opacity="0.11" d="M979.454 396.196C979.653 396.389 979.657 396.707 979.463 396.906C979.27 397.104 978.952 397.108 978.754 396.915C978.555 396.721 978.551 396.404 978.745 396.205C978.938 396.007 979.256 396.003 979.454 396.196Z" fill="white"/>
<path opacity="0.3" d="M891.657 304.306C892.054 304.693 892.062 305.329 891.675 305.726C891.288 306.123 890.652 306.131 890.254 305.744C889.857 305.357 889.849 304.721 890.236 304.324C890.623 303.926 891.259 303.918 891.657 304.306Z" fill="white"/>
<path opacity="0.11" d="M902.356 335.765C902.753 336.153 902.761 336.789 902.374 337.186C901.987 337.583 901.351 337.591 900.954 337.204C900.556 336.817 900.548 336.181 900.935 335.784C901.323 335.386 901.959 335.378 902.356 335.765Z" fill="white"/>
<path d="M889.914 348.173C890.212 348.463 890.218 348.94 889.928 349.238C889.637 349.535 889.16 349.542 888.863 349.251C888.565 348.961 888.559 348.484 888.849 348.186C889.139 347.888 889.616 347.882 889.914 348.173Z" fill="white"/>
<path d="M901.902 286.25C902.2 286.54 902.206 287.017 901.916 287.315C901.625 287.613 901.149 287.619 900.851 287.328C900.553 287.038 900.547 286.561 900.837 286.263C901.127 285.966 901.604 285.959 901.902 286.25Z" fill="white"/>
<path d="M1028.26 395.392C1028.56 395.683 1028.57 396.16 1028.28 396.457C1027.98 396.755 1027.51 396.761 1027.21 396.471C1026.91 396.181 1026.91 395.704 1027.2 395.406C1027.49 395.108 1027.96 395.102 1028.26 395.392Z" fill="white"/>
<path d="M788.988 174.091C789.286 174.381 789.292 174.858 789.002 175.156C788.711 175.453 788.235 175.46 787.937 175.169C787.639 174.879 787.633 174.402 787.923 174.104C788.213 173.806 788.69 173.8 788.988 174.091Z" fill="white"/>
<path d="M733.12 135.757C733.418 136.047 733.424 136.524 733.134 136.822C732.843 137.119 732.366 137.126 732.069 136.835C731.771 136.545 731.765 136.068 732.055 135.77C732.345 135.472 732.822 135.466 733.12 135.757Z" fill="white"/>
<path d="M712.99 144.179C713.288 144.47 713.294 144.947 713.004 145.244C712.713 145.542 712.237 145.548 711.939 145.258C711.641 144.968 711.635 144.491 711.925 144.193C712.215 143.895 712.692 143.889 712.99 144.179Z" fill="white"/>
<path d="M879.668 324.163C879.966 324.453 879.972 324.93 879.681 325.228C879.391 325.526 878.914 325.532 878.616 325.241C878.319 324.951 878.313 324.474 878.603 324.177C878.893 323.879 879.37 323.873 879.668 324.163Z" fill="white"/>
<path d="M843.043 236.592C843.341 236.882 843.347 237.359 843.056 237.657C842.766 237.954 842.289 237.961 841.991 237.67C841.694 237.38 841.688 236.903 841.978 236.605C842.268 236.307 842.745 236.301 843.043 236.592Z" fill="white"/>
<path d="M948.705 309.434C949.003 309.725 949.009 310.201 948.719 310.499C948.428 310.797 947.951 310.803 947.654 310.513C947.356 310.223 947.35 309.746 947.64 309.448C947.93 309.15 948.407 309.144 948.705 309.434Z" fill="white"/>
<path d="M1020.14 426.738C1020.44 427.028 1020.45 427.505 1020.16 427.803C1019.86 428.101 1019.39 428.107 1019.09 427.817C1018.79 427.526 1018.79 427.05 1019.08 426.752C1019.37 426.454 1019.84 426.448 1020.14 426.738Z" fill="white"/>
<path d="M1009.5 454.92C1009.8 455.21 1009.8 455.687 1009.51 455.985C1009.22 456.283 1008.75 456.289 1008.45 455.998C1008.15 455.708 1008.14 455.231 1008.43 454.933C1008.72 454.636 1009.2 454.629 1009.5 454.92Z" fill="white"/>
<path opacity="0.3" d="M919.924 376.724C920.321 377.112 920.33 377.748 919.942 378.145C919.555 378.542 918.919 378.55 918.522 378.163C918.125 377.776 918.117 377.14 918.504 376.743C918.891 376.345 919.527 376.337 919.924 376.724Z" fill="white"/>
<path d="M895.041 402.246C895.439 402.633 895.447 403.269 895.06 403.666C894.672 404.064 894.036 404.072 893.639 403.684C893.242 403.297 893.234 402.661 893.621 402.264C894.008 401.867 894.644 401.859 895.041 402.246Z" fill="white"/>
<path d="M946.146 386.859C946.444 387.15 946.45 387.626 946.16 387.924C945.87 388.222 945.393 388.228 945.095 387.938C944.797 387.647 944.791 387.171 945.081 386.873C945.372 386.575 945.848 386.569 946.146 386.859Z" fill="white"/>
<path opacity="0.3" d="M949.917 417.876C950.315 418.263 950.323 418.899 949.936 419.296C949.548 419.693 948.912 419.702 948.515 419.314C948.118 418.927 948.11 418.291 948.497 417.894C948.884 417.497 949.52 417.489 949.917 417.876Z" fill="white"/>
<path opacity="0.3" d="M1010.39 427.041C1010.78 427.428 1010.79 428.064 1010.4 428.461C1010.02 428.858 1009.38 428.867 1008.98 428.479C1008.59 428.092 1008.58 427.456 1008.97 427.059C1009.35 426.662 1009.99 426.654 1010.39 427.041Z" fill="white"/>
<path opacity="0.3" d="M969.025 385.325C969.422 385.712 969.43 386.348 969.043 386.745C968.656 387.143 968.02 387.151 967.623 386.764C967.225 386.376 967.217 385.74 967.604 385.343C967.992 384.946 968.628 384.938 969.025 385.325Z" fill="white"/>
<path opacity="0.3" d="M768.629 178.081C769.026 178.468 769.035 179.104 768.647 179.501C768.26 179.899 767.624 179.907 767.227 179.519C766.83 179.132 766.822 178.496 767.209 178.099C767.596 177.702 768.232 177.694 768.629 178.081Z" fill="white"/>
<path opacity="0.3" d="M720.233 169.468C720.63 169.855 720.638 170.491 720.251 170.888C719.864 171.285 719.228 171.293 718.831 170.906C718.433 170.519 718.425 169.883 718.812 169.486C719.2 169.089 719.836 169.08 720.233 169.468Z" fill="white"/>
<path opacity="0.11" d="M985.134 423.459C985.531 423.846 985.54 424.482 985.152 424.879C984.765 425.276 984.129 425.285 983.732 424.897C983.335 424.51 983.327 423.874 983.714 423.477C984.101 423.08 984.737 423.072 985.134 423.459Z" fill="white"/>
<path opacity="0.3" d="M759.729 231.799C760.126 232.186 760.134 232.822 759.747 233.219C759.36 233.616 758.724 233.624 758.327 233.237C757.929 232.85 757.921 232.214 758.308 231.817C758.696 231.42 759.332 231.411 759.729 231.799Z" fill="white"/>
<path opacity="0.11" d="M743.013 229.528C743.41 229.915 743.418 230.551 743.031 230.949C742.644 231.346 742.008 231.354 741.611 230.967C741.214 230.58 741.205 229.944 741.593 229.546C741.98 229.149 742.616 229.141 743.013 229.528Z" fill="white"/>
<path opacity="0.3" d="M762.568 203.719C762.965 204.106 762.973 204.742 762.586 205.139C762.199 205.536 761.563 205.544 761.166 205.157C760.768 204.77 760.76 204.134 761.147 203.737C761.535 203.34 762.17 203.331 762.568 203.719Z" fill="white"/>
<path d="M784.682 225.977C784.98 226.268 784.986 226.744 784.696 227.042C784.406 227.34 783.929 227.346 783.631 227.056C783.333 226.766 783.327 226.289 783.617 225.991C783.908 225.693 784.385 225.687 784.682 225.977Z" fill="white"/>
<path opacity="0.11" d="M1093.16 417.514C1093.56 417.902 1093.57 418.538 1093.18 418.935C1092.79 419.332 1092.16 419.34 1091.76 418.953C1091.36 418.566 1091.36 417.93 1091.74 417.533C1092.13 417.135 1092.77 417.127 1093.16 417.514Z" fill="white"/>
<path d="M1099.35 415.837C1099.65 416.127 1099.66 416.604 1099.37 416.902C1099.08 417.2 1098.6 417.206 1098.3 416.915C1098 416.625 1098 416.148 1098.29 415.85C1098.58 415.553 1099.05 415.546 1099.35 415.837Z" fill="white"/>
<path d="M1103.86 434.948C1104.16 435.238 1104.16 435.715 1103.87 436.013C1103.58 436.311 1103.11 436.317 1102.81 436.027C1102.51 435.736 1102.5 435.26 1102.8 434.962C1103.09 434.664 1103.56 434.658 1103.86 434.948Z" fill="white"/>
<path d="M1072.6 405.885C1072.9 406.175 1072.9 406.652 1072.61 406.95C1072.32 407.247 1071.85 407.253 1071.55 406.963C1071.25 406.673 1071.24 406.196 1071.53 405.898C1071.82 405.6 1072.3 405.594 1072.6 405.885Z" fill="white"/>
<path opacity="0.11" d="M1063.21 379.911C1063.61 380.298 1063.62 380.934 1063.23 381.331C1062.84 381.729 1062.21 381.737 1061.81 381.35C1061.41 380.962 1061.4 380.326 1061.79 379.929C1062.18 379.532 1062.81 379.524 1063.21 379.911Z" fill="white"/>
<path d="M1048.68 381.162C1048.87 381.355 1048.88 381.673 1048.68 381.871C1048.49 382.07 1048.17 382.074 1047.97 381.881C1047.78 381.687 1047.77 381.369 1047.97 381.171C1048.16 380.972 1048.48 380.968 1048.68 381.162Z" fill="white"/>
<path d="M1105.75 402.441C1105.94 402.635 1105.95 402.952 1105.75 403.151C1105.56 403.349 1105.24 403.353 1105.04 403.16C1104.85 402.966 1104.84 402.649 1105.04 402.45C1105.23 402.252 1105.55 402.248 1105.75 402.441Z" fill="white"/>
<path d="M1184.12 478.83C1184.32 479.023 1184.32 479.341 1184.13 479.539C1183.94 479.738 1183.62 479.742 1183.42 479.548C1183.22 479.355 1183.22 479.037 1183.41 478.839C1183.61 478.64 1183.92 478.636 1184.12 478.83Z" fill="white"/>
<path d="M1204.38 536.437C1204.58 536.631 1204.58 536.948 1204.39 537.147C1204.2 537.345 1203.88 537.349 1203.68 537.156C1203.48 536.962 1203.48 536.645 1203.67 536.446C1203.87 536.248 1204.18 536.244 1204.38 536.437Z" fill="white"/>
<path d="M1243.99 523.86C1244.18 524.054 1244.19 524.371 1243.99 524.57C1243.8 524.768 1243.48 524.772 1243.29 524.579C1243.09 524.385 1243.08 524.068 1243.28 523.869C1243.47 523.671 1243.79 523.667 1243.99 523.86Z" fill="white"/>
<path d="M977.272 294.744C977.47 294.937 977.474 295.255 977.281 295.453C977.087 295.652 976.77 295.656 976.571 295.463C976.373 295.269 976.369 294.951 976.562 294.753C976.756 294.555 977.073 294.55 977.272 294.744Z" fill="white"/>
<path opacity="0.11" d="M952.961 308.902C953.16 309.096 953.164 309.413 952.97 309.612C952.777 309.81 952.459 309.814 952.261 309.621C952.062 309.427 952.058 309.11 952.252 308.911C952.445 308.713 952.763 308.709 952.961 308.902Z" fill="white"/>
<path opacity="0.11" d="M945.565 285.565C945.763 285.759 945.767 286.076 945.574 286.275C945.38 286.473 945.063 286.477 944.864 286.284C944.666 286.09 944.662 285.773 944.855 285.574C945.049 285.376 945.366 285.372 945.565 285.565Z" fill="white"/>
<path opacity="0.11" d="M978.452 275.559C978.651 275.753 978.655 276.07 978.461 276.269C978.268 276.467 977.95 276.471 977.752 276.278C977.553 276.085 977.549 275.767 977.743 275.568C977.936 275.37 978.254 275.366 978.452 275.559Z" fill="white"/>
<path opacity="0.11" d="M1049.99 373.336C1050.19 373.529 1050.19 373.847 1050 374.045C1049.81 374.244 1049.49 374.248 1049.29 374.054C1049.09 373.861 1049.09 373.543 1049.28 373.345C1049.47 373.146 1049.79 373.142 1049.99 373.336Z" fill="white"/>
<path opacity="0.11" d="M1117.64 388.799C1117.84 388.992 1117.84 389.31 1117.65 389.508C1117.46 389.707 1117.14 389.711 1116.94 389.517C1116.74 389.324 1116.74 389.006 1116.93 388.808C1117.13 388.609 1117.44 388.605 1117.64 388.799Z" fill="white"/>
<path opacity="0.11" d="M1183.16 459.672C1183.36 459.865 1183.37 460.183 1183.17 460.381C1182.98 460.58 1182.66 460.584 1182.46 460.39C1182.26 460.197 1182.26 459.879 1182.45 459.681C1182.65 459.482 1182.96 459.478 1183.16 459.672Z" fill="white"/>
<path opacity="0.3" d="M985.051 319.851C985.249 320.045 985.254 320.362 985.06 320.561C984.867 320.759 984.549 320.763 984.351 320.57C984.152 320.377 984.148 320.059 984.341 319.86C984.535 319.662 984.853 319.658 985.051 319.851Z" fill="white"/>
<path d="M1048.81 419.856C1049.01 420.05 1049.01 420.367 1048.82 420.566C1048.63 420.764 1048.31 420.768 1048.11 420.575C1047.91 420.381 1047.91 420.064 1048.1 419.865C1048.3 419.667 1048.61 419.663 1048.81 419.856Z" fill="white"/>
<path d="M1103.48 474.537C1103.67 474.73 1103.68 475.048 1103.48 475.246C1103.29 475.445 1102.97 475.449 1102.78 475.256C1102.58 475.062 1102.57 474.744 1102.77 474.546C1102.96 474.347 1103.28 474.343 1103.48 474.537Z" fill="white"/>
<path d="M1056.6 362.954C1056.8 363.147 1056.81 363.465 1056.61 363.663C1056.42 363.862 1056.1 363.866 1055.9 363.673C1055.7 363.479 1055.7 363.161 1055.89 362.963C1056.09 362.764 1056.41 362.76 1056.6 362.954Z" fill="white"/>
<path opacity="0.3" d="M1031.44 338.427C1031.64 338.62 1031.64 338.938 1031.45 339.136C1031.26 339.334 1030.94 339.339 1030.74 339.145C1030.54 338.952 1030.54 338.634 1030.73 338.436C1030.92 338.237 1031.24 338.233 1031.44 338.427Z" fill="white"/>
<path opacity="0.11" d="M980.24 331.985C980.439 332.179 980.443 332.496 980.25 332.695C980.056 332.893 979.738 332.897 979.54 332.704C979.342 332.51 979.337 332.193 979.531 331.994C979.724 331.796 980.042 331.792 980.24 331.985Z" fill="white"/>
<path opacity="0.3" d="M1063.7 417.538C1063.9 417.731 1063.9 418.049 1063.71 418.247C1063.51 418.446 1063.2 418.45 1063 418.257C1062.8 418.063 1062.8 417.745 1062.99 417.547C1063.18 417.348 1063.5 417.344 1063.7 417.538Z" fill="white"/>
<path opacity="0.3" d="M1069.38 362.082C1069.58 362.275 1069.58 362.593 1069.39 362.791C1069.19 362.99 1068.88 362.994 1068.68 362.8C1068.48 362.607 1068.48 362.289 1068.67 362.091C1068.86 361.892 1069.18 361.888 1069.38 362.082Z" fill="white"/>
<path opacity="0.3" d="M1029.38 316.088C1029.58 316.281 1029.58 316.599 1029.39 316.797C1029.2 316.996 1028.88 317 1028.68 316.806C1028.48 316.613 1028.48 316.295 1028.67 316.097C1028.86 315.898 1029.18 315.894 1029.38 316.088Z" fill="white"/>
<path opacity="0.3" d="M995.48 330.011C995.678 330.205 995.682 330.523 995.489 330.721C995.295 330.919 994.978 330.924 994.779 330.73C994.581 330.537 994.577 330.219 994.77 330.021C994.964 329.822 995.281 329.818 995.48 330.011Z" fill="white"/>
<path opacity="0.3" d="M1218.03 549.042C1218.23 549.235 1218.24 549.553 1218.04 549.751C1217.85 549.95 1217.53 549.954 1217.33 549.76C1217.13 549.567 1217.13 549.249 1217.32 549.051C1217.52 548.852 1217.84 548.848 1218.03 549.042Z" fill="white"/>
<path opacity="0.11" d="M1145.79 507.366C1145.99 507.559 1145.99 507.877 1145.8 508.076C1145.6 508.274 1145.29 508.278 1145.09 508.085C1144.89 507.891 1144.88 507.573 1145.08 507.375C1145.27 507.177 1145.59 507.173 1145.79 507.366Z" fill="white"/>
<path opacity="0.11" d="M1223.39 524.125C1223.59 524.318 1223.6 524.636 1223.4 524.834C1223.21 525.033 1222.89 525.037 1222.69 524.843C1222.49 524.65 1222.49 524.332 1222.68 524.134C1222.88 523.935 1223.2 523.931 1223.39 524.125Z" fill="white"/>
<path opacity="0.3" d="M1135.59 432.233C1135.99 432.62 1136 433.256 1135.61 433.654C1135.23 434.051 1134.59 434.059 1134.19 433.672C1133.79 433.285 1133.79 432.649 1134.17 432.251C1134.56 431.854 1135.2 431.846 1135.59 432.233Z" fill="white"/>
<path opacity="0.11" d="M1146.3 463.694C1146.69 464.081 1146.7 464.717 1146.31 465.115C1145.93 465.512 1145.29 465.52 1144.89 465.133C1144.5 464.746 1144.49 464.11 1144.87 463.712C1145.26 463.315 1145.9 463.307 1146.3 463.694Z" fill="white"/>
<path d="M1133.85 476.1C1134.15 476.391 1134.16 476.867 1133.87 477.165C1133.58 477.463 1133.1 477.469 1132.8 477.179C1132.5 476.889 1132.5 476.412 1132.79 476.114C1133.08 475.816 1133.56 475.81 1133.85 476.1Z" fill="white"/>
<path d="M1145.84 414.177C1146.14 414.467 1146.14 414.944 1145.85 415.242C1145.56 415.539 1145.09 415.545 1144.79 415.255C1144.49 414.965 1144.49 414.488 1144.78 414.19C1145.07 413.892 1145.54 413.886 1145.84 414.177Z" fill="white"/>
<path d="M1272.2 508.079C1272.5 508.369 1272.5 508.846 1272.21 509.144C1271.92 509.442 1271.45 509.448 1271.15 509.157C1270.85 508.867 1270.84 508.39 1271.14 508.093C1271.43 507.795 1271.9 507.789 1272.2 508.079Z" fill="white"/>
<path d="M1032.93 302.018C1033.22 302.309 1033.23 302.785 1032.94 303.083C1032.65 303.381 1032.17 303.387 1031.88 303.097C1031.58 302.807 1031.57 302.33 1031.86 302.032C1032.15 301.734 1032.63 301.728 1032.93 302.018Z" fill="white"/>
<path d="M977.058 263.685C977.356 263.976 977.362 264.452 977.072 264.75C976.782 265.048 976.305 265.054 976.007 264.764C975.709 264.474 975.703 263.997 975.993 263.699C976.284 263.401 976.761 263.395 977.058 263.685Z" fill="white"/>
<path d="M956.929 272.107C957.227 272.398 957.233 272.874 956.943 273.172C956.653 273.47 956.176 273.476 955.878 273.186C955.58 272.896 955.574 272.419 955.865 272.121C956.155 271.823 956.632 271.817 956.929 272.107Z" fill="white"/>
<path d="M1123.61 452.093C1123.91 452.383 1123.91 452.86 1123.62 453.158C1123.33 453.455 1122.85 453.461 1122.56 453.171C1122.26 452.881 1122.25 452.404 1122.54 452.106C1122.83 451.808 1123.31 451.802 1123.61 452.093Z" fill="white"/>
<path d="M1086.98 364.519C1087.28 364.81 1087.29 365.286 1086.99 365.584C1086.7 365.882 1086.23 365.888 1085.93 365.598C1085.63 365.308 1085.63 364.831 1085.92 364.533C1086.21 364.235 1086.68 364.229 1086.98 364.519Z" fill="white"/>
<path d="M1192.64 437.363C1192.94 437.653 1192.95 438.13 1192.66 438.428C1192.37 438.726 1191.89 438.732 1191.59 438.442C1191.3 438.151 1191.29 437.675 1191.58 437.377C1191.87 437.079 1192.35 437.073 1192.64 437.363Z" fill="white"/>
<path d="M1264.08 539.425C1264.38 539.715 1264.38 540.192 1264.09 540.49C1263.8 540.787 1263.33 540.794 1263.03 540.503C1262.73 540.213 1262.72 539.736 1263.01 539.438C1263.31 539.14 1263.78 539.134 1264.08 539.425Z" fill="white"/>
<path d="M1253.44 582.847C1253.74 583.138 1253.74 583.615 1253.45 583.912C1253.16 584.21 1252.68 584.216 1252.39 583.926C1252.09 583.636 1252.08 583.159 1252.37 582.861C1252.66 582.563 1253.14 582.557 1253.44 582.847Z" fill="white"/>
<path opacity="0.3" d="M1163.86 504.651C1164.25 505.038 1164.26 505.674 1163.87 506.072C1163.49 506.469 1162.85 506.477 1162.45 506.09C1162.06 505.703 1162.05 505.067 1162.44 504.669C1162.82 504.272 1163.46 504.264 1163.86 504.651Z" fill="white"/>
<path d="M1138.98 530.174C1139.38 530.561 1139.39 531.197 1139 531.594C1138.61 531.991 1137.98 531.999 1137.58 531.612C1137.18 531.225 1137.17 530.589 1137.56 530.192C1137.95 529.795 1138.58 529.786 1138.98 530.174Z" fill="white"/>
<path d="M1078.72 776.23C1079.11 776.618 1079.12 777.253 1078.73 777.651C1078.35 778.048 1077.71 778.056 1077.31 777.669C1076.92 777.282 1076.91 776.646 1077.29 776.249C1077.68 775.851 1078.32 775.843 1078.72 776.23Z" fill="white"/>
<path d="M1190.09 514.787C1190.38 515.077 1190.39 515.554 1190.1 515.852C1189.81 516.15 1189.33 516.156 1189.04 515.865C1188.74 515.575 1188.73 515.098 1189.02 514.801C1189.31 514.503 1189.79 514.497 1190.09 514.787Z" fill="white"/>
<path opacity="0.3" d="M1193.86 545.804C1194.25 546.191 1194.26 546.827 1193.87 547.224C1193.49 547.621 1192.85 547.629 1192.45 547.242C1192.06 546.855 1192.05 546.219 1192.44 545.822C1192.82 545.425 1193.46 545.416 1193.86 545.804Z" fill="white"/>
<path opacity="0.3" d="M1254.33 554.97C1254.72 555.357 1254.73 555.993 1254.34 556.39C1253.96 556.787 1253.32 556.795 1252.92 556.408C1252.53 556.021 1252.52 555.385 1252.91 554.988C1253.29 554.591 1253.93 554.582 1254.33 554.97Z" fill="white"/>
<path opacity="0.3" d="M1212.96 513.253C1213.36 513.64 1213.37 514.276 1212.98 514.673C1212.6 515.07 1211.96 515.079 1211.56 514.691C1211.16 514.304 1211.16 513.668 1211.54 513.271C1211.93 512.874 1212.57 512.866 1212.96 513.253Z" fill="white"/>
<path opacity="0.3" d="M1012.57 306.01C1012.96 306.397 1012.97 307.033 1012.59 307.43C1012.2 307.827 1011.56 307.835 1011.17 307.448C1010.77 307.061 1010.76 306.425 1011.15 306.028C1011.53 305.631 1012.17 305.622 1012.57 306.01Z" fill="white"/>
<path opacity="0.3" d="M964.171 297.394C964.568 297.782 964.577 298.418 964.189 298.815C963.802 299.212 963.166 299.22 962.769 298.833C962.372 298.446 962.364 297.81 962.751 297.413C963.138 297.015 963.774 297.007 964.171 297.394Z" fill="white"/>
<path opacity="0.11" d="M1229.07 551.388C1229.47 551.775 1229.48 552.411 1229.09 552.808C1228.7 553.205 1228.07 553.213 1227.67 552.826C1227.27 552.439 1227.27 551.803 1227.65 551.406C1228.04 551.008 1228.68 551 1229.07 551.388Z" fill="white"/>
<path opacity="0.3" d="M1003.67 359.727C1004.06 360.115 1004.07 360.751 1003.69 361.148C1003.3 361.545 1002.66 361.553 1002.27 361.166C1001.87 360.779 1001.86 360.143 1002.25 359.746C1002.63 359.348 1003.27 359.34 1003.67 359.727Z" fill="white"/>
<path opacity="0.11" d="M986.952 357.455C987.35 357.842 987.358 358.478 986.971 358.875C986.583 359.273 985.948 359.281 985.55 358.893C985.153 358.506 985.145 357.87 985.532 357.473C985.919 357.076 986.555 357.068 986.952 357.455Z" fill="white"/>
<path opacity="0.3" d="M1006.51 331.646C1006.9 332.034 1006.91 332.669 1006.52 333.067C1006.14 333.464 1005.5 333.472 1005.1 333.085C1004.71 332.698 1004.7 332.062 1005.08 331.665C1005.47 331.267 1006.11 331.259 1006.51 331.646Z" fill="white"/>
<path d="M1028.62 353.905C1028.92 354.195 1028.92 354.672 1028.63 354.97C1028.34 355.268 1027.87 355.274 1027.57 354.984C1027.27 354.693 1027.26 354.217 1027.55 353.919C1027.85 353.621 1028.32 353.615 1028.62 353.905Z" fill="white"/>
<defs>
<filter id="filter0_f_2037_43065" x="248.255" y="307.862" width="4.03369" height="4.0332" filterUnits="userSpaceOnUse" color-interpolation-filters="sRGB">
<feFlood flood-opacity="0" result="BackgroundImageFix"/>
<feBlend mode="normal" in="SourceGraphic" in2="BackgroundImageFix" result="shape"/>
<feGaussianBlur stdDeviation="0.5" result="effect1_foregroundBlur_2037_43065"/>
</filter>
<filter id="filter1_f_2037_43065" x="972.866" y="198.12" width="4.03418" height="4.0332" filterUnits="userSpaceOnUse" color-interpolation-filters="sRGB">
<feFlood flood-opacity="0" result="BackgroundImageFix"/>
<feBlend mode="normal" in="SourceGraphic" in2="BackgroundImageFix" result="shape"/>
<feGaussianBlur stdDeviation="0.5" result="effect1_foregroundBlur_2037_43065"/>
</filter>
<filter id="filter2_f_2037_43065" x="14.8311" y="584.654" width="4.03369" height="4.0332" filterUnits="userSpaceOnUse" color-interpolation-filters="sRGB">
<feFlood flood-opacity="0" result="BackgroundImageFix"/>
<feBlend mode="normal" in="SourceGraphic" in2="BackgroundImageFix" result="shape"/>
<feGaussianBlur stdDeviation="0.5" result="effect1_foregroundBlur_2037_43065"/>
</filter>
<filter id="filter3_f_2037_43065" x="282.2" y="594.814" width="4.03369" height="4.0332" filterUnits="userSpaceOnUse" color-interpolation-filters="sRGB">
<feFlood flood-opacity="0" result="BackgroundImageFix"/>
<feBlend mode="normal" in="SourceGraphic" in2="BackgroundImageFix" result="shape"/>
<feGaussianBlur stdDeviation="0.5" result="effect1_foregroundBlur_2037_43065"/>
</filter>
<filter id="filter4_f_2037_43065" x="406.263" y="452.873" width="4.03369" height="4.0332" filterUnits="userSpaceOnUse" color-interpolation-filters="sRGB">
<feFlood flood-opacity="0" result="BackgroundImageFix"/>
<feBlend mode="normal" in="SourceGraphic" in2="BackgroundImageFix" result="shape"/>
<feGaussianBlur stdDeviation="0.5" result="effect1_foregroundBlur_2037_43065"/>
</filter>
<filter id="filter5_f_2037_43065" x="178.293" y="637.863" width="8.2373" height="8.2373" filterUnits="userSpaceOnUse" color-interpolation-filters="sRGB">
<feFlood flood-opacity="0" result="BackgroundImageFix"/>
<feBlend mode="normal" in="SourceGraphic" in2="BackgroundImageFix" result="shape"/>
<feGaussianBlur stdDeviation="0.5" result="effect1_foregroundBlur_2037_43065"/>
</filter>
<filter id="filter6_f_2037_43065" x="182.398" y="497.284" width="8.2373" height="8.2373" filterUnits="userSpaceOnUse" color-interpolation-filters="sRGB">
<feFlood flood-opacity="0" result="BackgroundImageFix"/>
<feBlend mode="normal" in="SourceGraphic" in2="BackgroundImageFix" result="shape"/>
<feGaussianBlur stdDeviation="0.5" result="effect1_foregroundBlur_2037_43065"/>
</filter>
<filter id="filter7_f_2037_43065" x="1852.54" y="844.794" width="8.23828" height="8.2373" filterUnits="userSpaceOnUse" color-interpolation-filters="sRGB">
<feFlood flood-opacity="0" result="BackgroundImageFix"/>
<feBlend mode="normal" in="SourceGraphic" in2="BackgroundImageFix" result="shape"/>
<feGaussianBlur stdDeviation="0.5" result="effect1_foregroundBlur_2037_43065"/>
</filter>
<filter id="filter8_f_2037_43065" x="1808.54" y="218.793" width="8.23828" height="8.2373" filterUnits="userSpaceOnUse" color-interpolation-filters="sRGB">
<feFlood flood-opacity="0" result="BackgroundImageFix"/>
<feBlend mode="normal" in="SourceGraphic" in2="BackgroundImageFix" result="shape"/>
<feGaussianBlur stdDeviation="0.5" result="effect1_foregroundBlur_2037_43065"/>
</filter>
<filter id="filter9_f_2037_43065" x="1810.54" y="476.795" width="8.23828" height="8.2373" filterUnits="userSpaceOnUse" color-interpolation-filters="sRGB">
<feFlood flood-opacity="0" result="BackgroundImageFix"/>
<feBlend mode="normal" in="SourceGraphic" in2="BackgroundImageFix" result="shape"/>
<feGaussianBlur stdDeviation="0.5" result="effect1_foregroundBlur_2037_43065"/>
</filter>
<filter id="filter10_f_2037_43065" x="437.1" y="90.9717" width="8.2373" height="8.2373" filterUnits="userSpaceOnUse" color-interpolation-filters="sRGB">
<feFlood flood-opacity="0" result="BackgroundImageFix"/>
<feBlend mode="normal" in="SourceGraphic" in2="BackgroundImageFix" result="shape"/>
<feGaussianBlur stdDeviation="0.5" result="effect1_foregroundBlur_2037_43065"/>
</filter>
<filter id="filter11_f_2037_43065" x="343.937" y="250.413" width="8.2373" height="8.2373" filterUnits="userSpaceOnUse" color-interpolation-filters="sRGB">
<feFlood flood-opacity="0" result="BackgroundImageFix"/>
<feBlend mode="normal" in="SourceGraphic" in2="BackgroundImageFix" result="shape"/>
<feGaussianBlur stdDeviation="0.5" result="effect1_foregroundBlur_2037_43065"/>
</filter>
<filter id="filter12_f_2037_43065" x="1737.54" y="572.794" width="8.23828" height="8.2373" filterUnits="userSpaceOnUse" color-interpolation-filters="sRGB">
<feFlood flood-opacity="0" result="BackgroundImageFix"/>
<feBlend mode="normal" in="SourceGraphic" in2="BackgroundImageFix" result="shape"/>
<feGaussianBlur stdDeviation="0.5" result="effect1_foregroundBlur_2037_43065"/>
</filter>
<filter id="filter13_f_2037_43065" x="829.541" y="734.794" width="8.23828" height="8.2373" filterUnits="userSpaceOnUse" color-interpolation-filters="sRGB">
<feFlood flood-opacity="0" result="BackgroundImageFix"/>
<feBlend mode="normal" in="SourceGraphic" in2="BackgroundImageFix" result="shape"/>
<feGaussianBlur stdDeviation="0.5" result="effect1_foregroundBlur_2037_43065"/>
</filter>
<filter id="filter14_f_2037_43065" x="168.355" y="297.895" width="8.2373" height="8.2373" filterUnits="userSpaceOnUse" color-interpolation-filters="sRGB">
<feFlood flood-opacity="0" result="BackgroundImageFix"/>
<feBlend mode="normal" in="SourceGraphic" in2="BackgroundImageFix" result="shape"/>
<feGaussianBlur stdDeviation="0.5" result="effect1_foregroundBlur_2037_43065"/>
</filter>
<filter id="filter15_f_2037_43065" x="234.584" y="191.21" width="8.2373" height="8.2373" filterUnits="userSpaceOnUse" color-interpolation-filters="sRGB">
<feFlood flood-opacity="0" result="BackgroundImageFix"/>
<feBlend mode="normal" in="SourceGraphic" in2="BackgroundImageFix" result="shape"/>
<feGaussianBlur stdDeviation="0.5" result="effect1_foregroundBlur_2037_43065"/>
</filter>
<filter id="filter16_f_2037_43065" x="1569.54" y="117.794" width="8.23828" height="8.2373" filterUnits="userSpaceOnUse" color-interpolation-filters="sRGB">
<feFlood flood-opacity="0" result="BackgroundImageFix"/>
<feBlend mode="normal" in="SourceGraphic" in2="BackgroundImageFix" result="shape"/>
<feGaussianBlur stdDeviation="0.5" result="effect1_foregroundBlur_2037_43065"/>
</filter>
<filter id="filter17_f_2037_43065" x="398.804" y="638.072" width="3.8999" height="3.90039" filterUnits="userSpaceOnUse" color-interpolation-filters="sRGB">
<feFlood flood-opacity="0" result="BackgroundImageFix"/>
<feBlend mode="normal" in="SourceGraphic" in2="BackgroundImageFix" result="shape"/>
<feGaussianBlur stdDeviation="0.5" result="effect1_foregroundBlur_2037_43065"/>
</filter>
<filter id="filter18_f_2037_43065" x="38.0269" y="668.737" width="3.8999" height="3.90039" filterUnits="userSpaceOnUse" color-interpolation-filters="sRGB">
<feFlood flood-opacity="0" result="BackgroundImageFix"/>
<feBlend mode="normal" in="SourceGraphic" in2="BackgroundImageFix" result="shape"/>
<feGaussianBlur stdDeviation="0.5" result="effect1_foregroundBlur_2037_43065"/>
</filter>
<filter id="filter19_f_2037_43065" x="219.901" y="864.98" width="3.8999" height="3.90039" filterUnits="userSpaceOnUse" color-interpolation-filters="sRGB">
<feFlood flood-opacity="0" result="BackgroundImageFix"/>
<feBlend mode="normal" in="SourceGraphic" in2="BackgroundImageFix" result="shape"/>
<feGaussianBlur stdDeviation="0.5" result="effect1_foregroundBlur_2037_43065"/>
</filter>
<filter id="filter20_f_2037_43065" x="407.995" y="852.339" width="3.8999" height="3.90039" filterUnits="userSpaceOnUse" color-interpolation-filters="sRGB">
<feFlood flood-opacity="0" result="BackgroundImageFix"/>
<feBlend mode="normal" in="SourceGraphic" in2="BackgroundImageFix" result="shape"/>
<feGaussianBlur stdDeviation="0.5" result="effect1_foregroundBlur_2037_43065"/>
</filter>
<filter id="filter21_f_2037_43065" x="105.789" y="565.471" width="3.8999" height="3.90039" filterUnits="userSpaceOnUse" color-interpolation-filters="sRGB">
<feFlood flood-opacity="0" result="BackgroundImageFix"/>
<feBlend mode="normal" in="SourceGraphic" in2="BackgroundImageFix" result="shape"/>
<feGaussianBlur stdDeviation="0.5" result="effect1_foregroundBlur_2037_43065"/>
</filter>
<filter id="filter22_f_2037_43065" x="27.2974" y="479.676" width="7.82715" height="7.82617" filterUnits="userSpaceOnUse" color-interpolation-filters="sRGB">
<feFlood flood-opacity="0" result="BackgroundImageFix"/>
<feBlend mode="normal" in="SourceGraphic" in2="BackgroundImageFix" result="shape"/>
<feGaussianBlur stdDeviation="0.5" result="effect1_foregroundBlur_2037_43065"/>
</filter>
<filter id="filter23_f_2037_43065" x="114.024" y="822.958" width="7.82715" height="7.82617" filterUnits="userSpaceOnUse" color-interpolation-filters="sRGB">
<feFlood flood-opacity="0" result="BackgroundImageFix"/>
<feBlend mode="normal" in="SourceGraphic" in2="BackgroundImageFix" result="shape"/>
<feGaussianBlur stdDeviation="0.5" result="effect1_foregroundBlur_2037_43065"/>
</filter>
<filter id="filter24_f_2037_43065" x="216.331" y="726.455" width="7.82715" height="7.82617" filterUnits="userSpaceOnUse" color-interpolation-filters="sRGB">
<feFlood flood-opacity="0" result="BackgroundImageFix"/>
<feBlend mode="normal" in="SourceGraphic" in2="BackgroundImageFix" result="shape"/>
<feGaussianBlur stdDeviation="0.5" result="effect1_foregroundBlur_2037_43065"/>
</filter>
<filter id="filter25_f_2037_43065" x="1317.53" y="875" width="7.82715" height="7.82617" filterUnits="userSpaceOnUse" color-interpolation-filters="sRGB">
<feFlood flood-opacity="0" result="BackgroundImageFix"/>
<feBlend mode="normal" in="SourceGraphic" in2="BackgroundImageFix" result="shape"/>
<feGaussianBlur stdDeviation="0.5" result="effect1_foregroundBlur_2037_43065"/>
</filter>
<filter id="filter26_f_2037_43065" x="1231.04" y="182.289" width="7.82715" height="7.82617" filterUnits="userSpaceOnUse" color-interpolation-filters="sRGB">
<feFlood flood-opacity="0" result="BackgroundImageFix"/>
<feBlend mode="normal" in="SourceGraphic" in2="BackgroundImageFix" result="shape"/>
<feGaussianBlur stdDeviation="0.5" result="effect1_foregroundBlur_2037_43065"/>
</filter>
<filter id="filter27_f_2037_43065" x="473.533" y="821.003" width="7.82715" height="7.82617" filterUnits="userSpaceOnUse" color-interpolation-filters="sRGB">
<feFlood flood-opacity="0" result="BackgroundImageFix"/>
<feBlend mode="normal" in="SourceGraphic" in2="BackgroundImageFix" result="shape"/>
<feGaussianBlur stdDeviation="0.5" result="effect1_foregroundBlur_2037_43065"/>
</filter>
<filter id="filter28_f_2037_43065" x="1009.04" y="434.289" width="7.82715" height="7.82617" filterUnits="userSpaceOnUse" color-interpolation-filters="sRGB">
<feFlood flood-opacity="0" result="BackgroundImageFix"/>
<feBlend mode="normal" in="SourceGraphic" in2="BackgroundImageFix" result="shape"/>
<feGaussianBlur stdDeviation="0.5" result="effect1_foregroundBlur_2037_43065"/>
</filter>
<filter id="filter29_f_2037_43065" x="505.12" y="666.116" width="7.82715" height="7.82617" filterUnits="userSpaceOnUse" color-interpolation-filters="sRGB">
<feFlood flood-opacity="0" result="BackgroundImageFix"/>
<feBlend mode="normal" in="SourceGraphic" in2="BackgroundImageFix" result="shape"/>
<feGaussianBlur stdDeviation="0.5" result="effect1_foregroundBlur_2037_43065"/>
</filter>
<filter id="filter30_f_2037_43065" x="347.391" y="575.535" width="7.82715" height="7.82617" filterUnits="userSpaceOnUse" color-interpolation-filters="sRGB">
<feFlood flood-opacity="0" result="BackgroundImageFix"/>
<feBlend mode="normal" in="SourceGraphic" in2="BackgroundImageFix" result="shape"/>
<feGaussianBlur stdDeviation="0.5" result="effect1_foregroundBlur_2037_43065"/>
</filter>
<filter id="filter31_f_2037_43065" x="469.66" y="546.93" width="7.82715" height="7.82617" filterUnits="userSpaceOnUse" color-interpolation-filters="sRGB">
<feFlood flood-opacity="0" result="BackgroundImageFix"/>
<feBlend mode="normal" in="SourceGraphic" in2="BackgroundImageFix" result="shape"/>
<feGaussianBlur stdDeviation="0.5" result="effect1_foregroundBlur_2037_43065"/>
</filter>
</defs>
</svg>
