<svg width="1920" height="1000" viewBox="0 0 1920 1000" fill="none" xmlns="http://www.w3.org/2000/svg">
<path opacity="0.35" d="M1920 -156.573H1.71661e-05M1920 422.22H1.71661e-05M1920 1001.01H1.71661e-05M1920 132.823H1.71661e-05M1920 711.616H1.71661e-05M1920 -11.875H1.71661e-05M1920 566.918H1.71661e-05M1920 1145.71H1.71661e-05M1920 277.522H1.71661e-05M1920 856.315H1.71661e-05M1828.38 -245L1828.38 1247M1336.07 -245L1336.07 1247M843.761 -245V1247M351.453 -245V1247M1582.22 -245L1582.22 1247M1089.91 -245L1089.91 1247M597.607 -245L597.607 1247M105.299 -245V1247M1705.3 -245L1705.3 1247M1212.99 -245L1212.99 1247M720.684 -245L720.684 1247M228.376 -245V1247M1459.15 -245L1459.15 1247M966.838 -245L966.838 1247M474.53 -245V1247" stroke="url(#paint0_radial_265_3797)"/>
<defs>
<radialGradient id="paint0_radial_265_3797" cx="0" cy="0" r="1" gradientUnits="userSpaceOnUse" gradientTransform="translate(0.000287458 485) rotate(-0.365617) scale(1880.54 2420.43)">
<stop stop-color="#F5F4FF" stop-opacity="0.45"/>
<stop offset="0.472635" stop-color="white" stop-opacity="0"/>
<stop offset="1" stop-color="#F5F4FF" stop-opacity="0.45"/>
</radialGradient>
</defs>
</svg>
