<svg width="960" height="1252" viewBox="0 0 960 1252" fill="none" xmlns="http://www.w3.org/2000/svg">
<g filter="url(#filter0_f_2089_43057)">
<ellipse cx="274.765" cy="626.016" rx="384.962" ry="51.0691" transform="rotate(38.5861 274.765 626.016)" fill="#732CFF"/>
</g>
<path opacity="0.11" d="M66.5372 450.897C67.0443 451.156 67.2454 451.777 66.9864 452.284C66.7275 452.791 66.1064 452.993 65.5993 452.734C65.0922 452.475 64.8911 451.854 65.1501 451.346C65.4091 450.839 66.0301 450.638 66.5372 450.897Z" fill="white"/>
<path d="M72.0938 447.372C72.474 447.566 72.6248 448.032 72.4306 448.412C72.2364 448.792 71.7708 448.943 71.3906 448.749C71.0104 448.555 70.8596 448.089 71.0537 447.709C71.2479 447.329 71.7136 447.178 72.0938 447.372Z" fill="white"/>
<path d="M82.3194 464.742C82.6996 464.936 82.8504 465.402 82.6562 465.782C82.462 466.163 81.9964 466.313 81.6162 466.119C81.236 465.925 81.0852 465.459 81.2794 465.079C81.4735 464.699 81.9392 464.548 82.3194 464.742Z" fill="white"/>
<path d="M42.8418 445.741C43.2221 445.935 43.3728 446.401 43.1787 446.781C42.9845 447.162 42.5188 447.312 42.1386 447.118C41.7584 446.924 41.6076 446.458 41.8018 446.078C41.996 445.698 42.4616 445.547 42.8418 445.741Z" fill="white"/>
<path opacity="0.11" d="M25.7486 423.125C26.2557 423.384 26.4569 424.005 26.1979 424.512C25.9389 425.019 25.3179 425.22 24.8108 424.961C24.3037 424.702 24.1025 424.081 24.3615 423.574C24.6205 423.067 25.2415 422.866 25.7486 423.125Z" fill="white"/>
<path d="M11.8769 428.769C12.1303 428.898 12.2308 429.209 12.1014 429.462C11.972 429.715 11.6617 429.816 11.4084 429.686C11.1551 429.557 11.0546 429.247 11.184 428.993C11.3134 428.74 11.6236 428.64 11.8769 428.769Z" fill="white"/>
<path d="M74.2964 432.297C74.5497 432.427 74.6502 432.737 74.5208 432.99C74.3914 433.244 74.0812 433.344 73.8278 433.215C73.5745 433.085 73.474 432.775 73.6034 432.522C73.7328 432.268 74.043 432.168 74.2964 432.297Z" fill="white"/>
<path d="M175.546 533.375C175.8 533.505 175.9 533.815 175.771 534.068C175.641 534.322 175.331 534.422 175.078 534.293C174.825 534.163 174.724 533.853 174.853 533.6C174.983 533.347 175.293 533.246 175.546 533.375Z" fill="white"/>
<path d="M212.908 583.706C213.162 583.835 213.262 584.145 213.133 584.398C213.003 584.652 212.693 584.752 212.44 584.623C212.186 584.494 212.086 584.183 212.215 583.93C212.345 583.677 212.655 583.576 212.908 583.706Z" fill="white"/>
<path d="M247.919 559.345C248.172 559.475 248.273 559.785 248.143 560.038C248.014 560.292 247.704 560.392 247.45 560.263C247.197 560.133 247.097 559.823 247.226 559.57C247.355 559.316 247.666 559.216 247.919 559.345Z" fill="white"/>
<path opacity="0.11" d="M10.789 420.693C11.0424 420.822 11.1428 421.133 11.0135 421.386C10.8841 421.639 10.5738 421.74 10.3205 421.61C10.0672 421.481 9.96669 421.171 10.0961 420.917C10.2255 420.664 10.5357 420.564 10.789 420.693Z" fill="white"/>
<path opacity="0.11" d="M81.8237 415.306C82.077 415.436 82.1775 415.746 82.0481 415.999C81.9188 416.252 81.6085 416.353 81.3552 416.224C81.1018 416.094 81.0014 415.784 81.1307 415.531C81.2601 415.277 81.5704 415.177 81.8237 415.306Z" fill="white"/>
<path opacity="0.11" d="M168.787 514.882C169.04 515.012 169.141 515.322 169.012 515.575C168.882 515.829 168.572 515.929 168.319 515.8C168.065 515.67 167.965 515.36 168.094 515.107C168.224 514.853 168.534 514.753 168.787 514.882Z" fill="white"/>
<path d="M23.7642 466.665C24.0175 466.794 24.1179 467.104 23.9886 467.358C23.8592 467.611 23.5489 467.711 23.2956 467.582C23.0423 467.453 22.9418 467.142 23.0712 466.889C23.2006 466.636 23.5108 466.535 23.7642 466.665Z" fill="white"/>
<path d="M95.1704 553.661C95.4237 553.79 95.5242 554.1 95.3948 554.354C95.2654 554.607 94.9552 554.707 94.7019 554.578C94.4485 554.449 94.3481 554.138 94.4774 553.885C94.6068 553.632 94.9171 553.531 95.1704 553.661Z" fill="white"/>
<path d="M14.1206 408.506C14.3739 408.636 14.4744 408.946 14.345 409.199C14.2156 409.453 13.9054 409.553 13.652 409.424C13.3987 409.294 13.2982 408.984 13.4276 408.731C13.557 408.477 13.8672 408.377 14.1206 408.506Z" fill="white"/>
<path opacity="0.3" d="M37.6543 459.869C37.9076 459.998 38.0081 460.308 37.8787 460.562C37.7493 460.815 37.4391 460.915 37.1858 460.786C36.9324 460.657 36.8319 460.346 36.9613 460.093C37.0907 459.84 37.401 459.739 37.6543 459.869Z" fill="white"/>
<path opacity="0.3" d="M26.3789 403.772C26.6322 403.901 26.7327 404.212 26.6033 404.465C26.4739 404.718 26.1637 404.819 25.9103 404.689C25.657 404.56 25.5565 404.25 25.6859 403.996C25.8153 403.743 26.1256 403.643 26.3789 403.772Z" fill="white"/>
<path opacity="0.3" d="M230.122 591.916C230.375 592.045 230.475 592.355 230.346 592.608C230.217 592.862 229.906 592.962 229.653 592.833C229.4 592.704 229.299 592.393 229.429 592.14C229.558 591.887 229.868 591.786 230.122 591.916Z" fill="white"/>
<path opacity="0.11" d="M146.626 573C146.88 573.129 146.98 573.439 146.851 573.692C146.721 573.946 146.411 574.046 146.158 573.917C145.905 573.788 145.804 573.477 145.933 573.224C146.063 572.971 146.373 572.87 146.626 573Z" fill="white"/>
<path opacity="0.11" d="M227.81 565.858C228.063 565.987 228.164 566.298 228.034 566.551C227.905 566.804 227.595 566.905 227.342 566.775C227.088 566.646 226.988 566.336 227.117 566.082C227.246 565.829 227.557 565.729 227.81 565.858Z" fill="white"/>
<path opacity="0.3" d="M113.814 502.427C114.321 502.686 114.522 503.307 114.263 503.815C114.004 504.322 113.383 504.523 112.876 504.264C112.369 504.005 112.167 503.384 112.426 502.877C112.685 502.37 113.307 502.168 113.814 502.427Z" fill="white"/>
<path opacity="0.11" d="M133.861 530.023C134.368 530.282 134.569 530.903 134.31 531.41C134.051 531.917 133.43 532.119 132.923 531.86C132.416 531.601 132.215 530.98 132.474 530.472C132.733 529.965 133.354 529.764 133.861 530.023Z" fill="white"/>
<path d="M125.43 545.967C125.81 546.161 125.961 546.627 125.767 547.007C125.572 547.387 125.107 547.538 124.727 547.344C124.346 547.15 124.196 546.684 124.39 546.304C124.584 545.924 125.05 545.773 125.43 545.967Z" fill="white"/>
<path d="M118.376 481.61C118.757 481.804 118.908 482.269 118.713 482.65C118.519 483.03 118.054 483.181 117.673 482.986C117.293 482.792 117.142 482.327 117.336 481.946C117.531 481.566 117.996 481.415 118.376 481.61Z" fill="white"/>
<path d="M275.421 550.244C275.801 550.438 275.952 550.904 275.758 551.284C275.564 551.665 275.098 551.815 274.718 551.621C274.338 551.427 274.187 550.961 274.381 550.581C274.575 550.201 275.041 550.05 275.421 550.244Z" fill="white"/>
<path d="M108.091 525.539C108.472 525.733 108.622 526.199 108.428 526.579C108.234 526.959 107.768 527.11 107.388 526.916C107.008 526.722 106.857 526.256 107.051 525.876C107.246 525.496 107.711 525.345 108.091 525.539Z" fill="white"/>
<path d="M44.3795 400.815C44.7597 401.009 44.9105 401.474 44.7163 401.855C44.5221 402.235 44.0565 402.386 43.6762 402.191C43.296 401.997 43.1452 401.532 43.3394 401.151C43.5336 400.771 43.9992 400.62 44.3795 400.815Z" fill="white"/>
<path d="M171.308 490.127C171.688 490.321 171.839 490.787 171.645 491.167C171.45 491.547 170.985 491.698 170.604 491.504C170.224 491.31 170.073 490.844 170.268 490.464C170.462 490.084 170.927 489.933 171.308 490.127Z" fill="white"/>
<path d="M276.979 583.444C277.359 583.639 277.51 584.104 277.316 584.484C277.122 584.865 276.656 585.016 276.276 584.821C275.896 584.627 275.745 584.161 275.939 583.781C276.133 583.401 276.599 583.25 276.979 583.444Z" fill="white"/>
<path d="M275.103 614.311C275.483 614.505 275.634 614.97 275.44 615.351C275.246 615.731 274.78 615.882 274.4 615.688C274.02 615.493 273.869 615.028 274.063 614.647C274.257 614.267 274.723 614.116 275.103 614.311Z" fill="white"/>
<path opacity="0.3" d="M163.527 564.845C164.034 565.104 164.235 565.726 163.976 566.233C163.717 566.74 163.096 566.941 162.589 566.682C162.082 566.423 161.881 565.802 162.14 565.295C162.399 564.788 163.02 564.586 163.527 564.845Z" fill="white"/>
<path d="M146.882 597.428C147.389 597.686 147.59 598.308 147.331 598.815C147.072 599.322 146.451 599.523 145.944 599.264C145.437 599.005 145.236 598.384 145.495 597.877C145.754 597.37 146.375 597.169 146.882 597.428Z" fill="white"/>
<path d="M192.316 566.819C192.696 567.014 192.847 567.479 192.653 567.859C192.459 568.24 191.993 568.391 191.613 568.196C191.233 568.002 191.082 567.536 191.276 567.156C191.47 566.776 191.936 566.625 192.316 566.819Z" fill="white"/>
<path opacity="0.3" d="M205.433 596.086C205.94 596.345 206.141 596.966 205.882 597.473C205.623 597.98 205.002 598.181 204.495 597.922C203.988 597.663 203.787 597.042 204.046 596.535C204.305 596.028 204.926 595.827 205.433 596.086Z" fill="white"/>
<path opacity="0.3" d="M267.506 586.705C268.014 586.964 268.215 587.585 267.956 588.092C267.697 588.599 267.076 588.8 266.569 588.541C266.061 588.282 265.86 587.661 266.119 587.154C266.378 586.647 266.999 586.446 267.506 586.705Z" fill="white"/>
<path opacity="0.3" d="M214.281 558.366C214.788 558.625 214.989 559.246 214.73 559.753C214.471 560.26 213.85 560.461 213.343 560.202C212.836 559.943 212.635 559.322 212.894 558.815C213.153 558.308 213.774 558.107 214.281 558.366Z" fill="white"/>
<path opacity="0.11" d="M241.66 590.863C242.167 591.122 242.368 591.743 242.109 592.25C241.851 592.757 241.229 592.958 240.722 592.699C240.215 592.44 240.014 591.819 240.273 591.312C240.532 590.805 241.153 590.604 241.66 590.863Z" fill="white"/>
<path opacity="0.11" d="M154.868 722.079C155.375 722.338 155.576 722.959 155.317 723.466C155.058 723.973 154.437 724.174 153.93 723.915C153.423 723.656 153.222 723.035 153.481 722.528C153.74 722.021 154.361 721.82 154.868 722.079Z" fill="white"/>
<path d="M160.426 718.554C160.807 718.748 160.957 719.214 160.763 719.594C160.569 719.974 160.103 720.125 159.723 719.931C159.343 719.737 159.192 719.271 159.386 718.891C159.58 718.51 160.046 718.36 160.426 718.554Z" fill="white"/>
<path d="M170.652 735.924C171.032 736.118 171.183 736.584 170.989 736.964C170.795 737.344 170.329 737.495 169.949 737.301C169.568 737.107 169.418 736.641 169.612 736.261C169.806 735.881 170.272 735.73 170.652 735.924Z" fill="white"/>
<path d="M131.174 716.922C131.554 717.116 131.705 717.582 131.511 717.962C131.317 718.342 130.851 718.493 130.471 718.299C130.09 718.105 129.94 717.639 130.134 717.259C130.328 716.879 130.794 716.728 131.174 716.922Z" fill="white"/>
<path opacity="0.11" d="M114.081 694.306C114.588 694.565 114.789 695.186 114.53 695.694C114.271 696.201 113.65 696.402 113.143 696.143C112.636 695.884 112.435 695.263 112.694 694.756C112.953 694.249 113.574 694.047 114.081 694.306Z" fill="white"/>
<path d="M100.208 699.949C100.461 700.078 100.561 700.388 100.432 700.642C100.303 700.895 99.9923 700.995 99.739 700.866C99.4856 700.737 99.3852 700.426 99.5145 700.173C99.6439 699.92 99.9542 699.819 100.208 699.949Z" fill="white"/>
<path d="M162.627 703.478C162.88 703.607 162.981 703.918 162.851 704.171C162.722 704.424 162.412 704.525 162.158 704.395C161.905 704.266 161.805 703.956 161.934 703.702C162.063 703.449 162.374 703.349 162.627 703.478Z" fill="white"/>
<path d="M262.674 754.57C262.928 754.699 263.028 755.009 262.899 755.263C262.769 755.516 262.459 755.617 262.206 755.487C261.952 755.358 261.852 755.048 261.981 754.794C262.111 754.541 262.421 754.44 262.674 754.57Z" fill="white"/>
<path d="M300.037 804.901C300.29 805.03 300.391 805.341 300.262 805.594C300.132 805.847 299.822 805.948 299.569 805.818C299.315 805.689 299.215 805.379 299.344 805.125C299.474 804.872 299.784 804.771 300.037 804.901Z" fill="white"/>
<path d="M335.047 780.54C335.3 780.669 335.401 780.979 335.271 781.232C335.142 781.486 334.832 781.586 334.578 781.457C334.325 781.328 334.225 781.017 334.354 780.764C334.483 780.511 334.794 780.41 335.047 780.54Z" fill="white"/>
<path d="M2.74803 586.918C3.00136 587.048 3.10184 587.358 2.97246 587.611C2.84308 587.865 2.53282 587.965 2.27949 587.836C2.02616 587.706 1.92569 587.396 2.05507 587.143C2.18445 586.89 2.4947 586.789 2.74803 586.918Z" fill="white"/>
<path opacity="0.11" d="M99.1216 691.875C99.3749 692.005 99.4754 692.315 99.346 692.568C99.2166 692.822 98.9064 692.922 98.653 692.793C98.3997 692.663 98.2992 692.353 98.4286 692.1C98.558 691.847 98.8682 691.746 99.1216 691.875Z" fill="white"/>
<path opacity="0.11" d="M170.154 686.487C170.407 686.616 170.508 686.926 170.378 687.18C170.249 687.433 169.939 687.534 169.685 687.404C169.432 687.275 169.331 686.965 169.461 686.711C169.59 686.458 169.9 686.357 170.154 686.487Z" fill="white"/>
<path opacity="0.11" d="M255.917 736.078C256.17 736.207 256.271 736.517 256.141 736.771C256.012 737.024 255.702 737.124 255.448 736.995C255.195 736.866 255.095 736.555 255.224 736.302C255.353 736.049 255.664 735.948 255.917 736.078Z" fill="white"/>
<path opacity="0.3" d="M18 609.173C18.2533 609.303 18.3538 609.613 18.2244 609.866C18.095 610.12 17.7848 610.22 17.5315 610.091C17.2781 609.961 17.1776 609.651 17.307 609.398C17.4364 609.144 17.7467 609.044 18 609.173Z" fill="white"/>
<path d="M112.096 737.846C112.349 737.976 112.45 738.286 112.32 738.539C112.191 738.792 111.88 738.893 111.627 738.764C111.374 738.634 111.273 738.324 111.403 738.071C111.532 737.817 111.842 737.717 112.096 737.846Z" fill="white"/>
<path d="M182.298 774.857C182.552 774.986 182.652 775.297 182.523 775.55C182.393 775.803 182.083 775.904 181.83 775.774C181.576 775.645 181.476 775.335 181.605 775.081C181.735 774.828 182.045 774.728 182.298 774.857Z" fill="white"/>
<path d="M102.453 679.688C102.706 679.817 102.807 680.128 102.678 680.381C102.548 680.634 102.238 680.735 101.985 680.605C101.731 680.476 101.631 680.166 101.76 679.912C101.89 679.659 102.2 679.559 102.453 679.688Z" fill="white"/>
<path opacity="0.3" d="M69.1255 613.296C69.3788 613.426 69.4793 613.736 69.3499 613.989C69.2205 614.243 68.9103 614.343 68.6569 614.214C68.4036 614.084 68.3031 613.774 68.4325 613.521C68.5619 613.267 68.8721 613.167 69.1255 613.296Z" fill="white"/>
<path opacity="0.11" d="M16.9682 622.531C17.2216 622.66 17.3221 622.97 17.1927 623.224C17.0633 623.477 16.753 623.578 16.4997 623.448C16.2464 623.319 16.1459 623.008 16.2753 622.755C16.4047 622.502 16.7149 622.401 16.9682 622.531Z" fill="white"/>
<path opacity="0.3" d="M125.986 731.051C126.239 731.181 126.34 731.491 126.21 731.744C126.081 731.998 125.771 732.098 125.517 731.969C125.264 731.839 125.163 731.529 125.293 731.276C125.422 731.022 125.733 730.922 125.986 731.051Z" fill="white"/>
<path opacity="0.3" d="M114.711 674.953C114.965 675.082 115.065 675.392 114.936 675.646C114.806 675.899 114.496 675.999 114.243 675.87C113.99 675.741 113.889 675.43 114.018 675.177C114.148 674.924 114.458 674.823 114.711 674.953Z" fill="white"/>
<path opacity="0.3" d="M60.3208 592.019C60.5741 592.148 60.6746 592.459 60.5452 592.712C60.4158 592.965 60.1056 593.066 59.8522 592.936C59.5989 592.807 59.4984 592.497 59.6278 592.243C59.7572 591.99 60.0674 591.89 60.3208 592.019Z" fill="white"/>
<path opacity="0.3" d="M31.3115 615.968C31.5648 616.098 31.6653 616.408 31.5359 616.661C31.4066 616.915 31.0963 617.015 30.843 616.886C30.5896 616.756 30.4892 616.446 30.6185 616.193C30.7479 615.939 31.0582 615.839 31.3115 615.968Z" fill="white"/>
<path opacity="0.3" d="M317.25 813.112C317.503 813.241 317.604 813.551 317.474 813.805C317.345 814.058 317.035 814.159 316.781 814.029C316.528 813.9 316.428 813.59 316.557 813.336C316.686 813.083 316.997 812.982 317.25 813.112Z" fill="white"/>
<path opacity="0.11" d="M233.756 794.193C234.01 794.322 234.11 794.632 233.981 794.886C233.851 795.139 233.541 795.24 233.288 795.11C233.034 794.981 232.934 794.671 233.063 794.417C233.193 794.164 233.503 794.063 233.756 794.193Z" fill="white"/>
<path opacity="0.11" d="M314.937 787.052C315.19 787.182 315.291 787.492 315.161 787.745C315.032 787.999 314.722 788.099 314.468 787.97C314.215 787.84 314.115 787.53 314.244 787.277C314.373 787.023 314.684 786.923 314.937 787.052Z" fill="white"/>
<path opacity="0.3" d="M200.943 723.623C201.45 723.882 201.651 724.503 201.392 725.01C201.133 725.517 200.512 725.718 200.005 725.459C199.498 725.2 199.297 724.579 199.556 724.072C199.815 723.565 200.436 723.364 200.943 723.623Z" fill="white"/>
<path opacity="0.11" d="M220.988 751.219C221.495 751.478 221.697 752.099 221.438 752.606C221.179 753.113 220.558 753.314 220.051 753.055C219.543 752.796 219.342 752.175 219.601 751.668C219.86 751.161 220.481 750.96 220.988 751.219Z" fill="white"/>
<path d="M212.557 767.163C212.937 767.357 213.088 767.823 212.894 768.203C212.7 768.583 212.234 768.734 211.854 768.54C211.474 768.346 211.323 767.88 211.517 767.5C211.711 767.12 212.177 766.969 212.557 767.163Z" fill="white"/>
<path d="M205.505 702.806C205.885 703 206.036 703.466 205.842 703.846C205.648 704.226 205.182 704.377 204.802 704.183C204.422 703.988 204.271 703.523 204.465 703.143C204.659 702.762 205.125 702.612 205.505 702.806Z" fill="white"/>
<path d="M362.548 771.441C362.929 771.635 363.079 772.1 362.885 772.481C362.691 772.861 362.225 773.012 361.845 772.817C361.465 772.623 361.314 772.158 361.508 771.777C361.703 771.397 362.168 771.246 362.548 771.441Z" fill="white"/>
<path d="M59.524 577.147C59.9042 577.341 60.055 577.806 59.8608 578.187C59.6666 578.567 59.201 578.718 58.8208 578.523C58.4406 578.329 58.2897 577.864 58.4839 577.483C58.6781 577.103 59.1438 576.952 59.524 577.147Z" fill="white"/>
<path d="M195.22 746.734C195.6 746.928 195.751 747.393 195.557 747.774C195.363 748.154 194.897 748.305 194.517 748.11C194.137 747.916 193.986 747.451 194.18 747.07C194.374 746.69 194.84 746.539 195.22 746.734Z" fill="white"/>
<path d="M132.711 671.994C133.092 672.188 133.242 672.654 133.048 673.034C132.854 673.414 132.388 673.565 132.008 673.371C131.628 673.177 131.477 672.711 131.671 672.331C131.866 671.951 132.331 671.8 132.711 671.994Z" fill="white"/>
<path d="M258.436 711.323C258.816 711.518 258.967 711.983 258.773 712.363C258.579 712.744 258.113 712.894 257.733 712.7C257.353 712.506 257.202 712.04 257.396 711.66C257.59 711.28 258.056 711.129 258.436 711.323Z" fill="white"/>
<path d="M364.107 804.64C364.488 804.834 364.638 805.3 364.444 805.68C364.25 806.06 363.784 806.211 363.404 806.017C363.024 805.822 362.873 805.357 363.067 804.977C363.262 804.596 363.727 804.446 364.107 804.64Z" fill="white"/>
<path d="M362.232 835.503C362.613 835.697 362.763 836.163 362.569 836.543C362.375 836.923 361.909 837.074 361.529 836.88C361.149 836.686 360.998 836.22 361.192 835.84C361.387 835.46 361.852 835.309 362.232 835.503Z" fill="white"/>
<path opacity="0.3" d="M250.655 786.041C251.162 786.3 251.364 786.921 251.105 787.428C250.846 787.935 250.225 788.136 249.717 787.877C249.21 787.618 249.009 786.997 249.268 786.49C249.527 785.983 250.148 785.782 250.655 786.041Z" fill="white"/>
<path d="M234.01 818.624C234.517 818.883 234.718 819.504 234.459 820.011C234.2 820.518 233.579 820.719 233.072 820.46C232.565 820.201 232.364 819.58 232.623 819.073C232.882 818.566 233.503 818.365 234.01 818.624Z" fill="white"/>
<path d="M279.445 788.015C279.825 788.209 279.976 788.675 279.782 789.055C279.588 789.435 279.122 789.586 278.742 789.392C278.361 789.197 278.211 788.732 278.405 788.352C278.599 787.971 279.065 787.821 279.445 788.015Z" fill="white"/>
<path opacity="0.3" d="M292.563 817.281C293.07 817.54 293.271 818.161 293.012 818.668C292.753 819.175 292.132 819.376 291.625 819.117C291.118 818.858 290.917 818.237 291.176 817.73C291.435 817.223 292.056 817.022 292.563 817.281Z" fill="white"/>
<path opacity="0.3" d="M354.634 807.9C355.141 808.159 355.343 808.78 355.084 809.287C354.825 809.794 354.204 809.995 353.696 809.737C353.189 809.478 352.988 808.856 353.247 808.349C353.506 807.842 354.127 807.641 354.634 807.9Z" fill="white"/>
<path opacity="0.3" d="M301.409 779.56C301.916 779.819 302.118 780.44 301.859 780.947C301.6 781.455 300.978 781.656 300.471 781.397C299.964 781.138 299.763 780.517 300.022 780.01C300.281 779.502 300.902 779.301 301.409 779.56Z" fill="white"/>
<path opacity="0.3" d="M40.7755 587.243C41.2826 587.502 41.4837 588.123 41.2247 588.63C40.9657 589.137 40.3447 589.338 39.8376 589.079C39.3305 588.82 39.1294 588.199 39.3884 587.692C39.6474 587.185 40.2684 586.984 40.7755 587.243Z" fill="white"/>
<path opacity="0.11" d="M328.788 812.058C329.295 812.317 329.496 812.938 329.237 813.445C328.978 813.953 328.357 814.154 327.85 813.895C327.343 813.636 327.142 813.015 327.401 812.508C327.66 812.001 328.281 811.799 328.788 812.058Z" fill="white"/>
<path opacity="0.3" d="M48.3648 642.616C48.8719 642.875 49.0731 643.496 48.8141 644.003C48.5551 644.51 47.9341 644.711 47.427 644.452C46.9199 644.193 46.7187 643.572 46.9777 643.065C47.2367 642.558 47.8577 642.357 48.3648 642.616Z" fill="white"/>
<path opacity="0.11" d="M31.2867 645.467C31.7938 645.726 31.9949 646.347 31.736 646.854C31.477 647.361 30.8559 647.562 30.3488 647.303C29.8417 647.044 29.6406 646.423 29.8996 645.916C30.1586 645.409 30.7796 645.208 31.2867 645.467Z" fill="white"/>
<path opacity="0.3" d="M42.6183 614.222C43.1254 614.481 43.3265 615.102 43.0675 615.61C42.8085 616.117 42.1875 616.318 41.6804 616.059C41.1733 615.8 40.9722 615.179 41.2311 614.672C41.4901 614.165 42.1112 613.963 42.6183 614.222Z" fill="white"/>
<path d="M71.0616 629.328C71.4418 629.522 71.5926 629.988 71.3984 630.368C71.2042 630.749 70.7386 630.899 70.3584 630.705C69.9781 630.511 69.8273 630.045 70.0215 629.665C70.2157 629.285 70.6813 629.134 71.0616 629.328Z" fill="white"/>
<path opacity="0.11" d="M432.903 773.418C433.41 773.677 433.612 774.298 433.353 774.805C433.094 775.312 432.473 775.513 431.966 775.254C431.458 774.995 431.257 774.374 431.516 773.867C431.775 773.36 432.396 773.159 432.903 773.418Z" fill="white"/>
<path d="M438.46 769.893C438.841 770.087 438.991 770.553 438.797 770.933C438.603 771.313 438.137 771.464 437.757 771.27C437.377 771.075 437.226 770.61 437.42 770.23C437.615 769.849 438.08 769.699 438.46 769.893Z" fill="white"/>
<path d="M448.685 787.262C449.065 787.456 449.216 787.922 449.022 788.302C448.828 788.682 448.362 788.833 447.982 788.639C447.602 788.445 447.451 787.979 447.645 787.599C447.839 787.218 448.305 787.068 448.685 787.262Z" fill="white"/>
<path d="M409.207 768.261C409.587 768.455 409.738 768.921 409.544 769.301C409.35 769.681 408.884 769.832 408.504 769.638C408.124 769.444 407.973 768.978 408.167 768.598C408.361 768.217 408.827 768.067 409.207 768.261Z" fill="white"/>
<path opacity="0.11" d="M392.115 745.644C392.622 745.903 392.823 746.524 392.564 747.031C392.305 747.539 391.684 747.74 391.177 747.481C390.67 747.222 390.469 746.601 390.728 746.094C390.987 745.586 391.608 745.385 392.115 745.644Z" fill="white"/>
<path d="M378.241 751.287C378.495 751.416 378.595 751.726 378.466 751.98C378.336 752.233 378.026 752.333 377.773 752.204C377.519 752.075 377.419 751.764 377.548 751.511C377.678 751.258 377.988 751.157 378.241 751.287Z" fill="white"/>
<path d="M440.662 754.818C440.915 754.947 441.016 755.257 440.887 755.511C440.757 755.764 440.447 755.865 440.194 755.735C439.94 755.606 439.84 755.296 439.969 755.042C440.099 754.789 440.409 754.688 440.662 754.818Z" fill="white"/>
<path d="M540.709 805.91C540.963 806.039 541.063 806.349 540.934 806.603C540.804 806.856 540.494 806.956 540.241 806.827C539.988 806.698 539.887 806.387 540.016 806.134C540.146 805.881 540.456 805.78 540.709 805.91Z" fill="white"/>
<path d="M578.071 856.24C578.324 856.369 578.425 856.679 578.295 856.933C578.166 857.186 577.856 857.286 577.602 857.157C577.349 857.028 577.248 856.717 577.378 856.464C577.507 856.211 577.817 856.11 578.071 856.24Z" fill="white"/>
<path d="M613.082 831.879C613.335 832.009 613.435 832.319 613.306 832.572C613.177 832.826 612.866 832.926 612.613 832.797C612.36 832.667 612.259 832.357 612.389 832.104C612.518 831.85 612.828 831.75 613.082 831.879Z" fill="white"/>
<path d="M281.984 688.244C282.237 688.373 282.338 688.683 282.208 688.937C282.079 689.19 281.769 689.29 281.515 689.161C281.262 689.032 281.162 688.721 281.291 688.468C281.42 688.215 281.731 688.114 281.984 688.244Z" fill="white"/>
<path opacity="0.11" d="M262.447 709.507C262.701 709.637 262.801 709.947 262.672 710.2C262.542 710.454 262.232 710.554 261.979 710.425C261.725 710.295 261.625 709.985 261.754 709.732C261.884 709.478 262.194 709.378 262.447 709.507Z" fill="white"/>
<path opacity="0.11" d="M248.108 688.875C248.362 689.005 248.462 689.315 248.333 689.568C248.203 689.822 247.893 689.922 247.64 689.793C247.387 689.663 247.286 689.353 247.415 689.1C247.545 688.847 247.855 688.746 248.108 688.875Z" fill="white"/>
<path opacity="0.11" d="M277.312 669.075C277.566 669.204 277.666 669.514 277.537 669.768C277.408 670.021 277.097 670.121 276.844 669.992C276.591 669.863 276.49 669.552 276.62 669.299C276.749 669.046 277.059 668.945 277.312 669.075Z" fill="white"/>
<path opacity="0.11" d="M377.154 743.213C377.407 743.343 377.508 743.653 377.378 743.906C377.249 744.16 376.939 744.26 376.685 744.131C376.432 744.001 376.331 743.691 376.461 743.438C376.59 743.184 376.9 743.084 377.154 743.213Z" fill="white"/>
<path opacity="0.11" d="M448.18 737.827C448.433 737.956 448.534 738.266 448.405 738.52C448.275 738.773 447.965 738.873 447.712 738.744C447.458 738.615 447.358 738.304 447.487 738.051C447.617 737.798 447.927 737.697 448.18 737.827Z" fill="white"/>
<path opacity="0.11" d="M533.95 787.416C534.203 787.546 534.304 787.856 534.175 788.109C534.045 788.363 533.735 788.463 533.482 788.334C533.228 788.204 533.128 787.894 533.257 787.641C533.387 787.388 533.697 787.287 533.95 787.416Z" fill="white"/>
<path opacity="0.3" d="M297.238 710.497C297.492 710.626 297.592 710.936 297.463 711.19C297.333 711.443 297.023 711.543 296.77 711.414C296.516 711.285 296.416 710.974 296.545 710.721C296.675 710.468 296.985 710.367 297.238 710.497Z" fill="white"/>
<path d="M390.128 789.184C390.381 789.313 390.482 789.624 390.352 789.877C390.223 790.13 389.913 790.231 389.659 790.101C389.406 789.972 389.306 789.662 389.435 789.408C389.564 789.155 389.875 789.055 390.128 789.184Z" fill="white"/>
<path d="M460.332 826.195C460.586 826.324 460.686 826.634 460.557 826.888C460.428 827.141 460.117 827.242 459.864 827.112C459.611 826.983 459.51 826.673 459.64 826.419C459.769 826.166 460.079 826.065 460.332 826.195Z" fill="white"/>
<path d="M380.485 731.025C380.738 731.154 380.839 731.465 380.709 731.718C380.58 731.971 380.27 732.072 380.016 731.942C379.763 731.813 379.663 731.503 379.792 731.249C379.921 730.996 380.232 730.896 380.485 731.025Z" fill="white"/>
<path opacity="0.3" d="M348.362 714.62C348.615 714.749 348.716 715.059 348.586 715.313C348.457 715.566 348.147 715.666 347.893 715.537C347.64 715.408 347.539 715.097 347.669 714.844C347.798 714.591 348.108 714.49 348.362 714.62Z" fill="white"/>
<path opacity="0.11" d="M296.206 723.855C296.459 723.984 296.559 724.295 296.43 724.548C296.301 724.801 295.99 724.902 295.737 724.772C295.484 724.643 295.383 724.333 295.513 724.079C295.642 723.826 295.952 723.726 296.206 723.855Z" fill="white"/>
<path opacity="0.3" d="M404.021 782.389C404.274 782.519 404.374 782.829 404.245 783.082C404.116 783.335 403.805 783.436 403.552 783.307C403.299 783.177 403.198 782.867 403.328 782.614C403.457 782.36 403.767 782.26 404.021 782.389Z" fill="white"/>
<path opacity="0.3" d="M392.746 726.291C392.999 726.421 393.099 726.731 392.97 726.984C392.841 727.238 392.53 727.338 392.277 727.209C392.024 727.079 391.923 726.769 392.053 726.516C392.182 726.263 392.492 726.162 392.746 726.291Z" fill="white"/>
<path opacity="0.3" d="M339.558 693.343C339.811 693.473 339.911 693.783 339.782 694.036C339.653 694.29 339.342 694.39 339.089 694.261C338.836 694.131 338.735 693.821 338.865 693.568C338.994 693.314 339.304 693.214 339.558 693.343Z" fill="white"/>
<path opacity="0.3" d="M310.547 717.292C310.8 717.422 310.901 717.732 310.771 717.985C310.642 718.239 310.332 718.339 310.078 718.21C309.825 718.08 309.725 717.77 309.854 717.517C309.983 717.264 310.294 717.163 310.547 717.292Z" fill="white"/>
<path opacity="0.3" d="M595.285 864.451C595.538 864.58 595.638 864.89 595.509 865.144C595.38 865.397 595.069 865.497 594.816 865.368C594.563 865.239 594.462 864.928 594.592 864.675C594.721 864.422 595.031 864.321 595.285 864.451Z" fill="white"/>
<path opacity="0.11" d="M511.79 845.533C512.043 845.662 512.143 845.972 512.014 846.226C511.885 846.479 511.574 846.579 511.321 846.45C511.068 846.321 510.967 846.01 511.097 845.757C511.226 845.504 511.536 845.403 511.79 845.533Z" fill="white"/>
<path opacity="0.11" d="M592.972 838.391C593.225 838.52 593.326 838.831 593.197 839.084C593.067 839.337 592.757 839.438 592.504 839.308C592.25 839.179 592.15 838.869 592.279 838.616C592.409 838.362 592.719 838.262 592.972 838.391Z" fill="white"/>
<path opacity="0.3" d="M478.976 774.961C479.483 775.22 479.684 775.841 479.425 776.348C479.166 776.855 478.545 777.056 478.038 776.797C477.531 776.538 477.33 775.917 477.589 775.41C477.848 774.903 478.469 774.702 478.976 774.961Z" fill="white"/>
<path opacity="0.11" d="M499.024 802.557C499.531 802.816 499.732 803.437 499.473 803.944C499.214 804.452 498.593 804.653 498.086 804.394C497.579 804.135 497.377 803.514 497.636 803.007C497.895 802.5 498.516 802.298 499.024 802.557Z" fill="white"/>
<path d="M490.593 818.501C490.973 818.695 491.124 819.161 490.93 819.541C490.735 819.921 490.27 820.072 489.89 819.878C489.509 819.684 489.359 819.218 489.553 818.838C489.747 818.458 490.213 818.307 490.593 818.501Z" fill="white"/>
<path d="M483.539 754.145C483.919 754.339 484.07 754.804 483.876 755.185C483.682 755.565 483.216 755.716 482.836 755.522C482.456 755.327 482.305 754.862 482.499 754.481C482.693 754.101 483.159 753.95 483.539 754.145Z" fill="white"/>
<path d="M640.583 822.777C640.963 822.972 641.114 823.437 640.92 823.817C640.726 824.198 640.26 824.349 639.88 824.154C639.5 823.96 639.349 823.495 639.543 823.114C639.737 822.734 640.203 822.583 640.583 822.777Z" fill="white"/>
<path d="M338.761 678.471C339.141 678.665 339.292 679.131 339.098 679.511C338.903 679.891 338.438 680.042 338.058 679.848C337.677 679.654 337.527 679.188 337.721 678.808C337.915 678.427 338.381 678.277 338.761 678.471Z" fill="white"/>
<path d="M272.341 657.855C272.722 658.049 272.872 658.514 272.678 658.895C272.484 659.275 272.018 659.426 271.638 659.231C271.258 659.037 271.107 658.572 271.301 658.191C271.495 657.811 271.961 657.66 272.341 657.855Z" fill="white"/>
<path d="M255.163 672.227C255.543 672.421 255.694 672.887 255.499 673.267C255.305 673.647 254.84 673.798 254.459 673.604C254.079 673.409 253.928 672.944 254.123 672.564C254.317 672.183 254.782 672.033 255.163 672.227Z" fill="white"/>
<path d="M473.254 798.073C473.635 798.268 473.785 798.733 473.591 799.113C473.397 799.494 472.931 799.644 472.551 799.45C472.171 799.256 472.02 798.79 472.214 798.41C472.409 798.03 472.874 797.879 473.254 798.073Z" fill="white"/>
<path d="M410.746 723.333C411.126 723.527 411.277 723.993 411.083 724.373C410.889 724.753 410.423 724.904 410.043 724.71C409.663 724.516 409.512 724.05 409.706 723.67C409.9 723.29 410.366 723.139 410.746 723.333Z" fill="white"/>
<path d="M536.471 762.662C536.851 762.856 537.002 763.322 536.808 763.702C536.614 764.082 536.148 764.233 535.768 764.039C535.388 763.845 535.237 763.379 535.431 762.999C535.625 762.619 536.091 762.468 536.471 762.662Z" fill="white"/>
<path d="M642.142 855.979C642.522 856.173 642.673 856.638 642.478 857.019C642.284 857.399 641.819 857.55 641.438 857.356C641.058 857.161 640.907 856.696 641.102 856.315C641.296 855.935 641.761 855.784 642.142 855.979Z" fill="white"/>
<path d="M640.268 886.842C640.648 887.036 640.799 887.502 640.604 887.882C640.41 888.262 639.945 888.413 639.564 888.219C639.184 888.025 639.033 887.559 639.228 887.179C639.422 886.799 639.887 886.648 640.268 886.842Z" fill="white"/>
<path opacity="0.3" d="M528.682 837.381C529.189 837.64 529.39 838.261 529.131 838.768C528.872 839.275 528.251 839.476 527.744 839.217C527.237 838.958 527.036 838.337 527.295 837.83C527.554 837.323 528.175 837.122 528.682 837.381Z" fill="white"/>
<path d="M512.044 869.961C512.551 870.22 512.752 870.841 512.493 871.348C512.234 871.855 511.613 872.056 511.106 871.797C510.599 871.538 510.397 870.917 510.656 870.41C510.915 869.903 511.536 869.702 512.044 869.961Z" fill="white"/>
<path d="M557.478 839.354C557.858 839.548 558.009 840.013 557.814 840.394C557.62 840.774 557.155 840.925 556.774 840.731C556.394 840.536 556.243 840.071 556.438 839.69C556.632 839.31 557.097 839.159 557.478 839.354Z" fill="white"/>
<path opacity="0.3" d="M570.596 868.618C571.103 868.877 571.304 869.498 571.046 870.005C570.787 870.512 570.165 870.713 569.658 870.454C569.151 870.195 568.95 869.574 569.209 869.067C569.468 868.56 570.089 868.359 570.596 868.618Z" fill="white"/>
<path opacity="0.3" d="M632.67 859.239C633.178 859.498 633.379 860.119 633.12 860.626C632.861 861.133 632.24 861.334 631.733 861.075C631.226 860.816 631.024 860.195 631.283 859.688C631.542 859.181 632.163 858.98 632.67 859.239Z" fill="white"/>
<path opacity="0.3" d="M579.444 830.9C579.951 831.159 580.152 831.78 579.893 832.287C579.634 832.794 579.013 832.995 578.506 832.737C577.999 832.478 577.798 831.857 578.057 831.349C578.316 830.842 578.937 830.641 579.444 830.9Z" fill="white"/>
<path opacity="0.3" d="M320.012 688.568C320.519 688.827 320.72 689.448 320.461 689.955C320.202 690.462 319.581 690.663 319.074 690.404C318.567 690.146 318.366 689.524 318.625 689.017C318.884 688.51 319.505 688.309 320.012 688.568Z" fill="white"/>
<path opacity="0.3" d="M269.945 694.822C270.452 695.081 270.653 695.702 270.394 696.209C270.135 696.716 269.514 696.917 269.007 696.658C268.5 696.399 268.299 695.778 268.558 695.271C268.817 694.764 269.438 694.563 269.945 694.822Z" fill="white"/>
<path opacity="0.11" d="M606.822 863.396C607.329 863.655 607.53 864.276 607.271 864.783C607.012 865.29 606.391 865.492 605.884 865.233C605.377 864.974 605.176 864.353 605.435 863.845C605.694 863.338 606.315 863.137 606.822 863.396Z" fill="white"/>
<path opacity="0.3" d="M327.602 743.94C328.109 744.199 328.31 744.82 328.051 745.327C327.792 745.834 327.171 746.036 326.664 745.777C326.157 745.518 325.956 744.897 326.215 744.389C326.474 743.882 327.095 743.681 327.602 743.94Z" fill="white"/>
<path opacity="0.11" d="M310.523 746.79C311.03 747.049 311.231 747.67 310.972 748.177C310.713 748.684 310.092 748.885 309.585 748.626C309.078 748.367 308.877 747.746 309.136 747.239C309.395 746.732 310.016 746.531 310.523 746.79Z" fill="white"/>
<path opacity="0.3" d="M321.855 715.546C322.362 715.805 322.563 716.426 322.304 716.933C322.045 717.44 321.424 717.641 320.917 717.382C320.41 717.123 320.208 716.502 320.467 715.995C320.726 715.488 321.347 715.287 321.855 715.546Z" fill="white"/>
<path d="M350.298 730.652C350.678 730.847 350.829 731.312 350.635 731.693C350.441 732.073 349.975 732.224 349.595 732.029C349.215 731.835 349.064 731.37 349.258 730.989C349.452 730.609 349.918 730.458 350.298 730.652Z" fill="white"/>
<defs>
<filter id="filter0_f_2089_43057" x="-410.254" y="0.185944" width="1370.04" height="1251.66" filterUnits="userSpaceOnUse" color-interpolation-filters="sRGB">
<feFlood flood-opacity="0" result="BackgroundImageFix"/>
<feBlend mode="normal" in="SourceGraphic" in2="BackgroundImageFix" result="shape"/>
<feGaussianBlur stdDeviation="191.2" result="effect1_foregroundBlur_2089_43057"/>
</filter>
</defs>
</svg>
