<svg width="781" height="882" viewBox="0 0 781 882" fill="none" xmlns="http://www.w3.org/2000/svg">
<path d="M557.525 57.5156C557.265 57.7694 557.259 58.1863 557.513 58.4467C557.767 58.7071 558.184 58.7124 558.444 58.4586C558.705 58.2048 558.71 57.7879 558.456 57.5275C558.202 57.2671 557.785 57.2618 557.525 57.5156Z" fill="white"/>
<path d="M505.557 41.0137C505.296 41.2675 505.291 41.6844 505.545 41.9448C505.798 42.2052 506.215 42.2105 506.476 41.9567C506.736 41.7028 506.742 41.286 506.488 41.0256C506.234 40.7652 505.817 40.7598 505.557 41.0137Z" fill="white"/>
<path opacity="0.3" d="M539.611 74.0556C539.35 74.3095 539.345 74.7263 539.599 74.9867C539.852 75.2471 540.269 75.2525 540.53 74.9987C540.79 74.7448 540.795 74.328 540.542 74.0675C540.288 73.8071 539.871 73.8018 539.611 74.0556Z" fill="white"/>
<path opacity="0.11" d="M634.413 19.3701C634.153 19.6239 634.148 20.0408 634.401 20.3012C634.655 20.5616 635.072 20.5669 635.332 20.3131C635.593 20.0593 635.598 19.6424 635.344 19.382C635.091 19.1216 634.674 19.1163 634.413 19.3701Z" fill="white"/>
<path opacity="0.11" d="M532.576 41.3603C532.316 41.6141 532.311 42.031 532.564 42.2914C532.818 42.5518 533.235 42.5572 533.496 42.3033C533.756 42.0495 533.761 41.6326 533.507 41.3722C533.254 41.1118 532.837 41.1065 532.576 41.3603Z" fill="white"/>
<path d="M468.531 40.3028C468.14 40.6837 468.132 41.3094 468.513 41.7002C468.894 42.0911 469.52 42.0991 469.911 41.7181C470.302 41.3372 470.31 40.7115 469.929 40.3207C469.548 39.9298 468.922 39.9218 468.531 40.3028Z" fill="white"/>
<path d="M479.188 81.4336C478.797 81.8146 478.789 82.4402 479.17 82.8311C479.551 83.2219 480.177 83.2299 480.567 82.849C480.958 82.468 480.966 81.8423 480.585 81.4515C480.204 81.0607 479.579 81.0527 479.188 81.4336Z" fill="white"/>
<path d="M493.153 118.416C492.763 118.797 492.755 119.423 493.136 119.813C493.517 120.204 494.142 120.212 494.533 119.831C494.924 119.45 494.932 118.825 494.551 118.434C494.17 118.043 493.544 118.035 493.153 118.416Z" fill="white"/>
<path opacity="0.3" d="M610.692 15.8058C610.171 16.3138 610.16 17.1483 610.668 17.6696C611.177 18.1908 612.011 18.2015 612.532 17.6934C613.053 17.1853 613.064 16.3509 612.556 15.8296C612.048 15.3084 611.214 15.2977 610.692 15.8058Z" fill="white"/>
<path d="M643.343 49.296C642.822 49.8041 642.811 50.6385 643.319 51.1598C643.827 51.6811 644.662 51.6917 645.183 51.1837C645.704 50.6756 645.715 49.8411 645.207 49.3199C644.699 48.7986 643.864 48.7879 643.343 49.296Z" fill="white"/>
<path d="M576.283 29.1074C575.893 29.4884 575.884 30.1141 576.265 30.5049C576.646 30.8957 577.272 30.9038 577.663 30.5228C578.054 30.1418 578.062 29.5162 577.681 29.1253C577.3 28.7345 576.674 28.7265 576.283 29.1074Z" fill="white"/>
<path opacity="0.3" d="M571.335 69.8068C570.814 70.3148 570.803 71.1493 571.312 71.6705C571.82 72.1918 572.654 72.2025 573.175 71.6944C573.697 71.1863 573.707 70.3519 573.199 69.8306C572.691 69.3093 571.857 69.2987 571.335 69.8068Z" fill="white"/>
<path opacity="0.3" d="M491.987 81.8331C491.466 82.3412 491.455 83.1756 491.963 83.6969C492.471 84.2182 493.306 84.2288 493.827 83.7208C494.348 83.2127 494.359 82.3782 493.851 81.857C493.343 81.3357 492.508 81.325 491.987 81.8331Z" fill="white"/>
<path opacity="0.3" d="M546.264 27.0938C545.742 27.6019 545.732 28.4364 546.24 28.9576C546.748 29.4789 547.582 29.4896 548.104 28.9815C548.625 28.4734 548.635 27.6389 548.127 27.1177C547.619 26.5964 546.785 26.5858 546.264 27.0938Z" fill="white"/>
<path opacity="0.11" d="M525.124 77.1329C524.602 77.641 524.592 78.4754 525.1 78.9967C525.608 79.5179 526.442 79.5287 526.964 79.0206C527.485 78.5125 527.496 77.678 526.987 77.1567C526.479 76.6355 525.645 76.6248 525.124 77.1329Z" fill="white"/>
<path opacity="0.11" d="M680.745 204.534C680.223 205.042 680.213 205.877 680.721 206.398C681.229 206.919 682.063 206.93 682.585 206.422C683.106 205.914 683.116 205.079 682.608 204.558C682.1 204.037 681.266 204.026 680.745 204.534Z" fill="white"/>
<path d="M672.623 202.331C672.232 202.712 672.224 203.338 672.605 203.729C672.986 204.119 673.612 204.127 674.003 203.746C674.394 203.365 674.402 202.74 674.021 202.349C673.64 201.958 673.014 201.95 672.623 202.331Z" fill="white"/>
<path d="M666.708 227.411C666.317 227.792 666.309 228.418 666.69 228.809C667.071 229.199 667.697 229.207 668.088 228.827C668.479 228.446 668.487 227.82 668.106 227.429C667.725 227.038 667.099 227.03 666.708 227.411Z" fill="white"/>
<path d="M707.729 189.273C707.338 189.654 707.33 190.28 707.711 190.671C708.092 191.062 708.717 191.07 709.108 190.689C709.499 190.308 709.507 189.682 709.126 189.291C708.745 188.901 708.119 188.892 707.729 189.273Z" fill="white"/>
<path opacity="0.11" d="M720.046 155.19C719.525 155.698 719.514 156.532 720.022 157.053C720.53 157.575 721.364 157.585 721.886 157.077C722.407 156.569 722.418 155.735 721.91 155.213C721.402 154.692 720.567 154.681 720.046 155.19Z" fill="white"/>
<path d="M739.121 156.832C738.861 157.086 738.855 157.503 739.109 157.763C739.363 158.024 739.78 158.029 740.04 157.775C740.301 157.521 740.306 157.104 740.052 156.844C739.798 156.584 739.381 156.578 739.121 156.832Z" fill="white"/>
<path d="M664.233 184.755C663.972 185.009 663.967 185.426 664.221 185.686C664.474 185.946 664.891 185.952 665.152 185.698C665.412 185.444 665.418 185.027 665.164 184.767C664.91 184.506 664.493 184.501 664.233 184.755Z" fill="white"/>
<path d="M561.389 284.991C561.128 285.245 561.123 285.662 561.377 285.922C561.631 286.183 562.047 286.188 562.308 285.934C562.568 285.68 562.574 285.264 562.32 285.003C562.066 284.743 561.649 284.737 561.389 284.991Z" fill="white"/>
<path d="M534.803 360.584C534.542 360.838 534.537 361.255 534.791 361.515C535.045 361.775 535.462 361.781 535.722 361.527C535.982 361.273 535.988 360.856 535.734 360.596C535.48 360.335 535.063 360.33 534.803 360.584Z" fill="white"/>
<path d="M482.834 344.079C482.574 344.333 482.568 344.75 482.822 345.01C483.076 345.271 483.493 345.276 483.753 345.022C484.014 344.768 484.019 344.351 483.765 344.091C483.511 343.831 483.095 343.825 482.834 344.079Z" fill="white"/>
<path opacity="0.11" d="M737.394 146.562C737.133 146.816 737.128 147.233 737.382 147.494C737.636 147.754 738.053 147.759 738.313 147.505C738.573 147.252 738.579 146.835 738.325 146.574C738.071 146.314 737.654 146.309 737.394 146.562Z" fill="white"/>
<path opacity="0.11" d="M648.615 166.853C648.355 167.106 648.349 167.523 648.603 167.784C648.857 168.044 649.274 168.049 649.534 167.796C649.795 167.542 649.8 167.125 649.546 166.864C649.292 166.604 648.875 166.599 648.615 166.853Z" fill="white"/>
<path opacity="0.11" d="M562.645 259.852C562.385 260.106 562.38 260.523 562.634 260.784C562.887 261.044 563.304 261.049 563.565 260.796C563.825 260.542 563.83 260.125 563.577 259.864C563.323 259.604 562.906 259.599 562.645 259.852Z" fill="white"/>
<path d="M738.94 207.607C738.679 207.861 738.674 208.278 738.928 208.538C739.182 208.799 739.598 208.804 739.859 208.55C740.119 208.297 740.125 207.88 739.871 207.619C739.617 207.359 739.2 207.354 738.94 207.607Z" fill="white"/>
<path d="M667.213 279.359C666.952 279.613 666.947 280.03 667.201 280.29C667.455 280.551 667.872 280.556 668.132 280.302C668.392 280.049 668.398 279.632 668.144 279.371C667.89 279.111 667.473 279.106 667.213 279.359Z" fill="white"/>
<path d="M728.714 132.94C728.454 133.194 728.449 133.611 728.702 133.872C728.956 134.132 729.373 134.137 729.633 133.883C729.894 133.63 729.899 133.213 729.645 132.952C729.392 132.692 728.975 132.687 728.714 132.94Z" fill="white"/>
<path opacity="0.3" d="M761.737 100.753C761.476 101.007 761.471 101.424 761.725 101.684C761.978 101.944 762.395 101.95 762.656 101.696C762.916 101.442 762.921 101.025 762.668 100.765C762.414 100.504 761.997 100.499 761.737 100.753Z" fill="white"/>
<path opacity="0.3" d="M719.408 204.563C719.147 204.817 719.142 205.234 719.396 205.495C719.65 205.755 720.066 205.76 720.327 205.506C720.587 205.253 720.593 204.836 720.339 204.575C720.085 204.315 719.668 204.31 719.408 204.563Z" fill="white"/>
<path opacity="0.3" d="M711.955 131.795C711.695 132.049 711.689 132.466 711.943 132.726C712.197 132.986 712.614 132.992 712.874 132.738C713.135 132.484 713.14 132.067 712.886 131.807C712.632 131.546 712.215 131.541 711.955 131.795Z" fill="white"/>
<path opacity="0.3" d="M764.44 71.4414C764.179 71.6952 764.174 72.1121 764.428 72.3725C764.682 72.6329 765.099 72.6382 765.359 72.3844C765.619 72.1306 765.625 71.7137 765.371 71.4533C765.117 71.1929 764.7 71.1876 764.44 71.4414Z" fill="white"/>
<path opacity="0.3" d="M516.889 377.124C516.628 377.378 516.623 377.795 516.877 378.055C517.13 378.316 517.547 378.321 517.808 378.067C518.068 377.813 518.074 377.396 517.82 377.136C517.566 376.875 517.149 376.87 516.889 377.124Z" fill="white"/>
<path opacity="0.11" d="M611.691 322.436C611.43 322.69 611.425 323.107 611.679 323.368C611.933 323.628 612.35 323.633 612.61 323.38C612.87 323.126 612.876 322.709 612.622 322.448C612.368 322.188 611.951 322.183 611.691 322.436Z" fill="white"/>
<path opacity="0.11" d="M509.855 344.427C509.594 344.681 509.589 345.097 509.843 345.358C510.097 345.618 510.514 345.624 510.774 345.37C511.034 345.116 511.04 344.699 510.786 344.439C510.532 344.178 510.115 344.173 509.855 344.427Z" fill="white"/>
<path opacity="0.3" d="M625.065 223.848C624.543 224.356 624.533 225.19 625.041 225.712C625.549 226.233 626.383 226.243 626.905 225.735C627.426 225.227 627.436 224.393 626.928 223.872C626.42 223.35 625.586 223.34 625.065 223.848Z" fill="white"/>
<path opacity="0.11" d="M611.025 265.13C610.504 265.638 610.493 266.473 611.001 266.994C611.509 267.515 612.343 267.526 612.865 267.018C613.386 266.51 613.397 265.675 612.889 265.154C612.381 264.633 611.546 264.622 611.025 265.13Z" fill="white"/>
<path d="M627.351 281.41C626.96 281.791 626.952 282.417 627.333 282.808C627.714 283.198 628.34 283.206 628.731 282.826C629.122 282.445 629.13 281.819 628.749 281.428C628.368 281.037 627.742 281.029 627.351 281.41Z" fill="white"/>
<path d="M611.62 200.154C611.229 200.535 611.221 201.161 611.602 201.552C611.983 201.943 612.609 201.951 613 201.57C613.39 201.189 613.398 200.563 613.018 200.172C612.637 199.781 612.011 199.773 611.62 200.154Z" fill="white"/>
<path d="M445.809 343.373C445.419 343.754 445.411 344.38 445.792 344.771C446.173 345.161 446.798 345.169 447.189 344.788C447.58 344.407 447.588 343.782 447.207 343.391C446.826 343 446.2 342.992 445.809 343.373Z" fill="white"/>
<path d="M759.786 52.9795C759.395 53.3605 759.387 53.9861 759.768 54.377C760.149 54.7678 760.774 54.7758 761.165 54.3949C761.556 54.0139 761.564 53.3882 761.183 52.9974C760.802 52.6066 760.176 52.5986 759.786 52.9795Z" fill="white"/>
<path d="M640.796 249.905C640.405 250.286 640.397 250.912 640.778 251.303C641.159 251.694 641.785 251.702 642.175 251.321C642.566 250.94 642.574 250.314 642.193 249.923C641.812 249.532 641.187 249.524 640.796 249.905Z" fill="white"/>
<path d="M688.855 134.993C688.464 135.374 688.456 136 688.837 136.391C689.218 136.781 689.844 136.789 690.234 136.409C690.625 136.028 690.633 135.402 690.252 135.011C689.871 134.62 689.246 134.612 688.855 134.993Z" fill="white"/>
<path d="M550.205 230.578C549.814 230.959 549.806 231.585 550.187 231.976C550.568 232.366 551.194 232.374 551.585 231.994C551.976 231.613 551.984 230.987 551.603 230.596C551.222 230.205 550.596 230.197 550.205 230.578Z" fill="white"/>
<path d="M456.465 384.505C456.074 384.886 456.066 385.511 456.447 385.902C456.828 386.293 457.453 386.301 457.844 385.92C458.235 385.539 458.243 384.914 457.862 384.523C457.481 384.132 456.855 384.124 456.465 384.505Z" fill="white"/>
<path d="M470.429 421.484C470.039 421.865 470.031 422.491 470.412 422.882C470.792 423.273 471.418 423.281 471.809 422.9C472.2 422.519 472.208 421.893 471.827 421.502C471.446 421.111 470.82 421.103 470.429 421.484Z" fill="white"/>
<path opacity="0.3" d="M587.971 318.876C587.45 319.384 587.439 320.219 587.948 320.74C588.456 321.261 589.29 321.272 589.811 320.764C590.333 320.256 590.343 319.421 589.835 318.9C589.327 318.379 588.493 318.368 587.971 318.876Z" fill="white"/>
<path d="M620.622 352.365C620.101 352.873 620.09 353.708 620.598 354.229C621.106 354.75 621.941 354.761 622.462 354.253C622.983 353.745 622.994 352.91 622.486 352.389C621.978 351.868 621.143 351.857 620.622 352.365Z" fill="white"/>
<path d="M553.561 332.176C553.171 332.557 553.163 333.182 553.544 333.573C553.925 333.964 554.55 333.972 554.941 333.591C555.332 333.21 555.34 332.585 554.959 332.194C554.578 331.803 553.952 331.795 553.561 332.176Z" fill="white"/>
<path opacity="0.3" d="M548.614 372.875C548.092 373.383 548.082 374.218 548.59 374.739C549.098 375.26 549.932 375.271 550.454 374.763C550.975 374.255 550.986 373.42 550.477 372.899C549.969 372.378 549.135 372.367 548.614 372.875Z" fill="white"/>
<path opacity="0.3" d="M469.265 384.901C468.744 385.41 468.733 386.244 469.241 386.765C469.75 387.286 470.584 387.297 471.105 386.789C471.627 386.281 471.637 385.447 471.129 384.925C470.621 384.404 469.787 384.393 469.265 384.901Z" fill="white"/>
<path opacity="0.3" d="M523.541 330.162C523.02 330.67 523.009 331.505 523.517 332.026C524.025 332.547 524.86 332.558 525.381 332.05C525.902 331.542 525.913 330.707 525.405 330.186C524.897 329.665 524.062 329.654 523.541 330.162Z" fill="white"/>
<path opacity="0.11" d="M502.401 380.202C501.88 380.71 501.869 381.545 502.377 382.066C502.886 382.587 503.72 382.598 504.241 382.09C504.762 381.582 504.773 380.747 504.265 380.226C503.757 379.705 502.923 379.694 502.401 380.202Z" fill="white"/>
<path d="M765.436 121.064C765.045 121.445 765.037 122.071 765.418 122.462C765.799 122.853 766.425 122.861 766.816 122.48C767.207 122.099 767.215 121.473 766.834 121.082C766.453 120.692 765.827 120.684 765.436 121.064Z" fill="white"/>
<path opacity="0.11" d="M360.645 372.401C360.123 372.91 360.113 373.744 360.621 374.265C361.129 374.786 361.963 374.797 362.485 374.289C363.006 373.781 363.017 372.947 362.508 372.425C362 371.904 361.166 371.893 360.645 372.401Z" fill="white"/>
<path d="M352.524 370.199C352.133 370.58 352.125 371.206 352.506 371.597C352.887 371.988 353.512 371.996 353.903 371.615C354.294 371.234 354.302 370.608 353.921 370.217C353.54 369.826 352.914 369.818 352.524 370.199Z" fill="white"/>
<path d="M346.608 395.278C346.217 395.659 346.209 396.285 346.59 396.676C346.971 397.067 347.597 397.075 347.987 396.694C348.378 396.313 348.386 395.687 348.005 395.296C347.624 394.905 346.999 394.897 346.608 395.278Z" fill="white"/>
<path d="M387.629 357.141C387.238 357.522 387.23 358.147 387.611 358.538C387.992 358.929 388.618 358.937 389.009 358.556C389.399 358.175 389.407 357.549 389.027 357.159C388.646 356.768 388.02 356.76 387.629 357.141Z" fill="white"/>
<path opacity="0.11" d="M399.947 323.058C399.426 323.566 399.416 324.4 399.924 324.921C400.432 325.443 401.266 325.453 401.787 324.945C402.309 324.437 402.319 323.603 401.811 323.082C401.303 322.56 400.469 322.55 399.947 323.058Z" fill="white"/>
<path d="M419.023 324.699C418.762 324.953 418.757 325.37 419.011 325.63C419.265 325.891 419.681 325.896 419.942 325.642C420.202 325.388 420.208 324.972 419.954 324.711C419.7 324.451 419.283 324.445 419.023 324.699Z" fill="white"/>
<path d="M344.134 352.622C343.874 352.876 343.868 353.293 344.122 353.553C344.376 353.814 344.793 353.819 345.053 353.565C345.314 353.311 345.319 352.894 345.065 352.634C344.811 352.374 344.395 352.368 344.134 352.622Z" fill="white"/>
<path d="M241.289 452.859C241.029 453.113 241.023 453.53 241.277 453.79C241.531 454.051 241.948 454.056 242.208 453.802C242.469 453.549 242.474 453.132 242.22 452.871C241.966 452.611 241.549 452.605 241.289 452.859Z" fill="white"/>
<path d="M214.703 528.452C214.442 528.706 214.437 529.123 214.691 529.383C214.945 529.644 215.362 529.649 215.622 529.395C215.882 529.141 215.888 528.724 215.634 528.464C215.38 528.204 214.963 528.198 214.703 528.452Z" fill="white"/>
<path d="M162.735 511.949C162.475 512.203 162.47 512.62 162.724 512.88C162.977 513.141 163.394 513.146 163.655 512.892C163.915 512.638 163.92 512.222 163.667 511.961C163.413 511.701 162.996 511.695 162.735 511.949Z" fill="white"/>
<path d="M512.719 211.301C512.459 211.555 512.453 211.971 512.707 212.232C512.961 212.492 513.378 212.498 513.638 212.244C513.899 211.99 513.904 211.573 513.65 211.313C513.396 211.052 512.98 211.047 512.719 211.301Z" fill="white"/>
<path opacity="0.11" d="M544.619 229.88C544.359 230.134 544.354 230.551 544.607 230.811C544.861 231.071 545.278 231.077 545.538 230.823C545.799 230.569 545.804 230.152 545.55 229.892C545.297 229.631 544.88 229.626 544.619 229.88Z" fill="white"/>
<path opacity="0.11" d="M554.325 199.257C554.065 199.511 554.059 199.928 554.313 200.188C554.567 200.448 554.984 200.454 555.244 200.2C555.505 199.946 555.51 199.529 555.256 199.269C555.002 199.008 554.586 199.003 554.325 199.257Z" fill="white"/>
<path opacity="0.11" d="M511.17 186.127C510.91 186.381 510.905 186.798 511.158 187.058C511.412 187.318 511.829 187.324 512.09 187.07C512.35 186.816 512.355 186.399 512.101 186.139C511.848 185.878 511.431 185.873 511.17 186.127Z" fill="white"/>
<path opacity="0.11" d="M417.296 314.43C417.035 314.684 417.03 315.1 417.284 315.361C417.538 315.621 417.955 315.627 418.215 315.373C418.475 315.119 418.481 314.702 418.227 314.442C417.973 314.181 417.556 314.176 417.296 314.43Z" fill="white"/>
<path opacity="0.11" d="M328.524 334.721C328.263 334.974 328.258 335.391 328.512 335.652C328.766 335.912 329.182 335.918 329.443 335.664C329.703 335.41 329.709 334.993 329.455 334.733C329.201 334.472 328.784 334.467 328.524 334.721Z" fill="white"/>
<path opacity="0.11" d="M242.546 427.721C242.285 427.974 242.28 428.391 242.534 428.652C242.788 428.912 243.205 428.918 243.465 428.664C243.725 428.41 243.731 427.993 243.477 427.733C243.223 427.472 242.806 427.467 242.546 427.721Z" fill="white"/>
<path opacity="0.3" d="M502.511 244.247C502.25 244.501 502.245 244.918 502.499 245.178C502.753 245.439 503.169 245.444 503.43 245.19C503.69 244.936 503.696 244.519 503.442 244.259C503.188 243.999 502.771 243.993 502.511 244.247Z" fill="white"/>
<path d="M418.843 375.475C418.582 375.728 418.577 376.145 418.831 376.406C419.085 376.666 419.501 376.671 419.762 376.418C420.022 376.164 420.028 375.747 419.774 375.487C419.52 375.226 419.103 375.221 418.843 375.475Z" fill="white"/>
<path d="M347.113 447.226C346.853 447.48 346.847 447.897 347.101 448.158C347.355 448.418 347.772 448.423 348.032 448.17C348.293 447.916 348.298 447.499 348.044 447.238C347.79 446.978 347.374 446.973 347.113 447.226Z" fill="white"/>
<path d="M408.618 300.807C408.357 301.06 408.352 301.477 408.606 301.738C408.859 301.998 409.276 302.003 409.537 301.75C409.797 301.496 409.803 301.079 409.549 300.819C409.295 300.558 408.878 300.553 408.618 300.807Z" fill="white"/>
<path opacity="0.3" d="M441.638 268.621C441.378 268.875 441.373 269.292 441.626 269.552C441.88 269.813 442.297 269.818 442.558 269.564C442.818 269.31 442.823 268.893 442.569 268.633C442.316 268.373 441.899 268.367 441.638 268.621Z" fill="white"/>
<path opacity="0.11" d="M508.824 260.169C508.564 260.423 508.558 260.84 508.812 261.1C509.066 261.36 509.483 261.366 509.743 261.112C510.004 260.858 510.009 260.441 509.755 260.181C509.501 259.92 509.085 259.915 508.824 260.169Z" fill="white"/>
<path opacity="0.3" d="M399.308 372.432C399.048 372.685 399.043 373.102 399.297 373.363C399.55 373.623 399.967 373.628 400.228 373.375C400.488 373.121 400.493 372.704 400.24 372.444C399.986 372.183 399.569 372.178 399.308 372.432Z" fill="white"/>
<path opacity="0.3" d="M391.855 299.662C391.595 299.916 391.59 300.333 391.843 300.593C392.097 300.854 392.514 300.859 392.775 300.605C393.035 300.351 393.04 299.934 392.787 299.674C392.533 299.414 392.116 299.408 391.855 299.662Z" fill="white"/>
<path opacity="0.3" d="M444.342 239.309C444.082 239.562 444.076 239.979 444.33 240.24C444.584 240.5 445.001 240.505 445.261 240.252C445.522 239.998 445.527 239.581 445.273 239.32C445.019 239.06 444.602 239.055 444.342 239.309Z" fill="white"/>
<path opacity="0.3" d="M488.827 257.579C488.567 257.833 488.561 258.25 488.815 258.51C489.069 258.771 489.486 258.776 489.746 258.522C490.007 258.268 490.012 257.851 489.758 257.591C489.504 257.331 489.087 257.325 488.827 257.579Z" fill="white"/>
<path opacity="0.3" d="M196.789 544.992C196.529 545.246 196.524 545.663 196.778 545.923C197.031 546.184 197.448 546.189 197.709 545.935C197.969 545.681 197.974 545.264 197.721 545.004C197.467 544.744 197.05 544.738 196.789 544.992Z" fill="white"/>
<path opacity="0.11" d="M291.592 490.306C291.332 490.559 291.326 490.976 291.58 491.237C291.834 491.497 292.251 491.502 292.511 491.249C292.772 490.995 292.777 490.578 292.523 490.318C292.269 490.057 291.852 490.052 291.592 490.306Z" fill="white"/>
<path opacity="0.11" d="M189.756 512.296C189.495 512.55 189.49 512.967 189.744 513.227C189.997 513.487 190.414 513.493 190.675 513.239C190.935 512.985 190.94 512.568 190.687 512.308C190.433 512.047 190.016 512.042 189.756 512.296Z" fill="white"/>
<path opacity="0.3" d="M304.966 391.715C304.445 392.223 304.434 393.057 304.942 393.579C305.45 394.1 306.285 394.111 306.806 393.603C307.327 393.095 307.338 392.26 306.83 391.739C306.322 391.218 305.487 391.207 304.966 391.715Z" fill="white"/>
<path opacity="0.11" d="M290.925 432.998C290.404 433.506 290.394 434.341 290.902 434.862C291.41 435.383 292.244 435.394 292.765 434.886C293.287 434.378 293.297 433.543 292.789 433.022C292.281 432.501 291.447 432.49 290.925 432.998Z" fill="white"/>
<path d="M307.251 449.278C306.861 449.659 306.853 450.285 307.234 450.676C307.614 451.067 308.24 451.075 308.631 450.694C309.022 450.313 309.03 449.687 308.649 449.296C308.268 448.905 307.642 448.897 307.251 449.278Z" fill="white"/>
<path d="M291.521 368.021C291.13 368.402 291.122 369.028 291.503 369.419C291.884 369.81 292.509 369.818 292.9 369.437C293.291 369.056 293.299 368.43 292.918 368.039C292.537 367.649 291.912 367.641 291.521 368.021Z" fill="white"/>
<path d="M125.712 491.24C125.321 491.621 125.313 492.247 125.694 492.638C126.075 493.029 126.701 493.037 127.091 492.656C127.482 492.275 127.49 491.649 127.109 491.258C126.728 490.867 126.103 490.859 125.712 491.24Z" fill="white"/>
<path d="M439.688 220.847C439.297 221.228 439.289 221.853 439.67 222.244C440.051 222.635 440.676 222.643 441.067 222.262C441.458 221.881 441.466 221.255 441.085 220.865C440.704 220.474 440.079 220.466 439.688 220.847Z" fill="white"/>
<path d="M512.999 170.546C512.608 170.927 512.6 171.553 512.981 171.943C513.362 172.334 513.988 172.342 514.379 171.961C514.77 171.58 514.778 170.955 514.397 170.564C514.016 170.173 513.39 170.165 512.999 170.546Z" fill="white"/>
<path d="M539.413 181.597C539.022 181.978 539.014 182.603 539.395 182.994C539.776 183.385 540.401 183.393 540.792 183.012C541.183 182.631 541.191 182.005 540.81 181.615C540.429 181.224 539.803 181.216 539.413 181.597Z" fill="white"/>
<path d="M320.696 417.774C320.306 418.155 320.298 418.781 320.679 419.172C321.06 419.563 321.685 419.571 322.076 419.19C322.467 418.809 322.475 418.183 322.094 417.792C321.713 417.401 321.087 417.393 320.696 417.774Z" fill="white"/>
<path d="M368.756 302.86C368.365 303.241 368.357 303.867 368.738 304.258C369.119 304.649 369.745 304.657 370.136 304.276C370.526 303.895 370.534 303.269 370.153 302.878C369.773 302.487 369.147 302.479 368.756 302.86Z" fill="white"/>
<path d="M230.106 398.446C229.715 398.827 229.707 399.453 230.088 399.844C230.469 400.235 231.094 400.243 231.485 399.862C231.876 399.481 231.884 398.855 231.503 398.464C231.122 398.073 230.496 398.065 230.106 398.446Z" fill="white"/>
<path d="M136.368 532.372C135.977 532.753 135.969 533.379 136.35 533.77C136.731 534.16 137.356 534.168 137.747 533.787C138.138 533.406 138.146 532.781 137.765 532.39C137.384 531.999 136.758 531.991 136.368 532.372Z" fill="white"/>
<path d="M150.331 589.353C149.94 589.734 149.932 590.359 150.313 590.75C150.694 591.141 151.32 591.149 151.711 590.768C152.101 590.387 152.109 589.761 151.728 589.37C151.347 588.98 150.722 588.972 150.331 589.353Z" fill="white"/>
<path opacity="0.3" d="M267.881 486.742C267.359 487.25 267.349 488.085 267.857 488.606C268.365 489.127 269.199 489.138 269.72 488.63C270.242 488.122 270.252 487.287 269.744 486.766C269.236 486.245 268.402 486.234 267.881 486.742Z" fill="white"/>
<path d="M300.522 520.233C300.001 520.742 299.99 521.576 300.498 522.097C301.006 522.619 301.841 522.629 302.362 522.121C302.883 521.613 302.894 520.779 302.386 520.257C301.878 519.736 301.043 519.725 300.522 520.233Z" fill="white"/>
<path d="M379.603 843.111C379.082 843.619 379.072 844.454 379.58 844.975C380.088 845.496 380.922 845.507 381.443 844.999C381.965 844.491 381.975 843.657 381.467 843.135C380.959 842.614 380.125 842.603 379.603 843.111Z" fill="white"/>
<path d="M233.462 500.043C233.071 500.424 233.063 501.05 233.444 501.44C233.825 501.831 234.451 501.839 234.841 501.458C235.232 501.077 235.24 500.452 234.859 500.061C234.478 499.67 233.853 499.662 233.462 500.043Z" fill="white"/>
<path opacity="0.3" d="M228.514 540.743C227.993 541.251 227.982 542.086 228.49 542.607C228.999 543.128 229.833 543.139 230.354 542.631C230.876 542.123 230.886 541.288 230.378 540.767C229.87 540.246 229.036 540.235 228.514 540.743Z" fill="white"/>
<path opacity="0.3" d="M149.166 552.771C148.644 553.279 148.634 554.113 149.142 554.634C149.65 555.156 150.484 555.166 151.006 554.658C151.527 554.15 151.538 553.316 151.029 552.794C150.521 552.273 149.687 552.262 149.166 552.771Z" fill="white"/>
<path opacity="0.3" d="M203.442 498.029C202.92 498.537 202.91 499.372 203.418 499.893C203.926 500.414 204.76 500.425 205.282 499.917C205.803 499.409 205.813 498.575 205.305 498.053C204.797 497.532 203.963 497.521 203.442 498.029Z" fill="white"/>
<path opacity="0.3" d="M466.403 226.084C465.882 226.592 465.871 227.427 466.379 227.948C466.887 228.469 467.722 228.48 468.243 227.972C468.764 227.464 468.775 226.629 468.267 226.108C467.759 225.587 466.924 225.576 466.403 226.084Z" fill="white"/>
<path opacity="0.3" d="M529.91 214.779C529.388 215.287 529.378 216.122 529.886 216.643C530.394 217.164 531.228 217.175 531.75 216.667C532.271 216.159 532.281 215.325 531.773 214.803C531.265 214.282 530.431 214.271 529.91 214.779Z" fill="white"/>
<path opacity="0.11" d="M182.302 548.07C181.781 548.578 181.77 549.413 182.279 549.934C182.787 550.455 183.621 550.466 184.142 549.958C184.664 549.45 184.674 548.616 184.166 548.094C183.658 547.573 182.824 547.562 182.302 548.07Z" fill="white"/>
<path opacity="0.3" d="M478.081 296.572C477.56 297.08 477.55 297.915 478.058 298.436C478.566 298.957 479.4 298.968 479.921 298.46C480.443 297.952 480.453 297.117 479.945 296.596C479.437 296.075 478.603 296.064 478.081 296.572Z" fill="white"/>
<path opacity="0.11" d="M500.016 293.591C499.495 294.099 499.484 294.933 499.992 295.455C500.5 295.976 501.335 295.987 501.856 295.479C502.377 294.97 502.388 294.136 501.88 293.615C501.372 293.094 500.537 293.083 500.016 293.591Z" fill="white"/>
<path opacity="0.3" d="M474.358 259.725C473.837 260.233 473.826 261.067 474.334 261.589C474.842 262.11 475.676 262.12 476.198 261.612C476.719 261.104 476.73 260.27 476.222 259.749C475.714 259.227 474.879 259.217 474.358 259.725Z" fill="white"/>
<path d="M445.339 288.933C444.948 289.314 444.94 289.939 445.321 290.33C445.702 290.721 446.328 290.729 446.719 290.348C447.109 289.967 447.117 289.341 446.736 288.951C446.356 288.56 445.73 288.552 445.339 288.933Z" fill="white"/>
</svg>
