<svg width="37" height="13" viewBox="0 0 37 13" fill="none" xmlns="http://www.w3.org/2000/svg">
<rect width="37" height="13" rx="6.5" fill="url(#paint0_linear_2014_43069)"/>
<path d="M11.6 9V3.4H12.272L15.256 7.888V3.4H15.928V9H15.256L12.272 4.512V9H11.6ZM18.7393 9.096C18.3606 9.096 18.0246 9.008 17.7313 8.832C17.4433 8.656 17.2166 8.41067 17.0513 8.096C16.8859 7.776 16.8033 7.40533 16.8033 6.984C16.8033 6.55733 16.8833 6.18667 17.0433 5.872C17.2086 5.55733 17.4379 5.312 17.7313 5.136C18.0299 4.96 18.3713 4.872 18.7553 4.872C19.1499 4.872 19.4833 4.96 19.7553 5.136C20.0326 5.312 20.2433 5.544 20.3873 5.832C20.5366 6.11467 20.6113 6.42667 20.6113 6.768C20.6113 6.82133 20.6113 6.87733 20.6113 6.936C20.6113 6.99467 20.6086 7.06133 20.6033 7.136H17.3073V6.616H19.9553C19.9393 6.248 19.8166 5.96 19.5873 5.752C19.3633 5.544 19.0806 5.44 18.7393 5.44C18.5099 5.44 18.2966 5.49333 18.0993 5.6C17.9073 5.70133 17.7526 5.85333 17.6353 6.056C17.5179 6.25333 17.4593 6.50133 17.4593 6.8V7.024C17.4593 7.35467 17.5179 7.632 17.6353 7.856C17.7579 8.08 17.9153 8.248 18.1073 8.36C18.3046 8.472 18.5153 8.528 18.7393 8.528C19.0219 8.528 19.2539 8.46667 19.4353 8.344C19.6219 8.216 19.7553 8.04533 19.8353 7.832H20.4993C20.4353 8.072 20.3233 8.288 20.1633 8.48C20.0033 8.672 19.8033 8.824 19.5633 8.936C19.3286 9.04267 19.0539 9.096 18.7393 9.096ZM22.0579 9L20.8739 4.968H21.5459L22.4659 8.368H22.3459L23.3459 4.968H24.1059L25.1219 8.36L24.9939 8.368L25.9059 4.968H26.5859L25.4099 9H24.7219L23.6659 5.448H23.8019L22.7459 9H22.0579Z" fill="white"/>
<defs>
<linearGradient id="paint0_linear_2014_43069" x1="12.7395" y1="1.79042" x2="28.3715" y2="18.4378" gradientUnits="userSpaceOnUse">
<stop stop-color="#732CFF"/>
<stop offset="1" stop-color="#F46D6B"/>
</linearGradient>
</defs>
</svg>
