<svg width="458" height="291" viewBox="0 0 458 291" fill="none" xmlns="http://www.w3.org/2000/svg">
<rect width="458" height="291" rx="15" fill="white"/>
<path d="M43.8359 53.2705V30.541H45.2764V53.2705H43.8359ZM44.5562 51.293C43.1971 51.293 42.0171 51.0814 41.0161 50.6582C40.0233 50.2269 39.2461 49.6125 38.6846 48.8149C38.123 48.0174 37.8097 47.0693 37.7446 45.9707H40.5034C40.5604 46.6299 40.772 47.1792 41.1382 47.6187C41.5125 48.05 41.9967 48.3714 42.5908 48.583C43.1849 48.7946 43.8359 48.9004 44.5439 48.9004C45.3171 48.9004 46.0088 48.7783 46.6191 48.5342C47.2295 48.29 47.7056 47.9482 48.0474 47.5088C48.3973 47.0612 48.5723 46.5404 48.5723 45.9463C48.5723 45.4092 48.4176 44.9697 48.1084 44.6279C47.8073 44.2861 47.3963 44.0054 46.8755 43.7856C46.3547 43.5578 45.7687 43.3584 45.1177 43.1875L42.9814 42.6016C41.5166 42.2109 40.361 41.6291 39.5146 40.856C38.6683 40.0747 38.2451 39.0534 38.2451 37.792C38.2451 36.7422 38.5259 35.8267 39.0874 35.0454C39.6571 34.2642 40.4261 33.6579 41.3945 33.2266C42.3711 32.7871 43.4657 32.5674 44.6782 32.5674C45.9152 32.5674 47.0016 32.7871 47.9375 33.2266C48.8815 33.6579 49.6261 34.252 50.1714 35.0088C50.7248 35.7575 51.0137 36.616 51.0381 37.5845H48.377C48.2793 36.7463 47.8887 36.0952 47.2051 35.6313C46.5296 35.1675 45.667 34.9355 44.6172 34.9355C43.8848 34.9355 43.2419 35.0535 42.6885 35.2896C42.1432 35.5174 41.7201 35.8348 41.4189 36.2417C41.126 36.6486 40.9795 37.1165 40.9795 37.6455C40.9795 38.2152 41.1545 38.679 41.5044 39.0371C41.8625 39.3952 42.2938 39.68 42.7983 39.8916C43.311 40.0951 43.8034 40.2619 44.2754 40.3921L46.0454 40.8682C46.6232 41.0146 47.2173 41.21 47.8276 41.4541C48.438 41.6982 49.0036 42.0197 49.5244 42.4185C50.0534 42.8091 50.4766 43.2974 50.7939 43.8833C51.1195 44.4611 51.2822 45.161 51.2822 45.9829C51.2822 47.0002 51.0177 47.9116 50.4888 48.7173C49.9598 49.5148 49.1948 50.1455 48.1938 50.6094C47.1929 51.0651 45.9803 51.293 44.5562 51.293ZM53.2598 51V49.0225L59.4121 42.626C60.0632 41.9424 60.6003 41.3402 61.0234 40.8193C61.4548 40.2904 61.7762 39.7899 61.9878 39.3179C62.2075 38.8459 62.3174 38.3454 62.3174 37.8164C62.3174 37.2061 62.175 36.6812 61.8901 36.2417C61.6053 35.8022 61.2188 35.4645 60.7305 35.2285C60.2422 34.9925 59.6888 34.8745 59.0703 34.8745C58.4193 34.8745 57.8537 35.0088 57.3735 35.2773C56.8934 35.5378 56.519 35.9121 56.2505 36.4004C55.9901 36.8805 55.8599 37.4461 55.8599 38.0972H53.2476C53.2476 36.9904 53.4998 36.022 54.0044 35.1919C54.5171 34.3618 55.217 33.7189 56.104 33.2632C56.9992 32.7993 58.0083 32.5674 59.1313 32.5674C60.2788 32.5674 61.2879 32.7952 62.1587 33.251C63.0295 33.7067 63.709 34.3252 64.1973 35.1064C64.6855 35.8796 64.9297 36.7544 64.9297 37.731C64.9297 38.4064 64.8035 39.0656 64.5513 39.7085C64.3071 40.3514 63.8717 41.0716 63.2451 41.8691C62.6266 42.6585 61.764 43.6107 60.6572 44.7256L57.0439 48.5098V48.6562H65.2227V51H53.2598ZM73.8652 51.2441C72.4655 51.2441 71.2651 50.8779 70.2642 50.1455C69.2713 49.4131 68.5104 48.3551 67.9814 46.9717C67.4606 45.5801 67.2002 43.8955 67.2002 41.918C67.2002 39.9486 67.4647 38.2681 67.9937 36.8765C68.5226 35.4767 69.2835 34.4106 70.2764 33.6782C71.2773 32.9377 72.4736 32.5674 73.8652 32.5674C75.265 32.5674 76.4613 32.9377 77.4541 33.6782C78.4551 34.4106 79.216 35.4767 79.7368 36.8765C80.2658 38.2681 80.5303 39.9486 80.5303 41.918C80.5303 43.8955 80.2699 45.5801 79.749 46.9717C79.2282 48.3551 78.4714 49.4131 77.4785 50.1455C76.4857 50.8779 75.2812 51.2441 73.8652 51.2441ZM73.8652 48.9004C74.7197 48.9004 75.4399 48.6278 76.0259 48.0825C76.6118 47.5373 77.0594 46.7438 77.3687 45.7021C77.6779 44.6523 77.8325 43.391 77.8325 41.918C77.8325 40.4368 77.6779 39.1755 77.3687 38.1338C77.0594 37.084 76.6118 36.2865 76.0259 35.7412C75.4399 35.1878 74.7197 34.9111 73.8652 34.9111C72.6038 34.9111 71.6273 35.5256 70.9355 36.7544C70.252 37.9751 69.9102 39.6963 69.9102 41.918C69.9102 43.391 70.0648 44.6523 70.374 45.7021C70.6833 46.7438 71.1309 47.5373 71.7168 48.0825C72.3109 48.6278 73.027 48.9004 73.8652 48.9004ZM81.751 55.5044L82.8252 48.3877H85.6816L83.6675 55.5044H81.751ZM94.4707 51.2441C93.071 51.2441 91.8706 50.8779 90.8696 50.1455C89.8768 49.4131 89.1159 48.3551 88.5869 46.9717C88.0661 45.5801 87.8057 43.8955 87.8057 41.918C87.8057 39.9486 88.0701 38.2681 88.5991 36.8765C89.1281 35.4767 89.889 34.4106 90.8818 33.6782C91.8828 32.9377 93.0791 32.5674 94.4707 32.5674C95.8704 32.5674 97.0667 32.9377 98.0596 33.6782C99.0605 34.4106 99.8215 35.4767 100.342 36.8765C100.871 38.2681 101.136 39.9486 101.136 41.918C101.136 43.8955 100.875 45.5801 100.354 46.9717C99.8337 48.3551 99.0768 49.4131 98.084 50.1455C97.0911 50.8779 95.8867 51.2441 94.4707 51.2441ZM94.4707 48.9004C95.3252 48.9004 96.0454 48.6278 96.6313 48.0825C97.2173 47.5373 97.6649 46.7438 97.9741 45.7021C98.2834 44.6523 98.438 43.391 98.438 41.918C98.438 40.4368 98.2834 39.1755 97.9741 38.1338C97.6649 37.084 97.2173 36.2865 96.6313 35.7412C96.0454 35.1878 95.3252 34.9111 94.4707 34.9111C93.2093 34.9111 92.2327 35.5256 91.541 36.7544C90.8574 37.9751 90.5156 39.6963 90.5156 41.918C90.5156 43.391 90.6702 44.6523 90.9795 45.7021C91.2887 46.7438 91.7363 47.5373 92.3223 48.0825C92.9163 48.6278 93.6325 48.9004 94.4707 48.9004ZM109.583 51.2441C108.183 51.2441 106.983 50.8779 105.982 50.1455C104.989 49.4131 104.228 48.3551 103.699 46.9717C103.178 45.5801 102.918 43.8955 102.918 41.918C102.918 39.9486 103.182 38.2681 103.711 36.8765C104.24 35.4767 105.001 34.4106 105.994 33.6782C106.995 32.9377 108.191 32.5674 109.583 32.5674C110.983 32.5674 112.179 32.9377 113.172 33.6782C114.173 34.4106 114.934 35.4767 115.455 36.8765C115.984 38.2681 116.248 39.9486 116.248 41.918C116.248 43.8955 115.988 45.5801 115.467 46.9717C114.946 48.3551 114.189 49.4131 113.196 50.1455C112.203 50.8779 110.999 51.2441 109.583 51.2441ZM109.583 48.9004C110.438 48.9004 111.158 48.6278 111.744 48.0825C112.33 47.5373 112.777 46.7438 113.086 45.7021C113.396 44.6523 113.55 43.391 113.55 41.918C113.55 40.4368 113.396 39.1755 113.086 38.1338C112.777 37.084 112.33 36.2865 111.744 35.7412C111.158 35.1878 110.438 34.9111 109.583 34.9111C108.322 34.9111 107.345 35.5256 106.653 36.7544C105.97 37.9751 105.628 39.6963 105.628 41.918C105.628 43.391 105.783 44.6523 106.092 45.7021C106.401 46.7438 106.849 47.5373 107.435 48.0825C108.029 48.6278 108.745 48.9004 109.583 48.9004ZM124.695 51.2441C123.296 51.2441 122.095 50.8779 121.094 50.1455C120.101 49.4131 119.34 48.3551 118.812 46.9717C118.291 45.5801 118.03 43.8955 118.03 41.918C118.03 39.9486 118.295 38.2681 118.824 36.8765C119.353 35.4767 120.114 34.4106 121.106 33.6782C122.107 32.9377 123.304 32.5674 124.695 32.5674C126.095 32.5674 127.291 32.9377 128.284 33.6782C129.285 34.4106 130.046 35.4767 130.567 36.8765C131.096 38.2681 131.36 39.9486 131.36 41.918C131.36 43.8955 131.1 45.5801 130.579 46.9717C130.058 48.3551 129.301 49.4131 128.309 50.1455C127.316 50.8779 126.111 51.2441 124.695 51.2441ZM124.695 48.9004C125.55 48.9004 126.27 48.6278 126.856 48.0825C127.442 47.5373 127.889 46.7438 128.199 45.7021C128.508 44.6523 128.663 43.391 128.663 41.918C128.663 40.4368 128.508 39.1755 128.199 38.1338C127.889 37.084 127.442 36.2865 126.856 35.7412C126.27 35.1878 125.55 34.9111 124.695 34.9111C123.434 34.9111 122.457 35.5256 121.766 36.7544C121.082 37.9751 120.74 39.6963 120.74 41.918C120.74 43.391 120.895 44.6523 121.204 45.7021C121.513 46.7438 121.961 47.5373 122.547 48.0825C123.141 48.6278 123.857 48.9004 124.695 48.9004Z" fill="#0E1522"/>
<path d="M349.2 49V37.8H350.768L354.72 45.624L358.688 37.8H360.272V49H358.928V40.2L355.232 47.432H354.224L350.544 40.232V49H349.2ZM365.117 49.192C364.466 49.192 363.922 49.08 363.485 48.856C363.048 48.6213 362.722 48.3173 362.509 47.944C362.296 47.56 362.189 47.144 362.189 46.696C362.189 46.152 362.328 45.6933 362.605 45.32C362.893 44.936 363.293 44.648 363.805 44.456C364.328 44.2533 364.941 44.152 365.645 44.152H367.773C367.773 43.6507 367.693 43.2347 367.533 42.904C367.384 42.5627 367.16 42.3067 366.861 42.136C366.573 41.9653 366.21 41.88 365.773 41.88C365.261 41.88 364.818 42.008 364.445 42.264C364.072 42.52 363.842 42.8987 363.757 43.4H362.381C362.445 42.824 362.637 42.344 362.957 41.96C363.288 41.5653 363.704 41.2667 364.205 41.064C364.706 40.8507 365.229 40.744 365.773 40.744C366.52 40.744 367.138 40.8827 367.629 41.16C368.13 41.4267 368.504 41.8053 368.749 42.296C368.994 42.776 369.117 43.3467 369.117 44.008V49H367.917L367.837 47.576C367.73 47.8 367.592 48.0133 367.421 48.216C367.261 48.408 367.069 48.5787 366.845 48.728C366.621 48.8667 366.365 48.9787 366.077 49.064C365.8 49.1493 365.48 49.192 365.117 49.192ZM365.325 48.056C365.698 48.056 366.034 47.9813 366.333 47.832C366.642 47.672 366.904 47.4587 367.117 47.192C367.33 46.9147 367.49 46.6107 367.597 46.28C367.714 45.9493 367.773 45.6027 367.773 45.24V45.192H365.757C365.234 45.192 364.813 45.256 364.493 45.384C364.173 45.5013 363.944 45.672 363.805 45.896C363.666 46.1093 363.597 46.3547 363.597 46.632C363.597 46.92 363.661 47.1707 363.789 47.384C363.928 47.5973 364.125 47.7627 364.381 47.88C364.648 47.9973 364.962 48.056 365.325 48.056ZM371.762 52.52L373.73 48.104H373.266L370.098 40.936H371.554L374.178 47.096L376.93 40.936H378.322L373.17 52.52H371.762ZM383.767 49V48.056C384.524 47.4587 385.244 46.856 385.927 46.248C386.62 45.64 387.233 45.0373 387.767 44.44C388.3 43.832 388.716 43.24 389.015 42.664C389.324 42.088 389.479 41.5333 389.479 41C389.479 40.6053 389.409 40.2427 389.271 39.912C389.132 39.5707 388.908 39.2933 388.599 39.08C388.3 38.8667 387.895 38.76 387.383 38.76C386.881 38.76 386.465 38.872 386.135 39.096C385.804 39.3093 385.553 39.5973 385.383 39.96C385.223 40.312 385.143 40.7013 385.143 41.128H383.847C383.857 40.392 384.012 39.7627 384.311 39.24C384.62 38.7067 385.041 38.3013 385.575 38.024C386.108 37.7467 386.716 37.608 387.399 37.608C388.071 37.608 388.663 37.736 389.175 37.992C389.687 38.2373 390.087 38.6053 390.375 39.096C390.673 39.5867 390.823 40.2053 390.823 40.952C390.823 41.4747 390.711 41.9973 390.487 42.52C390.273 43.0427 389.985 43.5547 389.623 44.056C389.26 44.5467 388.855 45.0213 388.407 45.48C387.969 45.9387 387.516 46.3707 387.047 46.776C386.588 47.1813 386.156 47.5493 385.751 47.88H391.207V49H383.767ZM397.213 49.192C396.232 49.192 395.384 48.952 394.669 48.472C393.965 47.9813 393.426 47.304 393.053 46.44C392.68 45.5653 392.493 44.552 392.493 43.4C392.493 42.248 392.68 41.24 393.053 40.376C393.426 39.5013 393.965 38.824 394.669 38.344C395.384 37.8533 396.232 37.608 397.213 37.608C398.194 37.608 399.032 37.8533 399.725 38.344C400.429 38.824 400.968 39.5013 401.341 40.376C401.714 41.24 401.901 42.248 401.901 43.4C401.901 44.552 401.714 45.5653 401.341 46.44C400.968 47.304 400.429 47.9813 399.725 48.472C399.032 48.952 398.194 49.192 397.213 49.192ZM397.197 48.008C397.837 48.008 398.408 47.8267 398.909 47.464C399.41 47.0907 399.805 46.5627 400.093 45.88C400.381 45.1867 400.525 44.36 400.525 43.4C400.525 42.44 400.381 41.6187 400.093 40.936C399.805 40.2427 399.41 39.7147 398.909 39.352C398.408 38.9893 397.837 38.808 397.197 38.808C396.557 38.808 395.981 38.9893 395.469 39.352C394.968 39.7147 394.573 40.2427 394.285 40.936C394.008 41.6187 393.869 42.44 393.869 43.4C393.869 44.36 394.008 45.1867 394.285 45.88C394.573 46.5627 394.968 47.0907 395.469 47.464C395.981 47.8267 396.557 48.008 397.197 48.008ZM403.45 49V48.056C404.208 47.4587 404.928 46.856 405.61 46.248C406.304 45.64 406.917 45.0373 407.45 44.44C407.984 43.832 408.4 43.24 408.698 42.664C409.008 42.088 409.162 41.5333 409.162 41C409.162 40.6053 409.093 40.2427 408.954 39.912C408.816 39.5707 408.592 39.2933 408.282 39.08C407.984 38.8667 407.578 38.76 407.066 38.76C406.565 38.76 406.149 38.872 405.818 39.096C405.488 39.3093 405.237 39.5973 405.066 39.96C404.906 40.312 404.826 40.7013 404.826 41.128H403.53C403.541 40.392 403.696 39.7627 403.994 39.24C404.304 38.7067 404.725 38.3013 405.258 38.024C405.792 37.7467 406.4 37.608 407.082 37.608C407.754 37.608 408.346 37.736 408.858 37.992C409.37 38.2373 409.77 38.6053 410.058 39.096C410.357 39.5867 410.506 40.2053 410.506 40.952C410.506 41.4747 410.394 41.9973 410.17 42.52C409.957 43.0427 409.669 43.5547 409.306 44.056C408.944 44.5467 408.538 45.0213 408.09 45.48C407.653 45.9387 407.2 46.3707 406.73 46.776C406.272 47.1813 405.84 47.5493 405.434 47.88H410.89V49H403.45ZM412.589 49V48.056C413.346 47.4587 414.066 46.856 414.749 46.248C415.442 45.64 416.056 45.0373 416.589 44.44C417.122 43.832 417.538 43.24 417.837 42.664C418.146 42.088 418.301 41.5333 418.301 41C418.301 40.6053 418.232 40.2427 418.093 39.912C417.954 39.5707 417.73 39.2933 417.421 39.08C417.122 38.8667 416.717 38.76 416.205 38.76C415.704 38.76 415.288 38.872 414.957 39.096C414.626 39.3093 414.376 39.5973 414.205 39.96C414.045 40.312 413.965 40.7013 413.965 41.128H412.669C412.68 40.392 412.834 39.7627 413.133 39.24C413.442 38.7067 413.864 38.3013 414.397 38.024C414.93 37.7467 415.538 37.608 416.221 37.608C416.893 37.608 417.485 37.736 417.997 37.992C418.509 38.2373 418.909 38.6053 419.197 39.096C419.496 39.5867 419.645 40.2053 419.645 40.952C419.645 41.4747 419.533 41.9973 419.309 42.52C419.096 43.0427 418.808 43.5547 418.445 44.056C418.082 44.5467 417.677 45.0213 417.229 45.48C416.792 45.9387 416.338 46.3707 415.869 46.776C415.41 47.1813 414.978 47.5493 414.573 47.88H420.029V49H412.589Z" fill="#5B6475"/>
<path d="M65.2 121V109.8H68.496C69.808 109.8 70.8853 110.029 71.728 110.488C72.5813 110.936 73.2107 111.581 73.616 112.424C74.032 113.256 74.24 114.259 74.24 115.432C74.24 116.584 74.032 117.576 73.616 118.408C73.2107 119.24 72.5813 119.88 71.728 120.328C70.8853 120.776 69.808 121 68.496 121H65.2ZM66.544 119.88H68.464C69.552 119.88 70.416 119.704 71.056 119.352C71.696 118.989 72.1547 118.477 72.432 117.816C72.7093 117.144 72.848 116.349 72.848 115.432C72.848 114.493 72.7093 113.688 72.432 113.016C72.1547 112.344 71.696 111.827 71.056 111.464C70.416 111.101 69.552 110.92 68.464 110.92H66.544V119.88ZM78.6796 121.192C78.029 121.192 77.485 121.08 77.0476 120.856C76.6103 120.621 76.285 120.317 76.0716 119.944C75.8583 119.56 75.7516 119.144 75.7516 118.696C75.7516 118.152 75.8903 117.693 76.1676 117.32C76.4556 116.936 76.8556 116.648 77.3676 116.456C77.8903 116.253 78.5036 116.152 79.2076 116.152H81.3356C81.3356 115.651 81.2556 115.235 81.0956 114.904C80.9463 114.563 80.7223 114.307 80.4236 114.136C80.1356 113.965 79.773 113.88 79.3356 113.88C78.8236 113.88 78.381 114.008 78.0076 114.264C77.6343 114.52 77.405 114.899 77.3196 115.4H75.9436C76.0076 114.824 76.1996 114.344 76.5196 113.96C76.8503 113.565 77.2663 113.267 77.7676 113.064C78.269 112.851 78.7916 112.744 79.3356 112.744C80.0823 112.744 80.701 112.883 81.1916 113.16C81.693 113.427 82.0663 113.805 82.3116 114.296C82.557 114.776 82.6796 115.347 82.6796 116.008V121H81.4796L81.3996 119.576C81.293 119.8 81.1543 120.013 80.9836 120.216C80.8236 120.408 80.6316 120.579 80.4076 120.728C80.1836 120.867 79.9276 120.979 79.6396 121.064C79.3623 121.149 79.0423 121.192 78.6796 121.192ZM78.8876 120.056C79.261 120.056 79.597 119.981 79.8956 119.832C80.205 119.672 80.4663 119.459 80.6796 119.192C80.893 118.915 81.053 118.611 81.1596 118.28C81.277 117.949 81.3356 117.603 81.3356 117.24V117.192H79.3196C78.797 117.192 78.3756 117.256 78.0556 117.384C77.7356 117.501 77.5063 117.672 77.3676 117.896C77.229 118.109 77.1596 118.355 77.1596 118.632C77.1596 118.92 77.2236 119.171 77.3516 119.384C77.4903 119.597 77.6876 119.763 77.9436 119.88C78.2103 119.997 78.525 120.056 78.8876 120.056ZM87.628 121C87.148 121 86.732 120.925 86.38 120.776C86.028 120.627 85.756 120.376 85.564 120.024C85.3827 119.661 85.292 119.176 85.292 118.568V114.072H83.884V112.936H85.292L85.468 110.984H86.636V112.936H88.972V114.072H86.636V118.568C86.636 119.069 86.7373 119.411 86.94 119.592C87.1427 119.763 87.5 119.848 88.012 119.848H88.876V121H87.628ZM93.2696 121.192C92.619 121.192 92.075 121.08 91.6376 120.856C91.2003 120.621 90.875 120.317 90.6616 119.944C90.4483 119.56 90.3416 119.144 90.3416 118.696C90.3416 118.152 90.4803 117.693 90.7576 117.32C91.0456 116.936 91.4456 116.648 91.9576 116.456C92.4803 116.253 93.0936 116.152 93.7976 116.152H95.9256C95.9256 115.651 95.8456 115.235 95.6856 114.904C95.5363 114.563 95.3123 114.307 95.0136 114.136C94.7256 113.965 94.363 113.88 93.9256 113.88C93.4136 113.88 92.971 114.008 92.5976 114.264C92.2243 114.52 91.995 114.899 91.9096 115.4H90.5336C90.5976 114.824 90.7896 114.344 91.1096 113.96C91.4403 113.565 91.8563 113.267 92.3576 113.064C92.859 112.851 93.3816 112.744 93.9256 112.744C94.6723 112.744 95.291 112.883 95.7816 113.16C96.283 113.427 96.6563 113.805 96.9016 114.296C97.147 114.776 97.2696 115.347 97.2696 116.008V121H96.0696L95.9896 119.576C95.883 119.8 95.7443 120.013 95.5736 120.216C95.4136 120.408 95.2216 120.579 94.9976 120.728C94.7736 120.867 94.5176 120.979 94.2296 121.064C93.9523 121.149 93.6323 121.192 93.2696 121.192ZM93.4776 120.056C93.851 120.056 94.187 119.981 94.4856 119.832C94.795 119.672 95.0563 119.459 95.2696 119.192C95.483 118.915 95.643 118.611 95.7496 118.28C95.867 117.949 95.9256 117.603 95.9256 117.24V117.192H93.9096C93.387 117.192 92.9656 117.256 92.6456 117.384C92.3256 117.501 92.0963 117.672 91.9576 117.896C91.819 118.109 91.7496 118.355 91.7496 118.632C91.7496 118.92 91.8136 119.171 91.9416 119.384C92.0803 119.597 92.2776 119.763 92.5336 119.88C92.8003 119.997 93.115 120.056 93.4776 120.056ZM107.071 121.192C106.313 121.192 105.631 121.016 105.023 120.664C104.425 120.312 103.956 119.821 103.615 119.192C103.273 118.552 103.103 117.816 103.103 116.984C103.103 116.131 103.273 115.389 103.615 114.76C103.956 114.131 104.425 113.64 105.023 113.288C105.631 112.925 106.313 112.744 107.071 112.744C108.031 112.744 108.831 112.995 109.471 113.496C110.111 113.987 110.516 114.648 110.687 115.48H109.311C109.204 114.979 108.943 114.589 108.527 114.312C108.111 114.035 107.62 113.896 107.055 113.896C106.596 113.896 106.169 114.013 105.775 114.248C105.38 114.472 105.065 114.813 104.831 115.272C104.596 115.731 104.479 116.296 104.479 116.968C104.479 117.469 104.548 117.917 104.687 118.312C104.825 118.696 105.012 119.016 105.247 119.272C105.481 119.528 105.753 119.725 106.063 119.864C106.383 119.992 106.713 120.056 107.055 120.056C107.439 120.056 107.785 119.997 108.095 119.88C108.404 119.752 108.665 119.565 108.879 119.32C109.092 119.075 109.236 118.787 109.311 118.456H110.687C110.516 119.267 110.105 119.928 109.455 120.44C108.815 120.941 108.02 121.192 107.071 121.192ZM115.139 121.192C114.488 121.192 113.944 121.08 113.507 120.856C113.07 120.621 112.744 120.317 112.531 119.944C112.318 119.56 112.211 119.144 112.211 118.696C112.211 118.152 112.35 117.693 112.627 117.32C112.915 116.936 113.315 116.648 113.827 116.456C114.35 116.253 114.963 116.152 115.667 116.152H117.795C117.795 115.651 117.715 115.235 117.555 114.904C117.406 114.563 117.182 114.307 116.883 114.136C116.595 113.965 116.232 113.88 115.795 113.88C115.283 113.88 114.84 114.008 114.467 114.264C114.094 114.52 113.864 114.899 113.779 115.4H112.403C112.467 114.824 112.659 114.344 112.979 113.96C113.31 113.565 113.726 113.267 114.227 113.064C114.728 112.851 115.251 112.744 115.795 112.744C116.542 112.744 117.16 112.883 117.651 113.16C118.152 113.427 118.526 113.805 118.771 114.296C119.016 114.776 119.139 115.347 119.139 116.008V121H117.939L117.859 119.576C117.752 119.8 117.614 120.013 117.443 120.216C117.283 120.408 117.091 120.579 116.867 120.728C116.643 120.867 116.387 120.979 116.099 121.064C115.822 121.149 115.502 121.192 115.139 121.192ZM115.347 120.056C115.72 120.056 116.056 119.981 116.355 119.832C116.664 119.672 116.926 119.459 117.139 119.192C117.352 118.915 117.512 118.611 117.619 118.28C117.736 117.949 117.795 117.603 117.795 117.24V117.192H115.779C115.256 117.192 114.835 117.256 114.515 117.384C114.195 117.501 113.966 117.672 113.827 117.896C113.688 118.109 113.619 118.355 113.619 118.632C113.619 118.92 113.683 119.171 113.811 119.384C113.95 119.597 114.147 119.763 114.403 119.88C114.67 119.997 114.984 120.056 115.347 120.056ZM121.138 124.52V112.936H122.354L122.466 114.248C122.637 113.992 122.855 113.752 123.122 113.528C123.389 113.293 123.709 113.107 124.082 112.968C124.455 112.819 124.882 112.744 125.362 112.744C126.151 112.744 126.834 112.931 127.41 113.304C127.997 113.677 128.45 114.184 128.77 114.824C129.101 115.453 129.266 116.173 129.266 116.984C129.266 117.795 129.101 118.52 128.77 119.16C128.45 119.789 127.997 120.285 127.41 120.648C126.823 121.011 126.135 121.192 125.346 121.192C124.695 121.192 124.119 121.059 123.618 120.792C123.127 120.525 122.749 120.152 122.482 119.672V124.52H121.138ZM125.202 120.024C125.725 120.024 126.189 119.896 126.594 119.64C126.999 119.384 127.314 119.032 127.538 118.584C127.773 118.125 127.89 117.587 127.89 116.968C127.89 116.36 127.773 115.827 127.538 115.368C127.314 114.909 126.999 114.552 126.594 114.296C126.189 114.04 125.725 113.912 125.202 113.912C124.669 113.912 124.199 114.04 123.794 114.296C123.389 114.552 123.074 114.909 122.85 115.368C122.626 115.827 122.514 116.36 122.514 116.968C122.514 117.587 122.626 118.125 122.85 118.584C123.074 119.032 123.389 119.384 123.794 119.64C124.199 119.896 124.669 120.024 125.202 120.024ZM133.929 121C133.449 121 133.033 120.925 132.681 120.776C132.329 120.627 132.057 120.376 131.865 120.024C131.684 119.661 131.593 119.176 131.593 118.568V114.072H130.185V112.936H131.593L131.769 110.984H132.937V112.936H135.273V114.072H132.937V118.568C132.937 119.069 133.039 119.411 133.241 119.592C133.444 119.763 133.801 119.848 134.313 119.848H135.177V121H133.929ZM139.875 121.192C139.256 121.192 138.712 121.069 138.243 120.824C137.784 120.579 137.427 120.2 137.171 119.688C136.926 119.176 136.803 118.536 136.803 117.768V112.936H138.147V117.624C138.147 118.424 138.323 119.027 138.675 119.432C139.027 119.837 139.523 120.04 140.163 120.04C140.611 120.04 141.016 119.933 141.379 119.72C141.742 119.496 142.024 119.181 142.227 118.776C142.44 118.36 142.547 117.853 142.547 117.256V112.936H143.891V121H142.675L142.595 119.592C142.35 120.093 141.987 120.488 141.507 120.776C141.027 121.053 140.483 121.192 139.875 121.192ZM146.039 121V112.936H147.255L147.351 114.472C147.532 114.109 147.761 113.8 148.039 113.544C148.327 113.288 148.668 113.091 149.063 112.952C149.468 112.813 149.927 112.744 150.439 112.744V114.152H149.943C149.601 114.152 149.276 114.2 148.967 114.296C148.657 114.381 148.38 114.525 148.135 114.728C147.9 114.931 147.713 115.208 147.575 115.56C147.447 115.901 147.383 116.328 147.383 116.84V121H146.039ZM155.12 121.192C154.362 121.192 153.69 121.016 153.104 120.664C152.528 120.312 152.074 119.821 151.744 119.192C151.413 118.552 151.248 117.811 151.248 116.968C151.248 116.115 151.408 115.373 151.728 114.744C152.058 114.115 152.517 113.624 153.104 113.272C153.701 112.92 154.384 112.744 155.152 112.744C155.941 112.744 156.608 112.92 157.152 113.272C157.706 113.624 158.128 114.088 158.416 114.664C158.714 115.229 158.864 115.853 158.864 116.536C158.864 116.643 158.864 116.755 158.864 116.872C158.864 116.989 158.858 117.123 158.848 117.272H152.256V116.232H157.552C157.52 115.496 157.274 114.92 156.816 114.504C156.368 114.088 155.802 113.88 155.12 113.88C154.661 113.88 154.234 113.987 153.84 114.2C153.456 114.403 153.146 114.707 152.912 115.112C152.677 115.507 152.56 116.003 152.56 116.6V117.048C152.56 117.709 152.677 118.264 152.912 118.712C153.157 119.16 153.472 119.496 153.856 119.72C154.25 119.944 154.672 120.056 155.12 120.056C155.685 120.056 156.149 119.933 156.512 119.688C156.885 119.432 157.152 119.091 157.312 118.664H158.64C158.512 119.144 158.288 119.576 157.968 119.96C157.648 120.344 157.248 120.648 156.768 120.872C156.298 121.085 155.749 121.192 155.12 121.192Z" fill="#5B6475"/>
<path d="M68.768 201.192C67.9467 201.192 67.232 201.043 66.624 200.744C66.016 200.445 65.5467 200.029 65.216 199.496C64.8853 198.963 64.72 198.344 64.72 197.64H66.128C66.128 198.077 66.2293 198.483 66.432 198.856C66.6347 199.219 66.928 199.512 67.312 199.736C67.7067 199.949 68.192 200.056 68.768 200.056C69.2693 200.056 69.696 199.976 70.048 199.816C70.4107 199.645 70.6827 199.416 70.864 199.128C71.056 198.84 71.152 198.515 71.152 198.152C71.152 197.715 71.056 197.363 70.864 197.096C70.6827 196.819 70.432 196.595 70.112 196.424C69.792 196.253 69.4187 196.104 68.992 195.976C68.576 195.837 68.1387 195.693 67.68 195.544C66.7947 195.245 66.144 194.872 65.728 194.424C65.312 193.976 65.104 193.395 65.104 192.68C65.104 192.072 65.2427 191.539 65.52 191.08C65.808 190.621 66.2133 190.264 66.736 190.008C67.2693 189.741 67.8987 189.608 68.624 189.608C69.3387 189.608 69.9573 189.741 70.48 190.008C71.0133 190.275 71.4293 190.643 71.728 191.112C72.0267 191.571 72.176 192.104 72.176 192.712H70.768C70.768 192.403 70.688 192.099 70.528 191.8C70.368 191.501 70.1227 191.256 69.792 191.064C69.472 190.861 69.0667 190.76 68.576 190.76C68.1707 190.749 67.808 190.819 67.488 190.968C67.1787 191.107 66.9333 191.309 66.752 191.576C66.5813 191.843 66.496 192.168 66.496 192.552C66.496 192.915 66.5707 193.208 66.72 193.432C66.88 193.656 67.104 193.848 67.392 194.008C67.6907 194.157 68.0373 194.296 68.432 194.424C68.8267 194.552 69.264 194.696 69.744 194.856C70.288 195.037 70.768 195.261 71.184 195.528C71.6107 195.784 71.9413 196.115 72.176 196.52C72.4213 196.925 72.544 197.443 72.544 198.072C72.544 198.605 72.4 199.112 72.112 199.592C71.8347 200.061 71.4187 200.445 70.864 200.744C70.3093 201.043 69.6107 201.192 68.768 201.192ZM77.8573 201.192C77.0999 201.192 76.4279 201.016 75.8413 200.664C75.2653 200.312 74.8119 199.821 74.4813 199.192C74.1506 198.552 73.9853 197.811 73.9853 196.968C73.9853 196.115 74.1453 195.373 74.4653 194.744C74.7959 194.115 75.2546 193.624 75.8413 193.272C76.4386 192.92 77.1213 192.744 77.8893 192.744C78.6786 192.744 79.3453 192.92 79.8893 193.272C80.4439 193.624 80.8653 194.088 81.1533 194.664C81.4519 195.229 81.6013 195.853 81.6013 196.536C81.6013 196.643 81.6013 196.755 81.6013 196.872C81.6013 196.989 81.5959 197.123 81.5853 197.272H74.9933V196.232H80.2893C80.2573 195.496 80.0119 194.92 79.5533 194.504C79.1053 194.088 78.5399 193.88 77.8573 193.88C77.3986 193.88 76.9719 193.987 76.5773 194.2C76.1933 194.403 75.8839 194.707 75.6493 195.112C75.4146 195.507 75.2973 196.003 75.2973 196.6V197.048C75.2973 197.709 75.4146 198.264 75.6493 198.712C75.8946 199.16 76.2093 199.496 76.5933 199.72C76.9879 199.944 77.4093 200.056 77.8573 200.056C78.4226 200.056 78.8866 199.933 79.2493 199.688C79.6226 199.432 79.8893 199.091 80.0493 198.664H81.3773C81.2493 199.144 81.0253 199.576 80.7053 199.96C80.3853 200.344 79.9853 200.648 79.5053 200.872C79.0359 201.085 78.4866 201.192 77.8573 201.192ZM86.967 201.192C86.2097 201.192 85.527 201.016 84.919 200.664C84.3217 200.312 83.8523 199.821 83.511 199.192C83.1697 198.552 82.999 197.816 82.999 196.984C82.999 196.131 83.1697 195.389 83.511 194.76C83.8523 194.131 84.3217 193.64 84.919 193.288C85.527 192.925 86.2097 192.744 86.967 192.744C87.927 192.744 88.727 192.995 89.367 193.496C90.007 193.987 90.4123 194.648 90.583 195.48H89.207C89.1003 194.979 88.839 194.589 88.423 194.312C88.007 194.035 87.5163 193.896 86.951 193.896C86.4923 193.896 86.0657 194.013 85.671 194.248C85.2763 194.472 84.9617 194.813 84.727 195.272C84.4923 195.731 84.375 196.296 84.375 196.968C84.375 197.469 84.4443 197.917 84.583 198.312C84.7217 198.696 84.9083 199.016 85.143 199.272C85.3777 199.528 85.6497 199.725 85.959 199.864C86.279 199.992 86.6097 200.056 86.951 200.056C87.335 200.056 87.6817 199.997 87.991 199.88C88.3003 199.752 88.5617 199.565 88.775 199.32C88.9883 199.075 89.1323 198.787 89.207 198.456H90.583C90.4123 199.267 90.0017 199.928 89.351 200.44C88.711 200.941 87.9163 201.192 86.967 201.192ZM95.3393 201.192C94.7206 201.192 94.1766 201.069 93.7073 200.824C93.2486 200.579 92.8913 200.2 92.6353 199.688C92.3899 199.176 92.2673 198.536 92.2673 197.768V192.936H93.6113V197.624C93.6113 198.424 93.7873 199.027 94.1393 199.432C94.4913 199.837 94.9873 200.04 95.6273 200.04C96.0753 200.04 96.4806 199.933 96.8433 199.72C97.2059 199.496 97.4886 199.181 97.6913 198.776C97.9046 198.36 98.0113 197.853 98.0113 197.256V192.936H99.3553V201H98.1393L98.0593 199.592C97.8139 200.093 97.4513 200.488 96.9713 200.776C96.4913 201.053 95.9473 201.192 95.3393 201.192ZM101.503 201V192.936H102.719L102.815 194.472C102.996 194.109 103.226 193.8 103.503 193.544C103.791 193.288 104.132 193.091 104.527 192.952C104.932 192.813 105.391 192.744 105.903 192.744V194.152H105.407C105.066 194.152 104.74 194.2 104.431 194.296C104.122 194.381 103.844 194.525 103.599 194.728C103.364 194.931 103.178 195.208 103.039 195.56C102.911 195.901 102.847 196.328 102.847 196.84V201H101.503ZM110.584 201.192C109.827 201.192 109.155 201.016 108.568 200.664C107.992 200.312 107.539 199.821 107.208 199.192C106.877 198.552 106.712 197.811 106.712 196.968C106.712 196.115 106.872 195.373 107.192 194.744C107.523 194.115 107.981 193.624 108.568 193.272C109.165 192.92 109.848 192.744 110.616 192.744C111.405 192.744 112.072 192.92 112.616 193.272C113.171 193.624 113.592 194.088 113.88 194.664C114.179 195.229 114.328 195.853 114.328 196.536C114.328 196.643 114.328 196.755 114.328 196.872C114.328 196.989 114.323 197.123 114.312 197.272H107.72V196.232H113.016C112.984 195.496 112.739 194.92 112.28 194.504C111.832 194.088 111.267 193.88 110.584 193.88C110.125 193.88 109.699 193.987 109.304 194.2C108.92 194.403 108.611 194.707 108.376 195.112C108.141 195.507 108.024 196.003 108.024 196.6V197.048C108.024 197.709 108.141 198.264 108.376 198.712C108.621 199.16 108.936 199.496 109.32 199.72C109.715 199.944 110.136 200.056 110.584 200.056C111.149 200.056 111.613 199.933 111.976 199.688C112.349 199.432 112.616 199.091 112.776 198.664H114.104C113.976 199.144 113.752 199.576 113.432 199.96C113.112 200.344 112.712 200.648 112.232 200.872C111.763 201.085 111.213 201.192 110.584 201.192ZM128.76 201L122.664 194.792C122.173 194.301 121.821 193.853 121.608 193.448C121.395 193.043 121.288 192.595 121.288 192.104C121.288 191.624 121.405 191.197 121.64 190.824C121.875 190.44 122.205 190.141 122.632 189.928C123.069 189.715 123.592 189.608 124.2 189.608C124.787 189.608 125.293 189.72 125.72 189.944C126.157 190.157 126.493 190.456 126.728 190.84C126.963 191.224 127.075 191.667 127.064 192.168H125.736C125.736 191.688 125.581 191.325 125.272 191.08C124.973 190.824 124.616 190.696 124.2 190.696C123.709 190.696 123.32 190.829 123.032 191.096C122.755 191.352 122.616 191.683 122.616 192.088C122.616 192.429 122.712 192.765 122.904 193.096C123.096 193.427 123.373 193.789 123.736 194.184L130.456 201H128.76ZM123.576 201.192C122.819 201.192 122.152 201.053 121.576 200.776C121.011 200.488 120.568 200.088 120.248 199.576C119.939 199.064 119.784 198.461 119.784 197.768C119.784 197.235 119.891 196.744 120.104 196.296C120.328 195.837 120.659 195.437 121.096 195.096C121.533 194.744 122.067 194.461 122.696 194.248L123.208 194.072L123.912 194.952L123.304 195.16C122.568 195.427 122.019 195.773 121.656 196.2C121.304 196.627 121.128 197.133 121.128 197.72C121.128 198.157 121.229 198.552 121.432 198.904C121.645 199.256 121.939 199.533 122.312 199.736C122.685 199.939 123.117 200.04 123.608 200.04C124.237 200.04 124.792 199.907 125.272 199.64C125.763 199.363 126.259 198.915 126.76 198.296C126.984 198.019 127.213 197.699 127.448 197.336C127.683 196.963 127.933 196.547 128.2 196.088L128.696 195.208H130.12L129.4 196.488C129.112 197.021 128.824 197.507 128.536 197.944C128.259 198.381 127.976 198.771 127.688 199.112C127.08 199.848 126.445 200.381 125.784 200.712C125.133 201.032 124.397 201.192 123.576 201.192ZM139.112 201.192C138.44 201.192 137.853 201.08 137.352 200.856C136.861 200.632 136.467 200.323 136.168 199.928C135.88 199.523 135.704 199.048 135.64 198.504H137.016C137.069 198.781 137.181 199.037 137.352 199.272C137.523 199.507 137.752 199.699 138.04 199.848C138.339 199.987 138.701 200.056 139.128 200.056C139.501 200.056 139.811 200.003 140.056 199.896C140.301 199.779 140.483 199.624 140.6 199.432C140.728 199.24 140.792 199.032 140.792 198.808C140.792 198.477 140.712 198.227 140.552 198.056C140.403 197.885 140.179 197.752 139.88 197.656C139.581 197.549 139.219 197.459 138.792 197.384C138.44 197.32 138.093 197.235 137.752 197.128C137.411 197.021 137.107 196.883 136.84 196.712C136.573 196.531 136.36 196.312 136.2 196.056C136.051 195.8 135.976 195.485 135.976 195.112C135.976 194.653 136.093 194.248 136.328 193.896C136.563 193.533 136.899 193.251 137.336 193.048C137.784 192.845 138.301 192.744 138.888 192.744C139.752 192.744 140.451 192.952 140.984 193.368C141.517 193.784 141.832 194.387 141.928 195.176H140.6C140.547 194.771 140.371 194.456 140.072 194.232C139.784 193.997 139.384 193.88 138.872 193.88C138.371 193.88 137.987 193.981 137.72 194.184C137.464 194.387 137.336 194.653 137.336 194.984C137.336 195.197 137.405 195.389 137.544 195.56C137.693 195.72 137.907 195.859 138.184 195.976C138.472 196.093 138.824 196.189 139.24 196.264C139.773 196.36 140.259 196.488 140.696 196.648C141.133 196.808 141.485 197.048 141.752 197.368C142.029 197.677 142.168 198.12 142.168 198.696C142.168 199.197 142.04 199.635 141.784 200.008C141.539 200.381 141.187 200.675 140.728 200.888C140.269 201.091 139.731 201.192 139.112 201.192ZM147.655 201.192C146.898 201.192 146.215 201.016 145.607 200.664C145.01 200.312 144.54 199.821 144.199 199.192C143.858 198.552 143.687 197.816 143.687 196.984C143.687 196.131 143.858 195.389 144.199 194.76C144.54 194.131 145.01 193.64 145.607 193.288C146.215 192.925 146.898 192.744 147.655 192.744C148.615 192.744 149.415 192.995 150.055 193.496C150.695 193.987 151.1 194.648 151.271 195.48H149.895C149.788 194.979 149.527 194.589 149.111 194.312C148.695 194.035 148.204 193.896 147.639 193.896C147.18 193.896 146.754 194.013 146.359 194.248C145.964 194.472 145.65 194.813 145.415 195.272C145.18 195.731 145.063 196.296 145.063 196.968C145.063 197.469 145.132 197.917 145.271 198.312C145.41 198.696 145.596 199.016 145.831 199.272C146.066 199.528 146.338 199.725 146.647 199.864C146.967 199.992 147.298 200.056 147.639 200.056C148.023 200.056 148.37 199.997 148.679 199.88C148.988 199.752 149.25 199.565 149.463 199.32C149.676 199.075 149.82 198.787 149.895 198.456H151.271C151.1 199.267 150.69 199.928 150.039 200.44C149.399 200.941 148.604 201.192 147.655 201.192ZM155.723 201.192C155.073 201.192 154.529 201.08 154.091 200.856C153.654 200.621 153.329 200.317 153.115 199.944C152.902 199.56 152.795 199.144 152.795 198.696C152.795 198.152 152.934 197.693 153.211 197.32C153.499 196.936 153.899 196.648 154.411 196.456C154.934 196.253 155.547 196.152 156.251 196.152H158.379C158.379 195.651 158.299 195.235 158.139 194.904C157.99 194.563 157.766 194.307 157.467 194.136C157.179 193.965 156.817 193.88 156.379 193.88C155.867 193.88 155.425 194.008 155.051 194.264C154.678 194.52 154.449 194.899 154.363 195.4H152.987C153.051 194.824 153.243 194.344 153.563 193.96C153.894 193.565 154.31 193.267 154.811 193.064C155.313 192.851 155.835 192.744 156.379 192.744C157.126 192.744 157.745 192.883 158.235 193.16C158.737 193.427 159.11 193.805 159.355 194.296C159.601 194.776 159.723 195.347 159.723 196.008V201H158.523L158.443 199.576C158.337 199.8 158.198 200.013 158.027 200.216C157.867 200.408 157.675 200.579 157.451 200.728C157.227 200.867 156.971 200.979 156.683 201.064C156.406 201.149 156.086 201.192 155.723 201.192ZM155.931 200.056C156.305 200.056 156.641 199.981 156.939 199.832C157.249 199.672 157.51 199.459 157.723 199.192C157.937 198.915 158.097 198.611 158.203 198.28C158.321 197.949 158.379 197.603 158.379 197.24V197.192H156.363C155.841 197.192 155.419 197.256 155.099 197.384C154.779 197.501 154.55 197.672 154.411 197.896C154.273 198.109 154.203 198.355 154.203 198.632C154.203 198.92 154.267 199.171 154.395 199.384C154.534 199.597 154.731 199.763 154.987 199.88C155.254 199.997 155.569 200.056 155.931 200.056ZM161.723 201V189.48H163.067V201H161.723ZM167.829 201.192C167.178 201.192 166.634 201.08 166.197 200.856C165.76 200.621 165.434 200.317 165.221 199.944C165.008 199.56 164.901 199.144 164.901 198.696C164.901 198.152 165.04 197.693 165.317 197.32C165.605 196.936 166.005 196.648 166.517 196.456C167.04 196.253 167.653 196.152 168.357 196.152H170.485C170.485 195.651 170.405 195.235 170.245 194.904C170.096 194.563 169.872 194.307 169.573 194.136C169.285 193.965 168.922 193.88 168.485 193.88C167.973 193.88 167.53 194.008 167.157 194.264C166.784 194.52 166.554 194.899 166.469 195.4H165.093C165.157 194.824 165.349 194.344 165.669 193.96C166 193.565 166.416 193.267 166.917 193.064C167.418 192.851 167.941 192.744 168.485 192.744C169.232 192.744 169.85 192.883 170.341 193.16C170.842 193.427 171.216 193.805 171.461 194.296C171.706 194.776 171.829 195.347 171.829 196.008V201H170.629L170.549 199.576C170.442 199.8 170.304 200.013 170.133 200.216C169.973 200.408 169.781 200.579 169.557 200.728C169.333 200.867 169.077 200.979 168.789 201.064C168.512 201.149 168.192 201.192 167.829 201.192ZM168.037 200.056C168.41 200.056 168.746 199.981 169.045 199.832C169.354 199.672 169.616 199.459 169.829 199.192C170.042 198.915 170.202 198.611 170.309 198.28C170.426 197.949 170.485 197.603 170.485 197.24V197.192H168.469C167.946 197.192 167.525 197.256 167.205 197.384C166.885 197.501 166.656 197.672 166.517 197.896C166.378 198.109 166.309 198.355 166.309 198.632C166.309 198.92 166.373 199.171 166.501 199.384C166.64 199.597 166.837 199.763 167.093 199.88C167.36 199.997 167.674 200.056 168.037 200.056ZM178.052 201.192C177.593 201.192 177.177 201.128 176.804 201C176.441 200.861 176.121 200.68 175.844 200.456C175.567 200.232 175.337 199.971 175.156 199.672L175.044 201H173.828V189.48H175.172V194.264C175.428 193.848 175.796 193.491 176.276 193.192C176.756 192.893 177.348 192.744 178.052 192.744C178.831 192.744 179.513 192.931 180.1 193.304C180.687 193.667 181.14 194.168 181.46 194.808C181.791 195.437 181.956 196.157 181.956 196.968C181.956 197.779 181.791 198.504 181.46 199.144C181.14 199.784 180.687 200.285 180.1 200.648C179.513 201.011 178.831 201.192 178.052 201.192ZM177.892 200.024C178.415 200.024 178.879 199.896 179.284 199.64C179.689 199.384 180.004 199.032 180.228 198.584C180.463 198.125 180.58 197.587 180.58 196.968C180.58 196.36 180.463 195.827 180.228 195.368C180.004 194.909 179.689 194.552 179.284 194.296C178.879 194.04 178.415 193.912 177.892 193.912C177.359 193.912 176.889 194.04 176.484 194.296C176.079 194.552 175.764 194.909 175.54 195.368C175.316 195.827 175.204 196.36 175.204 196.968C175.204 197.587 175.316 198.125 175.54 198.584C175.764 199.032 176.079 199.384 176.484 199.64C176.889 199.896 177.359 200.024 177.892 200.024ZM183.764 201V189.48H185.108V201H183.764ZM190.782 201.192C190.025 201.192 189.353 201.016 188.766 200.664C188.19 200.312 187.737 199.821 187.406 199.192C187.076 198.552 186.91 197.811 186.91 196.968C186.91 196.115 187.07 195.373 187.39 194.744C187.721 194.115 188.18 193.624 188.766 193.272C189.364 192.92 190.046 192.744 190.814 192.744C191.604 192.744 192.27 192.92 192.814 193.272C193.369 193.624 193.79 194.088 194.078 194.664C194.377 195.229 194.526 195.853 194.526 196.536C194.526 196.643 194.526 196.755 194.526 196.872C194.526 196.989 194.521 197.123 194.51 197.272H187.918V196.232H193.214C193.182 195.496 192.937 194.92 192.478 194.504C192.03 194.088 191.465 193.88 190.782 193.88C190.324 193.88 189.897 193.987 189.502 194.2C189.118 194.403 188.809 194.707 188.574 195.112C188.34 195.507 188.222 196.003 188.222 196.6V197.048C188.222 197.709 188.34 198.264 188.574 198.712C188.82 199.16 189.134 199.496 189.518 199.72C189.913 199.944 190.334 200.056 190.782 200.056C191.348 200.056 191.812 199.933 192.174 199.688C192.548 199.432 192.814 199.091 192.974 198.664H194.302C194.174 199.144 193.95 199.576 193.63 199.96C193.31 200.344 192.91 200.648 192.43 200.872C191.961 201.085 191.412 201.192 190.782 201.192Z" fill="#5B6475"/>
<path d="M284.293 224.207V223.27H290.844V224.207H288.102V232H287.047V224.207H284.293ZM292.728 232.152C292.314 232.152 291.937 232.074 291.598 231.918C291.258 231.758 290.988 231.527 290.789 231.227C290.59 230.926 290.49 230.562 290.49 230.137C290.49 229.762 290.564 229.459 290.713 229.229C290.861 228.994 291.059 228.811 291.305 228.678C291.555 228.541 291.828 228.439 292.125 228.373C292.426 228.307 292.728 228.254 293.033 228.215C293.432 228.164 293.754 228.125 294 228.098C294.25 228.07 294.432 228.023 294.545 227.957C294.662 227.891 294.721 227.777 294.721 227.617V227.582C294.721 227.164 294.605 226.84 294.375 226.609C294.148 226.375 293.803 226.258 293.338 226.258C292.861 226.258 292.486 226.363 292.213 226.574C291.939 226.781 291.748 227.004 291.639 227.242L290.678 226.902C290.85 226.504 291.078 226.193 291.363 225.971C291.652 225.748 291.965 225.592 292.301 225.502C292.641 225.412 292.975 225.367 293.303 225.367C293.514 225.367 293.756 225.393 294.029 225.443C294.303 225.49 294.568 225.592 294.826 225.748C295.088 225.9 295.303 226.133 295.471 226.445C295.643 226.754 295.728 227.168 295.728 227.688V232H294.721V231.109H294.674C294.607 231.25 294.494 231.402 294.334 231.566C294.174 231.727 293.961 231.865 293.695 231.982C293.434 232.096 293.111 232.152 292.728 232.152ZM292.881 231.25C293.279 231.25 293.615 231.172 293.889 231.016C294.162 230.859 294.369 230.658 294.51 230.412C294.65 230.162 294.721 229.902 294.721 229.633V228.707C294.678 228.758 294.584 228.805 294.439 228.848C294.299 228.887 294.135 228.922 293.947 228.953C293.764 228.984 293.584 229.012 293.408 229.035C293.232 229.055 293.092 229.07 292.986 229.082C292.725 229.117 292.48 229.174 292.254 229.252C292.027 229.326 291.844 229.438 291.703 229.586C291.566 229.734 291.498 229.938 291.498 230.195C291.498 230.543 291.627 230.807 291.885 230.986C292.146 231.162 292.478 231.25 292.881 231.25ZM296.934 232V225.449H297.894V226.445H297.965C298.086 226.121 298.303 225.859 298.615 225.66C298.932 225.457 299.285 225.355 299.676 225.355C299.75 225.355 299.842 225.357 299.951 225.361C300.061 225.361 300.144 225.363 300.203 225.367V226.387C300.168 226.379 300.09 226.367 299.969 226.352C299.848 226.336 299.719 226.328 299.582 226.328C299.266 226.328 298.982 226.395 298.732 226.527C298.482 226.66 298.285 226.842 298.141 227.072C298 227.303 297.93 227.566 297.93 227.863V232H296.934ZM303.189 234.59C302.459 234.59 301.881 234.457 301.455 234.191C301.033 233.926 300.721 233.621 300.518 233.277L301.314 232.715C301.404 232.836 301.519 232.973 301.66 233.125C301.801 233.281 301.992 233.416 302.234 233.529C302.477 233.643 302.795 233.699 303.189 233.699C303.717 233.699 304.152 233.572 304.496 233.318C304.844 233.064 305.018 232.664 305.018 232.117V230.793H304.924C304.853 230.91 304.75 231.057 304.613 231.232C304.48 231.404 304.287 231.559 304.033 231.695C303.783 231.828 303.443 231.895 303.014 231.895C302.486 231.895 302.014 231.77 301.596 231.52C301.178 231.27 300.846 230.906 300.6 230.43C300.357 229.953 300.236 229.375 300.236 228.695C300.236 228.023 300.353 227.439 300.588 226.943C300.826 226.443 301.156 226.057 301.578 225.783C302 225.506 302.486 225.367 303.037 225.367C303.463 225.367 303.801 225.438 304.051 225.578C304.305 225.719 304.498 225.879 304.631 226.059C304.768 226.234 304.873 226.379 304.947 226.492H305.053V225.449H306.014V232.188C306.014 232.75 305.887 233.207 305.633 233.559C305.383 233.914 305.043 234.174 304.613 234.338C304.187 234.506 303.713 234.59 303.189 234.59ZM303.154 230.992C303.76 230.992 304.223 230.787 304.543 230.377C304.867 229.967 305.029 229.398 305.029 228.672C305.029 228.199 304.959 227.783 304.818 227.424C304.678 227.064 304.467 226.783 304.186 226.58C303.908 226.373 303.564 226.27 303.154 226.27C302.728 226.27 302.373 226.379 302.088 226.598C301.807 226.812 301.596 227.102 301.455 227.465C301.314 227.828 301.244 228.23 301.244 228.672C301.244 229.125 301.314 229.527 301.455 229.879C301.6 230.227 301.814 230.5 302.1 230.699C302.385 230.895 302.736 230.992 303.154 230.992ZM309.961 232.141C309.332 232.141 308.787 232 308.326 231.719C307.869 231.438 307.518 231.045 307.271 230.541C307.025 230.033 306.902 229.445 306.902 228.777C306.902 228.105 307.023 227.514 307.266 227.002C307.508 226.49 307.848 226.09 308.285 225.801C308.726 225.512 309.242 225.367 309.832 225.367C310.172 225.367 310.51 225.424 310.846 225.537C311.182 225.65 311.486 225.834 311.76 226.088C312.037 226.342 312.258 226.678 312.422 227.096C312.586 227.514 312.668 228.027 312.668 228.637V229.07H307.617V228.203H312.123L311.66 228.531C311.66 228.094 311.592 227.705 311.455 227.365C311.318 227.025 311.113 226.758 310.84 226.562C310.57 226.367 310.234 226.27 309.832 226.27C309.43 226.27 309.084 226.369 308.795 226.568C308.51 226.764 308.291 227.02 308.139 227.336C307.986 227.652 307.91 227.992 307.91 228.355V228.93C307.91 229.426 307.996 229.846 308.168 230.189C308.34 230.533 308.58 230.795 308.889 230.975C309.197 231.15 309.555 231.238 309.961 231.238C310.223 231.238 310.461 231.201 310.676 231.127C310.891 231.049 311.076 230.934 311.232 230.781C311.389 230.625 311.508 230.434 311.59 230.207L312.562 230.488C312.461 230.816 312.289 231.105 312.047 231.355C311.809 231.602 311.512 231.795 311.156 231.936C310.801 232.072 310.402 232.141 309.961 232.141ZM316.369 225.449V226.305H312.982V225.449H316.369ZM313.967 223.891H314.963V230.125C314.963 230.465 315.033 230.715 315.174 230.875C315.314 231.031 315.537 231.109 315.842 231.109C315.908 231.109 315.976 231.105 316.047 231.098C316.121 231.09 316.201 231.078 316.287 231.062L316.498 231.965C316.404 232 316.289 232.027 316.152 232.047C316.019 232.07 315.885 232.082 315.748 232.082C315.221 232.082 314.791 231.926 314.459 231.613C314.131 231.301 313.967 230.895 313.967 230.395V223.891ZM325.318 225.449L322.904 232H321.873L319.459 225.449H320.549L322.353 230.676H322.424L324.228 225.449H325.318ZM330.637 226.926L329.734 227.172C329.648 226.949 329.5 226.738 329.289 226.539C329.082 226.336 328.758 226.234 328.316 226.234C327.918 226.234 327.586 226.328 327.32 226.516C327.055 226.699 326.922 226.93 326.922 227.207C326.922 227.457 327.012 227.656 327.191 227.805C327.375 227.953 327.66 228.074 328.047 228.168L329.019 228.402C329.601 228.543 330.035 228.76 330.32 229.053C330.609 229.346 330.754 229.719 330.754 230.172C330.754 230.547 330.646 230.883 330.432 231.18C330.217 231.477 329.918 231.711 329.535 231.883C329.152 232.055 328.707 232.141 328.199 232.141C327.531 232.141 326.978 231.994 326.541 231.701C326.107 231.408 325.832 230.984 325.715 230.43L326.664 230.195C326.754 230.547 326.926 230.811 327.18 230.986C327.437 231.162 327.773 231.25 328.187 231.25C328.652 231.25 329.023 231.15 329.301 230.951C329.582 230.748 329.723 230.508 329.723 230.23C329.723 229.77 329.398 229.461 328.75 229.305L327.66 229.047C327.058 228.902 326.617 228.682 326.336 228.385C326.055 228.088 325.914 227.715 325.914 227.266C325.914 226.895 326.017 226.566 326.224 226.281C326.435 225.996 326.723 225.773 327.086 225.613C327.449 225.449 327.859 225.367 328.316 225.367C328.969 225.367 329.478 225.512 329.846 225.801C330.217 226.086 330.48 226.461 330.637 226.926ZM336.281 232.152C335.867 232.152 335.49 232.074 335.15 231.918C334.81 231.758 334.541 231.527 334.342 231.227C334.142 230.926 334.043 230.562 334.043 230.137C334.043 229.762 334.117 229.459 334.265 229.229C334.414 228.994 334.611 228.811 334.857 228.678C335.107 228.541 335.381 228.439 335.678 228.373C335.978 228.307 336.281 228.254 336.586 228.215C336.984 228.164 337.306 228.125 337.553 228.098C337.803 228.07 337.984 228.023 338.097 227.957C338.215 227.891 338.273 227.777 338.273 227.617V227.582C338.273 227.164 338.158 226.84 337.928 226.609C337.701 226.375 337.355 226.258 336.89 226.258C336.414 226.258 336.039 226.363 335.765 226.574C335.492 226.781 335.301 227.004 335.191 227.242L334.23 226.902C334.402 226.504 334.631 226.193 334.916 225.971C335.205 225.748 335.517 225.592 335.853 225.502C336.193 225.412 336.527 225.367 336.855 225.367C337.066 225.367 337.308 225.393 337.582 225.443C337.855 225.49 338.121 225.592 338.379 225.748C338.64 225.9 338.855 226.133 339.023 226.445C339.195 226.754 339.281 227.168 339.281 227.688V232H338.273V231.109H338.226C338.16 231.25 338.047 231.402 337.887 231.566C337.726 231.727 337.514 231.865 337.248 231.982C336.986 232.096 336.664 232.152 336.281 232.152ZM336.433 231.25C336.832 231.25 337.168 231.172 337.441 231.016C337.715 230.859 337.922 230.658 338.062 230.412C338.203 230.162 338.273 229.902 338.273 229.633V228.707C338.23 228.758 338.137 228.805 337.992 228.848C337.851 228.887 337.687 228.922 337.5 228.953C337.316 228.984 337.137 229.012 336.961 229.035C336.785 229.055 336.644 229.07 336.539 229.082C336.277 229.117 336.033 229.174 335.806 229.252C335.58 229.326 335.396 229.438 335.256 229.586C335.119 229.734 335.051 229.938 335.051 230.195C335.051 230.543 335.18 230.807 335.437 230.986C335.699 231.162 336.031 231.25 336.433 231.25ZM343.135 232.141C342.525 232.141 341.998 231.996 341.553 231.707C341.111 231.414 340.769 231.014 340.527 230.506C340.289 229.998 340.17 229.418 340.17 228.766C340.17 228.098 340.293 227.51 340.539 227.002C340.785 226.49 341.129 226.09 341.57 225.801C342.015 225.512 342.533 225.367 343.123 225.367C343.584 225.367 343.998 225.453 344.365 225.625C344.736 225.793 345.039 226.031 345.273 226.34C345.512 226.648 345.658 227.008 345.713 227.418H344.705C344.654 227.219 344.562 227.031 344.43 226.855C344.297 226.68 344.121 226.539 343.902 226.434C343.687 226.324 343.431 226.27 343.135 226.27C342.744 226.27 342.402 226.371 342.109 226.574C341.816 226.777 341.588 227.064 341.424 227.436C341.26 227.803 341.178 228.234 341.178 228.73C341.178 229.234 341.258 229.676 341.418 230.055C341.578 230.43 341.805 230.721 342.097 230.928C342.394 231.135 342.74 231.238 343.135 231.238C343.529 231.238 343.867 231.137 344.148 230.934C344.43 230.727 344.615 230.445 344.705 230.09H345.713C345.658 230.477 345.517 230.824 345.291 231.133C345.068 231.441 344.773 231.688 344.406 231.871C344.043 232.051 343.619 232.141 343.135 232.141ZM349.226 232.141C348.617 232.141 348.09 231.996 347.644 231.707C347.203 231.414 346.861 231.014 346.619 230.506C346.381 229.998 346.262 229.418 346.262 228.766C346.262 228.098 346.385 227.51 346.631 227.002C346.877 226.49 347.221 226.09 347.662 225.801C348.107 225.512 348.625 225.367 349.215 225.367C349.676 225.367 350.09 225.453 350.457 225.625C350.828 225.793 351.131 226.031 351.365 226.34C351.603 226.648 351.75 227.008 351.805 227.418H350.797C350.746 227.219 350.654 227.031 350.521 226.855C350.388 226.68 350.213 226.539 349.994 226.434C349.779 226.324 349.523 226.27 349.226 226.27C348.836 226.27 348.494 226.371 348.201 226.574C347.908 226.777 347.68 227.064 347.515 227.436C347.351 227.803 347.269 228.234 347.269 228.73C347.269 229.234 347.349 229.676 347.51 230.055C347.67 230.43 347.896 230.721 348.189 230.928C348.486 231.135 348.832 231.238 349.226 231.238C349.621 231.238 349.959 231.137 350.24 230.934C350.521 230.727 350.707 230.445 350.797 230.09H351.805C351.75 230.477 351.609 230.824 351.383 231.133C351.16 231.441 350.865 231.688 350.498 231.871C350.135 232.051 349.711 232.141 349.226 232.141ZM353.666 228.062V232H352.67V223.27H353.666V226.48H353.76C353.912 226.141 354.14 225.871 354.445 225.672C354.754 225.469 355.166 225.367 355.681 225.367C356.127 225.367 356.517 225.457 356.853 225.637C357.189 225.812 357.451 226.084 357.638 226.451C357.826 226.814 357.92 227.277 357.92 227.84V232H356.912V227.91C356.912 227.387 356.777 226.982 356.508 226.697C356.238 226.412 355.865 226.27 355.388 226.27C355.056 226.27 354.762 226.34 354.504 226.48C354.246 226.621 354.041 226.824 353.888 227.09C353.74 227.355 353.666 227.68 353.666 228.062ZM359.125 232V225.449H360.121V232H359.125ZM359.629 224.359C359.433 224.359 359.265 224.293 359.125 224.16C358.984 224.027 358.914 223.867 358.914 223.68C358.914 223.492 358.984 223.332 359.125 223.199C359.265 223.066 359.433 223 359.629 223C359.824 223 359.992 223.066 360.133 223.199C360.273 223.332 360.344 223.492 360.344 223.68C360.344 223.867 360.273 224.027 360.133 224.16C359.992 224.293 359.824 224.359 359.629 224.359ZM364.068 232.141C363.439 232.141 362.894 232 362.433 231.719C361.976 231.438 361.625 231.045 361.379 230.541C361.133 230.033 361.01 229.445 361.01 228.777C361.01 228.105 361.131 227.514 361.373 227.002C361.615 226.49 361.955 226.09 362.392 225.801C362.834 225.512 363.349 225.367 363.939 225.367C364.279 225.367 364.617 225.424 364.953 225.537C365.289 225.65 365.594 225.834 365.867 226.088C366.144 226.342 366.365 226.678 366.529 227.096C366.693 227.514 366.775 228.027 366.775 228.637V229.07H361.724V228.203H366.23L365.767 228.531C365.767 228.094 365.699 227.705 365.562 227.365C365.426 227.025 365.22 226.758 364.947 226.562C364.677 226.367 364.342 226.27 363.939 226.27C363.537 226.27 363.191 226.369 362.902 226.568C362.617 226.764 362.398 227.02 362.246 227.336C362.094 227.652 362.017 227.992 362.017 228.355V228.93C362.017 229.426 362.103 229.846 362.275 230.189C362.447 230.533 362.687 230.795 362.996 230.975C363.304 231.15 363.662 231.238 364.068 231.238C364.33 231.238 364.568 231.201 364.783 231.127C364.998 231.049 365.183 230.934 365.34 230.781C365.496 230.625 365.615 230.434 365.697 230.207L366.67 230.488C366.568 230.816 366.396 231.105 366.154 231.355C365.916 231.602 365.619 231.795 365.263 231.936C364.908 232.072 364.51 232.141 364.068 232.141ZM372.75 225.449L370.336 232H369.304L366.89 225.449H367.98L369.785 230.676H369.855L371.66 225.449H372.75ZM375.947 232.141C375.318 232.141 374.773 232 374.312 231.719C373.855 231.438 373.504 231.045 373.258 230.541C373.011 230.033 372.888 229.445 372.888 228.777C372.888 228.105 373.009 227.514 373.252 227.002C373.494 226.49 373.834 226.09 374.271 225.801C374.713 225.512 375.228 225.367 375.818 225.367C376.158 225.367 376.496 225.424 376.832 225.537C377.168 225.65 377.472 225.834 377.746 226.088C378.023 226.342 378.244 226.678 378.408 227.096C378.572 227.514 378.654 228.027 378.654 228.637V229.07H373.603V228.203H378.109L377.646 228.531C377.646 228.094 377.578 227.705 377.441 227.365C377.304 227.025 377.099 226.758 376.826 226.562C376.556 226.367 376.22 226.27 375.818 226.27C375.416 226.27 375.07 226.369 374.781 226.568C374.496 226.764 374.277 227.02 374.125 227.336C373.972 227.652 373.896 227.992 373.896 228.355V228.93C373.896 229.426 373.982 229.846 374.154 230.189C374.326 230.533 374.566 230.795 374.875 230.975C375.183 231.15 375.541 231.238 375.947 231.238C376.209 231.238 376.447 231.201 376.662 231.127C376.877 231.049 377.062 230.934 377.218 230.781C377.375 230.625 377.494 230.434 377.576 230.207L378.549 230.488C378.447 230.816 378.275 231.105 378.033 231.355C377.795 231.602 377.498 231.795 377.142 231.936C376.787 232.072 376.388 232.141 375.947 232.141ZM379.519 232V225.449H380.48V226.48H380.574C380.711 226.129 380.931 225.855 381.236 225.66C381.541 225.465 381.906 225.367 382.332 225.367C382.761 225.367 383.119 225.465 383.404 225.66C383.693 225.855 383.918 226.129 384.078 226.48H384.148C384.32 226.141 384.572 225.871 384.904 225.672C385.24 225.469 385.64 225.367 386.105 225.367C386.691 225.367 387.172 225.551 387.547 225.918C387.922 226.281 388.109 226.848 388.109 227.617V232H387.101V227.617C387.101 227.133 386.968 226.787 386.703 226.58C386.437 226.373 386.125 226.27 385.765 226.27C385.308 226.27 384.953 226.41 384.699 226.691C384.449 226.969 384.324 227.316 384.324 227.734V232H383.293V227.512C383.293 227.141 383.174 226.842 382.935 226.615C382.697 226.385 382.386 226.27 382.004 226.27C381.742 226.27 381.498 226.34 381.271 226.48C381.045 226.621 380.861 226.814 380.72 227.061C380.584 227.307 380.515 227.59 380.515 227.91V232H379.519ZM392.056 232.141C391.427 232.141 390.883 232 390.422 231.719C389.965 231.438 389.613 231.045 389.367 230.541C389.121 230.033 388.998 229.445 388.998 228.777C388.998 228.105 389.119 227.514 389.361 227.002C389.603 226.49 389.943 226.09 390.381 225.801C390.822 225.512 391.338 225.367 391.927 225.367C392.267 225.367 392.605 225.424 392.941 225.537C393.277 225.65 393.582 225.834 393.855 226.088C394.133 226.342 394.353 226.678 394.517 227.096C394.681 227.514 394.763 228.027 394.763 228.637V229.07H389.713V228.203H394.218L393.756 228.531C393.756 228.094 393.687 227.705 393.55 227.365C393.414 227.025 393.209 226.758 392.935 226.562C392.666 226.367 392.33 226.27 391.927 226.27C391.525 226.27 391.179 226.369 390.89 226.568C390.605 226.764 390.386 227.02 390.234 227.336C390.082 227.652 390.006 227.992 390.006 228.355V228.93C390.006 229.426 390.091 229.846 390.263 230.189C390.435 230.533 390.675 230.795 390.984 230.975C391.293 231.15 391.65 231.238 392.056 231.238C392.318 231.238 392.556 231.201 392.771 231.127C392.986 231.049 393.172 230.934 393.328 230.781C393.484 230.625 393.603 230.434 393.685 230.207L394.658 230.488C394.556 230.816 394.384 231.105 394.142 231.355C393.904 231.602 393.607 231.795 393.252 231.936C392.896 232.072 392.498 232.141 392.056 232.141ZM396.625 228.062V232H395.629V225.449H396.59V226.48H396.683C396.836 226.145 397.068 225.875 397.381 225.672C397.693 225.469 398.097 225.367 398.593 225.367C399.035 225.367 399.422 225.457 399.754 225.637C400.086 225.816 400.343 226.09 400.527 226.457C400.715 226.82 400.808 227.281 400.808 227.84V232H399.812V227.91C399.812 227.398 399.677 226.998 399.408 226.709C399.138 226.416 398.771 226.27 398.306 226.27C397.986 226.27 397.699 226.34 397.445 226.48C397.191 226.621 396.99 226.824 396.841 227.09C396.697 227.355 396.625 227.68 396.625 228.062ZM404.849 225.449V226.305H401.463V225.449H404.849ZM402.447 223.891H403.443V230.125C403.443 230.465 403.513 230.715 403.654 230.875C403.795 231.031 404.017 231.109 404.322 231.109C404.388 231.109 404.457 231.105 404.527 231.098C404.601 231.09 404.681 231.078 404.767 231.062L404.978 231.965C404.884 232 404.769 232.027 404.632 232.047C404.5 232.07 404.365 232.082 404.228 232.082C403.701 232.082 403.271 231.926 402.939 231.613C402.611 231.301 402.447 230.895 402.447 230.395V223.891Z" fill="#5B6475"/>
<path d="M71.6484 152.544V137.088H72.6279V152.544H71.6484ZM72.1382 151.199C71.214 151.199 70.4116 151.055 69.731 150.768C69.0558 150.474 68.5273 150.056 68.1455 149.514C67.7637 148.972 67.5506 148.327 67.5063 147.58H69.3823C69.4211 148.028 69.5649 148.402 69.814 148.701C70.0685 148.994 70.3978 149.213 70.8018 149.356C71.2057 149.5 71.6484 149.572 72.1299 149.572C72.6556 149.572 73.126 149.489 73.541 149.323C73.9561 149.157 74.2798 148.925 74.5122 148.626C74.7502 148.322 74.8691 147.967 74.8691 147.563C74.8691 147.198 74.764 146.899 74.5537 146.667C74.349 146.435 74.0695 146.244 73.7153 146.094C73.3612 145.939 72.9627 145.804 72.52 145.688L71.0674 145.289C70.0713 145.023 69.2855 144.628 68.71 144.102C68.1344 143.571 67.8467 142.876 67.8467 142.019C67.8467 141.305 68.0376 140.682 68.4194 140.151C68.8068 139.62 69.3298 139.207 69.9883 138.914C70.6523 138.615 71.3966 138.466 72.2212 138.466C73.0623 138.466 73.8011 138.615 74.4375 138.914C75.0794 139.207 75.5858 139.611 75.9565 140.126C76.3328 140.635 76.5293 141.219 76.5459 141.877H74.7363C74.6699 141.307 74.4043 140.865 73.9395 140.549C73.4801 140.234 72.8936 140.076 72.1797 140.076C71.6816 140.076 71.2445 140.156 70.8682 140.317C70.4974 140.472 70.2096 140.688 70.0049 140.964C69.8057 141.241 69.7061 141.559 69.7061 141.919C69.7061 142.306 69.825 142.622 70.063 142.865C70.3065 143.109 70.5998 143.302 70.9429 143.446C71.2915 143.585 71.6263 143.698 71.9473 143.787L73.1509 144.11C73.5438 144.21 73.9478 144.343 74.3628 144.509C74.7778 144.675 75.1624 144.893 75.5166 145.165C75.8763 145.43 76.1641 145.762 76.3799 146.161C76.6012 146.554 76.7119 147.029 76.7119 147.588C76.7119 148.28 76.5321 148.9 76.1724 149.448C75.8127 149.99 75.2925 150.419 74.6118 150.734C73.9312 151.044 73.1066 151.199 72.1382 151.199ZM82.5225 138.632V151H80.6797V140.508H80.5967L77.6582 142.442V140.649L80.7295 138.632H82.5225ZM88.4326 151.166C87.6745 151.166 86.9938 151.022 86.3906 150.734C85.793 150.441 85.3143 150.04 84.9546 149.531C84.5949 149.016 84.404 148.432 84.3818 147.779H86.1914C86.2357 148.305 86.4709 148.739 86.897 149.083C87.3231 149.426 87.835 149.597 88.4326 149.597C88.9085 149.597 89.3291 149.486 89.6943 149.265C90.0596 149.044 90.3473 148.742 90.5576 148.36C90.7679 147.973 90.873 147.53 90.873 147.032C90.873 146.534 90.7651 146.089 90.5493 145.696C90.3335 145.297 90.0347 144.985 89.6528 144.758C89.2765 144.531 88.8421 144.417 88.3496 144.417C87.9733 144.417 87.597 144.484 87.2207 144.617C86.8444 144.744 86.54 144.91 86.3076 145.115L84.5894 144.866L85.2866 138.632H92.085V140.234H86.8472L86.457 143.695H86.5234C86.7614 143.457 87.0796 143.264 87.478 143.114C87.882 142.959 88.3164 142.882 88.7812 142.882C89.5339 142.882 90.2035 143.062 90.79 143.421C91.3822 143.776 91.847 144.263 92.1846 144.882C92.5221 145.497 92.6909 146.202 92.6909 146.999C92.6909 147.801 92.5083 148.518 92.1431 149.149C91.7778 149.774 91.2743 150.267 90.6323 150.626C89.9959 150.986 89.2627 151.166 88.4326 151.166ZM94.127 151V149.655L98.3105 145.306C98.7533 144.841 99.1185 144.431 99.4062 144.077C99.6995 143.717 99.9181 143.377 100.062 143.056C100.211 142.735 100.286 142.395 100.286 142.035C100.286 141.62 100.189 141.263 99.9956 140.964C99.8019 140.666 99.5391 140.436 99.207 140.275C98.875 140.115 98.4987 140.035 98.0781 140.035C97.6354 140.035 97.2508 140.126 96.9243 140.309C96.5978 140.486 96.3433 140.74 96.1606 141.072C95.9836 141.399 95.895 141.783 95.895 142.226H94.1187C94.1187 141.473 94.2902 140.815 94.6333 140.25C94.9819 139.686 95.4578 139.249 96.061 138.939C96.6698 138.624 97.356 138.466 98.1196 138.466C98.8999 138.466 99.5861 138.621 100.178 138.931C100.77 139.241 101.232 139.661 101.564 140.192C101.896 140.718 102.062 141.313 102.062 141.977C102.062 142.436 101.977 142.885 101.805 143.322C101.639 143.759 101.343 144.249 100.917 144.791C100.496 145.328 99.9098 145.975 99.1572 146.733L96.7002 149.307V149.406H102.262V151H94.127ZM108.139 151.166C107.187 151.166 106.371 150.917 105.69 150.419C105.015 149.921 104.497 149.201 104.138 148.261C103.784 147.314 103.606 146.169 103.606 144.824C103.606 143.485 103.786 142.342 104.146 141.396C104.506 140.444 105.023 139.719 105.698 139.221C106.379 138.718 107.192 138.466 108.139 138.466C109.09 138.466 109.904 138.718 110.579 139.221C111.26 139.719 111.777 140.444 112.131 141.396C112.491 142.342 112.671 143.485 112.671 144.824C112.671 146.169 112.494 147.314 112.14 148.261C111.785 149.201 111.271 149.921 110.596 150.419C109.921 150.917 109.102 151.166 108.139 151.166ZM108.139 149.572C108.72 149.572 109.209 149.387 109.608 149.016C110.006 148.645 110.311 148.106 110.521 147.397C110.731 146.684 110.836 145.826 110.836 144.824C110.836 143.817 110.731 142.959 110.521 142.251C110.311 141.537 110.006 140.995 109.608 140.624C109.209 140.248 108.72 140.06 108.139 140.06C107.281 140.06 106.617 140.477 106.146 141.313C105.682 142.143 105.449 143.313 105.449 144.824C105.449 145.826 105.554 146.684 105.765 147.397C105.975 148.106 106.279 148.645 106.678 149.016C107.082 149.387 107.569 149.572 108.139 149.572ZM118.415 151.166C117.463 151.166 116.647 150.917 115.966 150.419C115.291 149.921 114.774 149.201 114.414 148.261C114.06 147.314 113.883 146.169 113.883 144.824C113.883 143.485 114.063 142.342 114.422 141.396C114.782 140.444 115.299 139.719 115.975 139.221C116.655 138.718 117.469 138.466 118.415 138.466C119.367 138.466 120.18 138.718 120.855 139.221C121.536 139.719 122.054 140.444 122.408 141.396C122.767 142.342 122.947 143.485 122.947 144.824C122.947 146.169 122.77 147.314 122.416 148.261C122.062 149.201 121.547 149.921 120.872 150.419C120.197 150.917 119.378 151.166 118.415 151.166ZM118.415 149.572C118.996 149.572 119.486 149.387 119.884 149.016C120.283 148.645 120.587 148.106 120.797 147.397C121.008 146.684 121.113 145.826 121.113 144.824C121.113 143.817 121.008 142.959 120.797 142.251C120.587 141.537 120.283 140.995 119.884 140.624C119.486 140.248 118.996 140.06 118.415 140.06C117.557 140.06 116.893 140.477 116.423 141.313C115.958 142.143 115.726 143.313 115.726 144.824C115.726 145.826 115.831 146.684 116.041 147.397C116.251 148.106 116.556 148.645 116.954 149.016C117.358 149.387 117.845 149.572 118.415 149.572ZM128.691 151.166C127.74 151.166 126.923 150.917 126.243 150.419C125.568 149.921 125.05 149.201 124.69 148.261C124.336 147.314 124.159 146.169 124.159 144.824C124.159 143.485 124.339 142.342 124.699 141.396C125.058 140.444 125.576 139.719 126.251 139.221C126.932 138.718 127.745 138.466 128.691 138.466C129.643 138.466 130.457 138.718 131.132 139.221C131.812 139.719 132.33 140.444 132.684 141.396C133.044 142.342 133.224 143.485 133.224 144.824C133.224 146.169 133.047 147.314 132.692 148.261C132.338 149.201 131.824 149.921 131.148 150.419C130.473 150.917 129.654 151.166 128.691 151.166ZM128.691 149.572C129.272 149.572 129.762 149.387 130.161 149.016C130.559 148.645 130.863 148.106 131.074 147.397C131.284 146.684 131.389 145.826 131.389 144.824C131.389 143.817 131.284 142.959 131.074 142.251C130.863 141.537 130.559 140.995 130.161 140.624C129.762 140.248 129.272 140.06 128.691 140.06C127.834 140.06 127.17 140.477 126.699 141.313C126.234 142.143 126.002 143.313 126.002 144.824C126.002 145.826 126.107 146.684 126.317 147.397C126.528 148.106 126.832 148.645 127.23 149.016C127.634 149.387 128.121 149.572 128.691 149.572Z" fill="#0E1522"/>
<path d="M71.6484 232.544V217.088H72.6279V232.544H71.6484ZM72.1382 231.199C71.214 231.199 70.4116 231.055 69.731 230.768C69.0558 230.474 68.5273 230.056 68.1455 229.514C67.7637 228.972 67.5506 228.327 67.5063 227.58H69.3823C69.4211 228.028 69.5649 228.402 69.814 228.701C70.0685 228.994 70.3978 229.213 70.8018 229.356C71.2057 229.5 71.6484 229.572 72.1299 229.572C72.6556 229.572 73.126 229.489 73.541 229.323C73.9561 229.157 74.2798 228.925 74.5122 228.626C74.7502 228.322 74.8691 227.967 74.8691 227.563C74.8691 227.198 74.764 226.899 74.5537 226.667C74.349 226.435 74.0695 226.244 73.7153 226.094C73.3612 225.939 72.9627 225.804 72.52 225.688L71.0674 225.289C70.0713 225.023 69.2855 224.628 68.71 224.102C68.1344 223.571 67.8467 222.876 67.8467 222.019C67.8467 221.305 68.0376 220.682 68.4194 220.151C68.8068 219.62 69.3298 219.207 69.9883 218.914C70.6523 218.615 71.3966 218.466 72.2212 218.466C73.0623 218.466 73.8011 218.615 74.4375 218.914C75.0794 219.207 75.5858 219.611 75.9565 220.126C76.3328 220.635 76.5293 221.219 76.5459 221.877H74.7363C74.6699 221.307 74.4043 220.865 73.9395 220.549C73.4801 220.234 72.8936 220.076 72.1797 220.076C71.6816 220.076 71.2445 220.156 70.8682 220.317C70.4974 220.472 70.2096 220.688 70.0049 220.964C69.8057 221.241 69.7061 221.559 69.7061 221.919C69.7061 222.306 69.825 222.622 70.063 222.865C70.3065 223.109 70.5998 223.302 70.9429 223.446C71.2915 223.585 71.6263 223.698 71.9473 223.787L73.1509 224.11C73.5438 224.21 73.9478 224.343 74.3628 224.509C74.7778 224.675 75.1624 224.893 75.5166 225.165C75.8763 225.43 76.1641 225.762 76.3799 226.161C76.6012 226.554 76.7119 227.029 76.7119 227.588C76.7119 228.28 76.5321 228.9 76.1724 229.448C75.8127 229.99 75.2925 230.419 74.6118 230.734C73.9312 231.044 73.1066 231.199 72.1382 231.199ZM82.2236 231.166C81.3604 231.166 80.5967 231.017 79.9326 230.718C79.2741 230.419 78.7567 230.009 78.3804 229.489C78.0096 228.964 77.8242 228.366 77.8242 227.696C77.8242 227.182 77.9321 226.703 78.1479 226.26C78.3693 225.818 78.6681 225.45 79.0444 225.156C79.4207 224.863 79.8441 224.675 80.3145 224.592V224.517C79.7002 224.368 79.2049 224.038 78.8286 223.529C78.4578 223.015 78.2725 222.428 78.2725 221.77C78.2725 221.133 78.4412 220.566 78.7788 220.068C79.1219 219.57 79.5895 219.18 80.1816 218.897C80.7793 218.61 81.46 218.466 82.2236 218.466C82.9762 218.466 83.6486 218.61 84.2407 218.897C84.8384 219.18 85.306 219.57 85.6436 220.068C85.9867 220.566 86.1582 221.133 86.1582 221.77C86.1582 222.428 85.9701 223.015 85.5938 223.529C85.223 224.038 84.736 224.368 84.1328 224.517V224.592C84.5977 224.675 85.0182 224.863 85.3945 225.156C85.7708 225.45 86.0697 225.818 86.291 226.26C86.5124 226.703 86.623 227.182 86.623 227.696C86.623 228.366 86.4349 228.964 86.0586 229.489C85.6823 230.009 85.1621 230.419 84.498 230.718C83.8395 231.017 83.0814 231.166 82.2236 231.166ZM82.2236 229.639C82.7327 229.639 83.1755 229.556 83.5518 229.39C83.9281 229.218 84.2186 228.977 84.4233 228.667C84.6281 228.358 84.7305 227.998 84.7305 227.588C84.7305 227.157 84.6198 226.778 84.3984 226.451C84.1826 226.119 83.8866 225.859 83.5103 225.671C83.134 225.477 82.7051 225.38 82.2236 225.38C81.7367 225.38 81.3022 225.474 80.9204 225.663C80.5441 225.851 80.248 226.111 80.0322 226.443C79.8164 226.775 79.7085 227.157 79.7085 227.588C79.7085 227.998 79.8109 228.358 80.0156 228.667C80.2204 228.977 80.5109 229.218 80.8872 229.39C81.2635 229.556 81.709 229.639 82.2236 229.639ZM82.2236 223.895C82.6331 223.895 82.9956 223.812 83.311 223.646C83.632 223.479 83.8838 223.25 84.0664 222.957C84.2546 222.663 84.3486 222.32 84.3486 221.927C84.3486 221.54 84.2573 221.202 84.0747 220.915C83.8976 220.627 83.6486 220.403 83.3276 220.242C83.0122 220.082 82.6442 220.001 82.2236 220.001C81.7975 220.001 81.424 220.082 81.103 220.242C80.7821 220.403 80.533 220.627 80.356 220.915C80.1789 221.202 80.0903 221.54 80.0903 221.927C80.0903 222.32 80.1816 222.663 80.3643 222.957C80.5469 223.25 80.7959 223.479 81.1113 223.646C81.4323 223.812 81.8031 223.895 82.2236 223.895ZM92.1348 231.166C91.3766 231.166 90.696 231.022 90.0928 230.734C89.4951 230.441 89.0164 230.04 88.6567 229.531C88.297 229.016 88.1061 228.432 88.084 227.779H89.8936C89.9378 228.305 90.173 228.739 90.5991 229.083C91.0252 229.426 91.5371 229.597 92.1348 229.597C92.6107 229.597 93.0312 229.486 93.3965 229.265C93.7617 229.044 94.0495 228.742 94.2598 228.36C94.4701 227.973 94.5752 227.53 94.5752 227.032C94.5752 226.534 94.4673 226.089 94.2515 225.696C94.0356 225.297 93.7368 224.985 93.355 224.758C92.9787 224.531 92.5443 224.417 92.0518 224.417C91.6755 224.417 91.2992 224.484 90.9229 224.617C90.5465 224.744 90.2422 224.91 90.0098 225.115L88.2915 224.866L88.9888 218.632H95.7871V220.234H90.5493L90.1592 223.695H90.2256C90.4635 223.457 90.7817 223.264 91.1802 223.114C91.5841 222.959 92.0186 222.882 92.4834 222.882C93.236 222.882 93.9056 223.062 94.4922 223.421C95.0843 223.776 95.5492 224.263 95.8867 224.882C96.2243 225.497 96.3931 226.202 96.3931 226.999C96.3931 227.801 96.2104 228.518 95.8452 229.149C95.48 229.774 94.9764 230.267 94.3345 230.626C93.6981 230.986 92.9648 231.166 92.1348 231.166ZM102.112 231.166C101.564 231.166 101.022 231.069 100.485 230.875C99.9486 230.682 99.4644 230.361 99.0327 229.913C98.6011 229.459 98.2524 228.85 97.9868 228.086C97.7267 227.323 97.5967 226.374 97.5967 225.239C97.5967 224.16 97.7046 223.203 97.9204 222.367C98.1418 221.526 98.4544 220.818 98.8584 220.242C99.2679 219.661 99.7604 219.221 100.336 218.922C100.911 218.618 101.559 218.466 102.278 218.466C103.014 218.466 103.667 218.612 104.237 218.906C104.807 219.194 105.269 219.592 105.624 220.101C105.983 220.61 106.207 221.191 106.296 221.844H104.47C104.342 221.33 104.093 220.912 103.723 220.591C103.352 220.264 102.87 220.101 102.278 220.101C101.371 220.101 100.662 220.497 100.153 221.288C99.6497 222.074 99.3979 223.17 99.3979 224.575H99.4893C99.7051 224.227 99.9679 223.928 100.278 223.679C100.588 223.424 100.934 223.23 101.315 223.098C101.703 222.965 102.115 222.898 102.552 222.898C103.266 222.898 103.914 223.073 104.495 223.421C105.081 223.77 105.546 224.251 105.889 224.866C106.238 225.474 106.412 226.174 106.412 226.966C106.412 227.752 106.232 228.463 105.873 229.099C105.518 229.736 105.018 230.239 104.37 230.61C103.728 230.981 102.976 231.166 102.112 231.166ZM102.104 229.597C102.58 229.597 103.003 229.481 103.374 229.249C103.75 229.016 104.049 228.703 104.271 228.311C104.492 227.912 104.603 227.469 104.603 226.982C104.603 226.507 104.495 226.075 104.279 225.688C104.069 225.3 103.778 224.993 103.407 224.766C103.042 224.534 102.621 224.417 102.146 224.417C101.675 224.417 101.249 224.536 100.867 224.774C100.485 225.012 100.181 225.328 99.9541 225.721C99.7327 226.114 99.6221 226.54 99.6221 226.999C99.6221 227.458 99.73 227.887 99.9458 228.286C100.162 228.684 100.455 229.002 100.826 229.24C101.202 229.478 101.628 229.597 102.104 229.597ZM112.123 231.166C111.575 231.166 111.033 231.069 110.496 230.875C109.959 230.682 109.475 230.361 109.043 229.913C108.612 229.459 108.263 228.85 107.998 228.086C107.737 227.323 107.607 226.374 107.607 225.239C107.607 224.16 107.715 223.203 107.931 222.367C108.153 221.526 108.465 220.818 108.869 220.242C109.279 219.661 109.771 219.221 110.347 218.922C110.922 218.618 111.57 218.466 112.289 218.466C113.025 218.466 113.678 218.612 114.248 218.906C114.818 219.194 115.28 219.592 115.634 220.101C115.994 220.61 116.218 221.191 116.307 221.844H114.48C114.353 221.33 114.104 220.912 113.733 220.591C113.363 220.264 112.881 220.101 112.289 220.101C111.382 220.101 110.673 220.497 110.164 221.288C109.66 222.074 109.409 223.17 109.409 224.575H109.5C109.716 224.227 109.979 223.928 110.289 223.679C110.598 223.424 110.944 223.23 111.326 223.098C111.714 222.965 112.126 222.898 112.563 222.898C113.277 222.898 113.924 223.073 114.505 223.421C115.092 223.77 115.557 224.251 115.9 224.866C116.249 225.474 116.423 226.174 116.423 226.966C116.423 227.752 116.243 228.463 115.883 229.099C115.529 229.736 115.028 230.239 114.381 230.61C113.739 230.981 112.986 231.166 112.123 231.166ZM112.115 229.597C112.591 229.597 113.014 229.481 113.385 229.249C113.761 229.016 114.06 228.703 114.281 228.311C114.503 227.912 114.613 227.469 114.613 226.982C114.613 226.507 114.505 226.075 114.29 225.688C114.079 225.3 113.789 224.993 113.418 224.766C113.053 224.534 112.632 224.417 112.156 224.417C111.686 224.417 111.26 224.536 110.878 224.774C110.496 225.012 110.192 225.328 109.965 225.721C109.743 226.114 109.633 226.54 109.633 226.999C109.633 227.458 109.741 227.887 109.957 228.286C110.172 228.684 110.466 229.002 110.836 229.24C111.213 229.478 111.639 229.597 112.115 229.597ZM117.851 231V229.655L122.034 225.306C122.477 224.841 122.842 224.431 123.13 224.077C123.423 223.717 123.642 223.377 123.786 223.056C123.935 222.735 124.01 222.395 124.01 222.035C124.01 221.62 123.913 221.263 123.719 220.964C123.526 220.666 123.263 220.436 122.931 220.275C122.599 220.115 122.222 220.035 121.802 220.035C121.359 220.035 120.974 220.126 120.648 220.309C120.321 220.486 120.067 220.74 119.884 221.072C119.707 221.399 119.619 221.783 119.619 222.226H117.842C117.842 221.473 118.014 220.815 118.357 220.25C118.706 219.686 119.181 219.249 119.785 218.939C120.393 218.624 121.08 218.466 121.843 218.466C122.624 218.466 123.31 218.621 123.902 218.931C124.494 219.241 124.956 219.661 125.288 220.192C125.62 220.718 125.786 221.313 125.786 221.977C125.786 222.436 125.7 222.885 125.529 223.322C125.363 223.759 125.067 224.249 124.641 224.791C124.22 225.328 123.633 225.975 122.881 226.733L120.424 229.307V229.406H125.985V231H117.851Z" fill="#0E1522"/>
<line opacity="0.25" x1="21" y1="73.75" x2="437" y2="73.75" stroke="#3D3350" stroke-width="0.5"/>
<path d="M383.775 105.281C370.668 98.2223 355.952 94.6873 341.068 95.0217C326.185 95.3561 311.643 99.5484 298.865 107.189C286.088 114.829 275.512 125.655 268.174 138.608C260.836 151.561 256.985 166.197 257 181.085L274.626 181.067C274.614 169.231 277.675 157.595 283.509 147.296C289.344 136.998 297.752 128.39 307.911 122.316C318.069 116.242 329.631 112.909 341.464 112.643C353.298 112.377 364.997 115.187 375.418 120.799L383.775 105.281Z" fill="url(#paint0_linear_924_45568)"/>
<path d="M378 122L387 110" stroke="#5B6475" stroke-width="1.5" stroke-linecap="square"/>
<path d="M384 127L395 113" stroke="#5B6475" stroke-width="1.5" stroke-linecap="square"/>
<path d="M388 131L401 119" stroke="#5B6475" stroke-width="1.5" stroke-linecap="square"/>
<path d="M395 137L408 125" stroke="#5B6475" stroke-width="1.5" stroke-linecap="square"/>
<path d="M399 142L412 131" stroke="#5B6475" stroke-width="1.5" stroke-linecap="square"/>
<path d="M401 147L417 139" stroke="#5B6475" stroke-width="1.5" stroke-linecap="square"/>
<path d="M406 153L419 147" stroke="#5B6475" stroke-width="1.5" stroke-linecap="square"/>
<path d="M408 160L423 154" stroke="#5B6475" stroke-width="1.5" stroke-linecap="square"/>
<path d="M409 167L426 162" stroke="#5B6475" stroke-width="1.5" stroke-linecap="square"/>
<path d="M410 174L427 171" stroke="#5B6475" stroke-width="1.5" stroke-linecap="square"/>
<path d="M410 180H427" stroke="#5B6475" stroke-width="1.5" stroke-linecap="square"/>
<path d="M327.978 182L336.547 165.046V164.901H326.633V162.356H339.632V165.006L331.076 182H327.978ZM347.951 182.264C346.624 182.264 345.446 182.04 344.417 181.591C343.389 181.134 342.576 180.501 341.979 179.693C341.381 178.884 341.064 177.948 341.029 176.885H344.009C344.053 177.465 344.25 177.966 344.602 178.388C344.954 178.81 345.415 179.139 345.986 179.376C346.566 179.605 347.212 179.719 347.924 179.719C348.698 179.719 349.383 179.583 349.981 179.311C350.579 179.038 351.044 178.665 351.378 178.19C351.721 177.707 351.893 177.148 351.893 176.516C351.893 175.856 351.726 175.276 351.392 174.775C351.058 174.266 350.57 173.87 349.928 173.589C349.287 173.308 348.513 173.167 347.608 173.167H345.934V170.741H347.608C348.329 170.741 348.966 170.609 349.52 170.346C350.073 170.082 350.504 169.717 350.812 169.251C351.128 168.786 351.286 168.236 351.286 167.604C351.286 166.997 351.15 166.47 350.877 166.021C350.605 165.564 350.223 165.213 349.73 164.967C349.238 164.712 348.658 164.584 347.99 164.584C347.349 164.584 346.751 164.699 346.197 164.927C345.644 165.156 345.191 165.485 344.839 165.916C344.497 166.338 344.316 166.852 344.299 167.458H341.438C341.464 166.395 341.772 165.463 342.361 164.664C342.958 163.855 343.75 163.227 344.734 162.778C345.727 162.321 346.826 162.093 348.03 162.093C349.287 162.093 350.372 162.339 351.286 162.831C352.209 163.314 352.921 163.965 353.422 164.782C353.923 165.591 354.173 166.474 354.173 167.432C354.173 168.548 353.866 169.489 353.25 170.253C352.635 171.009 351.813 171.523 350.785 171.796V171.941C352.086 172.143 353.092 172.662 353.804 173.497C354.525 174.332 354.885 175.369 354.885 176.608C354.885 177.689 354.582 178.656 353.976 179.508C353.378 180.361 352.556 181.033 351.51 181.525C350.473 182.018 349.287 182.264 347.951 182.264Z" fill="black"/>
<path d="M319.371 200.725H320.616L322.521 204.035H322.599L324.493 200.725H325.748L323.106 205.144V208H322.008V205.144L319.371 200.725ZM328.182 208.112C327.671 208.112 327.223 207.995 326.839 207.761C326.458 207.526 326.162 207.198 325.95 206.774C325.742 206.351 325.638 205.86 325.638 205.3C325.638 204.733 325.742 204.239 325.95 203.815C326.162 203.389 326.458 203.059 326.839 202.824C327.223 202.59 327.671 202.473 328.182 202.473C328.696 202.473 329.144 202.59 329.524 202.824C329.905 203.059 330.201 203.389 330.413 203.815C330.625 204.239 330.73 204.733 330.73 205.3C330.73 205.86 330.625 206.351 330.413 206.774C330.201 207.198 329.905 207.526 329.524 207.761C329.144 207.995 328.696 208.112 328.182 208.112ZM328.182 207.219C328.517 207.219 328.794 207.131 329.012 206.955C329.23 206.779 329.391 206.547 329.495 206.257C329.603 205.964 329.656 205.645 329.656 205.3C329.656 204.948 329.603 204.626 329.495 204.333C329.391 204.04 329.23 203.806 329.012 203.63C328.794 203.454 328.517 203.366 328.182 203.366C327.85 203.366 327.575 203.454 327.356 203.63C327.142 203.806 326.98 204.04 326.873 204.333C326.766 204.626 326.712 204.948 326.712 205.3C326.712 205.645 326.766 205.964 326.873 206.257C326.98 206.547 327.142 206.779 327.356 206.955C327.575 207.131 327.85 207.219 328.182 207.219ZM335.454 205.744V202.541H336.509V208H335.474V207.053H335.415C335.285 207.342 335.083 207.585 334.81 207.78C334.536 207.976 334.194 208.072 333.784 208.068C333.433 208.068 333.122 207.992 332.852 207.839C332.585 207.686 332.375 207.456 332.222 207.15C332.072 206.844 331.997 206.465 331.997 206.013V202.541H333.052V205.891C333.052 206.258 333.156 206.553 333.364 206.774C333.573 206.996 333.841 207.105 334.17 207.102C334.368 207.102 334.565 207.053 334.761 206.955C334.959 206.857 335.124 206.708 335.254 206.506C335.387 206.304 335.454 206.05 335.454 205.744ZM338.024 208V202.541H339.045V203.415H339.104C339.204 203.122 339.38 202.891 339.631 202.722C339.885 202.549 340.171 202.463 340.49 202.463C340.555 202.463 340.632 202.466 340.72 202.473C340.811 202.476 340.884 202.481 340.939 202.487V203.503C340.897 203.49 340.821 203.477 340.71 203.464C340.603 203.451 340.493 203.444 340.383 203.444C340.132 203.444 339.908 203.498 339.709 203.605C339.514 203.71 339.359 203.854 339.245 204.04C339.134 204.222 339.079 204.434 339.079 204.675V208H338.024ZM348.761 203.879L347.799 204.045C347.737 203.863 347.621 203.695 347.452 203.542C347.286 203.389 347.037 203.312 346.705 203.312C346.406 203.312 346.155 203.381 345.953 203.518C345.755 203.651 345.655 203.822 345.655 204.03C345.655 204.213 345.722 204.361 345.855 204.475C345.992 204.589 346.209 204.68 346.505 204.748L347.379 204.943C347.877 205.057 348.25 205.236 348.497 205.48C348.744 205.725 348.868 206.037 348.868 206.418C348.868 206.747 348.774 207.04 348.585 207.297C348.396 207.551 348.134 207.751 347.799 207.897C347.464 208.041 347.076 208.112 346.637 208.112C346.025 208.112 345.527 207.98 345.143 207.717C344.758 207.453 344.522 207.082 344.435 206.604L345.455 206.447C345.52 206.714 345.652 206.916 345.851 207.053C346.052 207.189 346.313 207.258 346.632 207.258C346.977 207.258 347.254 207.185 347.462 207.038C347.674 206.892 347.779 206.714 347.779 206.506C347.779 206.161 347.522 205.928 347.008 205.808L346.085 205.603C345.574 205.485 345.196 205.301 344.952 205.051C344.711 204.797 344.591 204.478 344.591 204.094C344.591 203.771 344.68 203.488 344.859 203.244C345.042 203 345.291 202.811 345.606 202.678C345.925 202.541 346.288 202.473 346.695 202.473C347.288 202.473 347.752 202.601 348.087 202.858C348.425 203.116 348.65 203.456 348.761 203.879ZM352.4 208.112C351.876 208.112 351.424 207.992 351.043 207.751C350.662 207.51 350.369 207.178 350.164 206.755C349.959 206.332 349.856 205.847 349.856 205.3C349.856 204.743 349.961 204.253 350.169 203.83C350.381 203.404 350.675 203.072 351.053 202.834C351.434 202.593 351.88 202.473 352.391 202.473C352.807 202.473 353.177 202.549 353.499 202.702C353.825 202.852 354.087 203.065 354.285 203.342C354.487 203.618 354.606 203.941 354.642 204.309H353.606C353.571 204.136 353.501 203.978 353.396 203.835C353.296 203.692 353.162 203.578 352.996 203.493C352.83 203.409 352.633 203.366 352.405 203.366C352.109 203.366 351.85 203.444 351.629 203.601C351.411 203.754 351.24 203.973 351.116 204.26C350.993 204.546 350.931 204.885 350.931 205.275C350.931 205.669 350.991 206.013 351.111 206.306C351.232 206.599 351.403 206.825 351.624 206.984C351.849 207.141 352.109 207.219 352.405 207.219C352.711 207.219 352.972 207.134 353.187 206.965C353.405 206.796 353.545 206.564 353.606 206.271H354.642C354.606 206.626 354.492 206.942 354.3 207.219C354.108 207.495 353.851 207.714 353.528 207.873C353.206 208.033 352.83 208.112 352.4 208.112ZM358.184 208.112C357.673 208.112 357.225 207.995 356.841 207.761C356.46 207.526 356.164 207.198 355.952 206.774C355.744 206.351 355.64 205.86 355.64 205.3C355.64 204.733 355.744 204.239 355.952 203.815C356.164 203.389 356.46 203.059 356.841 202.824C357.225 202.59 357.673 202.473 358.184 202.473C358.698 202.473 359.146 202.59 359.526 202.824C359.907 203.059 360.203 203.389 360.415 203.815C360.627 204.239 360.732 204.733 360.732 205.3C360.732 205.86 360.627 206.351 360.415 206.774C360.203 207.198 359.907 207.526 359.526 207.761C359.146 207.995 358.698 208.112 358.184 208.112ZM358.184 207.219C358.519 207.219 358.796 207.131 359.014 206.955C359.232 206.779 359.393 206.547 359.497 206.257C359.604 205.964 359.658 205.645 359.658 205.3C359.658 204.948 359.604 204.626 359.497 204.333C359.393 204.04 359.232 203.806 359.014 203.63C358.796 203.454 358.519 203.366 358.184 203.366C357.852 203.366 357.576 203.454 357.358 203.63C357.144 203.806 356.982 204.04 356.875 204.333C356.768 204.626 356.714 204.948 356.714 205.3C356.714 205.645 356.768 205.964 356.875 206.257C356.982 206.547 357.144 206.779 357.358 206.955C357.576 207.131 357.852 207.219 358.184 207.219ZM361.999 208V202.541H363.02V203.415H363.078C363.179 203.122 363.355 202.891 363.605 202.722C363.859 202.549 364.146 202.463 364.465 202.463C364.53 202.463 364.606 202.466 364.694 202.473C364.785 202.476 364.859 202.481 364.914 202.487V203.503C364.872 203.49 364.795 203.477 364.685 203.464C364.577 203.451 364.468 203.444 364.357 203.444C364.107 203.444 363.882 203.498 363.684 203.605C363.488 203.71 363.334 203.854 363.22 204.04C363.109 204.222 363.054 204.434 363.054 204.675V208H361.999ZM368.08 208.112C367.546 208.112 367.084 207.997 366.693 207.766C366.303 207.535 366.002 207.209 365.79 206.789C365.582 206.366 365.478 205.873 365.478 205.31C365.478 204.75 365.58 204.257 365.785 203.83C365.993 203.404 366.285 203.072 366.659 202.834C367.037 202.593 367.479 202.473 367.987 202.473C368.297 202.473 368.596 202.523 368.886 202.624C369.175 202.725 369.436 202.884 369.667 203.103C369.898 203.321 370.08 203.604 370.214 203.952C370.351 204.3 370.419 204.72 370.419 205.212V205.593H366.078V204.797H369.872L369.379 205.061C369.379 204.725 369.327 204.429 369.223 204.172C369.118 203.915 368.962 203.715 368.754 203.571C368.549 203.425 368.293 203.352 367.987 203.352C367.681 203.352 367.419 203.425 367.201 203.571C366.986 203.718 366.822 203.911 366.708 204.152C366.594 204.393 366.537 204.657 366.537 204.943V205.485C366.537 205.86 366.602 206.177 366.732 206.438C366.863 206.698 367.043 206.896 367.274 207.033C367.509 207.17 367.781 207.238 368.09 207.238C368.292 207.238 368.474 207.209 368.637 207.15C368.803 207.092 368.946 207.004 369.066 206.887C369.187 206.77 369.278 206.625 369.34 206.452L370.346 206.643C370.264 206.936 370.121 207.193 369.916 207.414C369.711 207.635 369.452 207.808 369.14 207.932C368.83 208.052 368.477 208.112 368.08 208.112Z" fill="#0E1522"/>
<path d="M38.4004 199.9C37.936 199.9 37.5245 200.068 37.1963 200.396C36.8683 200.725 36.7003 201.135 36.7002 201.6C36.7002 202.064 36.8681 202.476 37.1963 202.804C37.5245 203.132 37.936 203.3 38.4004 203.3C38.8646 203.3 39.2755 203.132 39.6035 202.804C39.9317 202.476 40.0996 202.064 40.0996 201.6C40.0995 201.135 39.9316 200.725 39.6035 200.396C39.2754 200.068 38.8647 199.9 38.4004 199.9ZM49.5996 199.9C49.1353 199.9 48.7246 200.068 48.3965 200.396C48.0684 200.725 47.9005 201.135 47.9004 201.6C47.9004 202.064 48.0683 202.476 48.3965 202.804C48.7245 203.132 49.1354 203.3 49.5996 203.3C50.064 203.3 50.4755 203.132 50.8037 202.804C51.1319 202.476 51.2998 202.064 51.2998 201.6C51.2997 201.135 51.1317 200.725 50.8037 200.396C50.4755 200.068 50.064 199.9 49.5996 199.9ZM44.4043 195.246L44.4844 195.422L44.6611 195.499L45.6914 195.944L44.6582 196.402L44.4785 196.482L44.4004 196.662L44 197.594L43.5996 196.662L43.5215 196.482L43.3418 196.402L42.3076 195.944L43.3389 195.499L43.5156 195.422L43.5957 195.246L44 194.352L44.4043 195.246ZM38.4004 188.7C37.936 188.7 37.5245 188.868 37.1963 189.196C36.8681 189.524 36.7002 189.936 36.7002 190.4C36.7003 190.865 36.8683 191.275 37.1963 191.604C37.5245 191.932 37.936 192.1 38.4004 192.1C38.8647 192.1 39.2754 191.932 39.6035 191.604C39.9316 191.275 40.0995 190.865 40.0996 190.4C40.0996 189.936 39.9317 189.524 39.6035 189.196C39.2755 188.868 38.8646 188.7 38.4004 188.7ZM38.2998 192.332L37.9238 192.235C37.5113 192.129 37.1747 191.911 36.9014 191.568C36.634 191.233 36.5001 190.85 36.5 190.4C36.5 189.865 36.6819 189.426 37.0537 189.054C37.4255 188.682 37.8648 188.5 38.4004 188.5C38.8503 188.5 39.2328 188.634 39.5684 188.901C39.9113 189.175 40.1295 189.511 40.2354 189.924L40.332 190.3H47.668L47.7646 189.924C47.8705 189.511 48.0887 189.175 48.4316 188.901C48.5776 188.785 48.6368 188.779 48.6895 188.776C48.7388 188.774 48.7974 188.777 48.9062 188.784C48.948 188.787 48.9951 188.786 49.0469 188.789C48.8061 188.87 48.5871 189.006 48.3965 189.196C48.0683 189.524 47.9004 189.936 47.9004 190.4C47.9005 190.865 48.0684 191.275 48.3965 191.604C48.7246 191.932 49.1353 192.1 49.5996 192.1C50.064 192.1 50.4755 191.932 50.8037 191.604C51.037 191.37 51.1872 191.095 51.2559 190.788C51.2588 190.917 51.2607 191.027 51.25 191.145C51.2333 191.327 51.1898 191.454 51.0986 191.568C50.8253 191.911 50.4887 192.129 50.0762 192.235L49.7002 192.332V199.668L50.0762 199.765C50.4887 199.871 50.8253 200.089 51.0986 200.432C51.366 200.767 51.4999 201.15 51.5 201.6C51.5 202.135 51.3181 202.574 50.9463 202.946C50.5745 203.318 50.1352 203.5 49.5996 203.5C49.1497 203.5 48.7672 203.366 48.4316 203.099C48.0887 202.825 47.8705 202.489 47.7646 202.076L47.668 201.7H40.332L40.2354 202.076C40.1295 202.489 39.9113 202.825 39.5684 203.099C39.2328 203.366 38.8503 203.5 38.4004 203.5C37.8648 203.5 37.4255 203.318 37.0537 202.946C36.6819 202.574 36.5 202.135 36.5 201.6C36.5001 201.15 36.634 200.767 36.9014 200.432C37.1747 200.089 37.5113 199.871 37.9238 199.765L38.2998 199.668V192.332ZM49.5 192.33L49.1211 192.235C48.7811 192.15 48.4955 191.988 48.2539 191.746C48.0123 191.504 47.8497 191.219 47.7646 190.879L47.6699 190.5H40.3301L40.2354 190.879C40.1503 191.219 39.9877 191.504 39.7461 191.746C39.5045 191.988 39.2189 192.15 38.8789 192.235L38.5 192.33V199.67L38.8789 199.765C39.2189 199.85 39.5045 200.012 39.7461 200.254C39.9877 200.496 40.1503 200.781 40.2354 201.121L40.3301 201.5H47.6699L47.7646 201.121C47.8497 200.781 48.0123 200.496 48.2539 200.254C48.4955 200.012 48.7811 199.85 49.1211 199.765L49.5 199.67V192.33Z" fill="#5840ED" stroke="url(#paint1_linear_924_45568)"/>
<circle cx="49.4995" cy="190.5" r="1.25" fill="url(#paint2_linear_924_45568)" stroke="url(#paint3_linear_924_45568)" stroke-width="2.5"/>
<path d="M44.4048 195.246L44.4839 195.422L44.6616 195.498L45.6929 195.944L44.6577 196.402L44.478 196.481L44.4009 196.662L43.9995 197.594L43.5991 196.662L43.522 196.481L43.3423 196.402L42.3062 195.944L43.3384 195.498L43.5161 195.422L43.5952 195.246L43.9995 194.352L44.4048 195.246Z" fill="#C9E80F" stroke="#9864FF"/>
<path d="M37 117.419V111.961H42.4585V117.419H37ZM44.5803 125V119.541H50.0388V125H44.5803ZM37 125V119.541H42.4585V125H37ZM38.0881 116.331H41.3705V113.049H38.0881V116.331ZM45.6684 123.912H48.9508V120.629H45.6684V123.912ZM38.0881 123.912H41.3705V120.629H38.0881V123.912Z" fill="url(#paint4_linear_924_45568)"/>
<path d="M47.1381 118.725L43.2754 114.863L47.1381 111L51.0008 114.863L47.1381 118.725ZM47.1925 117.256L49.5319 114.917L47.1925 112.578L44.8531 114.917L47.1925 117.256Z" fill="#9864FF"/>
<defs>
<linearGradient id="paint0_linear_924_45568" x1="266.5" y1="152.5" x2="348.883" y2="82.5093" gradientUnits="userSpaceOnUse">
<stop stop-color="#732CFF"/>
<stop offset="1" stop-color="#F46D6B"/>
</linearGradient>
<linearGradient id="paint1_linear_924_45568" x1="41.509" y1="190.204" x2="54.1635" y2="194.939" gradientUnits="userSpaceOnUse">
<stop stop-color="#732CFF"/>
<stop offset="1" stop-color="#F46D6B"/>
</linearGradient>
<linearGradient id="paint2_linear_924_45568" x1="48.7211" y1="188.689" x2="52.6756" y2="190.168" gradientUnits="userSpaceOnUse">
<stop stop-color="#732CFF"/>
<stop offset="1" stop-color="#F46D6B"/>
</linearGradient>
<linearGradient id="paint3_linear_924_45568" x1="48.7211" y1="188.689" x2="52.6756" y2="190.168" gradientUnits="userSpaceOnUse">
<stop stop-color="#732CFF"/>
<stop offset="1" stop-color="#F46D6B"/>
</linearGradient>
<linearGradient id="paint4_linear_924_45568" x1="41.4894" y1="113.757" x2="51.802" y2="117.615" gradientUnits="userSpaceOnUse">
<stop stop-color="#732CFF"/>
<stop offset="1" stop-color="#F46D6B"/>
</linearGradient>
</defs>
</svg>
