<svg width="1780" height="866" viewBox="0 0 1780 866" fill="none" xmlns="http://www.w3.org/2000/svg">
<circle cx="297.857" cy="562.804" r="1.90198" fill="url(#paint0_linear_507_43409)"/>
<circle cx="1554.9" cy="182.902" r="1.90198" fill="#9864FF"/>
<circle cx="1664" cy="664" r="1" fill="white"/>
<circle cx="1570.29" cy="523.254" r="1.90198" fill="#F8B638"/>
<circle cx="1409.34" cy="491.39" r="1.90198" fill="white"/>
<circle cx="187.613" cy="863.461" r="1.90198" fill="white"/>
<circle cx="1660.7" cy="230.859" r="1.90198" fill="#37B648"/>
<circle cx="1621.55" cy="120.98" r="1" fill="white"/>
<circle cx="1748.38" cy="246.535" r="1" fill="white"/>
<circle cx="1298" cy="332" r="1" fill="white"/>
<circle cx="1778.41" cy="206.273" r="1" fill="white"/>
<circle cx="1647.27" cy="263.91" r="1" fill="white"/>
<circle cx="1345.76" cy="111.484" r="1" fill="white"/>
<circle cx="1516.76" cy="136.648" r="1.90198" fill="white"/>
<circle cx="1190.74" cy="143.81" r="1.90198" fill="#FF6F4B"/>
<circle cx="863.49" cy="118.477" r="1" fill="white"/>
<circle cx="965.234" cy="147.453" r="1" fill="white"/>
<circle cx="388.34" cy="1" r="1" fill="white"/>
<circle cx="399.658" cy="142.133" r="1.5" fill="white"/>
<circle cx="481.5" cy="353.5" r="1.5" fill="white"/>
<circle cx="268.279" cy="129.766" r="1.5" fill="#37B648"/>
<circle cx="743.246" cy="153.758" r="1.5" fill="white"/>
<circle cx="240.129" cy="402.183" r="1.90198" fill="white"/>
<circle cx="1.90198" cy="227.437" r="1.90198" fill="url(#paint1_linear_507_43409)"/>
<circle cx="64.1598" cy="91.3551" r="1.90198" fill="white"/>
<defs>
<linearGradient id="paint0_linear_507_43409" x1="296.055" y1="561.179" x2="300.632" y2="562.204" gradientUnits="userSpaceOnUse">
<stop stop-color="#F8B638"/>
<stop offset="1" stop-color="#FF4A24"/>
</linearGradient>
<linearGradient id="paint1_linear_507_43409" x1="0.100104" y1="225.812" x2="4.67654" y2="226.837" gradientUnits="userSpaceOnUse">
<stop stop-color="#F8B638"/>
<stop offset="1" stop-color="#FF4A24"/>
</linearGradient>
</defs>
</svg>
