<svg width="1871" height="1462" viewBox="0 0 1871 1462" fill="none" xmlns="http://www.w3.org/2000/svg">
<g opacity="0.7">
<path opacity="0.11" d="M1006.73 458.652C1006.89 457.912 1006.42 457.181 1005.68 457.02C1004.94 456.859 1004.21 457.329 1004.04 458.069C1003.88 458.81 1004.35 459.54 1005.09 459.701C1005.83 459.862 1006.56 459.393 1006.73 458.652Z" fill="white"/>
<path d="M1015.04 455.904C1015.16 455.349 1014.81 454.801 1014.25 454.68C1013.7 454.559 1013.15 454.912 1013.03 455.467C1012.91 456.022 1013.26 456.57 1013.82 456.69C1014.37 456.811 1014.92 456.459 1015.04 455.904Z" fill="white"/>
<path d="M1005.78 430.733C1005.9 430.178 1005.55 429.63 1004.99 429.51C1004.44 429.389 1003.89 429.741 1003.77 430.296C1003.65 430.851 1004 431.399 1004.56 431.52C1005.11 431.641 1005.66 431.288 1005.78 430.733Z" fill="white"/>
<path d="M992.057 487.391C992.178 486.836 991.826 486.288 991.27 486.167C990.715 486.046 990.168 486.399 990.047 486.954C989.926 487.509 990.278 488.057 990.833 488.177C991.389 488.298 991.936 487.946 992.057 487.391Z" fill="white"/>
<path opacity="0.11" d="M1000.93 524.054C1001.09 523.313 1000.62 522.583 999.878 522.422C999.137 522.261 998.407 522.73 998.246 523.471C998.085 524.211 998.554 524.942 999.295 525.103C1000.04 525.264 1000.77 524.794 1000.93 524.054Z" fill="white"/>
<path d="M983.42 533.575C983.5 533.205 983.266 532.841 982.896 532.76C982.527 532.68 982.162 532.914 982.082 533.284C982.001 533.654 982.236 534.018 982.605 534.099C982.975 534.179 983.34 533.945 983.42 533.575Z" fill="white"/>
<path d="M1032.41 466.347C1032.49 465.978 1032.26 465.613 1031.89 465.532C1031.52 465.452 1031.16 465.687 1031.07 466.056C1030.99 466.426 1031.23 466.791 1031.6 466.871C1031.97 466.951 1032.33 466.717 1032.41 466.347Z" fill="white"/>
<path d="M1064.17 320.286C1064.25 319.917 1064.02 319.552 1063.65 319.472C1063.28 319.391 1062.91 319.626 1062.83 319.995C1062.75 320.365 1062.99 320.73 1063.36 320.81C1063.72 320.89 1064.09 320.656 1064.17 320.286Z" fill="white"/>
<path d="M1043.86 239.395C1043.94 239.025 1043.71 238.661 1043.34 238.58C1042.97 238.5 1042.6 238.734 1042.52 239.104C1042.44 239.474 1042.68 239.838 1043.05 239.919C1043.42 239.999 1043.78 239.765 1043.86 239.395Z" fill="white"/>
<path d="M805.763 222.78C805.843 222.41 805.609 222.045 805.239 221.965C804.87 221.885 804.505 222.119 804.425 222.489C804.344 222.858 804.579 223.223 804.948 223.304C805.318 223.384 805.683 223.149 805.763 222.78Z" fill="white"/>
<path opacity="0.11" d="M922.498 522.96C922.578 522.59 922.343 522.226 921.974 522.145C921.604 522.065 921.24 522.3 921.159 522.669C921.079 523.039 921.313 523.404 921.683 523.484C922.053 523.564 922.417 523.33 922.498 522.96Z" fill="white"/>
<path opacity="0.11" d="M1056.25 472.924C1056.33 472.554 1056.09 472.19 1055.73 472.109C1055.36 472.029 1054.99 472.263 1054.91 472.633C1054.83 473.003 1055.06 473.367 1055.43 473.448C1055.8 473.528 1056.17 473.294 1056.25 472.924Z" fill="white"/>
<path opacity="0.11" d="M1077.51 342.835C1077.59 342.465 1077.35 342.101 1076.98 342.02C1076.61 341.94 1076.25 342.174 1076.17 342.544C1076.09 342.914 1076.32 343.279 1076.69 343.359C1077.06 343.439 1077.43 343.205 1077.51 342.835Z" fill="white"/>
<path d="M954.433 489.389C954.513 489.019 954.279 488.654 953.909 488.574C953.539 488.494 953.175 488.728 953.094 489.098C953.014 489.467 953.248 489.832 953.618 489.912C953.988 489.993 954.352 489.758 954.433 489.389Z" fill="white"/>
<path d="M975.524 385.92C975.604 385.55 975.37 385.186 975 385.105C974.631 385.025 974.266 385.259 974.186 385.629C974.105 385.999 974.34 386.363 974.709 386.444C975.079 386.524 975.444 386.29 975.524 385.92Z" fill="white"/>
<path d="M937.851 529.804C937.932 529.435 937.697 529.07 937.328 528.99C936.958 528.909 936.593 529.144 936.513 529.513C936.433 529.883 936.667 530.248 937.037 530.328C937.406 530.408 937.771 530.174 937.851 529.804Z" fill="white"/>
<path opacity="0.3" d="M927.657 576.705C927.738 576.336 927.503 575.971 927.134 575.891C926.764 575.81 926.399 576.045 926.319 576.414C926.238 576.784 926.473 577.149 926.843 577.229C927.212 577.309 927.577 577.075 927.657 576.705Z" fill="white"/>
<path opacity="0.3" d="M973.139 480.819C973.219 480.449 972.985 480.085 972.615 480.004C972.246 479.924 971.881 480.158 971.801 480.528C971.72 480.898 971.955 481.262 972.324 481.343C972.694 481.423 973.059 481.189 973.139 480.819Z" fill="white"/>
<path opacity="0.3" d="M923.484 370.96C923.564 370.59 923.33 370.226 922.96 370.145C922.591 370.065 922.226 370.3 922.145 370.669C922.065 371.039 922.3 371.404 922.669 371.484C923.039 371.564 923.404 371.33 923.484 370.96Z" fill="white"/>
<path opacity="0.3" d="M974.75 557.419C974.83 557.049 974.596 556.685 974.226 556.604C973.857 556.524 973.492 556.758 973.412 557.128C973.331 557.498 973.566 557.862 973.935 557.943C974.305 558.023 974.67 557.789 974.75 557.419Z" fill="white"/>
<path opacity="0.3" d="M1049.92 214.753C1050 214.383 1049.77 214.018 1049.4 213.938C1049.03 213.858 1048.66 214.092 1048.58 214.462C1048.5 214.831 1048.74 215.196 1049.11 215.277C1049.48 215.357 1049.84 215.122 1049.92 214.753Z" fill="white"/>
<path opacity="0.11" d="M999.001 316.648C999.081 316.279 998.847 315.914 998.477 315.833C998.107 315.753 997.743 315.988 997.662 316.357C997.582 316.727 997.816 317.092 998.186 317.172C998.556 317.252 998.92 317.018 999.001 316.648Z" fill="white"/>
<path opacity="0.11" d="M1074.8 239.103C1074.88 238.733 1074.64 238.368 1074.27 238.288C1073.9 238.207 1073.54 238.442 1073.46 238.812C1073.38 239.181 1073.61 239.546 1073.98 239.626C1074.35 239.707 1074.72 239.472 1074.8 239.103Z" fill="white"/>
<path opacity="0.3" d="M1043.98 409.924C1044.14 409.183 1043.67 408.453 1042.93 408.292C1042.19 408.131 1041.46 408.601 1041.3 409.341C1041.14 410.081 1041.61 410.812 1042.35 410.973C1043.09 411.134 1043.82 410.664 1043.98 409.924Z" fill="white"/>
<path opacity="0.11" d="M1032.48 366.022C1032.64 365.282 1032.17 364.551 1031.43 364.39C1030.69 364.229 1029.96 364.699 1029.8 365.439C1029.63 366.18 1030.1 366.91 1030.84 367.071C1031.59 367.232 1032.32 366.762 1032.48 366.022Z" fill="white"/>
<path d="M1008.96 361.258C1009.08 360.703 1008.72 360.156 1008.17 360.035C1007.61 359.914 1007.07 360.266 1006.95 360.821C1006.82 361.377 1007.18 361.924 1007.73 362.045C1008.29 362.166 1008.83 361.814 1008.96 361.258Z" fill="white"/>
<path d="M1069.26 422.779C1069.38 422.224 1069.02 421.676 1068.47 421.555C1067.91 421.435 1067.37 421.787 1067.25 422.342C1067.13 422.897 1067.48 423.445 1068.03 423.565C1068.59 423.686 1069.14 423.334 1069.26 422.779Z" fill="white"/>
<path d="M922.196 209.449C922.372 208.639 921.858 207.84 921.049 207.664C920.239 207.488 919.44 208.002 919.264 208.812C919.088 209.621 919.602 210.42 920.412 210.596C921.221 210.772 922.02 210.258 922.196 209.449Z" fill="white"/>
<path d="M979.229 240.442C979.349 239.887 978.997 239.339 978.442 239.218C977.887 239.098 977.339 239.45 977.218 240.005C977.098 240.56 977.45 241.108 978.005 241.228C978.56 241.349 979.108 240.997 979.229 240.442Z" fill="white"/>
<path d="M1037.28 271.175C1037.4 270.619 1037.05 270.072 1036.5 269.951C1035.94 269.83 1035.39 270.182 1035.27 270.738C1035.15 271.293 1035.5 271.84 1036.06 271.961C1036.61 272.082 1037.16 271.73 1037.28 271.175Z" fill="white"/>
<path d="M1015.37 396.328C1015.49 395.773 1015.13 395.225 1014.58 395.105C1014.02 394.984 1013.48 395.336 1013.36 395.891C1013.24 396.446 1013.59 396.994 1014.14 397.115C1014.7 397.236 1015.25 396.883 1015.37 396.328Z" fill="white"/>
<path d="M934.229 455.442C934.349 454.887 933.997 454.339 933.442 454.218C932.887 454.098 932.339 454.45 932.218 455.005C932.098 455.56 932.45 456.108 933.005 456.229C933.56 456.349 934.108 455.997 934.229 455.442Z" fill="white"/>
<path d="M1105.12 361.111C1105.24 360.556 1104.88 360.008 1104.33 359.888C1103.77 359.767 1103.23 360.119 1103.1 360.674C1102.98 361.229 1103.34 361.777 1103.89 361.898C1104.45 362.019 1104.99 361.666 1105.12 361.111Z" fill="white"/>
<path d="M1025.42 225.346C1025.54 224.79 1025.19 224.243 1024.63 224.122C1024.08 224.001 1023.53 224.354 1023.41 224.909C1023.29 225.464 1023.64 226.012 1024.19 226.132C1024.75 226.253 1025.3 225.901 1025.42 225.346Z" fill="white"/>
<path d="M959.744 156.546C959.865 155.99 959.513 155.443 958.958 155.322C958.403 155.201 957.855 155.553 957.734 156.109C957.613 156.664 957.966 157.211 958.521 157.332C959.076 157.453 959.624 157.101 959.744 156.546Z" fill="white"/>
<path opacity="0.3" d="M1021.64 306.126C1021.8 305.386 1021.33 304.655 1020.59 304.495C1019.85 304.334 1019.12 304.803 1018.96 305.544C1018.8 306.284 1019.27 307.015 1020.01 307.176C1020.75 307.336 1021.48 306.867 1021.64 306.126Z" fill="white"/>
<path d="M974.071 295.79C974.232 295.05 973.762 294.319 973.022 294.158C972.281 293.997 971.551 294.467 971.39 295.207C971.229 295.948 971.699 296.678 972.439 296.839C973.179 297 973.91 296.53 974.071 295.79Z" fill="white"/>
<path d="M974.071 295.79C974.232 295.05 973.762 294.319 973.022 294.158C972.281 293.997 971.551 294.467 971.39 295.207C971.229 295.948 971.699 296.678 972.439 296.839C973.179 297 973.91 296.53 974.071 295.79Z" fill="white"/>
<path d="M1043.88 274.827C1044 274.272 1043.65 273.724 1043.1 273.604C1042.54 273.483 1041.99 273.835 1041.87 274.39C1041.75 274.945 1042.1 275.493 1042.66 275.614C1043.21 275.735 1043.76 275.382 1043.88 274.827Z" fill="white"/>
<path opacity="0.3" d="M1024.82 236.652C1024.98 235.911 1024.51 235.181 1023.77 235.02C1023.03 234.859 1022.3 235.329 1022.14 236.069C1021.98 236.809 1022.45 237.54 1023.19 237.701C1023.93 237.862 1024.66 237.392 1024.82 236.652Z" fill="white"/>
<path opacity="0.5" d="M1031.37 188.3C1031.53 187.559 1031.06 186.829 1030.32 186.668C1029.58 186.507 1028.85 186.976 1028.69 187.717C1028.53 188.457 1029 189.188 1029.74 189.349C1030.48 189.51 1031.21 189.04 1031.37 188.3Z" fill="white"/>
<path opacity="0.3" d="M1071.1 259.345C1071.26 258.604 1070.79 257.874 1070.05 257.713C1069.31 257.552 1068.58 258.021 1068.42 258.762C1068.26 259.502 1068.73 260.233 1069.47 260.394C1070.21 260.555 1070.94 260.085 1071.1 259.345Z" fill="white"/>
<path opacity="0.3" d="M907.972 524.923C908.133 524.183 907.664 523.452 906.923 523.291C906.183 523.13 905.452 523.6 905.291 524.34C905.13 525.081 905.6 525.811 906.34 525.972C907.081 526.133 907.811 525.664 907.972 524.923Z" fill="white"/>
<path opacity="0.3" d="M1023.97 546.923C1024.13 546.183 1023.66 545.452 1022.92 545.291C1022.18 545.13 1021.45 545.6 1021.29 546.34C1021.13 547.081 1021.6 547.811 1022.34 547.972C1023.08 548.133 1023.81 547.664 1023.97 546.923Z" fill="white"/>
<path opacity="0.11" d="M1060.73 203.765C1060.9 203.024 1060.43 202.294 1059.69 202.133C1058.94 201.972 1058.21 202.441 1058.05 203.182C1057.89 203.922 1058.36 204.653 1059.1 204.814C1059.84 204.975 1060.57 204.505 1060.73 203.765Z" fill="white"/>
<path opacity="0.3" d="M879.972 573.354C880.133 572.614 879.664 571.883 878.923 571.722C878.183 571.561 877.452 572.031 877.291 572.771C877.13 573.512 877.6 574.242 878.34 574.403C879.081 574.564 879.811 574.094 879.972 573.354Z" fill="white"/>
<path opacity="0.3" d="M936.972 556.923C937.133 556.183 936.664 555.452 935.923 555.291C935.183 555.13 934.452 555.6 934.291 556.34C934.13 557.081 934.6 557.811 935.34 557.972C936.081 558.133 936.811 557.664 936.972 556.923Z" fill="white"/>
<path d="M912.786 561.194C912.907 560.639 912.555 560.091 911.999 559.971C911.444 559.85 910.897 560.202 910.776 560.757C910.655 561.312 911.007 561.86 911.562 561.981C912.118 562.101 912.665 561.749 912.786 561.194Z" fill="white"/>
<path opacity="0.11" d="M852.493 182.477C852.654 181.736 852.184 181.006 851.444 180.845C850.703 180.684 849.973 181.154 849.812 181.894C849.651 182.634 850.121 183.365 850.861 183.526C851.601 183.687 852.332 183.217 852.493 182.477Z" fill="white"/>
<path d="M860.808 179.727C860.929 179.172 860.577 178.624 860.021 178.504C859.466 178.383 858.919 178.735 858.798 179.29C858.677 179.846 859.029 180.393 859.584 180.514C860.14 180.635 860.687 180.283 860.808 179.727Z" fill="white"/>
<path d="M851.548 154.557C851.669 154.002 851.317 153.454 850.761 153.333C850.206 153.213 849.658 153.565 849.538 154.12C849.417 154.675 849.769 155.223 850.324 155.343C850.88 155.464 851.427 155.112 851.548 154.557Z" fill="white"/>
<path d="M837.824 211.216C837.945 210.66 837.592 210.113 837.037 209.992C836.482 209.871 835.934 210.223 835.814 210.779C835.693 211.334 836.045 211.882 836.6 212.002C837.155 212.123 837.703 211.771 837.824 211.216Z" fill="white"/>
<path opacity="0.11" d="M846.693 247.878C846.854 247.137 846.384 246.407 845.644 246.246C844.904 246.085 844.173 246.555 844.012 247.295C843.851 248.035 844.321 248.766 845.061 248.927C845.802 249.088 846.532 248.618 846.693 247.878Z" fill="white"/>
<path d="M829.188 257.401C829.268 257.031 829.033 256.666 828.664 256.586C828.294 256.506 827.929 256.74 827.849 257.11C827.769 257.48 828.003 257.844 828.373 257.925C828.742 258.005 829.107 257.771 829.188 257.401Z" fill="white"/>
<path d="M878.181 190.172C878.262 189.803 878.027 189.438 877.658 189.358C877.288 189.277 876.923 189.512 876.843 189.882C876.762 190.251 876.997 190.616 877.367 190.696C877.736 190.777 878.101 190.542 878.181 190.172Z" fill="white"/>
<path d="M909.938 44.1124C910.018 43.7428 909.784 43.378 909.414 43.2977C909.044 43.2173 908.68 43.4518 908.599 43.8215C908.519 44.1911 908.753 44.5559 909.123 44.6362C909.493 44.7166 909.858 44.4821 909.938 44.1124Z" fill="white"/>
<path d="M933.25 15.5099C933.426 14.7004 932.913 13.9015 932.103 13.7255C931.293 13.5495 930.495 14.0631 930.319 14.8726C930.143 15.6821 930.656 16.481 931.466 16.657C932.275 16.833 933.074 16.3194 933.25 15.5099Z" fill="white"/>
<path d="M812.931 409.637C813.011 409.267 812.777 408.902 812.407 408.822C812.038 408.742 811.673 408.976 811.593 409.346C811.512 409.716 811.747 410.08 812.116 410.161C812.486 410.241 812.851 410.006 812.931 409.637Z" fill="white"/>
<path opacity="0.11" d="M774.569 411.817C774.649 411.448 774.415 411.083 774.045 411.003C773.676 410.922 773.311 411.157 773.23 411.526C773.15 411.896 773.385 412.261 773.754 412.341C774.124 412.421 774.489 412.187 774.569 411.817Z" fill="white"/>
<path opacity="0.11" d="M783.717 443.975C783.797 443.605 783.563 443.24 783.193 443.16C782.824 443.08 782.459 443.314 782.379 443.684C782.298 444.054 782.533 444.418 782.902 444.499C783.272 444.579 783.637 444.344 783.717 443.975Z" fill="white"/>
<path opacity="0.11" d="M828.723 430.606C828.804 430.236 828.569 429.871 828.199 429.791C827.83 429.711 827.465 429.945 827.385 430.315C827.304 430.685 827.539 431.049 827.909 431.13C828.278 431.21 828.643 430.975 828.723 430.606Z" fill="white"/>
<path opacity="0.11" d="M836.582 265.326C836.663 264.957 836.428 264.592 836.059 264.512C835.689 264.431 835.324 264.666 835.244 265.035C835.164 265.405 835.398 265.77 835.768 265.85C836.137 265.93 836.502 265.696 836.582 265.326Z" fill="white"/>
<path opacity="0.11" d="M902.015 196.75C902.096 196.38 901.861 196.015 901.492 195.935C901.122 195.854 900.757 196.089 900.677 196.459C900.597 196.828 900.831 197.193 901.201 197.273C901.57 197.354 901.935 197.119 902.015 196.75Z" fill="white"/>
<path opacity="0.11" d="M923.276 66.6589C923.356 66.2893 923.121 65.9245 922.752 65.8442C922.382 65.7638 922.017 65.9983 921.937 66.368C921.857 66.7376 922.091 67.1024 922.461 67.1827C922.83 67.2631 923.195 67.0286 923.276 66.6589Z" fill="white"/>
<path opacity="0.3" d="M802.882 375.174C802.963 374.804 802.728 374.439 802.358 374.359C801.989 374.279 801.624 374.513 801.544 374.883C801.463 375.252 801.698 375.617 802.067 375.697C802.437 375.778 802.802 375.543 802.882 375.174Z" fill="white"/>
<path d="M941.278 322.253C941.359 321.883 941.124 321.518 940.755 321.438C940.385 321.357 940.02 321.592 939.94 321.962C939.86 322.331 940.094 322.696 940.464 322.776C940.833 322.857 941.198 322.622 941.278 322.253Z" fill="white"/>
<path d="M821.291 109.744C821.371 109.375 821.137 109.01 820.767 108.93C820.398 108.849 820.033 109.084 819.953 109.453C819.872 109.823 820.107 110.188 820.476 110.268C820.846 110.348 821.211 110.114 821.291 109.744Z" fill="white"/>
<path d="M851.937 272.172C852.017 271.802 851.783 271.437 851.413 271.357C851.043 271.276 850.679 271.511 850.598 271.881C850.518 272.25 850.752 272.615 851.122 272.695C851.492 272.776 851.857 272.541 851.937 272.172Z" fill="white"/>
<path opacity="0.3" d="M841.741 319.072C841.821 318.702 841.587 318.337 841.217 318.257C840.848 318.177 840.483 318.411 840.403 318.781C840.322 319.15 840.557 319.515 840.926 319.595C841.296 319.676 841.661 319.441 841.741 319.072Z" fill="white"/>
<path opacity="0.11" d="M788.262 364.974C788.342 364.605 788.108 364.24 787.738 364.16C787.368 364.079 787.004 364.314 786.923 364.683C786.843 365.053 787.077 365.418 787.447 365.498C787.817 365.578 788.181 365.344 788.262 364.974Z" fill="white"/>
<path opacity="0.3" d="M818.906 204.643C818.986 204.273 818.751 203.909 818.382 203.828C818.012 203.748 817.647 203.982 817.567 204.352C817.487 204.722 817.721 205.086 818.091 205.167C818.461 205.247 818.825 205.013 818.906 204.643Z" fill="white"/>
<path opacity="0.3" d="M867.145 263.546C867.226 263.176 866.991 262.811 866.622 262.731C866.252 262.65 865.887 262.885 865.807 263.255C865.727 263.624 865.961 263.989 866.331 264.069C866.7 264.15 867.065 263.915 867.145 263.546Z" fill="white"/>
<path opacity="0.3" d="M856.219 346.073C856.299 345.703 856.065 345.338 855.695 345.258C855.326 345.178 854.961 345.412 854.881 345.782C854.8 346.151 855.035 346.516 855.404 346.596C855.774 346.677 856.139 346.442 856.219 346.073Z" fill="white"/>
<path opacity="0.3" d="M807.11 355.743C807.191 355.373 806.956 355.009 806.586 354.928C806.217 354.848 805.852 355.082 805.772 355.452C805.691 355.822 805.926 356.186 806.295 356.267C806.665 356.347 807.03 356.113 807.11 355.743Z" fill="white"/>
<path opacity="0.11" d="M844.77 40.4739C844.85 40.1043 844.616 39.7395 844.246 39.6591C843.877 39.5788 843.512 39.8133 843.432 40.1829C843.351 40.5525 843.586 40.9173 843.955 40.9977C844.325 41.078 844.69 40.8435 844.77 40.4739Z" fill="white"/>
<path opacity="0.3" d="M910.25 104.103C910.426 103.293 909.913 102.494 909.103 102.319C908.294 102.143 907.495 102.656 907.319 103.466C907.143 104.275 907.656 105.074 908.466 105.25C909.275 105.426 910.074 104.912 910.25 104.103Z" fill="white"/>
<path opacity="0.11" d="M878.244 89.8476C878.405 89.1073 877.935 88.3767 877.195 88.2158C876.454 88.0548 875.724 88.5245 875.563 89.2648C875.402 90.0052 875.872 90.7358 876.612 90.8968C877.352 91.0577 878.083 90.588 878.244 89.8476Z" fill="white"/>
<path d="M854.723 85.0825C854.844 84.5274 854.492 83.9796 853.936 83.8589C853.381 83.7383 852.834 84.0904 852.713 84.6455C852.592 85.2006 852.944 85.7485 853.499 85.8691C854.055 85.9898 854.602 85.6376 854.723 85.0825Z" fill="white"/>
<path d="M915.023 146.603C915.144 146.048 914.791 145.5 914.236 145.379C913.681 145.258 913.133 145.611 913.013 146.166C912.892 146.721 913.244 147.269 913.799 147.389C914.354 147.51 914.902 147.158 915.023 146.603Z" fill="white"/>
<path d="M870.857 359.431C870.978 358.876 870.626 358.328 870.071 358.207C869.516 358.087 868.968 358.439 868.847 358.994C868.726 359.549 869.079 360.097 869.634 360.218C870.189 360.338 870.737 359.986 870.857 359.431Z" fill="white"/>
<path d="M836.08 445.183C836.201 444.628 835.849 444.081 835.294 443.96C834.739 443.839 834.191 444.191 834.07 444.747C833.95 445.302 834.302 445.849 834.857 445.97C835.412 446.091 835.96 445.739 836.08 445.183Z" fill="white"/>
<path d="M806.804 450.749C806.924 450.194 806.572 449.646 806.017 449.525C805.462 449.405 804.914 449.757 804.793 450.312C804.673 450.867 805.025 451.415 805.58 451.536C806.135 451.656 806.683 451.304 806.804 450.749Z" fill="white"/>
<path d="M861.134 120.153C861.255 119.598 860.902 119.05 860.347 118.93C859.792 118.809 859.244 119.161 859.124 119.716C859.003 120.271 859.355 120.819 859.91 120.94C860.465 121.061 861.013 120.708 861.134 120.153Z" fill="white"/>
<path d="M885.367 247.51C885.488 246.954 885.135 246.407 884.58 246.286C884.025 246.165 883.477 246.517 883.357 247.073C883.236 247.628 883.588 248.175 884.143 248.296C884.698 248.417 885.246 248.065 885.367 247.51Z" fill="white"/>
<path d="M950.881 84.9359C951.002 84.3808 950.65 83.833 950.095 83.7124C949.54 83.5917 948.992 83.9438 948.871 84.4989C948.75 85.054 949.103 85.6019 949.658 85.7225C950.213 85.8432 950.761 85.491 950.881 84.9359Z" fill="white"/>
<path opacity="0.3" d="M867.41 29.9508C867.571 29.2105 867.101 28.4798 866.361 28.3189C865.62 28.158 864.89 28.6277 864.729 29.368C864.568 30.1084 865.037 30.839 865.778 30.9999C866.518 31.1608 867.249 30.6912 867.41 29.9508Z" fill="white"/>
<path opacity="0.3" d="M844.657 370.218C844.818 369.478 844.348 368.747 843.608 368.586C842.868 368.425 842.137 368.895 841.976 369.635C841.815 370.376 842.285 371.106 843.025 371.267C843.766 371.428 844.496 370.958 844.657 370.218Z" fill="white"/>
<path opacity="0.3" d="M796.008 416.483C796.168 415.743 795.699 415.012 794.958 414.851C794.218 414.69 793.487 415.16 793.327 415.9C793.166 416.641 793.635 417.371 794.376 417.532C795.116 417.693 795.847 417.224 796.008 416.483Z" fill="white"/>
<path opacity="0.3" d="M794.057 315.722C794.218 314.982 793.749 314.251 793.008 314.091C792.268 313.93 791.537 314.399 791.376 315.14C791.215 315.88 791.685 316.611 792.425 316.772C793.166 316.932 793.896 316.463 794.057 315.722Z" fill="white"/>
<path opacity="0.11" d="M776.724 330.898C776.885 330.158 776.415 329.427 775.675 329.266C774.934 329.105 774.204 329.575 774.043 330.315C773.882 331.055 774.351 331.786 775.092 331.947C775.832 332.108 776.563 331.638 776.724 330.898Z" fill="white"/>
<path opacity="0.3" d="M818.441 345.576C818.602 344.836 818.133 344.105 817.392 343.944C816.652 343.783 815.921 344.253 815.76 344.993C815.599 345.733 816.069 346.464 816.81 346.625C817.55 346.786 818.28 346.316 818.441 345.576Z" fill="white"/>
<path d="M826.871 303.56C826.992 303.005 826.639 302.458 826.084 302.337C825.529 302.216 824.981 302.568 824.861 303.123C824.74 303.679 825.092 304.226 825.647 304.347C826.202 304.468 826.75 304.116 826.871 303.56Z" fill="white"/>
<path d="M994.493 80.1567C994.573 79.7871 994.338 79.4224 993.969 79.342C993.599 79.2617 993.234 79.4962 993.154 79.8658C993.074 80.2354 993.308 80.6002 993.678 80.6805C994.047 80.7609 994.412 80.5264 994.493 80.1567Z" fill="white"/>
<path opacity="0.11" d="M956.132 82.3366C956.212 81.9669 955.978 81.6022 955.608 81.5218C955.238 81.4415 954.874 81.676 954.793 82.0456C954.713 82.4152 954.947 82.78 955.317 82.8603C955.687 82.9407 956.051 82.7062 956.132 82.3366Z" fill="white"/>
<path opacity="0.11" d="M965.281 114.494C965.361 114.124 965.126 113.759 964.757 113.679C964.387 113.598 964.022 113.833 963.942 114.203C963.862 114.572 964.096 114.937 964.466 115.017C964.836 115.098 965.2 114.863 965.281 114.494Z" fill="white"/>
<path opacity="0.11" d="M1010.29 101.125C1010.37 100.755 1010.13 100.39 1009.76 100.31C1009.39 100.229 1009.03 100.464 1008.95 100.834C1008.87 101.203 1009.1 101.568 1009.47 101.648C1009.84 101.729 1010.21 101.494 1010.29 101.125Z" fill="white"/>
<path opacity="0.3" d="M984.445 45.6921C984.525 45.3225 984.291 44.9578 983.921 44.8774C983.551 44.7971 983.187 45.0316 983.106 45.4012C983.026 45.7708 983.26 46.1356 983.63 46.2159C984 46.2963 984.364 46.0618 984.445 45.6921Z" fill="white"/>
<path opacity="0.11" d="M969.825 35.4927C969.905 35.1231 969.671 34.7583 969.301 34.6779C968.931 34.5976 968.567 34.8321 968.486 35.2017C968.406 35.5713 968.64 35.9361 969.01 36.0165C969.38 36.0968 969.744 35.8623 969.825 35.4927Z" fill="white"/>
<path opacity="0.3" d="M1037.78 16.5918C1037.86 16.2222 1037.63 15.8574 1037.26 15.7771C1036.89 15.6967 1036.52 15.9312 1036.44 16.3008C1036.36 16.6704 1036.6 17.0352 1036.97 17.1156C1037.34 17.1959 1037.7 16.9614 1037.78 16.5918Z" fill="white"/>
<path opacity="0.3" d="M988.672 26.2623C988.753 25.8927 988.518 25.528 988.149 25.4476C987.779 25.3673 987.414 25.6017 987.334 25.9714C987.254 26.341 987.488 26.7058 987.858 26.7861C988.227 26.8665 988.592 26.632 988.672 26.2623Z" fill="white"/>
<path d="M1052.42 29.9499C1052.54 29.3948 1052.19 28.847 1051.63 28.7263C1051.08 28.6056 1050.53 28.9578 1050.41 29.5129C1050.29 30.068 1050.64 30.6158 1051.2 30.7364C1051.75 30.8571 1052.3 30.505 1052.42 29.9499Z" fill="white"/>
<path d="M1017.64 115.703C1017.76 115.148 1017.41 114.6 1016.86 114.479C1016.3 114.358 1015.75 114.711 1015.63 115.266C1015.51 115.821 1015.86 116.369 1016.42 116.489C1016.97 116.61 1017.52 116.258 1017.64 115.703Z" fill="white"/>
<path d="M988.367 121.268C988.488 120.713 988.136 120.165 987.581 120.044C987.026 119.924 986.478 120.276 986.357 120.831C986.236 121.386 986.589 121.934 987.144 122.054C987.699 122.175 988.247 121.823 988.367 121.268Z" fill="white"/>
<path d="M988.367 189.903C988.488 189.348 988.136 188.8 987.581 188.68C987.026 188.559 986.478 188.911 986.357 189.466C986.236 190.021 986.589 190.569 987.144 190.69C987.699 190.81 988.247 190.458 988.367 189.903Z" fill="white"/>
<path d="M873.229 8.44189C873.349 7.8868 872.997 7.33897 872.442 7.2183C871.887 7.09763 871.339 7.44982 871.218 8.00491C871.098 8.56 871.45 9.10783 872.005 9.2285C872.56 9.34917 873.108 8.99698 873.229 8.44189Z" fill="white"/>
<path opacity="0.3" d="M1026.22 40.7369C1026.38 39.9966 1025.91 39.266 1025.17 39.105C1024.43 38.9441 1023.7 39.4138 1023.54 40.1541C1023.38 40.8944 1023.85 41.6251 1024.59 41.786C1025.33 41.947 1026.06 41.4773 1026.22 40.7369Z" fill="white"/>
<path opacity="0.3" d="M977.571 87.0021C977.732 86.2617 977.262 85.5311 976.522 85.3702C975.781 85.2092 975.051 85.6789 974.89 86.4193C974.729 87.1596 975.199 87.8902 975.939 88.0512C976.679 88.2121 977.41 87.7424 977.571 87.0021Z" fill="white"/>
<path opacity="0.11" d="M958.288 1.41758C958.449 0.677249 957.979 -0.0533634 957.239 -0.214302C956.499 -0.37524 955.768 0.0944431 955.607 0.834778C955.446 1.57511 955.916 2.30576 956.656 2.46669C957.396 2.62763 958.127 2.15792 958.288 1.41758Z" fill="white"/>
<path d="M1000 16.0946C1000.16 15.3542 999.695 14.6236 998.954 14.4627C998.214 14.3018 997.483 14.7714 997.322 15.5118C997.161 16.2521 997.631 16.9828 998.371 17.1437C999.112 17.3046 999.842 16.8349 1000 16.0946Z" fill="white"/>
<path d="M889.484 715.96C889.564 715.59 889.33 715.226 888.96 715.145C888.591 715.065 888.226 715.3 888.145 715.669C888.065 716.039 888.3 716.404 888.669 716.484C889.039 716.564 889.404 716.33 889.484 715.96Z" fill="white"/>
<path opacity="0.11" d="M928.801 719.992C928.882 719.623 928.647 719.258 928.278 719.178C927.908 719.097 927.543 719.332 927.463 719.701C927.383 720.071 927.617 720.436 927.987 720.516C928.356 720.597 928.721 720.362 928.801 719.992Z" fill="white"/>
<path opacity="0.11" d="M937.951 752.149C938.031 751.78 937.797 751.415 937.427 751.335C937.057 751.254 936.693 751.489 936.612 751.858C936.532 752.228 936.766 752.593 937.136 752.673C937.506 752.753 937.87 752.519 937.951 752.149Z" fill="white"/>
<path opacity="0.11" d="M982.956 738.781C983.036 738.411 982.802 738.046 982.432 737.966C982.063 737.885 981.698 738.12 981.617 738.49C981.537 738.859 981.772 739.224 982.141 739.304C982.511 739.385 982.876 739.15 982.956 738.781Z" fill="white"/>
<path opacity="0.3" d="M957.115 683.349C957.195 682.979 956.961 682.614 956.591 682.534C956.222 682.454 955.857 682.688 955.777 683.058C955.696 683.427 955.931 683.792 956.3 683.872C956.67 683.953 957.035 683.718 957.115 683.349Z" fill="white"/>
<path opacity="0.11" d="M942.495 673.149C942.575 672.779 942.34 672.414 941.971 672.334C941.601 672.254 941.236 672.488 941.156 672.858C941.076 673.227 941.31 673.592 941.68 673.672C942.049 673.753 942.414 673.518 942.495 673.149Z" fill="white"/>
<path opacity="0.3" d="M961.343 663.918C961.423 663.548 961.189 663.183 960.819 663.103C960.449 663.023 960.084 663.257 960.004 663.627C959.924 663.996 960.158 664.361 960.528 664.442C960.898 664.522 961.262 664.287 961.343 663.918Z" fill="white"/>
<path d="M960.229 589.442C960.349 588.887 959.997 588.339 959.442 588.218C958.887 588.098 958.339 588.45 958.218 589.005C958.098 589.56 958.45 590.108 959.005 590.228C959.56 590.349 960.108 589.997 960.229 589.442Z" fill="white"/>
<path d="M962.229 673.442C962.349 672.887 961.997 672.339 961.442 672.218C960.887 672.098 960.339 672.45 960.218 673.005C960.098 673.56 960.45 674.108 961.005 674.228C961.56 674.349 962.108 673.997 962.229 673.442Z" fill="white"/>
<path d="M992.229 619.442C992.349 618.887 991.997 618.339 991.442 618.218C990.887 618.098 990.339 618.45 990.218 619.005C990.098 619.56 990.45 620.108 991.005 620.228C991.56 620.349 992.108 619.997 992.229 619.442Z" fill="white"/>
<path d="M943.229 628.442C943.349 627.887 942.997 627.339 942.442 627.218C941.887 627.098 941.339 627.45 941.218 628.005C941.098 628.56 941.45 629.108 942.005 629.229C942.56 629.349 943.108 628.997 943.229 628.442Z" fill="white"/>
<path opacity="0.11" d="M930.958 639.073C931.119 638.333 930.649 637.602 929.909 637.441C929.169 637.28 928.438 637.75 928.277 638.49C928.116 639.231 928.586 639.961 929.326 640.122C930.066 640.283 930.797 639.813 930.958 639.073Z" fill="white"/>
</g>
<circle cx="683.713" cy="518.457" r="1" fill="white"/>
<circle cx="306.713" cy="195.456" r="1" fill="white"/>
<ellipse cx="151.713" cy="264.456" rx="1" ry="2" fill="white"/>
<ellipse opacity="0.3" cx="402.75" cy="292" rx="0.75" ry="2" fill="white"/>
<ellipse opacity="0.3" cx="1869.75" cy="579" rx="0.75" ry="2" fill="white"/>
<ellipse opacity="0.44" cx="1591.71" cy="551.457" rx="1" ry="2" fill="white"/>
<ellipse opacity="0.3" cx="1593.71" cy="377.456" rx="1" ry="2" fill="white"/>
<circle opacity="0.2" cx="1669.46" cy="684.104" r="1.90198" fill="white"/>
<ellipse opacity="0.44" cx="1803.71" cy="733.457" rx="1" ry="2" fill="white"/>
<circle opacity="0.6" cx="1472.71" cy="541.457" r="1" fill="white"/>
<circle cx="1729.71" cy="604.457" r="1" fill="white"/>
<circle opacity="0.44" cx="1404.61" cy="327.358" r="1.90198" fill="white"/>
<ellipse cx="1435.71" cy="545.456" rx="1" ry="2" fill="white"/>
<circle cx="1758.62" cy="179.358" r="1.90198" fill="white"/>
<circle opacity="0.8" cx="355.902" cy="420.902" r="1.90198" fill="white"/>
<circle opacity="0.5" cx="460.902" cy="141.902" r="1.90198" fill="white"/>
<ellipse opacity="0.5" cx="96" cy="381" rx="1" ry="2" fill="white"/>
<ellipse opacity="0.6" cx="519" cy="334" rx="1" ry="2" fill="white"/>
<ellipse opacity="0.6" cx="1580" cy="167" rx="1" ry="2" fill="white"/>
<ellipse opacity="0.5" cx="306" cy="978" rx="1" ry="2" fill="white"/>
<path opacity="0.44" d="M1642.71 402.456C1642.71 403.008 1642.27 403.456 1641.71 403.456C1641.16 403.456 1640.71 403.008 1640.71 402.456C1640.71 401.904 1641.16 401.456 1641.71 401.456C1642.27 401.456 1642.71 401.904 1642.71 402.456Z" fill="white"/>
<path opacity="0.44" d="M198 428C198 428.552 197.552 429 197 429C196.448 429 196 428.552 196 428C196 427.448 196.448 427 197 427C197.552 427 198 427.448 198 428Z" fill="white"/>
<circle cx="1265.71" cy="488.456" r="1" fill="white"/>
<circle opacity="0.5" cx="1802.62" cy="302.358" r="1.90198" fill="white"/>
<ellipse opacity="0.4" cx="472.713" cy="636.456" rx="2" ry="1" fill="white"/>
<ellipse opacity="0.4" cx="198.713" cy="866.457" rx="1" ry="2" fill="white"/>
</svg>
