<svg width="43" height="43" viewBox="0 0 43 43" fill="none" xmlns="http://www.w3.org/2000/svg">
<circle cx="21.5" cy="21.5" r="21.5" fill="url(#paint0_linear_2013_43052)"/>
<path d="M14.5483 31.0586C14.1733 31.0586 13.8374 30.9688 13.5405 30.7891C13.2436 30.6094 13.0093 30.3525 12.8374 30.0186C12.6655 29.6826 12.5796 29.2832 12.5796 28.8203C12.5796 28.3535 12.6655 27.9531 12.8374 27.6191C13.0093 27.2832 13.2436 27.0254 13.5405 26.8457C13.8374 26.666 14.1733 26.5762 14.5483 26.5762C14.9272 26.5762 15.2641 26.666 15.5591 26.8457C15.854 27.0254 16.0864 27.2832 16.2563 27.6191C16.4282 27.9531 16.5141 28.3535 16.5141 28.8203C16.5141 29.2852 16.4282 29.6846 16.2563 30.0186C16.0864 30.3525 15.854 30.6094 15.5591 30.7891C15.2641 30.9688 14.9272 31.0586 14.5483 31.0586ZM14.5483 30.458C14.8003 30.458 15.0249 30.3955 15.2221 30.2705C15.4194 30.1455 15.5747 29.9609 15.688 29.7168C15.8032 29.4727 15.8608 29.1738 15.8608 28.8203C15.8608 28.4648 15.8032 28.165 15.688 27.9209C15.5747 27.6748 15.4194 27.4893 15.2221 27.3643C15.0249 27.2393 14.8003 27.1768 14.5483 27.1768C14.2983 27.1768 14.0737 27.2393 13.8745 27.3643C13.6772 27.4893 13.521 27.6748 13.4057 27.9209C13.2905 28.165 13.2329 28.4648 13.2329 28.8203C13.2329 29.1738 13.2905 29.4727 13.4057 29.7168C13.521 29.9609 13.6772 30.1455 13.8745 30.2705C14.0737 30.3955 14.2983 30.458 14.5483 30.458ZM18.5981 27.7246V28.2373H16.811V27.7246H18.5981ZM17.2886 26.9453H17.9243V30.0391C17.9243 30.1895 17.9556 30.2998 18.0181 30.3701C18.0806 30.4385 18.1811 30.4727 18.3198 30.4727C18.353 30.4727 18.3882 30.4707 18.4253 30.4668C18.4643 30.4629 18.5034 30.457 18.5425 30.4492L18.6626 30.9766C18.5981 30.998 18.5278 31.0146 18.4516 31.0264C18.3755 31.0381 18.2993 31.0439 18.2231 31.0439C17.9399 31.0439 17.7134 30.9648 17.5434 30.8066C17.3735 30.6465 17.2886 30.4336 17.2886 30.168V26.9453ZM19.8003 29.0576V31H19.1675V26.6348H19.7915V28.2637H19.8354C19.9116 28.0859 20.0278 27.9453 20.1841 27.8418C20.3423 27.7363 20.5483 27.6836 20.8022 27.6836C21.0269 27.6836 21.2231 27.7295 21.3911 27.8213C21.5591 27.9131 21.6899 28.0508 21.7837 28.2344C21.8794 28.418 21.9272 28.6465 21.9272 28.9199V31H21.2886V28.9961C21.2886 28.7539 21.2261 28.5664 21.1011 28.4336C20.978 28.3008 20.8061 28.2344 20.5854 28.2344C20.4331 28.2344 20.2983 28.2676 20.1811 28.334C20.064 28.3984 19.9712 28.4912 19.9028 28.6123C19.8345 28.7334 19.8003 28.8818 19.8003 29.0576ZM23.9878 31.0674C23.6675 31.0674 23.3901 30.998 23.1558 30.8594C22.9214 30.7207 22.7407 30.5254 22.6138 30.2734C22.4888 30.0195 22.4263 29.7236 22.4263 29.3857C22.4263 29.0498 22.4878 28.7539 22.6108 28.498C22.7358 28.2422 22.9106 28.043 23.1353 27.9004C23.3618 27.7559 23.6274 27.6836 23.9321 27.6836C24.1177 27.6836 24.2974 27.7139 24.4712 27.7744C24.645 27.835 24.8013 27.9307 24.9399 28.0615C25.0786 28.1924 25.188 28.3623 25.2681 28.5713C25.3501 28.7803 25.3911 29.0322 25.3911 29.3271V29.5557H22.7866V29.0781H25.063L24.7671 29.2363C24.7671 29.0352 24.7358 28.8574 24.6733 28.7031C24.6108 28.5488 24.5171 28.4287 24.3921 28.3428C24.269 28.2549 24.1157 28.2109 23.9321 28.2109C23.7485 28.2109 23.5913 28.2549 23.4605 28.3428C23.3315 28.4307 23.2329 28.5469 23.1646 28.6914C23.0962 28.8359 23.062 28.9941 23.062 29.166V29.4912C23.062 29.7158 23.1011 29.9062 23.1792 30.0625C23.2573 30.2188 23.3657 30.3379 23.5044 30.4199C23.645 30.502 23.8081 30.543 23.9937 30.543C24.1148 30.543 24.2241 30.5254 24.3218 30.4902C24.4214 30.4551 24.5073 30.4023 24.5796 30.332C24.6519 30.2617 24.7065 30.1748 24.7437 30.0713L25.3472 30.1855C25.2983 30.3613 25.2124 30.5156 25.0894 30.6484C24.9663 30.7812 24.811 30.8848 24.6235 30.959C24.438 31.0312 24.2261 31.0674 23.9878 31.0674ZM25.8784 31V27.7246H26.4907V28.249H26.5259C26.5864 28.0732 26.6919 27.9346 26.8423 27.833C26.9946 27.7295 27.1665 27.6777 27.3579 27.6777C27.397 27.6777 27.4429 27.6797 27.4956 27.6836C27.5503 27.6855 27.5943 27.6885 27.6275 27.6924V28.3018C27.6021 28.2939 27.5562 28.2861 27.4898 28.2783C27.4253 28.2705 27.3599 28.2666 27.2935 28.2666C27.1431 28.2666 27.0083 28.2988 26.8892 28.3633C26.772 28.4258 26.6792 28.5127 26.6109 28.624C26.5444 28.7334 26.5112 28.8604 26.5112 29.0049V31H25.8784ZM30.4263 28.5273L29.8491 28.627C29.812 28.5176 29.7427 28.417 29.6411 28.3252C29.5415 28.2334 29.3921 28.1875 29.1929 28.1875C29.0132 28.1875 28.8628 28.2285 28.7417 28.3105C28.6226 28.3906 28.563 28.4932 28.563 28.6182C28.563 28.7275 28.603 28.8164 28.6831 28.8848C28.7652 28.9531 28.895 29.0078 29.0728 29.0488L29.5972 29.166C29.896 29.2344 30.1196 29.3418 30.2681 29.4883C30.4165 29.6348 30.4907 29.8223 30.4907 30.0508C30.4907 30.248 30.4341 30.4238 30.3208 30.5781C30.2075 30.7305 30.0503 30.8506 29.8491 30.9385C29.648 31.0244 29.4155 31.0674 29.1519 31.0674C28.7847 31.0674 28.4859 30.9883 28.2554 30.8301C28.0249 30.6719 27.8833 30.4492 27.8306 30.1621L28.4429 30.0684C28.482 30.2285 28.5611 30.3496 28.6802 30.4316C28.8013 30.5137 28.9575 30.5547 29.1489 30.5547C29.356 30.5547 29.522 30.5107 29.647 30.4229C29.7739 30.335 29.8374 30.2285 29.8374 30.1035C29.8374 29.8965 29.6831 29.7568 29.3745 29.6846L28.8208 29.5615C28.5142 29.4912 28.2876 29.3809 28.1411 29.2305C27.9966 29.0781 27.9243 28.8867 27.9243 28.6562C27.9243 28.4629 27.978 28.293 28.0855 28.1465C28.1948 28 28.3443 27.8867 28.5337 27.8066C28.7251 27.7246 28.9429 27.6836 29.187 27.6836C29.5425 27.6836 29.8208 27.7607 30.022 27.915C30.2251 28.0693 30.3599 28.2734 30.4263 28.5273Z" fill="white"/>
<path d="M9.81444 20.2949V19.2344L13.582 13.2695H14.4199V14.8398H13.8808L11.1855 19.1055V19.1758H16.3594V20.2949H9.81444ZM13.9394 22V19.9727L13.9512 19.4863V13.2695H15.2051V22H13.9394ZM20.4453 22.1172C19.7734 22.1172 19.1973 21.9414 18.7168 21.5898C18.2402 21.2383 17.875 20.7305 17.6211 20.0664C17.3711 19.3984 17.2461 18.5898 17.2461 17.6406C17.2461 16.6953 17.373 15.8887 17.627 15.2207C17.8809 14.5488 18.2461 14.0371 18.7227 13.6855C19.2031 13.3301 19.7773 13.1523 20.4453 13.1523C21.1172 13.1523 21.6914 13.3301 22.168 13.6855C22.6484 14.0371 23.0137 14.5488 23.2637 15.2207C23.5176 15.8887 23.6445 16.6953 23.6445 17.6406C23.6445 18.5898 23.5195 19.3984 23.2695 20.0664C23.0195 20.7305 22.6563 21.2383 22.1797 21.5898C21.7031 21.9414 21.125 22.1172 20.4453 22.1172ZM20.4453 20.9922C20.8555 20.9922 21.2012 20.8613 21.4824 20.5996C21.7637 20.3379 21.9785 19.957 22.127 19.457C22.2754 18.9531 22.3496 18.3477 22.3496 17.6406C22.3496 16.9297 22.2754 16.3242 22.127 15.8242C21.9785 15.3203 21.7637 14.9375 21.4824 14.6758C21.2012 14.4102 20.8555 14.2773 20.4453 14.2773C19.8398 14.2773 19.3711 14.5723 19.0391 15.1621C18.7109 15.748 18.5469 16.5742 18.5469 17.6406C18.5469 18.3477 18.6211 18.9531 18.7695 19.457C18.918 19.957 19.1328 20.3379 19.4141 20.5996C19.6992 20.8613 20.043 20.9922 20.4453 20.9922ZM29.3067 20.3594V19.9023C29.3067 19.5703 29.375 19.2676 29.5117 18.9941C29.6485 18.7207 29.8496 18.502 30.1153 18.3379C30.3809 18.1699 30.7031 18.0859 31.082 18.0859C31.4688 18.0859 31.793 18.168 32.0547 18.332C32.3164 18.4961 32.5137 18.7168 32.6465 18.9941C32.7793 19.2676 32.8457 19.5703 32.8457 19.9023V20.3594C32.8457 20.6914 32.7774 20.9961 32.6406 21.2734C32.5078 21.5469 32.3106 21.7656 32.0488 21.9297C31.7871 22.0938 31.4649 22.1758 31.082 22.1758C30.6992 22.1758 30.375 22.0938 30.1094 21.9297C29.8438 21.7656 29.6426 21.5469 29.5059 21.2734C29.3731 20.9961 29.3067 20.6914 29.3067 20.3594ZM30.2969 19.9023V20.3594C30.2969 20.6055 30.3555 20.8281 30.4727 21.0273C30.5899 21.2266 30.793 21.3262 31.082 21.3262C31.3672 21.3262 31.5664 21.2266 31.6797 21.0273C31.793 20.8281 31.8496 20.6055 31.8496 20.3594V19.9023C31.8496 19.6562 31.7949 19.4355 31.6856 19.2402C31.5762 19.041 31.375 18.9414 31.082 18.9414C30.7969 18.9414 30.5938 19.041 30.4727 19.2402C30.3555 19.4355 30.2969 19.6562 30.2969 19.9023ZM24.918 15.3672V14.9102C24.918 14.5781 24.9863 14.2754 25.1231 14.002C25.2637 13.7246 25.4649 13.5039 25.7266 13.3398C25.9922 13.1758 26.3125 13.0938 26.6875 13.0938C27.0742 13.0938 27.3985 13.1758 27.6602 13.3398C27.9258 13.5039 28.125 13.7246 28.2578 14.002C28.3906 14.2754 28.4551 14.5781 28.4512 14.9102V15.3672C28.4551 15.6953 28.3887 15.998 28.252 16.2754C28.1153 16.5488 27.916 16.7695 27.6543 16.9375C27.3926 17.1016 27.0703 17.1836 26.6875 17.1836C26.3047 17.1836 25.9805 17.1016 25.7149 16.9375C25.4531 16.7695 25.2539 16.5488 25.1172 16.2754C24.9844 15.998 24.918 15.6953 24.918 15.3672ZM25.9082 14.9102V15.3672C25.9082 15.6133 25.9668 15.8359 26.084 16.0352C26.2012 16.2344 26.4024 16.332 26.6875 16.3281C26.9766 16.332 27.1778 16.2344 27.291 16.0352C27.4043 15.8359 27.461 15.6133 27.461 15.3672V14.9102C27.461 14.6641 27.4063 14.4414 27.2969 14.2422C27.1875 14.043 26.9844 13.9453 26.6875 13.9492C26.4063 13.9453 26.2051 14.043 26.084 14.2422C25.9668 14.4414 25.9082 14.6641 25.9082 14.9102ZM25.3223 22L31.3223 13.2695H32.3418L26.3418 22H25.3223Z" fill="white"/>
<defs>
<linearGradient id="paint0_linear_2013_43052" x1="14.8054" y1="5.92216" x2="48.8145" y2="18.6475" gradientUnits="userSpaceOnUse">
<stop stop-color="#732CFF"/>
</linearGradient>
</defs>
</svg>
