<svg width="1920" height="890" viewBox="0 0 1920 890" fill="none" xmlns="http://www.w3.org/2000/svg">
<path d="M583.344 145.487L584.352 145.641L585.126 144.976L584.971 145.984L585.636 146.757L584.628 146.603L583.855 147.268L584.009 146.26L583.344 145.487Z" fill="#6F6C7D"/>
<path d="M545.041 358.356L546.05 358.51L546.823 357.845L546.669 358.853L547.334 359.626L546.326 359.472L545.552 360.137L545.706 359.129L545.041 358.356Z" fill="#6F6C7D"/>
<path d="M83.8788 572.133L84.887 572.287L85.6602 571.622L85.5061 572.63L86.1711 573.404L85.1629 573.25L84.3897 573.915L84.5438 572.906L83.8788 572.133Z" fill="#6F6C7D"/>
<path d="M297.757 161.319L298.765 161.473L299.539 160.808L299.384 161.816L300.049 162.589L299.041 162.435L298.268 163.1L298.422 162.092L297.757 161.319Z" fill="#6F6C7D"/>
<path d="M519.727 93.8089L520.735 93.963L521.508 93.298L521.354 94.3062L522.019 95.0795L521.011 94.9253L520.238 95.5903L520.392 94.5822L519.727 93.8089Z" fill="#6F6C7D"/>
<path d="M370.299 101.891L371.307 102.045L372.081 101.38L371.926 102.388L372.591 103.161L371.583 103.007L370.81 103.672L370.964 102.664L370.299 101.891Z" fill="#6F6C7D"/>
<path d="M97.9034 760.569L98.9116 760.723L99.6848 760.058L99.5307 761.066L100.196 761.839L99.1875 761.685L98.4143 762.35L98.5684 761.342L97.9034 760.569Z" fill="#6F6C7D"/>
<path d="M211.774 141.119L212.783 141.274L213.556 140.609L213.402 141.617L214.067 142.39L213.059 142.236L212.285 142.901L212.439 141.893L211.774 141.119Z" fill="#6F6C7D"/>
<path d="M265.348 753.127L266.356 753.281L267.129 752.616L266.975 753.625L267.64 754.398L266.632 754.244L265.859 754.909L266.013 753.901L265.348 753.127Z" fill="#6F6C7D"/>
<path d="M509.018 427.291L510.026 427.445L510.799 426.78L510.645 427.789L511.31 428.562L510.302 428.408L509.528 429.073L509.683 428.065L509.018 427.291Z" fill="#6F6C7D"/>
<path d="M737.661 534.805L738.669 534.959L739.443 534.294L739.289 535.302L739.954 536.076L738.945 535.921L738.172 536.586L738.326 535.578L737.661 534.805Z" fill="white"/>
<path d="M701.803 346.926L702.812 347.08L703.585 346.415L703.431 347.423L704.096 348.197L703.088 348.043L702.314 348.708L702.468 347.699L701.803 346.926Z" fill="white"/>
<path d="M515.646 251.243L516.654 251.397L517.427 250.732L517.273 251.74L517.938 252.513L516.93 252.359L516.157 253.024L516.311 252.016L515.646 251.243Z" fill="white"/>
<path d="M270.535 445.481L271.543 445.635L272.316 444.97L272.162 445.978L272.827 446.751L271.819 446.597L271.046 447.262L271.2 446.254L270.535 445.481Z" fill="white"/>
<path d="M398.304 251.358L399.313 251.512L400.086 250.847L399.932 251.855L400.597 252.628L399.589 252.474L398.815 253.139L398.969 252.131L398.304 251.358Z" fill="white"/>
<path d="M549.314 31.0824L550.322 31.2365L551.096 30.5715L550.942 31.5796L551.607 32.3529L550.598 32.1988L549.825 32.8638L549.979 31.8556L549.314 31.0824Z" fill="white"/>
<path d="M406.308 139.856L407.316 140.01L408.09 139.345L407.936 140.353L408.601 141.126L407.592 140.972L406.819 141.637L406.973 140.629L406.308 139.856Z" fill="white"/>
<g filter="url(#filter0_f_2064_43061)">
<path d="M349.893 340.948L350.901 341.102L351.674 340.437L351.52 341.445L352.185 342.218L351.177 342.064L350.404 342.729L350.558 341.721L349.893 340.948Z" fill="white"/>
</g>
<g filter="url(#filter1_f_2064_43061)">
<path d="M3.032 618.446L4.04016 618.6L4.81342 617.935L4.65929 618.943L5.3243 619.716L4.31613 619.562L3.54288 620.227L3.697 619.219L3.032 618.446Z" fill="white"/>
</g>
<g filter="url(#filter2_f_2064_43061)">
<path d="M322.38 694.371L323.388 694.526L324.161 693.861L324.007 694.869L324.672 695.642L323.664 695.488L322.891 696.153L323.045 695.145L322.38 694.371Z" fill="white"/>
</g>
<g filter="url(#filter3_f_2064_43061)">
<path d="M505.502 553.108L506.51 553.262L507.283 552.597L507.129 553.605L507.794 554.378L506.786 554.224L506.013 554.889L506.167 553.881L505.502 553.108Z" fill="white"/>
</g>
<g filter="url(#filter4_f_2064_43061)">
<path d="M1.63075 466.922L2.63892 467.076L3.41217 466.411L3.25805 467.419L3.92306 468.193L2.91489 468.039L2.14164 468.704L2.29576 467.695L1.63075 466.922Z" fill="white"/>
</g>
<g filter="url(#filter5_f_2064_43061)">
<path d="M186.736 723.143L189.828 723.616L192.199 721.577L191.726 724.668L193.765 727.04L190.674 726.567L188.303 728.606L188.775 725.515L186.736 723.143Z" fill="#868592"/>
</g>
<g filter="url(#filter6_f_2064_43061)">
<path d="M225.168 554.938L228.26 555.411L230.631 553.372L230.158 556.463L232.198 558.835L229.106 558.362L226.735 560.401L227.207 557.31L225.168 554.938Z" fill="#868592"/>
</g>
<g filter="url(#filter7_f_2064_43061)">
<path d="M655.123 211.559L658.215 212.032L660.586 209.993L660.113 213.084L662.153 215.456L659.061 214.983L656.69 217.022L657.162 213.931L655.123 211.559Z" fill="white"/>
</g>
<g filter="url(#filter8_f_2064_43061)">
<path d="M628.494 126.638L631.585 127.11L633.957 125.071L633.484 128.163L635.523 130.534L632.432 130.061L630.06 132.1L630.533 129.009L628.494 126.638Z" fill="white"/>
</g>
<g filter="url(#filter9_f_2064_43061)">
<path d="M478.389 296.323L481.48 296.796L483.852 294.756L483.379 297.848L485.418 300.219L482.327 299.747L479.955 301.786L480.428 298.694L478.389 296.323Z" fill="#6E6B7C"/>
</g>
<g filter="url(#filter10_f_2064_43061)">
<path d="M255.771 311.634L258.863 312.106L261.234 310.067L260.762 313.159L262.801 315.53L259.709 315.057L257.338 317.097L257.811 314.005L255.771 311.634Z" fill="white"/>
</g>
<g filter="url(#filter11_f_2064_43061)">
<path d="M360.892 199.022L363.984 199.495L366.355 197.456L365.883 200.547L367.922 202.919L364.83 202.446L362.459 204.485L362.932 201.394L360.892 199.022Z" fill="white"/>
</g>
<g opacity="0.5">
<path d="M756.409 800.357L757.013 801.179L758.03 801.256L757.208 801.86L757.132 802.877L756.528 802.055L755.511 801.978L756.333 801.375L756.409 800.357Z" fill="#6F6C7D"/>
<path d="M101.55 748.865L102.153 749.687L103.17 749.764L102.349 750.368L102.272 751.385L101.668 750.563L100.651 750.486L101.473 749.882L101.55 748.865Z" fill="#6F6C7D"/>
<path d="M69.4483 318.004L70.0522 318.826L71.0692 318.902L70.2473 319.506L70.1708 320.523L69.5669 319.701L68.5498 319.625L69.3717 319.021L69.4483 318.004Z" fill="#6F6C7D"/>
<path d="M543.274 609.611L543.878 610.433L544.895 610.51L544.073 611.114L543.997 612.131L543.393 611.309L542.376 611.232L543.198 610.628L543.274 609.611Z" fill="#6F6C7D"/>
<path d="M747.966 718.832L748.57 719.654L749.587 719.731L748.765 720.334L748.689 721.351L748.085 720.53L747.068 720.453L747.89 719.849L747.966 718.832Z" fill="#6F6C7D"/>
<path d="M636.591 618.883L637.195 619.705L638.212 619.781L637.39 620.385L637.314 621.402L636.71 620.58L635.693 620.504L636.515 619.9L636.591 618.883Z" fill="#6F6C7D"/>
<path d="M496.758 534.529L497.362 535.351L498.379 535.428L497.557 536.032L497.48 537.049L496.877 536.227L495.86 536.15L496.681 535.546L496.758 534.529Z" fill="#6F6C7D"/>
<path d="M633.758 827.268L634.362 828.09L635.379 828.166L634.557 828.77L634.481 829.787L633.877 828.965L632.86 828.889L633.682 828.285L633.758 827.268Z" fill="white"/>
<path d="M323.091 791.295L323.695 792.117L324.712 792.193L323.89 792.797L323.814 793.814L323.21 792.992L322.193 792.916L323.015 792.312L323.091 791.295Z" fill="white"/>
<path d="M550.704 744.377L551.308 745.199L552.325 745.275L551.503 745.879L551.427 746.896L550.823 746.074L549.806 745.998L550.628 745.394L550.704 744.377Z" fill="white"/>
<path d="M813.242 695.399L813.846 696.22L814.863 696.297L814.041 696.901L813.964 697.918L813.361 697.096L812.344 697.019L813.165 696.416L813.242 695.399Z" fill="white"/>
<path d="M635.208 671.191L635.812 672.013L636.829 672.09L636.007 672.694L635.931 673.711L635.327 672.889L634.31 672.812L635.132 672.208L635.208 671.191Z" fill="white"/>
<g filter="url(#filter12_f_2064_43061)">
<path d="M453.122 773.494L453.726 774.316L454.743 774.393L453.921 774.997L453.845 776.014L453.241 775.192L452.224 775.115L453.046 774.511L453.122 773.494Z" fill="white"/>
</g>
<g filter="url(#filter13_f_2064_43061)">
<path d="M11.6347 724.445L12.2386 725.267L13.2556 725.344L12.4337 725.948L12.3572 726.965L11.7533 726.143L10.7363 726.066L11.5581 725.462L11.6347 724.445Z" fill="white"/>
</g>
<g filter="url(#filter14_f_2064_43061)">
<path d="M117.786 616.313L118.39 617.134L119.407 617.211L118.585 617.815L118.509 618.832L117.905 618.01L116.888 617.933L117.71 617.33L117.786 616.313Z" fill="white"/>
</g>
<g filter="url(#filter15_f_2064_43061)">
<path d="M44.9138 494.587L46.7657 497.108L49.8844 497.343L47.3641 499.194L47.1294 502.313L45.2775 499.793L42.1587 499.558L44.679 497.706L44.9138 494.587Z" fill="#868592"/>
</g>
<g filter="url(#filter16_f_2064_43061)">
<path d="M213.615 836.613L215.467 839.133L218.586 839.368L216.065 841.22L215.831 844.339L213.979 841.818L210.86 841.584L213.38 839.732L213.615 836.613Z" fill="#868592"/>
</g>
<g filter="url(#filter17_f_2064_43061)">
<path d="M801.664 818.953L803.516 821.473L806.634 821.708L804.114 823.56L803.879 826.678L802.027 824.158L798.909 823.923L801.429 822.071L801.664 818.953Z" fill="white"/>
</g>
<g filter="url(#filter18_f_2064_43061)">
<path d="M575.537 832.8L577.389 835.321L580.508 835.555L577.987 837.407L577.753 840.526L575.901 838.006L572.782 837.771L575.302 835.919L575.537 832.8Z" fill="#6E6B7C"/>
</g>
<g filter="url(#filter19_f_2064_43061)">
<path d="M407.296 686.212L409.148 688.733L412.267 688.968L409.747 690.819L409.512 693.938L407.66 691.418L404.541 691.183L407.061 689.331L407.296 686.212Z" fill="white"/>
</g>
<g filter="url(#filter20_f_2064_43061)">
<path d="M561.257 680.914L563.109 683.434L566.228 683.669L563.707 685.521L563.473 688.639L561.621 686.119L558.502 685.884L561.022 684.032L561.257 680.914Z" fill="white"/>
</g>
</g>
<path d="M1444 171.487L1443 171.641L1442.22 170.976L1442.38 171.984L1441.71 172.757L1442.72 172.603L1443.49 173.268L1443.34 172.26L1444 171.487Z" fill="#6F6C7D"/>
<path d="M1482.31 384.356L1481.3 384.51L1480.52 383.845L1480.68 384.853L1480.01 385.626L1481.02 385.472L1481.8 386.137L1481.64 385.129L1482.31 384.356Z" fill="#6F6C7D"/>
<path d="M1729.59 187.319L1728.58 187.473L1727.81 186.808L1727.96 187.816L1727.3 188.589L1728.31 188.435L1729.08 189.1L1728.93 188.092L1729.59 187.319Z" fill="#6F6C7D"/>
<path d="M1507.62 119.811L1506.61 119.965L1505.84 119.3L1505.99 120.308L1505.33 121.081L1506.34 120.927L1507.11 121.592L1506.96 120.584L1507.62 119.811Z" fill="#6F6C7D"/>
<path d="M1657.05 127.891L1656.04 128.045L1655.27 127.38L1655.42 128.388L1654.76 129.161L1655.76 129.007L1656.54 129.672L1656.38 128.664L1657.05 127.891Z" fill="#6F6C7D"/>
<path d="M1815.57 167.119L1814.56 167.274L1813.79 166.609L1813.95 167.617L1813.28 168.39L1814.29 168.236L1815.06 168.901L1814.91 167.893L1815.57 167.119Z" fill="#6F6C7D"/>
<path d="M1762 779.127L1760.99 779.281L1760.22 778.616L1760.37 779.625L1759.71 780.398L1760.72 780.244L1761.49 780.909L1761.33 779.901L1762 779.127Z" fill="#6F6C7D"/>
<path d="M1518.33 453.291L1517.32 453.445L1516.55 452.78L1516.7 453.789L1516.04 454.562L1517.05 454.408L1517.82 455.073L1517.66 454.065L1518.33 453.291Z" fill="#6F6C7D"/>
<path d="M1289.69 560.805L1288.68 560.959L1287.9 560.294L1288.06 561.302L1287.39 562.076L1288.4 561.921L1289.18 562.586L1289.02 561.578L1289.69 560.805Z" fill="white"/>
<path d="M1325.54 372.926L1324.54 373.08L1323.76 372.415L1323.92 373.423L1323.25 374.197L1324.26 374.043L1325.03 374.708L1324.88 373.699L1325.54 372.926Z" fill="white"/>
<path d="M1511.7 277.244L1510.69 277.399L1509.92 276.734L1510.07 277.742L1509.41 278.515L1510.42 278.361L1511.19 279.026L1511.04 278.018L1511.7 277.244Z" fill="white"/>
<path d="M1756.81 471.483L1755.8 471.637L1755.03 470.972L1755.19 471.98L1754.52 472.753L1755.53 472.599L1756.3 473.264L1756.15 472.256L1756.81 471.483Z" fill="white"/>
<path d="M1629.04 277.36L1628.03 277.514L1627.26 276.849L1627.42 277.857L1626.75 278.63L1627.76 278.476L1628.53 279.141L1628.38 278.133L1629.04 277.36Z" fill="white"/>
<path d="M1478.03 57.0843L1477.03 57.2384L1476.25 56.5734L1476.41 57.5816L1475.74 58.3548L1476.75 58.2007L1477.52 58.8657L1477.37 57.8576L1478.03 57.0843Z" fill="white"/>
<path d="M1621.04 165.856L1620.03 166.01L1619.26 165.345L1619.41 166.353L1618.75 167.126L1619.75 166.972L1620.53 167.637L1620.37 166.629L1621.04 165.856Z" fill="white"/>
<g filter="url(#filter21_f_2064_43061)">
<path d="M1677.45 366.948L1676.45 367.102L1675.67 366.437L1675.83 367.445L1675.16 368.218L1676.17 368.064L1676.94 368.729L1676.79 367.721L1677.45 366.948Z" fill="white"/>
</g>
<g filter="url(#filter22_f_2064_43061)">
<path d="M1704.97 720.371L1703.96 720.526L1703.19 719.861L1703.34 720.869L1702.67 721.642L1703.68 721.488L1704.46 722.153L1704.3 721.145L1704.97 720.371Z" fill="white"/>
</g>
<g filter="url(#filter23_f_2064_43061)">
<path d="M1521.85 579.108L1520.84 579.262L1520.06 578.597L1520.22 579.605L1519.55 580.378L1520.56 580.224L1521.33 580.889L1521.18 579.881L1521.85 579.108Z" fill="white"/>
</g>
<g filter="url(#filter24_f_2064_43061)">
<path d="M1840.61 749.143L1837.52 749.616L1835.15 747.577L1835.62 750.668L1833.58 753.04L1836.67 752.567L1839.04 754.606L1838.57 751.515L1840.61 749.143Z" fill="#868592"/>
</g>
<g filter="url(#filter25_f_2064_43061)">
<path d="M1802.18 580.938L1799.09 581.411L1796.72 579.372L1797.19 582.463L1795.15 584.835L1798.24 584.362L1800.61 586.401L1800.14 583.31L1802.18 580.938Z" fill="#868592"/>
</g>
<g filter="url(#filter26_f_2064_43061)">
<path d="M1372.22 237.559L1369.13 238.032L1366.76 235.993L1367.23 239.084L1365.19 241.456L1368.29 240.983L1370.66 243.022L1370.18 239.931L1372.22 237.559Z" fill="white"/>
</g>
<g filter="url(#filter27_f_2064_43061)">
<path d="M1398.85 152.638L1395.76 153.11L1393.39 151.071L1393.86 154.163L1391.82 156.534L1394.92 156.061L1397.29 158.1L1396.81 155.009L1398.85 152.638Z" fill="white"/>
</g>
<g filter="url(#filter28_f_2064_43061)">
<path d="M1548.96 322.323L1545.87 322.796L1543.5 320.756L1543.97 323.848L1541.93 326.219L1545.02 325.747L1547.39 327.786L1546.92 324.694L1548.96 322.323Z" fill="#6E6B7C"/>
</g>
<g filter="url(#filter29_f_2064_43061)">
<path d="M1771.58 337.636L1768.48 338.108L1766.11 336.069L1766.59 339.161L1764.55 341.532L1767.64 341.059L1770.01 343.099L1769.54 340.007L1771.58 337.636Z" fill="white"/>
</g>
<g filter="url(#filter30_f_2064_43061)">
<path d="M1666.45 225.022L1663.36 225.495L1660.99 223.456L1661.46 226.547L1659.43 228.919L1662.52 228.446L1664.89 230.485L1664.42 227.394L1666.45 225.022Z" fill="white"/>
</g>
<g opacity="0.5">
<path d="M1270.94 826.357L1270.33 827.179L1269.32 827.256L1270.14 827.86L1270.22 828.877L1270.82 828.055L1271.84 827.978L1271.01 827.375L1270.94 826.357Z" fill="#6F6C7D"/>
<path d="M1484.07 635.611L1483.47 636.433L1482.45 636.51L1483.27 637.114L1483.35 638.131L1483.95 637.309L1484.97 637.232L1484.15 636.628L1484.07 635.611Z" fill="#6F6C7D"/>
<path d="M1279.38 744.832L1278.78 745.654L1277.76 745.731L1278.58 746.334L1278.66 747.351L1279.26 746.53L1280.28 746.453L1279.46 745.849L1279.38 744.832Z" fill="#6F6C7D"/>
<path d="M1390.76 644.885L1390.15 645.707L1389.14 645.783L1389.96 646.387L1390.03 647.404L1390.64 646.582L1391.65 646.506L1390.83 645.902L1390.76 644.885Z" fill="#6F6C7D"/>
<path d="M1530.59 560.529L1529.99 561.351L1528.97 561.428L1529.79 562.032L1529.87 563.049L1530.47 562.227L1531.49 562.15L1530.67 561.546L1530.59 560.529Z" fill="#6F6C7D"/>
<path d="M1393.59 853.268L1392.99 854.09L1391.97 854.166L1392.79 854.77L1392.87 855.787L1393.47 854.965L1394.49 854.889L1393.67 854.285L1393.59 853.268Z" fill="white"/>
<path d="M1704.26 817.295L1703.65 818.117L1702.64 818.193L1703.46 818.797L1703.53 819.814L1704.14 818.992L1705.15 818.916L1704.33 818.312L1704.26 817.295Z" fill="white"/>
<path d="M1476.64 770.377L1476.04 771.199L1475.02 771.275L1475.84 771.879L1475.92 772.896L1476.52 772.074L1477.54 771.998L1476.72 771.394L1476.64 770.377Z" fill="white"/>
<path d="M1214.11 721.399L1213.5 722.22L1212.48 722.297L1213.31 722.901L1213.38 723.918L1213.99 723.096L1215 723.019L1214.18 722.416L1214.11 721.399Z" fill="white"/>
<path d="M1392.14 697.191L1391.54 698.013L1390.52 698.09L1391.34 698.694L1391.42 699.711L1392.02 698.889L1393.04 698.812L1392.22 698.208L1392.14 697.191Z" fill="white"/>
<g filter="url(#filter31_f_2064_43061)">
<path d="M1574.22 799.494L1573.62 800.316L1572.6 800.393L1573.43 800.997L1573.5 802.014L1574.11 801.192L1575.12 801.115L1574.3 800.511L1574.22 799.494Z" fill="white"/>
</g>
<g filter="url(#filter32_f_2064_43061)">
<path d="M1909.56 642.313L1908.96 643.134L1907.94 643.211L1908.76 643.815L1908.84 644.832L1909.44 644.01L1910.46 643.933L1909.64 643.33L1909.56 642.313Z" fill="white"/>
</g>
<g filter="url(#filter33_f_2064_43061)">
<path d="M1813.73 862.613L1811.88 865.133L1808.76 865.368L1811.28 867.22L1811.52 870.339L1813.37 867.818L1816.49 867.584L1813.97 865.732L1813.73 862.613Z" fill="#868592"/>
</g>
<g filter="url(#filter34_f_2064_43061)">
<path d="M1225.68 844.953L1223.83 847.473L1220.71 847.708L1223.23 849.56L1223.47 852.678L1225.32 850.158L1228.44 849.923L1225.92 848.071L1225.68 844.953Z" fill="white"/>
</g>
<g filter="url(#filter35_f_2064_43061)">
<path d="M1451.81 858.8L1449.96 861.321L1446.84 861.555L1449.36 863.407L1449.59 866.526L1451.45 864.006L1454.57 863.771L1452.04 861.919L1451.81 858.8Z" fill="#6E6B7C"/>
</g>
<g filter="url(#filter36_f_2064_43061)">
<path d="M1620.05 712.212L1618.2 714.733L1615.08 714.968L1617.6 716.819L1617.84 719.938L1619.69 717.418L1622.81 717.183L1620.29 715.331L1620.05 712.212Z" fill="white"/>
</g>
<g filter="url(#filter37_f_2064_43061)">
<path d="M1466.09 706.916L1464.24 709.436L1461.12 709.671L1463.64 711.523L1463.87 714.641L1465.73 712.121L1468.85 711.886L1466.32 710.034L1466.09 706.916Z" fill="white"/>
</g>
</g>
<defs>
<filter id="filter0_f_2064_43061" x="348.893" y="339.438" width="4.29236" height="4.29102" filterUnits="userSpaceOnUse" color-interpolation-filters="sRGB">
<feFlood flood-opacity="0" result="BackgroundImageFix"/>
<feBlend mode="normal" in="SourceGraphic" in2="BackgroundImageFix" result="shape"/>
<feGaussianBlur stdDeviation="0.5" result="effect1_foregroundBlur_2064_43061"/>
</filter>
<filter id="filter1_f_2064_43061" x="2.03198" y="616.936" width="4.2923" height="4.29102" filterUnits="userSpaceOnUse" color-interpolation-filters="sRGB">
<feFlood flood-opacity="0" result="BackgroundImageFix"/>
<feBlend mode="normal" in="SourceGraphic" in2="BackgroundImageFix" result="shape"/>
<feGaussianBlur stdDeviation="0.5" result="effect1_foregroundBlur_2064_43061"/>
</filter>
<filter id="filter2_f_2064_43061" x="321.38" y="692.861" width="4.29236" height="4.29102" filterUnits="userSpaceOnUse" color-interpolation-filters="sRGB">
<feFlood flood-opacity="0" result="BackgroundImageFix"/>
<feBlend mode="normal" in="SourceGraphic" in2="BackgroundImageFix" result="shape"/>
<feGaussianBlur stdDeviation="0.5" result="effect1_foregroundBlur_2064_43061"/>
</filter>
<filter id="filter3_f_2064_43061" x="504.502" y="551.598" width="4.29236" height="4.29102" filterUnits="userSpaceOnUse" color-interpolation-filters="sRGB">
<feFlood flood-opacity="0" result="BackgroundImageFix"/>
<feBlend mode="normal" in="SourceGraphic" in2="BackgroundImageFix" result="shape"/>
<feGaussianBlur stdDeviation="0.5" result="effect1_foregroundBlur_2064_43061"/>
</filter>
<filter id="filter4_f_2064_43061" x="0.630737" y="465.412" width="4.2923" height="4.29102" filterUnits="userSpaceOnUse" color-interpolation-filters="sRGB">
<feFlood flood-opacity="0" result="BackgroundImageFix"/>
<feBlend mode="normal" in="SourceGraphic" in2="BackgroundImageFix" result="shape"/>
<feGaussianBlur stdDeviation="0.5" result="effect1_foregroundBlur_2064_43061"/>
</filter>
<filter id="filter5_f_2064_43061" x="185.736" y="720.576" width="9.0296" height="9.0293" filterUnits="userSpaceOnUse" color-interpolation-filters="sRGB">
<feFlood flood-opacity="0" result="BackgroundImageFix"/>
<feBlend mode="normal" in="SourceGraphic" in2="BackgroundImageFix" result="shape"/>
<feGaussianBlur stdDeviation="0.5" result="effect1_foregroundBlur_2064_43061"/>
</filter>
<filter id="filter6_f_2064_43061" x="224.168" y="552.371" width="9.0296" height="9.0293" filterUnits="userSpaceOnUse" color-interpolation-filters="sRGB">
<feFlood flood-opacity="0" result="BackgroundImageFix"/>
<feBlend mode="normal" in="SourceGraphic" in2="BackgroundImageFix" result="shape"/>
<feGaussianBlur stdDeviation="0.5" result="effect1_foregroundBlur_2064_43061"/>
</filter>
<filter id="filter7_f_2064_43061" x="654.123" y="208.992" width="9.02954" height="9.0293" filterUnits="userSpaceOnUse" color-interpolation-filters="sRGB">
<feFlood flood-opacity="0" result="BackgroundImageFix"/>
<feBlend mode="normal" in="SourceGraphic" in2="BackgroundImageFix" result="shape"/>
<feGaussianBlur stdDeviation="0.5" result="effect1_foregroundBlur_2064_43061"/>
</filter>
<filter id="filter8_f_2064_43061" x="627.494" y="124.07" width="9.02954" height="9.0293" filterUnits="userSpaceOnUse" color-interpolation-filters="sRGB">
<feFlood flood-opacity="0" result="BackgroundImageFix"/>
<feBlend mode="normal" in="SourceGraphic" in2="BackgroundImageFix" result="shape"/>
<feGaussianBlur stdDeviation="0.5" result="effect1_foregroundBlur_2064_43061"/>
</filter>
<filter id="filter9_f_2064_43061" x="477.389" y="293.756" width="9.02954" height="9.0293" filterUnits="userSpaceOnUse" color-interpolation-filters="sRGB">
<feFlood flood-opacity="0" result="BackgroundImageFix"/>
<feBlend mode="normal" in="SourceGraphic" in2="BackgroundImageFix" result="shape"/>
<feGaussianBlur stdDeviation="0.5" result="effect1_foregroundBlur_2064_43061"/>
</filter>
<filter id="filter10_f_2064_43061" x="254.771" y="309.066" width="9.0296" height="9.0293" filterUnits="userSpaceOnUse" color-interpolation-filters="sRGB">
<feFlood flood-opacity="0" result="BackgroundImageFix"/>
<feBlend mode="normal" in="SourceGraphic" in2="BackgroundImageFix" result="shape"/>
<feGaussianBlur stdDeviation="0.5" result="effect1_foregroundBlur_2064_43061"/>
</filter>
<filter id="filter11_f_2064_43061" x="359.892" y="196.455" width="9.02954" height="9.0293" filterUnits="userSpaceOnUse" color-interpolation-filters="sRGB">
<feFlood flood-opacity="0" result="BackgroundImageFix"/>
<feBlend mode="normal" in="SourceGraphic" in2="BackgroundImageFix" result="shape"/>
<feGaussianBlur stdDeviation="0.5" result="effect1_foregroundBlur_2064_43061"/>
</filter>
<filter id="filter12_f_2064_43061" x="451.224" y="772.494" width="4.51941" height="4.51953" filterUnits="userSpaceOnUse" color-interpolation-filters="sRGB">
<feFlood flood-opacity="0" result="BackgroundImageFix"/>
<feBlend mode="normal" in="SourceGraphic" in2="BackgroundImageFix" result="shape"/>
<feGaussianBlur stdDeviation="0.5" result="effect1_foregroundBlur_2064_43061"/>
</filter>
<filter id="filter13_f_2064_43061" x="9.73627" y="723.445" width="4.51929" height="4.51953" filterUnits="userSpaceOnUse" color-interpolation-filters="sRGB">
<feFlood flood-opacity="0" result="BackgroundImageFix"/>
<feBlend mode="normal" in="SourceGraphic" in2="BackgroundImageFix" result="shape"/>
<feGaussianBlur stdDeviation="0.5" result="effect1_foregroundBlur_2064_43061"/>
</filter>
<filter id="filter14_f_2064_43061" x="115.888" y="615.312" width="4.51929" height="4.51953" filterUnits="userSpaceOnUse" color-interpolation-filters="sRGB">
<feFlood flood-opacity="0" result="BackgroundImageFix"/>
<feBlend mode="normal" in="SourceGraphic" in2="BackgroundImageFix" result="shape"/>
<feGaussianBlur stdDeviation="0.5" result="effect1_foregroundBlur_2064_43061"/>
</filter>
<filter id="filter15_f_2064_43061" x="41.1587" y="493.588" width="9.72577" height="9.72461" filterUnits="userSpaceOnUse" color-interpolation-filters="sRGB">
<feFlood flood-opacity="0" result="BackgroundImageFix"/>
<feBlend mode="normal" in="SourceGraphic" in2="BackgroundImageFix" result="shape"/>
<feGaussianBlur stdDeviation="0.5" result="effect1_foregroundBlur_2064_43061"/>
</filter>
<filter id="filter16_f_2064_43061" x="209.86" y="835.613" width="9.72577" height="9.72461" filterUnits="userSpaceOnUse" color-interpolation-filters="sRGB">
<feFlood flood-opacity="0" result="BackgroundImageFix"/>
<feBlend mode="normal" in="SourceGraphic" in2="BackgroundImageFix" result="shape"/>
<feGaussianBlur stdDeviation="0.5" result="effect1_foregroundBlur_2064_43061"/>
</filter>
<filter id="filter17_f_2064_43061" x="797.909" y="817.953" width="9.72571" height="9.72461" filterUnits="userSpaceOnUse" color-interpolation-filters="sRGB">
<feFlood flood-opacity="0" result="BackgroundImageFix"/>
<feBlend mode="normal" in="SourceGraphic" in2="BackgroundImageFix" result="shape"/>
<feGaussianBlur stdDeviation="0.5" result="effect1_foregroundBlur_2064_43061"/>
</filter>
<filter id="filter18_f_2064_43061" x="571.782" y="831.801" width="9.72571" height="9.72461" filterUnits="userSpaceOnUse" color-interpolation-filters="sRGB">
<feFlood flood-opacity="0" result="BackgroundImageFix"/>
<feBlend mode="normal" in="SourceGraphic" in2="BackgroundImageFix" result="shape"/>
<feGaussianBlur stdDeviation="0.5" result="effect1_foregroundBlur_2064_43061"/>
</filter>
<filter id="filter19_f_2064_43061" x="403.541" y="685.213" width="9.72571" height="9.72461" filterUnits="userSpaceOnUse" color-interpolation-filters="sRGB">
<feFlood flood-opacity="0" result="BackgroundImageFix"/>
<feBlend mode="normal" in="SourceGraphic" in2="BackgroundImageFix" result="shape"/>
<feGaussianBlur stdDeviation="0.5" result="effect1_foregroundBlur_2064_43061"/>
</filter>
<filter id="filter20_f_2064_43061" x="557.502" y="679.914" width="9.72571" height="9.72461" filterUnits="userSpaceOnUse" color-interpolation-filters="sRGB">
<feFlood flood-opacity="0" result="BackgroundImageFix"/>
<feBlend mode="normal" in="SourceGraphic" in2="BackgroundImageFix" result="shape"/>
<feGaussianBlur stdDeviation="0.5" result="effect1_foregroundBlur_2064_43061"/>
</filter>
<filter id="filter21_f_2064_43061" x="1674.16" y="365.438" width="4.29224" height="4.29102" filterUnits="userSpaceOnUse" color-interpolation-filters="sRGB">
<feFlood flood-opacity="0" result="BackgroundImageFix"/>
<feBlend mode="normal" in="SourceGraphic" in2="BackgroundImageFix" result="shape"/>
<feGaussianBlur stdDeviation="0.5" result="effect1_foregroundBlur_2064_43061"/>
</filter>
<filter id="filter22_f_2064_43061" x="1701.68" y="718.861" width="4.29224" height="4.29102" filterUnits="userSpaceOnUse" color-interpolation-filters="sRGB">
<feFlood flood-opacity="0" result="BackgroundImageFix"/>
<feBlend mode="normal" in="SourceGraphic" in2="BackgroundImageFix" result="shape"/>
<feGaussianBlur stdDeviation="0.5" result="effect1_foregroundBlur_2064_43061"/>
</filter>
<filter id="filter23_f_2064_43061" x="1518.55" y="577.598" width="4.29224" height="4.29102" filterUnits="userSpaceOnUse" color-interpolation-filters="sRGB">
<feFlood flood-opacity="0" result="BackgroundImageFix"/>
<feBlend mode="normal" in="SourceGraphic" in2="BackgroundImageFix" result="shape"/>
<feGaussianBlur stdDeviation="0.5" result="effect1_foregroundBlur_2064_43061"/>
</filter>
<filter id="filter24_f_2064_43061" x="1832.58" y="746.576" width="9.02979" height="9.0293" filterUnits="userSpaceOnUse" color-interpolation-filters="sRGB">
<feFlood flood-opacity="0" result="BackgroundImageFix"/>
<feBlend mode="normal" in="SourceGraphic" in2="BackgroundImageFix" result="shape"/>
<feGaussianBlur stdDeviation="0.5" result="effect1_foregroundBlur_2064_43061"/>
</filter>
<filter id="filter25_f_2064_43061" x="1794.15" y="578.371" width="9.02979" height="9.0293" filterUnits="userSpaceOnUse" color-interpolation-filters="sRGB">
<feFlood flood-opacity="0" result="BackgroundImageFix"/>
<feBlend mode="normal" in="SourceGraphic" in2="BackgroundImageFix" result="shape"/>
<feGaussianBlur stdDeviation="0.5" result="effect1_foregroundBlur_2064_43061"/>
</filter>
<filter id="filter26_f_2064_43061" x="1364.19" y="234.992" width="9.02979" height="9.0293" filterUnits="userSpaceOnUse" color-interpolation-filters="sRGB">
<feFlood flood-opacity="0" result="BackgroundImageFix"/>
<feBlend mode="normal" in="SourceGraphic" in2="BackgroundImageFix" result="shape"/>
<feGaussianBlur stdDeviation="0.5" result="effect1_foregroundBlur_2064_43061"/>
</filter>
<filter id="filter27_f_2064_43061" x="1390.82" y="150.07" width="9.02979" height="9.0293" filterUnits="userSpaceOnUse" color-interpolation-filters="sRGB">
<feFlood flood-opacity="0" result="BackgroundImageFix"/>
<feBlend mode="normal" in="SourceGraphic" in2="BackgroundImageFix" result="shape"/>
<feGaussianBlur stdDeviation="0.5" result="effect1_foregroundBlur_2064_43061"/>
</filter>
<filter id="filter28_f_2064_43061" x="1540.93" y="319.756" width="9.02979" height="9.0293" filterUnits="userSpaceOnUse" color-interpolation-filters="sRGB">
<feFlood flood-opacity="0" result="BackgroundImageFix"/>
<feBlend mode="normal" in="SourceGraphic" in2="BackgroundImageFix" result="shape"/>
<feGaussianBlur stdDeviation="0.5" result="effect1_foregroundBlur_2064_43061"/>
</filter>
<filter id="filter29_f_2064_43061" x="1763.55" y="335.068" width="9.02979" height="9.0293" filterUnits="userSpaceOnUse" color-interpolation-filters="sRGB">
<feFlood flood-opacity="0" result="BackgroundImageFix"/>
<feBlend mode="normal" in="SourceGraphic" in2="BackgroundImageFix" result="shape"/>
<feGaussianBlur stdDeviation="0.5" result="effect1_foregroundBlur_2064_43061"/>
</filter>
<filter id="filter30_f_2064_43061" x="1658.43" y="222.455" width="9.02979" height="9.0293" filterUnits="userSpaceOnUse" color-interpolation-filters="sRGB">
<feFlood flood-opacity="0" result="BackgroundImageFix"/>
<feBlend mode="normal" in="SourceGraphic" in2="BackgroundImageFix" result="shape"/>
<feGaussianBlur stdDeviation="0.5" result="effect1_foregroundBlur_2064_43061"/>
</filter>
<filter id="filter31_f_2064_43061" x="1571.6" y="798.494" width="4.51929" height="4.51953" filterUnits="userSpaceOnUse" color-interpolation-filters="sRGB">
<feFlood flood-opacity="0" result="BackgroundImageFix"/>
<feBlend mode="normal" in="SourceGraphic" in2="BackgroundImageFix" result="shape"/>
<feGaussianBlur stdDeviation="0.5" result="effect1_foregroundBlur_2064_43061"/>
</filter>
<filter id="filter32_f_2064_43061" x="1906.94" y="641.312" width="4.51929" height="4.51953" filterUnits="userSpaceOnUse" color-interpolation-filters="sRGB">
<feFlood flood-opacity="0" result="BackgroundImageFix"/>
<feBlend mode="normal" in="SourceGraphic" in2="BackgroundImageFix" result="shape"/>
<feGaussianBlur stdDeviation="0.5" result="effect1_foregroundBlur_2064_43061"/>
</filter>
<filter id="filter33_f_2064_43061" x="1807.76" y="861.613" width="9.72559" height="9.72461" filterUnits="userSpaceOnUse" color-interpolation-filters="sRGB">
<feFlood flood-opacity="0" result="BackgroundImageFix"/>
<feBlend mode="normal" in="SourceGraphic" in2="BackgroundImageFix" result="shape"/>
<feGaussianBlur stdDeviation="0.5" result="effect1_foregroundBlur_2064_43061"/>
</filter>
<filter id="filter34_f_2064_43061" x="1219.71" y="843.953" width="9.72571" height="9.72461" filterUnits="userSpaceOnUse" color-interpolation-filters="sRGB">
<feFlood flood-opacity="0" result="BackgroundImageFix"/>
<feBlend mode="normal" in="SourceGraphic" in2="BackgroundImageFix" result="shape"/>
<feGaussianBlur stdDeviation="0.5" result="effect1_foregroundBlur_2064_43061"/>
</filter>
<filter id="filter35_f_2064_43061" x="1445.84" y="857.801" width="9.72559" height="9.72461" filterUnits="userSpaceOnUse" color-interpolation-filters="sRGB">
<feFlood flood-opacity="0" result="BackgroundImageFix"/>
<feBlend mode="normal" in="SourceGraphic" in2="BackgroundImageFix" result="shape"/>
<feGaussianBlur stdDeviation="0.5" result="effect1_foregroundBlur_2064_43061"/>
</filter>
<filter id="filter36_f_2064_43061" x="1614.08" y="711.213" width="9.72559" height="9.72461" filterUnits="userSpaceOnUse" color-interpolation-filters="sRGB">
<feFlood flood-opacity="0" result="BackgroundImageFix"/>
<feBlend mode="normal" in="SourceGraphic" in2="BackgroundImageFix" result="shape"/>
<feGaussianBlur stdDeviation="0.5" result="effect1_foregroundBlur_2064_43061"/>
</filter>
<filter id="filter37_f_2064_43061" x="1460.12" y="705.916" width="9.72559" height="9.72461" filterUnits="userSpaceOnUse" color-interpolation-filters="sRGB">
<feFlood flood-opacity="0" result="BackgroundImageFix"/>
<feBlend mode="normal" in="SourceGraphic" in2="BackgroundImageFix" result="shape"/>
<feGaussianBlur stdDeviation="0.5" result="effect1_foregroundBlur_2064_43061"/>
</filter>
</defs>
</svg>
