<svg width="1340" height="789" viewBox="0 0 1340 789" fill="none" xmlns="http://www.w3.org/2000/svg">
<path opacity="0.35" d="M1337 -187.481H0M1337 215.192H0M1337 617.864H0M1337 13.8556H0M1337 416.528H0M1337 -86.8125H0M1337 315.86H0M1337 718.532H0M1337 114.524H0M1339.5 532H2.5M1273.2 -249L1273.2 789M930.377 -249L930.377 789M587.556 -249V789M244.736 -249V789M1101.79 -249L1101.79 789M758.967 -249L758.967 789M416.146 -249L416.146 789M73.3256 -249V789M1187.49 -249L1187.49 789M844.672 -249L844.672 789M501.851 -249L501.851 789M159.031 -249V789M1016.08 -249L1016.08 789M673.261 -249L673.261 789M330.441 -249V789" stroke="url(#paint0_radial_112_630)"/>
<defs>
<radialGradient id="paint0_radial_112_630" cx="0" cy="0" r="1" gradientUnits="userSpaceOnUse" gradientTransform="translate(729 194.5) rotate(71.9745) scale(575.233 740.932)">
<stop stop-color="#F5F4FF" stop-opacity="0.9"/>
<stop offset="1" stop-color="#000223" stop-opacity="0"/>
</radialGradient>
</defs>
</svg>
