<svg width="1931" height="1481" viewBox="0 0 1931 1481" fill="none" xmlns="http://www.w3.org/2000/svg">
<mask id="mask0_507_43401" style="mask-type:alpha" maskUnits="userSpaceOnUse" x="0" y="-1" width="1931" height="1482">
<path d="M771 1480H1V0H1930V1459.5C1463 1459.5 1467.5 1480 771 1480Z" fill="#0E1522" stroke="#0E1522"/>
</mask>
<g mask="url(#mask0_507_43401)">
<g filter="url(#filter0_f_507_43401)">
<path d="M1625 1000.37C1625 1109.28 1355.24 1000.37 978.152 1000.37C601.061 1000.37 289 1136.72 289 1027.81C289 918.911 601.061 606 978.152 606C1355.24 606 1625 891.471 1625 1000.37Z" fill="#702AFF"/>
</g>
<g filter="url(#filter1_f_507_43401)">
<path d="M1206 890.74C1206 931.814 1102.22 890.74 957.138 890.74C812.059 890.74 692 942.163 692 901.09C692 860.016 812.059 742 957.138 742C1102.22 742 1206 849.667 1206 890.74Z" fill="#C3A4FF"/>
</g>
</g>
<defs>
<filter id="filter0_f_507_43401" x="-250.1" y="66.9" width="2414.2" height="1542.2" filterUnits="userSpaceOnUse" color-interpolation-filters="sRGB">
<feFlood flood-opacity="0" result="BackgroundImageFix"/>
<feBlend mode="normal" in="SourceGraphic" in2="BackgroundImageFix" result="shape"/>
<feGaussianBlur stdDeviation="269.55" result="effect1_foregroundBlur_507_43401"/>
</filter>
<filter id="filter1_f_507_43401" x="362.1" y="412.1" width="1173.8" height="834.8" filterUnits="userSpaceOnUse" color-interpolation-filters="sRGB">
<feFlood flood-opacity="0" result="BackgroundImageFix"/>
<feBlend mode="normal" in="SourceGraphic" in2="BackgroundImageFix" result="shape"/>
<feGaussianBlur stdDeviation="164.95" result="effect1_foregroundBlur_507_43401"/>
</filter>
</defs>
</svg>
