<svg width="389" height="229" viewBox="0 0 389 229" fill="none" xmlns="http://www.w3.org/2000/svg">
<path d="M10.2898 53.3902C27.2086 62.0769 61.6409 79.4659 64.02 79.5279C66.3991 79.59 78.2284 79.8986 83.8457 80.0451L131.751 67.4426L174.625 94.2866L198.416 94.9072L238.619 66.2727L259.77 73.7505L325.31 118.996L339.846 112.449L378.588 56.9845" stroke="url(#paint0_linear_5007_45139)" stroke-width="2" stroke-linecap="round"/>
<path d="M64.2165 79.036L11.0208 53.1571L11.0208 218.467L377.281 218.467L380.228 53.1571L336.948 111.889L322.907 118.111L258.019 73.3161L237.079 65.9127L197.275 94.2623L185.498 93.9551L173.721 93.6479L131.274 67.0709L83.8449 79.5481L64.2165 79.036Z" fill="url(#paint1_linear_5007_45139)"/>
<circle cx="11" cy="53.3662" r="2" fill="white"/>
<circle cx="64" cy="79.3662" r="2" fill="white"/>
<circle cx="84" cy="79.3662" r="2" fill="white"/>
<circle cx="132" cy="67.3662" r="2" fill="white"/>
<circle cx="175" cy="93.3662" r="2" fill="white"/>
<circle cx="239" cy="65.3662" r="2" fill="white"/>
<circle cx="325" cy="118.366" r="2" fill="white"/>
<circle cx="379" cy="55.3662" r="2" fill="white"/>
<path d="M130 9C130 6.23858 132.239 4 135 4H232C234.761 4 237 6.23858 237 9V51H135C132.239 51 130 48.7614 130 46V9Z" fill="#F8B638"/>
<path d="M135 4.09961H232C234.706 4.09961 236.9 6.2938 236.9 9V50.9004H135C132.294 50.9004 130.1 48.7062 130.1 46V9C130.1 6.2938 132.294 4.09961 135 4.09961Z" stroke="white" stroke-opacity="0.37" stroke-width="0.2"/>
<rect x="138" y="11" width="10" height="10" rx="2" fill="#732CFF"/>
<path d="M152.296 20H151.248L153.603 13.4545H154.744L157.1 20H156.051L154.201 14.6435H154.15L152.296 20ZM152.472 17.4368H155.872V18.2678H152.472V17.4368ZM159.032 13.4545V20H158.045V13.4545H159.032ZM163.405 20H162.357L164.712 13.4545H165.853L168.209 20H167.161L165.31 14.6435H165.259L163.405 20ZM163.581 17.4368H166.982V18.2678H163.581V17.4368ZM172.187 17.9641V15.0909H173.146V20H172.206V19.1499H172.155C172.042 19.4119 171.861 19.6303 171.612 19.805C171.365 19.9776 171.057 20.0639 170.688 20.0639C170.373 20.0639 170.094 19.9947 169.851 19.8562C169.61 19.7156 169.42 19.5078 169.282 19.233C169.146 18.9581 169.077 18.6183 169.077 18.2134V15.0909H170.033V18.0984C170.033 18.4329 170.126 18.6992 170.311 18.8974C170.496 19.0955 170.737 19.1946 171.033 19.1946C171.212 19.1946 171.39 19.1499 171.567 19.0604C171.746 18.9709 171.894 18.8356 172.011 18.6545C172.131 18.4734 172.189 18.2433 172.187 17.9641ZM176.722 15.0909V15.858H174.04V15.0909H176.722ZM174.759 13.9148H175.715V18.5586C175.715 18.744 175.742 18.8835 175.798 18.9773C175.853 19.0689 175.925 19.1317 176.012 19.1658C176.102 19.1978 176.198 19.2138 176.303 19.2138C176.38 19.2138 176.447 19.2085 176.504 19.1978C176.562 19.1871 176.606 19.1786 176.638 19.1722L176.811 19.9616C176.756 19.983 176.677 20.0043 176.575 20.0256C176.472 20.049 176.344 20.0618 176.191 20.0639C175.94 20.0682 175.705 20.0234 175.488 19.9297C175.271 19.8359 175.095 19.6911 174.961 19.495C174.826 19.299 174.759 19.0529 174.759 18.7567V13.9148ZM179.794 20.0991C179.333 20.0991 178.932 19.9936 178.589 19.7827C178.246 19.5717 177.979 19.2766 177.79 18.8974C177.6 18.5181 177.505 18.0749 177.505 17.5678C177.505 17.0586 177.6 16.6133 177.79 16.2319C177.979 15.8505 178.246 15.5543 178.589 15.3434C178.932 15.1325 179.333 15.027 179.794 15.027C180.254 15.027 180.656 15.1325 180.999 15.3434C181.342 15.5543 181.608 15.8505 181.798 16.2319C181.987 16.6133 182.082 17.0586 182.082 17.5678C182.082 18.0749 181.987 18.5181 181.798 18.8974C181.608 19.2766 181.342 19.5717 180.999 19.7827C180.656 19.9936 180.254 20.0991 179.794 20.0991ZM179.797 19.2969C180.095 19.2969 180.342 19.218 180.538 19.0604C180.734 18.9027 180.879 18.6928 180.973 18.4308C181.069 18.1687 181.117 17.88 181.117 17.5646C181.117 17.2514 181.069 16.9638 180.973 16.7017C180.879 16.4375 180.734 16.2255 180.538 16.0657C180.342 15.9059 180.095 15.826 179.797 15.826C179.496 15.826 179.247 15.9059 179.049 16.0657C178.853 16.2255 178.707 16.4375 178.611 16.7017C178.517 16.9638 178.471 17.2514 178.471 17.5646C178.471 17.88 178.517 18.1687 178.611 18.4308C178.707 18.6928 178.853 18.9027 179.049 19.0604C179.247 19.218 179.496 19.2969 179.797 19.2969ZM183.149 20V15.0909H184.066V15.8899H184.127C184.229 15.6193 184.396 15.4084 184.629 15.2571C184.861 15.1037 185.139 15.027 185.463 15.027C185.791 15.027 186.066 15.1037 186.287 15.2571C186.511 15.4105 186.676 15.6214 186.783 15.8899H186.834C186.951 15.6278 187.137 15.419 187.393 15.2635C187.649 15.1058 187.953 15.027 188.307 15.027C188.752 15.027 189.116 15.1665 189.397 15.4457C189.68 15.7248 189.822 16.1456 189.822 16.7081V20H188.866V16.7976C188.866 16.4652 188.776 16.2244 188.595 16.0753C188.414 15.9261 188.197 15.8516 187.946 15.8516C187.635 15.8516 187.393 15.9474 187.22 16.1392C187.048 16.3288 186.962 16.5728 186.962 16.8711V20H186.009V16.7369C186.009 16.4705 185.926 16.2564 185.76 16.0945C185.594 15.9325 185.377 15.8516 185.111 15.8516C184.93 15.8516 184.763 15.8995 184.609 15.9954C184.458 16.0891 184.336 16.2202 184.242 16.3885C184.15 16.5568 184.104 16.7518 184.104 16.9734V20H183.149ZM192.531 20.1087C192.22 20.1087 191.939 20.0511 191.688 19.9361C191.436 19.8189 191.237 19.6495 191.09 19.4279C190.945 19.2063 190.873 18.9347 190.873 18.6129C190.873 18.3359 190.926 18.108 191.033 17.929C191.139 17.75 191.283 17.6083 191.464 17.5039C191.645 17.3995 191.848 17.3207 192.071 17.2674C192.295 17.2141 192.523 17.1737 192.755 17.146C193.049 17.1119 193.288 17.0842 193.471 17.0629C193.654 17.0394 193.788 17.0021 193.871 16.951C193.954 16.8999 193.995 16.8168 193.995 16.7017V16.6793C193.995 16.4002 193.916 16.1839 193.759 16.0305C193.603 15.8771 193.371 15.8004 193.062 15.8004C192.74 15.8004 192.487 15.8718 192.301 16.0146C192.118 16.1552 191.991 16.3118 191.921 16.4844L191.023 16.2798C191.129 15.9815 191.285 15.7408 191.49 15.5575C191.696 15.3722 191.934 15.2379 192.202 15.1548C192.471 15.0696 192.753 15.027 193.049 15.027C193.245 15.027 193.453 15.0504 193.672 15.0973C193.894 15.142 194.101 15.2251 194.292 15.3466C194.486 15.468 194.645 15.6417 194.769 15.8675C194.892 16.0913 194.954 16.3821 194.954 16.7401V20H194.021V19.3288H193.982C193.921 19.4524 193.828 19.5739 193.704 19.6932C193.581 19.8125 193.422 19.9116 193.228 19.9904C193.034 20.0692 192.802 20.1087 192.531 20.1087ZM192.739 19.3416C193.003 19.3416 193.229 19.2894 193.417 19.185C193.606 19.0806 193.75 18.9442 193.848 18.7759C193.948 18.6055 193.998 18.4233 193.998 18.2294V17.5966C193.964 17.6307 193.898 17.6626 193.8 17.6925C193.704 17.7202 193.595 17.7447 193.471 17.766C193.348 17.7852 193.227 17.8033 193.11 17.8203C192.993 17.8352 192.895 17.848 192.816 17.8587C192.631 17.8821 192.461 17.9215 192.308 17.9769C192.156 18.0323 192.035 18.1122 191.943 18.2166C191.854 18.3189 191.809 18.4553 191.809 18.6257C191.809 18.8622 191.897 19.0412 192.071 19.1626C192.246 19.282 192.469 19.3416 192.739 19.3416ZM198.518 15.0909V15.858H195.837V15.0909H198.518ZM196.556 13.9148H197.512V18.5586C197.512 18.744 197.539 18.8835 197.595 18.9773C197.65 19.0689 197.722 19.1317 197.809 19.1658C197.898 19.1978 197.995 19.2138 198.1 19.2138C198.176 19.2138 198.244 19.2085 198.301 19.1978C198.359 19.1871 198.403 19.1786 198.435 19.1722L198.608 19.9616C198.553 19.983 198.474 20.0043 198.371 20.0256C198.269 20.049 198.141 20.0618 197.988 20.0639C197.736 20.0682 197.502 20.0234 197.285 19.9297C197.067 19.8359 196.892 19.6911 196.757 19.495C196.623 19.299 196.556 19.0529 196.556 18.7567V13.9148ZM199.576 20V15.0909H200.531V20H199.576ZM200.058 14.3335C199.892 14.3335 199.749 14.2781 199.63 14.1673C199.513 14.0543 199.454 13.9201 199.454 13.7646C199.454 13.6069 199.513 13.4727 199.63 13.3619C199.749 13.2489 199.892 13.1925 200.058 13.1925C200.224 13.1925 200.366 13.2489 200.483 13.3619C200.602 13.4727 200.662 13.6069 200.662 13.7646C200.662 13.9201 200.602 14.0543 200.483 14.1673C200.366 14.2781 200.224 14.3335 200.058 14.3335ZM203.885 20.0991C203.424 20.0991 203.023 19.9936 202.68 19.7827C202.337 19.5717 202.07 19.2766 201.881 18.8974C201.691 18.5181 201.596 18.0749 201.596 17.5678C201.596 17.0586 201.691 16.6133 201.881 16.2319C202.07 15.8505 202.337 15.5543 202.68 15.3434C203.023 15.1325 203.424 15.027 203.885 15.027C204.345 15.027 204.746 15.1325 205.089 15.3434C205.432 15.5543 205.699 15.8505 205.888 16.2319C206.078 16.6133 206.173 17.0586 206.173 17.5678C206.173 18.0749 206.078 18.5181 205.888 18.8974C205.699 19.2766 205.432 19.5717 205.089 19.7827C204.746 19.9936 204.345 20.0991 203.885 20.0991ZM203.888 19.2969C204.186 19.2969 204.433 19.218 204.629 19.0604C204.825 18.9027 204.97 18.6928 205.064 18.4308C205.16 18.1687 205.208 17.88 205.208 17.5646C205.208 17.2514 205.16 16.9638 205.064 16.7017C204.97 16.4375 204.825 16.2255 204.629 16.0657C204.433 15.9059 204.186 15.826 203.888 15.826C203.587 15.826 203.338 15.9059 203.14 16.0657C202.944 16.2255 202.798 16.4375 202.702 16.7017C202.608 16.9638 202.561 17.2514 202.561 17.5646C202.561 17.88 202.608 18.1687 202.702 18.4308C202.798 18.6928 202.944 18.9027 203.14 19.0604C203.338 19.218 203.587 19.2969 203.888 19.2969ZM208.195 17.0852V20H207.24V15.0909H208.157V15.8899H208.218C208.33 15.63 208.507 15.4212 208.748 15.2635C208.991 15.1058 209.297 15.027 209.665 15.027C210 15.027 210.293 15.0973 210.544 15.2379C210.796 15.3764 210.991 15.5831 211.129 15.858C211.268 16.1328 211.337 16.4727 211.337 16.8775V20H210.381V16.9925C210.381 16.6367 210.289 16.3587 210.103 16.1584C209.918 15.956 209.663 15.8548 209.339 15.8548C209.118 15.8548 208.921 15.9027 208.748 15.9986C208.578 16.0945 208.442 16.2351 208.342 16.4205C208.244 16.6037 208.195 16.8253 208.195 17.0852Z" fill="#000220"/>
<rect x="151" y="26" width="46" height="2" rx="1" fill="#000220" fill-opacity="0.25"/>
<rect x="151" y="31" width="61" height="2" rx="1" fill="#000220" fill-opacity="0.25"/>
<path d="M143 13L145.598 17.5H140.402L143 13Z" fill="white"/>
<line opacity="0.2" x1="239.5" y1="65.3662" x2="239.5" y2="190.366" stroke="white"/>
<path d="M13.3993 226.098C13.0022 226.098 12.6473 226.026 12.3348 225.883C12.0256 225.736 11.7815 225.528 11.6024 225.258C11.4266 224.988 11.3387 224.665 11.3387 224.291V224.125H12.2079V224.291C12.2079 224.496 12.2583 224.677 12.3593 224.833C12.4634 224.986 12.605 225.105 12.7841 225.189C12.9631 225.274 13.1682 225.316 13.3993 225.316C13.6532 225.316 13.868 225.264 14.0438 225.16C14.2229 225.053 14.358 224.896 14.4491 224.691C14.5435 224.483 14.5907 224.229 14.5907 223.93V218.725H15.4696V223.93C15.4696 224.392 15.385 224.786 15.2157 225.111C15.0464 225.434 14.8072 225.679 14.4979 225.849C14.1887 226.015 13.8225 226.098 13.3993 226.098ZM18.1828 226.127C17.8378 226.127 17.5236 226.062 17.2404 225.932C16.9572 225.798 16.7326 225.606 16.5666 225.355C16.4006 225.105 16.3176 224.802 16.3176 224.447C16.3176 224.135 16.3794 223.882 16.5031 223.69C16.6268 223.495 16.7912 223.342 16.9963 223.231C17.2046 223.118 17.4325 223.033 17.6799 222.978C17.9305 222.922 18.1828 222.878 18.4367 222.846C18.7687 222.803 19.0373 222.771 19.2424 222.748C19.4507 222.725 19.6021 222.686 19.6965 222.631C19.7941 222.576 19.843 222.481 19.843 222.348V222.318C19.843 221.97 19.7469 221.7 19.5549 221.508C19.3661 221.312 19.078 221.215 18.6906 221.215C18.2935 221.215 17.981 221.303 17.7531 221.479C17.5253 221.651 17.3658 221.837 17.2746 222.035L16.4738 221.752C16.6171 221.42 16.8075 221.161 17.0451 220.976C17.286 220.79 17.5464 220.66 17.8264 220.585C18.1096 220.51 18.3879 220.473 18.6613 220.473C18.8371 220.473 19.0389 220.494 19.2668 220.536C19.4947 220.575 19.716 220.66 19.9309 220.79C20.149 220.917 20.328 221.111 20.468 221.371C20.6112 221.628 20.6828 221.973 20.6828 222.406V226H19.843V225.258H19.8039C19.7486 225.375 19.6542 225.502 19.5207 225.639C19.3872 225.772 19.2098 225.888 18.9885 225.985C18.7704 226.08 18.5018 226.127 18.1828 226.127ZM18.3098 225.375C18.6418 225.375 18.9217 225.31 19.1496 225.18C19.3775 225.049 19.55 224.882 19.6672 224.677C19.7844 224.468 19.843 224.252 19.843 224.027V223.256C19.8072 223.298 19.729 223.337 19.6086 223.373C19.4914 223.406 19.3547 223.435 19.1984 223.461C19.0454 223.487 18.8957 223.51 18.7492 223.529C18.6027 223.546 18.4855 223.559 18.3977 223.568C18.1796 223.598 17.9761 223.645 17.7873 223.71C17.5985 223.772 17.4455 223.865 17.3283 223.988C17.2144 224.112 17.1574 224.281 17.1574 224.496C17.1574 224.786 17.2648 225.006 17.4797 225.155C17.6978 225.302 17.9745 225.375 18.3098 225.375ZM22.5171 222.719V226H21.687V220.541H22.4878V221.4H22.5659C22.6929 221.12 22.8866 220.896 23.147 220.727C23.4074 220.557 23.7443 220.473 24.1577 220.473C24.5256 220.473 24.8478 220.548 25.1245 220.697C25.4012 220.847 25.6161 221.075 25.7691 221.381C25.9253 221.684 26.0034 222.068 26.0034 222.533V226H25.1734V222.592C25.1734 222.165 25.061 221.832 24.8364 221.591C24.6118 221.347 24.3058 221.225 23.9185 221.225C23.6515 221.225 23.4123 221.283 23.2007 221.4C22.9891 221.518 22.8215 221.687 22.6978 221.908C22.5773 222.13 22.5171 222.4 22.5171 222.719ZM65.7688 226V218.725H70.1341V219.506H66.6477V222.045H69.802V222.826H66.6477V226H65.7688ZM72.8766 226.117C72.3525 226.117 71.8984 226 71.5143 225.766C71.1334 225.531 70.8404 225.204 70.6353 224.784C70.4303 224.361 70.3277 223.871 70.3277 223.314C70.3277 222.755 70.4286 222.261 70.6305 221.835C70.8323 221.409 71.1155 221.075 71.4801 220.834C71.8479 220.593 72.2776 220.473 72.7691 220.473C73.0523 220.473 73.3339 220.52 73.6139 220.614C73.8938 220.709 74.1477 220.862 74.3756 221.073C74.6067 221.285 74.7906 221.565 74.9273 221.913C75.0641 222.261 75.1324 222.689 75.1324 223.197V223.559H70.9234V222.836H74.6783L74.2926 223.109C74.2926 222.745 74.2356 222.421 74.1217 222.138C74.0077 221.854 73.8368 221.632 73.609 221.469C73.3844 221.306 73.1044 221.225 72.7691 221.225C72.4338 221.225 72.1458 221.308 71.9049 221.474C71.6672 221.636 71.485 221.85 71.358 222.113C71.231 222.377 71.1676 222.66 71.1676 222.963V223.441C71.1676 223.855 71.2392 224.205 71.3824 224.491C71.5256 224.778 71.7258 224.996 71.983 225.146C72.2402 225.292 72.538 225.365 72.8766 225.365C73.0947 225.365 73.2932 225.334 73.4723 225.272C73.6513 225.207 73.8059 225.111 73.9361 224.984C74.0663 224.854 74.1656 224.695 74.234 224.506L75.0445 224.74C74.9599 225.014 74.8167 225.255 74.6148 225.463C74.4163 225.668 74.1689 225.829 73.8727 225.946C73.5764 226.06 73.2444 226.117 72.8766 226.117ZM78.3437 226.117C77.9954 226.117 77.7154 226.059 77.5038 225.941C77.2922 225.821 77.1295 225.686 77.0155 225.536C76.9016 225.383 76.8137 225.258 76.7519 225.16H76.6542V226H75.8534V218.725H76.6835V221.41H76.7519C76.8137 221.316 76.9 221.195 77.0107 221.049C77.1213 220.899 77.2808 220.766 77.4892 220.648C77.6975 220.531 77.9791 220.473 78.3339 220.473C78.7929 220.473 79.1965 220.588 79.5448 220.819C79.8931 221.047 80.165 221.373 80.3603 221.796C80.5588 222.216 80.6581 222.712 80.6581 223.285C80.6581 223.861 80.5605 224.363 80.3652 224.789C80.1698 225.212 79.898 225.539 79.5497 225.771C79.2014 226.002 78.7994 226.117 78.3437 226.117ZM78.2362 225.365C78.5846 225.365 78.8759 225.272 79.1103 225.087C79.3446 224.898 79.5204 224.646 79.6376 224.33C79.7581 224.014 79.8183 223.663 79.8183 223.275C79.8183 222.891 79.7597 222.545 79.6425 222.235C79.5253 221.926 79.3495 221.68 79.1152 221.498C78.884 221.316 78.5911 221.225 78.2362 221.225C77.8944 221.225 77.608 221.311 77.3769 221.483C77.1457 221.653 76.97 221.892 76.8495 222.201C76.7323 222.507 76.6737 222.865 76.6737 223.275C76.6737 223.686 76.734 224.049 76.8544 224.364C76.9749 224.677 77.1506 224.923 77.3818 225.102C77.6161 225.277 77.901 225.365 78.2362 225.365ZM122.434 218.725H123.488L125.959 224.76H126.047L128.518 218.725H129.606V226H128.742V220.473H128.674L126.384 226H125.593L123.332 220.473H123.264V226H122.434V218.725ZM132.325 226.127C131.979 226.127 131.665 226.062 131.382 225.932C131.099 225.798 130.874 225.606 130.708 225.355C130.542 225.105 130.459 224.802 130.459 224.447C130.459 224.135 130.521 223.882 130.645 223.69C130.769 223.495 130.933 223.342 131.138 223.231C131.346 223.118 131.574 223.033 131.822 222.978C132.072 222.922 132.325 222.878 132.578 222.846C132.91 222.803 133.179 222.771 133.384 222.748C133.592 222.725 133.744 222.686 133.838 222.631C133.936 222.576 133.985 222.481 133.985 222.348V222.318C133.985 221.97 133.889 221.7 133.697 221.508C133.508 221.312 133.22 221.215 132.832 221.215C132.435 221.215 132.123 221.303 131.895 221.479C131.667 221.651 131.507 221.837 131.416 222.035L130.616 221.752C130.759 221.42 130.949 221.161 131.187 220.976C131.428 220.79 131.688 220.66 131.968 220.585C132.251 220.51 132.53 220.473 132.803 220.473C132.979 220.473 133.181 220.494 133.409 220.536C133.636 220.575 133.858 220.66 134.073 220.79C134.291 220.917 134.47 221.111 134.61 221.371C134.753 221.628 134.825 221.973 134.825 222.406V226H133.985V225.258H133.946C133.89 225.375 133.796 225.502 133.662 225.639C133.529 225.772 133.352 225.888 133.13 225.985C132.912 226.08 132.644 226.127 132.325 226.127ZM132.451 225.375C132.784 225.375 133.063 225.31 133.291 225.18C133.519 225.049 133.692 224.882 133.809 224.677C133.926 224.468 133.985 224.252 133.985 224.027V223.256C133.949 223.298 133.871 223.337 133.75 223.373C133.633 223.406 133.496 223.435 133.34 223.461C133.187 223.487 133.037 223.51 132.891 223.529C132.744 223.546 132.627 223.559 132.539 223.568C132.321 223.598 132.118 223.645 131.929 223.71C131.74 223.772 131.587 223.865 131.47 223.988C131.356 224.112 131.299 224.281 131.299 224.496C131.299 224.786 131.407 225.006 131.621 225.155C131.839 225.302 132.116 225.375 132.451 225.375ZM135.829 226V220.541H136.63V221.371H136.688C136.789 221.101 136.97 220.883 137.23 220.717C137.494 220.548 137.788 220.463 138.114 220.463C138.176 220.463 138.252 220.465 138.343 220.468C138.435 220.468 138.505 220.469 138.553 220.473V221.322C138.524 221.316 138.459 221.306 138.358 221.293C138.257 221.28 138.15 221.273 138.036 221.273C137.772 221.273 137.536 221.329 137.328 221.439C137.119 221.55 136.955 221.701 136.835 221.894C136.717 222.086 136.659 222.305 136.659 222.553V226H135.829ZM178.075 226H177.147L179.823 218.725H180.731L183.397 226H182.479L180.301 219.877H180.243L178.075 226ZM178.416 223.158H182.137V223.939H178.416V223.158ZM183.884 228.041V220.541H184.684V221.41H184.782C184.844 221.316 184.93 221.195 185.041 221.049C185.151 220.899 185.311 220.766 185.519 220.648C185.728 220.531 186.009 220.473 186.364 220.473C186.823 220.473 187.227 220.588 187.575 220.819C187.923 221.047 188.195 221.373 188.39 221.796C188.589 222.216 188.688 222.712 188.688 223.285C188.688 223.861 188.591 224.363 188.395 224.789C188.2 225.212 187.928 225.539 187.58 225.771C187.231 226.002 186.829 226.117 186.374 226.117C186.025 226.117 185.745 226.059 185.534 225.941C185.322 225.821 185.16 225.686 185.046 225.536C184.932 225.383 184.844 225.258 184.782 225.16H184.714V228.041H183.884ZM186.266 225.365C186.615 225.365 186.906 225.272 187.14 225.087C187.375 224.898 187.551 224.646 187.668 224.33C187.788 224.014 187.848 223.663 187.848 223.275C187.848 222.891 187.79 222.545 187.673 222.235C187.555 221.926 187.38 221.68 187.145 221.498C186.914 221.316 186.621 221.225 186.266 221.225C185.925 221.225 185.638 221.311 185.407 221.483C185.176 221.653 185 221.892 184.88 222.201C184.762 222.507 184.704 222.865 184.704 223.275C184.704 223.686 184.764 224.049 184.884 224.364C185.005 224.677 185.181 224.923 185.412 225.102C185.646 225.277 185.931 225.365 186.266 225.365ZM189.429 226V220.541H190.23V221.371H190.288C190.389 221.101 190.57 220.883 190.83 220.717C191.094 220.548 191.388 220.463 191.714 220.463C191.776 220.463 191.852 220.465 191.943 220.468C192.035 220.468 192.105 220.469 192.153 220.473V221.322C192.124 221.316 192.059 221.306 191.958 221.293C191.857 221.28 191.75 221.273 191.636 221.273C191.372 221.273 191.136 221.329 190.928 221.439C190.719 221.55 190.555 221.701 190.435 221.894C190.317 222.086 190.259 222.305 190.259 222.553V226H189.429ZM192.611 226V220.541H193.441V226H192.611ZM193.031 219.633C192.868 219.633 192.728 219.577 192.611 219.467C192.494 219.356 192.435 219.223 192.435 219.066C192.435 218.91 192.494 218.777 192.611 218.666C192.728 218.555 192.868 218.5 193.031 218.5C193.193 218.5 193.333 218.555 193.451 218.666C193.568 218.777 193.626 218.91 193.626 219.066C193.626 219.223 193.568 219.356 193.451 219.467C193.333 219.577 193.193 219.633 193.031 219.633ZM195.275 218.725V226H194.445V218.725H195.275ZM239.588 218.725H240.643L243.113 224.76H243.201L245.672 218.725H246.761V226H245.897V220.473H245.828L243.538 226H242.747L240.486 220.473H240.418V226H239.588V218.725ZM249.479 226.127C249.134 226.127 248.82 226.062 248.537 225.932C248.253 225.798 248.029 225.606 247.863 225.355C247.697 225.105 247.614 224.802 247.614 224.447C247.614 224.135 247.676 223.882 247.799 223.69C247.923 223.495 248.087 223.342 248.292 223.231C248.501 223.118 248.729 223.033 248.976 222.978C249.227 222.922 249.479 222.878 249.733 222.846C250.065 222.803 250.333 222.771 250.538 222.748C250.747 222.725 250.898 222.686 250.993 222.631C251.09 222.576 251.139 222.481 251.139 222.348V222.318C251.139 221.97 251.043 221.7 250.851 221.508C250.662 221.312 250.374 221.215 249.987 221.215C249.59 221.215 249.277 221.303 249.049 221.479C248.821 221.651 248.662 221.837 248.571 222.035L247.77 221.752C247.913 221.42 248.104 221.161 248.341 220.976C248.582 220.79 248.843 220.66 249.122 220.585C249.406 220.51 249.684 220.473 249.957 220.473C250.133 220.473 250.335 220.494 250.563 220.536C250.791 220.575 251.012 220.66 251.227 220.79C251.445 220.917 251.624 221.111 251.764 221.371C251.907 221.628 251.979 221.973 251.979 222.406V226H251.139V225.258H251.1C251.045 225.375 250.95 225.502 250.817 225.639C250.683 225.772 250.506 225.888 250.285 225.985C250.066 226.08 249.798 226.127 249.479 226.127ZM249.606 225.375C249.938 225.375 250.218 225.31 250.446 225.18C250.674 225.049 250.846 224.882 250.963 224.677C251.08 224.468 251.139 224.252 251.139 224.027V223.256C251.103 223.298 251.025 223.337 250.905 223.373C250.787 223.406 250.651 223.435 250.495 223.461C250.342 223.487 250.192 223.51 250.045 223.529C249.899 223.546 249.782 223.559 249.694 223.568C249.476 223.598 249.272 223.645 249.083 223.71C248.895 223.772 248.742 223.865 248.624 223.988C248.51 224.112 248.454 224.281 248.454 224.496C248.454 224.786 248.561 225.006 248.776 225.155C248.994 225.302 249.271 225.375 249.606 225.375ZM253.325 228.041C253.182 228.044 253.055 228.035 252.944 228.012C252.833 227.989 252.755 227.966 252.71 227.943L252.925 227.211L253.008 227.23C253.287 227.296 253.522 227.281 253.711 227.187C253.903 227.095 254.07 226.853 254.214 226.459L254.37 226.029L252.358 220.541H253.266L254.77 224.896H254.829L256.333 220.541H257.241L254.926 226.791C254.822 227.074 254.694 227.309 254.541 227.494C254.388 227.68 254.21 227.816 254.009 227.904C253.807 227.995 253.579 228.041 253.325 228.041ZM300.442 226.098C300.045 226.098 299.69 226.026 299.378 225.883C299.068 225.736 298.824 225.528 298.645 225.258C298.47 224.988 298.382 224.665 298.382 224.291V224.125H299.251V224.291C299.251 224.496 299.301 224.677 299.402 224.833C299.506 224.986 299.648 225.105 299.827 225.189C300.006 225.274 300.211 225.316 300.442 225.316C300.696 225.316 300.911 225.264 301.087 225.16C301.266 225.053 301.401 224.896 301.492 224.691C301.586 224.483 301.634 224.229 301.634 223.93V218.725H302.512V223.93C302.512 224.392 302.428 224.786 302.259 225.111C302.089 225.434 301.85 225.679 301.541 225.849C301.232 226.015 300.865 226.098 300.442 226.098ZM307.062 223.773V220.541H307.892V226H307.062V225.072H307.003C306.873 225.349 306.673 225.585 306.402 225.78C306.136 225.976 305.795 226.072 305.382 226.068C305.04 226.068 304.737 225.995 304.474 225.849C304.21 225.699 304.002 225.471 303.849 225.165C303.699 224.859 303.624 224.473 303.624 224.008V220.541H304.454V223.959C304.454 224.353 304.567 224.669 304.791 224.906C305.019 225.144 305.307 225.261 305.655 225.258C305.864 225.258 306.075 225.206 306.29 225.102C306.508 224.994 306.691 224.831 306.837 224.613C306.987 224.392 307.062 224.112 307.062 223.773ZM309.726 222.719V226H308.896V220.541H309.697V221.4H309.775C309.902 221.12 310.095 220.896 310.356 220.727C310.616 220.557 310.953 220.473 311.367 220.473C311.734 220.473 312.057 220.548 312.333 220.697C312.61 220.847 312.825 221.075 312.978 221.381C313.134 221.684 313.212 222.068 313.212 222.533V226H312.382V222.592C312.382 222.165 312.27 221.832 312.045 221.591C311.821 221.347 311.515 221.225 311.127 221.225C310.86 221.225 310.621 221.283 310.41 221.4C310.198 221.518 310.03 221.687 309.907 221.908C309.786 222.13 309.726 222.4 309.726 222.719ZM316.502 226.117C315.978 226.117 315.524 226 315.139 225.766C314.759 225.531 314.466 225.204 314.26 224.784C314.055 224.361 313.953 223.871 313.953 223.314C313.953 222.755 314.054 222.261 314.256 221.835C314.457 221.409 314.741 221.075 315.105 220.834C315.473 220.593 315.903 220.473 316.394 220.473C316.677 220.473 316.959 220.52 317.239 220.614C317.519 220.709 317.773 220.862 318.001 221.073C318.232 221.285 318.416 221.565 318.552 221.913C318.689 222.261 318.758 222.689 318.758 223.197V223.559H314.549V222.836H318.303L317.918 223.109C317.918 222.745 317.861 222.421 317.747 222.138C317.633 221.854 317.462 221.632 317.234 221.469C317.01 221.306 316.73 221.225 316.394 221.225C316.059 221.225 315.771 221.308 315.53 221.474C315.292 221.636 315.11 221.85 314.983 222.113C314.856 222.377 314.793 222.66 314.793 222.963V223.441C314.793 223.855 314.864 224.205 315.008 224.491C315.151 224.778 315.351 224.996 315.608 225.146C315.865 225.292 316.163 225.365 316.502 225.365C316.72 225.365 316.918 225.334 317.097 225.272C317.276 225.207 317.431 225.111 317.561 224.984C317.691 224.854 317.791 224.695 317.859 224.506L318.67 224.74C318.585 225.014 318.442 225.255 318.24 225.463C318.041 225.668 317.794 225.829 317.498 225.946C317.202 226.06 316.87 226.117 316.502 226.117ZM360.406 220.541H361.236V226.4C361.239 226.736 361.182 227.025 361.065 227.27C360.951 227.517 360.779 227.707 360.548 227.841C360.317 227.974 360.025 228.041 359.674 228.041H359.508V227.26H359.664C359.921 227.26 360.108 227.185 360.225 227.035C360.343 226.889 360.403 226.677 360.406 226.4V220.541ZM360.816 219.633C360.653 219.633 360.514 219.577 360.396 219.467C360.279 219.356 360.221 219.223 360.221 219.066C360.221 218.91 360.279 218.777 360.396 218.666C360.514 218.555 360.653 218.5 360.816 218.5C360.979 218.5 361.119 218.555 361.236 218.666C361.353 218.777 361.412 218.91 361.412 219.066C361.412 219.223 361.353 219.356 361.236 219.467C361.119 219.577 360.979 219.633 360.816 219.633ZM365.678 223.773V220.541H366.508V226H365.678V225.072H365.619C365.489 225.349 365.289 225.585 365.019 225.78C364.752 225.976 364.412 226.072 363.998 226.068C363.656 226.068 363.354 225.995 363.09 225.849C362.826 225.699 362.618 225.471 362.465 225.165C362.315 224.859 362.24 224.473 362.24 224.008V220.541H363.07V223.959C363.07 224.353 363.183 224.669 363.407 224.906C363.635 225.144 363.923 225.261 364.272 225.258C364.48 225.258 364.692 225.206 364.906 225.102C365.125 224.994 365.307 224.831 365.453 224.613C365.603 224.392 365.678 224.112 365.678 223.773ZM368.342 218.725V226H367.512V218.725H368.342ZM369.884 228.041C369.74 228.044 369.613 228.035 369.503 228.012C369.392 227.989 369.314 227.966 369.268 227.943L369.483 227.211L369.566 227.23C369.846 227.296 370.081 227.281 370.269 227.187C370.461 227.095 370.629 226.853 370.772 226.459L370.928 226.029L368.917 220.541H369.825L371.329 224.896H371.387L372.891 220.541H373.8L371.485 226.791C371.381 227.074 371.252 227.309 371.099 227.494C370.946 227.68 370.769 227.816 370.567 227.904C370.365 227.995 370.137 228.041 369.884 228.041Z" fill="#AEB9E1"/>
<line opacity="0.1" x1="11" y1="200.5" x2="377" y2="200.5" stroke="white"/>
<defs>
<linearGradient id="paint0_linear_5007_45139" x1="137.33" y1="59.4227" x2="195.28" y2="189.929" gradientUnits="userSpaceOnUse">
<stop stop-color="#732CFF"/>
<stop offset="1" stop-color="#F46D6B"/>
</linearGradient>
<linearGradient id="paint1_linear_5007_45139" x1="187.069" y1="34.7165" x2="187.598" y2="147.409" gradientUnits="userSpaceOnUse">
<stop stop-color="#732CFF" stop-opacity="0.6"/>
<stop offset="1" stop-color="#732CFF" stop-opacity="0"/>
</linearGradient>
</defs>
</svg>
