<svg width="593" height="460" viewBox="0 0 593 460" fill="none" xmlns="http://www.w3.org/2000/svg">
<path opacity="0.35" d="M593 27.2629H-0.000213861M593 205.711H-0.000213861M593 384.159H-0.000213861M593 116.487H-0.000213861M593 294.935H-0.000213861M593 71.875H-0.000213861M593 250.323H-0.000213861M593 428.772H-0.000213861M593 161.099H-0.000213861M593 339.547H-0.000213861M564.701 0L564.701 460M412.65 0L412.65 460M260.599 0V460M108.548 0V460M488.676 0L488.676 460M336.624 0L336.624 460M184.573 0L184.573 460M32.5219 0V460M526.689 0L526.689 460M374.637 0L374.637 460M222.586 0L222.586 460M70.5347 0V460M450.663 0L450.663 460M298.612 0L298.612 460M146.56 0V460" stroke="url(#paint0_radial_74_403)"/>
<defs>
<radialGradient id="paint0_radial_74_403" cx="0" cy="0" r="1" gradientUnits="userSpaceOnUse" gradientTransform="translate(370.5 136) rotate(84.1621) scale(201.545 259.814)">
<stop stop-color="#E2DFFF"/>
<stop offset="1" stop-color="#000223"/>
</radialGradient>
</defs>
</svg>
