<svg width="43" height="43" viewBox="0 0 43 43" fill="none" xmlns="http://www.w3.org/2000/svg">
<circle cx="21.5" cy="21.5" r="21.5" fill="url(#paint0_linear_2013_43049)"/>
<path d="M16.2905 31.0703C15.9643 31.0703 15.6811 31.0195 15.4409 30.918C15.2026 30.8145 15.0161 30.667 14.8813 30.4756C14.7466 30.2842 14.6714 30.0566 14.6557 29.793H15.3179C15.3315 29.9512 15.3823 30.083 15.4702 30.1885C15.56 30.292 15.6763 30.3691 15.8188 30.4199C15.9614 30.4707 16.1177 30.4961 16.2876 30.4961C16.4731 30.4961 16.6391 30.4668 16.7856 30.4082C16.9321 30.3496 17.0464 30.2676 17.1284 30.1621C17.2124 30.0547 17.2544 29.9297 17.2544 29.7871C17.2544 29.6582 17.2173 29.5527 17.1431 29.4707C17.0708 29.3887 16.9722 29.3213 16.8472 29.2686C16.7222 29.2139 16.5815 29.166 16.4253 29.125L15.9126 28.9844C15.561 28.8906 15.2837 28.751 15.0806 28.5654C14.8774 28.3779 14.7759 28.1328 14.7759 27.8301C14.7759 27.5781 14.8432 27.3584 14.978 27.1709C15.1147 26.9834 15.2993 26.8379 15.5317 26.7344C15.7661 26.6289 16.0288 26.5762 16.3198 26.5762C16.6167 26.5762 16.8774 26.6289 17.102 26.7344C17.3286 26.8379 17.5073 26.9805 17.6382 27.1621C17.771 27.3418 17.8403 27.5479 17.8462 27.7803H17.2075C17.1841 27.5791 17.0903 27.4229 16.9263 27.3115C16.7641 27.2002 16.5571 27.1445 16.3052 27.1445C16.1294 27.1445 15.9751 27.1729 15.8423 27.2295C15.7114 27.2842 15.6099 27.3604 15.5376 27.458C15.4673 27.5557 15.4321 27.668 15.4321 27.7949C15.4321 27.9316 15.4741 28.043 15.5581 28.1289C15.644 28.2148 15.7475 28.2832 15.8686 28.334C15.9917 28.3828 16.1099 28.4229 16.2231 28.4541L16.6479 28.5684C16.7866 28.6035 16.9292 28.6504 17.0757 28.709C17.2222 28.7676 17.3579 28.8447 17.4829 28.9404C17.6099 29.0342 17.7114 29.1514 17.7876 29.292C17.8657 29.4307 17.9048 29.5986 17.9048 29.7959C17.9048 30.04 17.8413 30.2588 17.7143 30.4521C17.5874 30.6436 17.4038 30.7949 17.1636 30.9062C16.9233 31.0156 16.6323 31.0703 16.2905 31.0703ZM19.3823 31.0703C19.1753 31.0703 18.9878 31.0322 18.8198 30.9561C18.6519 30.8779 18.519 30.7646 18.4214 30.6162C18.3237 30.4678 18.2749 30.2871 18.2749 30.0742C18.2749 29.8887 18.3101 29.7373 18.3804 29.6201C18.4526 29.501 18.5493 29.4062 18.6704 29.3359C18.7915 29.2656 18.9263 29.2129 19.0747 29.1777C19.2231 29.1426 19.3755 29.1152 19.5317 29.0957C19.729 29.0742 19.8882 29.0557 20.0093 29.04C20.1304 29.0244 20.2183 29 20.2729 28.9668C20.3296 28.9316 20.3579 28.876 20.3579 28.7998V28.7852C20.3579 28.5996 20.3052 28.4561 20.1997 28.3545C20.0962 28.2529 19.9419 28.2021 19.7368 28.2021C19.5239 28.2021 19.355 28.249 19.23 28.3428C19.1069 28.4346 19.022 28.5391 18.9751 28.6562L18.3745 28.5186C18.4468 28.3193 18.5513 28.1592 18.688 28.0381C18.8267 27.915 18.9849 27.8252 19.1626 27.7686C19.3423 27.7119 19.5298 27.6836 19.7251 27.6836C19.856 27.6836 19.9946 27.6992 20.1411 27.7305C20.2876 27.7598 20.4253 27.8154 20.5542 27.8975C20.6851 27.9775 20.7915 28.0928 20.8735 28.2432C20.9556 28.3936 20.9966 28.5879 20.9966 28.8262V31H20.3726V30.5518H20.3491C20.3101 30.6318 20.2485 30.7119 20.1645 30.792C20.0825 30.8721 19.977 30.9385 19.8481 30.9912C19.7192 31.0439 19.564 31.0703 19.3823 31.0703ZM19.52 30.5605C19.6978 30.5605 19.8491 30.5264 19.9741 30.458C20.0991 30.3877 20.1948 30.2959 20.2612 30.1826C20.3276 30.0693 20.3608 29.9492 20.3608 29.8223V29.3975C20.3374 29.4189 20.2935 29.4395 20.229 29.459C20.1645 29.4785 20.0913 29.4951 20.0093 29.5088C19.9272 29.5225 19.8472 29.5352 19.769 29.5469C19.6909 29.5566 19.6255 29.5645 19.5728 29.5703C19.4497 29.5879 19.3374 29.6152 19.2358 29.6523C19.1343 29.6875 19.0522 29.7402 18.9897 29.8105C18.9292 29.8789 18.8989 29.9697 18.8989 30.083C18.8989 30.2412 18.9575 30.3604 19.0747 30.4404C19.1919 30.5205 19.3403 30.5605 19.52 30.5605ZM22.6001 31.0703C22.3931 31.0703 22.2056 31.0322 22.0376 30.9561C21.8696 30.8779 21.7368 30.7646 21.6392 30.6162C21.5415 30.4678 21.4927 30.2871 21.4927 30.0742C21.4927 29.8887 21.5278 29.7373 21.5981 29.6201C21.6704 29.501 21.7671 29.4062 21.8882 29.3359C22.0093 29.2656 22.144 29.2129 22.2925 29.1777C22.4409 29.1426 22.5933 29.1152 22.7495 29.0957C22.9468 29.0742 23.106 29.0557 23.2271 29.04C23.3481 29.0244 23.436 29 23.4907 28.9668C23.5474 28.9316 23.5757 28.876 23.5757 28.7998V28.7852C23.5757 28.5996 23.523 28.4561 23.4175 28.3545C23.314 28.2529 23.1597 28.2021 22.9546 28.2021C22.7417 28.2021 22.5728 28.249 22.4478 28.3428C22.3247 28.4346 22.2397 28.5391 22.1929 28.6562L21.5923 28.5186C21.6646 28.3193 21.769 28.1592 21.9058 28.0381C22.0444 27.915 22.2026 27.8252 22.3804 27.7686C22.5601 27.7119 22.7476 27.6836 22.9429 27.6836C23.0737 27.6836 23.2124 27.6992 23.3589 27.7305C23.5054 27.7598 23.6431 27.8154 23.772 27.8975C23.9028 27.9775 24.0093 28.0928 24.0913 28.2432C24.1733 28.3936 24.2144 28.5879 24.2144 28.8262V31H23.5903V30.5518H23.5669C23.5278 30.6318 23.4663 30.7119 23.3823 30.792C23.3003 30.8721 23.1948 30.9385 23.0659 30.9912C22.937 31.0439 22.7817 31.0703 22.6001 31.0703ZM22.7378 30.5605C22.9155 30.5605 23.0669 30.5264 23.1919 30.458C23.3169 30.3877 23.4126 30.2959 23.479 30.1826C23.5454 30.0693 23.5786 29.9492 23.5786 29.8223V29.3975C23.5552 29.4189 23.5112 29.4395 23.4468 29.459C23.3823 29.4785 23.3091 29.4951 23.2271 29.5088C23.145 29.5225 23.0649 29.5352 22.9868 29.5469C22.9087 29.5566 22.8433 29.5645 22.7905 29.5703C22.6675 29.5879 22.5552 29.6152 22.4536 29.6523C22.3521 29.6875 22.27 29.7402 22.2075 29.8105C22.147 29.8789 22.1167 29.9697 22.1167 30.083C22.1167 30.2412 22.1753 30.3604 22.2925 30.4404C22.4097 30.5205 22.5581 30.5605 22.7378 30.5605ZM27.3179 28.5273L26.7407 28.627C26.7036 28.5176 26.6343 28.417 26.5327 28.3252C26.4331 28.2334 26.2837 28.1875 26.0845 28.1875C25.9048 28.1875 25.7544 28.2285 25.6333 28.3105C25.5142 28.3906 25.4546 28.4932 25.4546 28.6182C25.4546 28.7275 25.4946 28.8164 25.5747 28.8848C25.6567 28.9531 25.7866 29.0078 25.9644 29.0488L26.4888 29.166C26.7876 29.2344 27.0112 29.3418 27.1597 29.4883C27.3081 29.6348 27.3823 29.8223 27.3823 30.0508C27.3823 30.248 27.3257 30.4238 27.2124 30.5781C27.0991 30.7305 26.9419 30.8506 26.7407 30.9385C26.5396 31.0244 26.3071 31.0674 26.0435 31.0674C25.6763 31.0674 25.3775 30.9883 25.147 30.8301C24.9165 30.6719 24.7749 30.4492 24.7222 30.1621L25.3345 30.0684C25.3735 30.2285 25.4526 30.3496 25.5718 30.4316C25.6929 30.5137 25.8491 30.5547 26.0405 30.5547C26.2476 30.5547 26.4136 30.5107 26.5386 30.4229C26.6655 30.335 26.729 30.2285 26.729 30.1035C26.729 29.8965 26.5747 29.7568 26.2661 29.6846L25.7124 29.5615C25.4058 29.4912 25.1792 29.3809 25.0327 29.2305C24.8882 29.0781 24.8159 28.8867 24.8159 28.6562C24.8159 28.4629 24.8696 28.293 24.9771 28.1465C25.0864 28 25.2359 27.8867 25.4253 27.8066C25.6167 27.7246 25.8345 27.6836 26.0786 27.6836C26.4341 27.6836 26.7124 27.7607 26.9136 27.915C27.1167 28.0693 27.2515 28.2734 27.3179 28.5273Z" fill="white"/>
<path d="M12.5898 22.1172C12.0547 22.1172 11.5742 22.0156 11.1484 21.8125C10.7265 21.6055 10.3887 21.3223 10.1348 20.9629C9.88084 20.5996 9.74608 20.1875 9.73045 19.7266H11.0078C11.039 20.0977 11.2051 20.4043 11.5058 20.6465C11.8066 20.8887 12.168 21.0098 12.5898 21.0098C12.9258 21.0098 13.2226 20.9316 13.4805 20.7754C13.7383 20.6191 13.9414 20.4062 14.0898 20.1367C14.2383 19.8633 14.3125 19.5508 14.3125 19.1992C14.3125 18.8477 14.2363 18.5332 14.084 18.2559C13.9316 17.9746 13.7207 17.7539 13.4512 17.5938C13.1855 17.4336 12.8789 17.3535 12.5312 17.3535C12.2656 17.3535 12 17.4004 11.7344 17.4941C11.4687 17.584 11.2539 17.7012 11.0898 17.8457L9.87694 17.6699L10.3691 13.2695H15.168V14.4004H11.4707L11.1953 16.8438H11.2422C11.4101 16.6758 11.6348 16.5391 11.916 16.4336C12.2012 16.3242 12.5078 16.2695 12.8359 16.2695C13.3672 16.2695 13.8398 16.3965 14.2539 16.6504C14.6719 16.9004 15 17.2441 15.2383 17.6816C15.4765 18.1152 15.5957 18.6133 15.5957 19.1758C15.5957 19.7422 15.4668 20.248 15.209 20.6934C14.9512 21.1348 14.5957 21.4824 14.1426 21.7363C13.6933 21.9902 13.1758 22.1172 12.5898 22.1172ZM19.7285 22.1172C19.0566 22.1172 18.4805 21.9414 18 21.5898C17.5234 21.2383 17.1582 20.7305 16.9043 20.0664C16.6543 19.3984 16.5293 18.5898 16.5293 17.6406C16.5293 16.6953 16.6563 15.8887 16.9102 15.2207C17.1641 14.5488 17.5293 14.0371 18.0059 13.6855C18.4863 13.3301 19.0605 13.1523 19.7285 13.1523C20.4004 13.1523 20.9746 13.3301 21.4512 13.6855C21.9316 14.0371 22.2969 14.5488 22.5469 15.2207C22.8008 15.8887 22.9277 16.6953 22.9277 17.6406C22.9277 18.5898 22.8027 19.3984 22.5527 20.0664C22.3027 20.7305 21.9395 21.2383 21.4629 21.5898C20.9863 21.9414 20.4082 22.1172 19.7285 22.1172ZM19.7285 20.9922C20.1387 20.9922 20.4844 20.8613 20.7656 20.5996C21.0469 20.3379 21.2617 19.957 21.4102 19.457C21.5586 18.9531 21.6328 18.3477 21.6328 17.6406C21.6328 16.9297 21.5586 16.3242 21.4102 15.8242C21.2617 15.3203 21.0469 14.9375 20.7656 14.6758C20.4844 14.4102 20.1387 14.2773 19.7285 14.2773C19.123 14.2773 18.6543 14.5723 18.3223 15.1621C17.9941 15.748 17.8301 16.5742 17.8301 17.6406C17.8301 18.3477 17.9043 18.9531 18.0527 19.457C18.2012 19.957 18.416 20.3379 18.6973 20.5996C18.9824 20.8613 19.3262 20.9922 19.7285 20.9922ZM28.5899 20.3594V19.9023C28.5899 19.5703 28.6582 19.2676 28.7949 18.9941C28.9317 18.7207 29.1328 18.502 29.3985 18.3379C29.6641 18.1699 29.9863 18.0859 30.3653 18.0859C30.752 18.0859 31.0762 18.168 31.3379 18.332C31.5996 18.4961 31.7969 18.7168 31.9297 18.9941C32.0625 19.2676 32.1289 19.5703 32.1289 19.9023V20.3594C32.1289 20.6914 32.0606 20.9961 31.9238 21.2734C31.791 21.5469 31.5938 21.7656 31.332 21.9297C31.0703 22.0938 30.7481 22.1758 30.3653 22.1758C29.9824 22.1758 29.6582 22.0938 29.3926 21.9297C29.127 21.7656 28.9258 21.5469 28.7891 21.2734C28.6563 20.9961 28.5899 20.6914 28.5899 20.3594ZM29.5801 19.9023V20.3594C29.5801 20.6055 29.6387 20.8281 29.7559 21.0273C29.8731 21.2266 30.0762 21.3262 30.3653 21.3262C30.6504 21.3262 30.8496 21.2266 30.9629 21.0273C31.0762 20.8281 31.1328 20.6055 31.1328 20.3594V19.9023C31.1328 19.6562 31.0781 19.4355 30.9688 19.2402C30.8594 19.041 30.6582 18.9414 30.3653 18.9414C30.0801 18.9414 29.877 19.041 29.7559 19.2402C29.6387 19.4355 29.5801 19.6562 29.5801 19.9023ZM24.2012 15.3672V14.9102C24.2012 14.5781 24.2695 14.2754 24.4063 14.002C24.5469 13.7246 24.7481 13.5039 25.0098 13.3398C25.2754 13.1758 25.5957 13.0938 25.9707 13.0938C26.3574 13.0938 26.6817 13.1758 26.9434 13.3398C27.209 13.5039 27.4082 13.7246 27.541 14.002C27.6738 14.2754 27.7383 14.5781 27.7344 14.9102V15.3672C27.7383 15.6953 27.6719 15.998 27.5352 16.2754C27.3985 16.5488 27.1992 16.7695 26.9375 16.9375C26.6758 17.1016 26.3535 17.1836 25.9707 17.1836C25.5879 17.1836 25.2637 17.1016 24.9981 16.9375C24.7363 16.7695 24.5371 16.5488 24.4004 16.2754C24.2676 15.998 24.2012 15.6953 24.2012 15.3672ZM25.1914 14.9102V15.3672C25.1914 15.6133 25.25 15.8359 25.3672 16.0352C25.4844 16.2344 25.6856 16.332 25.9707 16.3281C26.2598 16.332 26.461 16.2344 26.5742 16.0352C26.6875 15.8359 26.7442 15.6133 26.7442 15.3672V14.9102C26.7442 14.6641 26.6895 14.4414 26.5801 14.2422C26.4707 14.043 26.2676 13.9453 25.9707 13.9492C25.6895 13.9453 25.4883 14.043 25.3672 14.2422C25.25 14.4414 25.1914 14.6641 25.1914 14.9102ZM24.6055 22L30.6055 13.2695H31.625L25.625 22H24.6055Z" fill="white"/>
<defs>
<linearGradient id="paint0_linear_2013_43049" x1="14.8054" y1="5.92216" x2="48.8145" y2="18.6475" gradientUnits="userSpaceOnUse">
<stop stop-color="#732CFF"/>
</linearGradient>
</defs>
</svg>
