<svg width="1024" height="1341" viewBox="0 0 1024 1341" fill="none" xmlns="http://www.w3.org/2000/svg">
<g filter="url(#filter0_f_2089_43058)">
<ellipse cx="212.421" cy="670.469" rx="420.893" ry="48.2185" transform="rotate(31.0617 212.421 670.469)" fill="#F46D6B"/>
</g>
<path opacity="0.11" d="M77.9758 499.301C78.4765 499.572 78.6627 500.198 78.3915 500.698C78.1204 501.199 77.4947 501.385 76.994 501.114C76.4933 500.843 76.3072 500.217 76.5783 499.716C76.8494 499.216 77.4751 499.03 77.9758 499.301Z" fill="white"/>
<path d="M83.6161 495.91C83.9915 496.113 84.1311 496.582 83.9278 496.958C83.7245 497.333 83.2554 497.473 82.88 497.269C82.5045 497.066 82.365 496.597 82.5683 496.222C82.7715 495.846 83.2407 495.707 83.6161 495.91Z" fill="white"/>
<path d="M93.4208 513.521C93.7962 513.724 93.9358 514.194 93.7325 514.569C93.5292 514.944 93.0601 515.084 92.6847 514.881C92.3092 514.677 92.1697 514.208 92.373 513.833C92.5762 513.457 93.0454 513.318 93.4208 513.521Z" fill="white"/>
<path d="M54.412 493.575C54.7874 493.778 54.927 494.247 54.7237 494.623C54.5204 494.998 54.0513 495.138 53.6759 494.934C53.3004 494.731 53.1609 494.262 53.3642 493.887C53.5674 493.511 54.0366 493.372 54.412 493.575Z" fill="white"/>
<path opacity="0.11" d="M37.8679 470.555C38.3686 470.826 38.5547 471.451 38.2836 471.952C38.0125 472.453 37.3868 472.639 36.8861 472.368C36.3854 472.097 36.1993 471.471 36.4704 470.97C36.7415 470.47 37.3672 470.284 37.8679 470.555Z" fill="white"/>
<path d="M23.8643 475.863C24.1144 475.998 24.2074 476.311 24.072 476.561C23.9366 476.811 23.624 476.904 23.3738 476.769C23.1237 476.633 23.0307 476.321 23.1662 476.07C23.3016 475.82 23.6142 475.727 23.8643 475.863Z" fill="white"/>
<path d="M86.1807 480.892C86.4308 481.028 86.5238 481.34 86.3884 481.59C86.253 481.84 85.9404 481.933 85.6902 481.798C85.4401 481.663 85.3471 481.35 85.4826 481.1C85.618 480.85 85.9306 480.757 86.1807 480.892Z" fill="white"/>
<path d="M184.97 534.378C185.22 534.514 185.313 534.826 185.177 535.077C185.042 535.327 184.729 535.42 184.479 535.284C184.229 535.149 184.136 534.836 184.272 534.586C184.407 534.336 184.72 534.243 184.97 534.378Z" fill="white"/>
<path d="M221.109 585.593C221.36 585.729 221.453 586.041 221.317 586.291C221.182 586.542 220.869 586.635 220.619 586.499C220.369 586.364 220.276 586.051 220.411 585.801C220.547 585.551 220.859 585.458 221.109 585.593Z" fill="white"/>
<path d="M256.696 562.083C256.946 562.218 257.039 562.531 256.904 562.781C256.769 563.031 256.456 563.124 256.206 562.988C255.956 562.853 255.863 562.54 255.998 562.29C256.134 562.04 256.446 561.947 256.696 562.083Z" fill="white"/>
<path opacity="0.11" d="M22.9712 467.763C23.2214 467.899 23.3144 468.211 23.1789 468.461C23.0435 468.712 22.7309 468.805 22.4808 468.669C22.2306 468.534 22.1376 468.221 22.2731 467.971C22.4085 467.721 22.7211 467.628 22.9712 467.763Z" fill="white"/>
<path opacity="0.11" d="M94.1143 464.087C94.3644 464.223 94.4574 464.535 94.322 464.786C94.1865 465.036 93.874 465.129 93.6238 464.993C93.3737 464.858 93.2807 464.545 93.4161 464.295C93.5516 464.045 93.8642 463.952 94.1143 464.087Z" fill="white"/>
<path opacity="0.11" d="M178.657 515.727C178.907 515.863 179 516.175 178.865 516.425C178.729 516.675 178.417 516.768 178.167 516.633C177.917 516.497 177.824 516.185 177.959 515.935C178.095 515.685 178.407 515.592 178.657 515.727Z" fill="white"/>
<path d="M34.836 514.034C35.0861 514.169 35.1791 514.482 35.0437 514.732C34.9082 514.982 34.5957 515.075 34.3455 514.94C34.0954 514.804 34.0024 514.492 34.1378 514.241C34.2732 513.991 34.5858 513.898 34.836 514.034Z" fill="white"/>
<path d="M104.128 552.724C104.379 552.86 104.472 553.172 104.336 553.422C104.201 553.672 103.888 553.765 103.638 553.63C103.388 553.495 103.295 553.182 103.43 552.932C103.566 552.682 103.878 552.589 104.128 552.724Z" fill="white"/>
<path d="M26.5947 455.661C26.8449 455.796 26.9379 456.109 26.8024 456.359C26.667 456.609 26.3544 456.702 26.1043 456.567C25.8541 456.431 25.7612 456.119 25.8966 455.868C26.032 455.618 26.3446 455.525 26.5947 455.661Z" fill="white"/>
<path opacity="0.3" d="M48.8858 507.575C49.1359 507.71 49.2289 508.023 49.0935 508.273C48.958 508.523 48.6455 508.616 48.3953 508.481C48.1452 508.345 48.0522 508.033 48.1876 507.782C48.3231 507.532 48.6356 507.439 48.8858 507.575Z" fill="white"/>
<path opacity="0.3" d="M38.9639 451.222C39.2141 451.358 39.307 451.67 39.1716 451.92C39.0361 452.171 38.7236 452.263 38.4734 452.128C38.2233 451.993 38.1303 451.68 38.2657 451.43C38.4012 451.18 38.7138 451.087 38.9639 451.222Z" fill="white"/>
<path opacity="0.3" d="M238.12 594.215C238.37 594.351 238.463 594.663 238.328 594.914C238.192 595.164 237.88 595.257 237.63 595.121C237.38 594.986 237.287 594.673 237.422 594.423C237.557 594.173 237.87 594.08 238.12 594.215Z" fill="white"/>
<path opacity="0.11" d="M155.105 573.295C155.355 573.431 155.448 573.743 155.313 573.994C155.177 574.244 154.865 574.337 154.615 574.201C154.364 574.066 154.271 573.753 154.407 573.503C154.542 573.253 154.855 573.16 155.105 573.295Z" fill="white"/>
<path opacity="0.11" d="M236.437 568.109C236.687 568.244 236.78 568.557 236.644 568.807C236.509 569.057 236.196 569.15 235.946 569.015C235.696 568.879 235.603 568.567 235.738 568.317C235.874 568.066 236.186 567.973 236.437 568.109Z" fill="white"/>
<path opacity="0.3" d="M123.999 501.953C124.5 502.224 124.686 502.85 124.415 503.351C124.143 503.851 123.518 504.037 123.017 503.766C122.516 503.495 122.33 502.869 122.601 502.369C122.872 501.868 123.498 501.682 123.999 501.953Z" fill="white"/>
<path opacity="0.11" d="M143.377 530.024C143.877 530.295 144.064 530.921 143.792 531.422C143.521 531.923 142.896 532.109 142.395 531.838C141.894 531.566 141.708 530.941 141.979 530.44C142.25 529.939 142.876 529.753 143.377 530.024Z" fill="white"/>
<path d="M134.564 545.761C134.939 545.965 135.079 546.434 134.876 546.809C134.672 547.185 134.203 547.324 133.828 547.121C133.452 546.918 133.313 546.449 133.516 546.073C133.719 545.698 134.188 545.558 134.564 545.761Z" fill="white"/>
<path d="M129.061 481.251C129.437 481.454 129.576 481.923 129.373 482.299C129.17 482.674 128.701 482.814 128.325 482.61C127.95 482.407 127.81 481.938 128.014 481.562C128.217 481.187 128.686 481.047 129.061 481.251Z" fill="white"/>
<path d="M284.409 553.645C284.784 553.849 284.924 554.318 284.72 554.693C284.517 555.069 284.048 555.208 283.672 555.005C283.297 554.802 283.157 554.332 283.361 553.957C283.564 553.582 284.033 553.442 284.409 553.645Z" fill="white"/>
<path d="M117.723 524.922C118.098 525.125 118.238 525.594 118.034 525.969C117.831 526.345 117.362 526.484 116.986 526.281C116.611 526.078 116.471 525.609 116.675 525.233C116.878 524.858 117.347 524.718 117.723 524.922Z" fill="white"/>
<path d="M57.0297 448.698C57.4051 448.901 57.5447 449.37 57.3414 449.746C57.1381 450.121 56.669 450.261 56.2936 450.058C55.9181 449.854 55.7786 449.385 55.9819 449.01C56.1851 448.634 56.6543 448.495 57.0297 448.698Z" fill="white"/>
<path d="M181.772 491.04C182.148 491.243 182.287 491.712 182.084 492.088C181.881 492.463 181.412 492.603 181.036 492.399C180.661 492.196 180.521 491.727 180.725 491.351C180.928 490.976 181.397 490.837 181.772 491.04Z" fill="white"/>
<path d="M285.168 586.874C285.543 587.077 285.683 587.546 285.48 587.922C285.276 588.297 284.807 588.437 284.432 588.233C284.056 588.03 283.917 587.561 284.12 587.185C284.323 586.81 284.792 586.67 285.168 586.874Z" fill="white"/>
<path d="M282.55 617.685C282.925 617.889 283.065 618.358 282.861 618.733C282.658 619.109 282.189 619.248 281.814 619.045C281.438 618.842 281.299 618.372 281.502 617.997C281.705 617.622 282.174 617.482 282.55 617.685Z" fill="white"/>
<path opacity="0.3" d="M172.196 565.55C172.697 565.821 172.883 566.447 172.612 566.947C172.341 567.448 171.715 567.634 171.214 567.363C170.714 567.092 170.527 566.466 170.799 565.965C171.07 565.465 171.695 565.279 172.196 565.55Z" fill="white"/>
<path d="M154.772 597.722C155.273 597.993 155.459 598.618 155.188 599.119C154.917 599.62 154.291 599.806 153.79 599.535C153.29 599.264 153.104 598.638 153.375 598.137C153.646 597.637 154.272 597.45 154.772 597.722Z" fill="white"/>
<path d="M200.93 568.217C201.305 568.42 201.445 568.889 201.241 569.264C201.038 569.64 200.569 569.779 200.193 569.576C199.818 569.373 199.678 568.904 199.882 568.528C200.085 568.153 200.554 568.013 200.93 568.217Z" fill="white"/>
<path opacity="0.3" d="M213.339 597.789C213.84 598.06 214.026 598.686 213.755 599.186C213.484 599.687 212.858 599.873 212.357 599.602C211.857 599.331 211.67 598.705 211.942 598.205C212.213 597.704 212.838 597.518 213.339 597.789Z" fill="white"/>
<path opacity="0.3" d="M275.62 589.905C276.121 590.176 276.307 590.802 276.036 591.303C275.765 591.803 275.139 591.99 274.639 591.718C274.138 591.447 273.952 590.822 274.223 590.321C274.494 589.82 275.12 589.634 275.62 589.905Z" fill="white"/>
<path opacity="0.3" d="M223.092 560.294C223.592 560.565 223.778 561.191 223.507 561.691C223.236 562.192 222.61 562.378 222.11 562.107C221.609 561.836 221.423 561.21 221.694 560.71C221.965 560.209 222.591 560.023 223.092 560.294Z" fill="white"/>
<path opacity="0.11" d="M249.68 593.44C250.181 593.711 250.367 594.337 250.096 594.838C249.825 595.339 249.199 595.525 248.698 595.254C248.197 594.982 248.011 594.357 248.282 593.856C248.554 593.355 249.179 593.169 249.68 593.44Z" fill="white"/>
<path opacity="0.11" d="M159.757 722.527C160.257 722.798 160.443 723.424 160.172 723.925C159.901 724.425 159.275 724.612 158.775 724.34C158.274 724.069 158.088 723.444 158.359 722.943C158.63 722.442 159.256 722.256 159.757 722.527Z" fill="white"/>
<path d="M165.398 719.137C165.774 719.341 165.913 719.81 165.71 720.185C165.507 720.561 165.038 720.7 164.662 720.497C164.287 720.294 164.147 719.825 164.35 719.449C164.554 719.074 165.023 718.934 165.398 719.137Z" fill="white"/>
<path d="M175.203 736.749C175.578 736.952 175.718 737.421 175.515 737.797C175.311 738.172 174.842 738.312 174.467 738.108C174.091 737.905 173.952 737.436 174.155 737.06C174.358 736.685 174.828 736.545 175.203 736.749Z" fill="white"/>
<path d="M136.193 716.801C136.568 717.005 136.708 717.474 136.504 717.849C136.301 718.225 135.832 718.364 135.457 718.161C135.081 717.958 134.942 717.489 135.145 717.113C135.348 716.738 135.817 716.598 136.193 716.801Z" fill="white"/>
<path opacity="0.11" d="M119.649 693.782C120.15 694.053 120.336 694.679 120.065 695.18C119.794 695.68 119.168 695.867 118.667 695.595C118.167 695.324 117.981 694.699 118.252 694.198C118.523 693.697 119.148 693.511 119.649 693.782Z" fill="white"/>
<path d="M105.644 699.088C105.894 699.224 105.987 699.536 105.852 699.787C105.716 700.037 105.404 700.13 105.154 699.994C104.903 699.859 104.81 699.546 104.946 699.296C105.081 699.046 105.394 698.953 105.644 699.088Z" fill="white"/>
<path d="M167.961 704.119C168.211 704.254 168.304 704.567 168.169 704.817C168.033 705.067 167.721 705.16 167.471 705.025C167.22 704.889 167.127 704.577 167.263 704.326C167.398 704.076 167.711 703.983 167.961 704.119Z" fill="white"/>
<path d="M266.75 757.603C267 757.739 267.093 758.051 266.958 758.301C266.822 758.551 266.51 758.644 266.26 758.509C266.009 758.373 265.916 758.061 266.052 757.811C266.187 757.561 266.5 757.468 266.75 757.603Z" fill="white"/>
<path d="M302.891 808.818C303.141 808.953 303.234 809.266 303.098 809.516C302.963 809.766 302.65 809.859 302.4 809.724C302.15 809.588 302.057 809.276 302.192 809.026C302.328 808.775 302.641 808.682 302.891 808.818Z" fill="white"/>
<path d="M338.477 785.306C338.727 785.442 338.82 785.754 338.684 786.004C338.549 786.254 338.236 786.347 337.986 786.212C337.736 786.077 337.643 785.764 337.778 785.514C337.914 785.264 338.226 785.171 338.477 785.306Z" fill="white"/>
<path d="M10.9327 633.748C11.1828 633.883 11.2758 634.196 11.1403 634.446C11.0049 634.696 10.6923 634.789 10.4422 634.653C10.192 634.518 10.0991 634.205 10.2345 633.955C10.3699 633.705 10.6825 633.612 10.9327 633.748Z" fill="white"/>
<path opacity="0.11" d="M6.72366 614.473C6.9738 614.609 7.06681 614.921 6.93136 615.171C6.79592 615.421 6.48334 615.514 6.23319 615.379C5.98305 615.244 5.89007 614.931 6.02551 614.681C6.16095 614.431 6.47351 614.338 6.72366 614.473Z" fill="white"/>
<path opacity="0.11" d="M104.753 690.992C105.003 691.127 105.096 691.44 104.961 691.69C104.825 691.94 104.513 692.033 104.262 691.898C104.012 691.762 103.919 691.45 104.055 691.199C104.19 690.949 104.503 690.856 104.753 690.992Z" fill="white"/>
<path opacity="0.11" d="M175.895 687.314C176.145 687.449 176.238 687.762 176.102 688.012C175.967 688.262 175.654 688.355 175.404 688.22C175.154 688.084 175.061 687.772 175.196 687.522C175.332 687.272 175.644 687.179 175.895 687.314Z" fill="white"/>
<path opacity="0.11" d="M260.44 738.954C260.69 739.089 260.783 739.402 260.647 739.652C260.512 739.902 260.199 739.995 259.949 739.859C259.699 739.724 259.606 739.411 259.741 739.161C259.877 738.911 260.189 738.818 260.44 738.954Z" fill="white"/>
<path opacity="0.3" d="M25.6446 656.362C25.8947 656.497 25.9877 656.81 25.8523 657.06C25.7168 657.31 25.4042 657.403 25.1541 657.268C24.904 657.132 24.811 656.82 24.9464 656.57C25.0819 656.319 25.3944 656.226 25.6446 656.362Z" fill="white"/>
<path d="M116.617 737.261C116.867 737.397 116.96 737.709 116.825 737.959C116.689 738.21 116.377 738.303 116.127 738.167C115.877 738.032 115.784 737.719 115.919 737.469C116.055 737.219 116.367 737.126 116.617 737.261Z" fill="white"/>
<path d="M185.91 775.951C186.16 776.086 186.253 776.399 186.117 776.649C185.982 776.899 185.669 776.992 185.419 776.857C185.169 776.721 185.076 776.409 185.212 776.158C185.347 775.908 185.66 775.815 185.91 775.951Z" fill="white"/>
<path d="M108.376 678.887C108.627 679.023 108.72 679.335 108.584 679.585C108.449 679.836 108.136 679.929 107.886 679.793C107.636 679.658 107.543 679.345 107.678 679.095C107.814 678.845 108.126 678.752 108.376 678.887Z" fill="white"/>
<path opacity="0.3" d="M76.6563 661.713C76.9064 661.849 76.9994 662.161 76.864 662.412C76.7285 662.662 76.416 662.755 76.1658 662.619C75.9157 662.484 75.8227 662.171 75.9581 661.921C76.0936 661.671 76.4061 661.578 76.6563 661.713Z" fill="white"/>
<path opacity="0.11" d="M24.2915 669.691C24.5417 669.826 24.6347 670.139 24.4992 670.389C24.3638 670.639 24.0512 670.732 23.8011 670.597C23.5509 670.461 23.4579 670.149 23.5934 669.899C23.7288 669.648 24.0414 669.555 24.2915 669.691Z" fill="white"/>
<path opacity="0.3" d="M130.667 730.802C130.917 730.938 131.01 731.25 130.875 731.5C130.739 731.751 130.427 731.844 130.177 731.708C129.926 731.573 129.833 731.26 129.969 731.01C130.104 730.76 130.417 730.667 130.667 730.802Z" fill="white"/>
<path opacity="0.3" d="M120.745 674.449C120.995 674.584 121.088 674.897 120.953 675.147C120.817 675.397 120.505 675.49 120.255 675.355C120.005 675.219 119.912 674.907 120.047 674.656C120.182 674.406 120.495 674.313 120.745 674.449Z" fill="white"/>
<path opacity="0.3" d="M68.3662 640.233C68.6164 640.368 68.7094 640.681 68.5739 640.931C68.4385 641.181 68.1259 641.274 67.8758 641.139C67.6256 641.003 67.5326 640.691 67.6681 640.441C67.8035 640.191 68.1161 640.098 68.3662 640.233Z" fill="white"/>
<path opacity="0.3" d="M38.7891 663.474C39.0392 663.61 39.1322 663.922 38.9968 664.172C38.8614 664.422 38.5488 664.515 38.2986 664.38C38.0485 664.245 37.9555 663.932 38.0909 663.682C38.2264 663.432 38.539 663.339 38.7891 663.474Z" fill="white"/>
<path opacity="0.3" d="M319.901 817.441C320.152 817.576 320.245 817.889 320.109 818.139C319.974 818.389 319.661 818.482 319.411 818.347C319.161 818.211 319.068 817.899 319.203 817.649C319.339 817.398 319.651 817.306 319.901 817.441Z" fill="white"/>
<path opacity="0.11" d="M236.887 796.519C237.137 796.655 237.23 796.967 237.094 797.217C236.959 797.467 236.646 797.56 236.396 797.425C236.146 797.289 236.053 796.977 236.189 796.727C236.324 796.477 236.637 796.384 236.887 796.519Z" fill="white"/>
<path opacity="0.11" d="M318.216 791.334C318.466 791.469 318.559 791.782 318.424 792.032C318.289 792.282 317.976 792.375 317.726 792.239C317.476 792.104 317.383 791.791 317.518 791.541C317.654 791.291 317.966 791.198 318.216 791.334Z" fill="white"/>
<path opacity="0.3" d="M205.781 725.18C206.282 725.451 206.468 726.076 206.197 726.577C205.926 727.078 205.3 727.264 204.799 726.993C204.298 726.722 204.112 726.096 204.383 725.595C204.655 725.095 205.28 724.908 205.781 725.18Z" fill="white"/>
<path opacity="0.11" d="M225.156 753.25C225.657 753.521 225.843 754.147 225.572 754.647C225.301 755.148 224.675 755.334 224.175 755.063C223.674 754.792 223.488 754.166 223.759 753.666C224.03 753.165 224.656 752.979 225.156 753.25Z" fill="white"/>
<path d="M216.345 768.987C216.72 769.19 216.86 769.659 216.656 770.035C216.453 770.41 215.984 770.55 215.608 770.347C215.233 770.143 215.093 769.674 215.297 769.299C215.5 768.923 215.969 768.784 216.345 768.987Z" fill="white"/>
<path d="M210.843 704.479C211.218 704.683 211.358 705.152 211.154 705.527C210.951 705.902 210.482 706.042 210.107 705.839C209.731 705.635 209.592 705.166 209.795 704.791C209.998 704.416 210.467 704.276 210.843 704.479Z" fill="white"/>
<path d="M366.189 776.872C366.564 777.075 366.704 777.544 366.501 777.92C366.297 778.295 365.828 778.435 365.453 778.231C365.077 778.028 364.938 777.559 365.141 777.184C365.344 776.808 365.813 776.669 366.189 776.872Z" fill="white"/>
<path d="M67.9276 625.345C68.3031 625.549 68.4426 626.018 68.2393 626.393C68.0361 626.769 67.5669 626.908 67.1915 626.705C66.8161 626.502 66.6765 626.033 66.8798 625.657C67.0831 625.282 67.5522 625.142 67.9276 625.345Z" fill="white"/>
<path d="M2.02283 603.137C2.39827 603.341 2.53782 603.81 2.33454 604.185C2.13126 604.561 1.66214 604.7 1.28671 604.497C0.911278 604.294 0.771714 603.825 0.974991 603.449C1.17827 603.074 1.6474 602.934 2.02283 603.137Z" fill="white"/>
<path d="M199.504 748.146C199.879 748.349 200.019 748.819 199.816 749.194C199.612 749.569 199.143 749.709 198.768 749.506C198.392 749.302 198.253 748.833 198.456 748.458C198.659 748.082 199.128 747.943 199.504 748.146Z" fill="white"/>
<path d="M138.811 671.926C139.187 672.129 139.326 672.598 139.123 672.973C138.92 673.349 138.451 673.488 138.075 673.285C137.7 673.082 137.56 672.613 137.764 672.237C137.967 671.862 138.436 671.722 138.811 671.926Z" fill="white"/>
<path d="M263.553 714.267C263.929 714.471 264.068 714.94 263.865 715.315C263.662 715.691 263.192 715.83 262.817 715.627C262.442 715.424 262.302 714.954 262.505 714.579C262.709 714.204 263.178 714.064 263.553 714.267Z" fill="white"/>
<path d="M366.95 810.099C367.325 810.303 367.465 810.772 367.261 811.147C367.058 811.523 366.589 811.662 366.213 811.459C365.838 811.256 365.698 810.786 365.902 810.411C366.105 810.036 366.574 809.896 366.95 810.099Z" fill="white"/>
<path d="M364.331 840.909C364.707 841.112 364.846 841.581 364.643 841.957C364.44 842.332 363.971 842.472 363.595 842.268C363.22 842.065 363.08 841.596 363.284 841.221C363.487 840.845 363.956 840.706 364.331 840.909Z" fill="white"/>
<path opacity="0.3" d="M253.977 788.776C254.478 789.047 254.664 789.673 254.393 790.174C254.122 790.675 253.496 790.861 252.995 790.59C252.495 790.318 252.309 789.693 252.58 789.192C252.851 788.691 253.477 788.505 253.977 788.776Z" fill="white"/>
<path d="M236.553 820.948C237.054 821.219 237.24 821.845 236.969 822.346C236.698 822.846 236.072 823.033 235.571 822.761C235.07 822.49 234.884 821.865 235.155 821.364C235.427 820.863 236.052 820.677 236.553 820.948Z" fill="white"/>
<path d="M282.711 791.442C283.086 791.645 283.226 792.115 283.023 792.49C282.819 792.865 282.35 793.005 281.975 792.802C281.599 792.598 281.46 792.129 281.663 791.754C281.866 791.378 282.335 791.239 282.711 791.442Z" fill="white"/>
<path opacity="0.3" d="M295.121 821.015C295.622 821.286 295.808 821.911 295.537 822.412C295.265 822.913 294.64 823.099 294.139 822.828C293.638 822.557 293.452 821.931 293.723 821.43C293.994 820.93 294.62 820.743 295.121 821.015Z" fill="white"/>
<path opacity="0.3" d="M357.4 813.131C357.901 813.402 358.087 814.028 357.816 814.528C357.545 815.029 356.919 815.215 356.418 814.944C355.918 814.673 355.732 814.047 356.003 813.546C356.274 813.046 356.899 812.86 357.4 813.131Z" fill="white"/>
<path opacity="0.3" d="M304.873 783.519C305.373 783.791 305.56 784.416 305.289 784.917C305.017 785.418 304.392 785.604 303.891 785.333C303.39 785.062 303.204 784.436 303.475 783.935C303.746 783.434 304.372 783.248 304.873 783.519Z" fill="white"/>
<path opacity="0.3" d="M48.9412 634.988C49.4419 635.259 49.628 635.885 49.3569 636.386C49.0858 636.886 48.4601 637.073 47.9594 636.801C47.4586 636.53 47.2725 635.905 47.5436 635.404C47.8147 634.903 48.4404 634.717 48.9412 634.988Z" fill="white"/>
<path opacity="0.11" d="M331.461 816.666C331.961 816.937 332.148 817.563 331.876 818.063C331.605 818.564 330.98 818.75 330.479 818.479C329.978 818.208 329.792 817.582 330.063 817.082C330.334 816.581 330.96 816.395 331.461 816.666Z" fill="white"/>
<path opacity="0.3" d="M55.196 690.524C55.6967 690.795 55.8829 691.421 55.6118 691.922C55.3406 692.423 54.715 692.609 54.2142 692.338C53.7135 692.066 53.5274 691.441 53.7985 690.94C54.0696 690.439 54.6953 690.253 55.196 690.524Z" fill="white"/>
<path opacity="0.11" d="M38.0539 692.965C38.5546 693.236 38.7408 693.862 38.4697 694.362C38.1986 694.863 37.5729 695.049 37.0721 694.778C36.5714 694.507 36.3853 693.881 36.6564 693.38C36.9275 692.88 37.5532 692.694 38.0539 692.965Z" fill="white"/>
<path opacity="0.3" d="M50.1345 662.001C50.6352 662.272 50.8214 662.898 50.5503 663.398C50.2791 663.899 49.6534 664.085 49.1527 663.814C48.652 663.543 48.4659 662.917 48.737 662.417C49.0081 661.916 49.6338 661.73 50.1345 662.001Z" fill="white"/>
<path d="M78.2059 677.788C78.5814 677.991 78.7209 678.46 78.5177 678.836C78.3144 679.211 77.8452 679.351 77.4698 679.147C77.0944 678.944 76.9548 678.475 77.1581 678.1C77.3614 677.724 77.8305 677.585 78.2059 677.788Z" fill="white"/>
<path opacity="0.11" d="M436.476 780.541C436.977 780.812 437.163 781.438 436.892 781.938C436.62 782.439 435.995 782.625 435.494 782.354C434.993 782.083 434.807 781.457 435.078 780.957C435.349 780.456 435.975 780.27 436.476 780.541Z" fill="white"/>
<path d="M442.117 777.151C442.492 777.354 442.632 777.823 442.428 778.199C442.225 778.574 441.756 778.714 441.38 778.511C441.005 778.307 440.865 777.838 441.069 777.463C441.272 777.087 441.741 776.948 442.117 777.151Z" fill="white"/>
<path d="M451.921 794.761C452.297 794.965 452.436 795.434 452.233 795.809C452.03 796.185 451.561 796.324 451.185 796.121C450.81 795.918 450.67 795.449 450.873 795.073C451.077 794.698 451.546 794.558 451.921 794.761Z" fill="white"/>
<path d="M412.911 774.816C413.286 775.019 413.425 775.489 413.222 775.864C413.019 776.239 412.55 776.379 412.174 776.176C411.799 775.972 411.659 775.503 411.863 775.128C412.066 774.752 412.535 774.613 412.911 774.816Z" fill="white"/>
<path opacity="0.11" d="M396.367 751.795C396.868 752.066 397.054 752.692 396.783 753.192C396.512 753.693 395.886 753.879 395.386 753.608C394.885 753.337 394.699 752.711 394.97 752.211C395.241 751.71 395.867 751.524 396.367 751.795Z" fill="white"/>
<path d="M382.362 757.102C382.612 757.238 382.705 757.55 382.57 757.8C382.434 758.05 382.122 758.143 381.871 758.008C381.621 757.872 381.528 757.56 381.664 757.31C381.799 757.06 382.112 756.967 382.362 757.102Z" fill="white"/>
<path d="M444.68 762.133C444.93 762.269 445.023 762.581 444.888 762.831C444.752 763.082 444.44 763.175 444.19 763.039C443.94 762.904 443.847 762.591 443.982 762.341C444.117 762.091 444.43 761.998 444.68 762.133Z" fill="white"/>
<path d="M543.47 815.617C543.72 815.752 543.813 816.065 543.677 816.315C543.542 816.565 543.229 816.658 542.979 816.523C542.729 816.387 542.636 816.075 542.772 815.824C542.907 815.574 543.22 815.481 543.47 815.617Z" fill="white"/>
<path d="M579.609 866.833C579.86 866.968 579.953 867.281 579.817 867.531C579.682 867.781 579.369 867.874 579.119 867.738C578.869 867.603 578.776 867.29 578.911 867.04C579.047 866.79 579.359 866.697 579.609 866.833Z" fill="white"/>
<path d="M615.195 843.321C615.446 843.456 615.538 843.769 615.403 844.019C615.268 844.269 614.955 844.362 614.705 844.227C614.455 844.091 614.362 843.779 614.497 843.529C614.633 843.278 614.945 843.185 615.195 843.321Z" fill="white"/>
<path d="M287.649 691.76C287.9 691.896 287.993 692.208 287.857 692.458C287.722 692.709 287.409 692.802 287.159 692.666C286.909 692.531 286.816 692.218 286.951 691.968C287.087 691.718 287.399 691.625 287.649 691.76Z" fill="white"/>
<path opacity="0.11" d="M267.607 712.549C267.858 712.685 267.951 712.997 267.815 713.248C267.68 713.498 267.367 713.591 267.117 713.455C266.867 713.32 266.774 713.007 266.909 712.757C267.045 712.507 267.357 712.414 267.607 712.549Z" fill="white"/>
<path opacity="0.11" d="M253.769 691.577C254.019 691.712 254.112 692.025 253.976 692.275C253.841 692.525 253.528 692.618 253.278 692.483C253.028 692.347 252.935 692.035 253.07 691.784C253.206 691.534 253.518 691.441 253.769 691.577Z" fill="white"/>
<path opacity="0.11" d="M283.441 672.485C283.692 672.62 283.785 672.933 283.649 673.183C283.514 673.433 283.201 673.526 282.951 673.391C282.701 673.255 282.608 672.943 282.743 672.693C282.879 672.442 283.191 672.349 283.441 672.485Z" fill="white"/>
<path opacity="0.11" d="M381.469 749.004C381.719 749.14 381.812 749.452 381.677 749.703C381.542 749.953 381.229 750.046 380.979 749.91C380.729 749.775 380.636 749.462 380.771 749.212C380.907 748.962 381.219 748.869 381.469 749.004Z" fill="white"/>
<path opacity="0.11" d="M452.605 745.329C452.856 745.464 452.949 745.777 452.813 746.027C452.678 746.277 452.365 746.37 452.115 746.234C451.865 746.099 451.772 745.786 451.907 745.536C452.043 745.286 452.355 745.193 452.605 745.329Z" fill="white"/>
<path opacity="0.11" d="M537.158 796.967C537.408 797.103 537.501 797.415 537.365 797.665C537.23 797.916 536.917 798.009 536.667 797.873C536.417 797.738 536.324 797.425 536.46 797.175C536.595 796.925 536.908 796.832 537.158 796.967Z" fill="white"/>
<path opacity="0.3" d="M302.364 714.375C302.614 714.51 302.707 714.823 302.571 715.073C302.436 715.323 302.123 715.416 301.873 715.28C301.623 715.145 301.53 714.832 301.666 714.582C301.801 714.332 302.114 714.239 302.364 714.375Z" fill="white"/>
<path d="M393.334 795.274C393.584 795.409 393.677 795.722 393.542 795.972C393.406 796.222 393.094 796.315 392.844 796.18C392.593 796.044 392.5 795.732 392.636 795.482C392.771 795.232 393.084 795.139 393.334 795.274Z" fill="white"/>
<path d="M462.628 833.963C462.878 834.099 462.971 834.411 462.836 834.662C462.7 834.912 462.388 835.005 462.137 834.869C461.887 834.734 461.794 834.421 461.93 834.171C462.065 833.921 462.378 833.828 462.628 833.963Z" fill="white"/>
<path d="M385.093 736.9C385.343 737.035 385.436 737.348 385.301 737.598C385.166 737.848 384.853 737.941 384.603 737.806C384.353 737.67 384.26 737.358 384.395 737.108C384.531 736.857 384.843 736.764 385.093 736.9Z" fill="white"/>
<path opacity="0.3" d="M353.374 719.726C353.624 719.862 353.717 720.174 353.582 720.424C353.446 720.674 353.134 720.767 352.884 720.632C352.633 720.497 352.54 720.184 352.676 719.934C352.811 719.684 353.124 719.591 353.374 719.726Z" fill="white"/>
<path opacity="0.11" d="M301.011 727.705C301.261 727.84 301.354 728.153 301.218 728.403C301.083 728.653 300.77 728.746 300.52 728.61C300.27 728.475 300.177 728.162 300.313 727.912C300.448 727.662 300.761 727.569 301.011 727.705Z" fill="white"/>
<path opacity="0.3" d="M407.385 788.816C407.635 788.951 407.728 789.264 407.593 789.514C407.458 789.764 407.145 789.857 406.895 789.722C406.645 789.586 406.552 789.274 406.687 789.024C406.823 788.773 407.135 788.681 407.385 788.816Z" fill="white"/>
<path opacity="0.3" d="M397.464 732.462C397.714 732.598 397.807 732.91 397.672 733.161C397.536 733.411 397.224 733.504 396.973 733.368C396.723 733.233 396.63 732.92 396.766 732.67C396.901 732.42 397.214 732.327 397.464 732.462Z" fill="white"/>
<path opacity="0.3" d="M345.084 698.245C345.334 698.38 345.427 698.693 345.292 698.943C345.156 699.193 344.844 699.286 344.594 699.151C344.343 699.015 344.25 698.702 344.386 698.452C344.521 698.202 344.834 698.109 345.084 698.245Z" fill="white"/>
<path opacity="0.3" d="M315.506 721.488C315.756 721.623 315.849 721.936 315.714 722.186C315.578 722.436 315.266 722.529 315.015 722.394C314.765 722.258 314.672 721.946 314.808 721.696C314.943 721.445 315.256 721.352 315.506 721.488Z" fill="white"/>
<path opacity="0.3" d="M596.621 875.455C596.871 875.59 596.964 875.903 596.829 876.153C596.693 876.403 596.381 876.496 596.131 876.36C595.881 876.225 595.788 875.912 595.923 875.662C596.058 875.412 596.371 875.319 596.621 875.455Z" fill="white"/>
<path opacity="0.11" d="M513.605 854.534C513.855 854.669 513.948 854.982 513.813 855.232C513.677 855.482 513.365 855.575 513.115 855.44C512.864 855.304 512.771 854.992 512.907 854.741C513.042 854.491 513.355 854.398 513.605 854.534Z" fill="white"/>
<path opacity="0.11" d="M594.936 849.348C595.186 849.484 595.279 849.796 595.143 850.046C595.008 850.296 594.695 850.389 594.445 850.254C594.195 850.119 594.102 849.806 594.237 849.556C594.373 849.306 594.685 849.213 594.936 849.348Z" fill="white"/>
<path opacity="0.3" d="M482.498 783.193C482.999 783.464 483.185 784.09 482.914 784.591C482.643 785.092 482.017 785.278 481.517 785.007C481.016 784.735 480.83 784.11 481.101 783.609C481.372 783.108 481.998 782.922 482.498 783.193Z" fill="white"/>
<path opacity="0.11" d="M501.876 811.264C502.377 811.535 502.563 812.16 502.292 812.661C502.021 813.162 501.395 813.348 500.894 813.077C500.394 812.806 500.208 812.18 500.479 811.679C500.75 811.179 501.375 810.992 501.876 811.264Z" fill="white"/>
<path d="M493.064 827C493.439 827.203 493.579 827.672 493.376 828.048C493.172 828.423 492.703 828.563 492.328 828.359C491.952 828.156 491.813 827.687 492.016 827.311C492.219 826.936 492.688 826.796 493.064 827Z" fill="white"/>
<path d="M487.561 762.492C487.936 762.695 488.076 763.164 487.873 763.54C487.669 763.915 487.2 764.055 486.825 763.851C486.449 763.648 486.31 763.179 486.513 762.804C486.716 762.428 487.185 762.289 487.561 762.492Z" fill="white"/>
<path d="M642.908 834.884C643.284 835.088 643.423 835.557 643.22 835.932C643.017 836.308 642.547 836.447 642.172 836.244C641.797 836.041 641.657 835.572 641.86 835.196C642.064 834.821 642.533 834.681 642.908 834.884Z" fill="white"/>
<path d="M344.645 683.357C345.021 683.56 345.16 684.03 344.957 684.405C344.754 684.78 344.285 684.92 343.909 684.717C343.534 684.513 343.394 684.044 343.598 683.669C343.801 683.293 344.27 683.154 344.645 683.357Z" fill="white"/>
<path d="M278.741 661.149C279.116 661.352 279.256 661.822 279.052 662.197C278.849 662.572 278.38 662.712 278.004 662.509C277.629 662.305 277.489 661.836 277.693 661.461C277.896 661.085 278.365 660.946 278.741 661.149Z" fill="white"/>
<path d="M261.222 675.102C261.597 675.306 261.737 675.775 261.534 676.15C261.331 676.526 260.861 676.665 260.486 676.462C260.111 676.259 259.971 675.789 260.174 675.414C260.377 675.039 260.847 674.899 261.222 675.102Z" fill="white"/>
<path d="M476.223 806.161C476.598 806.364 476.738 806.833 476.534 807.209C476.331 807.584 475.862 807.724 475.486 807.52C475.111 807.317 474.971 806.848 475.175 806.473C475.378 806.097 475.847 805.958 476.223 806.161Z" fill="white"/>
<path d="M415.531 729.938C415.906 730.141 416.046 730.611 415.842 730.986C415.639 731.361 415.17 731.501 414.795 731.298C414.419 731.094 414.28 730.625 414.483 730.25C414.686 729.874 415.155 729.735 415.531 729.938Z" fill="white"/>
<path d="M540.273 772.281C540.648 772.484 540.788 772.953 540.585 773.329C540.381 773.704 539.912 773.844 539.537 773.641C539.161 773.437 539.022 772.968 539.225 772.593C539.428 772.217 539.897 772.078 540.273 772.281Z" fill="white"/>
<path d="M643.668 868.113C644.043 868.316 644.183 868.785 643.98 869.161C643.776 869.536 643.307 869.676 642.932 869.473C642.556 869.269 642.417 868.8 642.62 868.425C642.823 868.049 643.292 867.91 643.668 868.113Z" fill="white"/>
<path d="M641.051 898.923C641.426 899.126 641.566 899.595 641.362 899.97C641.159 900.346 640.69 900.485 640.315 900.282C639.939 900.079 639.8 899.61 640.003 899.234C640.206 898.859 640.675 898.719 641.051 898.923Z" fill="white"/>
<path opacity="0.3" d="M530.688 846.791C531.189 847.062 531.375 847.688 531.104 848.188C530.833 848.689 530.207 848.875 529.706 848.604C529.206 848.333 529.02 847.707 529.291 847.207C529.562 846.706 530.188 846.52 530.688 846.791Z" fill="white"/>
<path d="M513.271 878.961C513.772 879.232 513.958 879.858 513.687 880.358C513.416 880.859 512.79 881.045 512.289 880.774C511.789 880.503 511.603 879.877 511.874 879.377C512.145 878.876 512.77 878.69 513.271 878.961Z" fill="white"/>
<path d="M559.43 849.456C559.805 849.659 559.945 850.128 559.741 850.504C559.538 850.879 559.069 851.019 558.693 850.815C558.318 850.612 558.178 850.143 558.382 849.767C558.585 849.392 559.054 849.252 559.43 849.456Z" fill="white"/>
<path opacity="0.3" d="M571.839 879.027C572.339 879.298 572.525 879.924 572.254 880.425C571.983 880.925 571.358 881.112 570.857 880.84C570.356 880.569 570.17 879.944 570.441 879.443C570.712 878.942 571.338 878.756 571.839 879.027Z" fill="white"/>
<path opacity="0.3" d="M634.121 871.144C634.622 871.416 634.808 872.041 634.537 872.542C634.265 873.043 633.64 873.229 633.139 872.958C632.638 872.687 632.452 872.061 632.723 871.56C632.994 871.059 633.62 870.873 634.121 871.144Z" fill="white"/>
<path opacity="0.3" d="M581.592 841.533C582.092 841.804 582.278 842.43 582.007 842.931C581.736 843.431 581.11 843.617 580.61 843.346C580.109 843.075 579.923 842.45 580.194 841.949C580.465 841.448 581.091 841.262 581.592 841.533Z" fill="white"/>
<path opacity="0.3" d="M325.659 693C326.16 693.271 326.346 693.897 326.075 694.397C325.804 694.898 325.178 695.084 324.678 694.813C324.177 694.542 323.991 693.916 324.262 693.416C324.533 692.915 325.159 692.729 325.659 693Z" fill="white"/>
<path opacity="0.3" d="M275.455 698.047C275.956 698.318 276.142 698.944 275.871 699.444C275.6 699.945 274.974 700.131 274.474 699.86C273.973 699.589 273.787 698.963 274.058 698.463C274.329 697.962 274.955 697.776 275.455 698.047Z" fill="white"/>
<path opacity="0.11" d="M608.179 874.68C608.68 874.951 608.866 875.576 608.595 876.077C608.324 876.578 607.698 876.764 607.198 876.493C606.697 876.222 606.511 875.596 606.782 875.095C607.053 874.595 607.679 874.408 608.179 874.68Z" fill="white"/>
<path opacity="0.3" d="M331.914 748.539C332.415 748.81 332.601 749.436 332.33 749.936C332.059 750.437 331.433 750.623 330.933 750.352C330.432 750.081 330.246 749.455 330.517 748.955C330.788 748.454 331.414 748.268 331.914 748.539Z" fill="white"/>
<path opacity="0.11" d="M314.772 750.977C315.272 751.249 315.459 751.874 315.187 752.375C314.916 752.876 314.291 753.062 313.79 752.791C313.289 752.52 313.103 751.894 313.374 751.393C313.645 750.892 314.271 750.706 314.772 750.977Z" fill="white"/>
<path opacity="0.3" d="M326.852 720.015C327.353 720.286 327.539 720.911 327.268 721.412C326.996 721.913 326.371 722.099 325.87 721.828C325.369 721.557 325.183 720.931 325.454 720.43C325.725 719.93 326.351 719.743 326.852 720.015Z" fill="white"/>
<path d="M354.924 735.802C355.3 736.005 355.439 736.474 355.236 736.849C355.033 737.225 354.564 737.364 354.188 737.161C353.813 736.958 353.673 736.489 353.876 736.113C354.08 735.738 354.549 735.598 354.924 735.802Z" fill="white"/>
<defs>
<filter id="filter0_f_2089_43058" x="-598.193" y="0.171082" width="1621.23" height="1340.6" filterUnits="userSpaceOnUse" color-interpolation-filters="sRGB">
<feFlood flood-opacity="0" result="BackgroundImageFix"/>
<feBlend mode="normal" in="SourceGraphic" in2="BackgroundImageFix" result="shape"/>
<feGaussianBlur stdDeviation="224.6" result="effect1_foregroundBlur_2089_43058"/>
</filter>
</defs>
</svg>
