<svg width="325" height="93" viewBox="0 0 325 93" fill="none" xmlns="http://www.w3.org/2000/svg">
<rect y="52" width="5" height="22" rx="2.5" fill="#D46260"/>
<rect x="17" y="56" width="5" height="22" rx="2.5" fill="#D46260"/>
<rect x="31" y="39" width="5" height="36" rx="2.5" fill="#D46260"/>
<path d="M46 29.5C46 28.1193 47.1193 27 48.5 27C49.8807 27 51 28.1193 51 29.5V77.5C51 78.8807 49.8807 80 48.5 80C47.1193 80 46 78.8807 46 77.5V29.5Z" fill="#D46260"/>
<rect x="62" y="36" width="5" height="29" rx="2.5" fill="#D46260"/>
<rect x="78" y="27" width="5" height="43" rx="2.5" fill="#D46260"/>
<rect x="93" y="43" width="5" height="35" rx="2.5" fill="#D46260"/>
<rect x="107" y="52" width="5" height="41" rx="2.5" fill="#D46260"/>
<rect x="121" y="39" width="5" height="46" rx="2.5" fill="#D46260"/>
<rect x="134" y="6" width="5" height="67" rx="2.5" fill="#D46260"/>
<rect x="149" y="16" width="5" height="36" rx="2.5" fill="#9864FF"/>
<rect x="164" y="27" width="5" height="25" rx="2.5" fill="#9864FF"/>
<rect x="206" y="33" width="5" height="37" rx="2.5" fill="#9864FF"/>
<rect x="222" y="36" width="5" height="21" rx="2.5" fill="#9864FF"/>
<rect x="239" y="25" width="5" height="34" rx="2.5" fill="#9864FF"/>
<rect x="255" width="5" height="61" rx="2.5" fill="#9864FF"/>
<rect x="268" y="17" width="5" height="30" rx="2.5" fill="#9864FF"/>
<rect x="282" y="27" width="5" height="37" rx="2.5" fill="#9864FF"/>
<rect x="294" y="48" width="5" height="18" rx="2.5" fill="#9864FF"/>
<rect x="320" y="53" width="5" height="25" rx="2.5" fill="#9864FF"/>
<rect x="308" y="27" width="5" height="35" rx="2.5" fill="#9864FF"/>
<rect x="178" y="38" width="5" height="27" rx="2.5" fill="#9864FF"/>
<rect x="192" y="10" width="5" height="44" rx="2.5" fill="#9864FF"/>
</svg>
