<svg width="1918" height="890" viewBox="0 0 1918 890" fill="none" xmlns="http://www.w3.org/2000/svg">
<path opacity="0.35" d="M1918 -198.573H-1.99998M1918 380.22H-1.99998M1918 959.013H-1.99998M1918 90.8233H-1.99998M1918 669.616H-1.99998M1918 -53.875H-1.99998M1918 524.918H-1.99998M1918 1103.71H-1.99998M1918 235.522H-1.99998M1918 814.315H-1.99998M1826.38 -287L1826.38 1205M1334.07 -287L1334.07 1205M841.761 -287V1205M349.453 -287V1205M1580.22 -287L1580.22 1205M1087.91 -287L1087.91 1205M595.607 -287L595.607 1205M103.299 -287V1205M1703.3 -287L1703.3 1205M1210.99 -287L1210.99 1205M718.684 -287L718.684 1205M226.376 -287V1205M1457.15 -287L1457.15 1205M964.838 -287L964.838 1205M472.53 -287V1205" stroke="url(#paint0_radial_303_3805)"/>
<defs>
<radialGradient id="paint0_radial_303_3805" cx="0" cy="0" r="1" gradientUnits="userSpaceOnUse" gradientTransform="translate(-1.99971 443) rotate(-0.365617) scale(1880.54 2420.43)">
<stop stop-color="#F5F4FF" stop-opacity="0.45"/>
<stop offset="0.472635" stop-color="white" stop-opacity="0"/>
<stop offset="1" stop-color="#F5F4FF" stop-opacity="0.45"/>
</radialGradient>
</defs>
</svg>
