<svg width="106" height="102" viewBox="0 0 106 102" fill="none" xmlns="http://www.w3.org/2000/svg">
<g filter="url(#filter0_d_2018_43198)">
<rect x="4.20117" y="0.948242" width="97.2988" height="92.4939" rx="15" fill="url(#paint0_linear_2018_43198)"/>
<path d="M51.3198 22.8289C49.9282 23.3273 48.7148 24.3922 47.6126 26.1027C46.5439 27.7453 45.4528 30.3281 44.8183 32.707C44.6735 33.2395 44.5177 33.7152 44.4843 33.7605C44.4398 33.8059 43.9165 33.7152 43.3042 33.568C40.9106 32.9449 39.6749 32.7863 37.3593 32.775C34.9657 32.7637 34.2532 32.8883 32.9507 33.5113C30.4347 34.7121 29.6999 37.3062 30.9579 40.4895C32.3718 44.0691 36.9028 49.0422 42.2132 52.8484L43.1261 53.4941L43.204 54.3437C43.3042 55.5332 43.5603 57.3457 43.8274 58.909C43.961 59.6566 44.0167 60.3023 43.9722 60.3477C43.8497 60.4496 41.7901 60.948 40.4208 61.1973C38.9179 61.4805 36.1569 61.5484 35.1773 61.3332C33.5185 60.9707 32.5054 60.2344 32.2271 59.1922C32.0823 58.6145 32.1491 57.5496 32.4052 56.8359C32.5722 56.3602 32.5722 56.3148 32.394 56.2129C32.2939 56.1449 31.9599 55.9297 31.6593 55.7371C31.3476 55.5332 31.0692 55.3859 31.0247 55.4199C30.969 55.4426 30.8132 55.8617 30.6685 56.3488C30.4569 57.0398 30.4013 57.4816 30.4013 58.4219C30.4013 59.5434 30.4235 59.668 30.7687 60.3703C31.3921 61.673 32.472 62.466 34.2978 62.9758C35.0548 63.1797 35.4778 63.225 37.1923 63.225C39.4189 63.225 40.944 63.0437 43.1372 62.4887C43.8386 62.3074 44.4509 62.2055 44.4843 62.2508C44.5288 62.2961 44.6735 62.7605 44.8183 63.293C46.1097 68.0961 48.3028 71.6984 50.663 72.8766C51.4868 73.2957 51.5981 73.3184 52.5556 73.3184C53.513 73.3184 53.6243 73.2957 54.4482 72.8766C57.7657 71.2113 60.3151 65.434 61.5064 56.8926C61.6288 56.0203 61.7624 54.9102 61.7958 54.423L61.8737 53.5395L63.1763 52.5652C63.8888 52.0328 64.9575 51.1719 65.5587 50.6734C66.1599 50.1637 66.7944 49.6426 66.9614 49.4953L67.2732 49.2461L68.3196 50.3449C71.7597 54.0039 73.4407 57.4477 72.7171 59.3848C72.3608 60.325 70.8579 61.3672 69.8671 61.3672H69.5331V62.2168C69.5331 63.259 69.522 63.2363 69.8671 63.2023C71.8265 62.9645 73.5075 61.877 74.2312 60.3703C74.5763 59.6566 74.5985 59.5547 74.5985 58.3652C74.5985 57.357 74.5429 56.9719 74.3314 56.3262C73.5632 54.0039 72.038 51.693 69.4886 48.9289L68.6202 48L69.4886 47.0598C72.038 44.307 73.5632 41.9961 74.3314 39.6738C74.5429 39.0281 74.5985 38.643 74.5985 37.6348C74.5985 36.5246 74.5651 36.3207 74.298 35.743C73.4741 33.9531 71.8599 33.0016 69.1435 32.707C65.7591 32.3332 60.3485 33.5566 54.7821 35.9582C53.9917 36.298 53.1679 36.6719 52.9452 36.7852L52.5444 36.9891L51.164 36.366C50.3958 36.0148 48.9931 35.4371 48.0468 35.0746L46.3212 34.4176L46.3435 34.0211C46.3769 33.4207 47.4233 30.3621 48.0356 29.0367C48.9708 27.009 50.1509 25.4684 51.2642 24.8C51.6872 24.5508 51.9099 24.4941 52.4999 24.4941C53.4017 24.5055 53.936 24.766 54.8155 25.6383C55.439 26.25 55.4501 26.2613 55.7284 26.0801C55.8843 25.9781 56.2183 25.7969 56.4855 25.6723C56.864 25.491 56.9308 25.4117 56.8528 25.2531C56.6747 24.902 55.2386 23.5766 54.7265 23.282C53.6243 22.6363 52.3552 22.4664 51.3198 22.8289ZM70.1788 34.6895C71.4702 34.9953 72.2161 35.5277 72.6169 36.4227C73.5187 38.3937 71.9267 41.8262 68.3642 45.5871L67.2509 46.7652L66.2489 45.9043C63.2876 43.3328 59.046 40.4215 55.5392 38.5523C55.0939 38.3145 54.7265 38.0766 54.7265 38.0312C54.7265 37.9066 57.1312 36.9211 58.9569 36.2754C63.5659 34.6668 67.6183 34.1004 70.1788 34.6895ZM39.9755 34.7348C41.4784 34.9613 43.8052 35.4937 43.961 35.6523C44.0167 35.6977 43.9276 36.502 43.7718 37.4195C43.1706 41.0559 42.9257 44.0691 42.9257 48.1926C42.9257 49.7672 42.9034 51.0586 42.87 51.0586C42.7253 51.0586 40.0757 48.8723 38.762 47.6715C35.6782 44.8508 33.4517 41.9848 32.5276 39.6285C32.2493 38.9035 32.1937 38.609 32.1937 37.748C32.1825 36.6379 32.2939 36.3094 32.8728 35.7203C33.2735 35.3012 34.1419 34.8934 35.0437 34.6895C36.079 34.4629 38.2833 34.4855 39.9755 34.7348ZM47.1896 36.6832C53.3349 38.9828 59.8253 42.8004 64.8907 47.0937C65.4251 47.5469 65.8593 47.9547 65.8593 48C65.8593 48.0453 65.4251 48.4531 64.8907 48.9062C61.5175 51.7723 57.2536 54.5816 53.0899 56.7113C50.1286 58.2066 45.9649 59.9059 45.8202 59.668C45.6087 59.3168 45.0075 54.9102 44.8183 52.248C44.6735 50.209 44.6735 45.791 44.8183 43.752C45.0409 40.6934 45.6755 36.2187 45.887 36.2187C45.9093 36.2187 46.4993 36.434 47.1896 36.6832ZM59.9032 55.4992C59.8587 55.8957 59.6806 57.0738 59.5024 58.1387C58.3335 65.2074 56.1069 70.1012 53.5464 71.302C53.0232 71.5398 52.8116 71.5852 52.3106 71.5285C50.3624 71.3246 48.4253 68.6398 46.9335 64.0859C46.6218 63.1457 46.3546 62.1941 46.3435 61.9789L46.3212 61.5824L47.9021 60.982C50.0284 60.1664 51.9321 59.3281 53.6689 58.4445C55.2163 57.6629 58.1442 55.9863 59.2353 55.2613C59.6026 55.0121 59.9255 54.8082 59.9366 54.8082C59.9589 54.7969 59.9478 55.1141 59.9032 55.4992Z" fill="white"/>
<path d="M49.0711 43.5934C48.5701 43.7406 47.8687 44.4883 47.724 45.0207C47.6461 45.2813 47.6016 46.7652 47.6016 48.7137V51.9762L47.8799 52.248C48.0469 52.4293 48.2807 52.5312 48.4922 52.5312C48.7037 52.5312 48.9375 52.4293 49.1045 52.248C49.3717 51.9875 49.3828 51.9195 49.3828 50.4355V48.9063H50.7187H52.0547V50.4355C52.0547 51.9195 52.0658 51.9875 52.333 52.248C52.6893 52.6219 53.2014 52.6219 53.5687 52.248L53.8471 51.9648L53.8137 48.4758L53.7803 44.9754L53.4797 44.5223C53.3127 44.273 52.9898 43.9445 52.7561 43.7973C52.3775 43.548 52.1883 43.5254 50.8857 43.5027C50.0953 43.4914 49.2715 43.5254 49.0711 43.5934ZM51.9211 45.4172C51.999 45.4965 52.0547 45.8703 52.0547 46.3234V47.0938H50.7187H49.3828V46.3234C49.3828 45.8703 49.4385 45.4965 49.5164 45.4172C49.6945 45.2359 51.743 45.2359 51.9211 45.4172Z" fill="white"/>
<path d="M55.8955 43.752L55.6172 44.0238V48V51.9762L55.8955 52.248C56.0625 52.4293 56.2963 52.5312 56.5078 52.5312C56.7193 52.5312 56.9531 52.4293 57.1201 52.248L57.3984 51.9762V48V44.0238L57.1201 43.752C56.9531 43.5707 56.7193 43.4687 56.5078 43.4687C56.2963 43.4687 56.0625 43.5707 55.8955 43.752Z" fill="white"/>
<path d="M57.599 27.1563C57.0758 27.3148 56.4968 27.734 56.174 28.1984C54.8937 29.9996 56.1963 32.4805 58.4117 32.4805C58.9683 32.4805 59.8924 32.0727 60.2597 31.6762C60.6716 31.223 60.9611 30.4301 60.9611 29.7504C60.9611 27.9832 59.2355 26.6465 57.599 27.1563Z" fill="white"/>
<path d="M33.3511 49.3822C32.9615 49.4955 32.3158 49.926 32.0374 50.2658C31.5142 50.8889 31.3249 51.9877 31.581 52.8826C32.0931 54.6272 34.4087 55.2502 35.8003 54.0268C36.446 53.4717 36.7244 52.8486 36.7355 52.0217C36.7355 50.7643 36.0119 49.7674 34.8652 49.4162C34.2417 49.2236 33.9078 49.2123 33.3511 49.3822Z" fill="white"/>
<path d="M64.0776 59.736C62.8642 60.2685 62.1962 61.7071 62.5636 62.9759C62.9087 64.188 63.8773 64.9243 65.1353 64.9243C67.4843 64.913 68.6421 62.047 66.9722 60.3478C66.2263 59.5774 65.0128 59.3282 64.0776 59.736Z" fill="white"/>
</g>
<defs>
<filter id="filter0_d_2018_43198" x="0.201172" y="0.948242" width="105.299" height="100.494" filterUnits="userSpaceOnUse" color-interpolation-filters="sRGB">
<feFlood flood-opacity="0" result="BackgroundImageFix"/>
<feColorMatrix in="SourceAlpha" type="matrix" values="0 0 0 0 0 0 0 0 0 0 0 0 0 0 0 0 0 0 127 0" result="hardAlpha"/>
<feOffset dy="4"/>
<feGaussianBlur stdDeviation="2"/>
<feComposite in2="hardAlpha" operator="out"/>
<feColorMatrix type="matrix" values="0 0 0 0 0 0 0 0 0 0 0 0 0 0 0 0 0 0 0.25 0"/>
<feBlend mode="normal" in2="BackgroundImageFix" result="effect1_dropShadow_2018_43198"/>
<feBlend mode="normal" in="SourceGraphic" in2="effect1_dropShadow_2018_43198" result="shape"/>
</filter>
<linearGradient id="paint0_linear_2018_43198" x1="37.7022" y1="13.6869" x2="113.662" y2="43.5857" gradientUnits="userSpaceOnUse">
<stop stop-color="#732CFF"/>
<stop offset="1" stop-color="#F46D6B"/>
</linearGradient>
</defs>
</svg>
