<svg width="550" height="594" viewBox="0 0 550 594" fill="none" xmlns="http://www.w3.org/2000/svg">
<path opacity="0.7" d="M-122.623 -7.74319H754.229M-122.623 272.004H754.229M-122.623 551.751H754.229M-122.623 132.13H754.229M-122.623 411.877H754.229M-122.623 62.1935H754.229M-122.623 341.94H754.229M-122.623 621.687H754.229M-122.623 202.067H754.229M-122.623 481.814H754.229M-80.7789 -50.4823L-80.779 670.643M144.055 -50.4823L144.055 670.643M368.889 -50.4823V670.643M593.723 -50.4823V670.643M31.638 -50.4823L31.638 670.643M256.472 -50.4823L256.472 670.643M481.306 -50.4823L481.306 670.643M706.14 -50.4823V670.643M-24.5705 -50.4823L-24.5705 670.643M200.264 -50.4823L200.263 670.643M425.097 -50.4823L425.097 670.643M649.931 -50.4823V670.643M87.8465 -50.4823L87.8465 670.643M312.681 -50.4823L312.68 670.643M537.514 -50.4823V670.643" stroke="#454668"/>
</svg>
