<svg width="29" height="29" viewBox="0 0 29 29" fill="none" xmlns="http://www.w3.org/2000/svg">
<path fill-rule="evenodd" clip-rule="evenodd" d="M2.12348 2.12348C-1.72853e-07 4.24695 0 7.66463 0 14.5C0 21.3353 -1.72853e-07 24.7531 2.12348 26.8765C4.24695 29 7.66463 29 14.5 29C21.3353 29 24.7531 29 26.8765 26.8765C29 24.7531 29 21.3353 29 14.5C29 7.66463 29 4.24695 26.8765 2.12348C24.7531 -1.72853e-07 21.3353 0 14.5 0C7.66463 0 4.24695 -1.72853e-07 2.12348 2.12348ZM22.5855 12.2961C22.9699 11.8348 22.9075 11.1491 22.4461 10.7646C21.9848 10.3801 21.299 10.4424 20.9145 10.9038L18.309 14.0303C17.7715 14.6756 17.4412 15.0677 17.1693 15.3133C17.0432 15.4271 16.9683 15.4727 16.9324 15.4899C16.9251 15.4935 16.9199 15.4956 16.9167 15.4969C16.9167 15.4969 16.9105 15.4944 16.9056 15.4921L16.9009 15.4899C16.8651 15.4727 16.7903 15.4271 16.6641 15.3133C16.3921 15.0677 16.0619 14.6756 15.5243 14.0303L15.1003 13.5215C14.624 12.95 14.1946 12.4346 13.7936 12.0724C13.3573 11.6784 12.8076 11.3275 12.0833 11.3275C11.3591 11.3275 10.8094 11.6784 10.3731 12.0724C9.97201 12.4346 9.54264 12.95 9.06637 13.5217L6.41455 16.7039C6.03006 17.1652 6.09239 17.851 6.5538 18.2355C7.0152 18.6199 7.70094 18.5575 8.08545 18.0961L10.6909 14.9697C11.2286 14.3244 11.5587 13.9323 11.8307 13.6867C11.9568 13.5729 12.0317 13.5273 12.0676 13.5101C12.0714 13.5082 12.0773 13.5056 12.0773 13.5056L12.0833 13.5031C12.0866 13.5044 12.0918 13.5065 12.0991 13.5101C12.1349 13.5273 12.2097 13.5729 12.3359 13.6867C12.6079 13.9323 12.9381 14.3244 13.4757 14.9697L13.8997 15.4785C14.376 16.0501 14.8054 16.5654 15.2064 16.9276C15.6427 17.3216 16.1924 17.6726 16.9167 17.6726C17.641 17.6726 18.1905 17.3216 18.627 16.9276C19.0281 16.5654 19.4574 16.0501 19.9336 15.4785L22.5855 12.2961Z" fill="url(#paint0_linear_477_35046)"/>
<defs>
<linearGradient id="paint0_linear_477_35046" x1="9.98503" y1="3.99402" x2="32.9214" y2="12.5762" gradientUnits="userSpaceOnUse">
<stop stop-color="#732CFF"/>
<stop offset="1" stop-color="#F46D6B"/>
</linearGradient>
</defs>
</svg>
