<svg width="80" height="80" viewBox="0 0 80 80" fill="none" xmlns="http://www.w3.org/2000/svg">
<circle cx="39.8184" cy="39.8184" r="39.8184" fill="#732CFF"/>
<path d="M38.7389 22.5877C35.4539 23.3548 33.0474 26.0745 32.5261 29.5999C32.4547 30.0803 32.419 30.9171 32.419 32.3273V34.3651H32.2619C31.7263 34.3651 31.1193 34.799 30.8265 35.4034C30.6694 35.7211 30.6694 35.7521 30.648 40.7729L30.6266 45.8248L27.1774 45.8481L23.7283 45.8713L23.2355 46.1425C22.8856 46.3362 22.6714 46.5222 22.4857 46.7934C21.9787 47.5217 21.9858 47.4287 22.0073 52.5813L22.0287 57.1838L22.2286 57.6255C22.4429 58.1058 22.8213 58.5165 23.2927 58.7877C23.5926 58.9582 23.6569 58.9659 25.8777 58.9892C28.1486 59.0124 28.1557 59.0124 28.32 58.8419C28.5271 58.6327 28.5414 58.3151 28.3557 58.0671L28.22 57.8811L26.0134 57.8424C23.8354 57.8037 23.814 57.8037 23.5712 57.6177C23.4426 57.517 23.2712 57.2923 23.1998 57.1141C23.0784 56.8196 23.0641 56.5175 23.0641 52.4264C23.0641 48.219 23.0713 48.0408 23.207 47.7386C23.2855 47.5604 23.464 47.3357 23.614 47.2273L23.8782 47.0336L40.0885 47.0103C49.0077 47.0026 56.4131 47.0103 56.5416 47.0336C56.8272 47.0878 57.2629 47.4907 57.3843 47.8239C57.4628 48.0253 57.4842 48.9474 57.4842 52.4341C57.4842 56.5175 57.4699 56.8196 57.3485 57.1141C57.2771 57.2923 57.1058 57.517 56.9772 57.6177L56.7344 57.8037L43.5234 57.8424C36.2609 57.8657 30.2624 57.9121 30.191 57.9431C30.0339 58.0284 29.8982 58.4158 29.9553 58.6172C30.0767 59.0279 29.2341 59.0046 43.6376 58.9892L56.9486 58.9659L57.2557 58.7877C57.727 58.5165 58.1055 58.1058 58.3197 57.6255L58.5197 57.1838L58.5411 52.5813C58.5625 47.4287 58.5697 47.5217 58.0627 46.7934C57.877 46.5222 57.6628 46.3362 57.3128 46.1425L56.8201 45.8713L53.371 45.8481L49.9218 45.8248L49.9004 42.9192L49.879 40.0059L49.7076 39.8586C49.4933 39.6649 49.1649 39.6727 48.9863 39.8664C48.8506 40.0136 48.8435 40.1221 48.8435 42.927V45.8326H45.7728C44.0875 45.8326 42.7022 45.8093 42.7022 45.7706C42.7022 45.7396 42.6379 45.1352 42.5665 44.4301L42.4237 43.1362L42.6093 42.648C42.7664 42.2219 42.7879 42.0747 42.7593 41.5013C42.7307 40.9744 42.6879 40.7497 42.5308 40.4243C41.5881 38.4252 39.0388 38.3787 38.0533 40.3468C37.8177 40.8117 37.8105 40.8659 37.8105 41.6485C37.8105 42.3381 37.8319 42.5086 37.9676 42.7797L38.1247 43.1052L37.989 44.4069C37.9105 45.1275 37.8462 45.7396 37.8462 45.7706C37.8462 45.8093 36.4608 45.8326 34.7755 45.8326H31.7049L31.7192 40.8659L31.7406 35.8993L31.9405 35.7133L32.1405 35.5274H40.2742H48.4079L48.6078 35.7133C48.8078 35.8993 48.8078 35.9148 48.8292 36.8756C48.8578 37.8131 48.8649 37.8596 49.0363 38.0068C49.2791 38.2083 49.4362 38.2005 49.679 37.9758L49.879 37.7899V36.7516C49.879 35.845 49.8575 35.6823 49.7219 35.4034C49.4291 34.8068 48.8292 34.3651 48.2936 34.3651H48.1294V32.3273C48.1294 30.1113 48.0508 29.2822 47.7366 28.2672C46.8797 25.5088 44.8016 23.4168 42.1523 22.6575C41.3239 22.4173 39.6101 22.3785 38.7389 22.5877ZM42.0238 23.8275C43.2235 24.1839 44.1804 24.796 45.0944 25.7955C45.7728 26.5316 46.3227 27.4536 46.6298 28.3757C46.9868 29.4527 47.0582 30.1191 47.0582 32.3583V34.3651H45.8514H44.6445L44.616 32.2111C44.5874 30.274 44.566 30.0183 44.4303 29.5612C43.9876 28.0968 42.9878 26.9888 41.6524 26.4851C41.174 26.2992 40.9812 26.2759 40.2742 26.2682C39.6601 26.2682 39.353 26.3069 39.0602 26.4154C37.6248 26.9423 36.5751 28.0658 36.1181 29.5612C35.9824 30.0183 35.961 30.274 35.9324 32.2111L35.9038 34.3651H34.697H33.4901V32.3583C33.4901 30.243 33.5616 29.4914 33.8472 28.5926C34.6399 26.0977 36.5822 24.2459 38.9816 23.7035C39.6886 23.5485 41.2954 23.6105 42.0238 23.8275ZM41.0811 27.5079C41.6524 27.6706 42.0166 27.8876 42.4379 28.306C42.8878 28.7709 43.1735 29.2125 43.3591 29.7781C43.502 30.181 43.5162 30.4212 43.5448 32.2886L43.5734 34.3651H40.2813H36.9893V32.5598C36.9893 31.568 37.025 30.553 37.0678 30.305C37.2892 29.0111 38.2675 27.8488 39.4244 27.5156C39.9314 27.3684 40.5741 27.3607 41.0811 27.5079ZM40.9169 40.2151C41.6596 40.6257 41.9095 41.571 41.5167 42.4776L41.3311 42.9037L41.4453 44.1202C41.5167 44.7866 41.5881 45.4452 41.6096 45.5769L41.6453 45.8326H40.2742H38.9031L38.9388 45.5769C38.9602 45.4452 39.0316 44.7866 39.103 44.1202L39.2173 42.9037L39.0316 42.4776C38.8245 41.9894 38.7888 41.4083 38.9388 41.0054C39.0602 40.6955 39.5672 40.1918 39.8243 40.1298C39.9386 40.1066 40.06 40.0756 40.0957 40.0601C40.2171 40.0136 40.7241 40.1143 40.9169 40.2151Z" fill="white"/>
<path d="M27.6272 48.8165C27.463 48.956 27.4558 49.0257 27.4201 50.0175L27.3844 51.0712L26.656 50.6141C26.2561 50.3584 25.8705 50.1337 25.792 50.1105C25.5849 50.033 25.2992 50.2112 25.1993 50.4746C25.0564 50.8388 25.2207 51.0402 26.0419 51.5749C26.4418 51.8306 26.7846 52.063 26.8132 52.0863C26.8346 52.1173 26.5061 52.3575 26.0776 52.6209C25.1207 53.2098 24.9707 53.4577 25.285 53.8916C25.5135 54.2093 25.7634 54.1551 26.6132 53.6282C27.0274 53.3725 27.3702 53.1633 27.3844 53.1633C27.3987 53.1633 27.4201 53.6359 27.4344 54.217C27.4558 55.2166 27.463 55.2786 27.6272 55.418C27.8415 55.6117 28.07 55.604 28.3056 55.4025C28.4913 55.2476 28.4913 55.2398 28.4913 54.1938C28.4913 52.9773 28.3985 53.0316 29.3911 53.6669C29.8053 53.9304 30.1338 54.0931 30.2694 54.0931C30.6693 54.0931 30.8979 53.6359 30.705 53.2408C30.6693 53.1633 30.3337 52.9153 29.9767 52.6906C29.6125 52.4659 29.2554 52.2412 29.184 52.1947C29.0697 52.1095 29.1411 52.0475 29.7838 51.6524C30.1837 51.4044 30.5694 51.141 30.6408 51.0635C30.9407 50.7381 30.7122 50.1182 30.298 50.1182C30.1552 50.1182 29.7981 50.2887 29.3197 50.5908C28.9055 50.8543 28.5484 51.0712 28.527 51.0712C28.5056 51.0712 28.4913 50.6063 28.4913 50.0407C28.4913 49.0567 28.4842 48.9947 28.3271 48.8397C28.12 48.6305 27.8486 48.6228 27.6272 48.8165Z" fill="white"/>
<path d="M35.8102 48.8621C35.6389 49.0403 35.6317 49.0868 35.6317 50.0631C35.6317 50.6132 35.6174 51.0704 35.6031 51.0704C35.5889 51.0704 35.3318 50.9154 35.0319 50.7217C34.0392 50.0864 33.925 50.0399 33.6965 50.1483C33.318 50.3111 33.2252 50.7682 33.5108 51.0471C33.5965 51.1401 33.9607 51.3958 34.3106 51.6128C34.6677 51.8297 34.9819 52.0389 35.0104 52.0699C35.0461 52.1087 34.7391 52.3411 34.332 52.589C33.925 52.837 33.5394 53.1082 33.4751 53.1779C33.1823 53.4956 33.4465 54.0922 33.8821 54.0922C34.0035 54.0922 34.3892 53.9063 34.8248 53.6273C35.2247 53.3716 35.5746 53.1624 35.596 53.1624C35.6174 53.1624 35.6317 53.6196 35.6317 54.1697C35.6317 55.146 35.6389 55.1925 35.8102 55.3707C36.0316 55.6186 36.303 55.6186 36.5243 55.3707C36.6957 55.1925 36.7029 55.146 36.7029 54.1697C36.7029 53.6196 36.7172 53.1624 36.7457 53.1624C36.7671 53.1624 37.1171 53.3716 37.5241 53.6273C37.9811 53.914 38.3453 54.0922 38.481 54.0922C38.8523 54.0922 39.0809 53.6816 38.9452 53.2786C38.9166 53.2167 38.5453 52.93 38.1025 52.6433C37.6669 52.3643 37.3027 52.1242 37.2884 52.1164C37.2742 52.1009 37.6312 51.8685 38.074 51.5895C38.9238 51.0626 39.0523 50.8999 38.9595 50.5048C38.938 50.3885 38.8238 50.2491 38.7024 50.1793C38.4453 50.0321 38.3025 50.0864 37.3813 50.6752C37.0456 50.8922 36.7529 51.0704 36.7386 51.0704C36.7172 51.0704 36.7029 50.621 36.7029 50.0709C36.7029 49.1798 36.6886 49.0558 36.5529 48.8699C36.3601 48.6064 36.0459 48.5987 35.8102 48.8621Z" fill="white"/>
<path d="M43.9947 48.8699C43.859 49.0558 43.8447 49.1798 43.8447 50.0709C43.8447 50.621 43.8304 51.0704 43.8161 51.0704C43.8019 51.0704 43.4234 50.8457 42.9806 50.5667C42.3665 50.1793 42.1237 50.0709 41.988 50.1019C41.6524 50.1871 41.4739 50.5822 41.6024 50.9464C41.6238 51.0161 42.0094 51.2951 42.4593 51.5818C42.9092 51.8607 43.2734 52.1009 43.2734 52.1164C43.2734 52.1319 42.9449 52.3411 42.5522 52.5813C42.1523 52.8292 41.7666 53.0927 41.6952 53.1702C41.3953 53.4956 41.6381 54.0922 42.0737 54.0922C42.2165 54.0922 42.5593 53.9295 43.0306 53.6273C43.4305 53.3716 43.7804 53.1624 43.8019 53.1624C43.8233 53.1624 43.8447 53.6196 43.8447 54.1697C43.8447 55.146 43.8518 55.1925 44.0232 55.3707C44.2446 55.6186 44.516 55.6186 44.7373 55.3707C44.9087 55.1925 44.9159 55.146 44.9159 54.1697C44.9159 53.6196 44.9301 53.1624 44.9516 53.1624C44.973 53.1624 45.3229 53.3716 45.7228 53.6273C46.1798 53.914 46.544 54.0922 46.6726 54.0922C47.1082 54.0922 47.3653 53.4956 47.0653 53.1702C46.9939 53.0927 46.6083 52.8292 46.2084 52.5813C45.8085 52.3334 45.4943 52.1164 45.5157 52.1009C45.5371 52.0777 45.8799 51.8452 46.287 51.5818C46.7011 51.3183 47.0653 51.0239 47.1225 50.9077C47.2724 50.6132 47.1724 50.3188 46.8797 50.1638L46.6369 50.0399L45.7942 50.5513L44.9516 51.0626L44.9159 50.0166C44.8802 49.0248 44.873 48.9551 44.7088 48.8156C44.466 48.6064 44.1732 48.6297 43.9947 48.8699Z" fill="white"/>
<path d="M52.2138 48.8475C52.071 49.0102 52.0567 49.1109 52.0567 50.0485C52.0567 50.6141 52.0424 51.0712 52.021 51.0712C51.9996 51.0712 51.6425 50.8543 51.2283 50.5908C50.3928 50.064 50.1215 50.002 49.9001 50.2887C49.7358 50.5134 49.7358 50.8775 49.9001 51.0557C49.9644 51.1255 50.3571 51.3889 50.757 51.6446C51.414 52.0475 51.4854 52.1018 51.364 52.187C51.2926 52.2412 50.9355 52.4737 50.5714 52.6984C50.2072 52.9231 49.8787 53.171 49.843 53.2485C49.6502 53.6359 49.8787 54.0931 50.2786 54.0931C50.4142 54.0931 50.7713 53.9226 51.2355 53.6282C51.6425 53.3725 51.9924 53.1633 52.0139 53.1633C52.0424 53.1633 52.0567 53.6282 52.0567 54.2015C52.0567 55.2321 52.0567 55.2476 52.2424 55.4025C52.478 55.604 52.7065 55.6117 52.9208 55.418C53.085 55.2786 53.0922 55.2166 53.1136 54.217C53.1279 53.6359 53.1493 53.1633 53.1636 53.1633C53.1779 53.1633 53.5206 53.3725 53.9348 53.6282C54.7846 54.1551 55.0345 54.2093 55.2631 53.8916C55.5773 53.4577 55.4273 53.2175 54.4775 52.6209C54.0491 52.3575 53.6992 52.125 53.6992 52.1095C53.6992 52.094 53.9348 51.939 54.2205 51.7608C55.3773 51.0402 55.5059 50.893 55.3416 50.4591C55.2488 50.2112 54.9203 50.033 54.7132 50.1182C54.6489 50.1492 54.2704 50.3739 53.8777 50.6218L53.1636 51.0712L53.1279 50.0175C53.0922 49.0257 53.085 48.956 52.9208 48.8165C52.6923 48.615 52.3995 48.6305 52.2138 48.8475Z" fill="white"/>
</svg>
