<svg width="57" height="24" viewBox="0 0 57 24" fill="none" xmlns="http://www.w3.org/2000/svg">
<path d="M1.51116 17.4052L0.86991 22.8267C0.820688 23.2428 1.27654 23.5348 1.63257 23.3152L6.40926 20.3689C6.80873 20.1225 6.67212 19.509 6.20418 19.4479L3.84263 19.1395C3.69184 19.1198 3.55757 19.0329 3.47766 18.9032L2.4337 17.2091C2.18443 16.8045 1.56667 16.9359 1.51116 17.4052Z" fill="#F8B638"/>
<path d="M4 8C4 3.58172 7.58172 0 12 0H48.6531C53.0714 0 56.6531 3.58172 56.6531 8V8.41138C56.6531 12.8297 53.0714 16.4114 48.6531 16.4114H4V8Z" fill="#F8B638"/>
<path d="M14.0892 11.1211L16.1372 5.52109H17.2092L19.2572 11.1211H18.2412L16.6652 6.64109L15.0892 11.1211H14.0892ZM15.0012 9.80109L15.2572 9.04109H18.0172L18.2732 9.80109H15.0012ZM19.9555 11.1211V7.08909H20.8035L20.8755 7.76109C20.9981 7.52643 21.1741 7.33976 21.4035 7.20109C21.6328 7.06243 21.9048 6.99309 22.2195 6.99309C22.5448 6.99309 22.8221 7.06243 23.0515 7.20109C23.2808 7.33443 23.4568 7.53176 23.5795 7.79309C23.7075 8.05443 23.7715 8.37976 23.7715 8.76909V11.1211H22.8115V8.85709C22.8115 8.52109 22.7368 8.26243 22.5875 8.08109C22.4381 7.89976 22.2168 7.80909 21.9235 7.80909C21.7315 7.80909 21.5581 7.85443 21.4035 7.94509C21.2541 8.03576 21.1341 8.16909 21.0435 8.34509C20.9581 8.51576 20.9155 8.72376 20.9155 8.96909V11.1211H19.9555ZM26.0876 11.2171C25.7569 11.2171 25.4823 11.1611 25.2636 11.0491C25.0449 10.9371 24.8823 10.7878 24.7756 10.6011C24.6689 10.4144 24.6156 10.2118 24.6156 9.99309C24.6156 9.73709 24.6796 9.51576 24.8076 9.32909C24.9409 9.14243 25.1356 8.99843 25.3916 8.89709C25.6476 8.79043 25.9623 8.73709 26.3356 8.73709H27.3516C27.3516 8.52376 27.3223 8.34776 27.2636 8.20909C27.2049 8.06509 27.1143 7.95843 26.9916 7.88909C26.8689 7.81976 26.7116 7.78509 26.5196 7.78509C26.3009 7.78509 26.1143 7.83576 25.9596 7.93709C25.8049 8.03309 25.7089 8.18243 25.6716 8.38509H24.7276C24.7596 8.09709 24.8556 7.85176 25.0156 7.64909C25.1756 7.44109 25.3863 7.28109 25.6476 7.16909C25.9143 7.05176 26.2049 6.99309 26.5196 6.99309C26.8983 6.99309 27.2209 7.05976 27.4876 7.19309C27.7543 7.32109 27.9569 7.50776 28.0956 7.75309C28.2396 7.99309 28.3116 8.28376 28.3116 8.62509V11.1211H27.4956L27.3996 10.4731C27.3463 10.5798 27.2769 10.6784 27.1916 10.7691C27.1116 10.8598 27.0183 10.9398 26.9116 11.0091C26.8049 11.0731 26.6823 11.1238 26.5436 11.1611C26.4103 11.1984 26.2583 11.2171 26.0876 11.2171ZM26.3036 10.4571C26.4583 10.4571 26.5943 10.4304 26.7116 10.3771C26.8343 10.3184 26.9383 10.2384 27.0236 10.1371C27.1143 10.0304 27.1836 9.91309 27.2316 9.78509C27.2796 9.65709 27.3116 9.52109 27.3276 9.37709V9.36109H26.4396C26.2529 9.36109 26.0983 9.38509 25.9756 9.43309C25.8529 9.47576 25.7649 9.53976 25.7116 9.62509C25.6583 9.71043 25.6316 9.80909 25.6316 9.92109C25.6316 10.0331 25.6583 10.1291 25.7116 10.2091C25.7649 10.2891 25.8423 10.3504 25.9436 10.3931C26.0449 10.4358 26.1649 10.4571 26.3036 10.4571ZM29.2973 11.1211V5.36109H30.2573V11.1211H29.2973ZM31.7766 12.8811L32.7606 10.6731H32.5206L30.9126 7.08909H31.9606L33.1606 9.82509L34.2966 7.08909H35.3126L32.7926 12.8811H31.7766ZM37.7193 11.1211C37.4473 11.1211 37.21 11.0784 37.0073 10.9931C36.81 10.9078 36.6553 10.7664 36.5433 10.5691C36.4313 10.3718 36.3753 10.1051 36.3753 9.76909V7.89709H35.6873V7.08909H36.3753L36.4873 6.02509H37.3353V7.08909H38.4313V7.89709H37.3353V9.76909C37.3353 9.97176 37.378 10.1131 37.4633 10.1931C37.554 10.2678 37.7033 10.3051 37.9113 10.3051H38.4073V11.1211H37.7193ZM39.3345 11.1211V7.08909H40.2945V11.1211H39.3345ZM39.8145 6.44909C39.6385 6.44909 39.4919 6.39576 39.3745 6.28909C39.2625 6.17709 39.2065 6.04109 39.2065 5.88109C39.2065 5.71576 39.2625 5.58243 39.3745 5.48109C39.4919 5.37443 39.6385 5.32109 39.8145 5.32109C39.9905 5.32109 40.1345 5.37443 40.2465 5.48109C40.3639 5.58243 40.4225 5.71576 40.4225 5.88109C40.4225 6.04109 40.3639 6.17709 40.2465 6.28909C40.1345 6.39576 39.9905 6.44909 39.8145 6.44909ZM43.2759 11.2171C42.8812 11.2171 42.5266 11.1291 42.2119 10.9531C41.9026 10.7718 41.6599 10.5238 41.4839 10.2091C41.3132 9.88909 41.2279 9.52643 41.2279 9.12109C41.2279 8.69976 41.3132 8.33176 41.4839 8.01709C41.6599 7.69709 41.9026 7.44643 42.2119 7.26509C42.5266 7.08376 42.8839 6.99309 43.2839 6.99309C43.7852 6.99309 44.2066 7.12643 44.5479 7.39309C44.8892 7.65443 45.1079 8.01443 45.2039 8.47309H44.1959C44.1426 8.27043 44.0306 8.11043 43.8599 7.99309C43.6946 7.87576 43.4972 7.81709 43.2679 7.81709C43.0706 7.81709 42.8892 7.86776 42.7239 7.96909C42.5639 8.07043 42.4359 8.21709 42.3399 8.40909C42.2492 8.60109 42.2039 8.83309 42.2039 9.10509C42.2039 9.31309 42.2306 9.49709 42.2839 9.65709C42.3372 9.81709 42.4119 9.95309 42.5079 10.0651C42.6092 10.1718 42.7239 10.2544 42.8519 10.3131C42.9799 10.3718 43.1186 10.4011 43.2679 10.4011C43.4226 10.4011 43.5612 10.3771 43.6839 10.3291C43.8119 10.2758 43.9186 10.1984 44.0039 10.0971C44.0946 9.99576 44.1586 9.87576 44.1959 9.73709H45.2039C45.1079 10.1851 44.8892 10.5451 44.5479 10.8171C44.2066 11.0838 43.7826 11.2171 43.2759 11.2171ZM47.6975 11.2171C47.3402 11.2171 47.0282 11.1611 46.7615 11.0491C46.5002 10.9318 46.2922 10.7718 46.1375 10.5691C45.9882 10.3611 45.9002 10.1238 45.8735 9.85709H46.8335C46.8602 9.96909 46.9082 10.0731 46.9775 10.1691C47.0469 10.2598 47.1402 10.3318 47.2575 10.3851C47.3802 10.4384 47.5242 10.4651 47.6895 10.4651C47.8495 10.4651 47.9802 10.4438 48.0815 10.4011C48.1829 10.3531 48.2575 10.2918 48.3055 10.2171C48.3535 10.1424 48.3775 10.0624 48.3775 9.97709C48.3775 9.84909 48.3429 9.75043 48.2735 9.68109C48.2042 9.61176 48.1029 9.55843 47.9695 9.52109C47.8415 9.47843 47.6869 9.43843 47.5055 9.40109C47.3135 9.36376 47.1269 9.31843 46.9455 9.26509C46.7695 9.20643 46.6095 9.13443 46.4655 9.04909C46.3269 8.96376 46.2149 8.85443 46.1295 8.72109C46.0495 8.58776 46.0095 8.42509 46.0095 8.23309C46.0095 7.99843 46.0709 7.78776 46.1935 7.60109C46.3215 7.41443 46.5029 7.26776 46.7375 7.16109C46.9775 7.04909 47.2629 6.99309 47.5935 6.99309C48.0629 6.99309 48.4362 7.10243 48.7135 7.32109C48.9962 7.53443 49.1615 7.83576 49.2095 8.22509H48.2975C48.2709 8.07576 48.1962 7.96109 48.0735 7.88109C47.9509 7.79576 47.7882 7.75309 47.5855 7.75309C47.3775 7.75309 47.2175 7.79309 47.1055 7.87309C46.9989 7.94776 46.9455 8.04909 46.9455 8.17709C46.9455 8.25709 46.9775 8.33176 47.0415 8.40109C47.1109 8.46509 47.2095 8.52109 47.3375 8.56909C47.4655 8.61176 47.6229 8.65443 47.8095 8.69709C48.1082 8.75576 48.3722 8.82509 48.6015 8.90509C48.8309 8.98509 49.0122 9.10243 49.1455 9.25709C49.2789 9.41176 49.3455 9.63043 49.3455 9.91309C49.3509 10.1691 49.2842 10.3958 49.1455 10.5931C49.0122 10.7904 48.8229 10.9451 48.5775 11.0571C48.3322 11.1638 48.0389 11.2171 47.6975 11.2171Z" fill="#0F1130"/>
</svg>
