<svg width="40" height="40" viewBox="0 0 40 40" fill="none" xmlns="http://www.w3.org/2000/svg">
<circle opacity="0.5" cx="20" cy="20" r="19.5" stroke="white"/>
<path d="M12.7274 19.3977V13.7266H18.3986V19.3977H12.7274ZM20.603 27.2733V21.6022H26.2742V27.2733H20.603ZM12.7274 27.2733V21.6022H18.3986V27.2733H12.7274ZM13.8579 18.2673H17.2681V14.857H13.8579V18.2673ZM21.7335 26.1429H25.1437V22.7326H21.7335V26.1429ZM13.8579 26.1429H17.2681V22.7326H13.8579V26.1429Z" fill="white"/>
<path d="M23.2604 20.7539L19.2472 16.7407L23.2604 12.7275L27.2735 16.7407L23.2604 20.7539ZM23.3169 19.2277L25.7474 16.7972L23.3169 14.3667L20.8864 16.7972L23.3169 19.2277Z" fill="#F8B638"/>
</svg>
