<svg width="66" height="14" viewBox="0 0 66 14" fill="none" xmlns="http://www.w3.org/2000/svg">
<path d="M6.1889 1.23303C6.30838 0.863978 6.83052 0.863977 6.95 1.23303L7.94216 4.29753C7.99559 4.46255 8.14927 4.57433 8.32271 4.57433H11.5364C11.9236 4.57433 12.0849 5.06944 11.7721 5.29753L9.16969 7.19508C9.02999 7.29694 8.97155 7.47701 9.0248 7.64149L10.0183 10.71C10.1376 11.0788 9.71524 11.3848 9.40204 11.1564L6.80511 9.26287C6.66469 9.16048 6.47421 9.16048 6.33378 9.26287L3.73686 11.1564C3.42366 11.3848 3.00125 11.0788 3.12064 10.71L4.1141 7.64149C4.16735 7.47701 4.1089 7.29694 3.96921 7.19508L1.36679 5.29753C1.05397 5.06944 1.21531 4.57433 1.60245 4.57433H4.81618C4.98963 4.57433 5.14331 4.46255 5.19674 4.29753L6.1889 1.23303Z" fill="#FFB31F"/>
<path d="M19.217 1.23303C19.3365 0.863978 19.8586 0.863977 19.9781 1.23303L20.9702 4.29753C21.0237 4.46255 21.1773 4.57433 21.3508 4.57433H24.5645C24.9517 4.57433 25.113 5.06944 24.8002 5.29753L22.1978 7.19508C22.0581 7.29694 21.9996 7.47701 22.0529 7.64149L23.0463 10.71C23.1657 11.0788 22.7433 11.3848 22.4301 11.1564L19.8332 9.26287C19.6928 9.16048 19.5023 9.16048 19.3619 9.26287L16.7649 11.1564C16.4517 11.3848 16.0293 11.0788 16.1487 10.71L17.1422 7.64149C17.1954 7.47701 17.137 7.29694 16.9973 7.19508L14.3949 5.29753C14.082 5.06944 14.2434 4.57433 14.6305 4.57433H17.8443C18.0177 4.57433 18.1714 4.46255 18.2248 4.29753L19.217 1.23303Z" fill="#FFB31F"/>
<path d="M32.2416 1.23303C32.3611 0.863978 32.8832 0.863977 33.0027 1.23303L33.9949 4.29753C34.0483 4.46255 34.202 4.57433 34.3754 4.57433H37.5892C37.9763 4.57433 38.1377 5.06944 37.8248 5.29753L35.2224 7.19508C35.0827 7.29694 35.0243 7.47701 35.0775 7.64149L36.071 10.71C36.1904 11.0788 35.768 11.3848 35.4548 11.1564L32.8578 9.26287C32.7174 9.16048 32.5269 9.16048 32.3865 9.26287L29.7896 11.1564C29.4764 11.3848 29.054 11.0788 29.1734 10.71L30.1668 7.64149C30.2201 7.47701 30.1616 7.29694 30.0219 7.19508L27.4195 5.29753C27.1067 5.06944 27.268 4.57433 27.6552 4.57433H30.8689C31.0424 4.57433 31.196 4.46255 31.2495 4.29753L32.2416 1.23303Z" fill="#FFB31F"/>
<path d="M45.2697 1.23303C45.3892 0.863978 45.9113 0.863977 46.0308 1.23303L47.023 4.29753C47.0764 4.46255 47.2301 4.57433 47.4035 4.57433H50.6173C51.0044 4.57433 51.1657 5.06944 50.8529 5.29753L48.2505 7.19508C48.1108 7.29694 48.0524 7.47701 48.1056 7.64149L49.0991 10.71C49.2185 11.0788 48.7961 11.3848 48.4828 11.1564L45.8859 9.26287C45.7455 9.16048 45.555 9.16048 45.4146 9.26287L42.8177 11.1564C42.5045 11.3848 42.0821 11.0788 42.2015 10.71L43.1949 7.64149C43.2482 7.47701 43.1897 7.29694 43.05 7.19508L40.4476 5.29753C40.1348 5.06944 40.2961 4.57433 40.6833 4.57433H43.897C44.0704 4.57433 44.2241 4.46255 44.2775 4.29753L45.2697 1.23303Z" fill="#FFB31F"/>
<path d="M58.2963 1.23303C58.4158 0.863978 58.9379 0.863977 59.0574 1.23303L60.0496 4.29753C60.103 4.46255 60.2567 4.57433 60.4301 4.57433H63.6439C64.031 4.57433 64.1923 5.06944 63.8795 5.29753L61.2771 7.19508C61.1374 7.29694 61.079 7.47701 61.1322 7.64149L62.1257 10.71C62.2451 11.0788 61.8227 11.3848 61.5095 11.1564L58.9125 9.26287C58.7721 9.16048 58.5816 9.16048 58.4412 9.26287L55.8443 11.1564C55.5311 11.3848 55.1087 11.0788 55.2281 10.71L56.2215 7.64149C56.2748 7.47701 56.2163 7.29694 56.0766 7.19508L53.4742 5.29753C53.1614 5.06944 53.3227 4.57433 53.7099 4.57433H56.9236C57.0971 4.57433 57.2507 4.46255 57.3042 4.29753L58.2963 1.23303Z" fill="#FFB31F"/>
</svg>
