<svg width="911" height="1160" viewBox="0 0 911 1160" fill="none" xmlns="http://www.w3.org/2000/svg">
<g filter="url(#filter0_f_2102_43063)">
<ellipse cx="224.237" cy="580.053" rx="359.374" ry="43.426" transform="rotate(32.5689 224.237 580.053)" fill="#F46D6B"/>
</g>
<path d="M2.42086 388.522C2.79629 388.725 2.93585 389.195 2.73258 389.57C2.5293 389.945 2.06015 390.085 1.68472 389.882C1.30929 389.678 1.16975 389.209 1.37303 388.834C1.5763 388.458 2.04543 388.319 2.42086 388.522Z" fill="white"/>
<path d="M93.9698 459.378C94.22 459.514 94.313 459.826 94.1775 460.077C94.0421 460.327 93.7295 460.42 93.4794 460.284C93.2292 460.149 93.1362 459.836 93.2717 459.586C93.4071 459.336 93.7197 459.243 93.9698 459.378Z" fill="white"/>
<path d="M130.109 510.591C130.36 510.727 130.453 511.039 130.317 511.289C130.182 511.54 129.869 511.633 129.619 511.497C129.369 511.362 129.276 511.049 129.411 510.799C129.547 510.549 129.859 510.456 130.109 510.591Z" fill="white"/>
<path d="M165.696 487.082C165.947 487.217 166.04 487.53 165.904 487.78C165.769 488.03 165.456 488.123 165.206 487.987C164.956 487.852 164.863 487.539 164.998 487.289C165.134 487.039 165.446 486.946 165.696 487.082Z" fill="white"/>
<path opacity="0.11" d="M3.11454 339.087C3.36469 339.223 3.45766 339.535 3.32222 339.786C3.18678 340.036 2.87421 340.129 2.62406 339.993C2.37392 339.858 2.28093 339.545 2.41637 339.295C2.55181 339.045 2.8644 338.952 3.11454 339.087Z" fill="white"/>
<path opacity="0.11" d="M87.6573 440.728C87.9075 440.863 88.0004 441.176 87.865 441.426C87.7296 441.676 87.417 441.769 87.1669 441.634C86.9167 441.498 86.8237 441.186 86.9592 440.936C87.0946 440.686 87.4072 440.593 87.6573 440.728Z" fill="white"/>
<path d="M13.129 477.724C13.3792 477.86 13.4721 478.172 13.3367 478.422C13.2013 478.672 12.8887 478.765 12.6385 478.63C12.3884 478.495 12.2954 478.182 12.4308 477.932C12.5663 477.682 12.8789 477.589 13.129 477.724Z" fill="white"/>
<path opacity="0.3" d="M147.12 519.214C147.37 519.35 147.463 519.662 147.328 519.913C147.192 520.163 146.88 520.256 146.63 520.12C146.38 519.985 146.287 519.672 146.422 519.422C146.557 519.172 146.87 519.079 147.12 519.214Z" fill="white"/>
<path opacity="0.11" d="M64.1046 498.294C64.3547 498.43 64.4477 498.742 64.3123 498.993C64.1768 499.243 63.8643 499.336 63.6141 499.2C63.364 499.065 63.271 498.752 63.4064 498.502C63.5419 498.252 63.8544 498.159 64.1046 498.294Z" fill="white"/>
<path opacity="0.11" d="M145.437 493.109C145.687 493.244 145.78 493.557 145.644 493.807C145.509 494.057 145.196 494.15 144.946 494.015C144.696 493.879 144.603 493.567 144.738 493.317C144.874 493.066 145.186 492.973 145.437 493.109Z" fill="white"/>
<path opacity="0.3" d="M32.9989 426.953C33.4996 427.224 33.6857 427.85 33.4146 428.351C33.1435 428.851 32.5178 429.037 32.0171 428.766C31.5163 428.495 31.3302 427.869 31.6013 427.369C31.8724 426.868 32.4981 426.682 32.9989 426.953Z" fill="white"/>
<path opacity="0.11" d="M52.3768 455.023C52.8775 455.294 53.0636 455.92 52.7925 456.421C52.5214 456.922 51.8957 457.108 51.395 456.837C50.8943 456.565 50.7081 455.94 50.9792 455.439C51.2503 454.938 51.876 454.752 52.3768 455.023Z" fill="white"/>
<path d="M43.5644 470.76C43.9398 470.964 44.0794 471.433 43.8761 471.808C43.6728 472.184 43.2037 472.323 42.8283 472.12C42.4528 471.917 42.3133 471.448 42.5166 471.072C42.7198 470.697 43.189 470.557 43.5644 470.76Z" fill="white"/>
<path d="M38.0615 406.251C38.4369 406.454 38.5765 406.923 38.3732 407.299C38.1699 407.674 37.7008 407.814 37.3254 407.61C36.9499 407.407 36.8103 406.938 37.0136 406.562C37.2169 406.187 37.686 406.047 38.0615 406.251Z" fill="white"/>
<path d="M193.409 478.645C193.785 478.849 193.924 479.318 193.721 479.693C193.518 480.069 193.048 480.208 192.673 480.005C192.298 479.802 192.158 479.332 192.361 478.957C192.565 478.582 193.034 478.442 193.409 478.645Z" fill="white"/>
<path d="M26.7226 449.921C27.098 450.124 27.2376 450.593 27.0343 450.968C26.8311 451.344 26.3619 451.483 25.9865 451.28C25.611 451.077 25.4715 450.608 25.6748 450.232C25.8781 449.857 26.3472 449.717 26.7226 449.921Z" fill="white"/>
<path d="M90.7724 416.04C91.1478 416.243 91.2874 416.712 91.0841 417.088C90.8809 417.463 90.4117 417.603 90.0363 417.399C89.6609 417.196 89.5213 416.727 89.7246 416.351C89.9278 415.976 90.397 415.837 90.7724 416.04Z" fill="white"/>
<path d="M194.168 511.874C194.543 512.077 194.683 512.546 194.48 512.922C194.276 513.297 193.807 513.437 193.432 513.233C193.056 513.03 192.917 512.561 193.12 512.185C193.323 511.81 193.793 511.67 194.168 511.874Z" fill="white"/>
<path d="M191.55 542.682C191.925 542.886 192.065 543.355 191.861 543.73C191.658 544.106 191.189 544.245 190.814 544.042C190.438 543.839 190.299 543.369 190.502 542.994C190.705 542.619 191.174 542.479 191.55 542.682Z" fill="white"/>
<path opacity="0.3" d="M81.1961 490.549C81.6968 490.82 81.8829 491.446 81.6118 491.946C81.3407 492.447 80.715 492.633 80.2143 492.362C79.7136 492.091 79.5275 491.465 79.7986 490.964C80.0697 490.464 80.6954 490.278 81.1961 490.549Z" fill="white"/>
<path d="M63.7723 522.721C64.273 522.992 64.4591 523.617 64.188 524.118C63.9169 524.619 63.2912 524.805 62.7905 524.534C62.2898 524.263 62.1036 523.637 62.3747 523.136C62.6458 522.636 63.2716 522.449 63.7723 522.721Z" fill="white"/>
<path d="M109.93 493.216C110.305 493.419 110.445 493.888 110.241 494.263C110.038 494.639 109.569 494.778 109.194 494.575C108.818 494.372 108.679 493.903 108.882 493.527C109.085 493.152 109.554 493.012 109.93 493.216Z" fill="white"/>
<path opacity="0.3" d="M122.339 522.787C122.839 523.058 123.026 523.684 122.754 524.185C122.483 524.685 121.858 524.871 121.357 524.6C120.856 524.329 120.67 523.703 120.941 523.203C121.212 522.702 121.838 522.516 122.339 522.787Z" fill="white"/>
<path opacity="0.3" d="M184.62 514.904C185.121 515.175 185.307 515.801 185.036 516.302C184.765 516.802 184.139 516.989 183.638 516.717C183.137 516.446 182.951 515.821 183.222 515.32C183.494 514.819 184.119 514.633 184.62 514.904Z" fill="white"/>
<path opacity="0.3" d="M132.092 485.293C132.592 485.564 132.778 486.19 132.507 486.69C132.236 487.191 131.611 487.377 131.11 487.106C130.609 486.835 130.423 486.209 130.694 485.709C130.965 485.208 131.591 485.022 132.092 485.293Z" fill="white"/>
<path opacity="0.11" d="M158.68 518.439C159.181 518.71 159.367 519.336 159.096 519.837C158.825 520.338 158.199 520.524 157.699 520.253C157.198 519.982 157.012 519.356 157.283 518.855C157.554 518.354 158.18 518.168 158.68 518.439Z" fill="white"/>
<path opacity="0.11" d="M68.7566 647.527C69.2573 647.798 69.4435 648.424 69.1724 648.925C68.9012 649.425 68.2756 649.612 67.7748 649.34C67.2741 649.069 67.088 648.444 67.3591 647.943C67.6302 647.442 68.2559 647.256 68.7566 647.527Z" fill="white"/>
<path d="M74.3984 644.137C74.7738 644.341 74.9134 644.81 74.7101 645.185C74.5068 645.561 74.0377 645.7 73.6623 645.497C73.2868 645.294 73.1473 644.825 73.3506 644.449C73.5538 644.074 74.023 643.934 74.3984 644.137Z" fill="white"/>
<path d="M84.2031 661.749C84.5785 661.952 84.7181 662.421 84.5148 662.797C84.3115 663.172 83.8424 663.312 83.467 663.108C83.0915 662.905 82.952 662.436 83.1552 662.06C83.3585 661.685 83.8277 661.545 84.2031 661.749Z" fill="white"/>
<path d="M45.1933 641.801C45.5688 642.005 45.7083 642.474 45.505 642.849C45.3017 643.225 44.8326 643.364 44.4572 643.161C44.0818 642.958 43.9422 642.489 44.1455 642.113C44.3488 641.738 44.8179 641.598 45.1933 641.801Z" fill="white"/>
<path opacity="0.11" d="M28.6492 618.781C29.1499 619.052 29.3361 619.678 29.065 620.179C28.7938 620.679 28.1682 620.866 27.6674 620.594C27.1667 620.323 26.9806 619.698 27.2517 619.197C27.5228 618.696 28.1485 618.51 28.6492 618.781Z" fill="white"/>
<path d="M14.6446 624.089C14.8948 624.225 14.9878 624.537 14.8523 624.788C14.7169 625.038 14.4043 625.131 14.1542 624.995C13.904 624.86 13.811 624.547 13.9465 624.297C14.0819 624.047 14.3945 623.954 14.6446 624.089Z" fill="white"/>
<path d="M76.9611 629.119C77.2112 629.254 77.3042 629.567 77.1687 629.817C77.0333 630.067 76.7207 630.16 76.4706 630.025C76.2204 629.889 76.1274 629.577 76.2629 629.326C76.3983 629.076 76.7109 628.983 76.9611 629.119Z" fill="white"/>
<path d="M175.75 682.603C176 682.739 176.093 683.051 175.958 683.301C175.822 683.551 175.51 683.644 175.26 683.509C175.009 683.373 174.916 683.061 175.052 682.811C175.187 682.561 175.5 682.468 175.75 682.603Z" fill="white"/>
<path d="M211.891 733.818C212.141 733.953 212.234 734.266 212.098 734.516C211.963 734.766 211.65 734.859 211.4 734.724C211.15 734.588 211.057 734.276 211.193 734.026C211.328 733.775 211.641 733.682 211.891 733.818Z" fill="white"/>
<path d="M247.477 710.306C247.727 710.442 247.82 710.754 247.684 711.004C247.549 711.254 247.236 711.347 246.986 711.212C246.736 711.077 246.643 710.764 246.779 710.514C246.914 710.264 247.227 710.171 247.477 710.306Z" fill="white"/>
<path opacity="0.11" d="M13.753 615.992C14.0032 616.127 14.0962 616.44 13.9607 616.69C13.8253 616.94 13.5127 617.033 13.2626 616.898C13.0124 616.762 12.9194 616.45 13.0549 616.199C13.1903 615.949 13.5029 615.856 13.753 615.992Z" fill="white"/>
<path opacity="0.11" d="M84.8946 612.314C85.1448 612.449 85.2378 612.762 85.1023 613.012C84.9669 613.262 84.6543 613.355 84.4042 613.22C84.154 613.084 84.061 612.772 84.1965 612.522C84.3319 612.272 84.6445 612.179 84.8946 612.314Z" fill="white"/>
<path opacity="0.11" d="M169.44 663.953C169.69 664.088 169.783 664.401 169.647 664.651C169.512 664.901 169.199 664.994 168.949 664.859C168.699 664.723 168.606 664.41 168.741 664.16C168.877 663.91 169.189 663.817 169.44 663.953Z" fill="white"/>
<path d="M25.6173 662.261C25.8674 662.397 25.9604 662.709 25.825 662.959C25.6895 663.21 25.377 663.303 25.1268 663.167C24.8767 663.032 24.7837 662.719 24.9191 662.469C25.0546 662.219 25.3671 662.126 25.6173 662.261Z" fill="white"/>
<path d="M94.9093 700.951C95.1594 701.086 95.2524 701.399 95.117 701.649C94.9815 701.899 94.669 701.992 94.4188 701.857C94.1687 701.721 94.0757 701.409 94.2111 701.158C94.3466 700.908 94.6591 700.815 94.9093 700.951Z" fill="white"/>
<path d="M17.377 603.888C17.6272 604.024 17.7202 604.336 17.5847 604.586C17.4493 604.837 17.1367 604.93 16.8866 604.794C16.6364 604.659 16.5434 604.346 16.6789 604.096C16.8143 603.846 17.1269 603.753 17.377 603.888Z" fill="white"/>
<path opacity="0.3" d="M39.6671 655.802C39.9172 655.938 40.0102 656.25 39.8748 656.5C39.7393 656.751 39.4268 656.844 39.1766 656.708C38.9265 656.573 38.8335 656.26 38.9689 656.01C39.1044 655.76 39.417 655.667 39.6671 655.802Z" fill="white"/>
<path opacity="0.3" d="M29.7452 599.449C29.9954 599.584 30.0884 599.897 29.9529 600.147C29.8175 600.397 29.5049 600.49 29.2548 600.355C29.0046 600.219 28.9116 599.907 29.0471 599.656C29.1825 599.406 29.4951 599.313 29.7452 599.449Z" fill="white"/>
<path opacity="0.3" d="M228.901 742.441C229.152 742.576 229.245 742.889 229.109 743.139C228.974 743.389 228.661 743.482 228.411 743.347C228.161 743.211 228.068 742.899 228.203 742.649C228.339 742.398 228.651 742.306 228.901 742.441Z" fill="white"/>
<path opacity="0.11" d="M145.887 721.519C146.137 721.655 146.23 721.967 146.095 722.217C145.959 722.467 145.646 722.56 145.396 722.425C145.146 722.289 145.053 721.977 145.189 721.727C145.324 721.477 145.637 721.384 145.887 721.519Z" fill="white"/>
<path opacity="0.11" d="M227.216 716.334C227.466 716.469 227.559 716.782 227.424 717.032C227.288 717.282 226.976 717.375 226.725 717.239C226.475 717.104 226.382 716.791 226.518 716.541C226.653 716.291 226.966 716.198 227.216 716.334Z" fill="white"/>
<path opacity="0.3" d="M114.781 650.18C115.282 650.451 115.468 651.076 115.197 651.577C114.926 652.078 114.3 652.264 113.799 651.993C113.299 651.722 113.112 651.096 113.384 650.595C113.655 650.095 114.28 649.908 114.781 650.18Z" fill="white"/>
<path opacity="0.11" d="M134.157 678.25C134.658 678.521 134.844 679.147 134.573 679.647C134.302 680.148 133.676 680.334 133.175 680.063C132.675 679.792 132.488 679.166 132.76 678.666C133.031 678.165 133.656 677.979 134.157 678.25Z" fill="white"/>
<path d="M125.345 693.987C125.72 694.19 125.86 694.659 125.656 695.035C125.453 695.41 124.984 695.55 124.609 695.347C124.233 695.143 124.094 694.674 124.297 694.299C124.5 693.923 124.969 693.784 125.345 693.987Z" fill="white"/>
<path d="M119.843 629.479C120.218 629.683 120.358 630.152 120.154 630.527C119.951 630.902 119.482 631.042 119.107 630.839C118.731 630.635 118.592 630.166 118.795 629.791C118.998 629.416 119.467 629.276 119.843 629.479Z" fill="white"/>
<path d="M275.189 701.872C275.565 702.075 275.704 702.544 275.501 702.92C275.298 703.295 274.829 703.435 274.453 703.231C274.078 703.028 273.938 702.559 274.142 702.184C274.345 701.808 274.814 701.669 275.189 701.872Z" fill="white"/>
<path d="M108.504 673.145C108.879 673.349 109.019 673.818 108.816 674.193C108.612 674.569 108.143 674.708 107.768 674.505C107.392 674.302 107.253 673.832 107.456 673.457C107.659 673.082 108.128 672.942 108.504 673.145Z" fill="white"/>
<path d="M47.8115 596.925C48.1869 597.128 48.3265 597.597 48.1232 597.972C47.9199 598.348 47.4508 598.487 47.0754 598.284C46.6999 598.081 46.5604 597.612 46.7636 597.236C46.9669 596.861 47.4361 596.721 47.8115 596.925Z" fill="white"/>
<path d="M172.554 639.266C172.929 639.47 173.069 639.939 172.865 640.314C172.662 640.69 172.193 640.829 171.818 640.626C171.442 640.423 171.303 639.953 171.506 639.578C171.709 639.203 172.178 639.063 172.554 639.266Z" fill="white"/>
<path d="M275.949 735.098C276.325 735.302 276.464 735.771 276.261 736.146C276.058 736.522 275.588 736.661 275.213 736.458C274.838 736.255 274.698 735.785 274.901 735.41C275.105 735.035 275.574 734.895 275.949 735.098Z" fill="white"/>
<path d="M273.332 765.909C273.707 766.112 273.847 766.581 273.644 766.957C273.44 767.332 272.971 767.472 272.596 767.268C272.22 767.065 272.081 766.596 272.284 766.221C272.487 765.845 272.957 765.706 273.332 765.909Z" fill="white"/>
<path opacity="0.3" d="M162.977 713.775C163.478 714.046 163.664 714.672 163.393 715.173C163.122 715.674 162.496 715.86 161.996 715.589C161.495 715.317 161.309 714.692 161.58 714.191C161.851 713.69 162.477 713.504 162.977 713.775Z" fill="white"/>
<path d="M145.553 745.949C146.053 746.22 146.239 746.846 145.968 747.347C145.697 747.847 145.071 748.033 144.571 747.762C144.07 747.491 143.884 746.866 144.155 746.365C144.426 745.864 145.052 745.678 145.553 745.949Z" fill="white"/>
<path d="M191.711 716.442C192.086 716.645 192.226 717.115 192.023 717.49C191.819 717.865 191.35 718.005 190.975 717.802C190.599 717.598 190.46 717.129 190.663 716.754C190.866 716.378 191.335 716.239 191.711 716.442Z" fill="white"/>
<path opacity="0.3" d="M204.121 746.016C204.622 746.287 204.808 746.912 204.537 747.413C204.265 747.914 203.64 748.1 203.139 747.829C202.638 747.558 202.452 746.932 202.723 746.431C202.994 745.931 203.62 745.744 204.121 746.016Z" fill="white"/>
<path opacity="0.3" d="M266.4 738.131C266.901 738.402 267.087 739.028 266.816 739.528C266.545 740.029 265.919 740.215 265.418 739.944C264.918 739.673 264.732 739.047 265.003 738.546C265.274 738.046 265.899 737.86 266.4 738.131Z" fill="white"/>
<path opacity="0.3" d="M213.873 708.519C214.374 708.791 214.56 709.416 214.289 709.917C214.017 710.418 213.392 710.604 212.891 710.333C212.39 710.062 212.204 709.436 212.475 708.935C212.746 708.434 213.372 708.248 213.873 708.519Z" fill="white"/>
<path opacity="0.11" d="M240.461 741.666C240.961 741.937 241.148 742.563 240.876 743.063C240.605 743.564 239.98 743.75 239.479 743.479C238.978 743.208 238.792 742.582 239.063 742.082C239.334 741.581 239.96 741.395 240.461 741.666Z" fill="white"/>
<path opacity="0.11" d="M345.476 705.541C345.977 705.812 346.163 706.438 345.892 706.938C345.621 707.439 344.995 707.625 344.495 707.354C343.994 707.083 343.808 706.457 344.079 705.957C344.35 705.456 344.976 705.27 345.476 705.541Z" fill="white"/>
<path d="M351.117 702.151C351.492 702.354 351.632 702.823 351.429 703.199C351.225 703.574 350.756 703.714 350.381 703.511C350.006 703.307 349.866 702.838 350.069 702.463C350.273 702.087 350.742 701.948 351.117 702.151Z" fill="white"/>
<path d="M360.921 719.762C361.296 719.966 361.436 720.435 361.232 720.81C361.029 721.186 360.56 721.325 360.185 721.122C359.809 720.919 359.67 720.45 359.873 720.074C360.076 719.699 360.545 719.559 360.921 719.762Z" fill="white"/>
<path d="M321.911 699.817C322.286 700.02 322.426 700.49 322.223 700.865C322.019 701.24 321.55 701.38 321.175 701.177C320.799 700.973 320.66 700.504 320.863 700.129C321.066 699.753 321.536 699.614 321.911 699.817Z" fill="white"/>
<path opacity="0.11" d="M305.368 676.795C305.869 677.066 306.055 677.692 305.784 678.192C305.513 678.693 304.887 678.879 304.386 678.608C303.885 678.337 303.699 677.711 303.97 677.211C304.241 676.71 304.867 676.524 305.368 676.795Z" fill="white"/>
<path d="M291.362 682.101C291.613 682.237 291.705 682.549 291.57 682.799C291.435 683.049 291.122 683.142 290.872 683.007C290.622 682.872 290.529 682.559 290.664 682.309C290.8 682.059 291.112 681.966 291.362 682.101Z" fill="white"/>
<path d="M353.681 687.132C353.931 687.268 354.024 687.58 353.888 687.831C353.753 688.081 353.44 688.174 353.19 688.038C352.94 687.903 352.847 687.59 352.983 687.34C353.118 687.09 353.431 686.997 353.681 687.132Z" fill="white"/>
<path d="M452.47 740.617C452.72 740.752 452.813 741.065 452.677 741.315C452.542 741.565 452.229 741.658 451.979 741.523C451.729 741.387 451.636 741.075 451.772 740.824C451.907 740.574 452.22 740.481 452.47 740.617Z" fill="white"/>
<path d="M488.608 791.834C488.859 791.969 488.952 792.282 488.816 792.532C488.681 792.782 488.368 792.875 488.118 792.739C487.868 792.604 487.775 792.291 487.91 792.041C488.046 791.791 488.358 791.698 488.608 791.834Z" fill="white"/>
<path d="M524.195 768.322C524.446 768.457 524.538 768.77 524.403 769.02C524.268 769.27 523.955 769.363 523.705 769.228C523.455 769.092 523.362 768.78 523.497 768.529C523.633 768.279 523.945 768.186 524.195 768.322Z" fill="white"/>
<path d="M196.65 616.759C196.9 616.895 196.993 617.207 196.857 617.457C196.722 617.708 196.409 617.801 196.159 617.665C195.909 617.53 195.816 617.217 195.951 616.967C196.087 616.717 196.399 616.624 196.65 616.759Z" fill="white"/>
<path opacity="0.11" d="M176.608 637.548C176.858 637.684 176.951 637.996 176.815 638.247C176.68 638.497 176.367 638.59 176.117 638.454C175.867 638.319 175.774 638.006 175.909 637.756C176.045 637.506 176.357 637.413 176.608 637.548Z" fill="white"/>
<path opacity="0.11" d="M162.769 616.578C163.019 616.713 163.112 617.026 162.976 617.276C162.841 617.526 162.528 617.619 162.278 617.484C162.028 617.348 161.935 617.035 162.07 616.785C162.206 616.535 162.519 616.442 162.769 616.578Z" fill="white"/>
<path opacity="0.11" d="M192.442 597.484C192.692 597.619 192.785 597.932 192.649 598.182C192.514 598.432 192.201 598.525 191.951 598.39C191.701 598.254 191.608 597.942 191.743 597.692C191.879 597.441 192.191 597.348 192.442 597.484Z" fill="white"/>
<path opacity="0.11" d="M290.47 674.003C290.72 674.139 290.813 674.451 290.678 674.702C290.542 674.952 290.23 675.045 289.979 674.909C289.729 674.774 289.636 674.461 289.772 674.211C289.907 673.961 290.22 673.868 290.47 674.003Z" fill="white"/>
<path opacity="0.11" d="M361.605 670.328C361.856 670.463 361.949 670.776 361.813 671.026C361.678 671.276 361.365 671.369 361.115 671.234C360.865 671.098 360.772 670.786 360.907 670.535C361.043 670.285 361.355 670.192 361.605 670.328Z" fill="white"/>
<path opacity="0.11" d="M446.157 721.966C446.407 722.102 446.5 722.414 446.365 722.665C446.23 722.915 445.917 723.008 445.667 722.872C445.417 722.737 445.324 722.424 445.459 722.174C445.595 721.924 445.907 721.831 446.157 721.966Z" fill="white"/>
<path opacity="0.3" d="M211.364 639.375C211.615 639.51 211.707 639.823 211.572 640.073C211.437 640.323 211.124 640.416 210.874 640.28C210.624 640.145 210.531 639.832 210.666 639.582C210.802 639.332 211.114 639.239 211.364 639.375Z" fill="white"/>
<path d="M302.334 720.275C302.584 720.41 302.677 720.723 302.542 720.973C302.406 721.223 302.094 721.316 301.844 721.181C301.593 721.045 301.5 720.733 301.636 720.483C301.771 720.232 302.084 720.14 302.334 720.275Z" fill="white"/>
<path d="M371.628 758.962C371.878 759.098 371.971 759.41 371.836 759.661C371.7 759.911 371.388 760.004 371.137 759.868C370.887 759.733 370.794 759.42 370.93 759.17C371.065 758.92 371.378 758.827 371.628 758.962Z" fill="white"/>
<path d="M294.093 661.9C294.343 662.035 294.436 662.348 294.301 662.598C294.165 662.848 293.853 662.941 293.602 662.806C293.352 662.67 293.259 662.358 293.395 662.108C293.53 661.857 293.843 661.764 294.093 661.9Z" fill="white"/>
<path opacity="0.3" d="M262.374 644.726C262.624 644.862 262.717 645.174 262.582 645.424C262.446 645.674 262.134 645.767 261.884 645.632C261.633 645.497 261.541 645.184 261.676 644.934C261.811 644.684 262.124 644.591 262.374 644.726Z" fill="white"/>
<path opacity="0.11" d="M210.011 652.705C210.261 652.84 210.354 653.153 210.219 653.403C210.083 653.653 209.771 653.746 209.52 653.61C209.27 653.475 209.177 653.162 209.313 652.912C209.448 652.662 209.761 652.569 210.011 652.705Z" fill="white"/>
<path opacity="0.3" d="M316.386 713.816C316.636 713.951 316.729 714.264 316.593 714.514C316.458 714.764 316.145 714.857 315.895 714.722C315.645 714.586 315.552 714.274 315.688 714.024C315.823 713.773 316.136 713.681 316.386 713.816Z" fill="white"/>
<path opacity="0.3" d="M306.464 657.462C306.714 657.598 306.807 657.91 306.672 658.161C306.536 658.411 306.224 658.504 305.973 658.368C305.723 658.233 305.63 657.92 305.766 657.67C305.901 657.42 306.214 657.327 306.464 657.462Z" fill="white"/>
<path opacity="0.3" d="M254.084 623.244C254.334 623.379 254.427 623.692 254.292 623.942C254.156 624.192 253.844 624.285 253.594 624.15C253.343 624.014 253.25 623.702 253.386 623.451C253.521 623.201 253.834 623.108 254.084 623.244Z" fill="white"/>
<path opacity="0.3" d="M224.506 646.488C224.756 646.623 224.849 646.936 224.714 647.186C224.578 647.436 224.266 647.529 224.015 647.394C223.765 647.258 223.672 646.946 223.808 646.696C223.943 646.445 224.256 646.352 224.506 646.488Z" fill="white"/>
<path opacity="0.3" d="M505.62 800.457C505.87 800.592 505.963 800.905 505.828 801.155C505.692 801.405 505.38 801.498 505.13 801.362C504.88 801.227 504.787 800.914 504.922 800.664C505.057 800.414 505.37 800.321 505.62 800.457Z" fill="white"/>
<path opacity="0.11" d="M422.605 779.535C422.855 779.67 422.948 779.983 422.812 780.233C422.677 780.483 422.364 780.576 422.114 780.441C421.864 780.305 421.771 779.993 421.906 779.742C422.042 779.492 422.354 779.399 422.605 779.535Z" fill="white"/>
<path opacity="0.11" d="M503.936 774.347C504.186 774.483 504.279 774.795 504.143 775.045C504.008 775.295 503.695 775.388 503.445 775.253C503.195 775.118 503.102 774.805 503.237 774.555C503.373 774.305 503.685 774.212 503.936 774.347Z" fill="white"/>
<path opacity="0.3" d="M391.499 708.193C392 708.464 392.186 709.09 391.915 709.591C391.643 710.092 391.018 710.278 390.517 710.007C390.016 709.735 389.83 709.11 390.101 708.609C390.372 708.108 390.998 707.922 391.499 708.193Z" fill="white"/>
<path opacity="0.11" d="M410.877 736.264C411.377 736.535 411.564 737.16 411.292 737.661C411.021 738.162 410.396 738.348 409.895 738.077C409.394 737.806 409.208 737.18 409.479 736.679C409.75 736.179 410.376 735.992 410.877 736.264Z" fill="white"/>
<path d="M402.064 751.999C402.44 752.202 402.579 752.671 402.376 753.047C402.173 753.422 401.704 753.562 401.328 753.358C400.953 753.155 400.813 752.686 401.017 752.31C401.22 751.935 401.689 751.795 402.064 751.999Z" fill="white"/>
<path d="M396.561 687.491C396.937 687.694 397.076 688.163 396.873 688.539C396.67 688.914 396.201 689.054 395.825 688.85C395.45 688.647 395.31 688.178 395.514 687.803C395.717 687.427 396.186 687.288 396.561 687.491Z" fill="white"/>
<path d="M551.908 759.885C552.284 760.089 552.423 760.558 552.22 760.933C552.017 761.309 551.547 761.448 551.172 761.245C550.797 761.042 550.657 760.573 550.86 760.197C551.064 759.822 551.533 759.682 551.908 759.885Z" fill="white"/>
<path d="M253.645 608.356C254.021 608.559 254.16 609.029 253.957 609.404C253.754 609.779 253.285 609.919 252.909 609.716C252.534 609.512 252.394 609.043 252.598 608.668C252.801 608.292 253.27 608.153 253.645 608.356Z" fill="white"/>
<path d="M187.741 586.149C188.117 586.352 188.256 586.822 188.053 587.197C187.85 587.572 187.38 587.712 187.005 587.509C186.63 587.305 186.49 586.836 186.693 586.461C186.897 586.085 187.366 585.946 187.741 586.149Z" fill="white"/>
<path d="M170.222 600.102C170.597 600.306 170.737 600.775 170.533 601.15C170.33 601.526 169.861 601.665 169.486 601.462C169.11 601.259 168.971 600.789 169.174 600.414C169.377 600.039 169.846 599.899 170.222 600.102Z" fill="white"/>
<path d="M385.223 731.161C385.598 731.364 385.738 731.833 385.534 732.209C385.331 732.584 384.862 732.724 384.486 732.52C384.111 732.317 383.971 731.848 384.175 731.473C384.378 731.097 384.847 730.958 385.223 731.161Z" fill="white"/>
<path d="M324.53 654.938C324.906 655.141 325.045 655.611 324.842 655.986C324.639 656.361 324.169 656.501 323.794 656.298C323.419 656.094 323.279 655.625 323.482 655.25C323.686 654.874 324.155 654.735 324.53 654.938Z" fill="white"/>
<path d="M449.273 697.28C449.649 697.483 449.788 697.952 449.585 698.328C449.382 698.703 448.913 698.843 448.537 698.64C448.162 698.436 448.022 697.967 448.225 697.592C448.429 697.216 448.898 697.077 449.273 697.28Z" fill="white"/>
<path d="M552.668 793.114C553.043 793.317 553.183 793.786 552.98 794.162C552.776 794.537 552.307 794.677 551.932 794.474C551.556 794.27 551.417 793.801 551.62 793.426C551.823 793.05 552.292 792.911 552.668 793.114Z" fill="white"/>
<path d="M550.051 823.925C550.426 824.128 550.566 824.597 550.362 824.972C550.159 825.348 549.69 825.487 549.315 825.284C548.939 825.081 548.8 824.612 549.003 824.236C549.206 823.861 549.675 823.721 550.051 823.925Z" fill="white"/>
<path opacity="0.3" d="M439.688 771.791C440.189 772.062 440.375 772.688 440.104 773.188C439.833 773.689 439.207 773.875 438.706 773.604C438.206 773.333 438.02 772.707 438.291 772.207C438.562 771.706 439.188 771.52 439.688 771.791Z" fill="white"/>
<path d="M422.271 803.963C422.772 804.234 422.958 804.86 422.687 805.36C422.416 805.861 421.79 806.047 421.289 805.776C420.789 805.505 420.603 804.879 420.874 804.379C421.145 803.878 421.77 803.692 422.271 803.963Z" fill="white"/>
<path d="M468.429 774.456C468.804 774.659 468.944 775.128 468.74 775.504C468.537 775.879 468.068 776.019 467.692 775.815C467.317 775.612 467.177 775.143 467.381 774.767C467.584 774.392 468.053 774.252 468.429 774.456Z" fill="white"/>
<path opacity="0.3" d="M480.839 804.029C481.339 804.3 481.525 804.926 481.254 805.427C480.983 805.927 480.358 806.114 479.857 805.842C479.356 805.571 479.17 804.946 479.441 804.445C479.712 803.944 480.338 803.758 480.839 804.029Z" fill="white"/>
<path opacity="0.3" d="M543.121 796.146C543.622 796.417 543.808 797.043 543.537 797.544C543.265 798.045 542.64 798.231 542.139 797.96C541.638 797.689 541.452 797.063 541.723 796.562C541.994 796.061 542.62 795.875 543.121 796.146Z" fill="white"/>
<path opacity="0.3" d="M490.592 766.533C491.092 766.804 491.278 767.43 491.007 767.931C490.736 768.431 490.11 768.617 489.61 768.346C489.109 768.075 488.923 767.45 489.194 766.949C489.465 766.448 490.091 766.262 490.592 766.533Z" fill="white"/>
<path opacity="0.3" d="M234.659 618C235.16 618.271 235.346 618.897 235.075 619.397C234.804 619.898 234.178 620.084 233.677 619.813C233.176 619.542 232.99 618.916 233.261 618.416C233.533 617.915 234.158 617.729 234.659 618Z" fill="white"/>
<path opacity="0.3" d="M184.456 623.047C184.957 623.318 185.143 623.944 184.872 624.444C184.6 624.945 183.975 625.131 183.474 624.86C182.973 624.589 182.787 623.963 183.058 623.463C183.329 622.962 183.955 622.776 184.456 623.047Z" fill="white"/>
<path opacity="0.11" d="M517.179 799.682C517.68 799.953 517.866 800.578 517.595 801.079C517.324 801.58 516.698 801.766 516.198 801.495C515.697 801.224 515.511 800.598 515.782 800.097C516.053 799.597 516.679 799.41 517.179 799.682Z" fill="white"/>
<path opacity="0.3" d="M240.915 673.539C241.416 673.81 241.602 674.436 241.331 674.936C241.059 675.437 240.434 675.623 239.933 675.352C239.432 675.081 239.246 674.455 239.517 673.955C239.788 673.454 240.414 673.268 240.915 673.539Z" fill="white"/>
<path opacity="0.11" d="M223.772 675.976C224.273 676.248 224.459 676.873 224.188 677.374C223.917 677.875 223.291 678.061 222.79 677.79C222.29 677.519 222.104 676.893 222.375 676.392C222.646 675.891 223.272 675.705 223.772 675.976Z" fill="white"/>
<path opacity="0.3" d="M235.852 645.014C236.353 645.285 236.539 645.91 236.268 646.411C235.997 646.912 235.371 647.098 234.871 646.827C234.37 646.556 234.184 645.93 234.455 645.429C234.726 644.929 235.352 644.742 235.852 645.014Z" fill="white"/>
<path d="M263.924 660.802C264.299 661.005 264.439 661.474 264.236 661.849C264.032 662.225 263.563 662.364 263.188 662.161C262.812 661.958 262.673 661.489 262.876 661.113C263.079 660.738 263.548 660.598 263.924 660.802Z" fill="white"/>
<defs>
<filter id="filter0_f_2102_43063" x="-461.939" y="0.730865" width="1372.35" height="1158.65" filterUnits="userSpaceOnUse" color-interpolation-filters="sRGB">
<feFlood flood-opacity="0" result="BackgroundImageFix"/>
<feBlend mode="normal" in="SourceGraphic" in2="BackgroundImageFix" result="shape"/>
<feGaussianBlur stdDeviation="191.2" result="effect1_foregroundBlur_2102_43063"/>
</filter>
</defs>
</svg>
