<svg width="948" height="1383" viewBox="0 0 948 1383" fill="none" xmlns="http://www.w3.org/2000/svg">
<g filter="url(#filter0_f_2010_43060)">
<ellipse cx="456.241" cy="46.2053" rx="456.241" ry="46.2053" transform="matrix(-0.741058 0.671441 0.671441 0.741058 1029.2 351)" fill="#F46D6B" fill-opacity="0.9"/>
</g>
<path opacity="0.11" d="M937.384 345.85C936.992 346.233 936.984 346.862 937.366 347.254C937.749 347.647 938.378 347.655 938.771 347.272C939.164 346.889 939.172 346.261 938.789 345.868C938.406 345.475 937.777 345.467 937.384 345.85Z" fill="white"/>
<path d="M931.265 344.19C930.971 344.477 930.965 344.949 931.252 345.243C931.539 345.538 932.011 345.544 932.305 345.257C932.6 344.97 932.606 344.498 932.319 344.204C932.031 343.909 931.56 343.903 931.265 344.19Z" fill="white"/>
<path d="M926.807 363.089C926.513 363.377 926.507 363.848 926.794 364.143C927.081 364.437 927.552 364.443 927.847 364.156C928.141 363.869 928.147 363.397 927.86 363.103C927.573 362.808 927.102 362.802 926.807 363.089Z" fill="white"/>
<path d="M924.941 330.945C924.745 331.136 924.741 331.45 924.932 331.646C925.124 331.843 925.438 331.847 925.634 331.655C925.83 331.464 925.834 331.15 925.643 330.954C925.452 330.757 925.137 330.753 924.941 330.945Z" fill="white"/>
<path d="M847.439 406.483C847.243 406.674 847.239 406.988 847.43 407.184C847.621 407.381 847.935 407.385 848.132 407.193C848.328 407.002 848.332 406.688 848.141 406.492C847.949 406.295 847.635 406.291 847.439 406.483Z" fill="white"/>
<path d="M827.405 463.448C827.209 463.64 827.205 463.954 827.396 464.15C827.587 464.346 827.902 464.35 828.098 464.159C828.294 463.968 828.298 463.654 828.107 463.457C827.915 463.261 827.601 463.257 827.405 463.448Z" fill="white"/>
<path d="M788.242 451.013C788.046 451.204 788.042 451.518 788.233 451.714C788.425 451.911 788.739 451.915 788.935 451.723C789.131 451.532 789.135 451.218 788.944 451.022C788.753 450.825 788.439 450.821 788.242 451.013Z" fill="white"/>
<path opacity="0.11" d="M913.171 317.456C912.975 317.647 912.971 317.961 913.162 318.157C913.354 318.354 913.668 318.358 913.864 318.166C914.06 317.975 914.064 317.661 913.873 317.465C913.682 317.268 913.367 317.264 913.171 317.456Z" fill="white"/>
<path opacity="0.11" d="M848.387 387.537C848.191 387.729 848.187 388.043 848.378 388.239C848.569 388.435 848.883 388.439 849.079 388.248C849.276 388.057 849.28 387.743 849.088 387.546C848.897 387.35 848.583 387.346 848.387 387.537Z" fill="white"/>
<path d="M927.187 402.238C926.991 402.429 926.987 402.743 927.178 402.939C927.369 403.136 927.683 403.14 927.88 402.948C928.076 402.757 928.08 402.443 927.889 402.247C927.697 402.05 927.383 402.046 927.187 402.238Z" fill="white"/>
<path opacity="0.3" d="M813.905 475.912C813.709 476.103 813.705 476.417 813.896 476.614C814.087 476.81 814.401 476.814 814.598 476.623C814.794 476.431 814.798 476.117 814.607 475.921C814.415 475.725 814.101 475.721 813.905 475.912Z" fill="white"/>
<path opacity="0.11" d="M885.347 434.702C885.151 434.893 885.147 435.207 885.338 435.404C885.53 435.6 885.844 435.604 886.04 435.413C886.236 435.221 886.24 434.907 886.049 434.711C885.858 434.515 885.543 434.511 885.347 434.702Z" fill="white"/>
<path opacity="0.11" d="M808.604 451.273C808.408 451.464 808.404 451.778 808.595 451.975C808.786 452.171 809.101 452.175 809.297 451.984C809.493 451.792 809.497 451.478 809.306 451.282C809.114 451.086 808.8 451.082 808.604 451.273Z" fill="white"/>
<path opacity="0.3" d="M895.426 360.405C895.033 360.788 895.025 361.417 895.408 361.81C895.791 362.203 896.42 362.211 896.812 361.828C897.205 361.445 897.213 360.816 896.83 360.423C896.447 360.03 895.819 360.022 895.426 360.405Z" fill="white"/>
<path opacity="0.11" d="M884.844 391.514C884.451 391.897 884.443 392.526 884.826 392.919C885.209 393.312 885.838 393.32 886.231 392.937C886.623 392.554 886.632 391.925 886.249 391.532C885.866 391.139 885.237 391.131 884.844 391.514Z" fill="white"/>
<path d="M897.148 403.784C896.854 404.071 896.848 404.542 897.135 404.837C897.422 405.131 897.893 405.137 898.188 404.85C898.482 404.563 898.488 404.092 898.201 403.797C897.914 403.502 897.443 403.496 897.148 403.784Z" fill="white"/>
<path d="M885.293 342.548C884.998 342.835 884.992 343.307 885.279 343.601C885.566 343.896 886.038 343.902 886.332 343.615C886.627 343.328 886.633 342.856 886.346 342.562C886.059 342.267 885.587 342.261 885.293 342.548Z" fill="white"/>
<path d="M760.34 450.477C760.046 450.764 760.04 451.236 760.327 451.53C760.614 451.825 761.086 451.831 761.38 451.544C761.675 451.257 761.681 450.785 761.394 450.491C761.106 450.196 760.635 450.19 760.34 450.477Z" fill="white"/>
<path d="M907.28 380.043C906.985 380.33 906.979 380.801 907.266 381.096C907.553 381.39 908.025 381.396 908.32 381.109C908.614 380.822 908.62 380.351 908.333 380.056C908.046 379.762 907.574 379.755 907.28 380.043Z" fill="white"/>
<path d="M943.496 293.444C943.202 293.731 943.196 294.203 943.483 294.497C943.77 294.792 944.242 294.798 944.536 294.511C944.831 294.223 944.837 293.752 944.55 293.457C944.262 293.163 943.791 293.157 943.496 293.444Z" fill="white"/>
<path d="M839.011 365.476C838.717 365.763 838.711 366.234 838.998 366.529C839.285 366.823 839.756 366.829 840.051 366.542C840.345 366.255 840.351 365.784 840.064 365.489C839.777 365.195 839.306 365.189 839.011 365.476Z" fill="white"/>
<path d="M768.371 481.473C768.077 481.76 768.071 482.232 768.358 482.526C768.645 482.821 769.116 482.827 769.411 482.54C769.705 482.253 769.711 481.781 769.424 481.486C769.137 481.192 768.666 481.186 768.371 481.473Z" fill="white"/>
<path d="M778.896 509.342C778.601 509.629 778.595 510.1 778.882 510.395C779.169 510.69 779.641 510.696 779.935 510.408C780.23 510.121 780.236 509.65 779.949 509.355C779.662 509.061 779.19 509.055 778.896 509.342Z" fill="white"/>
<path opacity="0.3" d="M867.471 432.016C867.078 432.399 867.07 433.028 867.453 433.42C867.836 433.813 868.465 433.821 868.858 433.438C869.251 433.056 869.259 432.427 868.876 432.034C868.493 431.641 867.864 431.633 867.471 432.016Z" fill="white"/>
<path d="M892.076 457.254C891.684 457.637 891.676 458.266 892.059 458.658C892.441 459.051 893.07 459.059 893.463 458.676C893.856 458.294 893.864 457.665 893.481 457.272C893.098 456.879 892.469 456.871 892.076 457.254Z" fill="white"/>
<path d="M841.541 442.04C841.247 442.327 841.241 442.799 841.528 443.093C841.815 443.388 842.286 443.394 842.581 443.107C842.875 442.82 842.881 442.348 842.594 442.054C842.307 441.759 841.836 441.753 841.541 442.04Z" fill="white"/>
<path opacity="0.3" d="M837.812 472.71C837.42 473.093 837.411 473.721 837.794 474.114C838.177 474.507 838.806 474.515 839.199 474.132C839.592 473.749 839.6 473.121 839.217 472.728C838.834 472.335 838.205 472.327 837.812 472.71Z" fill="white"/>
<path opacity="0.3" d="M778.016 481.774C777.624 482.157 777.616 482.785 777.998 483.178C778.381 483.571 779.01 483.579 779.403 483.196C779.796 482.813 779.804 482.184 779.421 481.792C779.038 481.399 778.409 481.391 778.016 481.774Z" fill="white"/>
<path opacity="0.3" d="M818.919 440.522C818.526 440.905 818.518 441.534 818.901 441.927C819.283 442.32 819.912 442.328 820.305 441.945C820.698 441.562 820.706 440.933 820.323 440.54C819.94 440.147 819.311 440.139 818.919 440.522Z" fill="white"/>
<path opacity="0.11" d="M802.988 478.232C802.595 478.615 802.587 479.243 802.97 479.636C803.353 480.029 803.982 480.037 804.375 479.654C804.767 479.271 804.776 478.642 804.393 478.25C804.01 477.857 803.381 477.849 802.988 478.232Z" fill="white"/>
<path opacity="0.11" d="M920.262 574.24C919.869 574.623 919.861 575.251 920.244 575.644C920.627 576.037 921.256 576.045 921.649 575.662C922.041 575.279 922.049 574.651 921.667 574.258C921.284 573.865 920.655 573.857 920.262 574.24Z" fill="white"/>
<path d="M914.142 572.579C913.847 572.866 913.841 573.338 914.128 573.632C914.415 573.927 914.887 573.933 915.181 573.646C915.476 573.359 915.482 572.887 915.195 572.593C914.908 572.298 914.436 572.292 914.142 572.579Z" fill="white"/>
<path d="M909.684 591.48C909.39 591.767 909.384 592.238 909.671 592.533C909.958 592.827 910.429 592.833 910.724 592.546C911.018 592.259 911.024 591.788 910.737 591.493C910.45 591.199 909.979 591.193 909.684 591.48Z" fill="white"/>
<path d="M940.597 562.739C940.302 563.026 940.296 563.498 940.583 563.792C940.87 564.087 941.342 564.093 941.636 563.806C941.931 563.519 941.937 563.047 941.65 562.753C941.363 562.458 940.891 562.452 940.597 562.739Z" fill="white"/>
<path d="M907.819 559.334C907.622 559.525 907.618 559.84 907.81 560.036C908.001 560.232 908.315 560.236 908.511 560.045C908.708 559.854 908.712 559.539 908.52 559.343C908.329 559.147 908.015 559.143 907.819 559.334Z" fill="white"/>
<path d="M830.317 634.871C830.12 635.063 830.116 635.377 830.308 635.573C830.499 635.769 830.813 635.773 831.009 635.582C831.206 635.391 831.21 635.077 831.018 634.88C830.827 634.684 830.513 634.68 830.317 634.871Z" fill="white"/>
<path d="M810.282 691.837C810.086 692.028 810.082 692.343 810.273 692.539C810.465 692.735 810.779 692.739 810.975 692.548C811.171 692.356 811.175 692.042 810.984 691.846C810.793 691.65 810.479 691.646 810.282 691.837Z" fill="white"/>
<path d="M771.12 679.4C770.924 679.591 770.92 679.905 771.111 680.101C771.302 680.298 771.616 680.302 771.813 680.11C772.009 679.919 772.013 679.605 771.822 679.409C771.63 679.212 771.316 679.208 771.12 679.4Z" fill="white"/>
<path opacity="0.11" d="M896.049 545.844C895.853 546.035 895.849 546.35 896.04 546.546C896.232 546.742 896.546 546.746 896.742 546.555C896.938 546.364 896.942 546.049 896.751 545.853C896.56 545.657 896.246 545.653 896.049 545.844Z" fill="white"/>
<path opacity="0.11" d="M831.264 615.927C831.068 616.118 831.063 616.432 831.255 616.629C831.446 616.825 831.76 616.829 831.956 616.638C832.153 616.446 832.157 616.132 831.965 615.936C831.774 615.74 831.46 615.736 831.264 615.927Z" fill="white"/>
<path d="M910.065 630.627C909.868 630.818 909.864 631.133 910.056 631.329C910.247 631.525 910.561 631.529 910.757 631.338C910.953 631.147 910.957 630.832 910.766 630.636C910.575 630.44 910.261 630.436 910.065 630.627Z" fill="white"/>
<path opacity="0.3" d="M943.782 519.424C943.586 519.615 943.582 519.929 943.773 520.126C943.964 520.322 944.278 520.326 944.475 520.135C944.671 519.943 944.675 519.629 944.483 519.433C944.292 519.237 943.978 519.233 943.782 519.424Z" fill="white"/>
<path opacity="0.3" d="M796.782 704.302C796.586 704.493 796.582 704.807 796.773 705.003C796.964 705.2 797.279 705.204 797.475 705.012C797.671 704.821 797.675 704.507 797.484 704.311C797.292 704.114 796.978 704.11 796.782 704.302Z" fill="white"/>
<path opacity="0.11" d="M868.224 663.09C868.028 663.281 868.024 663.595 868.215 663.792C868.406 663.988 868.72 663.992 868.917 663.801C869.113 663.609 869.117 663.295 868.926 663.099C868.734 662.903 868.42 662.899 868.224 663.09Z" fill="white"/>
<path opacity="0.11" d="M791.482 679.661C791.285 679.852 791.281 680.166 791.473 680.362C791.664 680.559 791.978 680.563 792.174 680.371C792.37 680.18 792.374 679.866 792.183 679.67C791.992 679.473 791.678 679.469 791.482 679.661Z" fill="white"/>
<path opacity="0.3" d="M878.302 588.794C877.91 589.177 877.901 589.806 878.284 590.199C878.667 590.592 879.296 590.6 879.689 590.217C880.082 589.834 880.09 589.205 879.707 588.812C879.324 588.419 878.695 588.411 878.302 588.794Z" fill="white"/>
<path opacity="0.11" d="M867.722 619.904C867.329 620.286 867.321 620.915 867.704 621.308C868.087 621.701 868.716 621.709 869.109 621.326C869.501 620.943 869.509 620.314 869.127 619.922C868.744 619.529 868.115 619.521 867.722 619.904Z" fill="white"/>
<path d="M880.025 632.173C879.731 632.46 879.725 632.932 880.012 633.226C880.299 633.521 880.771 633.527 881.065 633.24C881.36 632.953 881.366 632.481 881.079 632.187C880.791 631.892 880.32 631.886 880.025 632.173Z" fill="white"/>
<path d="M868.17 570.939C867.876 571.226 867.87 571.697 868.157 571.992C868.444 572.286 868.916 572.292 869.21 572.005C869.505 571.718 869.511 571.247 869.224 570.952C868.937 570.658 868.465 570.652 868.17 570.939Z" fill="white"/>
<path d="M743.219 678.867C742.924 679.154 742.918 679.626 743.205 679.92C743.492 680.215 743.964 680.221 744.258 679.934C744.553 679.647 744.559 679.175 744.272 678.881C743.985 678.586 743.513 678.58 743.219 678.867Z" fill="white"/>
<path d="M890.157 608.431C889.863 608.718 889.856 609.19 890.144 609.484C890.431 609.779 890.902 609.785 891.197 609.498C891.491 609.211 891.497 608.739 891.21 608.445C890.923 608.15 890.452 608.144 890.157 608.431Z" fill="white"/>
<path d="M926.374 521.834C926.079 522.121 926.073 522.593 926.36 522.887C926.647 523.182 927.119 523.188 927.413 522.901C927.708 522.614 927.714 522.142 927.427 521.848C927.14 521.553 926.668 521.547 926.374 521.834Z" fill="white"/>
<path d="M821.889 593.866C821.595 594.153 821.589 594.624 821.876 594.919C822.163 595.213 822.634 595.219 822.929 594.932C823.223 594.645 823.229 594.174 822.942 593.879C822.655 593.585 822.184 593.579 821.889 593.866Z" fill="white"/>
<path d="M751.248 709.863C750.954 710.15 750.948 710.622 751.235 710.916C751.522 711.211 751.993 711.217 752.288 710.93C752.582 710.643 752.588 710.171 752.301 709.877C752.014 709.582 751.543 709.576 751.248 709.863Z" fill="white"/>
<path d="M761.772 737.73C761.477 738.017 761.471 738.489 761.758 738.783C762.045 739.078 762.517 739.084 762.811 738.797C763.106 738.51 763.112 738.038 762.825 737.744C762.538 737.449 762.066 737.443 761.772 737.73Z" fill="white"/>
<path opacity="0.3" d="M850.349 660.406C849.956 660.789 849.948 661.418 850.331 661.811C850.714 662.204 851.343 662.212 851.736 661.829C852.129 661.446 852.137 660.817 851.754 660.424C851.371 660.031 850.742 660.023 850.349 660.406Z" fill="white"/>
<path d="M874.954 685.644C874.562 686.027 874.554 686.656 874.936 687.049C875.319 687.441 875.948 687.449 876.341 687.067C876.734 686.684 876.742 686.055 876.359 685.662C875.976 685.269 875.347 685.261 874.954 685.644Z" fill="white"/>
<path d="M824.419 670.429C824.124 670.716 824.118 671.188 824.405 671.482C824.692 671.777 825.164 671.783 825.458 671.496C825.753 671.209 825.759 670.737 825.472 670.443C825.185 670.148 824.713 670.142 824.419 670.429Z" fill="white"/>
<path opacity="0.3" d="M820.69 701.1C820.297 701.483 820.289 702.112 820.672 702.505C821.055 702.897 821.684 702.906 822.076 702.523C822.469 702.14 822.477 701.511 822.094 701.118C821.711 700.725 821.083 700.717 820.69 701.1Z" fill="white"/>
<path opacity="0.3" d="M760.895 710.162C760.502 710.545 760.494 711.174 760.877 711.567C761.26 711.959 761.888 711.968 762.281 711.585C762.674 711.202 762.682 710.573 762.299 710.18C761.916 709.787 761.287 709.779 760.895 710.162Z" fill="white"/>
<path opacity="0.3" d="M801.796 668.911C801.403 669.294 801.395 669.923 801.778 670.316C802.16 670.708 802.789 670.717 803.182 670.334C803.575 669.951 803.583 669.322 803.2 668.929C802.817 668.536 802.188 668.528 801.796 668.911Z" fill="white"/>
<path opacity="0.11" d="M785.865 706.621C785.472 707.004 785.464 707.633 785.847 708.026C786.23 708.418 786.859 708.427 787.252 708.044C787.645 707.661 787.653 707.032 787.27 706.639C786.887 706.246 786.258 706.238 785.865 706.621Z" fill="white"/>
<path opacity="0.11" d="M679.039 700.743C678.647 701.126 678.639 701.754 679.021 702.147C679.404 702.54 680.033 702.548 680.426 702.165C680.819 701.782 680.827 701.153 680.444 700.761C680.061 700.368 679.432 700.36 679.039 700.743Z" fill="white"/>
<path d="M672.92 699.083C672.625 699.37 672.619 699.841 672.906 700.136C673.193 700.43 673.665 700.437 673.959 700.149C674.254 699.862 674.26 699.391 673.973 699.096C673.686 698.802 673.214 698.796 672.92 699.083Z" fill="white"/>
<path d="M668.462 717.983C668.167 718.27 668.161 718.741 668.448 719.036C668.735 719.33 669.207 719.336 669.501 719.049C669.796 718.762 669.802 718.291 669.515 717.996C669.228 717.702 668.756 717.696 668.462 717.983Z" fill="white"/>
<path d="M699.375 689.242C699.08 689.529 699.074 690 699.361 690.295C699.648 690.589 700.12 690.595 700.414 690.308C700.709 690.021 700.715 689.55 700.428 689.255C700.141 688.961 699.669 688.955 699.375 689.242Z" fill="white"/>
<path opacity="0.11" d="M708.658 663.558C708.265 663.941 708.257 664.569 708.64 664.962C709.022 665.355 709.651 665.363 710.044 664.98C710.437 664.597 710.445 663.968 710.062 663.576C709.679 663.183 709.05 663.175 708.658 663.558Z" fill="white"/>
<path d="M723.032 664.795C722.836 664.986 722.832 665.301 723.023 665.497C723.215 665.693 723.529 665.697 723.725 665.506C723.921 665.314 723.925 665 723.734 664.804C723.543 664.608 723.229 664.604 723.032 664.795Z" fill="white"/>
<path d="M666.597 685.837C666.401 686.028 666.397 686.342 666.588 686.539C666.78 686.735 667.094 686.739 667.29 686.548C667.486 686.356 667.49 686.042 667.299 685.846C667.108 685.65 666.793 685.646 666.597 685.837Z" fill="white"/>
<path d="M589.094 761.375C588.898 761.566 588.894 761.881 589.085 762.077C589.277 762.273 589.591 762.277 589.787 762.086C589.983 761.895 589.987 761.58 589.796 761.384C589.605 761.188 589.291 761.184 589.094 761.375Z" fill="white"/>
<path d="M569.059 818.341C568.863 818.533 568.859 818.847 569.05 819.043C569.242 819.239 569.556 819.243 569.752 819.052C569.948 818.861 569.952 818.546 569.761 818.35C569.57 818.154 569.256 818.15 569.059 818.341Z" fill="white"/>
<path d="M529.897 805.905C529.701 806.096 529.697 806.41 529.888 806.606C530.08 806.802 530.394 806.806 530.59 806.615C530.786 806.424 530.79 806.11 530.599 805.913C530.408 805.717 530.094 805.713 529.897 805.905Z" fill="white"/>
<path d="M793.64 579.339C793.444 579.53 793.44 579.844 793.631 580.04C793.822 580.237 794.136 580.241 794.333 580.049C794.529 579.858 794.533 579.544 794.342 579.348C794.15 579.152 793.836 579.148 793.64 579.339Z" fill="white"/>
<path opacity="0.11" d="M817.68 593.34C817.483 593.531 817.479 593.845 817.671 594.041C817.862 594.237 818.176 594.241 818.372 594.05C818.568 593.859 818.572 593.545 818.381 593.349C818.19 593.152 817.876 593.148 817.68 593.34Z" fill="white"/>
<path opacity="0.11" d="M824.994 570.264C824.797 570.455 824.793 570.769 824.985 570.966C825.176 571.162 825.49 571.166 825.686 570.975C825.883 570.783 825.887 570.469 825.695 570.273C825.504 570.077 825.19 570.073 824.994 570.264Z" fill="white"/>
<path opacity="0.11" d="M792.473 560.368C792.277 560.559 792.273 560.873 792.464 561.069C792.655 561.266 792.969 561.27 793.166 561.078C793.362 560.887 793.366 560.573 793.175 560.377C792.983 560.18 792.669 560.176 792.473 560.368Z" fill="white"/>
<path opacity="0.11" d="M721.731 657.056C721.535 657.247 721.531 657.561 721.722 657.757C721.913 657.954 722.227 657.958 722.424 657.766C722.62 657.575 722.624 657.261 722.433 657.065C722.241 656.868 721.927 656.864 721.731 657.056Z" fill="white"/>
<path opacity="0.11" d="M654.833 672.346C654.637 672.537 654.633 672.852 654.824 673.048C655.016 673.244 655.33 673.248 655.526 673.057C655.722 672.865 655.726 672.551 655.535 672.355C655.344 672.159 655.03 672.155 654.833 672.346Z" fill="white"/>
<path opacity="0.11" d="M590.042 742.431C589.845 742.622 589.841 742.936 590.033 743.133C590.224 743.329 590.538 743.333 590.734 743.141C590.931 742.95 590.935 742.636 590.743 742.44C590.552 742.244 590.238 742.24 590.042 742.431Z" fill="white"/>
<path opacity="0.3" d="M785.947 604.167C785.751 604.358 785.747 604.672 785.938 604.868C786.129 605.065 786.443 605.069 786.64 604.877C786.836 604.686 786.84 604.372 786.649 604.176C786.457 603.979 786.143 603.975 785.947 604.167Z" fill="white"/>
<path d="M722.897 703.058C722.701 703.25 722.697 703.564 722.888 703.76C723.079 703.956 723.393 703.96 723.589 703.769C723.786 703.578 723.79 703.264 723.598 703.067C723.407 702.871 723.093 702.867 722.897 703.058Z" fill="white"/>
<path d="M668.842 757.13C668.646 757.321 668.642 757.635 668.833 757.832C669.025 758.028 669.339 758.032 669.535 757.841C669.731 757.649 669.735 757.335 669.544 757.139C669.353 756.943 669.039 756.939 668.842 757.13Z" fill="white"/>
<path d="M715.191 646.79C714.995 646.981 714.991 647.295 715.182 647.491C715.373 647.687 715.687 647.691 715.884 647.5C716.08 647.309 716.084 646.995 715.893 646.798C715.701 646.602 715.387 646.598 715.191 646.79Z" fill="white"/>
<path opacity="0.3" d="M740.075 622.534C739.879 622.725 739.875 623.039 740.066 623.235C740.258 623.432 740.572 623.436 740.768 623.244C740.964 623.053 740.968 622.739 740.777 622.543C740.586 622.346 740.272 622.342 740.075 622.534Z" fill="white"/>
<path opacity="0.11" d="M790.705 616.165C790.508 616.356 790.504 616.67 790.696 616.866C790.887 617.063 791.201 617.067 791.397 616.875C791.594 616.684 791.598 616.37 791.406 616.174C791.215 615.977 790.901 615.973 790.705 616.165Z" fill="white"/>
<path opacity="0.3" d="M708.176 700.765C707.98 700.957 707.976 701.271 708.167 701.467C708.358 701.663 708.673 701.667 708.869 701.476C709.065 701.285 709.069 700.971 708.878 700.774C708.686 700.578 708.372 700.574 708.176 700.765Z" fill="white"/>
<path opacity="0.3" d="M702.559 645.927C702.363 646.118 702.359 646.433 702.55 646.629C702.742 646.825 703.056 646.829 703.252 646.638C703.448 646.447 703.452 646.132 703.261 645.936C703.07 645.74 702.756 645.736 702.559 645.927Z" fill="white"/>
<path opacity="0.3" d="M742.113 600.445C741.916 600.636 741.912 600.95 742.104 601.147C742.295 601.343 742.609 601.347 742.805 601.156C743.002 600.964 743.006 600.65 742.814 600.454C742.623 600.258 742.309 600.254 742.113 600.445Z" fill="white"/>
<path opacity="0.3" d="M775.635 614.214C775.439 614.405 775.435 614.719 775.626 614.916C775.817 615.112 776.132 615.116 776.328 614.925C776.524 614.733 776.528 614.419 776.337 614.223C776.145 614.027 775.831 614.023 775.635 614.214Z" fill="white"/>
<path opacity="0.3" d="M555.56 830.805C555.364 830.996 555.36 831.31 555.551 831.506C555.742 831.703 556.057 831.707 556.253 831.515C556.449 831.324 556.453 831.01 556.262 830.814C556.071 830.617 555.756 830.613 555.56 830.805Z" fill="white"/>
<path opacity="0.11" d="M627.002 789.594C626.806 789.785 626.802 790.099 626.993 790.295C627.184 790.492 627.498 790.496 627.695 790.304C627.891 790.113 627.895 789.799 627.704 789.603C627.512 789.406 627.198 789.402 627.002 789.594Z" fill="white"/>
<path opacity="0.11" d="M550.259 806.165C550.063 806.357 550.059 806.671 550.25 806.867C550.442 807.063 550.756 807.067 550.952 806.876C551.148 806.685 551.152 806.371 550.961 806.174C550.77 805.978 550.456 805.974 550.259 806.165Z" fill="white"/>
<path opacity="0.3" d="M637.081 715.297C636.688 715.68 636.68 716.309 637.063 716.702C637.446 717.094 638.075 717.103 638.467 716.72C638.86 716.337 638.868 715.708 638.485 715.315C638.103 714.922 637.474 714.914 637.081 715.297Z" fill="white"/>
<path opacity="0.11" d="M626.5 746.407C626.107 746.79 626.099 747.419 626.482 747.812C626.865 748.205 627.494 748.213 627.886 747.83C628.279 747.447 628.287 746.818 627.904 746.425C627.521 746.032 626.893 746.024 626.5 746.407Z" fill="white"/>
<path d="M638.803 758.676C638.508 758.963 638.502 759.435 638.789 759.729C639.076 760.024 639.548 760.03 639.842 759.743C640.137 759.456 640.143 758.984 639.856 758.69C639.569 758.395 639.097 758.389 638.803 758.676Z" fill="white"/>
<path d="M626.948 697.441C626.654 697.729 626.648 698.2 626.935 698.495C627.222 698.789 627.693 698.795 627.988 698.508C628.282 698.221 628.289 697.75 628.001 697.455C627.714 697.16 627.243 697.154 626.948 697.441Z" fill="white"/>
<path d="M501.996 805.37C501.701 805.657 501.695 806.129 501.982 806.423C502.27 806.718 502.741 806.724 503.036 806.437C503.33 806.15 503.336 805.678 503.049 805.384C502.762 805.089 502.29 805.083 501.996 805.37Z" fill="white"/>
<path d="M738.605 586.532C738.311 586.819 738.305 587.291 738.592 587.585C738.879 587.88 739.35 587.886 739.645 587.599C739.939 587.312 739.946 586.84 739.658 586.546C739.371 586.251 738.9 586.245 738.605 586.532Z" fill="white"/>
<path d="M793.851 548.626C793.557 548.913 793.551 549.384 793.838 549.679C794.125 549.973 794.596 549.979 794.891 549.692C795.185 549.405 795.191 548.934 794.904 548.639C794.617 548.345 794.146 548.339 793.851 548.626Z" fill="white"/>
<path d="M813.756 556.954C813.461 557.241 813.455 557.712 813.742 558.007C814.029 558.301 814.501 558.307 814.795 558.02C815.09 557.733 815.096 557.262 814.809 556.967C814.522 556.673 814.05 556.667 813.756 556.954Z" fill="white"/>
<path d="M648.935 734.935C648.64 735.222 648.634 735.693 648.921 735.988C649.209 736.283 649.68 736.289 649.975 736.001C650.269 735.714 650.275 735.243 649.988 734.948C649.701 734.654 649.229 734.648 648.935 734.935Z" fill="white"/>
<path d="M685.152 648.337C684.857 648.624 684.851 649.096 685.138 649.39C685.426 649.685 685.897 649.691 686.192 649.404C686.486 649.117 686.492 648.645 686.205 648.351C685.918 648.056 685.446 648.05 685.152 648.337Z" fill="white"/>
<path d="M580.667 720.369C580.372 720.656 580.366 721.128 580.653 721.422C580.94 721.717 581.412 721.723 581.706 721.436C582.001 721.149 582.007 720.677 581.72 720.383C581.433 720.088 580.961 720.082 580.667 720.369Z" fill="white"/>
<path d="M510.026 836.367C509.731 836.654 509.725 837.125 510.013 837.42C510.3 837.714 510.771 837.72 511.066 837.433C511.36 837.146 511.366 836.675 511.079 836.38C510.792 836.086 510.321 836.079 510.026 836.367Z" fill="white"/>
<path d="M520.549 864.234C520.255 864.521 520.249 864.993 520.536 865.287C520.823 865.582 521.295 865.588 521.589 865.301C521.884 865.014 521.89 864.542 521.603 864.248C521.315 863.953 520.844 863.947 520.549 864.234Z" fill="white"/>
<path opacity="0.3" d="M609.133 786.908C608.741 787.291 608.733 787.92 609.115 788.313C609.498 788.705 610.127 788.713 610.52 788.331C610.913 787.948 610.921 787.319 610.538 786.926C610.155 786.533 609.526 786.525 609.133 786.908Z" fill="white"/>
<path d="M633.732 812.146C633.339 812.529 633.331 813.158 633.714 813.551C634.097 813.944 634.726 813.952 635.118 813.569C635.511 813.186 635.519 812.557 635.136 812.164C634.753 811.771 634.125 811.763 633.732 812.146Z" fill="white"/>
<path d="M693.326 1055.46C692.933 1055.85 692.925 1056.48 693.308 1056.87C693.691 1057.26 694.32 1057.27 694.713 1056.89C695.106 1056.5 695.114 1055.87 694.731 1055.48C694.348 1055.09 693.719 1055.08 693.326 1055.46Z" fill="white"/>
<path d="M583.196 796.932C582.901 797.219 582.895 797.691 583.182 797.985C583.47 798.28 583.941 798.286 584.236 797.999C584.53 797.712 584.536 797.24 584.249 796.946C583.962 796.651 583.49 796.645 583.196 796.932Z" fill="white"/>
<path opacity="0.3" d="M579.468 827.603C579.075 827.985 579.067 828.614 579.45 829.007C579.833 829.4 580.461 829.408 580.854 829.025C581.247 828.642 581.255 828.013 580.872 827.621C580.489 827.228 579.86 827.22 579.468 827.603Z" fill="white"/>
<path opacity="0.3" d="M519.671 836.667C519.278 837.049 519.27 837.678 519.653 838.071C520.036 838.464 520.665 838.472 521.058 838.089C521.451 837.706 521.459 837.077 521.076 836.684C520.693 836.292 520.064 836.284 519.671 836.667Z" fill="white"/>
<path opacity="0.3" d="M560.573 795.414C560.18 795.797 560.172 796.426 560.555 796.819C560.938 797.212 561.567 797.22 561.959 796.837C562.352 796.454 562.36 795.825 561.977 795.432C561.594 795.039 560.966 795.031 560.573 795.414Z" fill="white"/>
<path opacity="0.3" d="M758.737 590.479C758.345 590.862 758.337 591.49 758.719 591.883C759.102 592.276 759.731 592.284 760.124 591.901C760.517 591.518 760.525 590.89 760.142 590.497C759.759 590.104 759.13 590.096 758.737 590.479Z" fill="white"/>
<path opacity="0.3" d="M806.595 581.961C806.202 582.344 806.194 582.973 806.577 583.366C806.959 583.759 807.588 583.767 807.981 583.384C808.374 583.001 808.382 582.372 807.999 581.979C807.616 581.586 806.987 581.578 806.595 581.961Z" fill="white"/>
<path opacity="0.11" d="M544.643 833.124C544.25 833.507 544.242 834.136 544.625 834.529C545.008 834.922 545.636 834.93 546.029 834.547C546.422 834.164 546.43 833.535 546.047 833.142C545.664 832.749 545.035 832.741 544.643 833.124Z" fill="white"/>
<path opacity="0.3" d="M767.538 643.598C767.146 643.981 767.138 644.609 767.52 645.002C767.903 645.395 768.532 645.403 768.925 645.02C769.318 644.637 769.326 644.008 768.943 643.616C768.56 643.223 767.931 643.215 767.538 643.598Z" fill="white"/>
<path opacity="0.11" d="M784.067 641.352C783.674 641.735 783.666 642.364 784.049 642.756C784.432 643.149 785.061 643.157 785.454 642.774C785.846 642.391 785.854 641.763 785.472 641.37C785.089 640.977 784.46 640.969 784.067 641.352Z" fill="white"/>
<path opacity="0.3" d="M764.732 615.831C764.339 616.213 764.331 616.842 764.714 617.235C765.097 617.628 765.726 617.636 766.119 617.253C766.512 616.87 766.52 616.241 766.137 615.849C765.754 615.456 765.125 615.448 764.732 615.831Z" fill="white"/>
<path d="M742.864 637.841C742.57 638.128 742.564 638.599 742.851 638.894C743.138 639.188 743.609 639.194 743.904 638.907C744.198 638.62 744.204 638.149 743.917 637.854C743.63 637.56 743.159 637.554 742.864 637.841Z" fill="white"/>
<defs>
<filter id="filter0_f_2010_43060" x="0.181549" y="0.90567" width="1443.89" height="1381.35" filterUnits="userSpaceOnUse" color-interpolation-filters="sRGB">
<feFlood flood-opacity="0" result="BackgroundImageFix"/>
<feBlend mode="normal" in="SourceGraphic" in2="BackgroundImageFix" result="shape"/>
<feGaussianBlur stdDeviation="191.2" result="effect1_foregroundBlur_2010_43060"/>
</filter>
</defs>
</svg>
