<svg width="906" height="1253" viewBox="0 0 906 1253" fill="none" xmlns="http://www.w3.org/2000/svg">
<g filter="url(#filter0_f_2156_43067)">
<ellipse cx="384.962" cy="51.0691" rx="384.962" ry="51.0691" transform="matrix(-0.781672 0.62369 0.62369 0.781672 954.297 346.74)" fill="#732CFF"/>
</g>
<path d="M815.864 486.396C815.61 486.525 815.51 486.836 815.639 487.089C815.769 487.342 816.079 487.443 816.332 487.313C816.586 487.184 816.686 486.874 816.557 486.62C816.427 486.367 816.117 486.267 815.864 486.396Z" fill="white"/>
<path d="M778.502 536.726C778.249 536.855 778.148 537.166 778.278 537.419C778.407 537.672 778.717 537.773 778.97 537.643C779.224 537.514 779.324 537.204 779.195 536.95C779.066 536.697 778.755 536.597 778.502 536.726Z" fill="white"/>
<path d="M743.491 512.366C743.238 512.495 743.137 512.805 743.267 513.059C743.396 513.312 743.706 513.412 743.96 513.283C744.213 513.154 744.314 512.843 744.184 512.59C744.055 512.337 743.745 512.236 743.491 512.366Z" fill="white"/>
<path opacity="0.11" d="M822.623 467.903C822.37 468.032 822.269 468.342 822.399 468.596C822.528 468.849 822.838 468.95 823.092 468.82C823.345 468.691 823.445 468.381 823.316 468.127C823.187 467.874 822.876 467.773 822.623 467.903Z" fill="white"/>
<path d="M896.24 506.681C895.986 506.811 895.886 507.121 896.015 507.374C896.145 507.627 896.455 507.728 896.708 507.599C896.962 507.469 897.062 507.159 896.933 506.906C896.803 506.652 896.493 506.552 896.24 506.681Z" fill="white"/>
<path opacity="0.3" d="M761.289 544.936C761.035 545.065 760.935 545.376 761.064 545.629C761.194 545.882 761.504 545.983 761.757 545.853C762.01 545.724 762.111 545.414 761.982 545.16C761.852 544.907 761.542 544.807 761.289 544.936Z" fill="white"/>
<path opacity="0.11" d="M844.784 526.02C844.53 526.149 844.43 526.46 844.559 526.713C844.689 526.966 844.999 527.067 845.252 526.937C845.506 526.808 845.606 526.498 845.477 526.244C845.347 525.991 845.037 525.891 844.784 526.02Z" fill="white"/>
<path opacity="0.11" d="M763.6 518.878C763.347 519.008 763.246 519.318 763.376 519.571C763.505 519.825 763.815 519.925 764.069 519.796C764.322 519.666 764.422 519.356 764.293 519.103C764.164 518.849 763.853 518.749 763.6 518.878Z" fill="white"/>
<path opacity="0.3" d="M877.597 455.448C877.089 455.707 876.888 456.328 877.147 456.835C877.406 457.342 878.027 457.543 878.534 457.284C879.042 457.025 879.243 456.404 878.984 455.897C878.725 455.39 878.104 455.189 877.597 455.448Z" fill="white"/>
<path opacity="0.11" d="M857.549 483.044C857.042 483.303 856.841 483.924 857.1 484.431C857.359 484.938 857.98 485.139 858.487 484.88C858.994 484.621 859.195 484 858.936 483.493C858.677 482.986 858.056 482.785 857.549 483.044Z" fill="white"/>
<path d="M865.98 498.987C865.6 499.182 865.449 499.647 865.644 500.027C865.838 500.408 866.303 500.558 866.684 500.364C867.064 500.17 867.215 499.704 867.02 499.324C866.826 498.944 866.361 498.793 865.98 498.987Z" fill="white"/>
<path d="M873.034 434.63C872.653 434.824 872.503 435.29 872.697 435.67C872.891 436.05 873.357 436.201 873.737 436.007C874.117 435.813 874.268 435.347 874.074 434.967C873.88 434.587 873.414 434.436 873.034 434.63Z" fill="white"/>
<path d="M715.989 503.265C715.609 503.459 715.458 503.925 715.652 504.305C715.847 504.685 716.312 504.836 716.692 504.642C717.073 504.447 717.223 503.982 717.029 503.602C716.835 503.221 716.369 503.071 715.989 503.265Z" fill="white"/>
<path d="M883.319 478.56C882.939 478.754 882.788 479.219 882.982 479.6C883.176 479.98 883.642 480.131 884.022 479.937C884.402 479.742 884.553 479.277 884.359 478.896C884.165 478.516 883.699 478.365 883.319 478.56Z" fill="white"/>
<path d="M820.103 443.148C819.722 443.342 819.571 443.807 819.766 444.188C819.96 444.568 820.425 444.719 820.806 444.524C821.186 444.33 821.337 443.865 821.143 443.484C820.948 443.104 820.483 442.953 820.103 443.148Z" fill="white"/>
<path d="M714.431 536.465C714.051 536.659 713.9 537.125 714.094 537.505C714.288 537.885 714.754 538.036 715.134 537.842C715.515 537.648 715.665 537.182 715.471 536.802C715.277 536.422 714.811 536.271 714.431 536.465Z" fill="white"/>
<path d="M716.307 567.33C715.927 567.524 715.776 567.99 715.97 568.37C716.164 568.75 716.63 568.901 717.01 568.707C717.391 568.513 717.541 568.047 717.347 567.667C717.153 567.287 716.687 567.136 716.307 567.33Z" fill="white"/>
<path opacity="0.3" d="M827.883 517.866C827.376 518.125 827.175 518.746 827.434 519.253C827.693 519.76 828.314 519.961 828.821 519.702C829.328 519.443 829.529 518.822 829.27 518.315C829.011 517.808 828.39 517.607 827.883 517.866Z" fill="white"/>
<path d="M844.528 550.447C844.021 550.706 843.82 551.327 844.079 551.834C844.338 552.341 844.959 552.542 845.466 552.283C845.973 552.024 846.174 551.403 845.915 550.896C845.656 550.389 845.035 550.188 844.528 550.447Z" fill="white"/>
<path d="M799.094 519.84C798.714 520.034 798.563 520.5 798.757 520.88C798.952 521.26 799.417 521.411 799.797 521.217C800.178 521.023 800.328 520.557 800.134 520.177C799.94 519.797 799.474 519.646 799.094 519.84Z" fill="white"/>
<path opacity="0.3" d="M785.977 549.105C785.47 549.364 785.269 549.985 785.528 550.492C785.787 550.999 786.408 551.201 786.915 550.942C787.422 550.683 787.623 550.062 787.364 549.554C787.105 549.047 786.484 548.846 785.977 549.105Z" fill="white"/>
<path opacity="0.3" d="M723.904 539.725C723.397 539.984 723.195 540.605 723.454 541.112C723.713 541.62 724.334 541.821 724.842 541.562C725.349 541.303 725.55 540.682 725.291 540.175C725.032 539.668 724.411 539.466 723.904 539.725Z" fill="white"/>
<path opacity="0.3" d="M777.129 511.386C776.622 511.645 776.421 512.266 776.68 512.774C776.939 513.281 777.56 513.482 778.067 513.223C778.574 512.964 778.775 512.343 778.516 511.836C778.257 511.329 777.636 511.128 777.129 511.386Z" fill="white"/>
<path opacity="0.11" d="M749.75 543.884C749.243 544.143 749.042 544.764 749.301 545.271C749.56 545.778 750.181 545.979 750.688 545.72C751.195 545.461 751.396 544.84 751.137 544.333C750.878 543.826 750.257 543.625 749.75 543.884Z" fill="white"/>
<path opacity="0.11" d="M836.542 675.098C836.035 675.357 835.834 675.978 836.093 676.485C836.352 676.993 836.973 677.194 837.48 676.935C837.987 676.676 838.188 676.055 837.929 675.548C837.67 675.041 837.049 674.839 836.542 675.098Z" fill="white"/>
<path d="M830.984 671.573C830.604 671.768 830.453 672.233 830.647 672.613C830.841 672.994 831.307 673.144 831.687 672.95C832.067 672.756 832.218 672.29 832.024 671.91C831.83 671.53 831.364 671.379 830.984 671.573Z" fill="white"/>
<path d="M820.758 688.943C820.378 689.138 820.227 689.603 820.421 689.984C820.616 690.364 821.081 690.515 821.461 690.32C821.842 690.126 821.992 689.661 821.798 689.28C821.604 688.9 821.138 688.749 820.758 688.943Z" fill="white"/>
<path d="M860.236 669.942C859.856 670.136 859.705 670.601 859.899 670.982C860.094 671.362 860.559 671.513 860.939 671.318C861.32 671.124 861.471 670.659 861.276 670.278C861.082 669.898 860.616 669.747 860.236 669.942Z" fill="white"/>
<path opacity="0.11" d="M877.329 647.326C876.822 647.585 876.621 648.206 876.88 648.713C877.139 649.22 877.76 649.421 878.267 649.162C878.774 648.903 878.976 648.282 878.717 647.775C878.458 647.268 877.837 647.067 877.329 647.326Z" fill="white"/>
<path d="M891.203 652.968C890.949 653.098 890.849 653.408 890.978 653.661C891.108 653.915 891.418 654.015 891.671 653.886C891.925 653.756 892.025 653.446 891.896 653.193C891.766 652.939 891.456 652.839 891.203 652.968Z" fill="white"/>
<path d="M828.783 656.498C828.53 656.627 828.429 656.937 828.559 657.191C828.688 657.444 828.998 657.544 829.252 657.415C829.505 657.286 829.606 656.975 829.476 656.722C829.347 656.469 829.037 656.368 828.783 656.498Z" fill="white"/>
<path d="M728.736 707.589C728.483 707.719 728.382 708.029 728.511 708.282C728.641 708.536 728.951 708.636 729.204 708.507C729.458 708.377 729.558 708.067 729.429 707.814C729.299 707.56 728.989 707.46 728.736 707.589Z" fill="white"/>
<path d="M691.373 757.92C691.12 758.05 691.019 758.36 691.149 758.613C691.278 758.867 691.588 758.967 691.842 758.838C692.095 758.708 692.195 758.398 692.066 758.145C691.937 757.891 691.626 757.791 691.373 757.92Z" fill="white"/>
<path d="M656.363 733.559C656.11 733.688 656.009 733.999 656.139 734.252C656.268 734.505 656.578 734.606 656.832 734.476C657.085 734.347 657.186 734.037 657.056 733.783C656.927 733.53 656.617 733.43 656.363 733.559Z" fill="white"/>
<path opacity="0.11" d="M892.289 644.895C892.035 645.024 891.935 645.335 892.064 645.588C892.194 645.841 892.504 645.942 892.757 645.812C893.01 645.683 893.111 645.373 892.982 645.119C892.852 644.866 892.542 644.766 892.289 644.895Z" fill="white"/>
<path opacity="0.11" d="M821.256 639.506C821.003 639.636 820.903 639.946 821.032 640.199C821.161 640.453 821.472 640.553 821.725 640.424C821.978 640.294 822.079 639.984 821.949 639.731C821.82 639.477 821.51 639.377 821.256 639.506Z" fill="white"/>
<path opacity="0.11" d="M735.493 689.097C735.24 689.227 735.139 689.537 735.269 689.79C735.398 690.043 735.708 690.144 735.962 690.015C736.215 689.885 736.316 689.575 736.186 689.322C736.057 689.068 735.746 688.968 735.493 689.097Z" fill="white"/>
<path d="M879.314 690.866C879.061 690.995 878.961 691.305 879.09 691.559C879.219 691.812 879.53 691.912 879.783 691.783C880.036 691.654 880.137 691.343 880.007 691.09C879.878 690.837 879.568 690.736 879.314 690.866Z" fill="white"/>
<path d="M809.112 727.876C808.858 728.006 808.758 728.316 808.887 728.569C809.017 728.823 809.327 728.923 809.58 728.794C809.834 728.664 809.934 728.354 809.805 728.101C809.675 727.848 809.365 727.747 809.112 727.876Z" fill="white"/>
<path d="M888.957 632.708C888.704 632.837 888.603 633.147 888.733 633.4C888.862 633.654 889.172 633.754 889.426 633.625C889.679 633.496 889.779 633.185 889.65 632.932C889.521 632.679 889.21 632.578 888.957 632.708Z" fill="white"/>
<path opacity="0.3" d="M865.424 684.071C865.171 684.2 865.071 684.51 865.2 684.764C865.329 685.017 865.64 685.118 865.893 684.988C866.146 684.859 866.247 684.549 866.117 684.295C865.988 684.042 865.678 683.941 865.424 684.071Z" fill="white"/>
<path opacity="0.3" d="M876.699 627.972C876.445 628.102 876.345 628.412 876.474 628.665C876.604 628.918 876.914 629.019 877.167 628.89C877.421 628.76 877.521 628.45 877.392 628.197C877.262 627.943 876.952 627.843 876.699 627.972Z" fill="white"/>
<path opacity="0.3" d="M674.16 766.131C673.907 766.261 673.806 766.571 673.936 766.824C674.065 767.078 674.375 767.178 674.629 767.049C674.882 766.919 674.983 766.609 674.853 766.356C674.724 766.102 674.413 766.002 674.16 766.131Z" fill="white"/>
<path opacity="0.11" d="M757.654 747.212C757.4 747.342 757.3 747.652 757.429 747.905C757.559 748.159 757.869 748.259 758.122 748.13C758.376 748 758.476 747.69 758.347 747.437C758.217 747.183 757.907 747.083 757.654 747.212Z" fill="white"/>
<path opacity="0.11" d="M676.473 740.072C676.22 740.201 676.119 740.511 676.249 740.765C676.378 741.018 676.688 741.119 676.942 740.989C677.195 740.86 677.296 740.55 677.166 740.296C677.037 740.043 676.726 739.942 676.473 740.072Z" fill="white"/>
<path opacity="0.3" d="M790.467 676.642C789.96 676.901 789.759 677.522 790.018 678.029C790.277 678.537 790.898 678.738 791.405 678.479C791.912 678.22 792.113 677.599 791.854 677.092C791.595 676.584 790.974 676.383 790.467 676.642Z" fill="white"/>
<path opacity="0.11" d="M770.422 704.238C769.915 704.497 769.714 705.118 769.973 705.625C770.232 706.132 770.853 706.333 771.36 706.074C771.867 705.815 772.068 705.194 771.809 704.687C771.55 704.18 770.929 703.979 770.422 704.238Z" fill="white"/>
<path d="M778.853 720.183C778.473 720.377 778.322 720.843 778.516 721.223C778.71 721.603 779.176 721.754 779.556 721.56C779.936 721.365 780.087 720.9 779.893 720.52C779.699 720.139 779.233 719.989 778.853 720.183Z" fill="white"/>
<path d="M785.905 655.825C785.525 656.02 785.374 656.485 785.568 656.865C785.763 657.246 786.228 657.396 786.608 657.202C786.989 657.008 787.139 656.542 786.945 656.162C786.751 655.782 786.285 655.631 785.905 655.825Z" fill="white"/>
<path d="M628.862 724.46C628.482 724.654 628.331 725.12 628.525 725.5C628.719 725.88 629.185 726.031 629.565 725.837C629.945 725.643 630.096 725.177 629.902 724.797C629.708 724.417 629.242 724.266 628.862 724.46Z" fill="white"/>
<path d="M796.19 699.753C795.81 699.947 795.659 700.413 795.853 700.793C796.047 701.173 796.513 701.324 796.893 701.13C797.273 700.936 797.424 700.47 797.23 700.09C797.036 699.71 796.57 699.559 796.19 699.753Z" fill="white"/>
<path d="M858.699 625.014C858.318 625.208 858.168 625.674 858.362 626.054C858.556 626.434 859.022 626.585 859.402 626.391C859.782 626.196 859.933 625.731 859.739 625.351C859.545 624.97 859.079 624.82 858.699 625.014Z" fill="white"/>
<path d="M732.974 664.343C732.594 664.537 732.443 665.003 732.637 665.383C732.831 665.763 733.297 665.914 733.677 665.72C734.057 665.526 734.208 665.06 734.014 664.68C733.82 664.3 733.354 664.149 732.974 664.343Z" fill="white"/>
<path d="M627.303 757.659C626.923 757.853 626.772 758.319 626.966 758.699C627.16 759.08 627.626 759.23 628.006 759.036C628.386 758.842 628.537 758.376 628.343 757.996C628.149 757.616 627.683 757.465 627.303 757.659Z" fill="white"/>
<path d="M629.178 788.523C628.797 788.717 628.647 789.182 628.841 789.563C629.035 789.943 629.501 790.094 629.881 789.899C630.261 789.705 630.412 789.24 630.218 788.859C630.024 788.479 629.558 788.328 629.178 788.523Z" fill="white"/>
<path opacity="0.3" d="M740.755 739.06C740.248 739.319 740.047 739.94 740.306 740.447C740.565 740.955 741.186 741.156 741.693 740.897C742.2 740.638 742.401 740.017 742.142 739.51C741.883 739.002 741.262 738.801 740.755 739.06Z" fill="white"/>
<path d="M757.4 771.643C756.893 771.902 756.692 772.523 756.951 773.03C757.21 773.538 757.831 773.739 758.338 773.48C758.845 773.221 759.046 772.6 758.787 772.093C758.528 771.585 757.907 771.384 757.4 771.643Z" fill="white"/>
<path d="M711.965 741.034C711.585 741.228 711.434 741.694 711.628 742.074C711.823 742.455 712.288 742.605 712.668 742.411C713.049 742.217 713.2 741.751 713.005 741.371C712.811 740.991 712.345 740.84 711.965 741.034Z" fill="white"/>
<path opacity="0.3" d="M698.847 770.301C698.34 770.56 698.139 771.181 698.398 771.688C698.657 772.195 699.278 772.396 699.785 772.137C700.292 771.878 700.493 771.257 700.234 770.75C699.975 770.243 699.354 770.042 698.847 770.301Z" fill="white"/>
<path opacity="0.3" d="M636.776 760.92C636.269 761.179 636.068 761.8 636.327 762.307C636.586 762.814 637.207 763.015 637.714 762.756C638.221 762.497 638.422 761.876 638.163 761.369C637.904 760.862 637.283 760.661 636.776 760.92Z" fill="white"/>
<path opacity="0.3" d="M690.001 732.58C689.494 732.839 689.293 733.46 689.552 733.967C689.811 734.474 690.432 734.675 690.939 734.416C691.446 734.157 691.647 733.536 691.388 733.029C691.129 732.522 690.508 732.321 690.001 732.58Z" fill="white"/>
<path opacity="0.11" d="M662.622 765.078C662.115 765.337 661.914 765.958 662.173 766.465C662.432 766.972 663.053 767.173 663.56 766.914C664.067 766.655 664.269 766.034 664.01 765.527C663.751 765.02 663.13 764.819 662.622 765.078Z" fill="white"/>
<path opacity="0.11" d="M558.507 726.437C558 726.696 557.799 727.317 558.058 727.824C558.317 728.331 558.938 728.533 559.445 728.274C559.952 728.015 560.153 727.394 559.894 726.887C559.635 726.379 559.014 726.178 558.507 726.437Z" fill="white"/>
<path d="M552.949 722.912C552.569 723.106 552.418 723.572 552.612 723.952C552.807 724.332 553.272 724.483 553.652 724.289C554.033 724.095 554.183 723.629 553.989 723.249C553.795 722.869 553.329 722.718 552.949 722.912Z" fill="white"/>
<path d="M542.725 740.281C542.344 740.476 542.194 740.941 542.388 741.321C542.582 741.702 543.048 741.852 543.428 741.658C543.808 741.464 543.959 740.998 543.765 740.618C543.57 740.238 543.105 740.087 542.725 740.281Z" fill="white"/>
<path d="M582.203 721.28C581.823 721.475 581.672 721.94 581.866 722.32C582.06 722.701 582.526 722.851 582.906 722.657C583.287 722.463 583.437 721.997 583.243 721.617C583.049 721.237 582.583 721.086 582.203 721.28Z" fill="white"/>
<path opacity="0.11" d="M599.295 698.664C598.788 698.923 598.587 699.544 598.846 700.051C599.105 700.558 599.726 700.759 600.233 700.5C600.74 700.241 600.941 699.62 600.682 699.113C600.423 698.606 599.802 698.405 599.295 698.664Z" fill="white"/>
<path d="M613.169 704.306C612.916 704.436 612.815 704.746 612.945 704.999C613.074 705.252 613.384 705.353 613.638 705.224C613.891 705.094 613.991 704.784 613.862 704.531C613.733 704.277 613.422 704.177 613.169 704.306Z" fill="white"/>
<path d="M550.748 707.837C550.494 707.967 550.394 708.277 550.523 708.53C550.653 708.784 550.963 708.884 551.216 708.755C551.469 708.625 551.57 708.315 551.441 708.062C551.311 707.808 551.001 707.708 550.748 707.837Z" fill="white"/>
<path d="M450.7 758.929C450.447 759.059 450.346 759.369 450.476 759.622C450.605 759.875 450.915 759.976 451.169 759.847C451.422 759.717 451.523 759.407 451.393 759.154C451.264 758.9 450.954 758.8 450.7 758.929Z" fill="white"/>
<path d="M413.339 809.26C413.086 809.39 412.986 809.7 413.115 809.953C413.244 810.207 413.555 810.307 413.808 810.178C414.061 810.048 414.162 809.738 414.032 809.485C413.903 809.231 413.593 809.131 413.339 809.26Z" fill="white"/>
<path d="M378.329 784.899C378.075 785.028 377.975 785.339 378.104 785.592C378.234 785.845 378.544 785.946 378.797 785.816C379.05 785.687 379.151 785.377 379.022 785.123C378.892 784.87 378.582 784.77 378.329 784.899Z" fill="white"/>
<path d="M709.426 641.263C709.173 641.393 709.072 641.703 709.202 641.956C709.331 642.209 709.641 642.31 709.895 642.181C710.148 642.051 710.249 641.741 710.119 641.488C709.99 641.234 709.68 641.134 709.426 641.263Z" fill="white"/>
<path opacity="0.11" d="M728.963 662.527C728.71 662.656 728.609 662.966 728.738 663.22C728.868 663.473 729.178 663.574 729.431 663.444C729.685 663.315 729.785 663.005 729.656 662.751C729.526 662.498 729.216 662.397 728.963 662.527Z" fill="white"/>
<path opacity="0.11" d="M743.302 641.895C743.048 642.024 742.948 642.335 743.077 642.588C743.207 642.841 743.517 642.942 743.77 642.812C744.024 642.683 744.124 642.373 743.995 642.119C743.865 641.866 743.555 641.766 743.302 641.895Z" fill="white"/>
<path opacity="0.11" d="M714.098 622.094C713.844 622.224 713.744 622.534 713.873 622.787C714.003 623.041 714.313 623.141 714.566 623.012C714.82 622.882 714.92 622.572 714.791 622.319C714.661 622.065 714.351 621.965 714.098 622.094Z" fill="white"/>
<path opacity="0.11" d="M614.256 696.233C614.003 696.362 613.903 696.673 614.032 696.926C614.161 697.179 614.472 697.28 614.725 697.15C614.978 697.021 615.079 696.711 614.949 696.457C614.82 696.204 614.51 696.104 614.256 696.233Z" fill="white"/>
<path opacity="0.11" d="M543.23 690.846C542.976 690.976 542.876 691.286 543.005 691.539C543.135 691.792 543.445 691.893 543.698 691.764C543.951 691.634 544.052 691.324 543.922 691.071C543.793 690.817 543.483 690.717 543.23 690.846Z" fill="white"/>
<path opacity="0.11" d="M457.46 740.436C457.206 740.565 457.106 740.876 457.235 741.129C457.364 741.382 457.675 741.483 457.928 741.353C458.181 741.224 458.282 740.914 458.152 740.66C458.023 740.407 457.713 740.307 457.46 740.436Z" fill="white"/>
<path opacity="0.3" d="M694.172 663.516C693.919 663.645 693.818 663.956 693.947 664.209C694.077 664.462 694.387 664.563 694.64 664.433C694.894 664.304 694.994 663.994 694.865 663.741C694.735 663.487 694.425 663.387 694.172 663.516Z" fill="white"/>
<path d="M601.282 742.204C601.029 742.333 600.928 742.643 601.058 742.897C601.187 743.15 601.497 743.25 601.751 743.121C602.004 742.992 602.105 742.681 601.975 742.428C601.846 742.175 601.536 742.074 601.282 742.204Z" fill="white"/>
<path d="M531.077 779.214C530.824 779.344 530.723 779.654 530.853 779.907C530.982 780.161 531.292 780.261 531.546 780.132C531.799 780.002 531.9 779.692 531.77 779.439C531.641 779.185 531.331 779.085 531.077 779.214Z" fill="white"/>
<path d="M610.925 684.044C610.672 684.174 610.571 684.484 610.701 684.737C610.83 684.991 611.14 685.091 611.394 684.962C611.647 684.832 611.748 684.522 611.618 684.269C611.489 684.016 611.179 683.915 610.925 684.044Z" fill="white"/>
<path opacity="0.3" d="M643.048 667.639C642.795 667.769 642.695 668.079 642.824 668.332C642.953 668.585 643.264 668.686 643.517 668.557C643.77 668.427 643.871 668.117 643.741 667.864C643.612 667.61 643.302 667.51 643.048 667.639Z" fill="white"/>
<path opacity="0.11" d="M695.205 676.875C694.951 677.004 694.851 677.314 694.98 677.567C695.11 677.821 695.42 677.921 695.673 677.792C695.926 677.663 696.027 677.352 695.898 677.099C695.768 676.846 695.458 676.745 695.205 676.875Z" fill="white"/>
<path opacity="0.3" d="M587.39 735.409C587.136 735.538 587.036 735.848 587.165 736.102C587.295 736.355 587.605 736.455 587.858 736.326C588.112 736.197 588.212 735.886 588.083 735.633C587.953 735.38 587.643 735.279 587.39 735.409Z" fill="white"/>
<path opacity="0.3" d="M598.665 679.311C598.411 679.44 598.311 679.751 598.44 680.004C598.57 680.257 598.88 680.358 599.133 680.228C599.386 680.099 599.487 679.789 599.358 679.535C599.228 679.282 598.918 679.182 598.665 679.311Z" fill="white"/>
<path opacity="0.3" d="M651.853 646.363C651.599 646.492 651.499 646.802 651.628 647.056C651.757 647.309 652.068 647.41 652.321 647.28C652.574 647.151 652.675 646.841 652.546 646.587C652.416 646.334 652.106 646.233 651.853 646.363Z" fill="white"/>
<path opacity="0.3" d="M680.863 670.312C680.61 670.441 680.509 670.752 680.639 671.005C680.768 671.258 681.078 671.359 681.332 671.229C681.585 671.1 681.686 670.79 681.556 670.536C681.427 670.283 681.117 670.183 680.863 670.312Z" fill="white"/>
<path opacity="0.3" d="M396.125 817.471C395.872 817.601 395.772 817.911 395.901 818.164C396.03 818.417 396.341 818.518 396.594 818.389C396.847 818.259 396.948 817.949 396.818 817.696C396.689 817.442 396.379 817.342 396.125 817.471Z" fill="white"/>
<path opacity="0.11" d="M479.62 798.553C479.367 798.683 479.266 798.993 479.396 799.246C479.525 799.499 479.835 799.6 480.089 799.471C480.342 799.341 480.442 799.031 480.313 798.778C480.184 798.524 479.873 798.424 479.62 798.553Z" fill="white"/>
<path opacity="0.11" d="M398.438 791.411C398.184 791.54 398.084 791.85 398.213 792.104C398.343 792.357 398.653 792.457 398.906 792.328C399.159 792.199 399.26 791.888 399.13 791.635C399.001 791.382 398.691 791.281 398.438 791.411Z" fill="white"/>
<path opacity="0.3" d="M512.434 727.98C511.927 728.239 511.726 728.86 511.985 729.367C512.244 729.874 512.865 730.076 513.372 729.817C513.879 729.558 514.08 728.937 513.821 728.429C513.562 727.922 512.941 727.721 512.434 727.98Z" fill="white"/>
<path opacity="0.11" d="M492.386 755.577C491.879 755.836 491.678 756.457 491.937 756.964C492.196 757.471 492.817 757.672 493.324 757.413C493.831 757.154 494.032 756.533 493.773 756.026C493.514 755.519 492.893 755.318 492.386 755.577Z" fill="white"/>
<path d="M500.817 771.521C500.437 771.715 500.286 772.18 500.48 772.561C500.674 772.941 501.14 773.092 501.52 772.897C501.9 772.703 502.051 772.238 501.857 771.857C501.663 771.477 501.197 771.326 500.817 771.521Z" fill="white"/>
<path d="M507.871 707.164C507.49 707.358 507.34 707.824 507.534 708.204C507.728 708.584 508.194 708.735 508.574 708.541C508.954 708.347 509.105 707.881 508.911 707.501C508.716 707.121 508.251 706.97 507.871 707.164Z" fill="white"/>
<path d="M350.827 775.797C350.447 775.991 350.296 776.457 350.49 776.837C350.684 777.217 351.15 777.368 351.53 777.174C351.911 776.98 352.061 776.514 351.867 776.134C351.673 775.754 351.207 775.603 350.827 775.797Z" fill="white"/>
<path d="M652.649 631.49C652.269 631.685 652.118 632.15 652.313 632.53C652.507 632.911 652.972 633.061 653.353 632.867C653.733 632.673 653.884 632.207 653.689 631.827C653.495 631.447 653.03 631.296 652.649 631.49Z" fill="white"/>
<path d="M719.069 610.874C718.689 611.068 718.538 611.534 718.732 611.914C718.926 612.294 719.392 612.445 719.772 612.251C720.152 612.057 720.303 611.591 720.109 611.211C719.915 610.831 719.449 610.68 719.069 610.874Z" fill="white"/>
<path d="M736.248 625.246C735.867 625.44 735.716 625.906 735.911 626.286C736.105 626.666 736.571 626.817 736.951 626.623C737.331 626.429 737.482 625.963 737.288 625.583C737.093 625.203 736.628 625.052 736.248 625.246Z" fill="white"/>
<path d="M518.155 751.093C517.775 751.287 517.624 751.753 517.818 752.133C518.013 752.513 518.478 752.664 518.858 752.47C519.239 752.276 519.389 751.81 519.195 751.43C519.001 751.05 518.535 750.899 518.155 751.093Z" fill="white"/>
<path d="M580.664 676.353C580.284 676.547 580.133 677.012 580.327 677.393C580.521 677.773 580.987 677.924 581.367 677.73C581.747 677.535 581.898 677.07 581.704 676.689C581.51 676.309 581.044 676.158 580.664 676.353Z" fill="white"/>
<path d="M454.938 715.682C454.558 715.876 454.407 716.342 454.602 716.722C454.796 717.102 455.261 717.253 455.642 717.059C456.022 716.864 456.173 716.399 455.978 716.019C455.784 715.638 455.319 715.488 454.938 715.682Z" fill="white"/>
<path d="M349.268 808.999C348.888 809.193 348.737 809.659 348.931 810.039C349.125 810.419 349.591 810.57 349.971 810.376C350.351 810.182 350.502 809.716 350.308 809.336C350.114 808.956 349.648 808.805 349.268 808.999Z" fill="white"/>
<path d="M351.143 839.862C350.762 840.057 350.612 840.522 350.806 840.902C351 841.283 351.466 841.433 351.846 841.239C352.226 841.045 352.377 840.579 352.183 840.199C351.988 839.819 351.523 839.668 351.143 839.862Z" fill="white"/>
<path opacity="0.3" d="M462.728 790.4C462.221 790.659 462.02 791.28 462.279 791.787C462.538 792.294 463.159 792.496 463.666 792.237C464.173 791.978 464.374 791.357 464.115 790.849C463.856 790.342 463.235 790.141 462.728 790.4Z" fill="white"/>
<path d="M479.366 822.981C478.859 823.24 478.658 823.861 478.917 824.368C479.176 824.875 479.797 825.077 480.304 824.818C480.811 824.559 481.012 823.938 480.753 823.43C480.494 822.923 479.873 822.722 479.366 822.981Z" fill="white"/>
<path d="M433.932 792.373C433.552 792.567 433.401 793.033 433.595 793.413C433.789 793.793 434.255 793.944 434.635 793.75C435.016 793.556 435.166 793.09 434.972 792.71C434.778 792.33 434.312 792.179 433.932 792.373Z" fill="white"/>
<path opacity="0.3" d="M420.814 821.638C420.307 821.897 420.106 822.518 420.365 823.026C420.624 823.533 421.245 823.734 421.752 823.475C422.259 823.216 422.46 822.595 422.201 822.088C421.942 821.581 421.321 821.379 420.814 821.638Z" fill="white"/>
<path opacity="0.3" d="M358.739 812.26C358.232 812.519 358.031 813.14 358.29 813.647C358.549 814.154 359.17 814.355 359.677 814.096C360.184 813.837 360.385 813.216 360.126 812.709C359.867 812.202 359.246 812.001 358.739 812.26Z" fill="white"/>
<path opacity="0.3" d="M411.966 783.92C411.459 784.179 411.258 784.8 411.517 785.307C411.776 785.814 412.397 786.015 412.904 785.756C413.411 785.497 413.612 784.876 413.353 784.369C413.094 783.862 412.473 783.661 411.966 783.92Z" fill="white"/>
<path opacity="0.3" d="M671.398 641.588C670.891 641.847 670.69 642.468 670.949 642.975C671.208 643.482 671.829 643.683 672.336 643.424C672.843 643.165 673.044 642.544 672.785 642.037C672.526 641.53 671.905 641.329 671.398 641.588Z" fill="white"/>
<path opacity="0.3" d="M721.465 647.842C720.958 648.101 720.757 648.722 721.016 649.229C721.275 649.736 721.896 649.937 722.403 649.678C722.91 649.419 723.111 648.798 722.852 648.291C722.593 647.784 721.972 647.583 721.465 647.842Z" fill="white"/>
<path opacity="0.11" d="M384.588 816.417C384.081 816.676 383.88 817.297 384.139 817.804C384.398 818.311 385.019 818.512 385.526 818.253C386.033 817.994 386.234 817.373 385.975 816.866C385.716 816.359 385.095 816.158 384.588 816.417Z" fill="white"/>
<path opacity="0.3" d="M663.808 696.96C663.301 697.219 663.1 697.84 663.359 698.347C663.618 698.854 664.239 699.055 664.746 698.796C665.253 698.537 665.454 697.916 665.195 697.409C664.936 696.902 664.315 696.701 663.808 696.96Z" fill="white"/>
<path opacity="0.11" d="M680.887 699.809C680.38 700.068 680.179 700.689 680.438 701.196C680.697 701.704 681.318 701.905 681.825 701.646C682.332 701.387 682.533 700.766 682.274 700.259C682.015 699.751 681.394 699.55 680.887 699.809Z" fill="white"/>
<path opacity="0.3" d="M669.556 668.565C669.048 668.824 668.847 669.445 669.106 669.952C669.365 670.459 669.986 670.661 670.493 670.402C671.001 670.143 671.202 669.522 670.943 669.014C670.684 668.507 670.063 668.306 669.556 668.565Z" fill="white"/>
<path d="M641.112 683.672C640.732 683.866 640.581 684.332 640.775 684.712C640.97 685.092 641.435 685.243 641.815 685.049C642.196 684.855 642.346 684.389 642.152 684.009C641.958 683.629 641.492 683.478 641.112 683.672Z" fill="white"/>
<defs>
<filter id="filter0_f_2156_43067" x="0.214264" y="0.926178" width="1370.04" height="1251.66" filterUnits="userSpaceOnUse" color-interpolation-filters="sRGB">
<feFlood flood-opacity="0" result="BackgroundImageFix"/>
<feBlend mode="normal" in="SourceGraphic" in2="BackgroundImageFix" result="shape"/>
<feGaussianBlur stdDeviation="191.2" result="effect1_foregroundBlur_2156_43067"/>
</filter>
</defs>
</svg>
