<svg width="2121" height="2121" viewBox="0 0 2121 2121" fill="none" xmlns="http://www.w3.org/2000/svg">
<path d="M973.444 463.518L974.274 463.482L974.787 462.828L974.824 463.658L975.478 464.171L974.647 464.208L974.134 464.862L974.098 464.031L973.444 463.518Z" fill="#6F6C7D"/>
<path d="M976.512 639.791L977.343 639.754L977.856 639.1L977.892 639.931L978.546 640.444L977.716 640.48L977.203 641.134L977.166 640.304L976.512 639.791Z" fill="#6F6C7D"/>
<path d="M641.606 883.725L642.437 883.689L642.95 883.035L642.986 883.865L643.64 884.378L642.81 884.415L642.297 885.069L642.26 884.238L641.606 883.725Z" fill="#6F6C7D"/>
<path d="M303.651 950.13L304.482 950.094L304.995 949.44L305.031 950.27L305.685 950.784L304.855 950.82L304.341 951.474L304.305 950.643L303.651 950.13Z" fill="#6F6C7D"/>
<path d="M240.623 757.96L241.453 757.923L241.966 757.269L242.003 758.1L242.657 758.613L241.826 758.649L241.313 759.303L241.277 758.473L240.623 757.96Z" fill="#6F6C7D"/>
<path d="M335.213 710.085L336.043 710.048L336.556 709.394L336.593 710.225L337.247 710.738L336.416 710.774L335.903 711.428L335.867 710.598L335.213 710.085Z" fill="#6F6C7D"/>
<path d="M320.635 833.165L321.466 833.128L321.979 832.474L322.015 833.305L322.669 833.818L321.839 833.854L321.326 834.508L321.29 833.678L320.635 833.165Z" fill="#6F6C7D"/>
<path d="M165.936 883.184L166.767 883.148L167.28 882.494L167.316 883.324L167.97 883.837L167.14 883.874L166.627 884.528L166.59 883.697L165.936 883.184Z" fill="#6F6C7D"/>
<path d="M200.017 1041L200.847 1040.97L201.361 1040.31L201.397 1041.14L202.051 1041.66L201.22 1041.69L200.707 1042.35L200.671 1041.52L200.017 1041Z" fill="#6F6C7D"/>
<path d="M747.595 521.382L748.425 521.346L748.938 520.692L748.975 521.522L749.629 522.035L748.798 522.072L748.285 522.726L748.249 521.895L747.595 521.382Z" fill="#6F6C7D"/>
<path d="M914.396 432.268L915.226 432.232L915.739 431.578L915.776 432.408L916.43 432.921L915.599 432.958L915.086 433.612L915.05 432.781L914.396 432.268Z" fill="#6F6C7D"/>
<path d="M796.192 462.381L797.023 462.345L797.536 461.691L797.572 462.521L798.226 463.034L797.396 463.071L796.883 463.725L796.846 462.894L796.192 462.381Z" fill="#6F6C7D"/>
<path d="M682.648 1032.18L683.479 1032.14L683.992 1031.49L684.028 1032.32L684.682 1032.83L683.852 1032.87L683.339 1033.52L683.302 1032.69L682.648 1032.18Z" fill="#6F6C7D"/>
<path d="M307.54 1263.69L308.371 1263.65L308.884 1263L308.92 1263.83L309.574 1264.34L308.744 1264.38L308.231 1265.03L308.194 1264.2L307.54 1263.69Z" fill="#6F6C7D"/>
<path d="M441.364 1057.93L442.195 1057.89L442.708 1057.24L442.744 1058.07L443.398 1058.58L442.568 1058.62L442.055 1059.27L442.018 1058.44L441.364 1057.93Z" fill="#6F6C7D"/>
<path d="M675.646 518.842L676.476 518.806L676.989 518.152L677.026 518.982L677.68 519.495L676.849 519.532L676.336 520.186L676.3 519.355L675.646 518.842Z" fill="#6F6C7D"/>
<path d="M263.244 1156.93L264.074 1156.9L264.587 1156.24L264.623 1157.07L265.278 1157.59L264.447 1157.62L263.934 1158.28L263.898 1157.45L263.244 1156.93Z" fill="#6F6C7D"/>
<path d="M815.359 999.723L816.189 999.687L816.702 999.033L816.739 999.863L817.393 1000.38L816.562 1000.41L816.049 1001.07L816.013 1000.24L815.359 999.723Z" fill="#6F6C7D"/>
<path d="M958.62 700.615L959.451 700.578L959.964 699.924L960 700.755L960.654 701.268L959.824 701.304L959.31 701.958L959.274 701.128L958.62 700.615Z" fill="#6F6C7D"/>
<path d="M1158.46 750.389L1159.29 750.353L1159.81 749.699L1159.84 750.529L1160.5 751.042L1159.67 751.079L1159.15 751.733L1159.12 750.902L1158.46 750.389Z" fill="white"/>
<path d="M1100.05 605.838L1100.88 605.802L1101.39 605.148L1101.43 605.978L1102.08 606.492L1101.25 606.528L1100.74 607.182L1100.7 606.351L1100.05 605.838Z" fill="white"/>
<path d="M936.053 558.797L936.883 558.761L937.396 558.107L937.433 558.937L938.087 559.45L937.256 559.487L936.743 560.141L936.707 559.31L936.053 558.797Z" fill="white"/>
<path d="M770.808 752.91L771.639 752.873L772.152 752.219L772.188 753.05L772.843 753.563L772.012 753.599L771.499 754.253L771.463 753.423L770.808 752.91Z" fill="white"/>
<path d="M476.63 911.496L477.46 911.459L477.973 910.805L478.01 911.636L478.664 912.149L477.833 912.185L477.32 912.839L477.284 912.009L476.63 911.496Z" fill="white"/>
<path d="M263.321 882.993L264.151 882.956L264.664 882.302L264.701 883.133L265.355 883.646L264.524 883.682L264.011 884.336L263.975 883.506L263.321 882.993Z" fill="white"/>
<path d="M842.245 577.463L843.076 577.427L843.589 576.773L843.625 577.603L844.279 578.117L843.449 578.153L842.935 578.807L842.899 577.976L842.245 577.463Z" fill="white"/>
<path d="M928.124 377.428L928.955 377.392L929.468 376.738L929.504 377.568L930.158 378.081L929.328 378.118L928.815 378.772L928.779 377.941L928.124 377.428Z" fill="white"/>
<path d="M830.995 487.039L831.825 487.002L832.338 486.348L832.374 487.179L833.029 487.692L832.198 487.728L831.685 488.382L831.649 487.552L830.995 487.039Z" fill="white"/>
<g filter="url(#filter0_f_265_4207)">
<path d="M817.716 656.762L818.547 656.726L819.06 656.072L819.096 656.902L819.75 657.415L818.92 657.452L818.407 658.106L818.37 657.275L817.716 656.762Z" fill="white"/>
</g>
<g filter="url(#filter1_f_265_4207)">
<path d="M584.292 933.554L585.123 933.518L585.636 932.864L585.672 933.694L586.326 934.207L585.496 934.244L584.983 934.898L584.946 934.067L584.292 933.554Z" fill="white"/>
</g>
<g filter="url(#filter2_f_265_4207)">
<path d="M546.552 1133.33L547.383 1133.29L547.896 1132.64L547.932 1133.47L548.586 1133.98L547.756 1134.02L547.243 1134.67L547.206 1133.84L546.552 1133.33Z" fill="white"/>
</g>
<g filter="url(#filter3_f_265_4207)">
<path d="M341.113 1151.6L341.943 1151.57L342.456 1150.91L342.493 1151.74L343.147 1152.26L342.316 1152.29L341.803 1152.95L341.767 1152.12L341.113 1151.6Z" fill="white"/>
</g>
<g filter="url(#filter4_f_265_4207)">
<path d="M851.661 943.714L852.492 943.678L853.005 943.024L853.041 943.854L853.695 944.367L852.865 944.404L852.351 945.058L852.315 944.227L851.661 943.714Z" fill="white"/>
</g>
<g filter="url(#filter5_f_265_4207)">
<path d="M975.724 801.773L976.555 801.737L977.068 801.083L977.104 801.913L977.759 802.426L976.928 802.462L976.415 803.117L976.379 802.286L975.724 801.773Z" fill="white"/>
</g>
<g filter="url(#filter6_f_265_4207)">
<path d="M559.187 812.619L560.017 812.582L560.53 811.928L560.567 812.759L561.221 813.272L560.39 813.308L559.877 813.962L559.841 813.132L559.187 812.619Z" fill="white"/>
</g>
<g filter="url(#filter7_f_265_4207)">
<path d="M443.693 806.779L446.24 806.667L447.813 804.661L447.925 807.208L449.931 808.781L447.384 808.893L445.811 810.899L445.699 808.352L443.693 806.779Z" fill="#868592"/>
</g>
<g filter="url(#filter8_f_265_4207)">
<path d="M376.949 1023.3L379.496 1023.19L381.069 1021.19L381.18 1023.73L383.186 1025.31L380.639 1025.42L379.066 1027.42L378.955 1024.88L376.949 1023.3Z" fill="#6E6B7C"/>
</g>
<g filter="url(#filter9_f_265_4207)">
<path d="M747.754 988.191L750.301 988.079L751.874 986.073L751.986 988.62L753.992 990.193L751.445 990.305L749.872 992.311L749.76 989.764L747.754 988.191Z" fill="#868592"/>
</g>
<g filter="url(#filter10_f_265_4207)">
<path d="M249.379 1015.82L251.926 1015.71L253.499 1013.7L253.611 1016.25L255.617 1017.82L253.07 1017.93L251.497 1019.94L251.385 1017.39L249.379 1015.82Z" fill="white"/>
</g>
<g filter="url(#filter11_f_265_4207)">
<path d="M751.859 847.612L754.406 847.5L755.979 845.494L756.091 848.041L758.097 849.614L755.55 849.726L753.977 851.732L753.865 849.185L751.859 847.612Z" fill="#868592"/>
</g>
<g filter="url(#filter12_f_265_4207)">
<path d="M1041.3 504.988L1043.84 504.876L1045.42 502.87L1045.53 505.417L1047.53 506.99L1044.99 507.102L1043.41 509.108L1043.3 506.561L1041.3 504.988Z" fill="white"/>
</g>
<g filter="url(#filter13_f_265_4207)">
<path d="M1006.56 441.299L1009.11 441.188L1010.68 439.182L1010.79 441.729L1012.8 443.302L1010.25 443.413L1008.68 445.419L1008.57 442.872L1006.56 441.299Z" fill="white"/>
</g>
<g filter="url(#filter14_f_265_4207)">
<path d="M913.398 600.741L915.945 600.629L917.518 598.623L917.629 601.17L919.635 602.743L917.089 602.855L915.515 604.861L915.404 602.314L913.398 600.741Z" fill="#6E6B7C"/>
</g>
<g filter="url(#filter15_f_265_4207)">
<path d="M737.817 648.222L740.364 648.111L741.937 646.105L742.048 648.651L744.054 650.225L741.507 650.336L739.934 652.342L739.823 649.795L737.817 648.222Z" fill="white"/>
</g>
<g filter="url(#filter16_f_265_4207)">
<path d="M804.046 541.537L806.593 541.426L808.166 539.42L808.277 541.967L810.283 543.54L807.736 543.652L806.163 545.658L806.052 543.111L804.046 541.537Z" fill="white"/>
</g>
<g opacity="0.5">
<path d="M1215.49 939.753L1216.1 940.315L1216.93 940.215L1216.36 940.828L1216.46 941.653L1215.85 941.091L1215.03 941.191L1215.59 940.578L1215.49 939.753Z" fill="#6F6C7D"/>
<path d="M1093.01 1086.57L1093.63 1087.13L1094.45 1087.03L1093.89 1087.64L1093.99 1088.47L1093.38 1087.9L1092.55 1088L1093.11 1087.39L1093.01 1086.57Z" fill="#6F6C7D"/>
<path d="M683.711 1022.24L684.324 1022.8L685.15 1022.7L684.588 1023.32L684.688 1024.14L684.075 1023.58L683.249 1023.68L683.811 1023.07L683.711 1022.24Z" fill="#6F6C7D"/>
<path d="M397.786 830.225L398.399 830.786L399.224 830.686L398.663 831.299L398.762 832.125L398.149 831.563L397.324 831.663L397.886 831.05L397.786 830.225Z" fill="#6F6C7D"/>
<path d="M489.104 649.772L489.717 650.333L490.542 650.233L489.98 650.846L490.08 651.672L489.467 651.11L488.642 651.21L489.203 650.597L489.104 649.772Z" fill="#6F6C7D"/>
<path d="M589.841 682.804L590.454 683.365L591.28 683.266L590.718 683.879L590.818 684.704L590.205 684.142L589.38 684.242L589.941 683.629L589.841 682.804Z" fill="#6F6C7D"/>
<path d="M492.503 759.526L493.115 760.088L493.941 759.988L493.379 760.601L493.479 761.426L492.866 760.865L492.041 760.965L492.602 760.352L492.503 759.526Z" fill="#6F6C7D"/>
<path d="M347.745 685.507L348.358 686.068L349.183 685.969L348.622 686.582L348.721 687.407L348.108 686.845L347.283 686.945L347.845 686.332L347.745 685.507Z" fill="#6F6C7D"/>
<path d="M260.247 821.201L260.86 821.763L261.686 821.663L261.124 822.276L261.224 823.101L260.611 822.54L259.786 822.639L260.347 822.027L260.247 821.201Z" fill="#6F6C7D"/>
<path d="M1014.87 840.97L1015.48 841.531L1016.31 841.432L1015.75 842.045L1015.85 842.87L1015.24 842.308L1014.41 842.408L1014.97 841.795L1014.87 840.97Z" fill="#6F6C7D"/>
<path d="M1195.83 875.902L1196.45 876.464L1197.27 876.364L1196.71 876.977L1196.81 877.802L1196.2 877.241L1195.37 877.341L1195.93 876.728L1195.83 875.902Z" fill="#6F6C7D"/>
<path d="M1090.96 833.613L1091.57 834.175L1092.39 834.075L1091.83 834.688L1091.93 835.513L1091.32 834.952L1090.49 835.052L1091.06 834.439L1090.96 833.613Z" fill="#6F6C7D"/>
<path d="M607.76 1156.23L608.373 1156.79L609.198 1156.7L608.637 1157.31L608.736 1158.13L608.123 1157.57L607.298 1157.67L607.86 1157.06L607.76 1156.23Z" fill="#6F6C7D"/>
<path d="M178.817 1054.69L179.43 1055.25L180.256 1055.15L179.694 1055.77L179.794 1056.59L179.181 1056.03L178.356 1056.13L178.917 1055.52L178.817 1054.69Z" fill="#6F6C7D"/>
<path d="M418.938 1003.83L419.551 1004.39L420.376 1004.29L419.815 1004.9L419.915 1005.73L419.302 1005.17L418.476 1005.27L419.038 1004.65L418.938 1003.83Z" fill="#6F6C7D"/>
<path d="M965.792 788.298L966.405 788.859L967.231 788.76L966.669 789.373L966.769 790.198L966.156 789.636L965.331 789.736L965.892 789.123L965.792 788.298Z" fill="#6F6C7D"/>
<path d="M222.982 947.884L223.595 948.445L224.42 948.346L223.859 948.959L223.959 949.784L223.346 949.222L222.52 949.322L223.082 948.709L222.982 947.884Z" fill="#6F6C7D"/>
<path d="M724.55 1227.13L725.163 1227.69L725.988 1227.59L725.427 1228.2L725.527 1229.03L724.914 1228.47L724.088 1228.57L724.65 1227.95L724.55 1227.13Z" fill="#6F6C7D"/>
<path d="M1037.35 1116.92L1037.97 1117.49L1038.79 1117.39L1038.23 1118L1038.33 1118.82L1037.72 1118.26L1036.89 1118.36L1037.45 1117.75L1037.35 1116.92Z" fill="#6F6C7D"/>
<path d="M1143.47 1293.43L1144.08 1293.99L1144.9 1293.89L1144.34 1294.5L1144.44 1295.33L1143.83 1294.77L1143 1294.87L1143.57 1294.25L1143.47 1293.43Z" fill="white"/>
<path d="M1204.38 1129.91L1204.99 1130.47L1205.82 1130.37L1205.25 1130.99L1205.35 1131.81L1204.74 1131.25L1203.92 1131.35L1204.48 1130.74L1204.38 1129.91Z" fill="white"/>
<path d="M1121.68 1000.69L1122.29 1001.25L1123.11 1001.15L1122.55 1001.76L1122.65 1002.59L1122.04 1002.02L1121.21 1002.12L1121.78 1001.51L1121.68 1000.69Z" fill="white"/>
<path d="M867.573 1021.1L868.186 1021.66L869.011 1021.56L868.449 1022.17L868.549 1023L867.936 1022.44L867.111 1022.54L867.672 1021.92L867.573 1021.1Z" fill="white"/>
<path d="M547.419 925.221L548.032 925.782L548.857 925.683L548.296 926.295L548.395 927.121L547.782 926.559L546.957 926.659L547.519 926.046L547.419 925.221Z" fill="white"/>
<path d="M416.741 754.234L417.354 754.796L418.18 754.696L417.618 755.309L417.718 756.134L417.105 755.573L416.28 755.673L416.841 755.06L416.741 754.234Z" fill="white"/>
<path d="M1042.14 947.553L1042.76 948.114L1043.58 948.015L1043.02 948.628L1043.12 949.453L1042.51 948.891L1041.68 948.991L1042.24 948.378L1042.14 947.553Z" fill="white"/>
<path d="M1244.32 846.832L1244.93 847.394L1245.76 847.294L1245.19 847.907L1245.29 848.732L1244.68 848.171L1243.86 848.27L1244.42 847.657L1244.32 846.832Z" fill="white"/>
<path d="M1098.13 875.658L1098.74 876.22L1099.57 876.12L1099.01 876.733L1099.11 877.558L1098.49 876.997L1097.67 877.097L1098.23 876.484L1098.13 875.658Z" fill="white"/>
<g filter="url(#filter17_f_265_4207)">
<path d="M968.727 986.281L969.34 986.843L970.166 986.743L969.604 987.356L969.704 988.181L969.091 987.62L968.266 987.72L968.827 987.107L968.727 986.281Z" fill="white"/>
</g>
<g filter="url(#filter18_f_265_4207)">
<path d="M607.95 1016.95L608.563 1017.51L609.388 1017.41L608.827 1018.02L608.927 1018.85L608.314 1018.28L607.488 1018.38L608.05 1017.77L607.95 1016.95Z" fill="white"/>
</g>
<g filter="url(#filter19_f_265_4207)">
<path d="M440 1131.52L440.613 1132.09L441.438 1131.99L440.877 1132.6L440.977 1133.42L440.364 1132.86L439.538 1132.96L440.1 1132.35L440 1131.52Z" fill="white"/>
</g>
<g filter="url(#filter20_f_265_4207)">
<path d="M281.813 999.176L282.426 999.737L283.252 999.638L282.69 1000.25L282.79 1001.08L282.177 1000.51L281.352 1000.61L281.913 1000L281.813 999.176Z" fill="white"/>
</g>
<g filter="url(#filter21_f_265_4207)">
<path d="M789.825 1213.19L790.438 1213.75L791.263 1213.65L790.701 1214.26L790.801 1215.09L790.188 1214.53L789.363 1214.63L789.924 1214.01L789.825 1213.19Z" fill="white"/>
</g>
<g filter="url(#filter22_f_265_4207)">
<path d="M977.918 1200.55L978.531 1201.11L979.356 1201.01L978.795 1201.62L978.894 1202.45L978.281 1201.89L977.456 1201.99L978.018 1201.37L977.918 1200.55Z" fill="white"/>
</g>
<g filter="url(#filter23_f_265_4207)">
<path d="M675.712 913.68L676.325 914.241L677.151 914.142L676.589 914.754L676.689 915.58L676.076 915.018L675.25 915.118L675.812 914.505L675.712 913.68Z" fill="white"/>
</g>
<g filter="url(#filter24_f_265_4207)">
<path d="M598.175 827.885L600.055 829.607L602.586 829.301L600.864 831.18L601.17 833.711L599.29 831.989L596.759 832.295L598.481 830.415L598.175 827.885Z" fill="#868592"/>
</g>
<g filter="url(#filter25_f_265_4207)">
<path d="M397.874 933.795L399.753 935.517L402.284 935.211L400.562 937.091L400.868 939.621L398.988 937.899L396.457 938.205L398.18 936.326L397.874 933.795Z" fill="#6E6B7C"/>
</g>
<g filter="url(#filter26_f_265_4207)">
<path d="M684.902 1171.17L686.781 1172.89L689.312 1172.58L687.59 1174.46L687.896 1176.99L686.016 1175.27L683.486 1175.58L685.208 1173.7L684.902 1171.17Z" fill="#868592"/>
</g>
<g filter="url(#filter27_f_265_4207)">
<path d="M312.963 838.296L314.842 840.018L317.373 839.712L315.651 841.592L315.957 844.122L314.077 842.4L311.547 842.706L313.269 840.827L312.963 838.296Z" fill="white"/>
</g>
<g filter="url(#filter28_f_265_4207)">
<path d="M787.209 1074.66L789.089 1076.39L791.62 1076.08L789.898 1077.96L790.204 1080.49L788.324 1078.77L785.793 1079.07L787.515 1077.19L787.209 1074.66Z" fill="#868592"/>
</g>
<g filter="url(#filter29_f_265_4207)">
<path d="M1888.41 1223.21L1890.29 1224.93L1892.82 1224.62L1891.1 1226.5L1891.41 1229.04L1889.53 1227.31L1887 1227.62L1888.72 1225.74L1888.41 1223.21Z" fill="white"/>
</g>
<g filter="url(#filter30_f_265_4207)">
<path d="M1044.41 1169.21L1046.29 1170.93L1048.82 1170.63L1047.1 1172.51L1047.41 1175.04L1045.53 1173.32L1042.99 1173.62L1044.72 1171.74L1044.41 1169.21Z" fill="white"/>
</g>
<g filter="url(#filter31_f_265_4207)">
<path d="M1076 1014.33L1077.88 1016.05L1080.41 1015.74L1078.69 1017.62L1078.99 1020.15L1077.11 1018.43L1074.58 1018.74L1076.3 1016.86L1076 1014.33Z" fill="#6E6B7C"/>
</g>
<g filter="url(#filter32_f_265_4207)">
<path d="M918.269 923.744L920.149 925.466L922.679 925.16L920.957 927.04L921.263 929.571L919.384 927.849L916.853 928.155L918.575 926.275L918.269 923.744Z" fill="white"/>
</g>
<g filter="url(#filter33_f_265_4207)">
<path d="M1040.54 895.138L1042.42 896.861L1044.95 896.555L1043.23 898.434L1043.53 900.965L1041.65 899.243L1039.12 899.549L1040.84 897.669L1040.54 895.138Z" fill="white"/>
</g>
</g>
<defs>
<filter id="filter0_f_265_4207" x="816.716" y="655.072" width="4.03369" height="4.0332" filterUnits="userSpaceOnUse" color-interpolation-filters="sRGB">
<feFlood flood-opacity="0" result="BackgroundImageFix"/>
<feBlend mode="normal" in="SourceGraphic" in2="BackgroundImageFix" result="shape"/>
<feGaussianBlur stdDeviation="0.5" result="effect1_foregroundBlur_265_4207"/>
</filter>
<filter id="filter1_f_265_4207" x="583.292" y="931.864" width="4.03418" height="4.0332" filterUnits="userSpaceOnUse" color-interpolation-filters="sRGB">
<feFlood flood-opacity="0" result="BackgroundImageFix"/>
<feBlend mode="normal" in="SourceGraphic" in2="BackgroundImageFix" result="shape"/>
<feGaussianBlur stdDeviation="0.5" result="effect1_foregroundBlur_265_4207"/>
</filter>
<filter id="filter2_f_265_4207" x="545.552" y="1131.64" width="4.03418" height="4.0332" filterUnits="userSpaceOnUse" color-interpolation-filters="sRGB">
<feFlood flood-opacity="0" result="BackgroundImageFix"/>
<feBlend mode="normal" in="SourceGraphic" in2="BackgroundImageFix" result="shape"/>
<feGaussianBlur stdDeviation="0.5" result="effect1_foregroundBlur_265_4207"/>
</filter>
<filter id="filter3_f_265_4207" x="340.113" y="1149.91" width="4.03418" height="4.0332" filterUnits="userSpaceOnUse" color-interpolation-filters="sRGB">
<feFlood flood-opacity="0" result="BackgroundImageFix"/>
<feBlend mode="normal" in="SourceGraphic" in2="BackgroundImageFix" result="shape"/>
<feGaussianBlur stdDeviation="0.5" result="effect1_foregroundBlur_265_4207"/>
</filter>
<filter id="filter4_f_265_4207" x="850.661" y="942.024" width="4.03369" height="4.0332" filterUnits="userSpaceOnUse" color-interpolation-filters="sRGB">
<feFlood flood-opacity="0" result="BackgroundImageFix"/>
<feBlend mode="normal" in="SourceGraphic" in2="BackgroundImageFix" result="shape"/>
<feGaussianBlur stdDeviation="0.5" result="effect1_foregroundBlur_265_4207"/>
</filter>
<filter id="filter5_f_265_4207" x="974.725" y="800.083" width="4.03369" height="4.0332" filterUnits="userSpaceOnUse" color-interpolation-filters="sRGB">
<feFlood flood-opacity="0" result="BackgroundImageFix"/>
<feBlend mode="normal" in="SourceGraphic" in2="BackgroundImageFix" result="shape"/>
<feGaussianBlur stdDeviation="0.5" result="effect1_foregroundBlur_265_4207"/>
</filter>
<filter id="filter6_f_265_4207" x="558.187" y="810.929" width="4.03418" height="4.0332" filterUnits="userSpaceOnUse" color-interpolation-filters="sRGB">
<feFlood flood-opacity="0" result="BackgroundImageFix"/>
<feBlend mode="normal" in="SourceGraphic" in2="BackgroundImageFix" result="shape"/>
<feGaussianBlur stdDeviation="0.5" result="effect1_foregroundBlur_265_4207"/>
</filter>
<filter id="filter7_f_265_4207" x="442.693" y="803.661" width="8.23755" height="8.2373" filterUnits="userSpaceOnUse" color-interpolation-filters="sRGB">
<feFlood flood-opacity="0" result="BackgroundImageFix"/>
<feBlend mode="normal" in="SourceGraphic" in2="BackgroundImageFix" result="shape"/>
<feGaussianBlur stdDeviation="0.5" result="effect1_foregroundBlur_265_4207"/>
</filter>
<filter id="filter8_f_265_4207" x="375.949" y="1020.19" width="8.23755" height="8.2373" filterUnits="userSpaceOnUse" color-interpolation-filters="sRGB">
<feFlood flood-opacity="0" result="BackgroundImageFix"/>
<feBlend mode="normal" in="SourceGraphic" in2="BackgroundImageFix" result="shape"/>
<feGaussianBlur stdDeviation="0.5" result="effect1_foregroundBlur_265_4207"/>
</filter>
<filter id="filter9_f_265_4207" x="746.754" y="985.073" width="8.2373" height="8.2373" filterUnits="userSpaceOnUse" color-interpolation-filters="sRGB">
<feFlood flood-opacity="0" result="BackgroundImageFix"/>
<feBlend mode="normal" in="SourceGraphic" in2="BackgroundImageFix" result="shape"/>
<feGaussianBlur stdDeviation="0.5" result="effect1_foregroundBlur_265_4207"/>
</filter>
<filter id="filter10_f_265_4207" x="248.379" y="1012.7" width="8.23755" height="8.2373" filterUnits="userSpaceOnUse" color-interpolation-filters="sRGB">
<feFlood flood-opacity="0" result="BackgroundImageFix"/>
<feBlend mode="normal" in="SourceGraphic" in2="BackgroundImageFix" result="shape"/>
<feGaussianBlur stdDeviation="0.5" result="effect1_foregroundBlur_265_4207"/>
</filter>
<filter id="filter11_f_265_4207" x="750.859" y="844.494" width="8.2373" height="8.2373" filterUnits="userSpaceOnUse" color-interpolation-filters="sRGB">
<feFlood flood-opacity="0" result="BackgroundImageFix"/>
<feBlend mode="normal" in="SourceGraphic" in2="BackgroundImageFix" result="shape"/>
<feGaussianBlur stdDeviation="0.5" result="effect1_foregroundBlur_265_4207"/>
</filter>
<filter id="filter12_f_265_4207" x="1040.3" y="501.87" width="8.2373" height="8.2373" filterUnits="userSpaceOnUse" color-interpolation-filters="sRGB">
<feFlood flood-opacity="0" result="BackgroundImageFix"/>
<feBlend mode="normal" in="SourceGraphic" in2="BackgroundImageFix" result="shape"/>
<feGaussianBlur stdDeviation="0.5" result="effect1_foregroundBlur_265_4207"/>
</filter>
<filter id="filter13_f_265_4207" x="1005.56" y="438.182" width="8.2373" height="8.2373" filterUnits="userSpaceOnUse" color-interpolation-filters="sRGB">
<feFlood flood-opacity="0" result="BackgroundImageFix"/>
<feBlend mode="normal" in="SourceGraphic" in2="BackgroundImageFix" result="shape"/>
<feGaussianBlur stdDeviation="0.5" result="effect1_foregroundBlur_265_4207"/>
</filter>
<filter id="filter14_f_265_4207" x="912.398" y="597.623" width="8.2373" height="8.2373" filterUnits="userSpaceOnUse" color-interpolation-filters="sRGB">
<feFlood flood-opacity="0" result="BackgroundImageFix"/>
<feBlend mode="normal" in="SourceGraphic" in2="BackgroundImageFix" result="shape"/>
<feGaussianBlur stdDeviation="0.5" result="effect1_foregroundBlur_265_4207"/>
</filter>
<filter id="filter15_f_265_4207" x="736.817" y="645.104" width="8.2373" height="8.2373" filterUnits="userSpaceOnUse" color-interpolation-filters="sRGB">
<feFlood flood-opacity="0" result="BackgroundImageFix"/>
<feBlend mode="normal" in="SourceGraphic" in2="BackgroundImageFix" result="shape"/>
<feGaussianBlur stdDeviation="0.5" result="effect1_foregroundBlur_265_4207"/>
</filter>
<filter id="filter16_f_265_4207" x="803.046" y="538.42" width="8.2373" height="8.2373" filterUnits="userSpaceOnUse" color-interpolation-filters="sRGB">
<feFlood flood-opacity="0" result="BackgroundImageFix"/>
<feBlend mode="normal" in="SourceGraphic" in2="BackgroundImageFix" result="shape"/>
<feGaussianBlur stdDeviation="0.5" result="effect1_foregroundBlur_265_4207"/>
</filter>
<filter id="filter17_f_265_4207" x="967.266" y="985.281" width="3.8999" height="3.90039" filterUnits="userSpaceOnUse" color-interpolation-filters="sRGB">
<feFlood flood-opacity="0" result="BackgroundImageFix"/>
<feBlend mode="normal" in="SourceGraphic" in2="BackgroundImageFix" result="shape"/>
<feGaussianBlur stdDeviation="0.5" result="effect1_foregroundBlur_265_4207"/>
</filter>
<filter id="filter18_f_265_4207" x="606.488" y="1015.95" width="3.90015" height="3.90039" filterUnits="userSpaceOnUse" color-interpolation-filters="sRGB">
<feFlood flood-opacity="0" result="BackgroundImageFix"/>
<feBlend mode="normal" in="SourceGraphic" in2="BackgroundImageFix" result="shape"/>
<feGaussianBlur stdDeviation="0.5" result="effect1_foregroundBlur_265_4207"/>
</filter>
<filter id="filter19_f_265_4207" x="438.538" y="1130.52" width="3.90015" height="3.90039" filterUnits="userSpaceOnUse" color-interpolation-filters="sRGB">
<feFlood flood-opacity="0" result="BackgroundImageFix"/>
<feBlend mode="normal" in="SourceGraphic" in2="BackgroundImageFix" result="shape"/>
<feGaussianBlur stdDeviation="0.5" result="effect1_foregroundBlur_265_4207"/>
</filter>
<filter id="filter20_f_265_4207" x="280.352" y="998.176" width="3.90015" height="3.90039" filterUnits="userSpaceOnUse" color-interpolation-filters="sRGB">
<feFlood flood-opacity="0" result="BackgroundImageFix"/>
<feBlend mode="normal" in="SourceGraphic" in2="BackgroundImageFix" result="shape"/>
<feGaussianBlur stdDeviation="0.5" result="effect1_foregroundBlur_265_4207"/>
</filter>
<filter id="filter21_f_265_4207" x="788.363" y="1212.19" width="3.8999" height="3.90039" filterUnits="userSpaceOnUse" color-interpolation-filters="sRGB">
<feFlood flood-opacity="0" result="BackgroundImageFix"/>
<feBlend mode="normal" in="SourceGraphic" in2="BackgroundImageFix" result="shape"/>
<feGaussianBlur stdDeviation="0.5" result="effect1_foregroundBlur_265_4207"/>
</filter>
<filter id="filter22_f_265_4207" x="976.456" y="1199.55" width="3.8999" height="3.90039" filterUnits="userSpaceOnUse" color-interpolation-filters="sRGB">
<feFlood flood-opacity="0" result="BackgroundImageFix"/>
<feBlend mode="normal" in="SourceGraphic" in2="BackgroundImageFix" result="shape"/>
<feGaussianBlur stdDeviation="0.5" result="effect1_foregroundBlur_265_4207"/>
</filter>
<filter id="filter23_f_265_4207" x="674.25" y="912.68" width="3.8999" height="3.90039" filterUnits="userSpaceOnUse" color-interpolation-filters="sRGB">
<feFlood flood-opacity="0" result="BackgroundImageFix"/>
<feBlend mode="normal" in="SourceGraphic" in2="BackgroundImageFix" result="shape"/>
<feGaussianBlur stdDeviation="0.5" result="effect1_foregroundBlur_265_4207"/>
</filter>
<filter id="filter24_f_265_4207" x="595.759" y="826.885" width="7.82666" height="7.82617" filterUnits="userSpaceOnUse" color-interpolation-filters="sRGB">
<feFlood flood-opacity="0" result="BackgroundImageFix"/>
<feBlend mode="normal" in="SourceGraphic" in2="BackgroundImageFix" result="shape"/>
<feGaussianBlur stdDeviation="0.5" result="effect1_foregroundBlur_265_4207"/>
</filter>
<filter id="filter25_f_265_4207" x="395.458" y="932.795" width="7.82666" height="7.82617" filterUnits="userSpaceOnUse" color-interpolation-filters="sRGB">
<feFlood flood-opacity="0" result="BackgroundImageFix"/>
<feBlend mode="normal" in="SourceGraphic" in2="BackgroundImageFix" result="shape"/>
<feGaussianBlur stdDeviation="0.5" result="effect1_foregroundBlur_265_4207"/>
</filter>
<filter id="filter26_f_265_4207" x="682.485" y="1170.17" width="7.82715" height="7.82617" filterUnits="userSpaceOnUse" color-interpolation-filters="sRGB">
<feFlood flood-opacity="0" result="BackgroundImageFix"/>
<feBlend mode="normal" in="SourceGraphic" in2="BackgroundImageFix" result="shape"/>
<feGaussianBlur stdDeviation="0.5" result="effect1_foregroundBlur_265_4207"/>
</filter>
<filter id="filter27_f_265_4207" x="310.547" y="837.296" width="7.82666" height="7.82617" filterUnits="userSpaceOnUse" color-interpolation-filters="sRGB">
<feFlood flood-opacity="0" result="BackgroundImageFix"/>
<feBlend mode="normal" in="SourceGraphic" in2="BackgroundImageFix" result="shape"/>
<feGaussianBlur stdDeviation="0.5" result="effect1_foregroundBlur_265_4207"/>
</filter>
<filter id="filter28_f_265_4207" x="784.793" y="1073.66" width="7.82715" height="7.82617" filterUnits="userSpaceOnUse" color-interpolation-filters="sRGB">
<feFlood flood-opacity="0" result="BackgroundImageFix"/>
<feBlend mode="normal" in="SourceGraphic" in2="BackgroundImageFix" result="shape"/>
<feGaussianBlur stdDeviation="0.5" result="effect1_foregroundBlur_265_4207"/>
</filter>
<filter id="filter29_f_265_4207" x="1886" y="1222.21" width="7.82715" height="7.82617" filterUnits="userSpaceOnUse" color-interpolation-filters="sRGB">
<feFlood flood-opacity="0" result="BackgroundImageFix"/>
<feBlend mode="normal" in="SourceGraphic" in2="BackgroundImageFix" result="shape"/>
<feGaussianBlur stdDeviation="0.5" result="effect1_foregroundBlur_265_4207"/>
</filter>
<filter id="filter30_f_265_4207" x="1041.99" y="1168.21" width="7.82715" height="7.82617" filterUnits="userSpaceOnUse" color-interpolation-filters="sRGB">
<feFlood flood-opacity="0" result="BackgroundImageFix"/>
<feBlend mode="normal" in="SourceGraphic" in2="BackgroundImageFix" result="shape"/>
<feGaussianBlur stdDeviation="0.5" result="effect1_foregroundBlur_265_4207"/>
</filter>
<filter id="filter31_f_265_4207" x="1073.58" y="1013.33" width="7.82715" height="7.82617" filterUnits="userSpaceOnUse" color-interpolation-filters="sRGB">
<feFlood flood-opacity="0" result="BackgroundImageFix"/>
<feBlend mode="normal" in="SourceGraphic" in2="BackgroundImageFix" result="shape"/>
<feGaussianBlur stdDeviation="0.5" result="effect1_foregroundBlur_265_4207"/>
</filter>
<filter id="filter32_f_265_4207" x="915.853" y="922.744" width="7.82715" height="7.82617" filterUnits="userSpaceOnUse" color-interpolation-filters="sRGB">
<feFlood flood-opacity="0" result="BackgroundImageFix"/>
<feBlend mode="normal" in="SourceGraphic" in2="BackgroundImageFix" result="shape"/>
<feGaussianBlur stdDeviation="0.5" result="effect1_foregroundBlur_265_4207"/>
</filter>
<filter id="filter33_f_265_4207" x="1038.12" y="894.139" width="7.82715" height="7.82617" filterUnits="userSpaceOnUse" color-interpolation-filters="sRGB">
<feFlood flood-opacity="0" result="BackgroundImageFix"/>
<feBlend mode="normal" in="SourceGraphic" in2="BackgroundImageFix" result="shape"/>
<feGaussianBlur stdDeviation="0.5" result="effect1_foregroundBlur_265_4207"/>
</filter>
</defs>
</svg>
