<svg width="453" height="177" viewBox="0 0 453 177" fill="none" xmlns="http://www.w3.org/2000/svg">
<path d="M132.876 174V165.6H134.076V174H132.876ZM135.685 174V167.952H136.765L136.837 168.984C137.029 168.624 137.301 168.34 137.653 168.132C138.005 167.916 138.409 167.808 138.865 167.808C139.345 167.808 139.757 167.904 140.101 168.096C140.445 168.288 140.713 168.58 140.905 168.972C141.097 169.356 141.193 169.84 141.193 170.424V174H139.993V170.544C139.993 169.984 139.869 169.56 139.621 169.272C139.373 168.984 139.013 168.84 138.541 168.84C138.229 168.84 137.949 168.916 137.701 169.068C137.453 169.212 137.253 169.428 137.101 169.716C136.957 170.004 136.885 170.356 136.885 170.772V174H135.685ZM144.984 174.144C144.472 174.144 144.024 174.06 143.64 173.892C143.256 173.724 142.952 173.488 142.728 173.184C142.504 172.88 142.368 172.524 142.32 172.116H143.544C143.584 172.308 143.66 172.484 143.772 172.644C143.892 172.804 144.052 172.932 144.252 173.028C144.46 173.124 144.704 173.172 144.984 173.172C145.248 173.172 145.464 173.136 145.632 173.064C145.808 172.984 145.936 172.88 146.016 172.752C146.096 172.616 146.136 172.472 146.136 172.32C146.136 172.096 146.08 171.928 145.968 171.816C145.864 171.696 145.704 171.604 145.488 171.54C145.28 171.468 145.028 171.404 144.732 171.348C144.452 171.3 144.18 171.236 143.916 171.156C143.66 171.068 143.428 170.96 143.22 170.832C143.02 170.704 142.86 170.544 142.74 170.352C142.62 170.152 142.56 169.908 142.56 169.62C142.56 169.276 142.652 168.968 142.836 168.696C143.02 168.416 143.28 168.2 143.616 168.048C143.96 167.888 144.364 167.808 144.828 167.808C145.5 167.808 146.04 167.968 146.448 168.288C146.856 168.608 147.096 169.06 147.168 169.644H146.004C145.972 169.372 145.852 169.164 145.644 169.02C145.436 168.868 145.16 168.792 144.816 168.792C144.472 168.792 144.208 168.86 144.024 168.996C143.84 169.132 143.748 169.312 143.748 169.536C143.748 169.68 143.8 169.808 143.904 169.92C144.008 170.032 144.16 170.128 144.36 170.208C144.568 170.28 144.82 170.348 145.116 170.412C145.54 170.492 145.92 170.592 146.256 170.712C146.592 170.832 146.86 171.008 147.06 171.24C147.26 171.472 147.36 171.804 147.36 172.236C147.368 172.612 147.272 172.944 147.072 173.232C146.88 173.52 146.604 173.744 146.244 173.904C145.892 174.064 145.472 174.144 144.984 174.144ZM148.773 174V167.952H149.973V174H148.773ZM149.385 166.812C149.153 166.812 148.961 166.74 148.809 166.596C148.665 166.452 148.593 166.268 148.593 166.044C148.593 165.828 148.665 165.652 148.809 165.516C148.961 165.372 149.153 165.3 149.385 165.3C149.609 165.3 149.797 165.372 149.949 165.516C150.101 165.652 150.177 165.828 150.177 166.044C150.177 166.268 150.101 166.452 149.949 166.596C149.797 166.74 149.609 166.812 149.385 166.812ZM154.065 176.784C153.513 176.784 153.025 176.712 152.601 176.568C152.177 176.432 151.849 176.22 151.617 175.932C151.385 175.644 151.269 175.292 151.269 174.876C151.269 174.66 151.317 174.44 151.413 174.216C151.509 174 151.665 173.792 151.881 173.592C152.097 173.392 152.389 173.212 152.757 173.052L153.429 173.592C153.021 173.744 152.745 173.924 152.601 174.132C152.465 174.348 152.397 174.556 152.397 174.756C152.397 174.996 152.469 175.196 152.613 175.356C152.757 175.516 152.953 175.636 153.201 175.716C153.457 175.796 153.745 175.836 154.065 175.836C154.377 175.836 154.649 175.792 154.881 175.704C155.113 175.616 155.293 175.492 155.421 175.332C155.549 175.172 155.613 174.984 155.613 174.768C155.613 174.512 155.517 174.296 155.325 174.12C155.133 173.952 154.765 173.852 154.221 173.82C153.765 173.788 153.377 173.744 153.057 173.688C152.745 173.632 152.477 173.564 152.253 173.484C152.037 173.404 151.853 173.316 151.701 173.22C151.557 173.124 151.433 173.024 151.329 172.92V172.644L152.529 171.408L153.501 171.744L152.193 172.956L152.445 172.416C152.533 172.472 152.617 172.528 152.697 172.584C152.777 172.632 152.885 172.676 153.021 172.716C153.157 172.756 153.341 172.792 153.573 172.824C153.805 172.856 154.109 172.888 154.485 172.92C155.029 172.96 155.465 173.056 155.793 173.208C156.129 173.36 156.373 173.564 156.525 173.82C156.677 174.076 156.753 174.38 156.753 174.732C156.753 175.076 156.657 175.404 156.465 175.716C156.281 176.028 155.989 176.284 155.589 176.484C155.197 176.684 154.689 176.784 154.065 176.784ZM154.065 172.14C153.553 172.14 153.117 172.044 152.757 171.852C152.405 171.66 152.133 171.4 151.941 171.072C151.757 170.744 151.665 170.38 151.665 169.98C151.665 169.572 151.757 169.208 151.941 168.888C152.133 168.56 152.409 168.3 152.769 168.108C153.129 167.908 153.561 167.808 154.065 167.808C154.569 167.808 154.997 167.908 155.349 168.108C155.709 168.3 155.981 168.56 156.165 168.888C156.357 169.208 156.453 169.572 156.453 169.98C156.453 170.38 156.357 170.744 156.165 171.072C155.981 171.4 155.709 171.66 155.349 171.852C154.997 172.044 154.569 172.14 154.065 172.14ZM154.065 171.18C154.457 171.18 154.769 171.08 155.001 170.88C155.233 170.672 155.349 170.372 155.349 169.98C155.349 169.588 155.233 169.292 155.001 169.092C154.769 168.884 154.457 168.78 154.065 168.78C153.673 168.78 153.357 168.884 153.117 169.092C152.877 169.292 152.757 169.588 152.757 169.98C152.757 170.372 152.877 170.672 153.117 170.88C153.357 171.08 153.673 171.18 154.065 171.18ZM155.049 168.9L154.761 167.952H157.245V168.78L155.049 168.9ZM158.365 174V167.952H159.445L159.517 168.984C159.709 168.624 159.981 168.34 160.333 168.132C160.685 167.916 161.089 167.808 161.545 167.808C162.025 167.808 162.437 167.904 162.781 168.096C163.125 168.288 163.393 168.58 163.585 168.972C163.777 169.356 163.873 169.84 163.873 170.424V174H162.673V170.544C162.673 169.984 162.549 169.56 162.301 169.272C162.053 168.984 161.693 168.84 161.221 168.84C160.909 168.84 160.629 168.916 160.381 169.068C160.133 169.212 159.933 169.428 159.781 169.716C159.637 170.004 159.565 170.356 159.565 170.772V174H158.365ZM167.82 174C167.436 174 167.104 173.94 166.824 173.82C166.544 173.7 166.328 173.5 166.176 173.22C166.024 172.94 165.948 172.56 165.948 172.08V168.972H164.904V167.952H165.948L166.092 166.44H167.148V167.952H168.864V168.972H167.148V172.092C167.148 172.436 167.22 172.672 167.364 172.8C167.508 172.92 167.756 172.98 168.108 172.98H168.804V174H167.82ZM172.443 174.144C171.931 174.144 171.483 174.06 171.099 173.892C170.715 173.724 170.411 173.488 170.187 173.184C169.963 172.88 169.827 172.524 169.779 172.116H171.003C171.043 172.308 171.119 172.484 171.231 172.644C171.351 172.804 171.511 172.932 171.711 173.028C171.919 173.124 172.163 173.172 172.443 173.172C172.707 173.172 172.923 173.136 173.091 173.064C173.267 172.984 173.395 172.88 173.475 172.752C173.555 172.616 173.595 172.472 173.595 172.32C173.595 172.096 173.539 171.928 173.427 171.816C173.323 171.696 173.163 171.604 172.947 171.54C172.739 171.468 172.487 171.404 172.191 171.348C171.911 171.3 171.639 171.236 171.375 171.156C171.119 171.068 170.887 170.96 170.679 170.832C170.479 170.704 170.319 170.544 170.199 170.352C170.079 170.152 170.019 169.908 170.019 169.62C170.019 169.276 170.111 168.968 170.295 168.696C170.479 168.416 170.739 168.2 171.075 168.048C171.419 167.888 171.823 167.808 172.287 167.808C172.959 167.808 173.499 167.968 173.907 168.288C174.315 168.608 174.555 169.06 174.627 169.644H173.463C173.431 169.372 173.311 169.164 173.103 169.02C172.895 168.868 172.619 168.792 172.275 168.792C171.931 168.792 171.667 168.86 171.483 168.996C171.299 169.132 171.207 169.312 171.207 169.536C171.207 169.68 171.259 169.808 171.363 169.92C171.467 170.032 171.619 170.128 171.819 170.208C172.027 170.28 172.279 170.348 172.575 170.412C172.999 170.492 173.379 170.592 173.715 170.712C174.051 170.832 174.319 171.008 174.519 171.24C174.719 171.472 174.819 171.804 174.819 172.236C174.827 172.612 174.731 172.944 174.531 173.232C174.339 173.52 174.063 173.744 173.703 173.904C173.351 174.064 172.931 174.144 172.443 174.144Z" fill="white"/>
<path d="M12.4609 58.8984V88H8.125V63.3125H7.92969L1.01562 67.8633V63.6445L8.24219 58.8984H12.4609ZM16.5178 88V84.8359L26.3616 74.6016C27.4032 73.5078 28.2626 72.5443 28.9397 71.7109C29.6298 70.8646 30.1441 70.0638 30.4827 69.3086C30.8342 68.5534 31.01 67.7526 31.01 66.9062C31.01 65.9297 30.7821 65.0898 30.3264 64.3867C29.8707 63.6836 29.2522 63.1432 28.4709 62.7656C27.6897 62.388 26.8043 62.1992 25.8147 62.1992C24.773 62.1992 23.8681 62.4141 23.0998 62.8438C22.3316 63.2604 21.7327 63.8594 21.303 64.6406C20.8863 65.4089 20.678 66.3138 20.678 67.3555H16.4983C16.4983 65.5846 16.9019 64.0352 17.7092 62.707C18.5295 61.3789 19.6493 60.3503 21.0686 59.6211C22.5009 58.8789 24.1155 58.5078 25.9123 58.5078C27.7483 58.5078 29.3629 58.8724 30.7561 59.6016C32.1493 60.3307 33.2366 61.3203 34.0178 62.5703C34.7991 63.8073 35.1897 65.207 35.1897 66.7695C35.1897 67.8503 34.9879 68.9049 34.5842 69.9336C34.1936 70.9622 33.497 72.1146 32.4944 73.3906C31.5048 74.6536 30.1246 76.1771 28.3538 77.9609L22.5725 84.0156V84.25H35.6584V88H16.5178ZM37.9184 82.3164V78.7812L50.477 58.8984H53.27V64.1328H51.4731L42.4888 78.3516V78.5859H59.7348V82.3164H37.9184ZM51.6684 88V81.2422L51.7075 79.6211V58.8984H55.8872V88H51.6684ZM61.2722 95.207L62.9909 83.8203H67.5612L64.3386 95.207H61.2722ZM71.7744 82.3164V78.7812L84.333 58.8984H87.1259V64.1328H85.3291L76.3447 78.3516V78.5859H93.5908V82.3164H71.7744ZM85.5244 88V81.2422L85.5634 79.6211V58.8984H89.7431V88H85.5244ZM96.5734 88V84.8359L106.417 74.6016C107.459 73.5078 108.318 72.5443 108.995 71.7109C109.685 70.8646 110.2 70.0638 110.538 69.3086C110.89 68.5534 111.066 67.7526 111.066 66.9062C111.066 65.9297 110.838 65.0898 110.382 64.3867C109.926 63.6836 109.308 63.1432 108.527 62.7656C107.745 62.388 106.86 62.1992 105.87 62.1992C104.829 62.1992 103.924 62.4141 103.155 62.8438C102.387 63.2604 101.788 63.8594 101.359 64.6406C100.942 65.4089 100.734 66.3138 100.734 67.3555H96.5539C96.5539 65.5846 96.9576 64.0352 97.7648 62.707C98.5852 61.3789 99.705 60.3503 101.124 59.6211C102.557 58.8789 104.171 58.5078 105.968 58.5078C107.804 58.5078 109.418 58.8724 110.812 59.6016C112.205 60.3307 113.292 61.3203 114.073 62.5703C114.855 63.8073 115.245 65.207 115.245 66.7695C115.245 67.8503 115.043 68.9049 114.64 69.9336C114.249 70.9622 113.553 72.1146 112.55 73.3906C111.56 74.6536 110.18 76.1771 108.409 77.9609L102.628 84.0156V84.25H115.714V88H96.5734ZM129.302 88.3906C127.063 88.3906 125.142 87.8047 123.54 86.6328C121.952 85.4609 120.734 83.7682 119.888 81.5547C119.055 79.3281 118.638 76.6328 118.638 73.4688C118.638 70.3177 119.061 67.6289 119.908 65.4023C120.754 63.1628 121.971 61.457 123.56 60.2852C125.162 59.1003 127.076 58.5078 129.302 58.5078C131.542 58.5078 133.456 59.1003 135.044 60.2852C136.646 61.457 137.863 63.1628 138.697 65.4023C139.543 67.6289 139.966 70.3177 139.966 73.4688C139.966 76.6328 139.55 79.3281 138.716 81.5547C137.883 83.7682 136.672 85.4609 135.083 86.6328C133.495 87.8047 131.568 88.3906 129.302 88.3906ZM129.302 84.6406C130.669 84.6406 131.822 84.2044 132.759 83.332C133.697 82.4596 134.413 81.1901 134.908 79.5234C135.402 77.8438 135.65 75.8255 135.65 73.4688C135.65 71.099 135.402 69.0807 134.908 67.4141C134.413 65.7344 133.697 64.4583 132.759 63.5859C131.822 62.7005 130.669 62.2578 129.302 62.2578C127.284 62.2578 125.721 63.2409 124.615 65.207C123.521 67.1602 122.974 69.9141 122.974 73.4688C122.974 75.8255 123.221 77.8438 123.716 79.5234C124.211 81.1901 124.927 82.4596 125.865 83.332C126.815 84.2044 127.961 84.6406 129.302 84.6406ZM145.273 88.2734C144.479 88.2734 143.802 88 143.242 87.4531C142.695 86.9062 142.422 86.2357 142.422 85.4414C142.422 84.6471 142.695 83.9766 143.242 83.4297C143.802 82.8828 144.479 82.6094 145.273 82.6094C146.067 82.6094 146.738 82.8828 147.285 83.4297C147.845 83.9766 148.125 84.6471 148.125 85.4414C148.125 86.2357 147.845 86.9062 147.285 87.4531C146.738 88 146.067 88.2734 145.273 88.2734ZM161.322 88.3906C159.538 88.3906 157.937 88.0521 156.518 87.375C155.111 86.6849 153.985 85.7409 153.139 84.543C152.292 83.332 151.843 81.9583 151.791 80.4219H156.049C156.153 81.6589 156.706 82.681 157.709 83.4883C158.712 84.2956 159.916 84.6992 161.322 84.6992C162.442 84.6992 163.432 84.4388 164.291 83.918C165.15 83.3971 165.827 82.6875 166.322 81.7891C166.817 80.8776 167.064 79.8359 167.064 78.6641C167.064 77.4922 166.81 76.444 166.303 75.5195C165.795 74.582 165.092 73.8464 164.193 73.3125C163.308 72.7786 162.286 72.5117 161.127 72.5117C160.241 72.5117 159.356 72.668 158.471 72.9805C157.585 73.2799 156.869 73.6706 156.322 74.1523L152.279 73.5664L153.92 58.8984H169.916V62.668H157.592L156.674 70.8125H156.83C157.39 70.2526 158.139 69.7969 159.076 69.4453C160.027 69.0807 161.049 68.8984 162.143 68.8984C163.913 68.8984 165.489 69.3216 166.869 70.168C168.262 71.0013 169.356 72.1471 170.15 73.6055C170.945 75.0508 171.342 76.7109 171.342 78.5859C171.342 80.474 170.912 82.1602 170.053 83.6445C169.193 85.1159 168.008 86.2747 166.498 87.1211C165.001 87.9674 163.275 88.3906 161.322 88.3906ZM184.598 88.3906C182.358 88.3906 180.438 87.8047 178.836 86.6328C177.248 85.4609 176.03 83.7682 175.184 81.5547C174.35 79.3281 173.934 76.6328 173.934 73.4688C173.934 70.3177 174.357 67.6289 175.203 65.4023C176.05 63.1628 177.267 61.457 178.856 60.2852C180.457 59.1003 182.371 58.5078 184.598 58.5078C186.837 58.5078 188.751 59.1003 190.34 60.2852C191.942 61.457 193.159 63.1628 193.992 65.4023C194.839 67.6289 195.262 70.3177 195.262 73.4688C195.262 76.6328 194.845 79.3281 194.012 81.5547C193.179 83.7682 191.968 85.4609 190.379 86.6328C188.791 87.8047 186.863 88.3906 184.598 88.3906ZM184.598 84.6406C185.965 84.6406 187.117 84.2044 188.055 83.332C188.992 82.4596 189.708 81.1901 190.203 79.5234C190.698 77.8438 190.945 75.8255 190.945 73.4688C190.945 71.099 190.698 69.0807 190.203 67.4141C189.708 65.7344 188.992 64.4583 188.055 63.5859C187.117 62.7005 185.965 62.2578 184.598 62.2578C182.58 62.2578 181.017 63.2409 179.91 65.207C178.817 67.1602 178.27 69.9141 178.27 73.4688C178.27 75.8255 178.517 77.8438 179.012 79.5234C179.507 81.1901 180.223 82.4596 181.16 83.332C182.111 84.2044 183.257 84.6406 184.598 84.6406Z" fill="white"/>
<path d="M4.968 132V127.744L1.32 120.8H2.84L5.848 126.864H5.448L8.44 120.8H9.944L6.312 127.744V132H4.968ZM13.4986 132.192C12.752 132.192 12.08 132.021 11.4826 131.68C10.8853 131.328 10.416 130.837 10.0746 130.208C9.73329 129.568 9.56263 128.827 9.56263 127.984C9.56263 127.12 9.73329 126.373 10.0746 125.744C10.4266 125.104 10.9013 124.613 11.4986 124.272C12.1066 123.92 12.784 123.744 13.5306 123.744C14.2986 123.744 14.976 123.92 15.5626 124.272C16.16 124.613 16.6293 125.104 16.9706 125.744C17.3226 126.373 17.4986 127.115 17.4986 127.968C17.4986 128.821 17.3226 129.568 16.9706 130.208C16.6186 130.837 16.144 131.328 15.5466 131.68C14.9493 132.021 14.2666 132.192 13.4986 132.192ZM13.5146 131.04C13.9733 131.04 14.4 130.928 14.7946 130.704C15.1893 130.469 15.5093 130.123 15.7546 129.664C16 129.205 16.1226 128.64 16.1226 127.968C16.1226 127.285 16 126.72 15.7546 126.272C15.52 125.813 15.2053 125.472 14.8106 125.248C14.4266 125.013 14 124.896 13.5306 124.896C13.0826 124.896 12.656 125.013 12.2506 125.248C11.856 125.472 11.536 125.813 11.2906 126.272C11.056 126.72 10.9386 127.285 10.9386 127.968C10.9386 128.64 11.056 129.205 11.2906 129.664C11.536 130.123 11.8506 130.469 12.2346 130.704C12.6293 130.928 13.056 131.04 13.5146 131.04ZM22.199 132.192C21.5803 132.192 21.0363 132.069 20.567 131.824C20.1083 131.579 19.751 131.2 19.495 130.688C19.2497 130.176 19.127 129.536 19.127 128.768V123.936H20.471V128.624C20.471 129.424 20.647 130.027 20.999 130.432C21.351 130.837 21.847 131.04 22.487 131.04C22.935 131.04 23.3403 130.933 23.703 130.72C24.0657 130.496 24.3483 130.181 24.551 129.776C24.7643 129.36 24.871 128.853 24.871 128.256V123.936H26.215V132H24.999L24.919 130.592C24.6737 131.093 24.311 131.488 23.831 131.776C23.351 132.053 22.807 132.192 22.199 132.192ZM35.6529 135.712C34.9275 135.712 34.2822 135.616 33.7169 135.424C33.1622 135.243 32.7302 134.96 32.4209 134.576C32.1115 134.192 31.9569 133.717 31.9569 133.152C31.9569 132.907 32.0049 132.645 32.1009 132.368C32.2075 132.091 32.3835 131.819 32.6289 131.552C32.8849 131.285 33.2422 131.045 33.7009 130.832L34.6289 131.376C34.0635 131.611 33.6955 131.877 33.5249 132.176C33.3542 132.485 33.2689 132.768 33.2689 133.024C33.2689 133.376 33.3702 133.669 33.5729 133.904C33.7755 134.139 34.0582 134.315 34.4209 134.432C34.7835 134.549 35.1942 134.608 35.6529 134.608C36.1115 134.608 36.5062 134.544 36.8369 134.416C37.1675 134.288 37.4235 134.107 37.6049 133.872C37.7862 133.637 37.8769 133.36 37.8769 133.04C37.8769 132.667 37.7382 132.352 37.4609 132.096C37.1835 131.851 36.6555 131.707 35.8769 131.664C35.2475 131.621 34.7195 131.563 34.2929 131.488C33.8662 131.413 33.5142 131.328 33.2369 131.232C32.9595 131.125 32.7249 131.008 32.5329 130.88C32.3515 130.752 32.1862 130.619 32.0369 130.48V130.112L33.5889 128.576L34.7569 128.992L33.1569 130.432L33.3649 129.872C33.4822 129.957 33.5942 130.037 33.7009 130.112C33.8075 130.187 33.9515 130.251 34.1329 130.304C34.3142 130.357 34.5649 130.405 34.8849 130.448C35.2155 130.491 35.6475 130.533 36.1809 130.576C36.9169 130.629 37.5035 130.757 37.9409 130.96C38.3889 131.163 38.7089 131.435 38.9009 131.776C39.1035 132.117 39.2049 132.523 39.2049 132.992C39.2049 133.451 39.0769 133.883 38.8209 134.288C38.5755 134.704 38.1915 135.045 37.6689 135.312C37.1462 135.579 36.4742 135.712 35.6529 135.712ZM35.6369 129.472C34.9649 129.472 34.3889 129.344 33.9089 129.088C33.4395 128.832 33.0822 128.491 32.8369 128.064C32.5915 127.627 32.4689 127.141 32.4689 126.608C32.4689 126.075 32.5915 125.595 32.8369 125.168C33.0929 124.741 33.4555 124.4 33.9249 124.144C34.3942 123.877 34.9649 123.744 35.6369 123.744C36.3089 123.744 36.8795 123.877 37.3489 124.144C37.8182 124.4 38.1755 124.741 38.4209 125.168C38.6662 125.595 38.7889 126.075 38.7889 126.608C38.7889 127.141 38.6662 127.627 38.4209 128.064C38.1755 128.491 37.8182 128.832 37.3489 129.088C36.8795 129.344 36.3089 129.472 35.6369 129.472ZM35.6369 128.368C36.2129 128.368 36.6662 128.219 36.9969 127.92C37.3275 127.621 37.4929 127.184 37.4929 126.608C37.4929 126.043 37.3275 125.611 36.9969 125.312C36.6662 125.013 36.2129 124.864 35.6369 124.864C35.0715 124.864 34.6129 125.013 34.2609 125.312C33.9195 125.611 33.7489 126.043 33.7489 126.608C33.7489 127.184 33.9195 127.621 34.2609 127.92C34.6022 128.219 35.0609 128.368 35.6369 128.368ZM36.9489 125.072L36.5489 123.936H39.8449V124.944L36.9489 125.072ZM43.9027 132.192C43.2521 132.192 42.7081 132.08 42.2707 131.856C41.8334 131.621 41.5081 131.317 41.2947 130.944C41.0814 130.56 40.9747 130.144 40.9747 129.696C40.9747 129.152 41.1134 128.693 41.3907 128.32C41.6787 127.936 42.0787 127.648 42.5907 127.456C43.1134 127.253 43.7267 127.152 44.4307 127.152H46.5587C46.5587 126.651 46.4787 126.235 46.3187 125.904C46.1694 125.563 45.9454 125.307 45.6467 125.136C45.3587 124.965 44.9961 124.88 44.5587 124.88C44.0467 124.88 43.6041 125.008 43.2307 125.264C42.8574 125.52 42.6281 125.899 42.5427 126.4H41.1667C41.2307 125.824 41.4227 125.344 41.7427 124.96C42.0734 124.565 42.4894 124.267 42.9907 124.064C43.4921 123.851 44.0147 123.744 44.5587 123.744C45.3054 123.744 45.9241 123.883 46.4147 124.16C46.9161 124.427 47.2894 124.805 47.5347 125.296C47.7801 125.776 47.9027 126.347 47.9027 127.008V132H46.7027L46.6227 130.576C46.5161 130.8 46.3774 131.013 46.2067 131.216C46.0467 131.408 45.8547 131.579 45.6307 131.728C45.4067 131.867 45.1507 131.979 44.8627 132.064C44.5854 132.149 44.2654 132.192 43.9027 132.192ZM44.1107 131.056C44.4841 131.056 44.8201 130.981 45.1187 130.832C45.4281 130.672 45.6894 130.459 45.9027 130.192C46.1161 129.915 46.2761 129.611 46.3827 129.28C46.5001 128.949 46.5587 128.603 46.5587 128.24V128.192H44.5427C44.0201 128.192 43.5987 128.256 43.2787 128.384C42.9587 128.501 42.7294 128.672 42.5907 128.896C42.4521 129.109 42.3827 129.355 42.3827 129.632C42.3827 129.92 42.4467 130.171 42.5747 130.384C42.7134 130.597 42.9107 130.763 43.1667 130.88C43.4334 130.997 43.7481 131.056 44.1107 131.056ZM49.9979 132V123.936H51.3419V132H49.9979ZM50.6699 122.224C50.4032 122.224 50.1792 122.139 49.9979 121.968C49.8272 121.787 49.7419 121.563 49.7419 121.296C49.7419 121.029 49.8272 120.816 49.9979 120.656C50.1792 120.485 50.4032 120.4 50.6699 120.4C50.9259 120.4 51.1445 120.485 51.3259 120.656C51.5072 120.816 51.5979 121.029 51.5979 121.296C51.5979 121.563 51.5072 121.787 51.3259 121.968C51.1445 122.139 50.9259 122.224 50.6699 122.224ZM53.6016 132V123.936H54.8176L54.8816 125.344C55.1376 124.843 55.5003 124.453 55.9696 124.176C56.4496 123.888 56.9936 123.744 57.6016 123.744C58.231 123.744 58.775 123.872 59.2336 124.128C59.6923 124.373 60.0496 124.752 60.3056 125.264C60.5616 125.765 60.6896 126.405 60.6896 127.184V132H59.3456V127.328C59.3456 126.517 59.1643 125.909 58.8016 125.504C58.4496 125.099 57.9483 124.896 57.2976 124.896C56.8496 124.896 56.4496 125.008 56.0976 125.232C55.7456 125.445 55.463 125.76 55.2496 126.176C55.047 126.581 54.9456 127.088 54.9456 127.696V132H53.6016ZM66.2131 132.192C65.4558 132.192 64.7838 132.016 64.1971 131.664C63.6211 131.312 63.1678 130.821 62.8371 130.192C62.5065 129.552 62.3411 128.811 62.3411 127.968C62.3411 127.115 62.5011 126.373 62.8211 125.744C63.1518 125.115 63.6105 124.624 64.1971 124.272C64.7945 123.92 65.4771 123.744 66.2451 123.744C67.0345 123.744 67.7011 123.92 68.2451 124.272C68.7998 124.624 69.2211 125.088 69.5091 125.664C69.8078 126.229 69.9571 126.853 69.9571 127.536C69.9571 127.643 69.9571 127.755 69.9571 127.872C69.9571 127.989 69.9518 128.123 69.9411 128.272H63.3491V127.232H68.6451C68.6131 126.496 68.3678 125.92 67.9091 125.504C67.4611 125.088 66.8958 124.88 66.2131 124.88C65.7545 124.88 65.3278 124.987 64.9331 125.2C64.5491 125.403 64.2398 125.707 64.0051 126.112C63.7705 126.507 63.6531 127.003 63.6531 127.6V128.048C63.6531 128.709 63.7705 129.264 64.0051 129.712C64.2505 130.16 64.5651 130.496 64.9491 130.72C65.3438 130.944 65.7651 131.056 66.2131 131.056C66.7785 131.056 67.2425 130.933 67.6051 130.688C67.9785 130.432 68.2451 130.091 68.4051 129.664H69.7331C69.6051 130.144 69.3811 130.576 69.0611 130.96C68.7411 131.344 68.3411 131.648 67.8611 131.872C67.3918 132.085 66.8425 132.192 66.2131 132.192ZM75.2109 132.192C74.4322 132.192 73.7495 132.011 73.1629 131.648C72.5762 131.275 72.1229 130.768 71.8029 130.128C71.4829 129.488 71.3229 128.763 71.3229 127.952C71.3229 127.141 71.4829 126.421 71.8029 125.792C72.1229 125.152 72.5762 124.651 73.1629 124.288C73.7602 123.925 74.4482 123.744 75.2269 123.744C75.8882 123.744 76.4642 123.877 76.9549 124.144C77.4562 124.411 77.8402 124.784 78.1069 125.264V120.48H79.4509V132H78.2349L78.1229 130.672C77.9522 130.939 77.7335 131.189 77.4669 131.424C77.2002 131.648 76.8802 131.835 76.5069 131.984C76.1335 132.123 75.7015 132.192 75.2109 132.192ZM75.3709 131.024C75.9042 131.024 76.3735 130.896 76.7789 130.64C77.1842 130.384 77.4989 130.032 77.7229 129.584C77.9469 129.125 78.0589 128.587 78.0589 127.968C78.0589 127.36 77.9469 126.827 77.7229 126.368C77.4989 125.909 77.1842 125.552 76.7789 125.296C76.3735 125.04 75.9042 124.912 75.3709 124.912C74.8482 124.912 74.3842 125.04 73.9789 125.296C73.5735 125.552 73.2589 125.909 73.0349 126.368C72.8109 126.827 72.6989 127.36 72.6989 127.968C72.6989 128.587 72.8109 129.125 73.0349 129.584C73.2589 130.032 73.5735 130.384 73.9789 130.64C74.3842 130.896 74.8482 131.024 75.3709 131.024ZM163.689 132C163.209 132 162.793 131.925 162.441 131.776C162.089 131.627 161.817 131.376 161.625 131.024C161.443 130.661 161.353 130.176 161.353 129.568V125.072H159.945V123.936H161.353L161.529 121.984H162.697V123.936H165.033V125.072H162.697V129.568C162.697 130.069 162.798 130.411 163.001 130.592C163.203 130.763 163.561 130.848 164.073 130.848H164.937V132H163.689ZM166.674 132V120.48H168.018V125.296C168.285 124.816 168.658 124.437 169.138 124.16C169.629 123.883 170.162 123.744 170.738 123.744C171.357 123.744 171.896 123.872 172.354 124.128C172.813 124.373 173.165 124.752 173.41 125.264C173.656 125.776 173.778 126.421 173.778 127.2V132H172.45V127.344C172.45 126.533 172.28 125.925 171.938 125.52C171.597 125.104 171.101 124.896 170.45 124.896C169.992 124.896 169.576 125.008 169.202 125.232C168.84 125.456 168.552 125.776 168.338 126.192C168.125 126.608 168.018 127.12 168.018 127.728V132H166.674ZM175.893 132V123.936H177.237V132H175.893ZM176.565 122.224C176.299 122.224 176.075 122.139 175.893 121.968C175.723 121.787 175.637 121.563 175.637 121.296C175.637 121.029 175.723 120.816 175.893 120.656C176.075 120.485 176.299 120.4 176.565 120.4C176.821 120.4 177.04 120.485 177.221 120.656C177.403 120.816 177.493 121.029 177.493 121.296C177.493 121.563 177.403 121.787 177.221 121.968C177.04 122.139 176.821 122.224 176.565 122.224ZM182.537 132.192C181.865 132.192 181.278 132.08 180.777 131.856C180.286 131.632 179.892 131.323 179.593 130.928C179.305 130.523 179.129 130.048 179.065 129.504H180.441C180.494 129.781 180.606 130.037 180.777 130.272C180.948 130.507 181.177 130.699 181.465 130.848C181.764 130.987 182.126 131.056 182.553 131.056C182.926 131.056 183.236 131.003 183.481 130.896C183.726 130.779 183.908 130.624 184.025 130.432C184.153 130.24 184.217 130.032 184.217 129.808C184.217 129.477 184.137 129.227 183.977 129.056C183.828 128.885 183.604 128.752 183.305 128.656C183.006 128.549 182.644 128.459 182.217 128.384C181.865 128.32 181.518 128.235 181.177 128.128C180.836 128.021 180.532 127.883 180.265 127.712C179.998 127.531 179.785 127.312 179.625 127.056C179.476 126.8 179.401 126.485 179.401 126.112C179.401 125.653 179.518 125.248 179.753 124.896C179.988 124.533 180.324 124.251 180.761 124.048C181.209 123.845 181.726 123.744 182.313 123.744C183.177 123.744 183.876 123.952 184.409 124.368C184.942 124.784 185.257 125.387 185.353 126.176H184.025C183.972 125.771 183.796 125.456 183.497 125.232C183.209 124.997 182.809 124.88 182.297 124.88C181.796 124.88 181.412 124.981 181.145 125.184C180.889 125.387 180.761 125.653 180.761 125.984C180.761 126.197 180.83 126.389 180.969 126.56C181.118 126.72 181.332 126.859 181.609 126.976C181.897 127.093 182.249 127.189 182.665 127.264C183.198 127.36 183.684 127.488 184.121 127.648C184.558 127.808 184.91 128.048 185.177 128.368C185.454 128.677 185.593 129.12 185.593 129.696C185.593 130.197 185.465 130.635 185.209 131.008C184.964 131.381 184.612 131.675 184.153 131.888C183.694 132.091 183.156 132.192 182.537 132.192ZM193.186 132L190.818 123.936H192.162L194.002 130.736H193.762L195.762 123.936H197.282L199.314 130.72L199.058 130.736L200.882 123.936H202.242L199.89 132H198.514L196.402 124.896H196.674L194.562 132H193.186ZM206.885 132.192C206.127 132.192 205.455 132.016 204.869 131.664C204.293 131.312 203.839 130.821 203.509 130.192C203.178 129.552 203.013 128.811 203.013 127.968C203.013 127.115 203.173 126.373 203.493 125.744C203.823 125.115 204.282 124.624 204.869 124.272C205.466 123.92 206.149 123.744 206.917 123.744C207.706 123.744 208.373 123.92 208.917 124.272C209.471 124.624 209.893 125.088 210.181 125.664C210.479 126.229 210.629 126.853 210.629 127.536C210.629 127.643 210.629 127.755 210.629 127.872C210.629 127.989 210.623 128.123 210.613 128.272H204.021V127.232H209.317C209.285 126.496 209.039 125.92 208.581 125.504C208.133 125.088 207.567 124.88 206.885 124.88C206.426 124.88 205.999 124.987 205.605 125.2C205.221 125.403 204.911 125.707 204.677 126.112C204.442 126.507 204.325 127.003 204.325 127.6V128.048C204.325 128.709 204.442 129.264 204.677 129.712C204.922 130.16 205.237 130.496 205.621 130.72C206.015 130.944 206.437 131.056 206.885 131.056C207.45 131.056 207.914 130.933 208.277 130.688C208.65 130.432 208.917 130.091 209.077 129.664H210.405C210.277 130.144 210.053 130.576 209.733 130.96C209.413 131.344 209.013 131.648 208.533 131.872C208.063 132.085 207.514 132.192 206.885 132.192ZM215.866 132.192C215.109 132.192 214.437 132.016 213.85 131.664C213.274 131.312 212.821 130.821 212.49 130.192C212.16 129.552 211.994 128.811 211.994 127.968C211.994 127.115 212.154 126.373 212.474 125.744C212.805 125.115 213.264 124.624 213.85 124.272C214.448 123.92 215.13 123.744 215.898 123.744C216.688 123.744 217.354 123.92 217.898 124.272C218.453 124.624 218.874 125.088 219.162 125.664C219.461 126.229 219.61 126.853 219.61 127.536C219.61 127.643 219.61 127.755 219.61 127.872C219.61 127.989 219.605 128.123 219.594 128.272H213.002V127.232H218.298C218.266 126.496 218.021 125.92 217.562 125.504C217.114 125.088 216.549 124.88 215.866 124.88C215.408 124.88 214.981 124.987 214.586 125.2C214.202 125.403 213.893 125.707 213.658 126.112C213.424 126.507 213.306 127.003 213.306 127.6V128.048C213.306 128.709 213.424 129.264 213.658 129.712C213.904 130.16 214.218 130.496 214.602 130.72C214.997 130.944 215.418 131.056 215.866 131.056C216.432 131.056 216.896 130.933 217.258 130.688C217.632 130.432 217.898 130.091 218.058 129.664H219.386C219.258 130.144 219.034 130.576 218.714 130.96C218.394 131.344 217.994 131.648 217.514 131.872C217.045 132.085 216.496 132.192 215.866 132.192ZM226.272 132L222.432 127.584L225.936 123.936H227.584L223.568 128.064L223.584 127.104L227.984 132H226.272ZM221.312 132V120.48H222.656V132H221.312Z" fill="white"/>
<path d="M88.3881 130.848V123.872H89.5881V130.848H88.3881ZM85.3321 127.92V126.784H92.6441V127.92H85.3321ZM97.361 133.392V119.344H98.465V133.392H97.361ZM98.049 132.192C97.2277 132.192 96.513 132.043 95.905 131.744C95.297 131.445 94.8277 131.029 94.497 130.496C94.1663 129.963 94.001 129.344 94.001 128.64H95.409C95.409 129.077 95.5103 129.483 95.713 129.856C95.9157 130.219 96.209 130.512 96.593 130.736C96.9877 130.949 97.473 131.056 98.049 131.056C98.5503 131.056 98.977 130.976 99.329 130.816C99.6917 130.645 99.9637 130.416 100.145 130.128C100.337 129.84 100.433 129.515 100.433 129.152C100.433 128.715 100.337 128.363 100.145 128.096C99.9637 127.819 99.713 127.595 99.393 127.424C99.073 127.253 98.6997 127.104 98.273 126.976C97.857 126.837 97.4197 126.693 96.961 126.544C96.0757 126.245 95.425 125.872 95.009 125.424C94.593 124.976 94.385 124.395 94.385 123.68C94.385 123.072 94.5237 122.539 94.801 122.08C95.089 121.621 95.4943 121.264 96.017 121.008C96.5503 120.741 97.1797 120.608 97.905 120.608C98.6197 120.608 99.2383 120.741 99.761 121.008C100.294 121.275 100.71 121.643 101.009 122.112C101.308 122.571 101.457 123.104 101.457 123.712H100.049C100.049 123.403 99.969 123.099 99.809 122.8C99.649 122.501 99.4037 122.256 99.073 122.064C98.753 121.861 98.3477 121.76 97.857 121.76C97.4517 121.749 97.089 121.819 96.769 121.968C96.4597 122.107 96.2143 122.309 96.033 122.576C95.8623 122.843 95.777 123.168 95.777 123.552C95.777 123.915 95.8517 124.208 96.001 124.432C96.161 124.656 96.385 124.848 96.673 125.008C96.9717 125.157 97.3183 125.296 97.713 125.424C98.1077 125.552 98.545 125.696 99.025 125.856C99.569 126.037 100.049 126.261 100.465 126.528C100.892 126.784 101.222 127.115 101.457 127.52C101.702 127.925 101.825 128.443 101.825 129.072C101.825 129.605 101.681 130.112 101.393 130.592C101.116 131.061 100.7 131.445 100.145 131.744C99.5903 132.043 98.8917 132.192 98.049 132.192ZM108.722 132V129.6H103.042V128.56L108.482 120.8H110.05V128.416H111.714V129.6H110.05V132H108.722ZM104.53 128.416H108.786V122.288L104.53 128.416ZM113.081 132V131.056C113.838 130.459 114.558 129.856 115.241 129.248C115.934 128.64 116.548 128.037 117.081 127.44C117.614 126.832 118.03 126.24 118.329 125.664C118.638 125.088 118.793 124.533 118.793 124C118.793 123.605 118.724 123.243 118.585 122.912C118.446 122.571 118.222 122.293 117.913 122.08C117.614 121.867 117.209 121.76 116.697 121.76C116.196 121.76 115.78 121.872 115.449 122.096C115.118 122.309 114.868 122.597 114.697 122.96C114.537 123.312 114.457 123.701 114.457 124.128H113.161C113.172 123.392 113.326 122.763 113.625 122.24C113.934 121.707 114.356 121.301 114.889 121.024C115.422 120.747 116.03 120.608 116.713 120.608C117.385 120.608 117.977 120.736 118.489 120.992C119.001 121.237 119.401 121.605 119.689 122.096C119.988 122.587 120.137 123.205 120.137 123.952C120.137 124.475 120.025 124.997 119.801 125.52C119.588 126.043 119.3 126.555 118.937 127.056C118.574 127.547 118.169 128.021 117.721 128.48C117.284 128.939 116.83 129.371 116.361 129.776C115.902 130.181 115.47 130.549 115.065 130.88H120.521V132H113.081ZM126.496 132.192C125.514 132.192 124.666 131.952 123.951 131.472C123.247 130.981 122.709 130.304 122.335 129.44C121.962 128.565 121.775 127.552 121.775 126.4C121.775 125.248 121.962 124.24 122.335 123.376C122.709 122.501 123.247 121.824 123.951 121.344C124.666 120.853 125.514 120.608 126.496 120.608C127.477 120.608 128.314 120.853 129.007 121.344C129.712 121.824 130.25 122.501 130.623 123.376C130.997 124.24 131.184 125.248 131.184 126.4C131.184 127.552 130.997 128.565 130.623 129.44C130.25 130.304 129.712 130.981 129.007 131.472C128.314 131.952 127.477 132.192 126.496 132.192ZM126.479 131.008C127.119 131.008 127.69 130.827 128.192 130.464C128.693 130.091 129.087 129.563 129.375 128.88C129.663 128.187 129.807 127.36 129.807 126.4C129.807 125.44 129.663 124.619 129.375 123.936C129.087 123.243 128.693 122.715 128.192 122.352C127.69 121.989 127.119 121.808 126.479 121.808C125.839 121.808 125.263 121.989 124.751 122.352C124.25 122.715 123.855 123.243 123.567 123.936C123.29 124.619 123.151 125.44 123.151 126.4C123.151 127.36 123.29 128.187 123.567 128.88C123.855 129.563 124.25 130.091 124.751 130.464C125.263 130.827 125.839 131.008 126.479 131.008ZM132.792 132.08C132.526 132.08 132.302 131.995 132.12 131.824C131.95 131.643 131.864 131.424 131.864 131.168C131.864 130.912 131.95 130.699 132.12 130.528C132.302 130.347 132.526 130.256 132.792 130.256C133.059 130.256 133.278 130.347 133.448 130.528C133.619 130.699 133.704 130.912 133.704 131.168C133.704 131.424 133.619 131.643 133.448 131.824C133.278 131.995 133.059 132.08 132.792 132.08ZM139.1 132.192C138.118 132.192 137.27 131.952 136.556 131.472C135.852 130.981 135.313 130.304 134.94 129.44C134.566 128.565 134.38 127.552 134.38 126.4C134.38 125.248 134.566 124.24 134.94 123.376C135.313 122.501 135.852 121.824 136.556 121.344C137.27 120.853 138.118 120.608 139.1 120.608C140.081 120.608 140.918 120.853 141.612 121.344C142.316 121.824 142.854 122.501 143.228 123.376C143.601 124.24 143.788 125.248 143.788 126.4C143.788 127.552 143.601 128.565 143.228 129.44C142.854 130.304 142.316 130.981 141.612 131.472C140.918 131.952 140.081 132.192 139.1 132.192ZM139.084 131.008C139.724 131.008 140.294 130.827 140.796 130.464C141.297 130.091 141.692 129.563 141.98 128.88C142.268 128.187 142.412 127.36 142.412 126.4C142.412 125.44 142.268 124.619 141.98 123.936C141.692 123.243 141.297 122.715 140.796 122.352C140.294 121.989 139.724 121.808 139.084 121.808C138.444 121.808 137.868 121.989 137.356 122.352C136.854 122.715 136.46 123.243 136.172 123.936C135.894 124.619 135.756 125.44 135.756 126.4C135.756 127.36 135.894 128.187 136.172 128.88C136.46 129.563 136.854 130.091 137.356 130.464C137.868 130.827 138.444 131.008 139.084 131.008ZM149.925 132.192C148.944 132.192 148.096 131.952 147.381 131.472C146.677 130.981 146.138 130.304 145.765 129.44C145.392 128.565 145.205 127.552 145.205 126.4C145.205 125.248 145.392 124.24 145.765 123.376C146.138 122.501 146.677 121.824 147.381 121.344C148.096 120.853 148.944 120.608 149.925 120.608C150.906 120.608 151.744 120.853 152.437 121.344C153.141 121.824 153.68 122.501 154.053 123.376C154.426 124.24 154.613 125.248 154.613 126.4C154.613 127.552 154.426 128.565 154.053 129.44C153.68 130.304 153.141 130.981 152.437 131.472C151.744 131.952 150.906 132.192 149.925 132.192ZM149.909 131.008C150.549 131.008 151.12 130.827 151.621 130.464C152.122 130.091 152.517 129.563 152.805 128.88C153.093 128.187 153.237 127.36 153.237 126.4C153.237 125.44 153.093 124.619 152.805 123.936C152.517 123.243 152.122 122.715 151.621 122.352C151.12 121.989 150.549 121.808 149.909 121.808C149.269 121.808 148.693 121.989 148.181 122.352C147.68 122.715 147.285 123.243 146.997 123.936C146.72 124.619 146.581 125.44 146.581 126.4C146.581 127.36 146.72 128.187 146.997 128.88C147.285 129.563 147.68 130.091 148.181 130.464C148.693 130.827 149.269 131.008 149.909 131.008Z" fill="#F46D6B"/>
<path d="M3.36 174L6.456 165.6H7.524L10.608 174H9.54L6.984 166.86L4.416 174H3.36ZM4.776 171.84L5.064 171.024H8.868L9.156 171.84H4.776ZM11.7247 174V165.36H12.7328V174H11.7247ZM14.3126 174V165.36H15.3206V174H14.3126ZM19.524 174L22.62 165.6H23.688L26.772 174H25.704L23.148 166.86L20.58 174H19.524ZM20.94 171.84L21.228 171.024H25.032L25.32 171.84H20.94ZM30.1688 174.144C29.6648 174.144 29.2248 174.06 28.8487 173.892C28.4807 173.724 28.1847 173.492 27.9607 173.196C27.7447 172.892 27.6127 172.536 27.5647 172.128H28.5968C28.6367 172.336 28.7207 172.528 28.8487 172.704C28.9768 172.88 29.1488 173.024 29.3647 173.136C29.5888 173.24 29.8608 173.292 30.1808 173.292C30.4607 173.292 30.6927 173.252 30.8767 173.172C31.0608 173.084 31.1968 172.968 31.2848 172.824C31.3808 172.68 31.4288 172.524 31.4288 172.356C31.4288 172.108 31.3688 171.92 31.2488 171.792C31.1368 171.664 30.9688 171.564 30.7448 171.492C30.5208 171.412 30.2487 171.344 29.9288 171.288C29.6648 171.24 29.4048 171.176 29.1488 171.096C28.8928 171.016 28.6648 170.912 28.4648 170.784C28.2647 170.648 28.1047 170.484 27.9847 170.292C27.8727 170.1 27.8167 169.864 27.8167 169.584C27.8167 169.24 27.9047 168.936 28.0807 168.672C28.2567 168.4 28.5087 168.188 28.8367 168.036C29.1728 167.884 29.5608 167.808 30.0008 167.808C30.6488 167.808 31.1728 167.964 31.5727 168.276C31.9728 168.588 32.2088 169.04 32.2808 169.632H31.2848C31.2448 169.328 31.1128 169.092 30.8888 168.924C30.6728 168.748 30.3728 168.66 29.9887 168.66C29.6128 168.66 29.3248 168.736 29.1248 168.888C28.9327 169.04 28.8367 169.24 28.8367 169.488C28.8367 169.648 28.8887 169.792 28.9927 169.92C29.1048 170.04 29.2648 170.144 29.4728 170.232C29.6888 170.32 29.9528 170.392 30.2648 170.448C30.6648 170.52 31.0288 170.616 31.3568 170.736C31.6848 170.856 31.9488 171.036 32.1488 171.276C32.3568 171.508 32.4608 171.84 32.4608 172.272C32.4608 172.648 32.3648 172.976 32.1728 173.256C31.9888 173.536 31.7248 173.756 31.3808 173.916C31.0368 174.068 30.6328 174.144 30.1688 174.144ZM36.1082 174.144C35.6042 174.144 35.1642 174.06 34.7882 173.892C34.4202 173.724 34.1242 173.492 33.9002 173.196C33.6842 172.892 33.5522 172.536 33.5042 172.128H34.5362C34.5762 172.336 34.6602 172.528 34.7882 172.704C34.9162 172.88 35.0882 173.024 35.3042 173.136C35.5282 173.24 35.8002 173.292 36.1202 173.292C36.4002 173.292 36.6322 173.252 36.8162 173.172C37.0002 173.084 37.1362 172.968 37.2242 172.824C37.3202 172.68 37.3682 172.524 37.3682 172.356C37.3682 172.108 37.3082 171.92 37.1882 171.792C37.0762 171.664 36.9082 171.564 36.6842 171.492C36.4602 171.412 36.1882 171.344 35.8682 171.288C35.6042 171.24 35.3442 171.176 35.0882 171.096C34.8322 171.016 34.6042 170.912 34.4042 170.784C34.2042 170.648 34.0442 170.484 33.9242 170.292C33.8122 170.1 33.7562 169.864 33.7562 169.584C33.7562 169.24 33.8442 168.936 34.0202 168.672C34.1962 168.4 34.4482 168.188 34.7762 168.036C35.1122 167.884 35.5002 167.808 35.9402 167.808C36.5882 167.808 37.1122 167.964 37.5122 168.276C37.9122 168.588 38.1482 169.04 38.2202 169.632H37.2242C37.1842 169.328 37.0522 169.092 36.8282 168.924C36.6122 168.748 36.3122 168.66 35.9282 168.66C35.5522 168.66 35.2642 168.736 35.0642 168.888C34.8722 169.04 34.7762 169.24 34.7762 169.488C34.7762 169.648 34.8282 169.792 34.9322 169.92C35.0442 170.04 35.2042 170.144 35.4122 170.232C35.6282 170.32 35.8922 170.392 36.2042 170.448C36.6042 170.52 36.9682 170.616 37.2962 170.736C37.6242 170.856 37.8882 171.036 38.0882 171.276C38.2962 171.508 38.4002 171.84 38.4002 172.272C38.4002 172.648 38.3042 172.976 38.1122 173.256C37.9282 173.536 37.6642 173.756 37.3202 173.916C36.9762 174.068 36.5722 174.144 36.1082 174.144ZM42.4196 174.144C41.8516 174.144 41.3476 174.012 40.9076 173.748C40.4756 173.484 40.1356 173.116 39.8876 172.644C39.6396 172.164 39.5156 171.608 39.5156 170.976C39.5156 170.336 39.6356 169.78 39.8756 169.308C40.1236 168.836 40.4676 168.468 40.9076 168.204C41.3556 167.94 41.8676 167.808 42.4436 167.808C43.0356 167.808 43.5356 167.94 43.9436 168.204C44.3596 168.468 44.6756 168.816 44.8916 169.248C45.1156 169.672 45.2276 170.14 45.2276 170.652C45.2276 170.732 45.2276 170.816 45.2276 170.904C45.2276 170.992 45.2236 171.092 45.2156 171.204H40.2716V170.424H44.2436C44.2196 169.872 44.0356 169.44 43.6916 169.128C43.3556 168.816 42.9316 168.66 42.4196 168.66C42.0756 168.66 41.7556 168.74 41.4596 168.9C41.1716 169.052 40.9396 169.28 40.7636 169.584C40.5876 169.88 40.4996 170.252 40.4996 170.7V171.036C40.4996 171.532 40.5876 171.948 40.7636 172.284C40.9476 172.62 41.1836 172.872 41.4716 173.04C41.7676 173.208 42.0836 173.292 42.4196 173.292C42.8436 173.292 43.1916 173.2 43.4636 173.016C43.7436 172.824 43.9436 172.568 44.0636 172.248H45.0596C44.9636 172.608 44.7956 172.932 44.5556 173.22C44.3156 173.508 44.0156 173.736 43.6556 173.904C43.3036 174.064 42.8916 174.144 42.4196 174.144ZM48.6807 174C48.3207 174 48.0087 173.944 47.7447 173.832C47.4807 173.72 47.2767 173.532 47.1327 173.268C46.9967 172.996 46.9287 172.632 46.9287 172.176V168.804H45.8727V167.952H46.9287L47.0607 166.488H47.9367V167.952H49.6887V168.804H47.9367V172.176C47.9367 172.552 48.0127 172.808 48.1647 172.944C48.3167 173.072 48.5847 173.136 48.9687 173.136H49.6167V174H48.6807ZM53.1999 174.144C52.6959 174.144 52.2559 174.06 51.8799 173.892C51.5119 173.724 51.2159 173.492 50.9919 173.196C50.7759 172.892 50.6439 172.536 50.5959 172.128H51.6279C51.6679 172.336 51.7519 172.528 51.8799 172.704C52.0079 172.88 52.1799 173.024 52.3959 173.136C52.6199 173.24 52.8919 173.292 53.2119 173.292C53.4919 173.292 53.7239 173.252 53.9079 173.172C54.0919 173.084 54.2279 172.968 54.3159 172.824C54.4119 172.68 54.4599 172.524 54.4599 172.356C54.4599 172.108 54.3999 171.92 54.2799 171.792C54.1679 171.664 53.9999 171.564 53.7759 171.492C53.5519 171.412 53.2799 171.344 52.9599 171.288C52.6959 171.24 52.4359 171.176 52.1799 171.096C51.9239 171.016 51.6959 170.912 51.4959 170.784C51.2959 170.648 51.1359 170.484 51.0159 170.292C50.9039 170.1 50.8479 169.864 50.8479 169.584C50.8479 169.24 50.9359 168.936 51.1119 168.672C51.2879 168.4 51.5399 168.188 51.8679 168.036C52.2039 167.884 52.5919 167.808 53.0319 167.808C53.6799 167.808 54.2039 167.964 54.6039 168.276C55.0039 168.588 55.2399 169.04 55.3119 169.632H54.3159C54.2759 169.328 54.1439 169.092 53.9199 168.924C53.7039 168.748 53.4039 168.66 53.0199 168.66C52.6439 168.66 52.3559 168.736 52.1559 168.888C51.9639 169.04 51.8679 169.24 51.8679 169.488C51.8679 169.648 51.9199 169.792 52.0239 169.92C52.1359 170.04 52.2959 170.144 52.5039 170.232C52.7199 170.32 52.9839 170.392 53.2959 170.448C53.6959 170.52 54.0599 170.616 54.3879 170.736C54.7159 170.856 54.9799 171.036 55.1799 171.276C55.3879 171.508 55.4919 171.84 55.4919 172.272C55.4919 172.648 55.3959 172.976 55.2039 173.256C55.0199 173.536 54.7559 173.756 54.4119 173.916C54.0679 174.068 53.6639 174.144 53.1999 174.144Z" fill="white"/>
<path d="M81.876 174V165.6H84.456C85.432 165.6 86.24 165.772 86.88 166.116C87.52 166.46 87.992 166.948 88.296 167.58C88.608 168.204 88.764 168.948 88.764 169.812C88.764 170.676 88.608 171.42 88.296 172.044C87.992 172.668 87.52 173.152 86.88 173.496C86.248 173.832 85.44 174 84.456 174H81.876ZM83.076 172.992H84.408C85.184 172.992 85.8 172.864 86.256 172.608C86.712 172.352 87.036 171.988 87.228 171.516C87.428 171.036 87.528 170.468 87.528 169.812C87.528 169.148 87.428 168.576 87.228 168.096C87.036 167.616 86.712 167.248 86.256 166.992C85.8 166.736 85.184 166.608 84.408 166.608H83.076V172.992ZM92.068 174.144C91.572 174.144 91.16 174.06 90.832 173.892C90.504 173.724 90.26 173.5 90.1 173.22C89.94 172.932 89.86 172.624 89.86 172.296C89.86 171.896 89.964 171.556 90.172 171.276C90.38 170.988 90.676 170.768 91.06 170.616C91.444 170.464 91.904 170.388 92.44 170.388H94.012C94.012 170.036 93.96 169.744 93.856 169.512C93.752 169.28 93.596 169.108 93.388 168.996C93.188 168.876 92.932 168.816 92.62 168.816C92.26 168.816 91.952 168.904 91.696 169.08C91.44 169.248 91.28 169.5 91.216 169.836H90.016C90.064 169.412 90.208 169.052 90.448 168.756C90.696 168.452 91.012 168.22 91.396 168.06C91.78 167.892 92.188 167.808 92.62 167.808C93.188 167.808 93.664 167.908 94.048 168.108C94.432 168.308 94.72 168.592 94.912 168.96C95.112 169.32 95.212 169.752 95.212 170.256V174H94.168L94.072 172.98C93.984 173.14 93.88 173.292 93.76 173.436C93.64 173.58 93.496 173.704 93.328 173.808C93.168 173.912 92.98 173.992 92.764 174.048C92.556 174.112 92.324 174.144 92.068 174.144ZM92.296 173.172C92.552 173.172 92.784 173.12 92.992 173.016C93.2 172.912 93.376 172.772 93.52 172.596C93.672 172.412 93.784 172.208 93.856 171.984C93.936 171.752 93.98 171.516 93.988 171.276V171.24H92.56C92.216 171.24 91.936 171.284 91.72 171.372C91.512 171.452 91.36 171.564 91.264 171.708C91.168 171.852 91.12 172.02 91.12 172.212C91.12 172.412 91.164 172.584 91.252 172.728C91.348 172.864 91.484 172.972 91.66 173.052C91.836 173.132 92.048 173.172 92.296 173.172ZM99.0268 174C98.6428 174 98.3108 173.94 98.0308 173.82C97.7508 173.7 97.5348 173.5 97.3828 173.22C97.2308 172.94 97.1548 172.56 97.1548 172.08V168.972H96.1108V167.952H97.1548L97.2988 166.44H98.3548V167.952H100.071V168.972H98.3548V172.092C98.3548 172.436 98.4268 172.672 98.5708 172.8C98.7148 172.92 98.9628 172.98 99.3148 172.98H100.011V174H99.0268ZM103.314 174.144C102.818 174.144 102.406 174.06 102.078 173.892C101.75 173.724 101.506 173.5 101.346 173.22C101.186 172.932 101.106 172.624 101.106 172.296C101.106 171.896 101.21 171.556 101.418 171.276C101.626 170.988 101.922 170.768 102.306 170.616C102.69 170.464 103.15 170.388 103.686 170.388H105.258C105.258 170.036 105.206 169.744 105.102 169.512C104.998 169.28 104.842 169.108 104.634 168.996C104.434 168.876 104.178 168.816 103.866 168.816C103.506 168.816 103.198 168.904 102.942 169.08C102.686 169.248 102.526 169.5 102.462 169.836H101.262C101.31 169.412 101.454 169.052 101.694 168.756C101.942 168.452 102.258 168.22 102.642 168.06C103.026 167.892 103.434 167.808 103.866 167.808C104.434 167.808 104.91 167.908 105.294 168.108C105.678 168.308 105.966 168.592 106.158 168.96C106.358 169.32 106.458 169.752 106.458 170.256V174H105.414L105.318 172.98C105.23 173.14 105.126 173.292 105.006 173.436C104.886 173.58 104.742 173.704 104.574 173.808C104.414 173.912 104.226 173.992 104.01 174.048C103.802 174.112 103.57 174.144 103.314 174.144ZM103.542 173.172C103.798 173.172 104.03 173.12 104.238 173.016C104.446 172.912 104.622 172.772 104.766 172.596C104.918 172.412 105.03 172.208 105.102 171.984C105.182 171.752 105.226 171.516 105.234 171.276V171.24H103.806C103.462 171.24 103.182 171.284 102.966 171.372C102.758 171.452 102.606 171.564 102.51 171.708C102.414 171.852 102.366 172.02 102.366 172.212C102.366 172.412 102.41 172.584 102.498 172.728C102.594 172.864 102.73 172.972 102.906 173.052C103.082 173.132 103.294 173.172 103.542 173.172Z" fill="white"/>
<path d="M2.89453 20H0.09375L6.375 2.53906L9.42188 2.53906L15.6914 20H12.9023L7.95703 5.71484H7.81641L2.89453 20ZM3.36328 13.168H12.4219V15.3711H3.36328V13.168ZM17.4197 20V2.53906L23.6541 2.53906C25.0056 2.53906 26.1267 2.78906 27.0173 3.28906C27.908 3.78125 28.5759 4.45703 29.0212 5.31641C29.4666 6.16797 29.6892 7.12891 29.6892 8.19922C29.6892 9.26953 29.4666 10.2344 29.0212 11.0938C28.5759 11.9453 27.9041 12.6211 27.0056 13.1211C26.115 13.6133 24.99 13.8594 23.6306 13.8594H19.365V11.6328H23.3845C24.2517 11.6328 24.9509 11.4844 25.4822 11.1875C26.0212 10.8906 26.4119 10.4844 26.6541 9.96875C26.9041 9.44531 27.0291 8.85547 27.0291 8.19922C27.0291 7.53516 26.9041 6.94922 26.6541 6.44141C26.4119 5.92578 26.0212 5.52344 25.4822 5.23438C24.9431 4.94531 24.24 4.80078 23.3728 4.80078H20.0564V20H17.4197ZM34.6167 2.53906V20H31.98V2.53906H34.6167ZM43.0772 20V6.89844H45.6084V20H43.0772ZM44.3545 4.88281C43.9092 4.88281 43.5303 4.73438 43.2178 4.4375C42.9053 4.14063 42.7491 3.78516 42.7491 3.37109C42.7491 2.94922 42.9053 2.58984 43.2178 2.29297C43.5303 1.99609 43.9092 1.84766 44.3545 1.84766C44.792 1.84766 45.167 1.99609 45.4795 2.29297C45.7998 2.58984 45.96 2.94922 45.96 3.37109C45.96 3.78516 45.7998 4.14063 45.4795 4.4375C45.167 4.73438 44.792 4.88281 44.3545 4.88281ZM50.8172 12.2305V20H48.2859V6.89844H50.7469V9.05469H50.9227C51.2195 8.34375 51.6844 7.78125 52.3172 7.36719C52.95 6.94531 53.7625 6.73438 54.7547 6.73438C55.6453 6.73438 56.4227 6.92188 57.0867 7.29688C57.7586 7.66406 58.2781 8.21484 58.6453 8.94922C59.0203 9.68359 59.2078 10.5938 59.2078 11.6797V20H56.6766V11.9844C56.6766 11.0391 56.4266 10.2969 55.9266 9.75781C55.4266 9.21094 54.7469 8.9375 53.8875 8.9375C53.3016 8.9375 52.7742 9.07031 52.3055 9.33594C51.8445 9.59375 51.4813 9.96484 51.2156 10.4492C50.95 10.9336 50.8172 11.5273 50.8172 12.2305ZM67.9791 6.89844V8.94922H60.8306V6.89844H67.9791ZM62.7408 3.78125H65.2837V16.1562C65.2837 16.7578 65.4087 17.1992 65.6587 17.4805C65.9087 17.7539 66.3111 17.8906 66.8658 17.8906C66.9986 17.8906 67.1392 17.8828 67.2877 17.8672C67.4439 17.8516 67.6002 17.8281 67.7564 17.7969L68.2369 19.9063C67.9791 19.9922 67.6978 20.0586 67.3931 20.1055C67.0884 20.1523 66.7837 20.1758 66.4791 20.1758C65.3462 20.1758 64.44 19.8594 63.7603 19.2266C63.0806 18.5859 62.7408 17.7344 62.7408 16.6719V3.78125ZM75.5433 20.2695C74.262 20.2695 73.1527 19.9922 72.2152 19.4375C71.2777 18.8828 70.555 18.1016 70.0472 17.0938C69.5472 16.0781 69.2972 14.8945 69.2972 13.543C69.2972 12.1992 69.5433 11.0156 70.0355 9.99219C70.5355 8.96875 71.2347 8.17188 72.1331 7.60156C73.0394 7.02344 74.1019 6.73438 75.3206 6.73438C76.0628 6.73438 76.7816 6.85547 77.4769 7.09766C78.1722 7.33984 78.7972 7.72266 79.3519 8.24609C79.9066 8.76953 80.3441 9.44922 80.6644 10.2852C80.9925 11.1211 81.1566 12.1289 81.1566 13.3086V14.2227H70.7386V12.3125H79.8441L78.6605 12.9453C78.6605 12.1406 78.5355 11.4297 78.2855 10.8125C78.0355 10.1953 77.6605 9.71484 77.1605 9.37109C76.6683 9.01953 76.055 8.84375 75.3206 8.84375C74.5863 8.84375 73.9573 9.01953 73.4339 9.37109C72.9183 9.72266 72.5238 10.1875 72.2503 10.7656C71.9769 11.3438 71.8402 11.9766 71.8402 12.6641V13.9648C71.8402 14.8633 71.9964 15.625 72.3089 16.25C72.6214 16.875 73.055 17.3516 73.6097 17.6797C74.1722 18.0078 74.8245 18.1719 75.5667 18.1719C76.0511 18.1719 76.4886 18.1016 76.8792 17.9609C77.2777 17.8203 77.6214 17.6094 77.9105 17.3281C78.1995 17.0469 78.4183 16.6992 78.5667 16.2852L80.9808 16.7422C80.7855 17.4453 80.4417 18.0625 79.9495 18.5938C79.4573 19.125 78.8363 19.5391 78.0863 19.8359C77.3441 20.125 76.4964 20.2695 75.5433 20.2695ZM88.6387 25.1797C87.0762 25.1797 85.8458 24.8867 84.9473 24.3008C84.0489 23.7148 83.4278 23.0195 83.0841 22.2148L85.2637 21.3125C85.42 21.5625 85.627 21.8281 85.8848 22.1094C86.1505 22.3906 86.5059 22.6289 86.9512 22.8242C87.3966 23.0195 87.9708 23.1172 88.6739 23.1172C89.6348 23.1172 90.4317 22.8828 91.0645 22.4141C91.6973 21.9531 92.0137 21.2109 92.0137 20.1875V17.6211H91.838C91.6973 17.8945 91.4825 18.2031 91.1934 18.5469C90.9044 18.8828 90.5098 19.1758 90.0098 19.4258C89.5098 19.6758 88.8575 19.8008 88.0528 19.8008C87.0216 19.8008 86.0919 19.5586 85.2637 19.0742C84.4434 18.582 83.7872 17.8633 83.295 16.918C82.8106 15.9648 82.5684 14.793 82.5684 13.4023C82.5684 12.0117 82.8067 10.8203 83.2833 9.82813C83.7677 8.82813 84.4239 8.0625 85.252 7.53125C86.0802 7 87.0216 6.73438 88.0762 6.73438C88.8887 6.73438 89.545 6.87109 90.045 7.14453C90.5528 7.41016 90.9473 7.72266 91.2286 8.08203C91.5098 8.44141 91.7286 8.75781 91.8848 9.03125H92.0723V6.89844H94.545V20.293C94.545 21.418 94.2833 22.3398 93.7598 23.0586C93.2442 23.7773 92.5411 24.3086 91.6505 24.6523C90.7598 25.0039 89.7559 25.1797 88.6387 25.1797ZM88.6153 17.6797C89.7169 17.6797 90.5606 17.3008 91.1466 16.543C91.7403 15.7773 92.0372 14.7188 92.0372 13.3672C92.0372 12.4844 91.9083 11.7109 91.6505 11.0469C91.3927 10.375 91.0098 9.85156 90.502 9.47656C89.9942 9.09375 89.3653 8.90234 88.6153 8.90234C87.8497 8.90234 87.2091 9.10156 86.6934 9.5C86.1856 9.89063 85.8028 10.4258 85.545 11.1055C85.2872 11.7773 85.1583 12.5313 85.1583 13.3672C85.1583 14.2188 85.2872 14.9727 85.545 15.6289C85.8028 16.2773 86.1895 16.7812 86.7052 17.1406C87.2286 17.5 87.8653 17.6797 88.6153 17.6797ZM97.2225 20V6.89844H99.6717V8.99609H99.8123C100.055 8.29297 100.476 7.73828 101.078 7.33203C101.687 6.91797 102.375 6.71094 103.14 6.71094C103.297 6.71094 103.48 6.71875 103.691 6.73438C103.91 6.74219 104.086 6.75391 104.219 6.76953V9.20703C104.117 9.17578 103.933 9.14453 103.668 9.11328C103.41 9.08203 103.148 9.06641 102.883 9.06641C102.281 9.06641 101.742 9.19531 101.265 9.45313C100.797 9.70313 100.426 10.0508 100.152 10.4961C99.8866 10.9336 99.7538 11.4414 99.7538 12.0195V20H97.2225ZM109.369 20.2813C108.541 20.2813 107.791 20.1289 107.119 19.8242C106.447 19.5117 105.916 19.0586 105.525 18.4648C105.134 17.8711 104.939 17.1484 104.939 16.2969C104.939 15.5547 105.08 14.9492 105.361 14.4805C105.65 14.0039 106.037 13.625 106.521 13.3438C107.005 13.0625 107.545 12.8516 108.138 12.7109C108.732 12.5703 109.341 12.4609 109.966 12.3828C110.755 12.2969 111.392 12.2227 111.877 12.1602C112.361 12.0977 112.713 12 112.931 11.8672C113.158 11.7266 113.271 11.5039 113.271 11.1992V11.1406C113.271 10.3984 113.06 9.82422 112.638 9.41797C112.224 9.01172 111.607 8.80859 110.787 8.80859C109.935 8.80859 109.259 8.99609 108.759 9.37109C108.267 9.73828 107.927 10.1563 107.74 10.625L105.338 10.0742C105.627 9.27734 106.045 8.63672 106.591 8.15234C107.146 7.66016 107.779 7.30078 108.49 7.07422C109.209 6.84766 109.959 6.73438 110.74 6.73438C111.263 6.73438 111.818 6.79688 112.404 6.92188C112.99 7.03906 113.541 7.26172 114.056 7.58984C114.58 7.91016 115.005 8.37109 115.334 8.97266C115.662 9.57422 115.826 10.3516 115.826 11.3047V20H113.33V18.207H113.236C113.08 18.5273 112.834 18.8477 112.498 19.168C112.17 19.4883 111.748 19.7539 111.232 19.9648C110.716 20.1758 110.095 20.2813 109.369 20.2813ZM109.92 18.2422C110.63 18.2422 111.236 18.1055 111.736 17.832C112.236 17.5508 112.619 17.1836 112.884 16.7305C113.15 16.2773 113.283 15.7969 113.283 15.2891V13.5898C113.189 13.6758 113.013 13.7578 112.755 13.8359C112.498 13.9141 112.205 13.9805 111.877 14.0352C111.548 14.0898 111.228 14.1406 110.916 14.1875C110.603 14.2266 110.341 14.2578 110.13 14.2813C109.638 14.3516 109.189 14.4609 108.783 14.6094C108.377 14.75 108.048 14.9609 107.798 15.2422C107.556 15.5156 107.435 15.8789 107.435 16.332C107.435 16.9648 107.67 17.4414 108.138 17.7617C108.607 18.082 109.201 18.2422 109.92 18.2422ZM124.609 6.89844V8.94922H117.46V6.89844H124.609ZM119.37 3.78125H121.913V16.1563C121.913 16.7578 122.038 17.1992 122.288 17.4805C122.538 17.7539 122.941 17.8906 123.495 17.8906C123.628 17.8906 123.769 17.8828 123.917 17.8672C124.074 17.8516 124.23 17.8281 124.386 17.7969L124.867 19.9063C124.609 19.9922 124.327 20.0586 124.023 20.1055C123.718 20.1523 123.413 20.1758 123.109 20.1758C121.976 20.1758 121.07 19.8594 120.39 19.2266C119.71 18.5859 119.37 17.7344 119.37 16.6719V3.78125ZM126.677 20V6.89844H129.208V20H126.677ZM127.954 4.88281C127.509 4.88281 127.13 4.73438 126.817 4.4375C126.505 4.14063 126.349 3.78516 126.349 3.37109C126.349 2.94922 126.505 2.58984 126.817 2.29297C127.13 1.99609 127.509 1.84766 127.954 1.84766C128.392 1.84766 128.767 1.99609 129.079 2.29297C129.4 2.58984 129.56 2.94922 129.56 3.37109C129.56 3.78516 129.4 4.14063 129.079 4.4375C128.767 4.73438 128.392 4.88281 127.954 4.88281ZM137.382 20.2695C136.155 20.2695 135.081 19.9883 134.159 19.4258C133.245 18.8633 132.534 18.0742 132.026 17.0586C131.526 16.043 131.276 14.8633 131.276 13.5195C131.276 12.1602 131.526 10.9727 132.026 9.95703C132.534 8.93359 133.245 8.14063 134.159 7.57813C135.081 7.01563 136.155 6.73438 137.382 6.73438C138.616 6.73438 139.69 7.01563 140.604 7.57813C141.518 8.14063 142.229 8.93359 142.737 9.95703C143.245 10.9727 143.499 12.1602 143.499 13.5195C143.499 14.8633 143.245 16.043 142.737 17.0586C142.229 18.0742 141.518 18.8633 140.604 19.4258C139.69 19.9883 138.616 20.2695 137.382 20.2695ZM137.382 18.125C138.186 18.125 138.85 17.9141 139.374 17.4922C139.897 17.0703 140.284 16.5117 140.534 15.8164C140.792 15.1133 140.921 14.3477 140.921 13.5195C140.921 12.6758 140.792 11.9023 140.534 11.1992C140.284 10.4961 139.897 9.93359 139.374 9.51172C138.85 9.08984 138.186 8.87891 137.382 8.87891C136.585 8.87891 135.925 9.08984 135.401 9.51172C134.886 9.93359 134.499 10.4961 134.241 11.1992C133.983 11.9023 133.854 12.6758 133.854 13.5195C133.854 14.3477 133.983 15.1133 134.241 15.8164C134.499 16.5117 134.886 17.0703 135.401 17.4922C135.925 17.9141 136.585 18.125 137.382 18.125ZM148.11 12.2305V20H145.579V6.89844H148.04V9.05469H148.215C148.512 8.34375 148.977 7.78125 149.61 7.36719C150.243 6.94531 151.055 6.73438 152.048 6.73438C152.938 6.73438 153.715 6.92188 154.38 7.29688C155.051 7.66406 155.571 8.21484 155.938 8.94922C156.313 9.68359 156.501 10.5938 156.501 11.6797V20H153.969V11.9844C153.969 11.0391 153.719 10.2969 153.219 9.75781C152.719 9.21094 152.04 8.9375 151.18 8.9375C150.594 8.9375 150.067 9.07031 149.598 9.33594C149.137 9.59375 148.774 9.96484 148.508 10.4492C148.243 10.9336 148.11 11.5273 148.11 12.2305Z" fill="white"/>
<rect x="382" width="71" height="29" rx="14.5" fill="url(#paint0_linear_2016_43078)"/>
<path d="M393.826 19V17.992C394.479 17.488 395.1 16.9793 395.688 16.466C396.276 15.9527 396.799 15.444 397.256 14.94C397.723 14.4267 398.087 13.9273 398.348 13.442C398.609 12.9473 398.74 12.476 398.74 12.028C398.74 11.7107 398.684 11.4167 398.572 11.146C398.46 10.8753 398.283 10.656 398.04 10.488C397.797 10.3107 397.466 10.222 397.046 10.222C396.645 10.222 396.309 10.3107 396.038 10.488C395.777 10.6653 395.576 10.9033 395.436 11.202C395.305 11.4913 395.24 11.8133 395.24 12.168H393.882C393.891 11.496 394.036 10.9267 394.316 10.46C394.596 9.99333 394.974 9.63867 395.45 9.396C395.935 9.15333 396.477 9.032 397.074 9.032C397.699 9.032 398.241 9.14867 398.698 9.382C399.155 9.606 399.51 9.93733 399.762 10.376C400.014 10.8053 400.14 11.3327 400.14 11.958C400.14 12.406 400.051 12.854 399.874 13.302C399.697 13.7407 399.454 14.17 399.146 14.59C398.847 15.01 398.511 15.416 398.138 15.808C397.765 16.1907 397.377 16.5547 396.976 16.9C396.584 17.2453 396.206 17.558 395.842 17.838H400.448V19H393.826ZM402.494 19.07C402.223 19.07 401.999 18.986 401.822 18.818C401.654 18.6407 401.57 18.4307 401.57 18.188C401.57 17.936 401.654 17.726 401.822 17.558C401.999 17.3807 402.223 17.292 402.494 17.292C402.765 17.292 402.984 17.3807 403.152 17.558C403.32 17.726 403.404 17.936 403.404 18.188C403.404 18.4307 403.32 18.6407 403.152 18.818C402.984 18.986 402.765 19.07 402.494 19.07ZM408.288 19.168C407.597 19.168 407.005 19.0467 406.51 18.804C406.015 18.552 405.623 18.216 405.334 17.796C405.045 17.3667 404.867 16.886 404.802 16.354H406.174C406.267 16.83 406.501 17.222 406.874 17.53C407.247 17.8287 407.719 17.978 408.288 17.978C408.717 17.978 409.086 17.8753 409.394 17.67C409.702 17.4647 409.94 17.1893 410.108 16.844C410.276 16.4987 410.36 16.116 410.36 15.696C410.36 15.248 410.271 14.8607 410.094 14.534C409.926 14.198 409.688 13.9367 409.38 13.75C409.081 13.5633 408.731 13.47 408.33 13.47C407.845 13.47 407.425 13.582 407.07 13.806C406.725 14.0207 406.473 14.296 406.314 14.632H404.956L405.768 9.2H411.046V10.418H406.846L406.328 13.162C406.552 12.91 406.851 12.7047 407.224 12.546C407.607 12.3873 408.041 12.308 408.526 12.308C409.021 12.308 409.464 12.3967 409.856 12.574C410.248 12.742 410.579 12.98 410.85 13.288C411.13 13.596 411.34 13.9553 411.48 14.366C411.629 14.7767 411.704 15.2107 411.704 15.668C411.704 16.1627 411.625 16.62 411.466 17.04C411.307 17.46 411.079 17.8333 410.78 18.16C410.491 18.4773 410.131 18.7247 409.702 18.902C409.282 19.0793 408.811 19.168 408.288 19.168ZM414.605 19L420.233 9.2H421.619L415.991 19H414.605ZM421.045 19.168C420.607 19.168 420.215 19.07 419.869 18.874C419.524 18.678 419.249 18.4027 419.043 18.048C418.838 17.684 418.735 17.2593 418.735 16.774C418.735 16.27 418.838 15.8407 419.043 15.486C419.249 15.1313 419.524 14.856 419.869 14.66C420.215 14.464 420.602 14.366 421.031 14.366C421.479 14.366 421.871 14.464 422.207 14.66C422.553 14.856 422.823 15.1313 423.02 15.486C423.225 15.8407 423.327 16.27 423.327 16.774C423.327 17.2593 423.225 17.684 423.02 18.048C422.823 18.4027 422.553 18.678 422.207 18.874C421.862 19.07 421.475 19.168 421.045 19.168ZM421.018 18.132C421.232 18.132 421.423 18.0807 421.591 17.978C421.769 17.8753 421.909 17.726 422.011 17.53C422.124 17.3247 422.18 17.068 422.18 16.76C422.18 16.452 422.128 16.2 422.025 16.004C421.923 15.7987 421.783 15.6447 421.606 15.542C421.438 15.4393 421.246 15.388 421.031 15.388C420.835 15.388 420.649 15.4393 420.471 15.542C420.294 15.6447 420.149 15.7987 420.037 16.004C419.935 16.2 419.883 16.452 419.883 16.76C419.883 17.068 419.935 17.3247 420.037 17.53C420.149 17.726 420.289 17.8753 420.457 17.978C420.635 18.0807 420.821 18.132 421.018 18.132ZM415.277 13.848C414.848 13.848 414.461 13.75 414.115 13.554C413.77 13.358 413.49 13.0827 413.275 12.728C413.07 12.364 412.967 11.9347 412.967 11.44C412.967 10.9453 413.07 10.5207 413.275 10.166C413.49 9.81133 413.77 9.536 414.115 9.34C414.47 9.144 414.862 9.046 415.291 9.046C415.721 9.046 416.108 9.144 416.453 9.34C416.799 9.536 417.069 9.81133 417.265 10.166C417.471 10.5207 417.573 10.9453 417.573 11.44C417.573 11.9347 417.471 12.364 417.265 12.728C417.069 13.0827 416.794 13.358 416.439 13.554C416.094 13.75 415.707 13.848 415.277 13.848ZM415.277 12.812C415.483 12.812 415.669 12.7607 415.837 12.658C416.015 12.5553 416.155 12.406 416.257 12.21C416.36 12.0047 416.411 11.748 416.411 11.44C416.411 11.132 416.36 10.8753 416.257 10.67C416.155 10.4647 416.015 10.3107 415.837 10.208C415.669 10.1053 415.487 10.054 415.291 10.054C415.086 10.054 414.89 10.1053 414.703 10.208C414.526 10.3107 414.381 10.4647 414.269 10.67C414.167 10.8753 414.115 11.132 414.115 11.44C414.115 11.7387 414.167 11.9907 414.269 12.196C414.381 12.4013 414.526 12.5553 414.703 12.658C414.881 12.7607 415.072 12.812 415.277 12.812Z" fill="white"/>
<path d="M437.53 7.46967C437.237 7.17678 436.763 7.17678 436.47 7.46967L431.697 12.2426C431.404 12.5355 431.404 13.0104 431.697 13.3033C431.99 13.5962 432.464 13.5962 432.757 13.3033L437 9.06066L441.243 13.3033C441.536 13.5962 442.01 13.5962 442.303 13.3033C442.596 13.0104 442.596 12.5355 442.303 12.2426L437.53 7.46967ZM437 19L437.75 19L437.75 8L437 8L436.25 8L436.25 19L437 19Z" fill="white"/>
<defs>
<linearGradient id="paint0_linear_2016_43078" x1="406.446" y1="3.99402" x2="441.253" y2="35.8798" gradientUnits="userSpaceOnUse">
<stop stop-color="#732CFF"/>
</linearGradient>
</defs>
</svg>
