<svg width="1920" height="1481" viewBox="0 0 1920 1481" fill="none" xmlns="http://www.w3.org/2000/svg">
<path d="M357.119 161.018L357.781 160.989L358.189 160.468L358.218 161.13L358.739 161.538L358.078 161.567L357.669 162.088L357.64 161.427L357.119 161.018Z" fill="#6F6C7D"/>
<path d="M359.562 301.432L360.224 301.403L360.633 300.882L360.662 301.544L361.183 301.952L360.521 301.981L360.112 302.502L360.083 301.841L359.562 301.432Z" fill="#6F6C7D"/>
<path d="M92.787 495.743L93.4485 495.714L93.8572 495.193L93.8862 495.854L94.4072 496.263L93.7456 496.292L93.337 496.813L93.308 496.151L92.787 495.743Z" fill="#6F6C7D"/>
<path d="M177.213 207.112L177.874 207.083L178.283 206.562L178.312 207.223L178.833 207.632L178.171 207.661L177.763 208.182L177.734 207.52L177.213 207.112Z" fill="#6F6C7D"/>
<path d="M310.082 136.125L310.743 136.096L311.152 135.575L311.181 136.237L311.702 136.646L311.041 136.675L310.632 137.196L310.603 136.534L310.082 136.125Z" fill="#6F6C7D"/>
<path d="M215.926 160.112L216.587 160.083L216.996 159.562L217.025 160.223L217.546 160.632L216.884 160.661L216.476 161.182L216.447 160.52L215.926 160.112Z" fill="#6F6C7D"/>
<path d="M125.48 613.997L126.142 613.968L126.551 613.446L126.58 614.108L127.101 614.517L126.439 614.546L126.03 615.067L126.001 614.405L125.48 613.997Z" fill="#6F6C7D"/>
<path d="M119.9 205.088L120.562 205.059L120.97 204.538L120.999 205.2L121.521 205.609L120.859 205.637L120.45 206.159L120.421 205.497L119.9 205.088Z" fill="#6F6C7D"/>
<path d="M231.193 588.143L231.855 588.114L232.263 587.593L232.292 588.255L232.813 588.663L232.152 588.692L231.743 589.213L231.714 588.552L231.193 588.143Z" fill="#6F6C7D"/>
<path d="M345.31 349.881L345.972 349.852L346.381 349.331L346.41 349.993L346.931 350.401L346.269 350.43L345.86 350.952L345.831 350.29L345.31 349.881Z" fill="#6F6C7D"/>
<path d="M1648.27 519.372L1648.93 519.343L1649.34 518.821L1649.36 519.483L1649.89 519.892L1649.22 519.921L1648.82 520.442L1648.79 519.78L1648.27 519.372Z" fill="white"/>
<path d="M1826.27 275.372L1826.93 275.343L1827.34 274.821L1827.37 275.483L1827.89 275.892L1827.22 275.921L1826.82 276.442L1826.79 275.78L1826.27 275.372Z" fill="white"/>
<path d="M457.971 274.385L458.632 274.356L459.041 273.835L459.07 274.497L459.591 274.905L458.929 274.934L458.521 275.455L458.492 274.794L457.971 274.385Z" fill="white"/>
<path d="M327.334 236.914L327.995 236.886L328.404 236.364L328.433 237.026L328.954 237.435L328.293 237.464L327.884 237.985L327.855 237.323L327.334 236.914Z" fill="white"/>
<path d="M195.705 391.539L196.367 391.511L196.775 390.989L196.804 391.651L197.325 392.06L196.664 392.089L196.255 392.61L196.226 391.948L195.705 391.539Z" fill="white"/>
<path d="M913.033 191.686L913.695 191.657L914.103 191.136L914.132 191.798L914.653 192.206L913.992 192.235L913.583 192.756L913.554 192.095L913.033 191.686Z" fill="white"/>
<path d="M252.609 251.784L253.271 251.755L253.679 251.234L253.708 251.895L254.229 252.304L253.568 252.333L253.159 252.854L253.13 252.192L252.609 251.784Z" fill="white"/>
<path d="M321.017 92.4418L321.679 92.4129L322.088 91.8918L322.117 92.5534L322.638 92.962L321.976 92.991L321.567 93.5121L321.538 92.8505L321.017 92.4418Z" fill="white"/>
<path d="M243.648 179.754L244.31 179.725L244.719 179.204L244.747 179.866L245.269 180.275L244.607 180.303L244.198 180.825L244.169 180.163L243.648 179.754Z" fill="white"/>
<g filter="url(#filter0_f_372_6759)">
<path d="M233.07 314.95L233.732 314.921L234.14 314.4L234.169 315.061L234.69 315.47L234.029 315.499L233.62 316.02L233.591 315.358L233.07 314.95Z" fill="white"/>
</g>
<g filter="url(#filter1_f_372_6759)">
<path d="M810.276 227.536L810.937 227.507L811.346 226.986L811.375 227.647L811.896 228.056L811.234 228.085L810.826 228.606L810.797 227.944L810.276 227.536Z" fill="white"/>
</g>
<g filter="url(#filter2_f_372_6759)">
<path d="M47.1307 535.434L47.7923 535.405L48.2009 534.884L48.2299 535.546L48.751 535.954L48.0894 535.983L47.6807 536.504L47.6518 535.843L47.1307 535.434Z" fill="white"/>
</g>
<g filter="url(#filter3_f_372_6759)">
<path d="M17.0702 694.571L17.7317 694.542L18.1404 694.021L18.1694 694.682L18.6904 695.091L18.0288 695.12L17.6202 695.641L17.5912 694.979L17.0702 694.571Z" fill="white"/>
</g>
<g filter="url(#filter4_f_372_6759)">
<path d="M260.109 543.528L260.771 543.499L261.179 542.978L261.208 543.639L261.729 544.048L261.068 544.077L260.659 544.598L260.63 543.936L260.109 543.528Z" fill="white"/>
</g>
<g filter="url(#filter5_f_372_6759)">
<path d="M1614.27 276.372L1614.93 276.343L1615.34 275.821L1615.37 276.483L1615.89 276.892L1615.23 276.921L1614.82 277.442L1614.79 276.78L1614.27 276.372Z" fill="white"/>
</g>
<g filter="url(#filter6_f_372_6759)">
<path d="M27.1346 439.102L27.7962 439.073L28.2049 438.552L28.2338 439.214L28.7549 439.622L28.0933 439.651L27.6846 440.172L27.6557 439.511L27.1346 439.102Z" fill="white"/>
</g>
<g filter="url(#filter7_f_372_6759)">
<path d="M177.342 578.957L179.371 578.868L180.624 577.27L180.713 579.299L182.311 580.552L180.282 580.641L179.029 582.239L178.94 580.21L177.342 578.957Z" fill="#868592"/>
</g>
<g filter="url(#filter8_f_372_6759)">
<path d="M1515.8 511.045L1517.83 510.956L1519.08 509.358L1519.17 511.387L1520.77 512.64L1518.74 512.729L1517.49 514.327L1517.4 512.298L1515.8 511.045Z" fill="#868592"/>
</g>
<g filter="url(#filter9_f_372_6759)">
<path d="M180.61 466.975L182.638 466.886L183.892 465.288L183.98 467.317L185.578 468.57L183.55 468.659L182.296 470.257L182.208 468.228L180.61 466.975Z" fill="#868592"/>
</g>
<g filter="url(#filter10_f_372_6759)">
<path d="M1698.8 425.049L1700.83 424.96L1702.08 423.362L1702.17 425.391L1703.77 426.644L1701.74 426.733L1700.49 428.331L1700.4 426.302L1698.8 425.049Z" fill="#868592"/>
</g>
<g filter="url(#filter11_f_372_6759)">
<path d="M1475.95 245.137L1477.98 245.048L1479.23 243.45L1479.32 245.479L1480.92 246.732L1478.89 246.821L1477.64 248.419L1477.55 246.39L1475.95 245.137Z" fill="#868592"/>
</g>
<g filter="url(#filter12_f_372_6759)">
<path d="M1705.8 202.045L1707.83 201.956L1709.09 200.358L1709.17 202.387L1710.77 203.64L1708.74 203.729L1707.49 205.327L1707.4 203.298L1705.8 202.045Z" fill="white"/>
</g>
<g filter="url(#filter13_f_372_6759)">
<path d="M383.5 143.318L385.529 143.23L386.782 141.632L386.871 143.66L388.469 144.914L386.44 145.002L385.187 146.6L385.098 144.572L383.5 143.318Z" fill="white"/>
</g>
<g filter="url(#filter14_f_372_6759)">
<path d="M309.287 270.326L311.316 270.237L312.569 268.64L312.658 270.668L314.256 271.921L312.227 272.01L310.974 273.608L310.885 271.579L309.287 270.326Z" fill="#6E6B7C"/>
</g>
<g filter="url(#filter15_f_372_6759)">
<path d="M1252.8 498.486L1254.83 498.398L1256.08 496.8L1256.17 498.828L1257.77 500.082L1255.74 500.17L1254.48 501.768L1254.4 499.74L1252.8 498.486Z" fill="#6E6B7C"/>
</g>
<g filter="url(#filter16_f_372_6759)">
<path d="M696.108 656.168L698.136 656.079L699.39 654.481L699.478 656.51L701.076 657.763L699.048 657.852L697.794 659.45L697.706 657.421L696.108 656.168Z" fill="#6E6B7C"/>
</g>
<g filter="url(#filter17_f_372_6759)">
<path d="M169.424 308.148L171.453 308.06L172.706 306.462L172.795 308.491L174.393 309.744L172.364 309.833L171.111 311.43L171.022 309.402L169.424 308.148Z" fill="white"/>
</g>
<g filter="url(#filter18_f_372_6759)">
<path d="M1344.8 380.488L1346.83 380.4L1348.08 378.802L1348.17 380.83L1349.77 382.084L1347.74 382.172L1346.48 383.77L1346.4 381.742L1344.8 380.488Z" fill="white"/>
</g>
<g filter="url(#filter19_f_372_6759)">
<path d="M222.182 223.166L224.211 223.077L225.464 221.479L225.553 223.508L227.151 224.761L225.122 224.85L223.869 226.448L223.78 224.419L222.182 223.166Z" fill="white"/>
</g>
<g filter="url(#filter20_f_372_6759)">
<path d="M1508.8 146.045L1510.83 145.956L1512.09 144.358L1512.17 146.387L1513.77 147.64L1511.74 147.729L1510.49 149.327L1510.4 147.298L1508.8 146.045Z" fill="white"/>
</g>
<g opacity="0.5">
<path d="M549.916 540.375L550.404 540.822L551.062 540.743L550.614 541.231L550.694 541.888L550.206 541.441L549.548 541.52L549.995 541.032L549.916 540.375Z" fill="#6F6C7D"/>
<path d="M452.357 657.322L452.846 657.769L453.503 657.69L453.056 658.178L453.135 658.836L452.647 658.388L451.99 658.468L452.437 657.979L452.357 657.322Z" fill="#6F6C7D"/>
<path d="M126.32 606.082L126.809 606.529L127.466 606.45L127.019 606.938L127.098 607.595L126.61 607.148L125.952 607.227L126.4 606.739L126.32 606.082Z" fill="#6F6C7D"/>
<path d="M51.5449 335.695L52.0331 336.142L52.6906 336.063L52.2432 336.551L52.3227 337.209L51.8344 336.761L51.177 336.841L51.6243 336.352L51.5449 335.695Z" fill="#6F6C7D"/>
<path d="M390.111 461.685L390.6 462.133L391.257 462.053L390.81 462.541L390.889 463.199L390.401 462.752L389.743 462.831L390.191 462.343L390.111 461.685Z" fill="#6F6C7D"/>
<path d="M534.26 489.511L534.748 489.959L535.405 489.879L534.958 490.368L535.038 491.025L534.549 490.578L533.892 490.657L534.339 490.169L534.26 489.511Z" fill="#6F6C7D"/>
<path d="M450.719 455.826L451.207 456.273L451.864 456.194L451.417 456.682L451.497 457.339L451.008 456.892L450.351 456.972L450.798 456.483L450.719 455.826Z" fill="#6F6C7D"/>
<path d="M65.8183 712.816L66.3066 713.263L66.964 713.184L66.5167 713.672L66.5961 714.33L66.1079 713.882L65.4504 713.962L65.8978 713.474L65.8183 712.816Z" fill="#6F6C7D"/>
<path d="M351.016 419.728L351.504 420.176L352.161 420.096L351.714 420.584L351.793 421.242L351.305 420.794L350.648 420.874L351.095 420.386L351.016 419.728Z" fill="#6F6C7D"/>
<path d="M158.85 769.285L159.338 769.732L159.995 769.653L159.548 770.141L159.627 770.798L159.139 770.351L158.482 770.431L158.929 769.942L158.85 769.285Z" fill="#6F6C7D"/>
<path d="M408.021 681.504L408.51 681.951L409.167 681.871L408.72 682.36L408.799 683.017L408.311 682.57L407.654 682.649L408.101 682.161L408.021 681.504Z" fill="#6F6C7D"/>
<path d="M492.547 822.101L493.035 822.549L493.693 822.469L493.245 822.957L493.325 823.615L492.836 823.168L492.179 823.247L492.626 822.759L492.547 822.101Z" fill="white"/>
<path d="M541.066 691.849L541.555 692.297L542.212 692.217L541.765 692.705L541.844 693.363L541.356 692.916L540.698 692.995L541.146 692.507L541.066 691.849Z" fill="white"/>
<path d="M475.189 588.912L475.678 589.359L476.335 589.28L475.888 589.768L475.967 590.425L475.479 589.978L474.822 590.058L475.269 589.569L475.189 588.912Z" fill="white"/>
<path d="M272.777 605.172L273.266 605.619L273.923 605.539L273.476 606.028L273.555 606.685L273.067 606.238L272.409 606.317L272.857 605.829L272.777 605.172Z" fill="white"/>
<path d="M17.7519 528.799L18.2402 529.246L18.8976 529.166L18.4503 529.655L18.5297 530.312L18.0415 529.865L17.384 529.944L17.8314 529.456L17.7519 528.799Z" fill="white"/>
<path d="M411.838 546.588L412.326 547.035L412.984 546.955L412.536 547.444L412.616 548.101L412.127 547.654L411.47 547.733L411.917 547.245L411.838 546.588Z" fill="white"/>
<path d="M572.881 466.355L573.369 466.803L574.026 466.723L573.579 467.211L573.659 467.869L573.17 467.421L572.513 467.501L572.96 467.013L572.881 466.355Z" fill="white"/>
<path d="M456.434 489.318L456.922 489.765L457.579 489.686L457.132 490.174L457.211 490.832L456.723 490.384L456.066 490.464L456.513 489.976L456.434 489.318Z" fill="white"/>
<g filter="url(#filter21_f_372_6759)">
<path d="M353.355 577.437L353.844 577.885L354.501 577.805L354.054 578.293L354.133 578.951L353.645 578.503L352.988 578.583L353.435 578.095L353.355 577.437Z" fill="white"/>
</g>
<g filter="url(#filter22_f_372_6759)">
<path d="M65.9706 601.863L66.4589 602.31L67.1163 602.231L66.669 602.719L66.7485 603.377L66.2602 602.929L65.6028 603.009L66.0501 602.52L65.9706 601.863Z" fill="white"/>
</g>
<g filter="url(#filter23_f_372_6759)">
<path d="M210.846 758.185L211.334 758.633L211.991 758.553L211.544 759.041L211.623 759.699L211.135 759.252L210.478 759.331L210.925 758.843L210.846 758.185Z" fill="white"/>
</g>
<g filter="url(#filter24_f_372_6759)">
<path d="M360.676 748.115L361.164 748.562L361.821 748.483L361.374 748.971L361.454 749.629L360.965 749.181L360.308 749.261L360.755 748.772L360.676 748.115Z" fill="white"/>
</g>
<g filter="url(#filter25_f_372_6759)">
<path d="M119.947 519.605L120.435 520.053L121.093 519.973L120.646 520.461L120.725 521.119L120.237 520.671L119.579 520.751L120.027 520.263L119.947 519.605Z" fill="white"/>
</g>
<g filter="url(#filter26_f_372_6759)">
<path d="M58.183 451.262L59.6804 452.634L61.6964 452.39L60.3246 453.888L60.5684 455.904L59.071 454.532L57.055 454.776L58.4268 453.278L58.183 451.262Z" fill="#868592"/>
</g>
<g filter="url(#filter27_f_372_6759)">
<path d="M127.267 724.712L128.764 726.083L130.78 725.84L129.409 727.337L129.652 729.353L128.155 727.981L126.139 728.225L127.511 726.728L127.267 724.712Z" fill="#868592"/>
</g>
<g filter="url(#filter28_f_372_6759)">
<path d="M208.763 647.841L210.26 649.212L212.276 648.969L210.905 650.466L211.148 652.482L209.651 651.11L207.635 651.354L209.007 649.857L208.763 647.841Z" fill="#868592"/>
</g>
<g filter="url(#filter29_f_372_6759)">
<path d="M1085.95 766.167L1087.45 767.538L1089.46 767.295L1088.09 768.792L1088.33 770.808L1086.84 769.436L1084.82 769.68L1086.19 768.183L1085.95 766.167Z" fill="white"/>
</g>
<g filter="url(#filter30_f_372_6759)">
<path d="M1017.05 214.374L1018.55 215.746L1020.56 215.502L1019.19 216.999L1019.43 219.015L1017.94 217.643L1015.92 217.887L1017.29 216.39L1017.05 214.374Z" fill="white"/>
</g>
<g filter="url(#filter31_f_372_6759)">
<path d="M413.642 723.155L415.139 724.527L417.155 724.283L415.784 725.78L416.027 727.796L414.53 726.425L412.514 726.668L413.886 725.171L413.642 723.155Z" fill="white"/>
</g>
<g filter="url(#filter32_f_372_6759)">
<path d="M840.208 415.11L841.706 416.482L843.722 416.238L842.35 417.735L842.594 419.751L841.096 418.38L839.08 418.623L840.452 417.126L840.208 415.11Z" fill="white"/>
</g>
<g filter="url(#filter33_f_372_6759)">
<path d="M438.802 599.776L440.3 601.148L442.316 600.904L440.944 602.401L441.188 604.417L439.69 603.046L437.674 603.289L439.046 601.792L438.802 599.776Z" fill="#6E6B7C"/>
</g>
<g filter="url(#filter34_f_372_6759)">
<path d="M313.162 527.622L314.659 528.994L316.675 528.75L315.303 530.247L315.547 532.263L314.05 530.891L312.033 531.135L313.405 529.638L313.162 527.622Z" fill="white"/>
</g>
<g filter="url(#filter35_f_372_6759)">
<path d="M410.558 504.835L412.055 506.206L414.071 505.963L412.7 507.46L412.943 509.476L411.446 508.104L409.43 508.348L410.802 506.851L410.558 504.835Z" fill="white"/>
</g>
</g>
<defs>
<filter id="filter0_f_372_6759" x="232.07" y="313.4" width="3.62012" height="3.61914" filterUnits="userSpaceOnUse" color-interpolation-filters="sRGB">
<feFlood flood-opacity="0" result="BackgroundImageFix"/>
<feBlend mode="normal" in="SourceGraphic" in2="BackgroundImageFix" result="shape"/>
<feGaussianBlur stdDeviation="0.5" result="effect1_foregroundBlur_372_6759"/>
</filter>
<filter id="filter1_f_372_6759" x="809.276" y="225.986" width="3.62012" height="3.61914" filterUnits="userSpaceOnUse" color-interpolation-filters="sRGB">
<feFlood flood-opacity="0" result="BackgroundImageFix"/>
<feBlend mode="normal" in="SourceGraphic" in2="BackgroundImageFix" result="shape"/>
<feGaussianBlur stdDeviation="0.5" result="effect1_foregroundBlur_372_6759"/>
</filter>
<filter id="filter2_f_372_6759" x="46.1309" y="533.885" width="3.62012" height="3.61914" filterUnits="userSpaceOnUse" color-interpolation-filters="sRGB">
<feFlood flood-opacity="0" result="BackgroundImageFix"/>
<feBlend mode="normal" in="SourceGraphic" in2="BackgroundImageFix" result="shape"/>
<feGaussianBlur stdDeviation="0.5" result="effect1_foregroundBlur_372_6759"/>
</filter>
<filter id="filter3_f_372_6759" x="16.0703" y="693.021" width="3.62012" height="3.61914" filterUnits="userSpaceOnUse" color-interpolation-filters="sRGB">
<feFlood flood-opacity="0" result="BackgroundImageFix"/>
<feBlend mode="normal" in="SourceGraphic" in2="BackgroundImageFix" result="shape"/>
<feGaussianBlur stdDeviation="0.5" result="effect1_foregroundBlur_372_6759"/>
</filter>
<filter id="filter4_f_372_6759" x="259.109" y="541.979" width="3.62012" height="3.61914" filterUnits="userSpaceOnUse" color-interpolation-filters="sRGB">
<feFlood flood-opacity="0" result="BackgroundImageFix"/>
<feBlend mode="normal" in="SourceGraphic" in2="BackgroundImageFix" result="shape"/>
<feGaussianBlur stdDeviation="0.5" result="effect1_foregroundBlur_372_6759"/>
</filter>
<filter id="filter5_f_372_6759" x="1613.27" y="274.822" width="3.62012" height="3.61914" filterUnits="userSpaceOnUse" color-interpolation-filters="sRGB">
<feFlood flood-opacity="0" result="BackgroundImageFix"/>
<feBlend mode="normal" in="SourceGraphic" in2="BackgroundImageFix" result="shape"/>
<feGaussianBlur stdDeviation="0.5" result="effect1_foregroundBlur_372_6759"/>
</filter>
<filter id="filter6_f_372_6759" x="26.1348" y="437.553" width="3.62012" height="3.61914" filterUnits="userSpaceOnUse" color-interpolation-filters="sRGB">
<feFlood flood-opacity="0" result="BackgroundImageFix"/>
<feBlend mode="normal" in="SourceGraphic" in2="BackgroundImageFix" result="shape"/>
<feGaussianBlur stdDeviation="0.5" result="effect1_foregroundBlur_372_6759"/>
</filter>
<filter id="filter7_f_372_6759" x="176.342" y="576.27" width="6.96826" height="6.96875" filterUnits="userSpaceOnUse" color-interpolation-filters="sRGB">
<feFlood flood-opacity="0" result="BackgroundImageFix"/>
<feBlend mode="normal" in="SourceGraphic" in2="BackgroundImageFix" result="shape"/>
<feGaussianBlur stdDeviation="0.5" result="effect1_foregroundBlur_372_6759"/>
</filter>
<filter id="filter8_f_372_6759" x="1514.8" y="508.357" width="6.96826" height="6.96875" filterUnits="userSpaceOnUse" color-interpolation-filters="sRGB">
<feFlood flood-opacity="0" result="BackgroundImageFix"/>
<feBlend mode="normal" in="SourceGraphic" in2="BackgroundImageFix" result="shape"/>
<feGaussianBlur stdDeviation="0.5" result="effect1_foregroundBlur_372_6759"/>
</filter>
<filter id="filter9_f_372_6759" x="179.61" y="464.287" width="6.96826" height="6.96875" filterUnits="userSpaceOnUse" color-interpolation-filters="sRGB">
<feFlood flood-opacity="0" result="BackgroundImageFix"/>
<feBlend mode="normal" in="SourceGraphic" in2="BackgroundImageFix" result="shape"/>
<feGaussianBlur stdDeviation="0.5" result="effect1_foregroundBlur_372_6759"/>
</filter>
<filter id="filter10_f_372_6759" x="1697.8" y="422.361" width="6.96826" height="6.96875" filterUnits="userSpaceOnUse" color-interpolation-filters="sRGB">
<feFlood flood-opacity="0" result="BackgroundImageFix"/>
<feBlend mode="normal" in="SourceGraphic" in2="BackgroundImageFix" result="shape"/>
<feGaussianBlur stdDeviation="0.5" result="effect1_foregroundBlur_372_6759"/>
</filter>
<filter id="filter11_f_372_6759" x="1474.95" y="242.449" width="6.96826" height="6.96875" filterUnits="userSpaceOnUse" color-interpolation-filters="sRGB">
<feFlood flood-opacity="0" result="BackgroundImageFix"/>
<feBlend mode="normal" in="SourceGraphic" in2="BackgroundImageFix" result="shape"/>
<feGaussianBlur stdDeviation="0.5" result="effect1_foregroundBlur_372_6759"/>
</filter>
<filter id="filter12_f_372_6759" x="1704.8" y="199.357" width="6.96826" height="6.96875" filterUnits="userSpaceOnUse" color-interpolation-filters="sRGB">
<feFlood flood-opacity="0" result="BackgroundImageFix"/>
<feBlend mode="normal" in="SourceGraphic" in2="BackgroundImageFix" result="shape"/>
<feGaussianBlur stdDeviation="0.5" result="effect1_foregroundBlur_372_6759"/>
</filter>
<filter id="filter13_f_372_6759" x="382.5" y="140.631" width="6.96826" height="6.96875" filterUnits="userSpaceOnUse" color-interpolation-filters="sRGB">
<feFlood flood-opacity="0" result="BackgroundImageFix"/>
<feBlend mode="normal" in="SourceGraphic" in2="BackgroundImageFix" result="shape"/>
<feGaussianBlur stdDeviation="0.5" result="effect1_foregroundBlur_372_6759"/>
</filter>
<filter id="filter14_f_372_6759" x="308.288" y="267.639" width="6.96826" height="6.96875" filterUnits="userSpaceOnUse" color-interpolation-filters="sRGB">
<feFlood flood-opacity="0" result="BackgroundImageFix"/>
<feBlend mode="normal" in="SourceGraphic" in2="BackgroundImageFix" result="shape"/>
<feGaussianBlur stdDeviation="0.5" result="effect1_foregroundBlur_372_6759"/>
</filter>
<filter id="filter15_f_372_6759" x="1251.8" y="495.799" width="6.96826" height="6.96875" filterUnits="userSpaceOnUse" color-interpolation-filters="sRGB">
<feFlood flood-opacity="0" result="BackgroundImageFix"/>
<feBlend mode="normal" in="SourceGraphic" in2="BackgroundImageFix" result="shape"/>
<feGaussianBlur stdDeviation="0.5" result="effect1_foregroundBlur_372_6759"/>
</filter>
<filter id="filter16_f_372_6759" x="695.108" y="653.48" width="6.96826" height="6.96875" filterUnits="userSpaceOnUse" color-interpolation-filters="sRGB">
<feFlood flood-opacity="0" result="BackgroundImageFix"/>
<feBlend mode="normal" in="SourceGraphic" in2="BackgroundImageFix" result="shape"/>
<feGaussianBlur stdDeviation="0.5" result="effect1_foregroundBlur_372_6759"/>
</filter>
<filter id="filter17_f_372_6759" x="168.424" y="305.461" width="6.96826" height="6.96875" filterUnits="userSpaceOnUse" color-interpolation-filters="sRGB">
<feFlood flood-opacity="0" result="BackgroundImageFix"/>
<feBlend mode="normal" in="SourceGraphic" in2="BackgroundImageFix" result="shape"/>
<feGaussianBlur stdDeviation="0.5" result="effect1_foregroundBlur_372_6759"/>
</filter>
<filter id="filter18_f_372_6759" x="1343.8" y="377.801" width="6.96826" height="6.96875" filterUnits="userSpaceOnUse" color-interpolation-filters="sRGB">
<feFlood flood-opacity="0" result="BackgroundImageFix"/>
<feBlend mode="normal" in="SourceGraphic" in2="BackgroundImageFix" result="shape"/>
<feGaussianBlur stdDeviation="0.5" result="effect1_foregroundBlur_372_6759"/>
</filter>
<filter id="filter19_f_372_6759" x="221.182" y="220.479" width="6.96826" height="6.96875" filterUnits="userSpaceOnUse" color-interpolation-filters="sRGB">
<feFlood flood-opacity="0" result="BackgroundImageFix"/>
<feBlend mode="normal" in="SourceGraphic" in2="BackgroundImageFix" result="shape"/>
<feGaussianBlur stdDeviation="0.5" result="effect1_foregroundBlur_372_6759"/>
</filter>
<filter id="filter20_f_372_6759" x="1507.8" y="143.357" width="6.96826" height="6.96875" filterUnits="userSpaceOnUse" color-interpolation-filters="sRGB">
<feFlood flood-opacity="0" result="BackgroundImageFix"/>
<feBlend mode="normal" in="SourceGraphic" in2="BackgroundImageFix" result="shape"/>
<feGaussianBlur stdDeviation="0.5" result="effect1_foregroundBlur_372_6759"/>
</filter>
<filter id="filter21_f_372_6759" x="351.988" y="576.438" width="3.51318" height="3.51367" filterUnits="userSpaceOnUse" color-interpolation-filters="sRGB">
<feFlood flood-opacity="0" result="BackgroundImageFix"/>
<feBlend mode="normal" in="SourceGraphic" in2="BackgroundImageFix" result="shape"/>
<feGaussianBlur stdDeviation="0.5" result="effect1_foregroundBlur_372_6759"/>
</filter>
<filter id="filter22_f_372_6759" x="64.603" y="600.863" width="3.51318" height="3.51367" filterUnits="userSpaceOnUse" color-interpolation-filters="sRGB">
<feFlood flood-opacity="0" result="BackgroundImageFix"/>
<feBlend mode="normal" in="SourceGraphic" in2="BackgroundImageFix" result="shape"/>
<feGaussianBlur stdDeviation="0.5" result="effect1_foregroundBlur_372_6759"/>
</filter>
<filter id="filter23_f_372_6759" x="209.478" y="757.186" width="3.51318" height="3.51367" filterUnits="userSpaceOnUse" color-interpolation-filters="sRGB">
<feFlood flood-opacity="0" result="BackgroundImageFix"/>
<feBlend mode="normal" in="SourceGraphic" in2="BackgroundImageFix" result="shape"/>
<feGaussianBlur stdDeviation="0.5" result="effect1_foregroundBlur_372_6759"/>
</filter>
<filter id="filter24_f_372_6759" x="359.308" y="747.115" width="3.51318" height="3.51367" filterUnits="userSpaceOnUse" color-interpolation-filters="sRGB">
<feFlood flood-opacity="0" result="BackgroundImageFix"/>
<feBlend mode="normal" in="SourceGraphic" in2="BackgroundImageFix" result="shape"/>
<feGaussianBlur stdDeviation="0.5" result="effect1_foregroundBlur_372_6759"/>
</filter>
<filter id="filter25_f_372_6759" x="118.58" y="518.605" width="3.51318" height="3.51367" filterUnits="userSpaceOnUse" color-interpolation-filters="sRGB">
<feFlood flood-opacity="0" result="BackgroundImageFix"/>
<feBlend mode="normal" in="SourceGraphic" in2="BackgroundImageFix" result="shape"/>
<feGaussianBlur stdDeviation="0.5" result="effect1_foregroundBlur_372_6759"/>
</filter>
<filter id="filter26_f_372_6759" x="56.0552" y="450.262" width="6.64111" height="6.64258" filterUnits="userSpaceOnUse" color-interpolation-filters="sRGB">
<feFlood flood-opacity="0" result="BackgroundImageFix"/>
<feBlend mode="normal" in="SourceGraphic" in2="BackgroundImageFix" result="shape"/>
<feGaussianBlur stdDeviation="0.5" result="effect1_foregroundBlur_372_6759"/>
</filter>
<filter id="filter27_f_372_6759" x="125.139" y="723.711" width="6.64111" height="6.64258" filterUnits="userSpaceOnUse" color-interpolation-filters="sRGB">
<feFlood flood-opacity="0" result="BackgroundImageFix"/>
<feBlend mode="normal" in="SourceGraphic" in2="BackgroundImageFix" result="shape"/>
<feGaussianBlur stdDeviation="0.5" result="effect1_foregroundBlur_372_6759"/>
</filter>
<filter id="filter28_f_372_6759" x="206.635" y="646.84" width="6.64111" height="6.64258" filterUnits="userSpaceOnUse" color-interpolation-filters="sRGB">
<feFlood flood-opacity="0" result="BackgroundImageFix"/>
<feBlend mode="normal" in="SourceGraphic" in2="BackgroundImageFix" result="shape"/>
<feGaussianBlur stdDeviation="0.5" result="effect1_foregroundBlur_372_6759"/>
</filter>
<filter id="filter29_f_372_6759" x="1083.82" y="765.166" width="6.64111" height="6.64258" filterUnits="userSpaceOnUse" color-interpolation-filters="sRGB">
<feFlood flood-opacity="0" result="BackgroundImageFix"/>
<feBlend mode="normal" in="SourceGraphic" in2="BackgroundImageFix" result="shape"/>
<feGaussianBlur stdDeviation="0.5" result="effect1_foregroundBlur_372_6759"/>
</filter>
<filter id="filter30_f_372_6759" x="1014.92" y="213.373" width="6.64111" height="6.64258" filterUnits="userSpaceOnUse" color-interpolation-filters="sRGB">
<feFlood flood-opacity="0" result="BackgroundImageFix"/>
<feBlend mode="normal" in="SourceGraphic" in2="BackgroundImageFix" result="shape"/>
<feGaussianBlur stdDeviation="0.5" result="effect1_foregroundBlur_372_6759"/>
</filter>
<filter id="filter31_f_372_6759" x="411.514" y="722.154" width="6.64111" height="6.64258" filterUnits="userSpaceOnUse" color-interpolation-filters="sRGB">
<feFlood flood-opacity="0" result="BackgroundImageFix"/>
<feBlend mode="normal" in="SourceGraphic" in2="BackgroundImageFix" result="shape"/>
<feGaussianBlur stdDeviation="0.5" result="effect1_foregroundBlur_372_6759"/>
</filter>
<filter id="filter32_f_372_6759" x="838.081" y="414.109" width="6.64111" height="6.64258" filterUnits="userSpaceOnUse" color-interpolation-filters="sRGB">
<feFlood flood-opacity="0" result="BackgroundImageFix"/>
<feBlend mode="normal" in="SourceGraphic" in2="BackgroundImageFix" result="shape"/>
<feGaussianBlur stdDeviation="0.5" result="effect1_foregroundBlur_372_6759"/>
</filter>
<filter id="filter33_f_372_6759" x="436.674" y="598.775" width="6.64111" height="6.64258" filterUnits="userSpaceOnUse" color-interpolation-filters="sRGB">
<feFlood flood-opacity="0" result="BackgroundImageFix"/>
<feBlend mode="normal" in="SourceGraphic" in2="BackgroundImageFix" result="shape"/>
<feGaussianBlur stdDeviation="0.5" result="effect1_foregroundBlur_372_6759"/>
</filter>
<filter id="filter34_f_372_6759" x="311.034" y="526.621" width="6.64111" height="6.64258" filterUnits="userSpaceOnUse" color-interpolation-filters="sRGB">
<feFlood flood-opacity="0" result="BackgroundImageFix"/>
<feBlend mode="normal" in="SourceGraphic" in2="BackgroundImageFix" result="shape"/>
<feGaussianBlur stdDeviation="0.5" result="effect1_foregroundBlur_372_6759"/>
</filter>
<filter id="filter35_f_372_6759" x="408.43" y="503.834" width="6.64111" height="6.64258" filterUnits="userSpaceOnUse" color-interpolation-filters="sRGB">
<feFlood flood-opacity="0" result="BackgroundImageFix"/>
<feBlend mode="normal" in="SourceGraphic" in2="BackgroundImageFix" result="shape"/>
<feGaussianBlur stdDeviation="0.5" result="effect1_foregroundBlur_372_6759"/>
</filter>
</defs>
</svg>
