<svg width="24" height="24" viewBox="0 0 24 24" fill="none" xmlns="http://www.w3.org/2000/svg">
<g filter="url(#filter0_i_467_32692)">
<rect width="24" height="24" rx="5" transform="matrix(-1 0 0 1 24 0)" fill="#1D204A"/>
</g>
<rect x="-0.1" y="0.1" width="23.8" height="23.8" rx="4.9" transform="matrix(-1 0 0 1 23.8 0)" stroke="url(#paint0_linear_467_32692)" stroke-width="0.2"/>
<mask id="mask0_467_32692" style="mask-type:alpha" maskUnits="userSpaceOnUse" x="0" y="0" width="24" height="24">
<rect x="-0.1" y="0.1" width="23.8" height="23.8" rx="4.9" transform="matrix(-1 0 0 1 23.8 0)" fill="#1D204A" stroke="url(#paint1_linear_467_32692)" stroke-width="0.2"/>
</mask>
<g mask="url(#mask0_467_32692)">
<g filter="url(#filter1_f_467_32692)">
<circle cx="7.5" cy="7.5" r="7.5" transform="matrix(-1 0 0 1 11 15)" fill="#732CFF"/>
</g>
</g>
<path d="M7.33333 16.75V15.6667C7.33333 15.092 7.56161 14.5409 7.96794 14.1346C8.37426 13.7283 8.92536 13.5 9.5 13.5H13.8333C14.408 13.5 14.9591 13.7283 15.3654 14.1346C15.7717 14.5409 16 15.092 16 15.6667V16.75" stroke="white" stroke-linecap="round" stroke-linejoin="round"/>
<path d="M11.8333 11.3333C10.6367 11.3333 9.66667 10.3633 9.66667 9.16667C9.66667 7.97005 10.6367 7 11.8333 7C13.03 7 14 7.97005 14 9.16667C14 10.3633 13.03 11.3333 11.8333 11.3333Z" stroke="white" stroke-linecap="round" stroke-linejoin="round"/>
<defs>
<filter id="filter0_i_467_32692" x="0" y="0" width="24" height="26" filterUnits="userSpaceOnUse" color-interpolation-filters="sRGB">
<feFlood flood-opacity="0" result="BackgroundImageFix"/>
<feBlend mode="normal" in="SourceGraphic" in2="BackgroundImageFix" result="shape"/>
<feColorMatrix in="SourceAlpha" type="matrix" values="0 0 0 0 0 0 0 0 0 0 0 0 0 0 0 0 0 0 127 0" result="hardAlpha"/>
<feOffset dy="2"/>
<feGaussianBlur stdDeviation="2.45"/>
<feComposite in2="hardAlpha" operator="arithmetic" k2="-1" k3="1"/>
<feColorMatrix type="matrix" values="0 0 0 0 0.563839 0 0 0 0 0.410572 0 0 0 0 0.918269 0 0 0 0.1 0"/>
<feBlend mode="normal" in2="shape" result="effect1_innerShadow_467_32692"/>
</filter>
<filter id="filter1_f_467_32692" x="-17" y="2" width="41" height="41" filterUnits="userSpaceOnUse" color-interpolation-filters="sRGB">
<feFlood flood-opacity="0" result="BackgroundImageFix"/>
<feBlend mode="normal" in="SourceGraphic" in2="BackgroundImageFix" result="shape"/>
<feGaussianBlur stdDeviation="6.5" result="effect1_foregroundBlur_467_32692"/>
</filter>
<linearGradient id="paint0_linear_467_32692" x1="12" y1="0" x2="12" y2="24" gradientUnits="userSpaceOnUse">
<stop stop-color="#8541FF"/>
<stop offset="1" stop-color="#171A41"/>
</linearGradient>
<linearGradient id="paint1_linear_467_32692" x1="12" y1="0" x2="12" y2="24" gradientUnits="userSpaceOnUse">
<stop stop-color="#8541FF"/>
<stop offset="1" stop-color="#171A41"/>
</linearGradient>
</defs>
</svg>
