<svg width="1723" height="1452" viewBox="0 0 1723 1452" fill="none" xmlns="http://www.w3.org/2000/svg">
<g filter="url(#filter0_f_2030_43057)">
<ellipse cx="861.837" cy="725.835" rx="585.846" ry="59.331" transform="rotate(35.4141 861.837 725.835)" fill="#732CFF"/>
</g>
<path opacity="0.11" d="M1175.51 881.329C1175.07 880.968 1174.42 881.032 1174.05 881.472C1173.69 881.912 1173.76 882.562 1174.2 882.923C1174.64 883.284 1175.29 883.22 1175.65 882.78C1176.01 882.34 1175.95 881.69 1175.51 881.329Z" fill="white"/>
<path d="M1176.52 874.826C1176.19 874.555 1175.7 874.603 1175.43 874.933C1175.16 875.263 1175.2 875.75 1175.53 876.021C1175.86 876.292 1176.35 876.244 1176.62 875.914C1176.89 875.584 1176.85 875.097 1176.52 874.826Z" fill="white"/>
<path d="M1156.51 872.398C1156.18 872.127 1155.69 872.175 1155.42 872.505C1155.15 872.835 1155.19 873.322 1155.52 873.593C1155.85 873.863 1156.34 873.815 1156.61 873.485C1156.88 873.155 1156.84 872.668 1156.51 872.398Z" fill="white"/>
<path d="M1189.71 900.986C1189.38 900.716 1188.89 900.763 1188.62 901.093C1188.35 901.423 1188.39 901.911 1188.72 902.181C1189.05 902.452 1189.54 902.404 1189.81 902.074C1190.08 901.744 1190.04 901.257 1189.71 900.986Z" fill="white"/>
<path opacity="0.11" d="M1217.27 907.612C1216.83 907.251 1216.18 907.315 1215.82 907.755C1215.46 908.195 1215.52 908.845 1215.96 909.206C1216.4 909.567 1217.05 909.504 1217.41 909.063C1217.77 908.623 1217.71 907.974 1217.27 907.612Z" fill="white"/>
<path d="M1217.64 922.584C1217.42 922.404 1217.1 922.435 1216.92 922.655C1216.74 922.875 1216.77 923.2 1216.99 923.38C1217.21 923.561 1217.53 923.529 1217.71 923.309C1217.89 923.089 1217.86 922.764 1217.64 922.584Z" fill="white"/>
<path d="M1189.45 866.78C1189.23 866.6 1188.91 866.632 1188.73 866.852C1188.55 867.071 1188.58 867.396 1188.8 867.577C1189.02 867.757 1189.34 867.725 1189.52 867.505C1189.7 867.285 1189.67 866.961 1189.45 866.78Z" fill="white"/>
<path d="M1102.62 795.511C1102.4 795.33 1102.08 795.362 1101.9 795.582C1101.72 795.802 1101.75 796.127 1101.97 796.307C1102.19 796.487 1102.51 796.456 1102.69 796.236C1102.87 796.016 1102.84 795.691 1102.62 795.511Z" fill="white"/>
<path d="M1041.55 781.386C1041.33 781.205 1041.01 781.237 1040.83 781.457C1040.65 781.677 1040.68 782.002 1040.9 782.182C1041.12 782.362 1041.44 782.331 1041.62 782.111C1041.8 781.891 1041.77 781.566 1041.55 781.386Z" fill="white"/>
<path d="M1049.88 739.556C1049.66 739.375 1049.34 739.407 1049.16 739.627C1048.98 739.847 1049.01 740.171 1049.23 740.352C1049.45 740.532 1049.77 740.5 1049.95 740.281C1050.14 740.061 1050.1 739.736 1049.88 739.556Z" fill="white"/>
<path d="M1313.91 985.609C1313.69 985.429 1313.37 985.461 1313.19 985.681C1313.01 985.901 1313.04 986.225 1313.26 986.406C1313.48 986.586 1313.8 986.554 1313.99 986.334C1314.17 986.114 1314.13 985.79 1313.91 985.609Z" fill="white"/>
<path opacity="0.11" d="M1333.35 982.228C1333.13 982.047 1332.81 982.079 1332.62 982.299C1332.44 982.519 1332.48 982.843 1332.7 983.024C1332.92 983.204 1333.24 983.172 1333.42 982.952C1333.6 982.733 1333.57 982.408 1333.35 982.228Z" fill="white"/>
<path opacity="0.11" d="M1225.48 920.353C1225.26 920.172 1224.93 920.204 1224.75 920.424C1224.57 920.644 1224.61 920.968 1224.83 921.149C1225.05 921.329 1225.37 921.297 1225.55 921.077C1225.73 920.858 1225.7 920.533 1225.48 920.353Z" fill="white"/>
<path opacity="0.11" d="M1202.02 853.089C1201.8 852.908 1201.47 852.94 1201.29 853.16C1201.11 853.38 1201.14 853.705 1201.36 853.885C1201.58 854.066 1201.91 854.034 1202.09 853.814C1202.27 853.594 1202.24 853.269 1202.02 853.089Z" fill="white"/>
<path opacity="0.11" d="M1122.28 794.305C1122.06 794.124 1121.73 794.156 1121.55 794.376C1121.37 794.596 1121.4 794.92 1121.62 795.101C1121.84 795.281 1122.17 795.25 1122.35 795.03C1122.53 794.81 1122.5 794.485 1122.28 794.305Z" fill="white"/>
<path opacity="0.3" d="M1287.42 980.525C1287.2 980.345 1286.87 980.377 1286.69 980.597C1286.51 980.817 1286.54 981.141 1286.76 981.322C1286.98 981.502 1287.31 981.47 1287.49 981.25C1287.67 981.03 1287.64 980.706 1287.42 980.525Z" fill="white"/>
<path d="M1178.15 926.839C1177.93 926.658 1177.61 926.69 1177.43 926.91C1177.25 927.13 1177.28 927.455 1177.5 927.635C1177.72 927.816 1178.04 927.784 1178.23 927.564C1178.41 927.344 1178.37 927.019 1178.15 926.839Z" fill="white"/>
<path d="M1116.16 877.286C1115.94 877.106 1115.62 877.138 1115.44 877.357C1115.26 877.577 1115.29 877.902 1115.51 878.082C1115.73 878.263 1116.05 878.231 1116.23 878.011C1116.41 877.791 1116.38 877.467 1116.16 877.286Z" fill="white"/>
<path d="M1235.32 912.427C1235.1 912.246 1234.77 912.278 1234.59 912.498C1234.41 912.718 1234.44 913.043 1234.66 913.223C1234.88 913.404 1235.21 913.372 1235.39 913.152C1235.57 912.932 1235.54 912.607 1235.32 912.427Z" fill="white"/>
<path opacity="0.3" d="M1263.2 935.313C1262.98 935.132 1262.65 935.164 1262.47 935.384C1262.29 935.604 1262.33 935.928 1262.55 936.109C1262.77 936.289 1263.09 936.257 1263.27 936.037C1263.45 935.818 1263.42 935.493 1263.2 935.313Z" fill="white"/>
<path opacity="0.11" d="M1275.58 986.812C1275.36 986.631 1275.04 986.663 1274.86 986.883C1274.68 987.103 1274.71 987.427 1274.93 987.608C1275.15 987.788 1275.48 987.756 1275.66 987.536C1275.84 987.317 1275.8 986.992 1275.58 986.812Z" fill="white"/>
<path opacity="0.3" d="M1178.83 911.39C1178.61 911.209 1178.29 911.241 1178.1 911.461C1177.92 911.681 1177.96 912.005 1178.18 912.186C1178.4 912.366 1178.72 912.334 1178.9 912.115C1179.08 911.895 1179.05 911.57 1178.83 911.39Z" fill="white"/>
<path opacity="0.3" d="M1234.76 899.298C1234.54 899.117 1234.21 899.149 1234.03 899.369C1233.85 899.589 1233.88 899.914 1234.1 900.094C1234.32 900.275 1234.65 900.243 1234.83 900.023C1235.01 899.803 1234.98 899.478 1234.76 899.298Z" fill="white"/>
<path opacity="0.3" d="M1286.22 934.877C1286 934.697 1285.68 934.728 1285.5 934.948C1285.31 935.168 1285.35 935.493 1285.57 935.673C1285.79 935.854 1286.11 935.822 1286.29 935.602C1286.47 935.382 1286.44 935.058 1286.22 934.877Z" fill="white"/>
<path opacity="0.3" d="M1275.87 971.041C1275.65 970.861 1275.32 970.892 1275.14 971.112C1274.96 971.332 1274.99 971.657 1275.21 971.837C1275.43 972.018 1275.76 971.986 1275.94 971.766C1276.12 971.546 1276.09 971.222 1275.87 971.041Z" fill="white"/>
<path opacity="0.3" d="M1027.14 768.891C1026.92 768.71 1026.6 768.742 1026.42 768.962C1026.24 769.182 1026.27 769.506 1026.49 769.687C1026.71 769.867 1027.04 769.835 1027.22 769.616C1027.4 769.396 1027.36 769.071 1027.14 768.891Z" fill="white"/>
<path opacity="0.11" d="M1077.87 837.852C1077.65 837.671 1077.32 837.703 1077.14 837.923C1076.96 838.143 1076.99 838.467 1077.21 838.648C1077.43 838.828 1077.76 838.796 1077.94 838.577C1078.12 838.357 1078.09 838.032 1077.87 837.852Z" fill="white"/>
<path opacity="0.11" d="M1051.95 760.592C1051.73 760.411 1051.41 760.443 1051.23 760.663C1051.05 760.883 1051.08 761.208 1051.3 761.388C1051.52 761.569 1051.84 761.537 1052.03 761.317C1052.21 761.097 1052.17 760.772 1051.95 760.592Z" fill="white"/>
<path opacity="0.3" d="M1155.67 839.715C1155.23 839.354 1154.58 839.418 1154.22 839.858C1153.86 840.298 1153.92 840.947 1154.36 841.309C1154.8 841.67 1155.45 841.606 1155.81 841.166C1156.17 840.726 1156.11 840.076 1155.67 839.715Z" fill="white"/>
<path opacity="0.11" d="M1122.36 832.372C1121.92 832.011 1121.27 832.075 1120.91 832.515C1120.55 832.955 1120.61 833.605 1121.05 833.966C1121.49 834.327 1122.14 834.263 1122.5 833.823C1122.87 833.383 1122.8 832.733 1122.36 832.372Z" fill="white"/>
<path d="M1111.12 846.475C1110.79 846.204 1110.3 846.252 1110.03 846.582C1109.76 846.912 1109.81 847.399 1110.14 847.67C1110.47 847.941 1110.95 847.893 1111.22 847.563C1111.5 847.233 1111.45 846.746 1111.12 846.475Z" fill="white"/>
<path d="M1172.93 827.21C1172.6 826.939 1172.11 826.987 1171.84 827.317C1171.57 827.647 1171.62 828.134 1171.95 828.405C1172.28 828.676 1172.76 828.628 1173.04 828.298C1173.31 827.968 1173.26 827.481 1172.93 827.21Z" fill="white"/>
<path d="M1047.23 710.709C1046.9 710.438 1046.41 710.486 1046.14 710.816C1045.87 711.146 1045.92 711.633 1046.25 711.904C1046.58 712.175 1047.07 712.127 1047.34 711.797C1047.61 711.467 1047.56 710.98 1047.23 710.709Z" fill="white"/>
<path d="M1300.17 929.661C1299.84 929.39 1299.35 929.438 1299.08 929.768C1298.81 930.098 1298.86 930.585 1299.19 930.856C1299.52 931.127 1300.01 931.079 1300.28 930.749C1300.55 930.419 1300.5 929.932 1300.17 929.661Z" fill="white"/>
<path d="M1136.77 854.199C1136.44 853.928 1135.96 853.976 1135.69 854.306C1135.41 854.636 1135.46 855.123 1135.79 855.394C1136.12 855.665 1136.61 855.617 1136.88 855.287C1137.15 854.957 1137.1 854.47 1136.77 854.199Z" fill="white"/>
<path d="M1230.27 881.616C1229.94 881.345 1229.45 881.393 1229.18 881.723C1228.91 882.053 1228.96 882.54 1229.29 882.811C1229.62 883.082 1230.11 883.034 1230.38 882.704C1230.65 882.374 1230.6 881.887 1230.27 881.616Z" fill="white"/>
<path d="M1143.96 782.107C1143.63 781.836 1143.14 781.884 1142.87 782.214C1142.6 782.544 1142.65 783.031 1142.98 783.302C1143.31 783.572 1143.79 783.524 1144.07 783.194C1144.34 782.865 1144.29 782.377 1143.96 782.107Z" fill="white"/>
<path d="M1016.18 722.554C1015.85 722.283 1015.36 722.331 1015.09 722.661C1014.82 722.991 1014.87 723.478 1015.2 723.749C1015.53 724.02 1016.01 723.972 1016.28 723.642C1016.55 723.312 1016.51 722.825 1016.18 722.554Z" fill="white"/>
<path d="M988.635 736.613C988.305 736.342 987.818 736.39 987.547 736.72C987.277 737.05 987.325 737.538 987.655 737.808C987.985 738.079 988.472 738.031 988.742 737.701C989.013 737.371 988.965 736.884 988.635 736.613Z" fill="white"/>
<path opacity="0.3" d="M1078.58 819.101C1078.14 818.739 1077.49 818.803 1077.13 819.243C1076.77 819.684 1076.84 820.333 1077.28 820.694C1077.72 821.056 1078.37 820.992 1078.73 820.552C1079.09 820.112 1079.02 819.462 1078.58 819.101Z" fill="white"/>
<path d="M1055.37 847.384C1054.93 847.023 1054.28 847.087 1053.92 847.527C1053.56 847.967 1053.62 848.616 1054.06 848.978C1054.51 849.339 1055.15 849.275 1055.52 848.835C1055.88 848.395 1055.81 847.745 1055.37 847.384Z" fill="white"/>
<path d="M1065.26 793.51C1064.93 793.239 1064.45 793.287 1064.17 793.617C1063.9 793.947 1063.95 794.434 1064.28 794.705C1064.61 794.976 1065.1 794.928 1065.37 794.598C1065.64 794.268 1065.59 793.781 1065.26 793.51Z" fill="white"/>
<path opacity="0.3" d="M1033.19 793.187C1032.75 792.825 1032.1 792.889 1031.74 793.329C1031.38 793.77 1031.45 794.419 1031.89 794.78C1032.33 795.142 1032.97 795.078 1033.34 794.638C1033.7 794.198 1033.63 793.548 1033.19 793.187Z" fill="white"/>
<path opacity="0.3" d="M1016.97 732.539C1016.53 732.178 1015.89 732.242 1015.52 732.682C1015.16 733.122 1015.23 733.772 1015.67 734.133C1016.11 734.494 1016.76 734.43 1017.12 733.99C1017.48 733.55 1017.41 732.9 1016.97 732.539Z" fill="white"/>
<path opacity="0.3" d="M1064.23 769.997C1063.79 769.636 1063.14 769.7 1062.78 770.14C1062.42 770.58 1062.48 771.23 1062.92 771.591C1063.36 771.952 1064.01 771.888 1064.37 771.448C1064.73 771.008 1064.67 770.358 1064.23 769.997Z" fill="white"/>
<path opacity="0.3" d="M1298.41 950.883C1297.97 950.522 1297.32 950.586 1296.96 951.026C1296.6 951.466 1296.66 952.115 1297.1 952.477C1297.54 952.838 1298.19 952.774 1298.55 952.334C1298.92 951.894 1298.85 951.244 1298.41 950.883Z" fill="white"/>
<path opacity="0.11" d="M1023.5 757.894C1023.06 757.532 1022.41 757.596 1022.05 758.036C1021.69 758.477 1021.75 759.126 1022.19 759.487C1022.63 759.849 1023.28 759.785 1023.64 759.345C1024 758.905 1023.94 758.255 1023.5 757.894Z" fill="white"/>
<path opacity="0.3" d="M1244.62 966.064C1244.18 965.702 1243.53 965.766 1243.17 966.206C1242.81 966.646 1242.87 967.296 1243.31 967.657C1243.75 968.019 1244.4 967.955 1244.77 967.515C1245.13 967.075 1245.06 966.425 1244.62 966.064Z" fill="white"/>
<path opacity="0.11" d="M1248.84 982.857C1248.4 982.495 1247.75 982.559 1247.39 982.999C1247.03 983.439 1247.09 984.089 1247.53 984.45C1247.97 984.812 1248.62 984.748 1248.98 984.308C1249.34 983.867 1249.28 983.218 1248.84 982.857Z" fill="white"/>
<path opacity="0.3" d="M1272.95 959.98C1272.51 959.618 1271.86 959.682 1271.5 960.122C1271.13 960.562 1271.2 961.212 1271.64 961.573C1272.08 961.935 1272.73 961.871 1273.09 961.431C1273.45 960.991 1273.39 960.341 1272.95 959.98Z" fill="white"/>
<path d="M1247.73 939.947C1247.4 939.676 1246.91 939.724 1246.64 940.054C1246.37 940.384 1246.42 940.871 1246.75 941.142C1247.08 941.413 1247.56 941.365 1247.84 941.035C1248.11 940.705 1248.06 940.218 1247.73 939.947Z" fill="white"/>
<path opacity="0.11" d="M937.924 889.898C937.484 889.536 936.834 889.6 936.473 890.04C936.112 890.48 936.176 891.13 936.616 891.491C937.056 891.853 937.706 891.789 938.067 891.349C938.428 890.908 938.364 890.259 937.924 889.898Z" fill="white"/>
<path d="M938.933 883.394C938.603 883.123 938.116 883.171 937.845 883.501C937.574 883.831 937.622 884.318 937.952 884.589C938.282 884.86 938.769 884.812 939.04 884.482C939.311 884.152 939.263 883.664 938.933 883.394Z" fill="white"/>
<path d="M918.924 880.965C918.594 880.694 918.107 880.742 917.836 881.072C917.565 881.402 917.613 881.889 917.943 882.16C918.273 882.431 918.76 882.383 919.031 882.053C919.302 881.723 919.254 881.236 918.924 880.965Z" fill="white"/>
<path d="M952.124 909.555C951.794 909.284 951.307 909.332 951.036 909.662C950.765 909.992 950.813 910.479 951.143 910.75C951.473 911.021 951.96 910.973 952.231 910.643C952.502 910.313 952.454 909.826 952.124 909.555Z" fill="white"/>
<path opacity="0.11" d="M979.687 916.181C979.247 915.819 978.597 915.883 978.236 916.324C977.875 916.764 977.938 917.413 978.379 917.775C978.819 918.136 979.468 918.072 979.83 917.632C980.191 917.192 980.127 916.542 979.687 916.181Z" fill="white"/>
<path d="M980.061 931.152C979.842 930.972 979.517 931.004 979.337 931.224C979.156 931.444 979.188 931.768 979.408 931.949C979.628 932.129 979.952 932.097 980.133 931.877C980.313 931.657 980.281 931.333 980.061 931.152Z" fill="white"/>
<path d="M951.872 875.349C951.652 875.168 951.327 875.2 951.147 875.42C950.967 875.64 950.998 875.964 951.218 876.145C951.438 876.325 951.763 876.293 951.943 876.074C952.124 875.854 952.092 875.529 951.872 875.349Z" fill="white"/>
<path d="M865.041 804.079C864.822 803.899 864.497 803.931 864.317 804.15C864.136 804.37 864.168 804.695 864.388 804.875C864.608 805.056 864.932 805.024 865.113 804.804C865.293 804.584 865.261 804.26 865.041 804.079Z" fill="white"/>
<path d="M803.971 789.954C803.751 789.774 803.427 789.806 803.246 790.025C803.066 790.245 803.098 790.57 803.318 790.75C803.538 790.931 803.862 790.899 804.043 790.679C804.223 790.459 804.191 790.135 803.971 789.954Z" fill="white"/>
<path d="M812.304 748.124C812.084 747.944 811.76 747.976 811.579 748.195C811.399 748.415 811.431 748.74 811.651 748.92C811.87 749.101 812.195 749.069 812.375 748.849C812.556 748.629 812.524 748.305 812.304 748.124Z" fill="white"/>
<path d="M1076.33 994.178C1076.11 993.997 1075.79 994.029 1075.61 994.249C1075.43 994.469 1075.46 994.794 1075.68 994.974C1075.9 995.154 1076.22 995.123 1076.4 994.903C1076.58 994.683 1076.55 994.358 1076.33 994.178Z" fill="white"/>
<path opacity="0.11" d="M1064.65 1020.59C1064.43 1020.41 1064.1 1020.44 1063.92 1020.66C1063.74 1020.88 1063.78 1021.2 1064 1021.38C1064.21 1021.56 1064.54 1021.53 1064.72 1021.31C1064.9 1021.09 1064.87 1020.77 1064.65 1020.59Z" fill="white"/>
<path opacity="0.11" d="M1089.29 1025.48C1089.07 1025.3 1088.75 1025.33 1088.57 1025.55C1088.39 1025.77 1088.42 1026.1 1088.64 1026.28C1088.86 1026.46 1089.19 1026.43 1089.37 1026.21C1089.55 1025.99 1089.51 1025.66 1089.29 1025.48Z" fill="white"/>
<path opacity="0.11" d="M1095.77 990.796C1095.55 990.615 1095.22 990.647 1095.04 990.867C1094.86 991.087 1094.89 991.412 1095.11 991.592C1095.33 991.773 1095.66 991.741 1095.84 991.521C1096.02 991.301 1095.99 990.976 1095.77 990.796Z" fill="white"/>
<path opacity="0.11" d="M987.896 928.92C987.676 928.739 987.351 928.771 987.171 928.991C986.991 929.211 987.022 929.536 987.242 929.716C987.462 929.897 987.787 929.865 987.967 929.645C988.148 929.425 988.116 929.1 987.896 928.92Z" fill="white"/>
<path opacity="0.11" d="M964.437 861.657C964.217 861.477 963.892 861.509 963.712 861.729C963.531 861.948 963.563 862.273 963.783 862.453C964.003 862.634 964.328 862.602 964.508 862.382C964.688 862.162 964.657 861.838 964.437 861.657Z" fill="white"/>
<path opacity="0.11" d="M884.693 802.88C884.473 802.699 884.149 802.731 883.968 802.951C883.788 803.171 883.82 803.496 884.039 803.676C884.259 803.857 884.584 803.825 884.764 803.605C884.945 803.385 884.913 803.06 884.693 802.88Z" fill="white"/>
<path opacity="0.3" d="M1049.83 989.095C1049.61 988.914 1049.29 988.946 1049.11 989.166C1048.93 989.386 1048.96 989.711 1049.18 989.891C1049.4 990.071 1049.73 990.04 1049.91 989.82C1050.09 989.6 1050.05 989.275 1049.83 989.095Z" fill="white"/>
<path d="M940.572 935.406C940.352 935.226 940.027 935.258 939.847 935.478C939.666 935.697 939.698 936.022 939.918 936.203C940.138 936.383 940.462 936.351 940.643 936.131C940.823 935.911 940.792 935.587 940.572 935.406Z" fill="white"/>
<path d="M878.579 885.862C878.359 885.682 878.035 885.714 877.854 885.934C877.674 886.154 877.706 886.478 877.926 886.659C878.146 886.839 878.47 886.807 878.651 886.587C878.831 886.367 878.799 886.043 878.579 885.862Z" fill="white"/>
<path d="M997.735 920.994C997.515 920.814 997.191 920.846 997.01 921.066C996.83 921.285 996.862 921.61 997.082 921.79C997.302 921.971 997.626 921.939 997.807 921.719C997.987 921.499 997.955 921.175 997.735 920.994Z" fill="white"/>
<path opacity="0.3" d="M1025.62 943.881C1025.4 943.7 1025.07 943.732 1024.89 943.952C1024.71 944.172 1024.74 944.497 1024.96 944.677C1025.18 944.858 1025.51 944.826 1025.69 944.606C1025.87 944.386 1025.84 944.061 1025.62 943.881Z" fill="white"/>
<path opacity="0.11" d="M1038 995.381C1037.78 995.2 1037.46 995.232 1037.28 995.452C1037.1 995.672 1037.13 995.997 1037.35 996.177C1037.57 996.358 1037.89 996.326 1038.07 996.106C1038.25 995.886 1038.22 995.561 1038 995.381Z" fill="white"/>
<path opacity="0.3" d="M941.247 919.958C941.027 919.778 940.703 919.81 940.522 920.029C940.342 920.249 940.373 920.574 940.593 920.754C940.813 920.935 941.138 920.903 941.318 920.683C941.499 920.463 941.467 920.139 941.247 919.958Z" fill="white"/>
<path opacity="0.3" d="M997.174 907.865C996.955 907.685 996.63 907.717 996.45 907.937C996.269 908.156 996.301 908.481 996.521 908.661C996.741 908.842 997.065 908.81 997.246 908.59C997.426 908.37 997.394 908.046 997.174 907.865Z" fill="white"/>
<path opacity="0.3" d="M1048.64 943.445C1048.42 943.265 1048.09 943.297 1047.91 943.517C1047.73 943.737 1047.76 944.061 1047.98 944.242C1048.2 944.422 1048.53 944.39 1048.71 944.17C1048.89 943.95 1048.86 943.626 1048.64 943.445Z" fill="white"/>
<path opacity="0.3" d="M1038.29 979.609C1038.07 979.429 1037.74 979.461 1037.56 979.681C1037.38 979.901 1037.41 980.225 1037.63 980.406C1037.85 980.586 1038.18 980.554 1038.36 980.334C1038.54 980.114 1038.5 979.79 1038.29 979.609Z" fill="white"/>
<path opacity="0.3" d="M789.563 777.458C789.343 777.278 789.018 777.309 788.838 777.529C788.657 777.749 788.689 778.074 788.909 778.254C789.129 778.435 789.454 778.403 789.634 778.183C789.815 777.963 789.783 777.639 789.563 777.458Z" fill="white"/>
<path opacity="0.11" d="M840.284 846.427C840.064 846.246 839.739 846.278 839.559 846.498C839.378 846.718 839.41 847.043 839.63 847.223C839.85 847.403 840.175 847.372 840.355 847.152C840.536 846.932 840.504 846.607 840.284 846.427Z" fill="white"/>
<path opacity="0.11" d="M814.374 769.16C814.154 768.98 813.83 769.012 813.649 769.232C813.469 769.451 813.501 769.776 813.721 769.956C813.941 770.137 814.265 770.105 814.446 769.885C814.626 769.665 814.594 769.341 814.374 769.16Z" fill="white"/>
<path opacity="0.3" d="M918.088 848.29C917.647 847.929 916.998 847.993 916.637 848.433C916.275 848.873 916.339 849.523 916.779 849.884C917.219 850.245 917.869 850.181 918.23 849.741C918.592 849.301 918.528 848.651 918.088 848.29Z" fill="white"/>
<path opacity="0.11" d="M884.779 840.949C884.339 840.588 883.689 840.652 883.328 841.092C882.967 841.532 883.031 842.182 883.471 842.543C883.911 842.904 884.561 842.84 884.922 842.4C885.283 841.96 885.219 841.311 884.779 840.949Z" fill="white"/>
<path d="M873.534 855.051C873.204 854.78 872.717 854.828 872.446 855.158C872.175 855.488 872.223 855.975 872.553 856.246C872.883 856.517 873.37 856.469 873.641 856.139C873.912 855.809 873.864 855.322 873.534 855.051Z" fill="white"/>
<path d="M935.344 835.786C935.014 835.515 934.527 835.563 934.256 835.893C933.985 836.223 934.033 836.71 934.363 836.981C934.693 837.252 935.18 837.204 935.451 836.874C935.722 836.544 935.674 836.057 935.344 835.786Z" fill="white"/>
<path d="M809.65 719.278C809.32 719.007 808.833 719.055 808.562 719.385C808.291 719.715 808.339 720.203 808.669 720.473C808.999 720.744 809.486 720.696 809.757 720.366C810.028 720.036 809.98 719.549 809.65 719.278Z" fill="white"/>
<path d="M1062.59 938.23C1062.26 937.959 1061.77 938.007 1061.5 938.337C1061.23 938.667 1061.28 939.154 1061.61 939.425C1061.94 939.695 1062.42 939.648 1062.7 939.318C1062.97 938.988 1062.92 938.5 1062.59 938.23Z" fill="white"/>
<path d="M1108.04 990.868C1107.71 990.597 1107.22 990.645 1106.95 990.975C1106.68 991.305 1106.73 991.792 1107.06 992.063C1107.39 992.334 1107.88 992.286 1108.15 991.956C1108.42 991.626 1108.37 991.139 1108.04 990.868Z" fill="white"/>
<path d="M1101.73 1012.36C1101.4 1012.09 1100.92 1012.14 1100.65 1012.47C1100.38 1012.8 1100.42 1013.28 1100.75 1013.56C1101.08 1013.83 1101.57 1013.78 1101.84 1013.45C1102.11 1013.12 1102.06 1012.63 1101.73 1012.36Z" fill="white"/>
<path d="M899.191 862.775C898.861 862.505 898.374 862.552 898.103 862.882C897.833 863.212 897.88 863.7 898.21 863.97C898.54 864.241 899.028 864.193 899.298 863.863C899.569 863.533 899.521 863.046 899.191 862.775Z" fill="white"/>
<path d="M992.689 890.184C992.359 889.913 991.872 889.961 991.601 890.291C991.331 890.621 991.378 891.108 991.708 891.379C992.038 891.65 992.526 891.602 992.796 891.272C993.067 890.942 993.019 890.455 992.689 890.184Z" fill="white"/>
<path d="M906.376 790.675C906.046 790.404 905.559 790.452 905.288 790.782C905.017 791.112 905.065 791.599 905.395 791.87C905.725 792.141 906.212 792.093 906.483 791.763C906.754 791.433 906.706 790.946 906.376 790.675Z" fill="white"/>
<path d="M778.595 731.121C778.265 730.85 777.778 730.898 777.507 731.228C777.236 731.558 777.284 732.045 777.614 732.316C777.944 732.587 778.431 732.539 778.702 732.209C778.973 731.879 778.925 731.392 778.595 731.121Z" fill="white"/>
<path d="M751.055 745.18C750.725 744.909 750.238 744.957 749.967 745.287C749.697 745.617 749.745 746.104 750.075 746.375C750.404 746.646 750.892 746.598 751.162 746.268C751.433 745.938 751.385 745.451 751.055 745.18Z" fill="white"/>
<path opacity="0.3" d="M840.999 827.678C840.559 827.317 839.91 827.38 839.548 827.821C839.187 828.261 839.251 828.91 839.691 829.272C840.131 829.633 840.781 829.569 841.142 829.129C841.503 828.689 841.44 828.039 840.999 827.678Z" fill="white"/>
<path d="M817.789 855.96C817.349 855.599 816.699 855.663 816.338 856.103C815.977 856.543 816.041 857.193 816.481 857.554C816.921 857.915 817.57 857.851 817.932 857.411C818.293 856.971 818.229 856.321 817.789 855.96Z" fill="white"/>
<path d="M827.681 802.078C827.351 801.807 826.864 801.855 826.593 802.185C826.322 802.515 826.37 803.002 826.7 803.273C827.03 803.544 827.517 803.496 827.788 803.166C828.059 802.836 828.011 802.349 827.681 802.078Z" fill="white"/>
<path opacity="0.3" d="M795.611 801.754C795.171 801.393 794.522 801.457 794.16 801.897C793.799 802.337 793.863 802.987 794.303 803.348C794.743 803.709 795.393 803.645 795.754 803.205C796.115 802.765 796.051 802.115 795.611 801.754Z" fill="white"/>
<path opacity="0.3" d="M779.394 741.109C778.954 740.747 778.304 740.811 777.943 741.251C777.582 741.691 777.646 742.341 778.086 742.702C778.526 743.064 779.176 743 779.537 742.56C779.898 742.119 779.834 741.47 779.394 741.109Z" fill="white"/>
<path opacity="0.3" d="M826.648 778.565C826.208 778.203 825.559 778.267 825.197 778.707C824.836 779.147 824.9 779.797 825.34 780.158C825.78 780.52 826.43 780.456 826.791 780.016C827.152 779.575 827.088 778.926 826.648 778.565Z" fill="white"/>
<path opacity="0.3" d="M1060.83 959.451C1060.39 959.09 1059.74 959.154 1059.38 959.594C1059.02 960.034 1059.08 960.684 1059.52 961.045C1059.96 961.406 1060.61 961.342 1060.97 960.902C1061.33 960.462 1061.27 959.813 1060.83 959.451Z" fill="white"/>
<path opacity="0.3" d="M1075.11 1007.84C1074.67 1007.48 1074.02 1007.55 1073.66 1007.99C1073.3 1008.43 1073.36 1009.08 1073.81 1009.44C1074.25 1009.8 1074.89 1009.74 1075.26 1009.3C1075.62 1008.86 1075.55 1008.21 1075.11 1007.84Z" fill="white"/>
<path opacity="0.11" d="M785.916 766.462C785.475 766.101 784.826 766.165 784.465 766.605C784.103 767.045 784.167 767.695 784.607 768.056C785.047 768.417 785.697 768.353 786.058 767.913C786.42 767.473 786.356 766.823 785.916 766.462Z" fill="white"/>
<path opacity="0.3" d="M1007.04 974.632C1006.6 974.271 1005.95 974.335 1005.59 974.775C1005.23 975.215 1005.29 975.864 1005.73 976.226C1006.17 976.587 1006.82 976.523 1007.18 976.083C1007.55 975.643 1007.48 974.993 1007.04 974.632Z" fill="white"/>
<path opacity="0.11" d="M1011.26 991.426C1010.82 991.065 1010.17 991.129 1009.8 991.569C1009.44 992.009 1009.51 992.658 1009.95 993.02C1010.39 993.381 1011.04 993.317 1011.4 992.877C1011.76 992.437 1011.7 991.787 1011.26 991.426Z" fill="white"/>
<path opacity="0.3" d="M1035.36 968.548C1034.92 968.187 1034.27 968.251 1033.91 968.691C1033.55 969.131 1033.62 969.78 1034.06 970.142C1034.5 970.503 1035.15 970.439 1035.51 969.999C1035.87 969.559 1035.8 968.909 1035.36 968.548Z" fill="white"/>
<path d="M1010.15 948.516C1009.82 948.245 1009.33 948.293 1009.06 948.623C1008.79 948.953 1008.84 949.44 1009.17 949.711C1009.5 949.982 1009.98 949.934 1010.25 949.604C1010.52 949.274 1010.48 948.787 1010.15 948.516Z" fill="white"/>
<path opacity="0.11" d="M779.71 655.581C779.27 655.22 778.621 655.284 778.259 655.724C777.898 656.164 777.962 656.814 778.402 657.175C778.842 657.536 779.492 657.472 779.853 657.032C780.214 656.592 780.15 655.942 779.71 655.581Z" fill="white"/>
<path d="M780.72 649.077C780.39 648.806 779.903 648.854 779.632 649.184C779.361 649.514 779.409 650.001 779.739 650.272C780.069 650.543 780.556 650.495 780.827 650.165C781.098 649.835 781.05 649.348 780.72 649.077Z" fill="white"/>
<path d="M760.71 646.649C760.38 646.379 759.893 646.427 759.622 646.757C759.351 647.087 759.399 647.574 759.729 647.845C760.059 648.115 760.546 648.067 760.817 647.737C761.088 647.407 761.04 646.92 760.71 646.649Z" fill="white"/>
<path d="M793.91 675.239C793.58 674.968 793.093 675.016 792.822 675.346C792.551 675.676 792.599 676.163 792.929 676.434C793.259 676.705 793.746 676.657 794.017 676.327C794.288 675.997 794.24 675.51 793.91 675.239Z" fill="white"/>
<path opacity="0.11" d="M821.474 681.864C821.034 681.503 820.384 681.567 820.023 682.007C819.661 682.447 819.725 683.097 820.165 683.458C820.606 683.819 821.255 683.756 821.616 683.315C821.978 682.875 821.914 682.226 821.474 681.864Z" fill="white"/>
<path d="M821.849 696.837C821.629 696.656 821.304 696.688 821.124 696.908C820.943 697.128 820.975 697.453 821.195 697.633C821.415 697.814 821.739 697.782 821.92 697.562C822.1 697.342 822.068 697.017 821.849 696.837Z" fill="white"/>
<path d="M793.658 641.032C793.438 640.852 793.113 640.884 792.933 641.104C792.752 641.323 792.784 641.648 793.004 641.828C793.224 642.009 793.548 641.977 793.729 641.757C793.909 641.537 793.877 641.213 793.658 641.032Z" fill="white"/>
<path d="M706.829 569.754C706.609 569.573 706.284 569.605 706.104 569.825C705.924 570.045 705.955 570.37 706.175 570.55C706.395 570.731 706.72 570.699 706.9 570.479C707.081 570.259 707.049 569.934 706.829 569.754Z" fill="white"/>
<path d="M645.759 555.63C645.539 555.449 645.215 555.481 645.034 555.701C644.854 555.921 644.886 556.246 645.106 556.426C645.325 556.607 645.65 556.575 645.831 556.355C646.011 556.135 645.979 555.81 645.759 555.63Z" fill="white"/>
<path d="M654.091 513.8C653.871 513.619 653.547 513.651 653.366 513.871C653.186 514.091 653.218 514.416 653.437 514.596C653.657 514.777 653.982 514.745 654.162 514.525C654.343 514.305 654.311 513.98 654.091 513.8Z" fill="white"/>
<path d="M918.118 759.863C917.898 759.683 917.573 759.715 917.393 759.935C917.212 760.155 917.244 760.479 917.464 760.66C917.684 760.84 918.008 760.808 918.189 760.588C918.369 760.368 918.337 760.044 918.118 759.863Z" fill="white"/>
<path opacity="0.11" d="M906.436 786.272C906.216 786.091 905.892 786.123 905.711 786.343C905.531 786.563 905.563 786.887 905.782 787.068C906.002 787.248 906.327 787.216 906.507 786.996C906.688 786.777 906.656 786.452 906.436 786.272Z" fill="white"/>
<path opacity="0.11" d="M931.081 791.167C930.861 790.987 930.537 791.018 930.356 791.238C930.176 791.458 930.208 791.783 930.428 791.963C930.647 792.144 930.972 792.112 931.152 791.892C931.333 791.672 931.301 791.347 931.081 791.167Z" fill="white"/>
<path opacity="0.11" d="M937.555 756.481C937.335 756.301 937.01 756.333 936.83 756.553C936.649 756.773 936.681 757.097 936.901 757.278C937.121 757.458 937.446 757.426 937.626 757.206C937.807 756.987 937.775 756.662 937.555 756.481Z" fill="white"/>
<path opacity="0.11" d="M829.683 694.606C829.464 694.426 829.139 694.458 828.959 694.678C828.778 694.898 828.81 695.222 829.03 695.403C829.25 695.583 829.574 695.551 829.755 695.331C829.935 695.112 829.903 694.787 829.683 694.606Z" fill="white"/>
<path opacity="0.11" d="M806.226 627.349C806.006 627.168 805.681 627.2 805.501 627.42C805.32 627.64 805.352 627.964 805.572 628.145C805.792 628.325 806.116 628.293 806.297 628.074C806.477 627.854 806.445 627.529 806.226 627.349Z" fill="white"/>
<path opacity="0.11" d="M726.482 568.556C726.262 568.375 725.937 568.407 725.757 568.627C725.576 568.847 725.608 569.171 725.828 569.352C726.048 569.532 726.372 569.5 726.553 569.281C726.733 569.061 726.701 568.736 726.482 568.556Z" fill="white"/>
<path opacity="0.3" d="M891.621 754.778C891.401 754.598 891.077 754.63 890.896 754.85C890.716 755.07 890.748 755.394 890.967 755.575C891.187 755.755 891.512 755.723 891.692 755.503C891.873 755.283 891.841 754.959 891.621 754.778Z" fill="white"/>
<path d="M782.359 701.092C782.139 700.911 781.815 700.943 781.634 701.163C781.454 701.383 781.486 701.708 781.706 701.888C781.925 702.069 782.25 702.037 782.431 701.817C782.611 701.597 782.579 701.272 782.359 701.092Z" fill="white"/>
<path d="M720.368 651.538C720.148 651.358 719.824 651.39 719.643 651.609C719.463 651.829 719.495 652.154 719.714 652.334C719.934 652.515 720.259 652.483 720.439 652.263C720.62 652.043 720.588 651.719 720.368 651.538Z" fill="white"/>
<path d="M839.523 686.68C839.303 686.499 838.979 686.531 838.798 686.751C838.618 686.971 838.65 687.295 838.87 687.476C839.09 687.656 839.414 687.624 839.595 687.405C839.775 687.185 839.743 686.86 839.523 686.68Z" fill="white"/>
<path opacity="0.3" d="M867.404 709.565C867.184 709.385 866.859 709.417 866.679 709.637C866.498 709.857 866.53 710.181 866.75 710.362C866.97 710.542 867.295 710.51 867.475 710.29C867.655 710.07 867.624 709.746 867.404 709.565Z" fill="white"/>
<path opacity="0.11" d="M879.789 761.064C879.569 760.884 879.245 760.916 879.064 761.136C878.884 761.356 878.916 761.68 879.136 761.861C879.356 762.041 879.68 762.009 879.861 761.789C880.041 761.57 880.009 761.245 879.789 761.064Z" fill="white"/>
<path opacity="0.3" d="M783.033 685.643C782.814 685.462 782.489 685.494 782.309 685.714C782.128 685.934 782.16 686.258 782.38 686.439C782.6 686.619 782.924 686.587 783.105 686.368C783.285 686.148 783.253 685.823 783.033 685.643Z" fill="white"/>
<path opacity="0.3" d="M838.961 673.549C838.741 673.368 838.416 673.4 838.236 673.62C838.055 673.84 838.087 674.165 838.307 674.345C838.527 674.526 838.852 674.494 839.032 674.274C839.213 674.054 839.181 673.729 838.961 673.549Z" fill="white"/>
<path opacity="0.3" d="M890.425 709.13C890.205 708.949 889.881 708.981 889.7 709.201C889.52 709.421 889.552 709.746 889.771 709.926C889.991 710.107 890.316 710.075 890.496 709.855C890.677 709.635 890.645 709.31 890.425 709.13Z" fill="white"/>
<path opacity="0.3" d="M880.072 745.295C879.852 745.114 879.527 745.146 879.347 745.366C879.166 745.586 879.198 745.911 879.418 746.091C879.638 746.272 879.962 746.24 880.143 746.02C880.323 745.8 880.291 745.475 880.072 745.295Z" fill="white"/>
<path opacity="0.3" d="M631.351 543.134C631.131 542.953 630.806 542.985 630.626 543.205C630.445 543.425 630.477 543.75 630.697 543.93C630.917 544.111 631.242 544.079 631.422 543.859C631.603 543.639 631.571 543.314 631.351 543.134Z" fill="white"/>
<path opacity="0.11" d="M682.072 612.103C681.852 611.922 681.527 611.954 681.347 612.174C681.166 612.394 681.198 612.718 681.418 612.899C681.638 613.079 681.962 613.047 682.143 612.827C682.323 612.608 682.291 612.283 682.072 612.103Z" fill="white"/>
<path opacity="0.11" d="M656.161 534.836C655.941 534.656 655.616 534.687 655.436 534.907C655.255 535.127 655.287 535.452 655.507 535.632C655.727 535.813 656.052 535.781 656.232 535.561C656.413 535.341 656.381 535.016 656.161 534.836Z" fill="white"/>
<path opacity="0.3" d="M759.876 613.967C759.436 613.606 758.786 613.67 758.425 614.11C758.064 614.55 758.128 615.199 758.568 615.561C759.008 615.922 759.658 615.858 760.019 615.418C760.38 614.978 760.316 614.328 759.876 613.967Z" fill="white"/>
<path opacity="0.11" d="M726.566 606.624C726.126 606.263 725.477 606.327 725.115 606.767C724.754 607.207 724.818 607.857 725.258 608.218C725.698 608.579 726.348 608.515 726.709 608.075C727.07 607.635 727.006 606.985 726.566 606.624Z" fill="white"/>
<path d="M715.323 620.726C714.993 620.455 714.506 620.503 714.235 620.833C713.964 621.163 714.012 621.65 714.342 621.921C714.672 622.192 715.159 622.144 715.43 621.814C715.701 621.484 715.653 620.997 715.323 620.726Z" fill="white"/>
<path d="M777.133 601.462C776.803 601.191 776.316 601.239 776.045 601.569C775.774 601.899 775.822 602.386 776.152 602.657C776.482 602.928 776.969 602.88 777.24 602.55C777.511 602.22 777.463 601.733 777.133 601.462Z" fill="white"/>
<path d="M651.438 484.953C651.108 484.682 650.621 484.73 650.35 485.06C650.079 485.39 650.127 485.877 650.457 486.148C650.787 486.419 651.274 486.371 651.545 486.041C651.816 485.711 651.768 485.224 651.438 484.953Z" fill="white"/>
<path d="M904.376 703.914C904.046 703.643 903.559 703.691 903.288 704.021C903.017 704.351 903.065 704.838 903.395 705.109C903.725 705.38 904.212 705.332 904.483 705.002C904.754 704.672 904.706 704.185 904.376 703.914Z" fill="white"/>
<path d="M949.826 756.554C949.496 756.283 949.009 756.331 948.738 756.661C948.467 756.991 948.515 757.478 948.845 757.749C949.175 758.02 949.663 757.972 949.933 757.642C950.204 757.312 950.156 756.825 949.826 756.554Z" fill="white"/>
<path d="M943.521 778.044C943.191 777.773 942.704 777.821 942.433 778.151C942.162 778.481 942.21 778.968 942.54 779.239C942.87 779.51 943.357 779.462 943.628 779.132C943.899 778.802 943.851 778.315 943.521 778.044Z" fill="white"/>
<path d="M740.979 628.451C740.649 628.18 740.162 628.228 739.891 628.558C739.62 628.888 739.668 629.375 739.998 629.646C740.328 629.917 740.815 629.869 741.086 629.539C741.357 629.209 741.309 628.722 740.979 628.451Z" fill="white"/>
<path d="M834.476 655.867C834.146 655.596 833.659 655.644 833.388 655.974C833.117 656.304 833.165 656.791 833.495 657.062C833.825 657.333 834.312 657.285 834.583 656.955C834.854 656.625 834.806 656.138 834.476 655.867Z" fill="white"/>
<path d="M748.164 556.35C747.834 556.079 747.347 556.127 747.076 556.457C746.805 556.787 746.853 557.274 747.183 557.545C747.513 557.816 748 557.768 748.271 557.438C748.542 557.108 748.494 556.621 748.164 556.35Z" fill="white"/>
<path d="M620.384 496.797C620.054 496.526 619.567 496.574 619.296 496.904C619.025 497.234 619.073 497.721 619.403 497.992C619.733 498.263 620.22 498.215 620.491 497.885C620.762 497.555 620.714 497.068 620.384 496.797Z" fill="white"/>
<path d="M592.843 510.855C592.513 510.584 592.026 510.632 591.755 510.962C591.484 511.292 591.532 511.779 591.862 512.05C592.192 512.32 592.679 512.273 592.95 511.943C593.221 511.613 593.173 511.125 592.843 510.855Z" fill="white"/>
<path opacity="0.3" d="M682.79 593.36C682.35 592.999 681.7 593.063 681.339 593.503C680.978 593.943 681.042 594.593 681.482 594.954C681.922 595.316 682.571 595.252 682.933 594.811C683.294 594.371 683.23 593.722 682.79 593.36Z" fill="white"/>
<path d="M659.578 621.636C659.138 621.275 658.489 621.339 658.127 621.779C657.766 622.219 657.83 622.868 658.27 623.23C658.71 623.591 659.36 623.527 659.721 623.087C660.082 622.647 660.018 621.997 659.578 621.636Z" fill="white"/>
<path d="M669.469 567.754C669.139 567.483 668.652 567.531 668.381 567.861C668.11 568.191 668.158 568.678 668.488 568.949C668.818 569.22 669.305 569.172 669.576 568.842C669.847 568.512 669.799 568.025 669.469 567.754Z" fill="white"/>
<path opacity="0.3" d="M637.401 567.43C636.961 567.069 636.311 567.132 635.95 567.573C635.588 568.013 635.652 568.662 636.093 569.024C636.533 569.385 637.182 569.321 637.544 568.881C637.905 568.441 637.841 567.791 637.401 567.43Z" fill="white"/>
<path opacity="0.3" d="M621.181 506.782C620.741 506.421 620.092 506.485 619.73 506.925C619.369 507.365 619.433 508.015 619.873 508.376C620.313 508.737 620.963 508.673 621.324 508.233C621.685 507.793 621.621 507.144 621.181 506.782Z" fill="white"/>
<path opacity="0.3" d="M668.436 544.241C667.996 543.88 667.346 543.944 666.985 544.384C666.624 544.824 666.688 545.474 667.128 545.835C667.568 546.196 668.218 546.132 668.579 545.692C668.94 545.252 668.876 544.603 668.436 544.241Z" fill="white"/>
<path opacity="0.3" d="M902.616 725.136C902.176 724.775 901.526 724.838 901.165 725.279C900.804 725.719 900.868 726.368 901.308 726.73C901.748 727.091 902.398 727.027 902.759 726.587C903.12 726.147 903.056 725.497 902.616 725.136Z" fill="white"/>
<path opacity="0.3" d="M916.901 773.528C916.461 773.167 915.811 773.231 915.45 773.671C915.089 774.111 915.152 774.761 915.593 775.122C916.033 775.483 916.682 775.42 917.044 774.979C917.405 774.539 917.341 773.89 916.901 773.528Z" fill="white"/>
<path opacity="0.11" d="M627.704 532.138C627.264 531.777 626.614 531.84 626.253 532.281C625.892 532.721 625.956 533.37 626.396 533.732C626.836 534.093 627.486 534.029 627.847 533.589C628.208 533.149 628.144 532.499 627.704 532.138Z" fill="white"/>
<path opacity="0.3" d="M848.827 740.316C848.387 739.955 847.738 740.019 847.376 740.459C847.015 740.899 847.079 741.549 847.519 741.91C847.959 742.272 848.609 742.208 848.97 741.768C849.332 741.327 849.268 740.678 848.827 740.316Z" fill="white"/>
<path opacity="0.11" d="M853.043 757.11C852.603 756.749 851.953 756.813 851.592 757.253C851.231 757.693 851.295 758.343 851.735 758.704C852.175 759.066 852.824 759.002 853.186 758.562C853.547 758.121 853.483 757.472 853.043 757.11Z" fill="white"/>
<path opacity="0.3" d="M877.152 734.233C876.712 733.871 876.062 733.935 875.701 734.375C875.34 734.815 875.403 735.465 875.844 735.826C876.284 736.188 876.933 736.124 877.295 735.684C877.656 735.243 877.592 734.594 877.152 734.233Z" fill="white"/>
<path d="M851.933 714.2C851.603 713.929 851.116 713.977 850.845 714.307C850.574 714.637 850.622 715.124 850.952 715.395C851.282 715.666 851.769 715.618 852.04 715.288C852.311 714.958 852.263 714.471 851.933 714.2Z" fill="white"/>
<defs>
<filter id="filter0_f_2030_43057" x="0.724182" y="0.477936" width="1722.23" height="1450.71" filterUnits="userSpaceOnUse" color-interpolation-filters="sRGB">
<feFlood flood-opacity="0" result="BackgroundImageFix"/>
<feBlend mode="normal" in="SourceGraphic" in2="BackgroundImageFix" result="shape"/>
<feGaussianBlur stdDeviation="191.2" result="effect1_foregroundBlur_2030_43057"/>
</filter>
</defs>
</svg>
