<svg version="1.2" xmlns="http://www.w3.org/2000/svg" viewBox="0 0 88 87" width="88" height="87">
	<title>Group 1597884563 (5)</title>
	<defs>
		<linearGradient id="g1" x2="1" gradientUnits="userSpaceOnUse" gradientTransform="matrix(67.821,25.676,-25.453,67.234,30.611,12.707)">
			<stop offset="0" stop-color="#732cff"/>
			<stop offset="1" stop-color="#f46d6b"/>
		</linearGradient>
	</defs>
	<style>
		.s0 { fill: url(#g1) } 
		.s1 { fill: none;stroke: #ffffff;stroke-width: .4 } 
		.s2 { fill: #ffffff } 
		.s3 { opacity: .5;fill: #ffffff } 
	</style>
	<path fill-rule="evenodd" class="s0" d="m44 86c-23.8 0-43-19-43-42.5 0-23.5 19.2-42.5 43-42.5 23.8 0 43 19 43 42.5 0 23.5-19.2 42.5-43 42.5z"/>
	<g style="opacity: .5">
		<path fill-rule="evenodd" class="s1" d="m43.5 73.8c-17.3 0-31.3-13.5-31.3-30.3 0-16.8 14-30.3 31.3-30.3 17.3 0 31.3 13.5 31.3 30.3 0 16.8-14 30.3-31.3 30.3z"/>
	</g>
	<path class="s2" d="m32.7 56.1q-0.6 0-1.1-0.2-0.5-0.2-0.8-0.6-0.2-0.4-0.3-0.9h0.9q0 0.3 0.2 0.5 0.2 0.2 0.5 0.3 0.3 0.1 0.6 0.1 0.4 0 0.7-0.1 0.3-0.1 0.4-0.3 0.2-0.2 0.2-0.5 0-0.3-0.2-0.4-0.1-0.2-0.4-0.3-0.2-0.1-0.5-0.2l-0.7-0.2q-0.7-0.2-1.1-0.5-0.4-0.4-0.4-1 0-0.5 0.3-0.9 0.2-0.4 0.7-0.6 0.5-0.2 1-0.2 0.6 0 1.1 0.2 0.4 0.2 0.7 0.6 0.3 0.3 0.3 0.8h-0.9q0-0.4-0.3-0.6-0.4-0.2-0.9-0.2-0.3 0-0.6 0.1-0.3 0.1-0.4 0.3-0.1 0.2-0.1 0.4 0 0.3 0.1 0.5 0.2 0.1 0.4 0.2 0.3 0.1 0.5 0.2l0.6 0.2q0.3 0 0.6 0.1 0.2 0.2 0.5 0.4 0.3 0.1 0.4 0.4 0.2 0.3 0.2 0.7 0 0.5-0.3 0.9-0.2 0.4-0.7 0.6-0.5 0.2-1.2 0.2zm4.1 0q-0.4 0-0.7-0.2-0.4-0.1-0.6-0.4-0.1-0.3-0.1-0.7 0-0.4 0.1-0.6 0.1-0.3 0.4-0.4 0.2-0.2 0.5-0.2 0.3-0.1 0.6-0.1 0.4-0.1 0.7-0.1 0.2 0 0.3-0.1 0.1-0.1 0.1-0.2v-0.1q0-0.3-0.2-0.5-0.2-0.2-0.6-0.2-0.4 0-0.7 0.2-0.2 0.1-0.3 0.4l-0.8-0.2q0.1-0.4 0.4-0.6 0.3-0.3 0.6-0.4 0.4-0.1 0.8-0.1 0.2 0 0.5 0 0.3 0.1 0.6 0.3 0.3 0.1 0.4 0.4 0.2 0.3 0.2 0.8v2.9h-0.9v-0.6q-0.1 0.2-0.2 0.3-0.2 0.2-0.4 0.3-0.3 0.1-0.7 0.1zm0.2-0.7q0.4 0 0.6-0.1 0.3-0.2 0.4-0.4 0.1-0.2 0.1-0.5v-0.5q0 0-0.1 0-0.2 0.1-0.3 0.1-0.2 0-0.4 0.1-0.1 0-0.2 0-0.3 0-0.5 0.1-0.2 0.1-0.3 0.2-0.1 0.2-0.1 0.4 0 0.3 0.2 0.5 0.3 0.1 0.6 0.1zm4.1 0.7q-0.4 0-0.7-0.2-0.4-0.1-0.6-0.4-0.2-0.3-0.2-0.7 0-0.4 0.2-0.6 0.1-0.3 0.4-0.4 0.2-0.2 0.5-0.2 0.3-0.1 0.6-0.1 0.4-0.1 0.7-0.1 0.2 0 0.3-0.1 0.1-0.1 0.1-0.2v-0.1q0-0.3-0.2-0.5-0.2-0.2-0.6-0.2-0.4 0-0.7 0.2-0.2 0.1-0.3 0.4l-0.8-0.2q0.1-0.4 0.4-0.6 0.3-0.3 0.6-0.4 0.4-0.1 0.8-0.1 0.2 0 0.5 0 0.3 0.1 0.6 0.3 0.2 0.1 0.4 0.4 0.2 0.3 0.2 0.8v2.9h-0.9v-0.6q-0.1 0.2-0.2 0.3-0.2 0.2-0.5 0.3-0.2 0.1-0.6 0.1zm0.2-0.7q0.4 0 0.6-0.1 0.3-0.2 0.4-0.4 0.1-0.2 0.1-0.5v-0.5q0 0-0.2 0-0.1 0.1-0.2 0.1-0.2 0-0.4 0.1-0.1 0-0.2 0-0.3 0-0.5 0.1-0.2 0.1-0.3 0.2-0.1 0.2-0.1 0.4 0 0.3 0.2 0.5 0.2 0.1 0.6 0.1zm6.1-2.7l-0.8 0.1q0-0.2-0.2-0.4-0.2-0.1-0.6-0.1-0.4 0-0.6 0.1-0.3 0.2-0.3 0.4 0 0.2 0.2 0.4 0.1 0.1 0.5 0.2l0.7 0.2q0.6 0.1 0.9 0.4 0.3 0.3 0.3 0.7 0 0.4-0.2 0.7-0.3 0.3-0.7 0.5-0.4 0.2-0.9 0.2-0.7 0-1.2-0.3-0.4-0.3-0.6-0.9l0.9-0.1q0 0.3 0.3 0.4 0.2 0.2 0.6 0.2 0.4 0 0.7-0.2 0.2-0.1 0.2-0.4 0-0.4-0.6-0.6l-0.7-0.1q-0.6-0.2-0.9-0.5-0.3-0.3-0.3-0.7 0-0.4 0.2-0.7 0.2-0.3 0.6-0.5 0.4-0.1 0.9-0.1 0.7 0 1.1 0.3 0.4 0.3 0.5 0.8zm3.1 3.3h-0.9l2.1-5.8h1l2.1 5.8h-0.9l-1.7-4.8zm0.1-2.2h3.1v0.7h-3.1zm5.6-3.5v5.8h-0.9v-5.8z"/>
	<path class="s2" d="m32.7 31.2q0.7 0 1.5 0.3 0.8 0.3 1.4 0.9 0.6 0.6 0.9 1.7 0.4 1.1 0.4 2.7 0 1.5-0.3 2.7-0.3 1.2-0.9 2-0.5 0.8-1.4 1.2-0.8 0.5-1.8 0.5-1 0-1.8-0.4-0.8-0.5-1.3-1.2-0.5-0.7-0.7-1.6h1.8q0.1 0.7 0.7 1.2 0.5 0.4 1.3 0.4 1.3 0 2-1.1 0.7-1.1 0.7-3.1h-0.1q-0.3 0.5-0.7 0.8-0.4 0.4-1 0.6-0.5 0.2-1.1 0.2-1.1 0-1.9-0.5-0.8-0.5-1.3-1.4-0.5-0.8-0.5-2 0-1.1 0.5-2 0.5-0.9 1.4-1.4 0.9-0.5 2.2-0.5zm0 1.5q-0.7 0-1.2 0.3-0.6 0.3-0.9 0.9-0.3 0.5-0.3 1.2 0 0.7 0.3 1.3 0.3 0.5 0.8 0.8 0.6 0.3 1.2 0.3 0.7 0 1.2-0.3 0.6-0.3 0.9-0.9 0.3-0.5 0.3-1.2 0-0.6-0.3-1.2-0.3-0.5-0.8-0.9-0.6-0.3-1.2-0.3zm9.7 10.5q-1.3 0-2.3-0.7-0.9-0.7-1.5-2.1-0.5-1.3-0.5-3.2 0-1.9 0.6-3.2 0.5-1.4 1.4-2.1 1-0.7 2.3-0.7 1.4 0 2.3 0.7 1 0.7 1.5 2.1 0.5 1.3 0.5 3.2 0 1.9-0.5 3.2-0.5 1.4-1.5 2.1-0.9 0.7-2.3 0.7zm0-1.5q0.8 0 1.4-0.6 0.6-0.5 0.9-1.5 0.3-1 0.3-2.4 0-1.4-0.3-2.4-0.3-1-0.9-1.6-0.6-0.5-1.4-0.5-1.2 0-1.9 1.2-0.6 1.2-0.6 3.3 0 1.4 0.3 2.4 0.3 1 0.8 1.5 0.6 0.6 1.4 0.6zm11.8-0.9v-0.6q0-0.7 0.3-1.2 0.3-0.6 0.8-0.9 0.5-0.3 1.3-0.3 0.8 0 1.3 0.3 0.5 0.3 0.8 0.9 0.2 0.5 0.2 1.2v0.6q0 0.7-0.2 1.2-0.3 0.6-0.8 0.9-0.5 0.3-1.3 0.3-0.8 0-1.3-0.3-0.5-0.3-0.8-0.9-0.3-0.5-0.3-1.2zm-5.3 2.2l8-11.6h1.4l-8 11.6zm-0.6-8.8v-0.7q0-0.6 0.3-1.2 0.3-0.5 0.8-0.8 0.5-0.4 1.3-0.4 0.8 0 1.3 0.4 0.5 0.3 0.8 0.8 0.3 0.6 0.2 1.2v0.7q0.1 0.6-0.2 1.2-0.3 0.5-0.8 0.9-0.5 0.3-1.3 0.3-0.8 0-1.3-0.3-0.5-0.4-0.8-0.9-0.3-0.6-0.3-1.2zm1.4-0.7v0.7q0 0.4 0.2 0.8 0.2 0.4 0.8 0.4 0.6 0 0.8-0.4 0.2-0.4 0.2-0.8v-0.7q0-0.4-0.2-0.8-0.2-0.4-0.8-0.4-0.6 0-0.8 0.4-0.2 0.4-0.2 0.8zm5.8 6.7v0.6q0 0.5 0.2 0.9 0.3 0.4 0.9 0.4 0.5 0 0.8-0.4 0.2-0.4 0.2-0.9v-0.6q0-0.5-0.2-0.9-0.3-0.4-0.8-0.4-0.6 0-0.9 0.4-0.2 0.4-0.2 0.9z"/>
	<path fill-rule="evenodd" class="s3" d="m75 47c-1.1 0-2-0.9-2-2 0-1.1 0.9-2 2-2 1.1 0 2 0.9 2 2 0 1.1-0.9 2-2 2z"/>
	<path fill-rule="evenodd" class="s3" d="m13 48c-1.1 0-2-0.9-2-2 0-1.1 0.9-2 2-2 1.1 0 2 0.9 2 2 0 1.1-0.9 2-2 2z"/>
	<path fill-rule="evenodd" class="s3" d="m45 76c-1.1 0-2-0.9-2-2 0-1.1 0.9-2 2-2 1.1 0 2 0.9 2 2 0 1.1-0.9 2-2 2z"/>
</svg>