<svg width="49" height="49" viewBox="0 0 49 49" fill="none" xmlns="http://www.w3.org/2000/svg">
<g clip-path="url(#clip0_331_6268)">
<path d="M24.5 30.625C27.8827 30.625 30.625 27.8827 30.625 24.5C30.625 21.1173 27.8827 18.375 24.5 18.375C21.1173 18.375 18.375 21.1173 18.375 24.5C18.375 27.8827 21.1173 30.625 24.5 30.625Z" stroke="white" stroke-width="2.5" stroke-linecap="round" stroke-linejoin="round"/>
<path d="M39.6082 30.6253C39.3364 31.2411 39.2553 31.9242 39.3754 32.5865C39.4955 33.2488 39.8112 33.86 40.2819 34.3412L40.4044 34.4637C40.7841 34.8429 41.0853 35.2932 41.2907 35.7889C41.4962 36.2847 41.602 36.816 41.602 37.3526C41.602 37.8892 41.4962 38.4206 41.2907 38.9163C41.0853 39.412 40.7841 39.8623 40.4044 40.2416C40.0252 40.6212 39.5748 40.9224 39.0791 41.1279C38.5834 41.3334 38.0521 41.4392 37.5155 41.4392C36.9788 41.4392 36.4475 41.3334 35.9518 41.1279C35.4561 40.9224 35.0057 40.6212 34.6265 40.2416L34.504 40.1191C34.0228 39.6484 33.4117 39.3327 32.7494 39.2126C32.0871 39.0925 31.404 39.1735 30.7882 39.4453C30.1843 39.7041 29.6693 40.1339 29.3065 40.6816C28.9438 41.2294 28.7491 41.8713 28.7465 42.5282V42.8753C28.7465 43.9583 28.3163 44.9969 27.5505 45.7627C26.7847 46.5284 25.7461 46.9587 24.6632 46.9587C23.5802 46.9587 22.5416 46.5284 21.7758 45.7627C21.01 44.9969 20.5798 43.9583 20.5798 42.8753V42.6916C20.564 42.0158 20.3453 41.3604 19.952 40.8106C19.5588 40.2608 19.0093 39.842 18.3748 39.6087C17.759 39.3369 17.0759 39.2558 16.4136 39.3759C15.7513 39.496 15.1402 39.8117 14.659 40.2824L14.5365 40.4049C14.1573 40.7846 13.7069 41.0857 13.2112 41.2912C12.7155 41.4967 12.1842 41.6025 11.6475 41.6025C11.1109 41.6025 10.5796 41.4967 10.0839 41.2912C9.58816 41.0857 9.13782 40.7846 8.75859 40.4049C8.37893 40.0257 8.07775 39.5753 7.87226 39.0796C7.66677 38.5839 7.561 38.0526 7.561 37.5159C7.561 36.9793 7.66677 36.448 7.87226 35.9523C8.07775 35.4566 8.37893 35.0062 8.75859 34.627L8.88109 34.5045C9.35177 34.0233 9.66751 33.4122 9.7876 32.7499C9.90768 32.0876 9.82661 31.4045 9.55484 30.7887C9.29603 30.1848 8.8663 29.6698 8.31854 29.307C7.77078 28.9443 7.1289 28.7496 6.47192 28.747H6.12484C5.04187 28.747 4.00326 28.3168 3.23748 27.551C2.47171 26.7852 2.0415 25.7466 2.0415 24.6637C2.0415 23.5807 2.47171 22.5421 3.23748 21.7763C4.00326 21.0105 5.04187 20.5803 6.12484 20.5803H6.30859C6.98437 20.5645 7.63976 20.3458 8.18957 19.9525C8.73938 19.5593 9.15817 19.0097 9.3915 18.3753C9.66328 17.7595 9.74435 17.0764 9.62426 16.4141C9.50417 15.7518 9.18843 15.1407 8.71775 14.6595L8.59525 14.537C8.2156 14.1578 7.91442 13.7074 7.70893 13.2117C7.50344 12.716 7.39767 12.1846 7.39767 11.648C7.39767 11.1114 7.50344 10.5801 7.70893 10.0844C7.91442 9.58865 8.2156 9.13831 8.59525 8.75907C8.97449 8.37942 9.42483 8.07824 9.92054 7.87275C10.4162 7.66726 10.9476 7.56149 11.4842 7.56149C12.0208 7.56149 12.5522 7.66726 13.0479 7.87275C13.5436 8.07824 13.9939 8.37942 14.3732 8.75907L14.4957 8.88157C14.9768 9.35225 15.588 9.668 16.2503 9.78808C16.9126 9.90817 17.5957 9.8271 18.2115 9.55532H18.3748C18.9787 9.29652 19.4937 8.86678 19.8565 8.31902C20.2192 7.77127 20.4139 7.12939 20.4165 6.47241V6.12533C20.4165 5.04236 20.8467 4.00375 21.6125 3.23797C22.3783 2.4722 23.4169 2.04199 24.4998 2.04199C25.5828 2.04199 26.6214 2.4722 27.3872 3.23797C28.153 4.00375 28.5832 5.04236 28.5832 6.12533V6.30908C28.5858 6.96606 28.7805 7.60793 29.1432 8.15569C29.506 8.70345 30.021 9.13318 30.6248 9.39199C31.2406 9.66377 31.9237 9.74484 32.586 9.62475C33.2483 9.50466 33.8595 9.18892 34.3407 8.71824L34.4632 8.59574C34.8424 8.21609 35.2927 7.91491 35.7885 7.70941C36.2842 7.50392 36.8155 7.39815 37.3521 7.39815C37.8887 7.39815 38.4201 7.50392 38.9158 7.70941C39.4115 7.91491 39.8619 8.21609 40.2411 8.59574C40.6207 8.97497 40.9219 9.42532 41.1274 9.92103C41.3329 10.4167 41.4387 10.9481 41.4387 11.4847C41.4387 12.0213 41.3329 12.5527 41.1274 13.0484C40.9219 13.5441 40.6207 13.9944 40.2411 14.3737L40.1186 14.4962C39.6479 14.9773 39.3322 15.5885 39.2121 16.2508C39.092 16.9131 39.1731 17.5962 39.4448 18.212V18.3753C39.7036 18.9792 40.1334 19.4942 40.6811 19.8569C41.2289 20.2197 41.8708 20.4144 42.5278 20.417H42.8748C43.9578 20.417 44.9964 20.8472 45.7622 21.613C46.528 22.3787 46.9582 23.4174 46.9582 24.5003C46.9582 25.5833 46.528 26.6219 45.7622 27.3877C44.9964 28.1534 43.9578 28.5837 42.8748 28.5837H42.6911C42.0341 28.5863 41.3922 28.7809 40.8445 29.1437C40.2967 29.5065 39.867 30.0215 39.6082 30.6253Z" stroke="white" stroke-width="2.5" stroke-linecap="round" stroke-linejoin="round"/>
</g>
<defs>
<clipPath id="clip0_331_6268">
<rect width="49" height="49" fill="white"/>
</clipPath>
</defs>
</svg>
