<svg width="374" height="239" viewBox="0 0 374 239" fill="none" xmlns="http://www.w3.org/2000/svg">
<path opacity="0.5" d="M392 -16.2123H-17M392 106.762H-17M392 229.736H-17M392 45.2748H-17M392 168.249H-17M392 14.5312H-17M392 137.505H-17M392 260.48H-17M392 76.0183H-17M392 198.992H-17M372.482 -35L372.482 282M267.61 -35L267.61 282M162.739 -35V282M57.8668 -35V282M320.046 -35L320.046 282M215.175 -35V282M110.303 -35L110.303 282M5.43094 -35V282M346.264 -35L346.264 282M241.392 -35L241.392 282M136.521 -35L136.521 282M31.6489 -35V282M293.828 -35L293.828 282M188.957 -35L188.957 282M84.0847 -35V282" stroke="url(#paint0_radial_467_32865)"/>
<defs>
<radialGradient id="paint0_radial_467_32865" cx="0" cy="0" r="1" gradientUnits="userSpaceOnUse" gradientTransform="translate(195.217 123.5) rotate(89.241) scale(208.05 267.923)">
<stop offset="0.381024" stop-color="#F5F4FF" stop-opacity="0.02"/>
<stop offset="1" stop-color="#F5F4FF" stop-opacity="0.2"/>
</radialGradient>
</defs>
</svg>
