<svg width="1920" height="1024" viewBox="0 0 1920 1024" fill="none" xmlns="http://www.w3.org/2000/svg">
<path d="M1982.74 -2.64913H-88.0002M1982.74 510.053H-88.0002M1982.74 125.526H-88.0002M1982.74 638.228H-88.0002M1982.74 -259H-88.0002M1982.74 766.403H-88.0002M1982.74 253.702H-88.0002M1982.74 -130.825H-88.0002M1982.74 894.579H-88.0002M1982.74 381.877H-88.0002M1648.94 1023.37V-258.381M1202.44 1023.37V-258.381M1537.32 1023.37V-258.381M1090.81 1023.37V-258.381M1872.19 1023.37V-258.381M979.186 1023.37V-258.381M1425.69 1023.37V-258.381M1760.57 1023.37V-258.381M867.56 1023.37V-258.381M1314.06 1023.37V-258.381M532.683 1023.37V-258.381M86.1793 1023.37V-258.381M421.057 1023.37V-258.381M-25.4466 1023.37V-258.381M755.934 1023.37V-258.381M309.431 1023.37V-258.381M644.309 1023.37V-258.381M197.805 1023.37V-258.381" stroke="url(#paint0_linear_507_43403)"/>
<defs>
<linearGradient id="paint0_linear_507_43403" x1="947.37" y1="-259" x2="986" y2="680.5" gradientUnits="userSpaceOnUse">
<stop stop-color="#30405B"/>
<stop offset="1" stop-color="#1F2B41" stop-opacity="0"/>
</linearGradient>
</defs>
</svg>
