<svg width="1920" height="1080" viewBox="0 0 1920 1080" fill="none" xmlns="http://www.w3.org/2000/svg">
<path d="M786.651 155.779L787.295 155.934L787.832 155.546L787.677 156.19L788.065 156.727L787.421 156.572L786.885 156.96L787.039 156.316L786.651 155.779Z" fill="#6F6C7D"/>
<path d="M750.249 291.416L750.893 291.571L751.429 291.183L751.275 291.827L751.663 292.363L751.019 292.209L750.482 292.597L750.637 291.953L750.249 291.416Z" fill="#6F6C7D"/>
<path d="M440.21 404.557L440.854 404.712L441.39 404.323L441.236 404.967L441.624 405.504L440.98 405.349L440.443 405.737L440.598 405.093L440.21 404.557Z" fill="#6F6C7D"/>
<path d="M166.86 381.11L167.504 381.264L168.041 380.876L167.886 381.52L168.274 382.057L167.63 381.902L167.094 382.29L167.248 381.646L166.86 381.11Z" fill="#6F6C7D"/>
<path d="M160.849 220.119L161.492 220.274L162.029 219.886L161.874 220.53L162.262 221.066L161.618 220.912L161.082 221.3L161.237 220.656L160.849 220.119Z" fill="#6F6C7D"/>
<path d="M243.794 204.26L244.438 204.415L244.974 204.027L244.82 204.67L245.208 205.207L244.564 205.052L244.027 205.44L244.182 204.797L243.794 204.26Z" fill="#6F6C7D"/>
<path d="M205.577 295.289L206.221 295.444L206.758 295.056L206.603 295.7L206.991 296.236L206.347 296.082L205.81 296.47L205.965 295.826L205.577 295.289Z" fill="#6F6C7D"/>
<path d="M76.1376 299.578L76.7815 299.733L77.3181 299.345L77.1634 299.989L77.5514 300.525L76.9075 300.371L76.3709 300.759L76.5257 300.115L76.1376 299.578Z" fill="#6F6C7D"/>
<path d="M67.54 427.904L68.1839 428.059L68.7204 427.671L68.5657 428.315L68.9538 428.852L68.3099 428.697L67.7733 429.085L67.928 428.441L67.54 427.904Z" fill="#6F6C7D"/>
<path d="M601.011 150.434L601.655 150.588L602.191 150.2L602.036 150.844L602.424 151.381L601.781 151.226L601.244 151.614L601.399 150.97L601.011 150.434Z" fill="#6F6C7D"/>
<path d="M748.31 118.873L748.953 119.028L749.49 118.64L749.335 119.284L749.723 119.82L749.079 119.666L748.543 120.054L748.698 119.41L748.31 118.873Z" fill="#6F6C7D"/>
<path d="M651.19 115.945L651.834 116.1L652.371 115.712L652.216 116.356L652.604 116.893L651.96 116.738L651.424 117.126L651.578 116.482L651.19 115.945Z" fill="#6F6C7D"/>
<path d="M438.999 527.242L439.643 527.397L440.179 527.009L440.025 527.653L440.413 528.189L439.769 528.035L439.232 528.423L439.387 527.779L438.999 527.242Z" fill="#6F6C7D"/>
<path d="M100.909 622.033L101.553 622.188L102.09 621.8L101.935 622.444L102.323 622.98L101.679 622.826L101.142 623.214L101.297 622.57L100.909 622.033Z" fill="#6F6C7D"/>
<path d="M248.601 493.916L249.244 494.071L249.781 493.683L249.626 494.327L250.014 494.863L249.37 494.709L248.834 495.097L248.989 494.453L248.601 493.916Z" fill="#6F6C7D"/>
<path d="M546.481 132.674L547.125 132.829L547.662 132.441L547.507 133.085L547.895 133.621L547.251 133.466L546.715 133.854L546.869 133.211L546.481 132.674Z" fill="#6F6C7D"/>
<path d="M90.4619 530.559L91.1057 530.713L91.6423 530.325L91.4876 530.969L91.8756 531.506L91.2318 531.351L90.6952 531.739L90.8499 531.095L90.4619 530.559Z" fill="#6F6C7D"/>
<path d="M547.741 531.567L548.385 531.721L548.922 531.333L548.767 531.977L549.155 532.514L548.511 532.359L547.974 532.747L548.129 532.103L547.741 531.567Z" fill="#6F6C7D"/>
<path d="M723.179 334.051L723.823 334.206L724.359 333.818L724.204 334.461L724.592 334.998L723.949 334.843L723.412 335.231L723.567 334.588L723.179 334.051Z" fill="#6F6C7D"/>
<path d="M852.3 292.578L852.944 292.733L853.48 292.345L853.325 292.989L853.714 293.525L853.07 293.371L852.533 293.759L852.688 293.115L852.3 292.578Z" fill="white"/>
<path d="M737.077 220.51L737.721 220.665L738.258 220.277L738.103 220.92L738.491 221.457L737.847 221.302L737.31 221.69L737.465 221.047L737.077 220.51Z" fill="white"/>
<path d="M567.888 332.803L568.532 332.958L569.068 332.57L568.913 333.213L569.301 333.75L568.658 333.595L568.121 333.983L568.276 333.339L567.888 332.803Z" fill="white"/>
<path d="M1312.51 338.672L1313.16 338.827L1313.69 338.439L1313.54 339.083L1313.93 339.619L1313.28 339.464L1312.75 339.852L1312.9 339.209L1312.51 338.672Z" fill="white"/>
<path d="M307.792 389.555L308.436 389.71L308.972 389.322L308.818 389.965L309.206 390.502L308.562 390.347L308.025 390.735L308.18 390.091L307.792 389.555Z" fill="white"/>
<path d="M150.741 320.84L151.385 320.995L151.922 320.607L151.767 321.251L152.155 321.787L151.511 321.632L150.974 322.02L151.129 321.377L150.741 320.84Z" fill="white"/>
<path d="M661.149 214.18L661.793 214.335L662.33 213.947L662.175 214.59L662.563 215.127L661.919 214.972L661.383 215.36L661.537 214.716L661.149 214.18Z" fill="white"/>
<path d="M770.876 79.9044L771.52 80.0592L772.056 79.6711L771.902 80.315L772.29 80.8516L771.646 80.6968L771.109 81.0849L771.264 80.441L770.876 79.9044Z" fill="white"/>
<path d="M672.415 142.475L673.059 142.629L673.595 142.241L673.441 142.885L673.829 143.422L673.185 143.267L672.648 143.655L672.803 143.011L672.415 142.475Z" fill="white"/>
<g filter="url(#filter0_f_483_36523)">
<path d="M624.938 269.502L625.582 269.657L626.119 269.269L625.964 269.913L626.352 270.449L625.708 270.295L625.172 270.683L625.326 270.039L624.938 269.502Z" fill="white"/>
</g>
<g filter="url(#filter1_f_483_36523)">
<path d="M1203.85 344.768L1204.5 344.922L1205.03 344.534L1204.88 345.178L1205.27 345.715L1204.62 345.56L1204.09 345.948L1204.24 345.304L1203.85 344.768Z" fill="white"/>
</g>
<g filter="url(#filter2_f_483_36523)">
<path d="M385.372 430.11L386.016 430.264L386.552 429.876L386.398 430.52L386.786 431.057L386.142 430.902L385.605 431.29L385.76 430.646L385.372 430.11Z" fill="white"/>
</g>
<g filter="url(#filter3_f_483_36523)">
<path d="M312.563 574.77L313.207 574.924L313.744 574.536L313.589 575.18L313.977 575.717L313.333 575.562L312.797 575.95L312.951 575.306L312.563 574.77Z" fill="white"/>
</g>
<g filter="url(#filter4_f_483_36523)">
<path d="M151.255 543.598L151.899 543.753L152.435 543.364L152.281 544.008L152.669 544.545L152.025 544.39L151.488 544.778L151.643 544.134L151.255 543.598Z" fill="white"/>
</g>
<g filter="url(#filter5_f_483_36523)">
<path d="M587.847 496.664L588.49 496.819L589.027 496.431L588.872 497.075L589.26 497.611L588.617 497.457L588.08 497.845L588.235 497.201L587.847 496.664Z" fill="white"/>
</g>
<g filter="url(#filter6_f_483_36523)">
<path d="M392.739 331.998L393.383 332.153L393.92 331.765L393.765 332.409L394.153 332.945L393.509 332.791L392.973 333.179L393.127 332.535L392.739 331.998Z" fill="white"/>
</g>
<g filter="url(#filter7_f_483_36523)">
<path d="M305.595 302.139L307.569 302.613L309.215 301.423L308.74 303.398L309.93 305.043L307.956 304.569L306.31 305.759L306.785 303.784L305.595 302.139Z" fill="#868592"/>
</g>
<g filter="url(#filter8_f_483_36523)">
<path d="M206.894 453.244L208.868 453.719L210.514 452.529L210.039 454.503L211.229 456.149L209.255 455.674L207.609 456.864L208.084 454.89L206.894 453.244Z" fill="#6E6B7C"/>
</g>
<g filter="url(#filter9_f_483_36523)">
<path d="M498.517 507.875L500.491 508.35L502.137 507.16L501.662 509.134L502.852 510.78L500.878 510.305L499.232 511.495L499.707 509.521L498.517 507.875Z" fill="#868592"/>
</g>
<g filter="url(#filter10_f_483_36523)">
<path d="M1831.45 408.166L1833.43 408.641L1835.07 407.451L1834.6 409.425L1835.79 411.071L1833.81 410.596L1832.17 411.786L1832.64 409.812L1831.45 408.166Z" fill="#868592"/>
</g>
<g filter="url(#filter11_f_483_36523)">
<path d="M110.868 419.471L112.843 419.945L114.488 418.755L114.014 420.73L115.204 422.375L113.229 421.901L111.584 423.091L112.058 421.116L110.868 419.471Z" fill="white"/>
</g>
<g filter="url(#filter12_f_483_36523)">
<path d="M532.562 401.145L534.536 401.619L536.182 400.429L535.707 402.404L536.897 404.049L534.923 403.575L533.277 404.765L533.752 402.79L532.562 401.145Z" fill="#868592"/>
</g>
<g filter="url(#filter13_f_483_36523)">
<path d="M1572.45 397.168L1574.43 397.643L1576.07 396.453L1575.6 398.427L1576.79 400.073L1574.82 399.598L1573.17 400.788L1573.64 398.814L1572.45 397.168Z" fill="#868592"/>
</g>
<g filter="url(#filter14_f_483_36523)">
<path d="M816.892 146.049L818.866 146.524L820.512 145.334L820.037 147.308L821.227 148.954L819.253 148.479L817.607 149.669L818.082 147.695L816.892 146.049Z" fill="white"/>
</g>
<g filter="url(#filter15_f_483_36523)">
<path d="M710.511 247.643L712.485 248.117L714.131 246.927L713.656 248.902L714.846 250.547L712.872 250.073L711.226 251.263L711.701 249.288L710.511 247.643Z" fill="#6E6B7C"/>
</g>
<g filter="url(#filter16_f_483_36523)">
<path d="M975.829 725.254L977.804 725.729L979.449 724.539L978.975 726.513L980.165 728.159L978.19 727.684L976.545 728.874L977.019 726.9L975.829 725.254Z" fill="#6E6B7C"/>
</g>
<g filter="url(#filter17_f_483_36523)">
<path d="M565.64 245.399L567.614 245.873L569.26 244.683L568.785 246.658L569.975 248.303L568.001 247.829L566.355 249.019L566.83 247.044L565.64 245.399Z" fill="white"/>
</g>
<g filter="url(#filter18_f_483_36523)">
<path d="M1697.45 612.168L1699.43 612.643L1701.07 611.453L1700.6 613.427L1701.79 615.073L1699.82 614.598L1698.17 615.788L1698.64 613.814L1697.45 612.168Z" fill="white"/>
</g>
<g filter="url(#filter19_f_483_36523)">
<path d="M639.802 178.276L641.776 178.75L643.422 177.56L642.947 179.535L644.137 181.18L642.163 180.706L640.517 181.896L640.992 179.921L639.802 178.276Z" fill="white"/>
</g>
<g filter="url(#filter20_f_483_36523)">
<path d="M1461.45 674.168L1463.43 674.643L1465.07 673.453L1464.6 675.427L1465.79 677.073L1463.82 676.598L1462.17 677.788L1462.64 675.814L1461.45 674.168Z" fill="white"/>
</g>
<g filter="url(#filter21_f_483_36523)">
<path d="M1601.45 247.168L1603.43 247.643L1605.07 246.453L1604.6 248.427L1605.79 250.073L1603.82 249.598L1602.17 250.788L1602.64 248.814L1601.45 247.168Z" fill="white"/>
</g>
<g opacity="0.5">
<path d="M867.268 573.612L867.614 574.177L868.268 574.282L867.703 574.628L867.598 575.282L867.252 574.717L866.599 574.612L867.163 574.266L867.268 573.612Z" fill="#6F6C7D"/>
<path d="M741.225 659.095L741.571 659.659L742.225 659.765L741.66 660.11L741.555 660.764L741.209 660.2L740.556 660.094L741.12 659.749L741.225 659.095Z" fill="#6F6C7D"/>
<path d="M441.989 519.866L442.335 520.431L442.989 520.536L442.424 520.882L442.319 521.536L441.973 520.971L441.319 520.866L441.884 520.52L441.989 519.866Z" fill="#6F6C7D"/>
<path d="M265.284 309.997L265.63 310.562L266.284 310.667L265.719 311.013L265.614 311.667L265.268 311.102L264.614 310.997L265.179 310.651L265.284 309.997Z" fill="#6F6C7D"/>
<path d="M374.87 191.909L375.216 192.474L375.87 192.579L375.305 192.925L375.2 193.579L374.854 193.014L374.2 192.909L374.765 192.563L374.87 191.909Z" fill="#6F6C7D"/>
<path d="M444.735 239.345L445.081 239.909L445.735 240.015L445.17 240.36L445.065 241.014L444.719 240.45L444.065 240.344L444.63 239.999L444.735 239.345Z" fill="#6F6C7D"/>
<path d="M353.344 276.689L353.69 277.253L354.344 277.358L353.779 277.704L353.674 278.358L353.329 277.793L352.675 277.688L353.239 277.342L353.344 276.689Z" fill="#6F6C7D"/>
<path d="M258.784 188.196L259.13 188.761L259.784 188.866L259.219 189.212L259.114 189.866L258.768 189.301L258.114 189.196L258.679 188.85L258.784 188.196Z" fill="#6F6C7D"/>
<path d="M161.962 272.853L162.308 273.417L162.961 273.522L162.397 273.868L162.292 274.522L161.946 273.957L161.292 273.852L161.857 273.506L161.962 272.853Z" fill="#6F6C7D"/>
<path d="M735.385 453.876L735.731 454.441L736.385 454.546L735.82 454.892L735.715 455.545L735.37 454.981L734.716 454.876L735.28 454.53L735.385 453.876Z" fill="#6F6C7D"/>
<path d="M866.257 520.403L866.602 520.968L867.256 521.073L866.692 521.419L866.587 522.073L866.241 521.508L865.587 521.403L866.152 521.057L866.257 520.403Z" fill="#6F6C7D"/>
<path d="M795.257 464.97L795.602 465.534L796.256 465.64L795.692 465.985L795.587 466.639L795.241 466.075L794.587 465.969L795.152 465.624L795.257 464.97Z" fill="#6F6C7D"/>
<path d="M354.382 605.761L354.727 606.326L355.381 606.431L354.817 606.776L354.712 607.43L354.366 606.866L353.712 606.76L354.277 606.415L354.382 605.761Z" fill="#6F6C7D"/>
<path d="M48.2878 433.722L48.6337 434.286L49.2875 434.391L48.7228 434.737L48.6178 435.391L48.2719 434.826L47.6181 434.721L48.1828 434.376L48.2878 433.722Z" fill="#6F6C7D"/>
<path d="M243.315 447.564L243.661 448.128L244.315 448.233L243.75 448.579L243.645 449.233L243.299 448.668L242.645 448.563L243.21 448.217L243.315 447.564Z" fill="#6F6C7D"/>
<path d="M709.387 402.759L709.733 403.324L710.387 403.429L709.822 403.774L709.717 404.428L709.372 403.864L708.718 403.759L709.282 403.413L709.387 402.759Z" fill="#6F6C7D"/>
<path d="M105.581 361.655L105.927 362.22L106.58 362.325L106.016 362.671L105.911 363.325L105.565 362.76L104.911 362.655L105.476 362.309L105.581 361.655Z" fill="#6F6C7D"/>
<path d="M428.216 685.71L428.561 686.275L429.215 686.38L428.651 686.726L428.546 687.379L428.2 686.815L427.546 686.71L428.111 686.364L428.216 685.71Z" fill="#6F6C7D"/>
<path d="M691.936 670.101L692.282 670.665L692.936 670.77L692.371 671.116L692.266 671.77L691.92 671.205L691.267 671.1L691.831 670.754L691.936 670.101Z" fill="#6F6C7D"/>
<path d="M734.38 828.565L734.726 829.13L735.379 829.235L734.815 829.581L734.71 830.235L734.364 829.67L733.71 829.565L734.275 829.219L734.38 828.565Z" fill="white"/>
<path d="M816.96 716.761L817.306 717.326L817.959 717.431L817.395 717.776L817.29 718.43L816.944 717.866L816.29 717.76L816.855 717.415L816.96 716.761Z" fill="white"/>
<path d="M782.05 599.642L782.395 600.206L783.049 600.311L782.485 600.657L782.38 601.311L782.034 600.746L781.38 600.641L781.945 600.295L782.05 599.642Z" fill="white"/>
<path d="M583.01 559.411L583.356 559.976L584.01 560.081L583.445 560.427L583.34 561.081L582.995 560.516L582.341 560.411L582.905 560.065L583.01 559.411Z" fill="white"/>
<path d="M358.966 415.624L359.311 416.189L359.965 416.294L359.401 416.64L359.296 417.294L358.95 416.729L358.296 416.624L358.861 416.278L358.966 415.624Z" fill="white"/>
<path d="M296.501 255.983L296.847 256.548L297.5 256.653L296.936 256.999L296.831 257.653L296.485 257.088L295.831 256.983L296.396 256.637L296.501 255.983Z" fill="white"/>
<path d="M732.839 541.478L733.184 542.042L733.838 542.147L733.274 542.493L733.169 543.147L732.823 542.582L732.169 542.477L732.734 542.131L732.839 541.478Z" fill="white"/>
<path d="M909.768 508.804L910.114 509.368L910.768 509.474L910.203 509.819L910.098 510.473L909.752 509.908L909.099 509.803L909.663 509.458L909.768 508.804Z" fill="white"/>
<path d="M791.507 498.739L791.852 499.304L792.506 499.409L791.942 499.755L791.837 500.409L791.491 499.844L790.837 499.739L791.402 499.393L791.507 498.739Z" fill="white"/>
<g filter="url(#filter22_f_483_36523)">
<path d="M668.114 554.989L668.46 555.554L669.114 555.659L668.549 556.005L668.444 556.659L668.098 556.094L667.444 555.989L668.009 555.643L668.114 554.989Z" fill="white"/>
</g>
<g filter="url(#filter23_f_483_36523)">
<path d="M385.147 499.157L385.493 499.722L386.147 499.827L385.582 500.173L385.477 500.827L385.131 500.262L384.477 500.157L385.042 499.811L385.147 499.157Z" fill="white"/>
</g>
<g filter="url(#filter24_f_483_36523)">
<path d="M231.372 549.962L231.718 550.527L232.372 550.632L231.807 550.978L231.702 551.631L231.356 551.067L230.702 550.962L231.267 550.616L231.372 549.962Z" fill="white"/>
</g>
<g filter="url(#filter25_f_483_36523)">
<path d="M139.35 413.858L139.696 414.423L140.35 414.528L139.785 414.874L139.68 415.528L139.334 414.963L138.681 414.858L139.245 414.512L139.35 413.858Z" fill="white"/>
</g>
<g filter="url(#filter26_f_483_36523)">
<path d="M481.257 689.39L481.602 689.954L482.256 690.059L481.692 690.405L481.587 691.059L481.241 690.494L480.587 690.389L481.152 690.044L481.257 689.39Z" fill="white"/>
</g>
<g filter="url(#filter27_f_483_36523)">
<path d="M628.048 721.06L628.393 721.624L629.047 721.729L628.483 722.075L628.378 722.729L628.032 722.164L627.378 722.059L627.943 721.713L628.048 721.06Z" fill="white"/>
</g>
<g filter="url(#filter28_f_483_36523)">
<path d="M459.727 434.989L460.073 435.554L460.727 435.659L460.162 436.005L460.057 436.659L459.711 436.094L459.058 435.989L459.622 435.643L459.727 434.989Z" fill="white"/>
</g>
<g filter="url(#filter29_f_483_36523)">
<path d="M419.224 352.256L420.284 353.988L422.289 354.31L420.558 355.37L420.236 357.375L419.175 355.644L417.17 355.321L418.902 354.261L419.224 352.256Z" fill="#868592"/>
</g>
<g filter="url(#filter30_f_483_36523)">
<path d="M242.585 389.314L243.646 391.046L245.651 391.368L243.919 392.429L243.597 394.434L242.536 392.702L240.531 392.38L242.263 391.319L242.585 389.314Z" fill="#6E6B7C"/>
</g>
<g filter="url(#filter31_f_483_36523)">
<path d="M410.161 634.152L411.222 635.884L413.227 636.206L411.495 637.267L411.173 639.272L410.112 637.54L408.107 637.218L409.839 636.157L410.161 634.152Z" fill="#868592"/>
</g>
<g filter="url(#filter32_f_483_36523)">
<path d="M198.566 297.529L199.626 299.261L201.631 299.583L199.9 300.644L199.577 302.649L198.517 300.917L196.512 300.595L198.244 299.534L198.566 297.529Z" fill="white"/>
</g>
<g filter="url(#filter33_f_483_36523)">
<path d="M509.706 582.756L510.767 584.488L512.772 584.81L511.04 585.87L510.718 587.875L509.657 586.144L507.652 585.821L509.384 584.761L509.706 582.756Z" fill="#868592"/>
</g>
<g filter="url(#filter34_f_483_36523)">
<path d="M1710.56 785.506L1711.62 787.238L1713.63 787.56L1711.9 788.62L1711.57 790.625L1710.51 788.894L1708.51 788.571L1710.24 787.511L1710.56 785.506Z" fill="white"/>
</g>
<g filter="url(#filter35_f_483_36523)">
<path d="M1406.23 389.184L1407.29 390.915L1409.29 391.237L1407.56 392.298L1407.24 394.303L1406.18 392.571L1404.17 392.249L1405.91 391.189L1406.23 389.184Z" fill="white"/>
</g>
<g filter="url(#filter36_f_483_36523)">
<path d="M685.845 711.685L686.906 713.417L688.911 713.739L687.179 714.8L686.857 716.805L685.796 715.073L683.791 714.751L685.523 713.691L685.845 711.685Z" fill="white"/>
</g>
<g filter="url(#filter37_f_483_36523)">
<path d="M1180.86 533.322L1181.92 535.054L1183.92 535.376L1182.19 536.437L1181.87 538.442L1180.81 536.71L1178.8 536.388L1180.53 535.327L1180.86 533.322Z" fill="white"/>
</g>
<g filter="url(#filter38_f_483_36523)">
<path d="M744.077 600.043L745.138 601.775L747.143 602.097L745.411 603.157L745.089 605.162L744.029 603.431L742.023 603.109L743.755 602.048L744.077 600.043Z" fill="#6E6B7C"/>
</g>
<g filter="url(#filter39_f_483_36523)">
<path d="M643.228 496.018L644.288 497.749L646.293 498.071L644.562 499.132L644.24 501.137L643.179 499.405L641.174 499.083L642.906 498.023L643.228 496.018Z" fill="white"/>
</g>
<g filter="url(#filter40_f_483_36523)">
<path d="M1538.94 490.428L1540.16 492.419L1542.47 492.789L1540.48 494.009L1540.11 496.314L1538.89 494.323L1536.58 493.953L1538.57 492.733L1538.94 490.428Z" fill="white"/>
</g>
<g filter="url(#filter41_f_483_36523)">
<path d="M743.13 500.992L744.191 502.724L746.196 503.046L744.464 504.107L744.142 506.112L743.081 504.38L741.076 504.058L742.808 502.997L743.13 500.992Z" fill="white"/>
</g>
</g>
<defs>
<filter id="filter0_f_483_36523" x="623.938" y="268.27" width="3.41406" height="3.41211" filterUnits="userSpaceOnUse" color-interpolation-filters="sRGB">
<feFlood flood-opacity="0" result="BackgroundImageFix"/>
<feBlend mode="normal" in="SourceGraphic" in2="BackgroundImageFix" result="shape"/>
<feGaussianBlur stdDeviation="0.5" result="effect1_foregroundBlur_483_36523"/>
</filter>
<filter id="filter1_f_483_36523" x="1202.85" y="343.535" width="3.41406" height="3.41211" filterUnits="userSpaceOnUse" color-interpolation-filters="sRGB">
<feFlood flood-opacity="0" result="BackgroundImageFix"/>
<feBlend mode="normal" in="SourceGraphic" in2="BackgroundImageFix" result="shape"/>
<feGaussianBlur stdDeviation="0.5" result="effect1_foregroundBlur_483_36523"/>
</filter>
<filter id="filter2_f_483_36523" x="384.371" y="428.877" width="3.41406" height="3.41211" filterUnits="userSpaceOnUse" color-interpolation-filters="sRGB">
<feFlood flood-opacity="0" result="BackgroundImageFix"/>
<feBlend mode="normal" in="SourceGraphic" in2="BackgroundImageFix" result="shape"/>
<feGaussianBlur stdDeviation="0.5" result="effect1_foregroundBlur_483_36523"/>
</filter>
<filter id="filter3_f_483_36523" x="311.562" y="573.537" width="3.41406" height="3.41211" filterUnits="userSpaceOnUse" color-interpolation-filters="sRGB">
<feFlood flood-opacity="0" result="BackgroundImageFix"/>
<feBlend mode="normal" in="SourceGraphic" in2="BackgroundImageFix" result="shape"/>
<feGaussianBlur stdDeviation="0.5" result="effect1_foregroundBlur_483_36523"/>
</filter>
<filter id="filter4_f_483_36523" x="150.254" y="542.365" width="3.41406" height="3.41211" filterUnits="userSpaceOnUse" color-interpolation-filters="sRGB">
<feFlood flood-opacity="0" result="BackgroundImageFix"/>
<feBlend mode="normal" in="SourceGraphic" in2="BackgroundImageFix" result="shape"/>
<feGaussianBlur stdDeviation="0.5" result="effect1_foregroundBlur_483_36523"/>
</filter>
<filter id="filter5_f_483_36523" x="586.846" y="495.432" width="3.41406" height="3.41211" filterUnits="userSpaceOnUse" color-interpolation-filters="sRGB">
<feFlood flood-opacity="0" result="BackgroundImageFix"/>
<feBlend mode="normal" in="SourceGraphic" in2="BackgroundImageFix" result="shape"/>
<feGaussianBlur stdDeviation="0.5" result="effect1_foregroundBlur_483_36523"/>
</filter>
<filter id="filter6_f_483_36523" x="391.738" y="330.766" width="3.41406" height="3.41211" filterUnits="userSpaceOnUse" color-interpolation-filters="sRGB">
<feFlood flood-opacity="0" result="BackgroundImageFix"/>
<feBlend mode="normal" in="SourceGraphic" in2="BackgroundImageFix" result="shape"/>
<feGaussianBlur stdDeviation="0.5" result="effect1_foregroundBlur_483_36523"/>
</filter>
<filter id="filter7_f_483_36523" x="304.596" y="300.424" width="6.33398" height="6.33594" filterUnits="userSpaceOnUse" color-interpolation-filters="sRGB">
<feFlood flood-opacity="0" result="BackgroundImageFix"/>
<feBlend mode="normal" in="SourceGraphic" in2="BackgroundImageFix" result="shape"/>
<feGaussianBlur stdDeviation="0.5" result="effect1_foregroundBlur_483_36523"/>
</filter>
<filter id="filter8_f_483_36523" x="205.895" y="451.529" width="6.33398" height="6.33594" filterUnits="userSpaceOnUse" color-interpolation-filters="sRGB">
<feFlood flood-opacity="0" result="BackgroundImageFix"/>
<feBlend mode="normal" in="SourceGraphic" in2="BackgroundImageFix" result="shape"/>
<feGaussianBlur stdDeviation="0.5" result="effect1_foregroundBlur_483_36523"/>
</filter>
<filter id="filter9_f_483_36523" x="497.518" y="506.16" width="6.33398" height="6.33594" filterUnits="userSpaceOnUse" color-interpolation-filters="sRGB">
<feFlood flood-opacity="0" result="BackgroundImageFix"/>
<feBlend mode="normal" in="SourceGraphic" in2="BackgroundImageFix" result="shape"/>
<feGaussianBlur stdDeviation="0.5" result="effect1_foregroundBlur_483_36523"/>
</filter>
<filter id="filter10_f_483_36523" x="1830.45" y="406.451" width="6.33398" height="6.33594" filterUnits="userSpaceOnUse" color-interpolation-filters="sRGB">
<feFlood flood-opacity="0" result="BackgroundImageFix"/>
<feBlend mode="normal" in="SourceGraphic" in2="BackgroundImageFix" result="shape"/>
<feGaussianBlur stdDeviation="0.5" result="effect1_foregroundBlur_483_36523"/>
</filter>
<filter id="filter11_f_483_36523" x="109.869" y="417.756" width="6.33398" height="6.33594" filterUnits="userSpaceOnUse" color-interpolation-filters="sRGB">
<feFlood flood-opacity="0" result="BackgroundImageFix"/>
<feBlend mode="normal" in="SourceGraphic" in2="BackgroundImageFix" result="shape"/>
<feGaussianBlur stdDeviation="0.5" result="effect1_foregroundBlur_483_36523"/>
</filter>
<filter id="filter12_f_483_36523" x="531.562" y="399.43" width="6.33398" height="6.33594" filterUnits="userSpaceOnUse" color-interpolation-filters="sRGB">
<feFlood flood-opacity="0" result="BackgroundImageFix"/>
<feBlend mode="normal" in="SourceGraphic" in2="BackgroundImageFix" result="shape"/>
<feGaussianBlur stdDeviation="0.5" result="effect1_foregroundBlur_483_36523"/>
</filter>
<filter id="filter13_f_483_36523" x="1571.46" y="395.453" width="6.33398" height="6.33594" filterUnits="userSpaceOnUse" color-interpolation-filters="sRGB">
<feFlood flood-opacity="0" result="BackgroundImageFix"/>
<feBlend mode="normal" in="SourceGraphic" in2="BackgroundImageFix" result="shape"/>
<feGaussianBlur stdDeviation="0.5" result="effect1_foregroundBlur_483_36523"/>
</filter>
<filter id="filter14_f_483_36523" x="815.893" y="144.334" width="6.33398" height="6.33594" filterUnits="userSpaceOnUse" color-interpolation-filters="sRGB">
<feFlood flood-opacity="0" result="BackgroundImageFix"/>
<feBlend mode="normal" in="SourceGraphic" in2="BackgroundImageFix" result="shape"/>
<feGaussianBlur stdDeviation="0.5" result="effect1_foregroundBlur_483_36523"/>
</filter>
<filter id="filter15_f_483_36523" x="709.512" y="245.928" width="6.33398" height="6.33594" filterUnits="userSpaceOnUse" color-interpolation-filters="sRGB">
<feFlood flood-opacity="0" result="BackgroundImageFix"/>
<feBlend mode="normal" in="SourceGraphic" in2="BackgroundImageFix" result="shape"/>
<feGaussianBlur stdDeviation="0.5" result="effect1_foregroundBlur_483_36523"/>
</filter>
<filter id="filter16_f_483_36523" x="974.83" y="723.539" width="6.33398" height="6.33594" filterUnits="userSpaceOnUse" color-interpolation-filters="sRGB">
<feFlood flood-opacity="0" result="BackgroundImageFix"/>
<feBlend mode="normal" in="SourceGraphic" in2="BackgroundImageFix" result="shape"/>
<feGaussianBlur stdDeviation="0.5" result="effect1_foregroundBlur_483_36523"/>
</filter>
<filter id="filter17_f_483_36523" x="564.641" y="243.684" width="6.33398" height="6.33594" filterUnits="userSpaceOnUse" color-interpolation-filters="sRGB">
<feFlood flood-opacity="0" result="BackgroundImageFix"/>
<feBlend mode="normal" in="SourceGraphic" in2="BackgroundImageFix" result="shape"/>
<feGaussianBlur stdDeviation="0.5" result="effect1_foregroundBlur_483_36523"/>
</filter>
<filter id="filter18_f_483_36523" x="1696.46" y="610.453" width="6.33398" height="6.33594" filterUnits="userSpaceOnUse" color-interpolation-filters="sRGB">
<feFlood flood-opacity="0" result="BackgroundImageFix"/>
<feBlend mode="normal" in="SourceGraphic" in2="BackgroundImageFix" result="shape"/>
<feGaussianBlur stdDeviation="0.5" result="effect1_foregroundBlur_483_36523"/>
</filter>
<filter id="filter19_f_483_36523" x="638.803" y="176.561" width="6.33398" height="6.33594" filterUnits="userSpaceOnUse" color-interpolation-filters="sRGB">
<feFlood flood-opacity="0" result="BackgroundImageFix"/>
<feBlend mode="normal" in="SourceGraphic" in2="BackgroundImageFix" result="shape"/>
<feGaussianBlur stdDeviation="0.5" result="effect1_foregroundBlur_483_36523"/>
</filter>
<filter id="filter20_f_483_36523" x="1460.46" y="672.453" width="6.33398" height="6.33594" filterUnits="userSpaceOnUse" color-interpolation-filters="sRGB">
<feFlood flood-opacity="0" result="BackgroundImageFix"/>
<feBlend mode="normal" in="SourceGraphic" in2="BackgroundImageFix" result="shape"/>
<feGaussianBlur stdDeviation="0.5" result="effect1_foregroundBlur_483_36523"/>
</filter>
<filter id="filter21_f_483_36523" x="1600.46" y="245.453" width="6.33398" height="6.33594" filterUnits="userSpaceOnUse" color-interpolation-filters="sRGB">
<feFlood flood-opacity="0" result="BackgroundImageFix"/>
<feBlend mode="normal" in="SourceGraphic" in2="BackgroundImageFix" result="shape"/>
<feGaussianBlur stdDeviation="0.5" result="effect1_foregroundBlur_483_36523"/>
</filter>
<filter id="filter22_f_483_36523" x="666.443" y="553.99" width="3.66992" height="3.66797" filterUnits="userSpaceOnUse" color-interpolation-filters="sRGB">
<feFlood flood-opacity="0" result="BackgroundImageFix"/>
<feBlend mode="normal" in="SourceGraphic" in2="BackgroundImageFix" result="shape"/>
<feGaussianBlur stdDeviation="0.5" result="effect1_foregroundBlur_483_36523"/>
</filter>
<filter id="filter23_f_483_36523" x="383.477" y="498.158" width="3.66992" height="3.66797" filterUnits="userSpaceOnUse" color-interpolation-filters="sRGB">
<feFlood flood-opacity="0" result="BackgroundImageFix"/>
<feBlend mode="normal" in="SourceGraphic" in2="BackgroundImageFix" result="shape"/>
<feGaussianBlur stdDeviation="0.5" result="effect1_foregroundBlur_483_36523"/>
</filter>
<filter id="filter24_f_483_36523" x="229.701" y="548.963" width="3.66992" height="3.66797" filterUnits="userSpaceOnUse" color-interpolation-filters="sRGB">
<feFlood flood-opacity="0" result="BackgroundImageFix"/>
<feBlend mode="normal" in="SourceGraphic" in2="BackgroundImageFix" result="shape"/>
<feGaussianBlur stdDeviation="0.5" result="effect1_foregroundBlur_483_36523"/>
</filter>
<filter id="filter25_f_483_36523" x="137.68" y="412.859" width="3.66992" height="3.66797" filterUnits="userSpaceOnUse" color-interpolation-filters="sRGB">
<feFlood flood-opacity="0" result="BackgroundImageFix"/>
<feBlend mode="normal" in="SourceGraphic" in2="BackgroundImageFix" result="shape"/>
<feGaussianBlur stdDeviation="0.5" result="effect1_foregroundBlur_483_36523"/>
</filter>
<filter id="filter26_f_483_36523" x="479.586" y="688.391" width="3.66992" height="3.66797" filterUnits="userSpaceOnUse" color-interpolation-filters="sRGB">
<feFlood flood-opacity="0" result="BackgroundImageFix"/>
<feBlend mode="normal" in="SourceGraphic" in2="BackgroundImageFix" result="shape"/>
<feGaussianBlur stdDeviation="0.5" result="effect1_foregroundBlur_483_36523"/>
</filter>
<filter id="filter27_f_483_36523" x="626.377" y="720.061" width="3.66992" height="3.66797" filterUnits="userSpaceOnUse" color-interpolation-filters="sRGB">
<feFlood flood-opacity="0" result="BackgroundImageFix"/>
<feBlend mode="normal" in="SourceGraphic" in2="BackgroundImageFix" result="shape"/>
<feGaussianBlur stdDeviation="0.5" result="effect1_foregroundBlur_483_36523"/>
</filter>
<filter id="filter28_f_483_36523" x="458.057" y="433.99" width="3.66992" height="3.66797" filterUnits="userSpaceOnUse" color-interpolation-filters="sRGB">
<feFlood flood-opacity="0" result="BackgroundImageFix"/>
<feBlend mode="normal" in="SourceGraphic" in2="BackgroundImageFix" result="shape"/>
<feGaussianBlur stdDeviation="0.5" result="effect1_foregroundBlur_483_36523"/>
</filter>
<filter id="filter29_f_483_36523" x="416.17" y="351.256" width="7.11914" height="7.11914" filterUnits="userSpaceOnUse" color-interpolation-filters="sRGB">
<feFlood flood-opacity="0" result="BackgroundImageFix"/>
<feBlend mode="normal" in="SourceGraphic" in2="BackgroundImageFix" result="shape"/>
<feGaussianBlur stdDeviation="0.5" result="effect1_foregroundBlur_483_36523"/>
</filter>
<filter id="filter30_f_483_36523" x="239.531" y="388.314" width="7.11914" height="7.11914" filterUnits="userSpaceOnUse" color-interpolation-filters="sRGB">
<feFlood flood-opacity="0" result="BackgroundImageFix"/>
<feBlend mode="normal" in="SourceGraphic" in2="BackgroundImageFix" result="shape"/>
<feGaussianBlur stdDeviation="0.5" result="effect1_foregroundBlur_483_36523"/>
</filter>
<filter id="filter31_f_483_36523" x="407.107" y="633.152" width="7.11914" height="7.11914" filterUnits="userSpaceOnUse" color-interpolation-filters="sRGB">
<feFlood flood-opacity="0" result="BackgroundImageFix"/>
<feBlend mode="normal" in="SourceGraphic" in2="BackgroundImageFix" result="shape"/>
<feGaussianBlur stdDeviation="0.5" result="effect1_foregroundBlur_483_36523"/>
</filter>
<filter id="filter32_f_483_36523" x="195.512" y="296.529" width="7.11914" height="7.11914" filterUnits="userSpaceOnUse" color-interpolation-filters="sRGB">
<feFlood flood-opacity="0" result="BackgroundImageFix"/>
<feBlend mode="normal" in="SourceGraphic" in2="BackgroundImageFix" result="shape"/>
<feGaussianBlur stdDeviation="0.5" result="effect1_foregroundBlur_483_36523"/>
</filter>
<filter id="filter33_f_483_36523" x="506.652" y="581.756" width="7.11914" height="7.11914" filterUnits="userSpaceOnUse" color-interpolation-filters="sRGB">
<feFlood flood-opacity="0" result="BackgroundImageFix"/>
<feBlend mode="normal" in="SourceGraphic" in2="BackgroundImageFix" result="shape"/>
<feGaussianBlur stdDeviation="0.5" result="effect1_foregroundBlur_483_36523"/>
</filter>
<filter id="filter34_f_483_36523" x="1707.51" y="784.506" width="7.11914" height="7.11914" filterUnits="userSpaceOnUse" color-interpolation-filters="sRGB">
<feFlood flood-opacity="0" result="BackgroundImageFix"/>
<feBlend mode="normal" in="SourceGraphic" in2="BackgroundImageFix" result="shape"/>
<feGaussianBlur stdDeviation="0.5" result="effect1_foregroundBlur_483_36523"/>
</filter>
<filter id="filter35_f_483_36523" x="1403.17" y="388.184" width="7.11914" height="7.11914" filterUnits="userSpaceOnUse" color-interpolation-filters="sRGB">
<feFlood flood-opacity="0" result="BackgroundImageFix"/>
<feBlend mode="normal" in="SourceGraphic" in2="BackgroundImageFix" result="shape"/>
<feGaussianBlur stdDeviation="0.5" result="effect1_foregroundBlur_483_36523"/>
</filter>
<filter id="filter36_f_483_36523" x="682.791" y="710.686" width="7.11914" height="7.11914" filterUnits="userSpaceOnUse" color-interpolation-filters="sRGB">
<feFlood flood-opacity="0" result="BackgroundImageFix"/>
<feBlend mode="normal" in="SourceGraphic" in2="BackgroundImageFix" result="shape"/>
<feGaussianBlur stdDeviation="0.5" result="effect1_foregroundBlur_483_36523"/>
</filter>
<filter id="filter37_f_483_36523" x="1177.8" y="532.322" width="7.11914" height="7.11914" filterUnits="userSpaceOnUse" color-interpolation-filters="sRGB">
<feFlood flood-opacity="0" result="BackgroundImageFix"/>
<feBlend mode="normal" in="SourceGraphic" in2="BackgroundImageFix" result="shape"/>
<feGaussianBlur stdDeviation="0.5" result="effect1_foregroundBlur_483_36523"/>
</filter>
<filter id="filter38_f_483_36523" x="741.023" y="599.043" width="7.11914" height="7.11914" filterUnits="userSpaceOnUse" color-interpolation-filters="sRGB">
<feFlood flood-opacity="0" result="BackgroundImageFix"/>
<feBlend mode="normal" in="SourceGraphic" in2="BackgroundImageFix" result="shape"/>
<feGaussianBlur stdDeviation="0.5" result="effect1_foregroundBlur_483_36523"/>
</filter>
<filter id="filter39_f_483_36523" x="640.174" y="495.018" width="7.11914" height="7.11914" filterUnits="userSpaceOnUse" color-interpolation-filters="sRGB">
<feFlood flood-opacity="0" result="BackgroundImageFix"/>
<feBlend mode="normal" in="SourceGraphic" in2="BackgroundImageFix" result="shape"/>
<feGaussianBlur stdDeviation="0.5" result="effect1_foregroundBlur_483_36523"/>
</filter>
<filter id="filter40_f_483_36523" x="1535.58" y="489.428" width="7.88672" height="7.88672" filterUnits="userSpaceOnUse" color-interpolation-filters="sRGB">
<feFlood flood-opacity="0" result="BackgroundImageFix"/>
<feBlend mode="normal" in="SourceGraphic" in2="BackgroundImageFix" result="shape"/>
<feGaussianBlur stdDeviation="0.5" result="effect1_foregroundBlur_483_36523"/>
</filter>
<filter id="filter41_f_483_36523" x="740.076" y="499.992" width="7.11914" height="7.11914" filterUnits="userSpaceOnUse" color-interpolation-filters="sRGB">
<feFlood flood-opacity="0" result="BackgroundImageFix"/>
<feBlend mode="normal" in="SourceGraphic" in2="BackgroundImageFix" result="shape"/>
<feGaussianBlur stdDeviation="0.5" result="effect1_foregroundBlur_483_36523"/>
</filter>
</defs>
</svg>
