<svg width="70" height="70" viewBox="0 0 70 70" fill="none" xmlns="http://www.w3.org/2000/svg">
<rect opacity="0.4" width="70" height="70" rx="16" fill="#151951"/>
<path d="M34.5 16C28.7014 16 24 20.7014 24 26.5C24 28.7833 24.7486 30.8785 25.9928 32.5944C26.0151 32.6355 26.0186 32.6814 26.044 32.7208L33.044 43.2208C33.3686 43.7078 33.9155 44 34.5 44C35.0845 44 35.6314 43.7078 35.956 43.2208L42.956 32.7208C42.9818 32.6814 42.9849 32.6355 43.0072 32.5944C44.2514 30.8785 45 28.7833 45 26.5C45 20.7014 40.2986 16 34.5 16ZM34.5 30C32.5671 30 31 28.4329 31 26.5C31 24.5671 32.5671 23 34.5 23C36.4329 23 38 24.5671 38 26.5C38 28.4329 36.4329 30 34.5 30Z" fill="url(#paint0_linear_2031_43063)"/>
<defs>
<linearGradient id="paint0_linear_2031_43063" x1="31.2305" y1="19.8563" x2="48.7827" y2="24.782" gradientUnits="userSpaceOnUse">
<stop stop-color="#732CFF"/>
<stop offset="1" stop-color="#F46D6B"/>
</linearGradient>
</defs>
</svg>
