<svg width="91" height="38" viewBox="0 0 91 38" fill="none" xmlns="http://www.w3.org/2000/svg">
<path d="M0 5C0 2.23858 2.23858 0 5 0H86C88.7614 0 91 2.23858 91 5V38H5C2.23858 38 0 35.7614 0 33V5Z" fill="#F8B638"/>
<path d="M5 0.0996094H86C88.7062 0.0996094 90.9004 2.2938 90.9004 5V37.9004H5C2.2938 37.9004 0.0996095 35.7062 0.0996094 33V5C0.0996094 2.2938 2.2938 0.0996094 5 0.0996094Z" stroke="white" stroke-opacity="0.37" stroke-width="0.2"/>
<rect x="7" y="6" width="10" height="10" rx="2" fill="#732CFF"/>
<path d="M22.2857 13H21.4704L23.3024 7.90909H24.1899L26.0219 13H25.2065L23.7673 8.83381H23.7275L22.2857 13ZM22.4225 11.0064H25.0673V11.6527H22.4225V11.0064ZM27.5252 7.90909V13H26.7571V7.90909H27.5252ZM30.9264 13H30.111L31.943 7.90909H32.8305L34.6625 13H33.8472L32.4079 8.83381H32.3681L30.9264 13ZM31.0631 11.0064H33.708V11.6527H31.0631V11.0064ZM37.7567 11.4165V9.18182H38.5024V13H37.7716V12.3388H37.7318C37.644 12.5426 37.5032 12.7125 37.3093 12.8484C37.117 12.9826 36.8776 13.0497 36.5909 13.0497C36.3456 13.0497 36.1285 12.9959 35.9396 12.8881C35.7523 12.7788 35.6048 12.6172 35.4971 12.4034C35.3911 12.1896 35.338 11.9253 35.338 11.6104V9.18182H36.0813V11.521C36.0813 11.7811 36.1534 11.9883 36.2975 12.1424C36.4417 12.2965 36.629 12.3736 36.8593 12.3736C36.9985 12.3736 37.1369 12.3388 37.2745 12.2692C37.4137 12.1996 37.5288 12.0943 37.62 11.9535C37.7128 11.8126 37.7584 11.6336 37.7567 11.4165ZM41.2834 9.18182V9.77841H39.1978V9.18182H41.2834ZM39.7571 8.26705H40.5004V11.8789C40.5004 12.0231 40.5219 12.1316 40.565 12.2045C40.6081 12.2758 40.6636 12.3247 40.7316 12.3512C40.8012 12.3761 40.8766 12.3885 40.9578 12.3885C41.0174 12.3885 41.0696 12.3844 41.1144 12.3761C41.1591 12.3678 41.1939 12.3612 41.2188 12.3562L41.353 12.9702C41.3099 12.9867 41.2486 13.0033 41.1691 13.0199C41.0895 13.0381 40.9901 13.0481 40.8708 13.0497C40.6752 13.053 40.4929 13.0182 40.3239 12.9453C40.1549 12.8724 40.0182 12.7597 39.9138 12.6072C39.8093 12.4548 39.7571 12.2634 39.7571 12.033V8.26705ZM43.6729 13.0771C43.3149 13.0771 43.0026 12.995 42.7358 12.831C42.4689 12.6669 42.2618 12.4374 42.1143 12.1424C41.9668 11.8474 41.8931 11.5027 41.8931 11.1083C41.8931 10.7122 41.9668 10.3659 42.1143 10.0692C42.2618 9.77261 42.4689 9.54226 42.7358 9.3782C43.0026 9.21413 43.3149 9.1321 43.6729 9.1321C44.0309 9.1321 44.3432 9.21413 44.61 9.3782C44.8768 9.54226 45.084 9.77261 45.2315 10.0692C45.379 10.3659 45.4527 10.7122 45.4527 11.1083C45.4527 11.5027 45.379 11.8474 45.2315 12.1424C45.084 12.4374 44.8768 12.6669 44.61 12.831C44.3432 12.995 44.0309 13.0771 43.6729 13.0771ZM43.6754 12.4531C43.9074 12.4531 44.0996 12.3918 44.2521 12.2692C44.4045 12.1465 44.5172 11.9833 44.5902 11.7795C44.6647 11.5756 44.702 11.3511 44.702 11.1058C44.702 10.8622 44.6647 10.6385 44.5902 10.4347C44.5172 10.2292 44.4045 10.0643 44.2521 9.93999C44.0996 9.8157 43.9074 9.75355 43.6754 9.75355C43.4417 9.75355 43.2478 9.8157 43.0937 9.93999C42.9412 10.0643 42.8277 10.2292 42.7532 10.4347C42.6802 10.6385 42.6438 10.8622 42.6438 11.1058C42.6438 11.3511 42.6802 11.5756 42.7532 11.7795C42.8277 11.9833 42.9412 12.1465 43.0937 12.2692C43.2478 12.3918 43.4417 12.4531 43.6754 12.4531ZM46.2824 13V9.18182H46.9958V9.80327H47.043C47.1226 9.5928 47.2526 9.42874 47.4333 9.31108C47.6139 9.19176 47.8302 9.1321 48.0821 9.1321C48.3373 9.1321 48.5511 9.19176 48.7234 9.31108C48.8974 9.4304 49.0258 9.59446 49.1087 9.80327H49.1485C49.2396 9.59943 49.3846 9.43703 49.5835 9.31605C49.7824 9.19342 50.0193 9.1321 50.2944 9.1321C50.6408 9.1321 50.9233 9.24065 51.1421 9.45774C51.3625 9.67483 51.4727 10.0021 51.4727 10.4396V13H50.7294V10.5092C50.7294 10.2507 50.659 10.0634 50.5182 9.94744C50.3773 9.83144 50.2091 9.77344 50.0135 9.77344C49.7716 9.77344 49.5835 9.84801 49.4493 9.99716C49.315 10.1446 49.2479 10.3344 49.2479 10.5664V13H48.5071V10.462C48.5071 10.2549 48.4425 10.0883 48.3133 9.96236C48.184 9.83641 48.0158 9.77344 47.8086 9.77344C47.6678 9.77344 47.5377 9.81072 47.4184 9.8853C47.3007 9.95821 47.2054 10.0601 47.1325 10.1911C47.0612 10.322 47.0256 10.4736 47.0256 10.646V13H46.2824ZM53.58 13.0845C53.3381 13.0845 53.1193 13.0398 52.9238 12.9503C52.7282 12.8591 52.5733 12.7274 52.4589 12.555C52.3463 12.3827 52.2899 12.1714 52.2899 11.9212C52.2899 11.7057 52.3313 11.5284 52.4142 11.3892C52.4971 11.25 52.6089 11.1398 52.7498 11.0586C52.8906 10.9774 53.0481 10.9161 53.2221 10.8746C53.3961 10.8332 53.5734 10.8017 53.754 10.7802C53.9827 10.7537 54.1683 10.7321 54.3109 10.7156C54.4534 10.6973 54.557 10.6683 54.6216 10.6286C54.6862 10.5888 54.7185 10.5241 54.7185 10.4347V10.4173C54.7185 10.2002 54.6572 10.032 54.5346 9.91264C54.4136 9.79332 54.233 9.73366 53.9927 9.73366C53.7424 9.73366 53.5452 9.78918 53.4011 9.90021C53.2585 10.0096 53.1599 10.1314 53.1052 10.2656L52.4067 10.1065C52.4896 9.87453 52.6106 9.68726 52.7697 9.54474C52.9304 9.40057 53.1152 9.29616 53.324 9.23153C53.5328 9.16525 53.7524 9.1321 53.9827 9.1321C54.1352 9.1321 54.2968 9.15033 54.4675 9.18679C54.6398 9.22159 54.8006 9.28622 54.9497 9.38068C55.1005 9.47514 55.224 9.6102 55.3201 9.78587C55.4162 9.95987 55.4643 10.1861 55.4643 10.4645V13H54.7384V12.478H54.7086C54.6605 12.5741 54.5884 12.6686 54.4923 12.7614C54.3962 12.8542 54.2727 12.9312 54.1219 12.9925C53.9711 13.0539 53.7905 13.0845 53.58 13.0845ZM53.7416 12.4879C53.9471 12.4879 54.1228 12.4473 54.2686 12.3661C54.4161 12.2849 54.528 12.1789 54.6042 12.0479C54.6821 11.9154 54.721 11.7737 54.721 11.6229V11.1307C54.6945 11.1572 54.6431 11.1821 54.5669 11.2053C54.4923 11.2268 54.407 11.2459 54.3109 11.2624C54.2147 11.2773 54.1211 11.2914 54.03 11.3047C53.9388 11.3163 53.8626 11.3262 53.8013 11.3345C53.6571 11.3527 53.5253 11.3834 53.406 11.4265C53.2884 11.4696 53.1939 11.5317 53.1226 11.6129C53.053 11.6925 53.0182 11.7985 53.0182 11.9311C53.0182 12.1151 53.0862 12.2543 53.2221 12.3487C53.358 12.4415 53.5311 12.4879 53.7416 12.4879ZM58.2366 9.18182V9.77841H56.151V9.18182H58.2366ZM56.7103 8.26705H57.4535V11.8789C57.4535 12.0231 57.4751 12.1316 57.5182 12.2045C57.5612 12.2758 57.6168 12.3247 57.6847 12.3512C57.7543 12.3761 57.8297 12.3885 57.9109 12.3885C57.9706 12.3885 58.0228 12.3844 58.0675 12.3761C58.1123 12.3678 58.1471 12.3612 58.1719 12.3562L58.3062 12.9702C58.2631 12.9867 58.2017 13.0033 58.1222 13.0199C58.0427 13.0381 57.9432 13.0481 57.8239 13.0497C57.6284 13.053 57.4461 13.0182 57.277 12.9453C57.108 12.8724 56.9713 12.7597 56.8669 12.6072C56.7625 12.4548 56.7103 12.2634 56.7103 12.033V8.26705ZM59.0587 13V9.18182H59.802V13H59.0587ZM59.4341 8.59268C59.3048 8.59268 59.1938 8.5496 59.101 8.46342C59.0098 8.37559 58.9643 8.27119 58.9643 8.15021C58.9643 8.02758 59.0098 7.92318 59.101 7.837C59.1938 7.74917 59.3048 7.70526 59.4341 7.70526C59.5633 7.70526 59.6735 7.74917 59.7647 7.837C59.8575 7.92318 59.9039 8.02758 59.9039 8.15021C59.9039 8.27119 59.8575 8.37559 59.7647 8.46342C59.6735 8.5496 59.5633 8.59268 59.4341 8.59268ZM62.4102 13.0771C62.0522 13.0771 61.7399 12.995 61.4731 12.831C61.2062 12.6669 60.9991 12.4374 60.8516 12.1424C60.7041 11.8474 60.6304 11.5027 60.6304 11.1083C60.6304 10.7122 60.7041 10.3659 60.8516 10.0692C60.9991 9.77261 61.2062 9.54226 61.4731 9.3782C61.7399 9.21413 62.0522 9.1321 62.4102 9.1321C62.7682 9.1321 63.0805 9.21413 63.3473 9.3782C63.6142 9.54226 63.8213 9.77261 63.9688 10.0692C64.1163 10.3659 64.19 10.7122 64.19 11.1083C64.19 11.5027 64.1163 11.8474 63.9688 12.1424C63.8213 12.4374 63.6142 12.6669 63.3473 12.831C63.0805 12.995 62.7682 13.0771 62.4102 13.0771ZM62.4127 12.4531C62.6447 12.4531 62.8369 12.3918 62.9894 12.2692C63.1419 12.1465 63.2545 11.9833 63.3275 11.7795C63.402 11.5756 63.4393 11.3511 63.4393 11.1058C63.4393 10.8622 63.402 10.6385 63.3275 10.4347C63.2545 10.2292 63.1419 10.0643 62.9894 9.93999C62.8369 9.8157 62.6447 9.75355 62.4127 9.75355C62.179 9.75355 61.9851 9.8157 61.831 9.93999C61.6785 10.0643 61.565 10.2292 61.4905 10.4347C61.4175 10.6385 61.3811 10.8622 61.3811 11.1058C61.3811 11.3511 61.4175 11.5756 61.4905 11.7795C61.565 11.9833 61.6785 12.1465 61.831 12.2692C61.9851 12.3918 62.179 12.4531 62.4127 12.4531ZM65.7629 10.733V13H65.0197V9.18182H65.7331V9.80327H65.7803C65.8681 9.60109 66.0057 9.43868 66.193 9.31605C66.3819 9.19342 66.6197 9.1321 66.9064 9.1321C67.1666 9.1321 67.3944 9.18679 67.59 9.29616C67.7855 9.40388 67.9372 9.56463 68.0449 9.77841C68.1526 9.99219 68.2065 10.2565 68.2065 10.5714V13H67.4632V10.6609C67.4632 10.3841 67.3911 10.1679 67.2469 10.0121C67.1028 9.85464 66.9047 9.77592 66.6528 9.77592C66.4805 9.77592 66.3272 9.81321 66.193 9.88778C66.0604 9.96236 65.9552 10.0717 65.8773 10.2159C65.801 10.3584 65.7629 10.5308 65.7629 10.733Z" fill="#000220"/>
<rect x="21" y="20" width="46" height="2" rx="1" fill="#000220" fill-opacity="0.25"/>
<rect x="21" y="27" width="61" height="2" rx="1" fill="#000220" fill-opacity="0.25"/>
<path d="M12 8L14.5981 12.5H9.40192L12 8Z" fill="white"/>
</svg>
