<svg width="133" height="38" viewBox="0 0 133 38" fill="none" xmlns="http://www.w3.org/2000/svg">
<path d="M0 19C0 8.50659 8.50659 0 19 0H114C124.493 0 133 8.50659 133 19C133 29.4934 124.493 38 114 38H19C8.50659 38 0 29.4934 0 19Z" fill="url(#paint0_linear_2002_43075)"/>
<path d="M31.3945 23.1172C30.6055 23.1172 29.9121 22.9355 29.3145 22.5723C28.7207 22.209 28.2559 21.6934 27.9199 21.0254C27.5879 20.3535 27.4219 19.5586 27.4219 18.6406C27.4219 17.7109 27.5898 16.9121 27.9258 16.2441C28.2656 15.5723 28.7305 15.0566 29.3203 14.6973C29.9102 14.334 30.582 14.1523 31.3359 14.1523C31.8047 14.1523 32.2422 14.2227 32.6484 14.3633C33.0586 14.5 33.4219 14.6973 33.7383 14.9551C34.0586 15.2129 34.3223 15.5176 34.5293 15.8691C34.7402 16.2168 34.8828 16.6035 34.957 17.0293H33.6094C33.5273 16.7676 33.418 16.5352 33.2812 16.332C33.1445 16.125 32.9805 15.9492 32.7891 15.8047C32.5977 15.6562 32.3809 15.5449 32.1387 15.4707C31.9004 15.3926 31.6348 15.3535 31.3418 15.3535C30.8496 15.3535 30.4062 15.4805 30.0117 15.7344C29.6172 15.9844 29.3047 16.3535 29.0742 16.8418C28.8438 17.3301 28.7285 17.9277 28.7285 18.6348C28.7285 19.3418 28.8438 19.9395 29.0742 20.4277C29.3047 20.916 29.6211 21.2871 30.0234 21.541C30.4258 21.791 30.8828 21.916 31.3945 21.916C31.8672 21.916 32.2793 21.8203 32.6309 21.6289C32.9824 21.4336 33.2559 21.1602 33.4512 20.8086C33.6465 20.457 33.7441 20.041 33.7441 19.5605L34.0898 19.625H31.5938V18.5352H35.0273V19.5312C35.0273 20.2656 34.8711 20.9004 34.5586 21.4355C34.25 21.9707 33.8203 22.3848 33.2695 22.6777C32.7227 22.9707 32.0977 23.1172 31.3945 23.1172ZM38.9121 23.1348C38.2715 23.1348 37.7168 22.9961 37.248 22.7188C36.7793 22.4414 36.418 22.0508 36.1641 21.5469C35.9141 21.0391 35.7891 20.4473 35.7891 19.7715C35.7891 19.0996 35.9121 18.5078 36.1582 17.9961C36.4082 17.4844 36.7578 17.0859 37.207 16.8008C37.6602 16.5117 38.1914 16.3672 38.8008 16.3672C39.1719 16.3672 39.5312 16.4277 39.8789 16.5488C40.2266 16.6699 40.5391 16.8613 40.8164 17.123C41.0938 17.3848 41.3125 17.7246 41.4727 18.1426C41.6367 18.5605 41.7188 19.0645 41.7188 19.6543V20.1113H36.5098V19.1562H41.0625L40.4707 19.4727C40.4707 19.0703 40.4082 18.7148 40.2832 18.4062C40.1582 18.0977 39.9707 17.8574 39.7207 17.6855C39.4746 17.5098 39.168 17.4219 38.8008 17.4219C38.4336 17.4219 38.1191 17.5098 37.8574 17.6855C37.5996 17.8613 37.4023 18.0938 37.2656 18.3828C37.1289 18.6719 37.0605 18.9883 37.0605 19.332V19.9824C37.0605 20.4316 37.1387 20.8125 37.2949 21.125C37.4512 21.4375 37.668 21.6758 37.9453 21.8398C38.2266 22.0039 38.5527 22.0859 38.9238 22.0859C39.166 22.0859 39.3848 22.0508 39.5801 21.9805C39.7793 21.9102 39.9512 21.8047 40.0957 21.6641C40.2402 21.5234 40.3496 21.3496 40.4238 21.1426L41.6309 21.3711C41.5332 21.7227 41.3613 22.0312 41.1152 22.2969C40.8691 22.5625 40.5586 22.7695 40.1836 22.918C39.8125 23.0625 39.3887 23.1348 38.9121 23.1348ZM45.6562 16.4492V17.4746H42.082V16.4492H45.6562ZM43.0371 14.8906H44.3086V21.0781C44.3086 21.3789 44.3711 21.5996 44.4961 21.7402C44.6211 21.877 44.8223 21.9453 45.0996 21.9453C45.166 21.9453 45.2363 21.9414 45.3105 21.9336C45.3887 21.9258 45.4668 21.9141 45.5449 21.8984L45.7852 22.9531C45.6562 22.9961 45.5156 23.0293 45.3633 23.0527C45.2109 23.0762 45.0586 23.0879 44.9062 23.0879C44.3398 23.0879 43.8867 22.9297 43.5469 22.6133C43.207 22.293 43.0371 21.8672 43.0371 21.3359V14.8906ZM54.1406 18.0547L52.9863 18.2539C52.9121 18.0352 52.7734 17.834 52.5703 17.6504C52.3711 17.4668 52.0723 17.375 51.6738 17.375C51.3145 17.375 51.0137 17.457 50.7715 17.6211C50.5332 17.7812 50.4141 17.9863 50.4141 18.2363C50.4141 18.4551 50.4941 18.6328 50.6543 18.7695C50.8184 18.9062 51.0781 19.0156 51.4336 19.0977L52.4824 19.332C53.0801 19.4688 53.5273 19.6836 53.8242 19.9766C54.1211 20.2695 54.2695 20.6445 54.2695 21.1016C54.2695 21.4961 54.1562 21.8477 53.9297 22.1562C53.7031 22.4609 53.3887 22.7012 52.9863 22.877C52.584 23.0488 52.1191 23.1348 51.5918 23.1348C50.8574 23.1348 50.2598 22.9766 49.7988 22.6602C49.3379 22.3438 49.0547 21.8984 48.9492 21.3242L50.1738 21.1367C50.252 21.457 50.4102 21.6992 50.6484 21.8633C50.8906 22.0273 51.2031 22.1094 51.5859 22.1094C52 22.1094 52.332 22.0215 52.582 21.8457C52.8359 21.6699 52.9629 21.457 52.9629 21.207C52.9629 20.793 52.6543 20.5137 52.0371 20.3691L50.9297 20.123C50.3164 19.9824 49.8633 19.7617 49.5703 19.4609C49.2812 19.1562 49.1367 18.7734 49.1367 18.3125C49.1367 17.9258 49.2441 17.5859 49.459 17.293C49.6777 17 49.9766 16.7734 50.3555 16.6133C50.7383 16.4492 51.1738 16.3672 51.6621 16.3672C52.373 16.3672 52.9297 16.5215 53.332 16.8301C53.7383 17.1387 54.0078 17.5469 54.1406 18.0547ZM58.207 16.4492V17.4746H54.6328V16.4492H58.207ZM55.5879 14.8906H56.8594V21.0781C56.8594 21.3789 56.9219 21.5996 57.0469 21.7402C57.1719 21.877 57.373 21.9453 57.6504 21.9453C57.7168 21.9453 57.7871 21.9414 57.8613 21.9336C57.9395 21.9258 58.0176 21.9141 58.0957 21.8984L58.3359 22.9531C58.207 22.9961 58.0664 23.0293 57.9141 23.0527C57.7617 23.0762 57.6094 23.0879 57.457 23.0879C56.8906 23.0879 56.4375 22.9297 56.0977 22.6133C55.7578 22.293 55.5879 21.8672 55.5879 21.3359V14.8906ZM61.0195 23.1406C60.6055 23.1406 60.2305 23.0645 59.8945 22.9121C59.5586 22.7559 59.293 22.5293 59.0977 22.2324C58.9023 21.9355 58.8047 21.5742 58.8047 21.1484C58.8047 20.7773 58.875 20.4746 59.0156 20.2402C59.1602 20.002 59.3535 19.8125 59.5957 19.6719C59.8379 19.5312 60.1074 19.4258 60.4043 19.3555C60.7012 19.2852 61.0059 19.2305 61.3184 19.1914C61.7129 19.1484 62.0312 19.1113 62.2734 19.0801C62.5156 19.0488 62.6914 19 62.8008 18.9336C62.9141 18.8633 62.9707 18.752 62.9707 18.5996V18.5703C62.9707 18.1992 62.8652 17.9121 62.6543 17.709C62.4473 17.5059 62.1387 17.4043 61.7285 17.4043C61.3027 17.4043 60.9648 17.498 60.7148 17.6855C60.4688 17.8691 60.2988 18.0781 60.2051 18.3125L59.0039 18.0371C59.1484 17.6387 59.3574 17.3184 59.6309 17.0762C59.9082 16.8301 60.2246 16.6504 60.5801 16.5371C60.9395 16.4238 61.3145 16.3672 61.7051 16.3672C61.9668 16.3672 62.2441 16.3984 62.5371 16.4609C62.8301 16.5195 63.1055 16.6309 63.3633 16.7949C63.625 16.9551 63.8379 17.1855 64.002 17.4863C64.166 17.7871 64.248 18.1758 64.248 18.6523V23H63V22.1035H62.9531C62.875 22.2637 62.752 22.4238 62.584 22.584C62.4199 22.7441 62.209 22.877 61.9512 22.9824C61.6934 23.0879 61.3828 23.1406 61.0195 23.1406ZM61.2949 22.1211C61.6504 22.1211 61.9531 22.0527 62.2031 21.916C62.4531 21.7754 62.6445 21.5918 62.7773 21.3652C62.9102 21.1387 62.9766 20.8984 62.9766 20.6445V19.7949C62.9297 19.8379 62.8418 19.8789 62.7129 19.918C62.584 19.957 62.4375 19.9902 62.2734 20.0176C62.1094 20.0449 61.9492 20.0703 61.793 20.0938C61.6367 20.1133 61.5059 20.1289 61.4004 20.1406C61.1543 20.1758 60.9297 20.2305 60.7266 20.3047C60.5234 20.375 60.3594 20.4805 60.2344 20.6211C60.1133 20.7578 60.0527 20.9395 60.0527 21.166C60.0527 21.4824 60.1699 21.7207 60.4043 21.8809C60.6387 22.041 60.9355 22.1211 61.2949 22.1211ZM65.4727 23V16.4492H66.6973V17.498H66.7676C66.8887 17.1465 67.0996 16.8691 67.4004 16.666C67.7051 16.459 68.0488 16.3555 68.4316 16.3555C68.5098 16.3555 68.6016 16.3594 68.707 16.3672C68.8164 16.3711 68.9043 16.377 68.9707 16.3848V17.6035C68.9199 17.5879 68.8281 17.5723 68.6953 17.5566C68.5664 17.541 68.4355 17.5332 68.3027 17.5332C68.002 17.5332 67.7324 17.5977 67.4941 17.7266C67.2598 17.8516 67.0742 18.0254 66.9375 18.248C66.8047 18.4668 66.7383 18.7207 66.7383 19.0098V23H65.4727ZM73.0078 16.4492V17.4746H69.4336V16.4492H73.0078ZM70.3887 14.8906H71.6602V21.0781C71.6602 21.3789 71.7227 21.5996 71.8477 21.7402C71.9727 21.877 72.1738 21.9453 72.4512 21.9453C72.5176 21.9453 72.5879 21.9414 72.6621 21.9336C72.7402 21.9258 72.8184 21.9141 72.8965 21.8984L73.1367 22.9531C73.0078 22.9961 72.8672 23.0293 72.7148 23.0527C72.5625 23.0762 72.4102 23.0879 72.2578 23.0879C71.6914 23.0879 71.2383 22.9297 70.8984 22.6133C70.5586 22.293 70.3887 21.8672 70.3887 21.3359V14.8906ZM76.6699 23.1348C76.0293 23.1348 75.4746 22.9961 75.0059 22.7188C74.5371 22.4414 74.1758 22.0508 73.9219 21.5469C73.6719 21.0391 73.5469 20.4473 73.5469 19.7715C73.5469 19.0996 73.6699 18.5078 73.916 17.9961C74.166 17.4844 74.5156 17.0859 74.9648 16.8008C75.418 16.5117 75.9492 16.3672 76.5586 16.3672C76.9297 16.3672 77.2891 16.4277 77.6367 16.5488C77.9844 16.6699 78.2969 16.8613 78.5742 17.123C78.8516 17.3848 79.0703 17.7246 79.2305 18.1426C79.3945 18.5605 79.4766 19.0645 79.4766 19.6543V20.1113H74.2676V19.1562H78.8203L78.2285 19.4727C78.2285 19.0703 78.166 18.7148 78.041 18.4062C77.916 18.0977 77.7285 17.8574 77.4785 17.6855C77.2324 17.5098 76.9258 17.4219 76.5586 17.4219C76.1914 17.4219 75.877 17.5098 75.6152 17.6855C75.3574 17.8613 75.1602 18.0938 75.0234 18.3828C74.8867 18.6719 74.8184 18.9883 74.8184 19.332V19.9824C74.8184 20.4316 74.8965 20.8125 75.0527 21.125C75.209 21.4375 75.4258 21.6758 75.7031 21.8398C75.9844 22.0039 76.3105 22.0859 76.6816 22.0859C76.9238 22.0859 77.1426 22.0508 77.3379 21.9805C77.5371 21.9102 77.709 21.8047 77.8535 21.6641C77.998 21.5234 78.1074 21.3496 78.1816 21.1426L79.3887 21.3711C79.291 21.7227 79.1191 22.0312 78.873 22.2969C78.627 22.5625 78.3164 22.7695 77.9414 22.918C77.5703 23.0625 77.1465 23.1348 76.6699 23.1348ZM82.8047 23.1289C82.2734 23.1289 81.8008 22.9941 81.3867 22.7246C80.9727 22.4512 80.6484 22.0625 80.4141 21.5586C80.1797 21.0508 80.0625 20.4453 80.0625 19.7422C80.0625 19.0312 80.1816 18.4238 80.4199 17.9199C80.6582 17.416 80.9844 17.0312 81.3984 16.7656C81.8125 16.5 82.2812 16.3672 82.8047 16.3672C83.2148 16.3672 83.543 16.4355 83.7891 16.5723C84.0391 16.7051 84.2324 16.8613 84.3691 17.041C84.5098 17.2207 84.6172 17.3789 84.6914 17.5156H84.7676V14.2695H86.0332V23H84.7969V21.9805H84.6914C84.6172 22.1172 84.5078 22.2754 84.3633 22.4551C84.2188 22.6348 84.0215 22.793 83.7715 22.9297C83.5254 23.0625 83.2031 23.1289 82.8047 23.1289ZM83.0801 22.0449C83.4473 22.0449 83.7578 21.9473 84.0117 21.752C84.2656 21.5566 84.457 21.2852 84.5859 20.9375C84.7188 20.5898 84.7852 20.1875 84.7852 19.7305C84.7852 19.2734 84.7207 18.875 84.5918 18.5352C84.4629 18.1914 84.2715 17.9258 84.0176 17.7383C83.7637 17.5469 83.4512 17.4512 83.0801 17.4512C82.6973 17.4512 82.3789 17.5508 82.125 17.75C81.8711 17.9492 81.6797 18.2207 81.5508 18.5645C81.4219 18.9082 81.3574 19.2969 81.3574 19.7305C81.3574 20.168 81.4219 20.5625 81.5508 20.9141C81.6797 21.2617 81.8711 21.5371 82.125 21.7402C82.3828 21.9434 82.7012 22.0449 83.0801 22.0449Z" fill="white"/>
<path d="M111.354 20.3536C111.549 20.1583 111.549 19.8417 111.354 19.6464L108.172 16.4645C107.976 16.2692 107.66 16.2692 107.464 16.4645C107.269 16.6597 107.269 16.9763 107.464 17.1716L110.293 20L107.464 22.8284C107.269 23.0237 107.269 23.3403 107.464 23.5355C107.66 23.7308 107.976 23.7308 108.172 23.5355L111.354 20.3536ZM97 20V20.5H111V20V19.5H97V20Z" fill="white"/>
<defs>
<linearGradient id="paint0_linear_2002_43075" x1="45.7934" y1="5.23354" x2="89.961" y2="63.0759" gradientUnits="userSpaceOnUse">
<stop stop-color="#732CFF"/>
<stop offset="1" stop-color="#F46D6B"/>
</linearGradient>
</defs>
</svg>
