<svg width="300" height="189" viewBox="0 0 300 189" fill="none" xmlns="http://www.w3.org/2000/svg">
<line opacity="0.5" x1="196.5" y1="2.18557e-08" x2="196.5" y2="189" stroke="url(#paint0_linear_2011_43044)" stroke-dasharray="5 5"/>
<line opacity="0.2" x1="264.5" y1="2.18557e-08" x2="264.5" y2="189" stroke="url(#paint1_linear_2011_43044)" stroke-dasharray="5 5"/>
<line opacity="0.5" x1="128.5" y1="2.18557e-08" x2="128.5" y2="189" stroke="url(#paint2_linear_2011_43044)" stroke-dasharray="5 5"/>
<line opacity="0.5" x1="163.5" y1="2.18557e-08" x2="163.5" y2="189" stroke="url(#paint3_linear_2011_43044)" stroke-dasharray="5 5"/>
<line x1="64.5" y1="2.18557e-08" x2="64.5" y2="189" stroke="url(#paint4_linear_2011_43044)" stroke-dasharray="5 5"/>
<line x1="99.5" y1="2.18557e-08" x2="99.5" y2="189" stroke="url(#paint5_linear_2011_43044)" stroke-dasharray="5 5"/>
<line opacity="0.3" x1="0.5" y1="2.18557e-08" x2="0.499992" y2="189" stroke="url(#paint6_linear_2011_43044)" stroke-dasharray="5 5"/>
<line x1="35.5" y1="2.18557e-08" x2="35.5" y2="189" stroke="url(#paint7_linear_2011_43044)" stroke-dasharray="5 5"/>
<line opacity="0.5" x1="231.5" y1="2.18557e-08" x2="231.5" y2="189" stroke="url(#paint8_linear_2011_43044)" stroke-dasharray="5 5"/>
<line opacity="0.1" x1="299.5" y1="2.18557e-08" x2="299.5" y2="189" stroke="url(#paint9_linear_2011_43044)" stroke-dasharray="5 5"/>
<defs>
<linearGradient id="paint0_linear_2011_43044" x1="195.5" y1="-2.18557e-08" x2="195.5" y2="189" gradientUnits="userSpaceOnUse">
<stop stop-color="#0E0E2A"/>
<stop offset="0.5" stop-color="white"/>
<stop offset="1" stop-color="#0D0F2B"/>
</linearGradient>
<linearGradient id="paint1_linear_2011_43044" x1="263.5" y1="-2.18557e-08" x2="263.5" y2="189" gradientUnits="userSpaceOnUse">
<stop stop-color="#0E0E2A"/>
<stop offset="0.5" stop-color="white"/>
<stop offset="1" stop-color="#0D0F2B"/>
</linearGradient>
<linearGradient id="paint2_linear_2011_43044" x1="127.5" y1="-2.18557e-08" x2="127.5" y2="189" gradientUnits="userSpaceOnUse">
<stop stop-color="#0E0E2A"/>
<stop offset="0.5" stop-color="white"/>
<stop offset="1" stop-color="#0D0F2B"/>
</linearGradient>
<linearGradient id="paint3_linear_2011_43044" x1="162.5" y1="-2.18557e-08" x2="162.5" y2="189" gradientUnits="userSpaceOnUse">
<stop stop-color="#0E0E2A"/>
<stop offset="0.5" stop-color="white"/>
<stop offset="1" stop-color="#0D0F2B"/>
</linearGradient>
<linearGradient id="paint4_linear_2011_43044" x1="63.5" y1="-2.18557e-08" x2="63.5" y2="189" gradientUnits="userSpaceOnUse">
<stop stop-color="#0E0E2A"/>
<stop offset="0.5" stop-color="white" stop-opacity="0.25"/>
<stop offset="1" stop-color="#0D0F2B"/>
</linearGradient>
<linearGradient id="paint5_linear_2011_43044" x1="98.5" y1="-2.18557e-08" x2="98.5" y2="189" gradientUnits="userSpaceOnUse">
<stop stop-color="#0E0E2A"/>
<stop offset="0.5" stop-color="white" stop-opacity="0.25"/>
<stop offset="1" stop-color="#0D0F2B"/>
</linearGradient>
<linearGradient id="paint6_linear_2011_43044" x1="-0.5" y1="-2.18557e-08" x2="-0.500008" y2="189" gradientUnits="userSpaceOnUse">
<stop stop-color="#0E0E2A"/>
<stop offset="0.5" stop-color="white" stop-opacity="0.25"/>
<stop offset="1" stop-color="#0D0F2B"/>
</linearGradient>
<linearGradient id="paint7_linear_2011_43044" x1="34.5" y1="-2.18557e-08" x2="34.5" y2="189" gradientUnits="userSpaceOnUse">
<stop stop-color="#0E0E2A"/>
<stop offset="0.5" stop-color="white" stop-opacity="0.25"/>
<stop offset="1" stop-color="#0D0F2B"/>
</linearGradient>
<linearGradient id="paint8_linear_2011_43044" x1="230.5" y1="-2.18557e-08" x2="230.5" y2="189" gradientUnits="userSpaceOnUse">
<stop stop-color="#0E0E2A"/>
<stop offset="0.5" stop-color="white"/>
<stop offset="1" stop-color="#0D0F2B"/>
</linearGradient>
<linearGradient id="paint9_linear_2011_43044" x1="298.5" y1="-2.18557e-08" x2="298.5" y2="189" gradientUnits="userSpaceOnUse">
<stop stop-color="#0E0E2A"/>
<stop offset="0.5" stop-color="white"/>
<stop offset="1" stop-color="#0D0F2B"/>
</linearGradient>
</defs>
</svg>
