<svg version="1.2" xmlns="http://www.w3.org/2000/svg" viewBox="0 0 354 351" width="354" height="351">
	<title>Group 1597884574 (7)</title>
	<defs>
		<radialGradient id="g1" cx="0" cy="0" r="1" gradientUnits="userSpaceOnUse" gradientTransform="matrix(224,-404.091,404.091,224,71.5,404.091)">
			<stop offset=".773" stop-color="#0d0f2b" stop-opacity=".5"/>
			<stop offset="1" stop-color="#732cff" stop-opacity=".7"/>
		</radialGradient>
		<linearGradient id="g2" x2="1" gradientUnits="userSpaceOnUse" gradientTransform="matrix(-115.354,251.025,-252.116,-115.855,191.773,77.414)">
			<stop offset="0" stop-color="#f6f6ff"/>
			<stop offset="1" stop-color="#2f2f38"/>
		</linearGradient>
		<linearGradient id="g3" x2="1" gradientUnits="userSpaceOnUse" gradientTransform="matrix(264,0,0,132,45,274)">
			<stop offset="0" stop-color="#f46d6b"/>
			<stop offset=".5" stop-color="#fbb17d"/>
			<stop offset="1" stop-color="#f46d6b"/>
		</linearGradient>
		<linearGradient id="g4" x2="1" gradientUnits="userSpaceOnUse" gradientTransform="matrix(264,0,0,195.934,45,274)">
			<stop offset="0" stop-color="#f46d6b"/>
			<stop offset=".5" stop-color="#fbb17d"/>
			<stop offset="1" stop-color="#f46d6b"/>
		</linearGradient>
	</defs>
	<style>
		.s0 { opacity: .9;fill: url(#g1);stroke: url(#g2) } 
		.s1 { opacity: .18;fill: #19ca2e;stroke: #19ca2e;stroke-width: .5 } 
		.s2 { fill: #ffffff } 
		.s3 { fill: #aeb9e1 } 
		.s4 { fill: url(#g3) } 
		.s5 { fill: url(#g4) } 
		.s6 { fill: #732cff } 
		.s7 { fill: #f46d6b } 
	</style>
	<path class="s0" d="m20 0.5h314c10.77 0 19.5 8.73 19.5 19.5v310c0 10.77-8.73 19.5-19.5 19.5h-314c-10.77 0-19.5-8.73-19.5-19.5v-310c0-10.77 8.73-19.5 19.5-19.5z"/>
	<path fill-rule="evenodd" class="s1" d="m283 85.25h36c5.38 0 9.75 4.37 9.75 9.75 0 5.38-4.37 9.75-9.75 9.75h-36c-5.38 0-9.75-4.37-9.75-9.75 0-5.38 4.37-9.75 9.75-9.75z"/>
	<path class="s2" d="m283.64 98.54v-4.8h0.95v4.8zm-1.92-1.92v-0.96h4.8v0.96zm8.36 2.48q-0.67 0-1.2-0.26-0.53-0.26-0.85-0.7-0.32-0.46-0.34-1.03h1.07q0.04 0.46 0.41 0.76 0.38 0.3 0.91 0.3 0.42 0 0.74-0.19 0.32-0.2 0.51-0.53 0.18-0.34 0.18-0.78 0-0.44-0.19-0.79-0.19-0.35-0.52-0.55-0.34-0.2-0.77-0.2-0.33 0-0.67 0.12-0.33 0.11-0.53 0.29l-1.01-0.15 0.41-3.67h4v0.95h-3.09l-0.22 2.03h0.03q0.21-0.21 0.57-0.34 0.35-0.14 0.76-0.14 0.67 0 1.18 0.32 0.53 0.31 0.82 0.86 0.3 0.54 0.3 1.25 0 0.7-0.32 1.26-0.32 0.55-0.89 0.87-0.56 0.32-1.29 0.32zm3.84-0.03q-0.29 0-0.5-0.21-0.21-0.2-0.21-0.5 0-0.3 0.21-0.5 0.21-0.21 0.5-0.21 0.3 0 0.51 0.21 0.21 0.2 0.21 0.5 0 0.3-0.21 0.5-0.21 0.21-0.51 0.21zm4.02 0.03q-0.67 0-1.21-0.26-0.52-0.26-0.84-0.7-0.32-0.46-0.34-1.03h1.07q0.04 0.46 0.41 0.76 0.38 0.3 0.91 0.3 0.42 0 0.74-0.19 0.32-0.2 0.51-0.53 0.18-0.34 0.18-0.78 0-0.44-0.19-0.79-0.19-0.35-0.53-0.55-0.33-0.2-0.76-0.2-0.33 0-0.67 0.12-0.33 0.11-0.53 0.29l-1.01-0.15 0.41-3.67h3.99v0.95h-3.08l-0.23 2.03h0.04q0.21-0.21 0.56-0.34 0.36-0.14 0.77-0.14 0.67 0 1.18 0.32 0.53 0.31 0.82 0.86 0.3 0.54 0.3 1.25 0 0.7-0.32 1.26-0.32 0.55-0.89 0.87-0.56 0.32-1.29 0.32zm7.08-1.47v-0.38q0-0.41 0.18-0.75 0.17-0.35 0.5-0.55 0.33-0.21 0.8-0.21 0.49 0 0.81 0.2 0.33 0.21 0.5 0.56 0.16 0.34 0.16 0.75v0.38q0 0.42-0.17 0.76-0.16 0.35-0.49 0.55-0.33 0.21-0.81 0.21-0.47 0-0.81-0.21-0.33-0.2-0.5-0.55-0.17-0.34-0.17-0.76zm-3.32 1.37l5-7.28h0.85l-5 7.28zm-0.33-5.53v-0.38q0-0.41 0.17-0.76 0.17-0.34 0.5-0.55 0.33-0.2 0.8-0.2 0.48 0 0.81 0.2 0.33 0.21 0.5 0.55 0.17 0.35 0.16 0.76v0.38q0.01 0.41-0.16 0.76-0.18 0.34-0.5 0.55-0.33 0.21-0.81 0.21-0.48 0-0.81-0.21-0.33-0.21-0.5-0.55-0.16-0.35-0.16-0.76zm0.82-0.38v0.38q0 0.31 0.15 0.56 0.15 0.25 0.5 0.24 0.36 0.01 0.5-0.24 0.15-0.25 0.15-0.56v-0.38q0-0.31-0.14-0.55-0.14-0.25-0.51-0.25-0.35 0-0.5 0.25-0.15 0.24-0.15 0.55zm3.66 4.16v0.38q0 0.31 0.14 0.56 0.15 0.25 0.51 0.25 0.36 0 0.5-0.25 0.14-0.25 0.14-0.56v-0.38q0-0.31-0.13-0.55-0.14-0.25-0.51-0.25-0.35 0-0.51 0.25-0.14 0.24-0.14 0.55z"/>
	<path class="s2" d="m318.35 91.65c-0.19-0.2-0.51-0.2-0.7 0l-3.19 3.18c-0.19 0.19-0.19 0.51 0 0.71 0.2 0.19 0.52 0.19 0.71 0l2.83-2.83 2.83 2.83c0.19 0.19 0.51 0.19 0.71 0 0.19-0.2 0.19-0.52 0-0.71zm-0.36 6.35h0.5v-6h-0.5-0.5v6z"/>
	<path class="s2" d="m45.9 117.54q-3.68 0-6.61-1.4-2.9-1.42-4.64-3.89-1.75-2.5-1.86-5.67h5.86q0.21 2.55 2.28 4.22 2.07 1.66 4.97 1.66 2.31 0 4.08-1.07 1.77-1.08 2.79-2.93 1.02-1.88 1.02-4.3 0-2.41-1.04-4.32-1.05-1.93-2.9-3.04-1.83-1.1-4.22-1.1-1.83 0-3.65 0.65-1.83 0.62-2.96 1.61l-5.56-0.81 2.26-20.16h21.99v5.18h-16.94l-1.26 11.2h0.21q1.16-1.16 3.09-1.88 1.96-0.75 4.22-0.75 3.65 0 6.5 1.74 2.87 1.72 4.51 4.73 1.64 2.98 1.64 6.85 0 3.89-1.78 6.95-1.77 3.04-4.88 4.78-3.09 1.75-7.12 1.75zm32 0q-4.62 0-7.92-2.42-3.28-2.42-5.02-6.98-1.72-4.59-1.72-11.12 0-6.5 1.74-11.09 1.75-4.62 5.03-7.04 3.3-2.44 7.89-2.44 4.62 0 7.9 2.44 3.3 2.42 5.02 7.04 1.75 4.59 1.75 11.09 0 6.53-1.72 11.12-1.72 4.56-5 6.98-3.27 2.42-7.95 2.42zm0-5.16q2.82 0 4.76-1.8 1.93-1.8 2.95-5.24 1.02-3.46 1.02-8.32 0-4.89-1.02-8.33-1.02-3.46-2.95-5.26-1.94-1.83-4.76-1.83-4.16 0-6.44 4.06-2.26 4.03-2.26 11.36 0 4.86 1.02 8.32 1.02 3.44 2.96 5.24 1.96 1.8 4.72 1.8zm32.92 5.16q-4.62 0-7.92-2.42-3.28-2.42-5.02-6.98-1.72-4.59-1.72-11.12 0-6.5 1.74-11.09 1.75-4.62 5.02-7.04 3.31-2.44 7.9-2.44 4.62 0 7.9 2.44 3.3 2.42 5.02 7.04 1.74 4.59 1.74 11.09 0 6.53-1.72 11.12-1.71 4.56-4.99 6.98-3.28 2.42-7.95 2.42zm0-5.16q2.82 0 4.75-1.8 1.94-1.8 2.96-5.24 1.02-3.46 1.02-8.32 0-4.89-1.02-8.33-1.02-3.46-2.96-5.26-1.93-1.83-4.75-1.83-4.16 0-6.45 4.06-2.25 4.03-2.25 11.36 0 4.86 1.02 8.32 1.02 3.44 2.95 5.24 1.96 1.8 4.73 1.8zm30.85 2.07v-26.4h5.24v26.4zm-10.61-10.56v-5.29h26.42v5.29z"/>
	<path class="s3" d="m34.2 46v-11.2h3.94q1.18 0 1.95 0.38 0.78 0.37 1.17 1.03 0.38 0.64 0.38 1.44 0 0.86-0.38 1.44-0.37 0.57-0.98 0.88-0.59 0.3-1.26 0.37l0.22-0.16q0.72 0.01 1.33 0.38 0.61 0.37 0.96 0.99 0.37 0.63 0.37 1.39 0 0.85-0.42 1.56-0.42 0.68-1.23 1.1-0.8 0.4-1.99 0.4zm1.35-1.12h2.57q1.14 0 1.76-0.53 0.64-0.54 0.64-1.5 0-0.95-0.65-1.51-0.64-0.57-1.78-0.57h-2.54zm0-5.19h2.49q1.09 0 1.65-0.51 0.58-0.51 0.58-1.39 0-0.85-0.58-1.36-0.56-0.51-1.69-0.51h-2.45zm11.06 6.49q-0.93 0-1.63-0.36-0.69-0.37-1.07-1.14-0.37-0.77-0.37-1.92v-4.83h1.34v4.69q0 1.2 0.53 1.8 0.53 0.61 1.49 0.61 0.67 0 1.22-0.32 0.54-0.33 0.84-0.94 0.32-0.63 0.32-1.52v-4.32h1.35v8.06h-1.22l-0.08-1.41q-0.37 0.76-1.09 1.19-0.72 0.41-1.63 0.41zm9.21 0q-1.01 0-1.76-0.33-0.74-0.34-1.19-0.93-0.43-0.61-0.53-1.42h1.38q0.08 0.41 0.34 0.76 0.25 0.36 0.68 0.58 0.45 0.21 1.09 0.21 0.56 0 0.93-0.16 0.37-0.18 0.54-0.47 0.2-0.28 0.2-0.62 0-0.5-0.24-0.75-0.23-0.26-0.68-0.4-0.44-0.16-1.08-0.27-0.53-0.1-1.04-0.26-0.52-0.16-0.92-0.42-0.4-0.27-0.64-0.65-0.22-0.39-0.22-0.95 0-0.68 0.35-1.21 0.35-0.55 1.01-0.85 0.67-0.3 1.55-0.3 1.3 0 2.1 0.62 0.8 0.62 0.94 1.81h-1.33q-0.08-0.61-0.52-0.95-0.44-0.35-1.2-0.35-0.76 0-1.16 0.31-0.38 0.3-0.38 0.8 0 0.32 0.21 0.57 0.22 0.24 0.64 0.42 0.43 0.17 1.05 0.29 0.8 0.14 1.46 0.38 0.66 0.24 1.06 0.72 0.41 0.46 0.41 1.33 0 0.75-0.38 1.31-0.37 0.56-1.06 0.88-0.69 0.3-1.61 0.3zm5.04-0.19v-8.06h1.34v8.06zm0.67-9.77q-0.4 0-0.67-0.26-0.26-0.27-0.26-0.67 0-0.4 0.26-0.64 0.27-0.26 0.67-0.26 0.39 0 0.66 0.26 0.27 0.24 0.27 0.64 0 0.4-0.27 0.67-0.27 0.26-0.66 0.26zm2.97 9.77v-8.06h1.21l0.07 1.41q0.38-0.76 1.08-1.17 0.72-0.43 1.64-0.43 0.94 0 1.63 0.38 0.69 0.37 1.07 1.14 0.38 0.75 0.38 1.92v4.81h-1.34v-4.67q0-1.22-0.54-1.82-0.53-0.61-1.51-0.61-0.67 0-1.2 0.33-0.53 0.32-0.85 0.95-0.3 0.61-0.3 1.52v4.3zm12.64 0.19q-1.13 0-2.01-0.52-0.87-0.53-1.36-1.48-0.5-0.96-0.5-2.22 0-1.28 0.48-2.22 0.5-0.95 1.38-1.48 0.89-0.52 2.05-0.52 1.18 0 2 0.52 0.83 0.53 1.26 1.4 0.45 0.84 0.45 1.87 0 0.16 0 0.33 0 0.18-0.02 0.4h-6.59v-1.04h5.3q-0.05-1.1-0.74-1.72-0.67-0.63-1.7-0.63-0.68 0-1.28 0.32-0.57 0.31-0.92 0.91-0.36 0.6-0.36 1.49v0.45q0 0.99 0.36 1.66 0.36 0.68 0.94 1.01 0.59 0.34 1.26 0.34 0.85 0 1.4-0.37 0.55-0.38 0.79-1.02h1.33q-0.19 0.72-0.67 1.29-0.48 0.58-1.2 0.91-0.7 0.32-1.65 0.32zm8.52 0q-1.01 0-1.76-0.33-0.74-0.34-1.18-0.93-0.44-0.61-0.53-1.42h1.37q0.08 0.41 0.34 0.76 0.26 0.36 0.69 0.58 0.45 0.21 1.09 0.21 0.56 0 0.92-0.16 0.37-0.18 0.55-0.47 0.19-0.28 0.19-0.62 0-0.5-0.24-0.75-0.22-0.26-0.67-0.4-0.45-0.16-1.09-0.27-0.53-0.1-1.04-0.26-0.51-0.16-0.91-0.42-0.4-0.27-0.64-0.65-0.23-0.39-0.23-0.95 0-0.68 0.36-1.21 0.35-0.55 1-0.85 0.68-0.3 1.56-0.3 1.29 0 2.09 0.62 0.8 0.62 0.95 1.81h-1.33q-0.08-0.61-0.53-0.95-0.43-0.35-1.2-0.35-0.75 0-1.15 0.31-0.39 0.3-0.39 0.8 0 0.32 0.21 0.57 0.23 0.24 0.64 0.42 0.43 0.17 1.06 0.29 0.8 0.14 1.45 0.38 0.66 0.24 1.06 0.72 0.42 0.46 0.42 1.33 0 0.75-0.39 1.31-0.37 0.56-1.05 0.88-0.69 0.3-1.62 0.3zm7.95 0q-1.01 0-1.76-0.33-0.73-0.34-1.18-0.93-0.43-0.61-0.53-1.42h1.38q0.08 0.41 0.33 0.76 0.26 0.36 0.69 0.58 0.45 0.21 1.09 0.21 0.56 0 0.93-0.16 0.36-0.18 0.54-0.47 0.19-0.28 0.19-0.62 0-0.5-0.24-0.75-0.22-0.26-0.67-0.4-0.45-0.16-1.09-0.27-0.53-0.1-1.04-0.26-0.51-0.16-0.91-0.42-0.4-0.27-0.64-0.65-0.22-0.39-0.22-0.95 0-0.68 0.35-1.21 0.35-0.55 1.01-0.85 0.67-0.3 1.55-0.3 1.29 0 2.09 0.62 0.8 0.62 0.95 1.81h-1.33q-0.08-0.61-0.53-0.95-0.43-0.35-1.2-0.35-0.75 0-1.15 0.31-0.38 0.3-0.38 0.8 0 0.32 0.2 0.57 0.23 0.24 0.64 0.42 0.44 0.17 1.06 0.29 0.8 0.14 1.46 0.38 0.65 0.24 1.05 0.72 0.42 0.46 0.42 1.33 0 0.75-0.39 1.31-0.36 0.56-1.05 0.88-0.69 0.3-1.62 0.3zm8.45 0q-1.14 0-2.02-0.52-0.86-0.53-1.36-1.48-0.49-0.96-0.49-2.22 0-1.28 0.48-2.22 0.49-0.95 1.37-1.48 0.9-0.52 2.05-0.52 1.19 0 2 0.52 0.83 0.53 1.27 1.4 0.44 0.84 0.44 1.87 0 0.16 0 0.33 0 0.18-0.01 0.4h-6.59v-1.04h5.29q-0.05-1.1-0.73-1.72-0.68-0.63-1.7-0.63-0.69 0-1.28 0.32-0.58 0.31-0.93 0.91-0.35 0.6-0.35 1.49v0.45q0 0.99 0.35 1.66 0.37 0.68 0.95 1.01 0.59 0.34 1.26 0.34 0.85 0 1.39-0.37 0.56-0.38 0.8-1.02h1.33q-0.19 0.72-0.67 1.29-0.48 0.58-1.2 0.91-0.71 0.32-1.65 0.32zm8.52 0q-1.01 0-1.76-0.33-0.74-0.34-1.19-0.93-0.43-0.61-0.52-1.42h1.37q0.08 0.41 0.34 0.76 0.25 0.36 0.69 0.58 0.44 0.21 1.08 0.21 0.56 0 0.93-0.16 0.37-0.18 0.55-0.47 0.19-0.28 0.19-0.62 0-0.5-0.24-0.75-0.23-0.26-0.67-0.4-0.45-0.16-1.09-0.27-0.53-0.1-1.04-0.26-0.51-0.16-0.91-0.42-0.41-0.27-0.64-0.65-0.23-0.39-0.23-0.95 0-0.68 0.35-1.21 0.36-0.55 1.01-0.85 0.67-0.3 1.55-0.3 1.3 0 2.1 0.62 0.8 0.62 0.94 1.81h-1.32q-0.08-0.61-0.53-0.95-0.43-0.35-1.2-0.35-0.75 0-1.15 0.31-0.39 0.3-0.39 0.8 0 0.32 0.21 0.57 0.22 0.24 0.64 0.42 0.43 0.17 1.06 0.29 0.8 0.14 1.45 0.38 0.66 0.24 1.06 0.72 0.41 0.46 0.41 1.33 0 0.75-0.38 1.31-0.37 0.56-1.06 0.88-0.68 0.3-1.61 0.3zm12.01 0q-0.93 0-1.64-0.36-0.68-0.37-1.07-1.14-0.37-0.77-0.37-1.92v-4.83h1.35v4.69q0 1.2 0.53 1.8 0.52 0.61 1.48 0.61 0.68 0 1.22-0.32 0.54-0.33 0.85-0.94 0.32-0.63 0.32-1.52v-4.32h1.34v8.06h-1.21l-0.08-1.41q-0.37 0.76-1.09 1.19-0.72 0.41-1.63 0.41zm9.2 0q-1.01 0-1.76-0.33-0.74-0.34-1.18-0.93-0.44-0.61-0.53-1.42h1.37q0.08 0.41 0.34 0.76 0.26 0.36 0.69 0.58 0.45 0.21 1.09 0.21 0.56 0 0.92-0.16 0.37-0.18 0.55-0.47 0.19-0.28 0.19-0.62 0-0.5-0.24-0.75-0.22-0.26-0.67-0.4-0.45-0.16-1.09-0.27-0.53-0.1-1.04-0.26-0.51-0.16-0.91-0.42-0.4-0.27-0.64-0.65-0.23-0.39-0.23-0.95 0-0.68 0.36-1.21 0.35-0.55 1-0.85 0.68-0.3 1.56-0.3 1.29 0 2.09 0.62 0.8 0.62 0.95 1.81h-1.33q-0.08-0.61-0.53-0.95-0.43-0.35-1.2-0.35-0.75 0-1.15 0.31-0.39 0.3-0.39 0.8 0 0.32 0.21 0.57 0.23 0.24 0.64 0.42 0.43 0.17 1.06 0.29 0.8 0.14 1.45 0.38 0.66 0.24 1.06 0.72 0.42 0.46 0.42 1.33 0 0.75-0.39 1.31-0.37 0.56-1.05 0.88-0.69 0.3-1.62 0.3zm5.04-0.19v-8.06h1.34v8.06zm0.68-9.77q-0.4 0-0.68-0.26-0.25-0.27-0.25-0.67 0-0.4 0.25-0.64 0.28-0.26 0.68-0.26 0.38 0 0.65 0.26 0.27 0.24 0.27 0.64 0 0.4-0.27 0.67-0.27 0.26-0.65 0.26zm2.96 9.77v-8.06h1.22l0.06 1.41q0.38-0.76 1.09-1.17 0.72-0.43 1.63-0.43 0.94 0 1.63 0.38 0.69 0.37 1.07 1.14 0.39 0.75 0.39 1.92v4.81h-1.35v-4.67q0-1.22-0.54-1.82-0.53-0.61-1.5-0.61-0.68 0-1.2 0.33-0.53 0.32-0.85 0.95-0.31 0.61-0.31 1.52v4.3zm12.29 3.71q-1.08 0-1.93-0.28-0.83-0.28-1.3-0.85-0.46-0.58-0.46-1.43 0-0.36 0.14-0.78 0.16-0.42 0.53-0.82 0.38-0.4 1.07-0.72l0.93 0.55q-0.85 0.35-1.1 0.8-0.26 0.46-0.26 0.85 0 0.52 0.3 0.88 0.31 0.35 0.85 0.52 0.55 0.18 1.24 0.18 0.68 0 1.18-0.19 0.49-0.19 0.77-0.55 0.27-0.35 0.27-0.83 0-0.56-0.42-0.94-0.41-0.37-1.58-0.43-0.95-0.07-1.59-0.18-0.64-0.11-1.05-0.26-0.42-0.16-0.71-0.35-0.27-0.19-0.49-0.4v-0.37l1.55-1.53 1.17 0.41-1.6 1.44 0.21-0.56q0.17 0.13 0.33 0.24 0.16 0.12 0.43 0.2 0.28 0.08 0.76 0.14 0.49 0.06 1.29 0.13 1.11 0.08 1.76 0.38 0.67 0.31 0.96 0.82 0.31 0.51 0.31 1.21 0 0.69-0.39 1.3-0.37 0.62-1.15 1.02-0.78 0.4-2.01 0.4zm-0.02-6.24q-1.01 0-1.73-0.38-0.7-0.38-1.07-1.02-0.37-0.66-0.37-1.46 0-0.8 0.37-1.44 0.38-0.64 1.09-1.02 0.7-0.4 1.71-0.4 1.01 0 1.71 0.4 0.7 0.38 1.07 1.02 0.37 0.64 0.37 1.44 0 0.8-0.37 1.46-0.37 0.64-1.07 1.02-0.7 0.38-1.71 0.38zm0-1.1q0.86 0 1.36-0.45 0.49-0.45 0.5-1.31-0.01-0.85-0.5-1.3-0.5-0.44-1.36-0.44-0.85 0-1.38 0.44-0.51 0.45-0.51 1.3 0 0.86 0.51 1.31 0.51 0.45 1.38 0.45zm1.31-3.3l-0.4-1.13h3.3v1.01zm7.89 6.92l4.13-11.2h1.42l4.11 11.2h-1.42l-3.41-9.52-3.42 9.52zm1.88-2.88l0.39-1.08h5.07l0.38 1.08zm9.38 2.88v-11.2h1.35v11.2zm7.76 3.52v-11.58h1.21l0.11 1.31q0.26-0.38 0.66-0.72 0.4-0.35 0.96-0.56 0.56-0.22 1.28-0.22 1.18 0 2.05 0.56 0.88 0.56 1.36 1.52 0.49 0.94 0.49 2.16 0 1.21-0.49 2.17-0.48 0.95-1.36 1.49-0.88 0.55-2.07 0.55-0.97 0-1.72-0.4-0.74-0.4-1.14-1.12v4.84zm4.06-4.49q0.79 0 1.4-0.39 0.6-0.38 0.94-1.05 0.35-0.69 0.35-1.62 0-0.91-0.35-1.6-0.34-0.69-0.94-1.07-0.61-0.38-1.4-0.38-0.8 0-1.4 0.38-0.61 0.38-0.95 1.07-0.33 0.69-0.33 1.6 0 0.93 0.33 1.62 0.34 0.67 0.95 1.05 0.6 0.39 1.4 0.39zm5.88 0.97v-11.52h1.34v11.52zm6.11 0.2q-0.98 0-1.64-0.34-0.65-0.35-0.97-0.91-0.32-0.58-0.32-1.25 0-0.82 0.41-1.38 0.44-0.57 1.2-0.86 0.79-0.3 1.84-0.3h2.13q0-0.76-0.24-1.25-0.22-0.51-0.67-0.77-0.43-0.26-1.09-0.26-0.77 0-1.33 0.39-0.56 0.38-0.68 1.13h-1.38q0.1-0.86 0.58-1.44 0.49-0.59 1.24-0.89 0.76-0.32 1.57-0.32 1.12 0 1.86 0.41 0.75 0.4 1.12 1.14 0.37 0.72 0.37 1.71v4.99h-1.2l-0.08-1.42q-0.16 0.34-0.42 0.64-0.24 0.29-0.58 0.51-0.33 0.21-0.76 0.34-0.42 0.13-0.96 0.13zm0.2-1.14q0.56 0 1.01-0.22 0.47-0.24 0.79-0.64 0.32-0.42 0.48-0.92 0.17-0.49 0.17-1.04v-0.04h-2.01q-0.79 0-1.27 0.19-0.48 0.17-0.69 0.51-0.2 0.32-0.2 0.74 0 0.43 0.19 0.75 0.21 0.32 0.59 0.49 0.4 0.18 0.94 0.18zm8.74 0.94q-0.72 0-1.24-0.22-0.53-0.22-0.82-0.75-0.27-0.55-0.27-1.46v-4.49h-1.41v-1.14h1.41l0.17-1.95h1.17v1.95h2.34v1.14h-2.34v4.49q0 0.75 0.31 1.03 0.3 0.25 1.07 0.25h0.86v1.15zm3.47 0v-9.31q0-0.77 0.25-1.25 0.26-0.49 0.76-0.72 0.51-0.24 1.24-0.24h0.92v1.16h-0.71q-0.59 0-0.86 0.24-0.26 0.24-0.26 0.84v9.28zm-1.23-6.92v-1.14h4.61v1.14zm9.43 7.12q-1.12 0-2.02-0.52-0.9-0.52-1.41-1.47-0.51-0.96-0.51-2.22 0-1.3 0.51-2.24 0.53-0.96 1.43-1.47 0.91-0.53 2.03-0.53 1.15 0 2.03 0.53 0.9 0.51 1.41 1.47 0.53 0.94 0.53 2.22 0 1.28-0.53 2.24-0.53 0.95-1.42 1.47-0.9 0.52-2.05 0.52zm0.01-1.16q0.69 0 1.28-0.33 0.59-0.35 0.96-1.04 0.37-0.69 0.37-1.7 0-1.02-0.37-1.69-0.35-0.69-0.94-1.03-0.58-0.35-1.28-0.35-0.67 0-1.28 0.35-0.59 0.34-0.96 1.03-0.35 0.67-0.35 1.69 0 1.01 0.35 1.7 0.37 0.69 0.94 1.04 0.59 0.33 1.28 0.33zm5.79 0.96v-8.06h1.22l0.09 1.54q0.28-0.55 0.69-0.93 0.43-0.39 1.03-0.59 0.6-0.21 1.37-0.21v1.41h-0.49q-0.52 0-0.98 0.14-0.46 0.13-0.83 0.43-0.35 0.31-0.56 0.83-0.19 0.52-0.19 1.28v4.16zm5.84 0v-8.06h1.21l0.08 1.15q0.39-0.62 1.03-0.97 0.65-0.37 1.42-0.37 0.62 0 1.12 0.17 0.51 0.16 0.9 0.52 0.38 0.33 0.62 0.86 0.42-0.74 1.14-1.14 0.73-0.41 1.57-0.41 0.92 0 1.61 0.38 0.71 0.37 1.07 1.14 0.39 0.75 0.39 1.92v4.81h-1.33v-4.67q0-1.21-0.5-1.82-0.49-0.61-1.39-0.61-0.62 0-1.12 0.34-0.5 0.32-0.78 0.94-0.29 0.62-0.29 1.54v4.28h-1.34v-4.67q0-1.21-0.5-1.82-0.5-0.61-1.41-0.61-0.61 0-1.1 0.34-0.48 0.32-0.77 0.94-0.29 0.62-0.29 1.54v4.28z"/>
	<path class="s4" d="m309 274c0-35.01-13.91-68.58-38.66-93.34-24.76-24.75-58.33-38.66-93.34-38.66-35.01 0-68.58 13.91-93.34 38.66-24.75 24.76-38.66 58.33-38.66 93.34h26.4c0-28.01 11.13-54.87 30.93-74.67 19.8-19.8 46.66-30.93 74.67-30.93 28.01 0 54.87 11.13 74.67 30.93 19.8 19.8 30.93 46.66 30.93 74.67z"/>
	<path class="s5" d="m309 274c0-21.28-5.15-42.25-15-61.12-9.86-18.86-24.13-35.07-41.6-47.22-17.47-12.16-37.62-19.92-58.73-22.6-21.12-2.69-42.57-0.23-62.52 7.16l9.17 24.76c15.96-5.92 33.12-7.89 50.01-5.73 16.89 2.15 33.02 8.35 46.99 18.07 13.98 9.73 25.39 22.69 33.28 37.78 7.88 15.1 12 31.87 12 48.9z"/>
	<path class="s6" d="m309 274c0-30.65-10.67-60.35-30.17-84l-20.37 16.8c15.61 18.92 24.14 42.68 24.14 67.2z"/>
	<path fill-rule="evenodd" class="s6" d="m92 318c-2.77 0-5-2.24-5-5 0-2.76 2.23-5 5-5 2.77 0 5 2.24 5 5 0 2.76-2.23 5-5 5z"/>
	<path class="s3" d="m106.2 318v-11.2h3.3q1.96 0 3.23 0.69 1.28 0.67 1.89 1.93 0.62 1.25 0.62 3.01 0 1.73-0.62 2.98-0.61 1.25-1.89 1.92-1.27 0.67-3.23 0.67zm1.34-1.12h1.92q1.63 0 2.59-0.53 0.96-0.54 1.38-1.53 0.41-1.01 0.41-2.39 0-1.41-0.41-2.41-0.42-1.01-1.38-1.56-0.96-0.54-2.59-0.54h-1.92zm12.44 1.31q-0.93 0-1.63-0.37-0.69-0.36-1.07-1.13-0.37-0.77-0.37-1.92v-4.83h1.34v4.68q0 1.2 0.53 1.81 0.53 0.61 1.49 0.61 0.67 0 1.21-0.32 0.55-0.34 0.85-0.94 0.32-0.63 0.32-1.52v-4.32h1.35v8.06h-1.22l-0.08-1.41q-0.37 0.75-1.09 1.19-0.72 0.41-1.63 0.41zm6.16-0.19v-8.06h1.22l0.08 1.15q0.38-0.63 1.02-0.98 0.66-0.37 1.43-0.37 0.62 0 1.12 0.18 0.51 0.16 0.89 0.51 0.39 0.34 0.63 0.87 0.41-0.74 1.13-1.14 0.74-0.42 1.57-0.42 0.93 0 1.62 0.39 0.7 0.37 1.07 1.13 0.38 0.76 0.38 1.92v4.82h-1.32v-4.67q0-1.22-0.5-1.83-0.5-0.6-1.39-0.6-0.63 0-1.12 0.33-0.5 0.32-0.79 0.95-0.28 0.62-0.28 1.53v4.29h-1.35v-4.67q0-1.22-0.49-1.83-0.5-0.6-1.41-0.6-0.61 0-1.11 0.33-0.48 0.32-0.76 0.95-0.29 0.62-0.29 1.53v4.29zm14.17 0v-8.06h1.21l0.08 1.15q0.39-0.63 1.03-0.98 0.65-0.37 1.42-0.37 0.63 0 1.12 0.18 0.51 0.16 0.9 0.51 0.38 0.34 0.62 0.87 0.42-0.74 1.14-1.14 0.73-0.42 1.56-0.42 0.93 0 1.62 0.39 0.71 0.37 1.07 1.13 0.39 0.76 0.39 1.92v4.82h-1.33v-4.67q0-1.22-0.5-1.83-0.49-0.6-1.39-0.6-0.62 0-1.12 0.33-0.49 0.32-0.78 0.95-0.29 0.62-0.29 1.53v4.29h-1.35v-4.67q0.01-1.22-0.49-1.83-0.5-0.6-1.41-0.6-0.61 0-1.1 0.33-0.48 0.32-0.77 0.95-0.29 0.62-0.29 1.53v4.29zm14.82 3.52l1.96-4.42h-0.46l-3.17-7.16h1.46l2.62 6.16 2.75-6.16h1.4l-5.16 11.58z"/>
	<path fill-rule="evenodd" class="s7" d="m200 318c-2.76 0-5-2.24-5-5 0-2.76 2.24-5 5-5 2.76 0 5 2.24 5 5 0 2.76-2.24 5-5 5z"/>
	<path class="s3" d="m217.56 318l-4.21-11.2h1.46l3.53 9.78 3.57-9.78h1.43l-4.21 11.2zm6.71 0v-8.06h1.22l0.09 1.53q0.28-0.54 0.69-0.93 0.43-0.38 1.03-0.59 0.6-0.21 1.37-0.21v1.41h-0.49q-0.52 0-0.98 0.15-0.46 0.12-0.83 0.43-0.35 0.3-0.56 0.83-0.19 0.51-0.19 1.28v4.16zm9.14 0.19q-1.12 0-2.02-0.51-0.89-0.53-1.4-1.47-0.51-0.96-0.52-2.23 0.01-1.29 0.52-2.24 0.53-0.96 1.42-1.47 0.91-0.53 2.03-0.53 1.16 0 2.03 0.53 0.9 0.51 1.41 1.47 0.53 0.95 0.53 2.23 0 1.28-0.53 2.24-0.52 0.94-1.42 1.47-0.9 0.51-2.05 0.51zm0.02-1.15q0.69 0 1.28-0.34 0.59-0.35 0.96-1.04 0.37-0.68 0.36-1.69 0.01-1.03-0.36-1.7-0.35-0.69-0.95-1.02-0.57-0.35-1.28-0.35-0.67 0-1.28 0.35-0.59 0.33-0.96 1.02-0.35 0.67-0.35 1.7 0 1.01 0.35 1.69 0.37 0.69 0.95 1.04 0.59 0.34 1.28 0.34zm4.64 0.96l2.74-4.03-2.74-4.03h1.47l2.18 3.29 2.21-3.29h1.44l-2.74 4.03 2.74 4.03h-1.44l-2.21-3.31-2.18 3.31zm12.89 0.19q-0.69 0-1.25-0.19-0.55-0.21-0.96-0.54-0.42-0.34-0.69-0.79l-0.11 1.33h-1.22v-11.52h1.35v4.78q0.38-0.62 1.1-1.07 0.72-0.45 1.78-0.45 1.16 0 2.04 0.56 0.88 0.55 1.36 1.51 0.5 0.94 0.5 2.16 0 1.21-0.5 2.17-0.48 0.96-1.36 1.51-0.88 0.54-2.04 0.54zm-0.16-1.17q0.78 0 1.39-0.38 0.61-0.38 0.94-1.06 0.35-0.68 0.35-1.61 0-0.91-0.35-1.6-0.33-0.69-0.94-1.07-0.61-0.39-1.39-0.39-0.8 0-1.41 0.39-0.61 0.38-0.95 1.07-0.33 0.69-0.33 1.6 0 0.93 0.33 1.61 0.34 0.68 0.95 1.06 0.61 0.38 1.41 0.38zm9.47 1.17q-1.12 0-2.02-0.51-0.9-0.53-1.41-1.47-0.51-0.96-0.51-2.23 0-1.29 0.51-2.24 0.53-0.96 1.43-1.47 0.91-0.53 2.03-0.53 1.15 0 2.03 0.53 0.9 0.51 1.41 1.47 0.53 0.95 0.53 2.23 0 1.28-0.53 2.24-0.53 0.94-1.43 1.47-0.89 0.51-2.04 0.51zm0.01-1.15q0.69 0 1.28-0.34 0.6-0.35 0.96-1.04 0.37-0.68 0.37-1.69 0-1.03-0.37-1.7-0.35-0.69-0.94-1.02-0.58-0.35-1.28-0.35-0.67 0-1.28 0.35-0.59 0.33-0.96 1.02-0.35 0.67-0.35 1.7 0 1.01 0.35 1.69 0.37 0.69 0.94 1.04 0.59 0.34 1.28 0.34z"/>
	<path class="s2" d="m170.89 240.27q-2.06 0-3.66-0.69-1.6-0.71-2.53-1.97-0.93-1.26-0.99-2.92h3.09q0.07 0.91 0.62 1.56 0.54 0.66 1.43 1.03 0.91 0.35 2.01 0.35 1.21 0 2.14-0.42 0.93-0.42 1.44-1.16 0.54-0.75 0.54-1.74 0-1.02-0.52-1.8-0.52-0.8-1.52-1.23-1-0.44-2.41-0.44h-1.73v-2.52h1.73q1.12 0 1.99-0.41 0.86-0.41 1.34-1.13 0.49-0.73 0.49-1.71 0-0.94-0.43-1.64-0.42-0.71-1.18-1.09-0.77-0.4-1.81-0.4-1 0-1.86 0.35-0.86 0.36-1.41 1.03-0.53 0.66-0.56 1.6h-2.96q0.04-1.65 0.95-2.9 0.93-1.26 2.46-1.95 1.55-0.72 3.42-0.72 1.96 0.01 3.38 0.77 1.43 0.75 2.21 2.02 0.78 1.26 0.78 2.75 0 1.74-0.95 2.93-0.96 1.17-2.56 1.6v0.15q2.02 0.31 3.13 1.61 1.12 1.3 1.12 3.23 0 1.68-0.94 3.01-0.93 1.32-2.56 2.09-1.61 0.76-3.69 0.76zm10.06-0.27v-2.22l6.89-7.16q1.09-1.15 1.8-2.02 0.72-0.89 1.08-1.68 0.37-0.8 0.37-1.69 0-1.02-0.48-1.76-0.48-0.74-1.3-1.13-0.82-0.4-1.86-0.4-1.09 0-1.9 0.45-0.8 0.44-1.26 1.26-0.43 0.81-0.43 1.9h-2.93q0-1.86 0.85-3.26 0.86-1.39 2.35-2.16 1.5-0.78 3.39-0.78 1.93 0.01 3.39 0.77 1.46 0.77 2.29 2.08 0.82 1.3 0.82 2.94 0 1.13-0.43 2.21-0.41 1.08-1.46 2.42-1.04 1.33-2.9 3.2l-4.05 4.24v0.16h9.16v2.63z"/>
	<path class="s3" d="m133.83 265l4.13-11.2h1.43l4.11 11.2h-1.43l-3.4-9.52-3.43 9.52zm1.89-2.88l0.38-1.09h5.08l0.38 1.09zm12.49 3.07q-1.13 0-2.05-0.53-0.89-0.52-1.4-1.47-0.52-0.96-0.52-2.21 0-1.28 0.52-2.22 0.51-0.94 1.4-1.47 0.92-0.55 2.05-0.55 1.44 0 2.4 0.76 0.96 0.73 1.22 1.98h-1.38q-0.16-0.75-0.78-1.17-0.63-0.41-1.47-0.41-0.69 0-1.28 0.35-0.6 0.33-0.95 1.02-0.35 0.69-0.35 1.7 0 0.75 0.21 1.34 0.21 0.58 0.56 0.96 0.35 0.39 0.81 0.59 0.48 0.2 1 0.2 0.57 0 1.04-0.18 0.46-0.19 0.78-0.56 0.32-0.37 0.43-0.86h1.38q-0.26 1.21-1.23 1.98-0.96 0.75-2.39 0.75zm8.39-0.19q-0.72 0-1.24-0.22-0.53-0.23-0.82-0.76-0.27-0.54-0.27-1.45v-4.5h-1.41v-1.13h1.41l0.17-1.96h1.17v1.96h2.34v1.13h-2.34v4.5q0 0.75 0.31 1.02 0.3 0.26 1.07 0.26h0.86v1.15zm3.15 0v-8.06h1.34v8.06zm0.68-9.78q-0.41 0-0.68-0.25-0.25-0.27-0.25-0.67 0-0.4 0.25-0.64 0.27-0.26 0.68-0.26 0.38 0 0.65 0.26 0.27 0.24 0.27 0.64 0 0.4-0.27 0.67-0.27 0.25-0.65 0.25zm5.28 9.78l-3.06-8.06h1.41l2.43 6.76 2.45-6.76h1.38l-3.06 8.06zm9.17 0.19q-1.14 0-2.02-0.53-0.86-0.52-1.36-1.47-0.49-0.96-0.49-2.22 0-1.28 0.48-2.23 0.49-0.94 1.37-1.47 0.9-0.53 2.05-0.53 1.18 0 2 0.53 0.83 0.53 1.26 1.39 0.45 0.85 0.45 1.88 0 0.16 0 0.33 0 0.18-0.01 0.4h-6.6v-1.04h5.3q-0.05-1.1-0.74-1.73-0.67-0.62-1.69-0.62-0.69 0-1.28 0.32-0.58 0.3-0.93 0.91-0.35 0.59-0.35 1.49v0.45q0 0.99 0.35 1.66 0.37 0.67 0.94 1.01 0.6 0.34 1.27 0.34 0.85 0 1.39-0.37 0.56-0.39 0.8-1.03h1.33q-0.19 0.72-0.67 1.3-0.48 0.58-1.2 0.91-0.71 0.32-1.65 0.32zm13.76 0q-1.15 0-2.1-0.46-0.93-0.47-1.49-1.41-0.56-0.96-0.56-2.45v-7.07h1.35v7.09q0 1.09 0.35 1.77 0.37 0.69 1.01 1.01 0.64 0.32 1.47 0.32 0.85 0 1.47-0.32 0.63-0.32 0.98-1.01 0.35-0.68 0.35-1.77v-7.09h1.34v7.07q0 1.49-0.56 2.45-0.56 0.94-1.5 1.41-0.94 0.46-2.11 0.46zm9.33 0q-1.01 0-1.76-0.33-0.74-0.34-1.18-0.93-0.44-0.61-0.53-1.43h1.37q0.08 0.42 0.34 0.77 0.26 0.35 0.69 0.58 0.45 0.21 1.09 0.21 0.56 0 0.92-0.16 0.37-0.18 0.55-0.47 0.19-0.29 0.19-0.62 0-0.5-0.24-0.75-0.23-0.26-0.67-0.4-0.45-0.16-1.09-0.28-0.53-0.09-1.04-0.25-0.51-0.16-0.91-0.42-0.4-0.27-0.64-0.65-0.23-0.39-0.23-0.95 0-0.69 0.36-1.21 0.35-0.55 1-0.85 0.68-0.31 1.56-0.31 1.29 0 2.09 0.63 0.8 0.62 0.95 1.81h-1.33q-0.08-0.61-0.53-0.95-0.43-0.35-1.2-0.35-0.75 0-1.15 0.3-0.39 0.31-0.39 0.8 0 0.32 0.21 0.58 0.23 0.24 0.64 0.42 0.43 0.17 1.06 0.28 0.8 0.15 1.45 0.39 0.66 0.24 1.06 0.72 0.42 0.46 0.42 1.33 0 0.75-0.39 1.31-0.37 0.56-1.05 0.88-0.69 0.3-1.62 0.3zm8.45 0q-1.14 0-2.02-0.53-0.86-0.52-1.36-1.47-0.5-0.96-0.5-2.22 0-1.28 0.48-2.23 0.5-0.94 1.38-1.47 0.9-0.53 2.05-0.53 1.18 0 2 0.53 0.83 0.53 1.26 1.39 0.45 0.85 0.45 1.88 0 0.16 0 0.33 0 0.18-0.02 0.4h-6.59v-1.04h5.3q-0.05-1.1-0.74-1.73-0.67-0.62-1.69-0.62-0.69 0-1.28 0.32-0.58 0.3-0.93 0.91-0.35 0.59-0.35 1.49v0.45q0 0.99 0.35 1.66 0.37 0.67 0.94 1.01 0.6 0.34 1.27 0.34 0.84 0 1.39-0.37 0.56-0.39 0.8-1.03h1.33q-0.2 0.72-0.68 1.3-0.48 0.58-1.2 0.91-0.7 0.32-1.64 0.32zm5.47-0.19v-8.06h1.22l0.1 1.53q0.27-0.54 0.68-0.93 0.44-0.38 1.03-0.59 0.61-0.21 1.37-0.21v1.41h-0.49q-0.51 0-0.98 0.15-0.46 0.12-0.83 0.43-0.35 0.3-0.56 0.83-0.19 0.51-0.19 1.28v4.16zm8.88 0.19q-1.01 0-1.76-0.33-0.74-0.34-1.18-0.93-0.44-0.61-0.53-1.43h1.37q0.08 0.42 0.34 0.77 0.26 0.35 0.69 0.58 0.45 0.21 1.09 0.21 0.56 0 0.92-0.16 0.37-0.18 0.55-0.47 0.19-0.29 0.19-0.62 0-0.5-0.24-0.75-0.22-0.26-0.67-0.4-0.45-0.16-1.09-0.28-0.53-0.09-1.04-0.25-0.51-0.16-0.91-0.42-0.4-0.27-0.64-0.65-0.23-0.39-0.23-0.95 0-0.69 0.36-1.21 0.35-0.55 1-0.85 0.68-0.31 1.56-0.31 1.29 0 2.09 0.63 0.8 0.62 0.95 1.81h-1.33q-0.08-0.61-0.53-0.95-0.43-0.35-1.2-0.35-0.75 0-1.15 0.3-0.39 0.31-0.39 0.8 0 0.32 0.21 0.58 0.23 0.24 0.64 0.42 0.43 0.17 1.06 0.28 0.8 0.15 1.45 0.39 0.66 0.24 1.06 0.72 0.42 0.46 0.42 1.33 0 0.75-0.39 1.31-0.37 0.56-1.05 0.88-0.69 0.3-1.62 0.3z"/>
</svg>