<svg width="32" height="32" viewBox="0 0 32 32" fill="none" xmlns="http://www.w3.org/2000/svg">
<rect width="32" height="32" rx="16" fill="url(#paint0_linear_2053_43098)"/>
<path d="M21.9026 9.83712L17.9954 7.65661C17.5608 7.4141 17.0145 7.54388 16.7384 7.9552C16.6345 8.10996 16.5785 8.29198 16.5771 8.47875L16.5256 15.7686C16.5229 16.1489 16.7362 16.4988 17.0761 16.6715L23.9155 20.1461C24.0654 20.2222 24.2319 20.2595 24.3996 20.2546L24.5047 20.2515C25.0568 20.2352 25.4889 19.7745 25.4699 19.2225L25.3214 14.9125C25.2987 14.2551 24.6584 13.7952 24.0293 13.9845L21.1789 14.8419C20.1566 15.1495 19.4226 13.8526 20.2155 13.1396L22.0893 11.4544C22.5982 10.9967 22.503 10.1722 21.9026 9.83712Z" fill="white"/>
<path d="M9.82374 9.9535L13.8661 7.83127C14.3076 7.5995 14.8502 7.74271 15.1144 8.16072C15.2137 8.3179 15.2645 8.50114 15.2605 8.68777L15.1025 15.9767C15.0943 16.3568 14.871 16.7013 14.5263 16.8654L7.58947 20.1703C7.43738 20.2427 7.26982 20.2759 7.10223 20.2669L6.99751 20.2612C6.44604 20.2313 6.02724 19.7602 6.06211 19.209L6.33142 14.9517C6.37386 14.2808 7.05328 13.8362 7.68269 14.0674L10.1867 14.9874C11.1754 15.3506 11.9915 14.1295 11.2727 13.3625L9.54971 11.5238C9.09942 11.0433 9.23574 10.2622 9.82374 9.9535Z" fill="white"/>
<path d="M19.3831 25.4791L23.4666 23.4363C23.9419 23.1986 24.1306 22.6436 23.8844 22.2076C23.8063 22.0691 23.6896 21.9542 23.5466 21.8749L16.6784 18.0664C16.3641 17.8921 15.9691 17.8948 15.6443 18.0733L8.94935 21.7551C8.78246 21.8468 8.64406 21.98 8.54977 22.1394C8.26856 22.6147 8.43951 23.2032 8.93205 23.453L13.126 25.5803C13.7181 25.8806 14.4691 25.551 14.6323 24.9193L15.2335 22.5919C15.4863 21.6132 16.9364 21.5447 17.2199 22.498L17.9391 24.9163C18.1119 25.4973 18.8059 25.7678 19.3831 25.4791Z" fill="white"/>
<defs>
<linearGradient id="paint0_linear_2053_43098" x1="11.018" y1="4.40719" x2="36.3271" y2="13.8772" gradientUnits="userSpaceOnUse">
<stop stop-color="#732CFF"/>
<stop offset="1" stop-color="#F46D6B"/>
</linearGradient>
</defs>
</svg>
