<svg width="494" height="201" viewBox="0 0 494 201" fill="none" xmlns="http://www.w3.org/2000/svg">
<rect x="0.25" y="0.25" width="493.5" height="200.5" rx="14.75" fill="#1E1F40" stroke="#787996" stroke-width="0.5"/>
<path d="M27.555 115.92V109.38H28.68V115.92H27.555ZM24.69 113.175V112.11H31.545V113.175H24.69ZM36.8071 117.18C36.0871 117.18 35.4621 117.05 34.9321 116.79C34.4121 116.53 33.9971 116.175 33.6871 115.725C33.3871 115.275 33.1971 114.77 33.1171 114.21H34.3471C34.4671 114.77 34.7421 115.225 35.1721 115.575C35.6021 115.925 36.1521 116.1 36.8221 116.1C37.3221 116.1 37.7471 115.985 38.0971 115.755C38.4571 115.525 38.7321 115.21 38.9221 114.81C39.1221 114.41 39.2221 113.965 39.2221 113.475C39.2221 112.965 39.1221 112.515 38.9221 112.125C38.7221 111.735 38.4471 111.435 38.0971 111.225C37.7471 111.005 37.3371 110.895 36.8671 110.895C36.2971 110.895 35.8121 111.02 35.4121 111.27C35.0121 111.52 34.7121 111.84 34.5121 112.23H33.2971L34.1671 106.5H39.7171V107.595H35.1421L34.5571 110.82C34.8071 110.53 35.1371 110.295 35.5471 110.115C35.9671 109.925 36.4521 109.83 37.0021 109.83C37.5221 109.83 37.9921 109.92 38.4121 110.1C38.8321 110.28 39.1921 110.535 39.4921 110.865C39.7921 111.195 40.0221 111.58 40.1821 112.02C40.3521 112.46 40.4371 112.94 40.4371 113.46C40.4371 113.97 40.3521 114.45 40.1821 114.9C40.0221 115.34 39.7871 115.735 39.4771 116.085C39.1671 116.425 38.7871 116.695 38.3371 116.895C37.8871 117.085 37.3771 117.18 36.8071 117.18ZM45.7523 117.18C45.0723 117.18 44.4623 117.055 43.9223 116.805C43.3823 116.545 42.9523 116.19 42.6323 115.74C42.3123 115.28 42.1523 114.75 42.1523 114.15C42.1523 113.72 42.2373 113.32 42.4073 112.95C42.5773 112.58 42.8123 112.26 43.1123 111.99C43.4223 111.71 43.7773 111.515 44.1773 111.405C43.6173 111.205 43.1823 110.895 42.8723 110.475C42.5723 110.055 42.4223 109.6 42.4223 109.11C42.4223 108.59 42.5573 108.12 42.8273 107.7C43.0973 107.28 43.4773 106.945 43.9673 106.695C44.4673 106.445 45.0623 106.32 45.7523 106.32C46.4523 106.32 47.0473 106.445 47.5373 106.695C48.0373 106.945 48.4173 107.28 48.6773 107.7C48.9473 108.12 49.0823 108.59 49.0823 109.11C49.0823 109.6 48.9273 110.055 48.6173 110.475C48.3173 110.895 47.8873 111.205 47.3273 111.405C47.7373 111.515 48.0923 111.71 48.3923 111.99C48.7023 112.26 48.9373 112.58 49.0973 112.95C49.2673 113.32 49.3523 113.72 49.3523 114.15C49.3523 114.75 49.1923 115.28 48.8723 115.74C48.5623 116.19 48.1323 116.545 47.5823 116.805C47.0423 117.055 46.4323 117.18 45.7523 117.18ZM45.7523 116.07C46.5423 116.07 47.1273 115.89 47.5073 115.53C47.8973 115.16 48.0923 114.675 48.0923 114.075C48.0923 113.395 47.8773 112.88 47.4473 112.53C47.0273 112.18 46.4623 112.005 45.7523 112.005C45.0423 112.005 44.4723 112.18 44.0423 112.53C43.6223 112.88 43.4123 113.395 43.4123 114.075C43.4123 114.675 43.6073 115.16 43.9973 115.53C44.3873 115.89 44.9723 116.07 45.7523 116.07ZM45.7523 110.955C46.3823 110.955 46.8823 110.79 47.2523 110.46C47.6223 110.13 47.8073 109.705 47.8073 109.185C47.8073 108.595 47.6223 108.15 47.2523 107.85C46.8923 107.55 46.3923 107.4 45.7523 107.4C45.1223 107.4 44.6223 107.55 44.2523 107.85C43.8923 108.15 43.7123 108.595 43.7123 109.185C43.7123 109.705 43.8923 110.13 44.2523 110.46C44.6223 110.79 45.1223 110.955 45.7523 110.955ZM51.7133 117.075C51.4633 117.075 51.2533 116.995 51.0833 116.835C50.9233 116.665 50.8433 116.46 50.8433 116.22C50.8433 115.98 50.9233 115.78 51.0833 115.62C51.2533 115.45 51.4633 115.365 51.7133 115.365C51.9633 115.365 52.1683 115.45 52.3283 115.62C52.4883 115.78 52.5683 115.98 52.5683 116.22C52.5683 116.46 52.4883 116.665 52.3283 116.835C52.1683 116.995 51.9633 117.075 51.7133 117.075ZM57.5179 117.18C56.7579 117.18 56.1179 117.04 55.5979 116.76C55.0779 116.47 54.6629 116.09 54.3529 115.62C54.0429 115.14 53.8129 114.6 53.6629 114C53.5229 113.4 53.4529 112.79 53.4529 112.17C53.4529 111.01 53.6129 109.995 53.9329 109.125C54.2529 108.245 54.7129 107.56 55.3129 107.07C55.9229 106.57 56.6529 106.32 57.5029 106.32C58.1629 106.32 58.7279 106.45 59.1979 106.71C59.6779 106.96 60.0579 107.3 60.3379 107.73C60.6179 108.16 60.7879 108.64 60.8479 109.17H59.6779C59.5779 108.61 59.3329 108.18 58.9429 107.88C58.5629 107.57 58.0779 107.415 57.4879 107.415C56.9679 107.415 56.4979 107.58 56.0779 107.91C55.6579 108.23 55.3229 108.725 55.0729 109.395C54.8329 110.055 54.6929 110.9 54.6529 111.93C54.6529 111.94 54.6529 111.955 54.6529 111.975C54.6529 111.995 54.6529 112.015 54.6529 112.035C54.8129 111.725 55.0329 111.435 55.3129 111.165C55.6029 110.895 55.9479 110.68 56.3479 110.52C56.7479 110.36 57.1929 110.28 57.6829 110.28C58.2729 110.28 58.8279 110.42 59.3479 110.7C59.8679 110.98 60.2879 111.375 60.6079 111.885C60.9379 112.385 61.1029 112.975 61.1029 113.655C61.1029 114.245 60.9579 114.81 60.6679 115.35C60.3879 115.89 59.9779 116.33 59.4379 116.67C58.8979 117.01 58.2579 117.18 57.5179 117.18ZM57.4279 116.07C57.8879 116.07 58.2979 115.97 58.6579 115.77C59.0279 115.56 59.3129 115.28 59.5129 114.93C59.7229 114.57 59.8279 114.165 59.8279 113.715C59.8279 113.245 59.7229 112.835 59.5129 112.485C59.3129 112.135 59.0279 111.865 58.6579 111.675C58.2979 111.475 57.8879 111.375 57.4279 111.375C56.9679 111.375 56.5529 111.48 56.1829 111.69C55.8129 111.9 55.5179 112.185 55.2979 112.545C55.0879 112.895 54.9829 113.29 54.9829 113.73C54.9829 114.18 55.0879 114.585 55.2979 114.945C55.5179 115.295 55.8129 115.57 56.1829 115.77C56.5529 115.97 56.9679 116.07 57.4279 116.07ZM63.8678 117L69.9728 106.5H71.2328L65.1278 117H63.8678ZM70.4828 117.18C70.0328 117.18 69.6278 117.08 69.2678 116.88C68.9078 116.67 68.6178 116.375 68.3978 115.995C68.1878 115.615 68.0828 115.17 68.0828 114.66C68.0828 114.14 68.1878 113.695 68.3978 113.325C68.6178 112.945 68.9078 112.655 69.2678 112.455C69.6278 112.245 70.0328 112.14 70.4828 112.14C70.9428 112.14 71.3478 112.245 71.6978 112.455C72.0578 112.655 72.3428 112.945 72.5528 113.325C72.7628 113.695 72.8678 114.14 72.8678 114.66C72.8678 115.17 72.7628 115.615 72.5528 115.995C72.3428 116.375 72.0578 116.67 71.6978 116.88C71.3378 117.08 70.9328 117.18 70.4828 117.18ZM70.4678 116.205C70.7078 116.205 70.9278 116.15 71.1278 116.04C71.3278 115.92 71.4878 115.745 71.6078 115.515C71.7378 115.285 71.8028 115 71.8028 114.66C71.8028 114.31 71.7428 114.02 71.6228 113.79C71.5028 113.56 71.3428 113.39 71.1428 113.28C70.9428 113.16 70.7228 113.1 70.4828 113.1C70.2528 113.1 70.0328 113.16 69.8228 113.28C69.6228 113.39 69.4578 113.56 69.3278 113.79C69.2078 114.02 69.1478 114.31 69.1478 114.66C69.1478 115 69.2078 115.285 69.3278 115.515C69.4578 115.745 69.6228 115.92 69.8228 116.04C70.0228 116.15 70.2378 116.205 70.4678 116.205ZM64.7078 111.375C64.2578 111.375 63.8528 111.275 63.4928 111.075C63.1328 110.865 62.8428 110.57 62.6228 110.19C62.4128 109.81 62.3078 109.365 62.3078 108.855C62.3078 108.335 62.4128 107.89 62.6228 107.52C62.8428 107.14 63.1328 106.85 63.4928 106.65C63.8628 106.44 64.2728 106.335 64.7228 106.335C65.1728 106.335 65.5778 106.44 65.9378 106.65C66.2978 106.85 66.5828 107.14 66.7928 107.52C67.0028 107.89 67.1078 108.335 67.1078 108.855C67.1078 109.365 67.0028 109.81 66.7928 110.19C66.5828 110.57 66.2928 110.865 65.9228 111.075C65.5628 111.275 65.1578 111.375 64.7078 111.375ZM64.7078 110.4C64.9478 110.4 65.1678 110.345 65.3678 110.235C65.5678 110.115 65.7278 109.94 65.8478 109.71C65.9678 109.48 66.0278 109.195 66.0278 108.855C66.0278 108.505 65.9678 108.215 65.8478 107.985C65.7278 107.745 65.5678 107.57 65.3678 107.46C65.1678 107.34 64.9528 107.28 64.7228 107.28C64.4928 107.28 64.2728 107.34 64.0628 107.46C63.8528 107.57 63.6828 107.745 63.5528 107.985C63.4328 108.215 63.3728 108.505 63.3728 108.855C63.3728 109.195 63.4328 109.48 63.5528 109.71C63.6828 109.94 63.8478 110.115 64.0478 110.235C64.2578 110.345 64.4778 110.4 64.7078 110.4Z" fill="#732CFF"/>
<path d="M81.2791 117C80.8291 117 80.4391 116.93 80.1091 116.79C79.7791 116.65 79.5241 116.415 79.3441 116.085C79.1741 115.745 79.0891 115.29 79.0891 114.72V110.505H77.7691V109.44H79.0891L79.2541 107.61H80.3491V109.44H82.5391V110.505H80.3491V114.72C80.3491 115.19 80.4441 115.51 80.6341 115.68C80.8241 115.84 81.1591 115.92 81.6391 115.92H82.4491V117H81.2791ZM84.0782 117V106.2H85.3382V110.715C85.5882 110.265 85.9382 109.91 86.3882 109.65C86.8482 109.39 87.3482 109.26 87.8882 109.26C88.4682 109.26 88.9732 109.38 89.4032 109.62C89.8332 109.85 90.1632 110.205 90.3932 110.685C90.6232 111.165 90.7382 111.77 90.7382 112.5V117H89.4932V112.635C89.4932 111.875 89.3332 111.305 89.0132 110.925C88.6932 110.535 88.2282 110.34 87.6182 110.34C87.1882 110.34 86.7982 110.445 86.4482 110.655C86.1082 110.865 85.8382 111.165 85.6382 111.555C85.4382 111.945 85.3382 112.425 85.3382 112.995V117H84.0782ZM92.7211 117V109.44H93.9811V117H92.7211ZM93.3511 107.835C93.1011 107.835 92.8911 107.755 92.7211 107.595C92.5611 107.425 92.4811 107.215 92.4811 106.965C92.4811 106.715 92.5611 106.515 92.7211 106.365C92.8911 106.205 93.1011 106.125 93.3511 106.125C93.5911 106.125 93.7961 106.205 93.9661 106.365C94.1361 106.515 94.2211 106.715 94.2211 106.965C94.2211 107.215 94.1361 107.425 93.9661 107.595C93.7961 107.755 93.5911 107.835 93.3511 107.835ZM98.9496 117.18C98.3196 117.18 97.7696 117.075 97.2996 116.865C96.8396 116.655 96.4696 116.365 96.1896 115.995C95.9196 115.615 95.7546 115.17 95.6946 114.66H96.9846C97.0346 114.92 97.1396 115.16 97.2996 115.38C97.4596 115.6 97.6746 115.78 97.9446 115.92C98.2246 116.05 98.5646 116.115 98.9646 116.115C99.3146 116.115 99.6046 116.065 99.8346 115.965C100.065 115.855 100.235 115.71 100.345 115.53C100.465 115.35 100.525 115.155 100.525 114.945C100.525 114.635 100.45 114.4 100.3 114.24C100.16 114.08 99.9496 113.955 99.6696 113.865C99.3896 113.765 99.0496 113.68 98.6496 113.61C98.3196 113.55 97.9946 113.47 97.6746 113.37C97.3546 113.27 97.0696 113.14 96.8196 112.98C96.5696 112.81 96.3696 112.605 96.2196 112.365C96.0796 112.125 96.0096 111.83 96.0096 111.48C96.0096 111.05 96.1196 110.67 96.3396 110.34C96.5596 110 96.8746 109.735 97.2846 109.545C97.7046 109.355 98.1896 109.26 98.7396 109.26C99.5496 109.26 100.205 109.455 100.705 109.845C101.205 110.235 101.5 110.8 101.59 111.54H100.345C100.295 111.16 100.13 110.865 99.8496 110.655C99.5796 110.435 99.2046 110.325 98.7246 110.325C98.2546 110.325 97.8946 110.42 97.6446 110.61C97.4046 110.8 97.2846 111.05 97.2846 111.36C97.2846 111.56 97.3496 111.74 97.4796 111.9C97.6196 112.05 97.8196 112.18 98.0796 112.29C98.3496 112.4 98.6796 112.49 99.0696 112.56C99.5696 112.65 100.025 112.77 100.435 112.92C100.845 113.07 101.175 113.295 101.425 113.595C101.685 113.885 101.815 114.3 101.815 114.84C101.815 115.31 101.695 115.72 101.455 116.07C101.225 116.42 100.895 116.695 100.465 116.895C100.035 117.085 99.5296 117.18 98.9496 117.18ZM108.228 120.3L110.073 116.16H109.638L106.668 109.44H108.033L110.493 115.215L113.073 109.44H114.378L109.548 120.3H108.228ZM118.245 117.18C117.535 117.18 116.905 117.015 116.355 116.685C115.815 116.355 115.39 115.895 115.08 115.305C114.77 114.705 114.615 114.01 114.615 113.22C114.615 112.42 114.765 111.725 115.065 111.135C115.375 110.545 115.805 110.085 116.355 109.755C116.915 109.425 117.555 109.26 118.275 109.26C119.015 109.26 119.64 109.425 120.15 109.755C120.67 110.085 121.065 110.52 121.335 111.06C121.615 111.59 121.755 112.175 121.755 112.815C121.755 112.915 121.755 113.02 121.755 113.13C121.755 113.24 121.75 113.365 121.74 113.505H115.56V112.53H120.525C120.495 111.84 120.265 111.3 119.835 110.91C119.415 110.52 118.885 110.325 118.245 110.325C117.815 110.325 117.415 110.425 117.045 110.625C116.685 110.815 116.395 111.1 116.175 111.48C115.955 111.85 115.845 112.315 115.845 112.875V113.295C115.845 113.915 115.955 114.435 116.175 114.855C116.405 115.275 116.7 115.59 117.06 115.8C117.43 116.01 117.825 116.115 118.245 116.115C118.775 116.115 119.21 116 119.55 115.77C119.9 115.53 120.15 115.21 120.3 114.81H121.545C121.425 115.26 121.215 115.665 120.915 116.025C120.615 116.385 120.24 116.67 119.79 116.88C119.35 117.08 118.835 117.18 118.245 117.18ZM125.811 117.18C125.201 117.18 124.691 117.075 124.281 116.865C123.871 116.645 123.566 116.36 123.366 116.01C123.166 115.65 123.066 115.26 123.066 114.84C123.066 114.33 123.196 113.9 123.456 113.55C123.726 113.19 124.101 112.92 124.581 112.74C125.071 112.55 125.646 112.455 126.306 112.455H128.301C128.301 111.985 128.226 111.595 128.076 111.285C127.936 110.965 127.726 110.725 127.446 110.565C127.176 110.405 126.836 110.325 126.426 110.325C125.946 110.325 125.531 110.445 125.181 110.685C124.831 110.925 124.616 111.28 124.536 111.75H123.246C123.306 111.21 123.486 110.76 123.786 110.4C124.096 110.03 124.486 109.75 124.956 109.56C125.426 109.36 125.916 109.26 126.426 109.26C127.126 109.26 127.706 109.39 128.166 109.65C128.636 109.9 128.986 110.255 129.216 110.715C129.446 111.165 129.561 111.7 129.561 112.32V117H128.436L128.361 115.665C128.261 115.875 128.131 116.075 127.971 116.265C127.821 116.445 127.641 116.605 127.431 116.745C127.221 116.875 126.981 116.98 126.711 117.06C126.451 117.14 126.151 117.18 125.811 117.18ZM126.006 116.115C126.356 116.115 126.671 116.045 126.951 115.905C127.241 115.755 127.486 115.555 127.686 115.305C127.886 115.045 128.036 114.76 128.136 114.45C128.246 114.14 128.301 113.815 128.301 113.475V113.43H126.411C125.921 113.43 125.526 113.49 125.226 113.61C124.926 113.72 124.711 113.88 124.581 114.09C124.451 114.29 124.386 114.52 124.386 114.78C124.386 115.05 124.446 115.285 124.566 115.485C124.696 115.685 124.881 115.84 125.121 115.95C125.371 116.06 125.666 116.115 126.006 116.115ZM131.405 117V109.44H132.545L132.635 110.88C132.805 110.54 133.02 110.25 133.28 110.01C133.55 109.77 133.87 109.585 134.24 109.455C134.62 109.325 135.05 109.26 135.53 109.26V110.58H135.065C134.745 110.58 134.44 110.625 134.15 110.715C133.86 110.795 133.6 110.93 133.37 111.12C133.15 111.31 132.975 111.57 132.845 111.9C132.725 112.22 132.665 112.62 132.665 113.1V117H131.405ZM145.321 117.18C144.341 117.18 143.481 116.955 142.741 116.505C142.001 116.045 141.426 115.41 141.016 114.6C140.606 113.79 140.401 112.845 140.401 111.765C140.401 110.695 140.606 109.75 141.016 108.93C141.436 108.11 142.026 107.47 142.786 107.01C143.556 106.55 144.461 106.32 145.501 106.32C146.681 106.32 147.666 106.605 148.456 107.175C149.246 107.735 149.751 108.52 149.971 109.53H148.516C148.376 108.9 148.046 108.4 147.526 108.03C147.006 107.66 146.331 107.475 145.501 107.475C144.731 107.475 144.056 107.65 143.476 108C142.906 108.34 142.466 108.83 142.156 109.47C141.846 110.11 141.691 110.875 141.691 111.765C141.691 112.655 141.846 113.425 142.156 114.075C142.466 114.715 142.896 115.205 143.446 115.545C144.006 115.885 144.646 116.055 145.366 116.055C146.486 116.055 147.331 115.725 147.901 115.065C148.471 114.405 148.796 113.51 148.876 112.38H145.846V111.39H150.166V117H149.011L148.906 115.275C148.656 115.685 148.366 116.035 148.036 116.325C147.716 116.605 147.336 116.82 146.896 116.97C146.456 117.11 145.931 117.18 145.321 117.18ZM151.993 117V109.44H153.133L153.223 110.88C153.393 110.54 153.608 110.25 153.868 110.01C154.138 109.77 154.458 109.585 154.828 109.455C155.208 109.325 155.638 109.26 156.118 109.26V110.58H155.653C155.333 110.58 155.028 110.625 154.738 110.715C154.448 110.795 154.188 110.93 153.958 111.12C153.738 111.31 153.563 111.57 153.433 111.9C153.313 112.22 153.253 112.62 153.253 113.1V117H151.993ZM160.536 117.18C159.836 117.18 159.206 117.02 158.646 116.7C158.086 116.37 157.646 115.91 157.326 115.32C157.006 114.72 156.846 114.025 156.846 113.235C156.846 112.425 157.006 111.725 157.326 111.135C157.656 110.535 158.101 110.075 158.661 109.755C159.231 109.425 159.866 109.26 160.566 109.26C161.286 109.26 161.921 109.425 162.471 109.755C163.031 110.075 163.471 110.535 163.791 111.135C164.121 111.725 164.286 112.42 164.286 113.22C164.286 114.02 164.121 114.72 163.791 115.32C163.461 115.91 163.016 116.37 162.456 116.7C161.896 117.02 161.256 117.18 160.536 117.18ZM160.551 116.1C160.981 116.1 161.381 115.995 161.751 115.785C162.121 115.565 162.421 115.24 162.651 114.81C162.881 114.38 162.996 113.85 162.996 113.22C162.996 112.58 162.881 112.05 162.651 111.63C162.431 111.2 162.136 110.88 161.766 110.67C161.406 110.45 161.006 110.34 160.566 110.34C160.146 110.34 159.746 110.45 159.366 110.67C158.996 110.88 158.696 111.2 158.466 111.63C158.246 112.05 158.136 112.58 158.136 113.22C158.136 113.85 158.246 114.38 158.466 114.81C158.696 115.24 158.991 115.565 159.351 115.785C159.721 115.995 160.121 116.1 160.551 116.1ZM167.2 117L164.98 109.44H166.24L167.965 115.815H167.74L169.615 109.44H171.04L172.945 115.8L172.705 115.815L174.415 109.44H175.69L173.485 117H172.195L170.215 110.34H170.47L168.49 117H167.2ZM179.975 117C179.525 117 179.135 116.93 178.805 116.79C178.475 116.65 178.22 116.415 178.04 116.085C177.87 115.745 177.785 115.29 177.785 114.72V110.505H176.465V109.44H177.785L177.95 107.61H179.045V109.44H181.235V110.505H179.045V114.72C179.045 115.19 179.14 115.51 179.33 115.68C179.52 115.84 179.855 115.92 180.335 115.92H181.145V117H179.975ZM182.774 117V106.2H184.034V110.715C184.284 110.265 184.634 109.91 185.084 109.65C185.544 109.39 186.044 109.26 186.584 109.26C187.164 109.26 187.669 109.38 188.099 109.62C188.529 109.85 188.859 110.205 189.089 110.685C189.319 111.165 189.434 111.77 189.434 112.5V117H188.189V112.635C188.189 111.875 188.029 111.305 187.709 110.925C187.389 110.535 186.924 110.34 186.314 110.34C185.884 110.34 185.494 110.445 185.144 110.655C184.804 110.865 184.534 111.165 184.334 111.555C184.134 111.945 184.034 112.425 184.034 112.995V117H182.774Z" fill="#AEB9E1"/>
<path d="M223.52 183V176.94L222.32 177.24V176.64L223.8 176H224.37V183H223.52Z" fill="#AEB9E1"/>
<path d="M249.64 183V182.41C250.113 182.037 250.563 181.66 250.99 181.28C251.423 180.9 251.807 180.523 252.14 180.15C252.473 179.77 252.733 179.4 252.92 179.04C253.113 178.68 253.21 178.333 253.21 178C253.21 177.753 253.167 177.527 253.08 177.32C252.993 177.107 252.853 176.933 252.66 176.8C252.473 176.667 252.22 176.6 251.9 176.6C251.587 176.6 251.327 176.67 251.12 176.81C250.913 176.943 250.757 177.123 250.65 177.35C250.55 177.57 250.5 177.813 250.5 178.08H249.69C249.697 177.62 249.793 177.227 249.98 176.9C250.173 176.567 250.437 176.313 250.77 176.14C251.103 175.967 251.483 175.88 251.91 175.88C252.33 175.88 252.7 175.96 253.02 176.12C253.34 176.273 253.59 176.503 253.77 176.81C253.957 177.117 254.05 177.503 254.05 177.97C254.05 178.297 253.98 178.623 253.84 178.95C253.707 179.277 253.527 179.597 253.3 179.91C253.073 180.217 252.82 180.513 252.54 180.8C252.267 181.087 251.983 181.357 251.69 181.61C251.403 181.863 251.133 182.093 250.88 182.3H254.29V183H249.64Z" fill="#AEB9E1"/>
<path d="M280.93 183.12C280.483 183.12 280.077 183.04 279.71 182.88C279.35 182.713 279.063 182.467 278.85 182.14C278.637 181.813 278.523 181.407 278.51 180.92H279.36C279.367 181.187 279.43 181.433 279.55 181.66C279.677 181.88 279.857 182.057 280.09 182.19C280.323 182.323 280.603 182.39 280.93 182.39C281.257 182.39 281.53 182.327 281.75 182.2C281.97 182.073 282.137 181.907 282.25 181.7C282.363 181.487 282.42 181.25 282.42 180.99C282.42 180.663 282.34 180.4 282.18 180.2C282.027 179.993 281.817 179.843 281.55 179.75C281.29 179.65 281.003 179.6 280.69 179.6H280.17V178.89H280.69C281.15 178.89 281.51 178.783 281.77 178.57C282.03 178.357 282.16 178.063 282.16 177.69C282.16 177.383 282.057 177.127 281.85 176.92C281.65 176.713 281.343 176.61 280.93 176.61C280.537 176.61 280.223 176.723 279.99 176.95C279.757 177.177 279.623 177.467 279.59 177.82H278.74C278.76 177.44 278.863 177.103 279.05 176.81C279.237 176.517 279.49 176.29 279.81 176.13C280.13 175.963 280.507 175.88 280.94 175.88C281.393 175.88 281.773 175.96 282.08 176.12C282.387 176.28 282.617 176.493 282.77 176.76C282.93 177.027 283.01 177.32 283.01 177.64C283.01 177.88 282.967 178.107 282.88 178.32C282.793 178.527 282.663 178.71 282.49 178.87C282.317 179.03 282.097 179.143 281.83 179.21C282.103 179.263 282.347 179.367 282.56 179.52C282.78 179.673 282.953 179.873 283.08 180.12C283.207 180.367 283.27 180.657 283.27 180.99C283.27 181.37 283.18 181.723 283 182.05C282.827 182.37 282.567 182.63 282.22 182.83C281.873 183.023 281.443 183.12 280.93 183.12Z" fill="#AEB9E1"/>
<path d="M309.92 183V181.5H306.37V180.85L309.77 176H310.75V180.76H311.79V181.5H310.75V183H309.92ZM307.3 180.76H309.96V176.93L307.3 180.76Z" fill="#AEB9E1"/>
<path d="M339.11 182.12C338.63 182.12 338.213 182.033 337.86 181.86C337.513 181.687 337.237 181.45 337.03 181.15C336.83 180.85 336.703 180.513 336.65 180.14H337.47C337.55 180.513 337.733 180.817 338.02 181.05C338.307 181.283 338.673 181.4 339.12 181.4C339.453 181.4 339.737 181.323 339.97 181.17C340.21 181.017 340.393 180.807 340.52 180.54C340.653 180.273 340.72 179.977 340.72 179.65C340.72 179.31 340.653 179.01 340.52 178.75C340.387 178.49 340.203 178.29 339.97 178.15C339.737 178.003 339.463 177.93 339.15 177.93C338.77 177.93 338.447 178.013 338.18 178.18C337.913 178.347 337.713 178.56 337.58 178.82H336.77L337.35 175H341.05V175.73H338L337.61 177.88C337.777 177.687 337.997 177.53 338.27 177.41C338.55 177.283 338.873 177.22 339.24 177.22C339.587 177.22 339.9 177.28 340.18 177.4C340.46 177.52 340.7 177.69 340.9 177.91C341.1 178.13 341.253 178.387 341.36 178.68C341.473 178.973 341.53 179.293 341.53 179.64C341.53 179.98 341.473 180.3 341.36 180.6C341.253 180.893 341.097 181.157 340.89 181.39C340.683 181.617 340.43 181.797 340.13 181.93C339.83 182.057 339.49 182.12 339.11 182.12Z" fill="#AEB9E1"/>
<path d="M370.26 182.12C369.753 182.12 369.327 182.027 368.98 181.84C368.633 181.647 368.357 181.393 368.15 181.08C367.943 180.76 367.79 180.4 367.69 180C367.597 179.6 367.55 179.193 367.55 178.78C367.55 178.007 367.657 177.33 367.87 176.75C368.083 176.163 368.39 175.707 368.79 175.38C369.197 175.047 369.683 174.88 370.25 174.88C370.69 174.88 371.067 174.967 371.38 175.14C371.7 175.307 371.953 175.533 372.14 175.82C372.327 176.107 372.44 176.427 372.48 176.78H371.7C371.633 176.407 371.47 176.12 371.21 175.92C370.957 175.713 370.633 175.61 370.24 175.61C369.893 175.61 369.58 175.72 369.3 175.94C369.02 176.153 368.797 176.483 368.63 176.93C368.47 177.37 368.377 177.933 368.35 178.62C368.35 178.627 368.35 178.637 368.35 178.65C368.35 178.663 368.35 178.677 368.35 178.69C368.457 178.483 368.603 178.29 368.79 178.11C368.983 177.93 369.213 177.787 369.48 177.68C369.747 177.573 370.043 177.52 370.37 177.52C370.763 177.52 371.133 177.613 371.48 177.8C371.827 177.987 372.107 178.25 372.32 178.59C372.54 178.923 372.65 179.317 372.65 179.77C372.65 180.163 372.553 180.54 372.36 180.9C372.173 181.26 371.9 181.553 371.54 181.78C371.18 182.007 370.753 182.12 370.26 182.12ZM370.2 181.38C370.507 181.38 370.78 181.313 371.02 181.18C371.267 181.04 371.457 180.853 371.59 180.62C371.73 180.38 371.8 180.11 371.8 179.81C371.8 179.497 371.73 179.223 371.59 178.99C371.457 178.757 371.267 178.577 371.02 178.45C370.78 178.317 370.507 178.25 370.2 178.25C369.893 178.25 369.617 178.32 369.37 178.46C369.123 178.6 368.927 178.79 368.78 179.03C368.64 179.263 368.57 179.527 368.57 179.82C368.57 180.12 368.64 180.39 368.78 180.63C368.927 180.863 369.123 181.047 369.37 181.18C369.617 181.313 369.893 181.38 370.2 181.38Z" fill="#AEB9E1"/>
<path d="M398.38 182L401.11 175.72H397.27V175H401.97V175.63L399.27 182H398.38Z" fill="#AEB9E1"/>
<path d="M435.04 182.12C434.587 182.12 434.18 182.037 433.82 181.87C433.46 181.697 433.173 181.46 432.96 181.16C432.747 180.853 432.64 180.5 432.64 180.1C432.64 179.813 432.697 179.547 432.81 179.3C432.923 179.053 433.08 178.84 433.28 178.66C433.487 178.473 433.723 178.343 433.99 178.27C433.617 178.137 433.327 177.93 433.12 177.65C432.92 177.37 432.82 177.067 432.82 176.74C432.82 176.393 432.91 176.08 433.09 175.8C433.27 175.52 433.523 175.297 433.85 175.13C434.183 174.963 434.58 174.88 435.04 174.88C435.507 174.88 435.903 174.963 436.23 175.13C436.563 175.297 436.817 175.52 436.99 175.8C437.17 176.08 437.26 176.393 437.26 176.74C437.26 177.067 437.157 177.37 436.95 177.65C436.75 177.93 436.463 178.137 436.09 178.27C436.363 178.343 436.6 178.473 436.8 178.66C437.007 178.84 437.163 179.053 437.27 179.3C437.383 179.547 437.44 179.813 437.44 180.1C437.44 180.5 437.333 180.853 437.12 181.16C436.913 181.46 436.627 181.697 436.26 181.87C435.9 182.037 435.493 182.12 435.04 182.12ZM435.04 181.38C435.567 181.38 435.957 181.26 436.21 181.02C436.47 180.773 436.6 180.45 436.6 180.05C436.6 179.597 436.457 179.253 436.17 179.02C435.89 178.787 435.513 178.67 435.04 178.67C434.567 178.67 434.187 178.787 433.9 179.02C433.62 179.253 433.48 179.597 433.48 180.05C433.48 180.45 433.61 180.773 433.87 181.02C434.13 181.26 434.52 181.38 435.04 181.38ZM435.04 177.97C435.46 177.97 435.793 177.86 436.04 177.64C436.287 177.42 436.41 177.137 436.41 176.79C436.41 176.397 436.287 176.1 436.04 175.9C435.8 175.7 435.467 175.6 435.04 175.6C434.62 175.6 434.287 175.7 434.04 175.9C433.8 176.1 433.68 176.397 433.68 176.79C433.68 177.137 433.8 177.42 434.04 177.64C434.287 177.86 434.62 177.97 435.04 177.97Z" fill="#AEB9E1"/>
<rect x="299.949" y="79" width="12.6122" height="86.1837" rx="4" fill="#3E3F68"/>
<rect x="218" y="97" width="13" height="68" rx="4" fill="#3E3F68"/>
<rect x="247" y="81" width="13" height="84" rx="4" fill="#3E3F68"/>
<rect x="300" y="134" width="13" height="31" rx="2" fill="#F46D6B"/>
<rect x="218" y="141" width="13" height="24" rx="2" fill="#F46D6B"/>
<rect x="247" y="135" width="13" height="30" rx="2" fill="#F46D6B"/>
<rect x="329.981" y="123" width="12.6122" height="42.0408" rx="4" fill="#3E3F68"/>
<rect x="329.981" y="149" width="13" height="16" rx="2" fill="#F46D6B"/>
<rect x="363.01" y="137.939" width="12.6122" height="27.3265" rx="4" fill="#3E3F68"/>
<rect x="393" y="101" width="13" height="64" rx="4" fill="#3E3F68"/>
<rect x="426" y="81" width="13" height="84" rx="4" fill="#3E3F68"/>
<rect x="363" y="146" width="13" height="19" rx="2" fill="#F46D6B"/>
<rect x="393" y="146" width="13" height="19" rx="2" fill="#F46D6B"/>
<rect x="426" y="140" width="13" height="25" rx="2" fill="#F46D6B"/>
<rect x="274.981" y="56" width="12" height="110.357" rx="4" fill="#3E3F68"/>
<rect x="274.981" y="107" width="12" height="59" rx="2" fill="#F46D6B"/>
<path d="M358.761 37.127C357.906 37.127 357.155 36.9302 356.507 36.5366C355.864 36.1431 355.361 35.5845 354.997 34.8608C354.637 34.133 354.457 33.2718 354.457 32.2773C354.457 31.2702 354.639 30.4048 355.003 29.6812C355.371 28.9533 355.875 28.3947 356.514 28.0054C357.153 27.6118 357.881 27.415 358.697 27.415C359.205 27.415 359.679 27.4912 360.119 27.6436C360.563 27.7917 360.957 28.0054 361.3 28.2847C361.647 28.564 361.932 28.894 362.157 29.2749C362.385 29.6515 362.54 30.0705 362.62 30.5317H361.16C361.071 30.2482 360.953 29.9964 360.805 29.7764C360.657 29.5521 360.479 29.3617 360.271 29.2051C360.064 29.0443 359.829 28.9237 359.567 28.8433C359.309 28.7586 359.021 28.7163 358.704 28.7163C358.17 28.7163 357.69 28.8538 357.263 29.1289C356.835 29.3997 356.497 29.7996 356.247 30.3286C355.997 30.8576 355.873 31.505 355.873 32.271C355.873 33.0369 355.997 33.6844 356.247 34.2134C356.497 34.7424 356.84 35.1444 357.275 35.4194C357.711 35.6903 358.206 35.8257 358.761 35.8257C359.273 35.8257 359.719 35.722 360.1 35.5146C360.481 35.3031 360.777 35.0068 360.989 34.626C361.2 34.2451 361.306 33.7944 361.306 33.2739L361.681 33.3438H358.977V32.1631H362.696V33.2422C362.696 34.0378 362.527 34.7254 362.188 35.3052C361.854 35.8849 361.389 36.3335 360.792 36.6509C360.2 36.9683 359.522 37.127 358.761 37.127ZM366.959 37.146C366.294 37.146 365.712 36.9937 365.213 36.689C364.718 36.3843 364.333 35.9569 364.058 35.4067C363.787 34.8566 363.651 34.2176 363.651 33.4897C363.651 32.7534 363.787 32.1102 364.058 31.5601C364.333 31.0057 364.718 30.5762 365.213 30.2715C365.712 29.9668 366.294 29.8145 366.959 29.8145C367.627 29.8145 368.209 29.9668 368.704 30.2715C369.199 30.5762 369.584 31.0057 369.859 31.5601C370.135 32.1102 370.272 32.7534 370.272 33.4897C370.272 34.2176 370.135 34.8566 369.859 35.4067C369.584 35.9569 369.199 36.3843 368.704 36.689C368.209 36.9937 367.627 37.146 366.959 37.146ZM366.959 35.9844C367.394 35.9844 367.754 35.8701 368.038 35.6416C368.321 35.4131 368.531 35.1105 368.666 34.7339C368.806 34.353 368.876 33.9383 368.876 33.4897C368.876 33.0327 368.806 32.6138 368.666 32.2329C368.531 31.8521 368.321 31.5474 368.038 31.3188C367.754 31.0903 367.394 30.9761 366.959 30.9761C366.527 30.9761 366.169 31.0903 365.886 31.3188C365.607 31.5474 365.397 31.8521 365.257 32.2329C365.118 32.6138 365.048 33.0327 365.048 33.4897C365.048 33.9383 365.118 34.353 365.257 34.7339C365.397 35.1105 365.607 35.4131 365.886 35.6416C366.169 35.8701 366.527 35.9844 366.959 35.9844ZM373.455 37.1523C373.007 37.1523 372.6 37.0698 372.237 36.9048C371.873 36.7355 371.585 36.4901 371.373 36.1685C371.162 35.8468 371.056 35.4554 371.056 34.9941C371.056 34.5921 371.132 34.2642 371.284 34.0103C371.441 33.7521 371.65 33.5469 371.913 33.3945C372.175 33.2422 372.467 33.1279 372.789 33.0518C373.11 32.9756 373.441 32.9163 373.779 32.874C374.206 32.8275 374.551 32.7873 374.814 32.7534C375.076 32.7196 375.267 32.6667 375.385 32.5947C375.508 32.5186 375.569 32.3979 375.569 32.2329V32.2012C375.569 31.7992 375.455 31.4881 375.226 31.2681C375.002 31.048 374.668 30.938 374.223 30.938C373.762 30.938 373.396 31.0396 373.125 31.2427C372.859 31.4416 372.675 31.668 372.573 31.9219L371.272 31.6235C371.428 31.1919 371.655 30.8449 371.951 30.5825C372.251 30.3159 372.594 30.1213 372.979 29.9985C373.369 29.8758 373.775 29.8145 374.198 29.8145C374.482 29.8145 374.782 29.8483 375.099 29.916C375.417 29.9795 375.715 30.1001 375.994 30.2778C376.278 30.4513 376.509 30.701 376.686 31.0269C376.864 31.3527 376.953 31.7738 376.953 32.29V37H375.601V36.0288H375.55C375.465 36.2023 375.332 36.3758 375.15 36.5493C374.972 36.7228 374.744 36.8667 374.465 36.981C374.185 37.0952 373.849 37.1523 373.455 37.1523ZM373.754 36.0479C374.139 36.0479 374.467 35.9738 374.738 35.8257C375.008 35.6733 375.216 35.4744 375.36 35.229C375.503 34.9836 375.575 34.7233 375.575 34.4482V33.5278C375.525 33.5744 375.429 33.6188 375.29 33.6611C375.15 33.7035 374.991 33.7394 374.814 33.769C374.636 33.7987 374.462 33.8262 374.293 33.8516C374.124 33.8727 373.982 33.8896 373.868 33.9023C373.601 33.9404 373.358 33.9997 373.138 34.0801C372.918 34.1562 372.74 34.2705 372.605 34.4229C372.474 34.571 372.408 34.7677 372.408 35.0132C372.408 35.356 372.535 35.6141 372.789 35.7876C373.043 35.9611 373.364 36.0479 373.754 36.0479ZM379.781 27.542V37H378.41V27.542H379.781ZM385.284 35.7812C385.026 35.7812 384.806 35.6924 384.624 35.5146C384.446 35.3369 384.357 35.119 384.357 34.8608C384.357 34.6027 384.446 34.3848 384.624 34.207C384.806 34.0293 385.026 33.9404 385.284 33.9404C385.542 33.9404 385.76 34.0293 385.938 34.207C386.12 34.3848 386.211 34.6027 386.211 34.8608C386.211 35.119 386.12 35.3369 385.938 35.5146C385.76 35.6924 385.542 35.7812 385.284 35.7812ZM385.284 30.8047C385.026 30.8047 384.806 30.7158 384.624 30.5381C384.446 30.3604 384.357 30.1424 384.357 29.8843C384.357 29.6261 384.446 29.4082 384.624 29.2305C384.806 29.0527 385.026 28.9639 385.284 28.9639C385.542 28.9639 385.76 29.0527 385.938 29.2305C386.12 29.4082 386.211 29.6261 386.211 29.8843C386.211 30.1424 386.12 30.3604 385.938 30.5381C385.76 30.7158 385.542 30.8047 385.284 30.8047ZM393.681 38.1807V26.3613H394.431V38.1807H393.681ZM394.056 37.1523C393.349 37.1523 392.736 37.0423 392.215 36.8223C391.699 36.598 391.295 36.2785 391.003 35.8638C390.711 35.4491 390.548 34.9561 390.514 34.3848H391.949C391.978 34.7275 392.088 35.0132 392.279 35.2417C392.473 35.466 392.725 35.6331 393.034 35.7432C393.343 35.8532 393.681 35.9082 394.05 35.9082C394.452 35.9082 394.811 35.8447 395.129 35.7178C395.446 35.5908 395.694 35.4131 395.871 35.1846C396.053 34.9518 396.144 34.681 396.144 34.3721C396.144 34.0928 396.064 33.8643 395.903 33.6865C395.747 33.5088 395.533 33.3628 395.262 33.2485C394.991 33.13 394.687 33.0264 394.348 32.9375L393.237 32.6328C392.475 32.4297 391.875 32.1271 391.434 31.7251C390.994 31.3188 390.774 30.7878 390.774 30.1318C390.774 29.5859 390.92 29.1099 391.212 28.7036C391.508 28.2974 391.908 27.9821 392.412 27.7578C392.92 27.5293 393.489 27.415 394.119 27.415C394.763 27.415 395.328 27.5293 395.814 27.7578C396.305 27.9821 396.692 28.291 396.976 28.6846C397.264 29.0739 397.414 29.5203 397.427 30.0239H396.043C395.992 29.5881 395.789 29.2495 395.433 29.0083C395.082 28.7671 394.634 28.6465 394.088 28.6465C393.707 28.6465 393.373 28.7078 393.085 28.8306C392.801 28.9491 392.581 29.1141 392.425 29.3257C392.272 29.5373 392.196 29.7806 392.196 30.0557C392.196 30.3519 392.287 30.5931 392.469 30.7793C392.655 30.9655 392.88 31.1136 393.142 31.2236C393.409 31.3294 393.665 31.4162 393.91 31.4839L394.83 31.7314C395.131 31.8076 395.44 31.9092 395.757 32.0361C396.075 32.1631 396.369 32.3302 396.639 32.5376C396.915 32.7407 397.135 32.9946 397.3 33.2993C397.469 33.5998 397.554 33.9637 397.554 34.3911C397.554 34.9201 397.416 35.394 397.141 35.813C396.866 36.2277 396.468 36.5557 395.948 36.7969C395.427 37.0339 394.797 37.1523 394.056 37.1523ZM401.835 37.127C401.255 37.127 400.735 37.0169 400.273 36.7969C399.816 36.5726 399.45 36.2658 399.175 35.8765C398.9 35.4829 398.754 35.0365 398.737 34.5371H400.121C400.155 34.9391 400.335 35.2713 400.661 35.5337C400.986 35.7961 401.378 35.9272 401.835 35.9272C402.199 35.9272 402.52 35.8426 402.8 35.6733C403.079 35.5041 403.299 35.2734 403.46 34.9814C403.621 34.6852 403.701 34.3467 403.701 33.9658C403.701 33.585 403.619 33.2443 403.454 32.9438C403.289 32.6392 403.06 32.4001 402.768 32.2266C402.48 32.0531 402.148 31.9663 401.771 31.9663C401.484 31.9663 401.196 32.0171 400.908 32.1187C400.62 32.216 400.388 32.3429 400.21 32.4995L398.896 32.3091L399.429 27.542H404.628V28.7671H400.623L400.324 31.4141H400.375C400.557 31.2321 400.8 31.084 401.105 30.9697C401.414 30.8512 401.746 30.792 402.102 30.792C402.677 30.792 403.189 30.9295 403.638 31.2046C404.09 31.4754 404.446 31.8478 404.704 32.3218C404.962 32.7915 405.091 33.3311 405.091 33.9404C405.091 34.554 404.952 35.1021 404.672 35.5845C404.393 36.0627 404.008 36.4393 403.517 36.7144C403.03 36.9894 402.47 37.127 401.835 37.127ZM406.129 35.1528V34.0039L410.211 27.542H411.118V29.2432H410.534L407.614 33.8643V33.9404H413.219V35.1528H406.129ZM410.598 37V34.8037L410.61 34.2769V27.542H411.969V37H410.598ZM417.52 37.127C416.94 37.127 416.419 37.0169 415.958 36.7969C415.501 36.5726 415.135 36.2658 414.86 35.8765C414.585 35.4829 414.439 35.0365 414.422 34.5371H415.806C415.84 34.9391 416.02 35.2713 416.345 35.5337C416.671 35.7961 417.063 35.9272 417.52 35.9272C417.884 35.9272 418.205 35.8426 418.485 35.6733C418.764 35.5041 418.984 35.2734 419.145 34.9814C419.306 34.6852 419.386 34.3467 419.386 33.9658C419.386 33.585 419.303 33.2443 419.138 32.9438C418.973 32.6392 418.745 32.4001 418.453 32.2266C418.165 32.0531 417.833 31.9663 417.456 31.9663C417.168 31.9663 416.881 32.0171 416.593 32.1187C416.305 32.216 416.072 32.3429 415.895 32.4995L414.581 32.3091L415.114 27.542H420.313V28.7671H416.307L416.009 31.4141H416.06C416.242 31.2321 416.485 31.084 416.79 30.9697C417.099 30.8512 417.431 30.792 417.786 30.792C418.362 30.792 418.874 30.9295 419.322 31.2046C419.775 31.4754 420.131 31.8478 420.389 32.3218C420.647 32.7915 420.776 33.3311 420.776 33.9404C420.776 34.554 420.636 35.1021 420.357 35.5845C420.078 36.0627 419.693 36.4393 419.202 36.7144C418.715 36.9894 418.154 37.127 417.52 37.127ZM422.728 37.0889C422.47 37.0889 422.25 37 422.068 36.8223C421.89 36.6445 421.801 36.4266 421.801 36.1685C421.801 35.9103 421.89 35.6924 422.068 35.5146C422.25 35.3369 422.47 35.248 422.728 35.248C422.986 35.248 423.204 35.3369 423.382 35.5146C423.564 35.6924 423.655 35.9103 423.655 36.1685C423.655 36.4266 423.564 36.6445 423.382 36.8223C423.204 37 422.986 37.0889 422.728 37.0889ZM428.114 37.127C427.386 37.127 426.762 36.9365 426.241 36.5557C425.725 36.1748 425.329 35.6247 425.054 34.9053C424.783 34.1816 424.648 33.3057 424.648 32.2773C424.648 31.2533 424.785 30.3794 425.06 29.6558C425.336 28.9279 425.731 28.3735 426.247 27.9927C426.768 27.6076 427.39 27.415 428.114 27.415C428.842 27.415 429.464 27.6076 429.98 27.9927C430.5 28.3735 430.896 28.9279 431.167 29.6558C431.442 30.3794 431.58 31.2533 431.58 32.2773C431.58 33.3057 431.444 34.1816 431.173 34.9053C430.902 35.6247 430.509 36.1748 429.993 36.5557C429.476 36.9365 428.85 37.127 428.114 37.127ZM428.114 35.9082C428.558 35.9082 428.933 35.7664 429.237 35.4829C429.542 35.1994 429.775 34.7868 429.935 34.2451C430.096 33.6992 430.177 33.0433 430.177 32.2773C430.177 31.5072 430.096 30.8512 429.935 30.3096C429.775 29.7637 429.542 29.349 429.237 29.0654C428.933 28.7777 428.558 28.6338 428.114 28.6338C427.458 28.6338 426.95 28.9533 426.59 29.5923C426.235 30.2271 426.057 31.1221 426.057 32.2773C426.057 33.0433 426.137 33.6992 426.298 34.2451C426.459 34.7868 426.692 35.1994 426.997 35.4829C427.305 35.7664 427.678 35.9082 428.114 35.9082ZM436.102 37.127C435.374 37.127 434.75 36.9365 434.23 36.5557C433.713 36.1748 433.318 35.6247 433.043 34.9053C432.772 34.1816 432.636 33.3057 432.636 32.2773C432.636 31.2533 432.774 30.3794 433.049 29.6558C433.324 28.9279 433.72 28.3735 434.236 27.9927C434.756 27.6076 435.378 27.415 436.102 27.415C436.83 27.415 437.452 27.6076 437.968 27.9927C438.489 28.3735 438.885 28.9279 439.155 29.6558C439.43 30.3794 439.568 31.2533 439.568 32.2773C439.568 33.3057 439.433 34.1816 439.162 34.9053C438.891 35.6247 438.497 36.1748 437.981 36.5557C437.465 36.9365 436.838 37.127 436.102 37.127ZM436.102 35.9082C436.546 35.9082 436.921 35.7664 437.226 35.4829C437.53 35.1994 437.763 34.7868 437.924 34.2451C438.085 33.6992 438.165 33.0433 438.165 32.2773C438.165 31.5072 438.085 30.8512 437.924 30.3096C437.763 29.7637 437.53 29.349 437.226 29.0654C436.921 28.7777 436.546 28.6338 436.102 28.6338C435.446 28.6338 434.938 28.9533 434.579 29.5923C434.223 30.2271 434.045 31.1221 434.045 32.2773C434.045 33.0433 434.126 33.6992 434.287 34.2451C434.447 34.7868 434.68 35.1994 434.985 35.4829C435.294 35.7664 435.666 35.9082 436.102 35.9082Z" fill="#AEB9E1"/>
<rect x="354" y="51.3262" width="89.3367" height="4.20408" rx="2.10204" fill="#3E3F68"/>
<rect x="354" y="51.3262" width="69.3673" height="4.20408" rx="2.10204" fill="#732CFF"/>
<path d="M25.3652 28.1338V26.8145H33.2539V28.1338H30.082V37H28.5508V28.1338H25.3652ZM34.4193 37V29.3574H35.8959V37H34.4193ZM35.1644 28.1816C34.9046 28.1816 34.6836 28.0951 34.5013 27.9219C34.319 27.7487 34.2279 27.5413 34.2279 27.2998C34.2279 27.0537 34.319 26.8441 34.5013 26.6709C34.6836 26.4977 34.9046 26.4111 35.1644 26.4111C35.4196 26.4111 35.6384 26.4977 35.8207 26.6709C36.0075 26.8441 36.1009 27.0537 36.1009 27.2998C36.1009 27.5413 36.0075 27.7487 35.8207 27.9219C35.6384 28.0951 35.4196 28.1816 35.1644 28.1816ZM37.4577 37V29.3574H38.8728V30.6152H38.9753C39.1348 30.1914 39.3946 29.861 39.7546 29.624C40.1192 29.3825 40.5521 29.2617 41.0534 29.2617C41.5639 29.2617 41.99 29.3825 42.3318 29.624C42.6781 29.861 42.9356 30.1914 43.1042 30.6152H43.1862C43.3685 30.2005 43.6579 29.8724 44.0544 29.6309C44.4509 29.3848 44.9226 29.2617 45.4695 29.2617C46.1622 29.2617 46.7295 29.4805 47.1716 29.918C47.6137 30.3509 47.8347 31.0049 47.8347 31.8799V37H46.3445V32.0166C46.3445 31.4971 46.2032 31.1234 45.9206 30.8955C45.6381 30.6631 45.3008 30.5469 44.9089 30.5469C44.4258 30.5469 44.0499 30.6973 43.781 30.998C43.5167 31.2943 43.3845 31.6702 43.3845 32.126V37H41.8943V31.9209C41.8943 31.5062 41.7667 31.1735 41.5114 30.9229C41.2562 30.6722 40.9213 30.5469 40.5066 30.5469C40.224 30.5469 39.962 30.6221 39.7204 30.7725C39.4835 30.9183 39.292 31.1234 39.1462 31.3877C39.0049 31.6475 38.9343 31.9482 38.9343 32.29V37H37.4577ZM52.6846 37.1572C51.9373 37.1572 51.2901 36.9954 50.7432 36.6719C50.1964 36.3483 49.7748 35.8926 49.4786 35.3047C49.1869 34.7122 49.0411 34.0218 49.0411 33.2334C49.0411 32.4495 49.1846 31.7591 49.4718 31.1621C49.7634 30.5651 50.1713 30.1003 50.6954 29.7676C51.224 29.4303 51.8438 29.2617 52.5548 29.2617C52.9877 29.2617 53.407 29.3324 53.8126 29.4736C54.2182 29.6149 54.5828 29.8382 54.9063 30.1436C55.2299 30.4489 55.4851 30.8454 55.672 31.333C55.8634 31.8206 55.9591 32.4085 55.9591 33.0967V33.6299H49.8819V32.5156H55.1934L54.503 32.8848C54.503 32.4154 54.4301 32.0007 54.2843 31.6406C54.1384 31.2806 53.9197 31.0003 53.628 30.7998C53.3409 30.5947 52.9832 30.4922 52.5548 30.4922C52.1264 30.4922 51.7595 30.5947 51.4542 30.7998C51.1534 31.0049 50.9233 31.276 50.7638 31.6133C50.6042 31.9505 50.5245 32.3197 50.5245 32.7207V33.4795C50.5245 34.0036 50.6156 34.4479 50.7979 34.8125C50.9802 35.1771 51.2332 35.4551 51.5567 35.6465C51.8848 35.8379 52.2654 35.9336 52.6983 35.9336C52.9809 35.9336 53.2361 35.8926 53.4639 35.8105C53.6964 35.7285 53.8969 35.6055 54.0655 35.4414C54.2341 35.2773 54.3617 35.0745 54.4483 34.833L55.8565 35.0996C55.7426 35.5098 55.5421 35.8698 55.255 36.1797C54.9679 36.4896 54.6055 36.7311 54.168 36.9043C53.7351 37.0729 53.2406 37.1572 52.6846 37.1572ZM61.5027 35.6875C61.2247 35.6875 60.9878 35.5918 60.7918 35.4004C60.6004 35.209 60.5047 34.9743 60.5047 34.6963C60.5047 34.4183 60.6004 34.1836 60.7918 33.9922C60.9878 33.8008 61.2247 33.7051 61.5027 33.7051C61.7807 33.7051 62.0154 33.8008 62.2068 33.9922C62.4028 34.1836 62.5008 34.4183 62.5008 34.6963C62.5008 34.9743 62.4028 35.209 62.2068 35.4004C62.0154 35.5918 61.7807 35.6875 61.5027 35.6875ZM61.5027 30.3281C61.2247 30.3281 60.9878 30.2324 60.7918 30.041C60.6004 29.8496 60.5047 29.6149 60.5047 29.3369C60.5047 29.0589 60.6004 28.8242 60.7918 28.6328C60.9878 28.4414 61.2247 28.3457 61.5027 28.3457C61.7807 28.3457 62.0154 28.4414 62.2068 28.6328C62.4028 28.8242 62.5008 29.0589 62.5008 29.3369C62.5008 29.6149 62.4028 29.8496 62.2068 30.041C62.0154 30.2324 61.7807 30.3281 61.5027 30.3281ZM67.4019 37V35.8926L70.8472 32.3105C71.2118 31.9277 71.5126 31.5905 71.7495 31.2988C71.9911 31.0026 72.1711 30.7223 72.2896 30.458C72.4126 30.1937 72.4741 29.9134 72.4741 29.6172C72.4741 29.2754 72.3944 28.9814 72.2349 28.7354C72.0754 28.4893 71.8589 28.3001 71.5855 28.168C71.312 28.0358 71.0021 27.9697 70.6558 27.9697C70.2912 27.9697 69.9745 28.0449 69.7056 28.1953C69.4367 28.3411 69.2271 28.5508 69.0767 28.8242C68.9308 29.0931 68.8579 29.4098 68.8579 29.7744H67.395C67.395 29.1546 67.5363 28.6123 67.8189 28.1475C68.106 27.6826 68.4979 27.3226 68.9946 27.0674C69.496 26.8076 70.0611 26.6777 70.69 26.6777C71.3325 26.6777 71.8976 26.8053 72.3853 27.0605C72.8729 27.3158 73.2534 27.6621 73.5269 28.0996C73.8003 28.5326 73.937 29.0225 73.937 29.5693C73.937 29.9476 73.8664 30.3167 73.7251 30.6768C73.5884 31.0368 73.3446 31.4401 72.9937 31.8867C72.6473 32.3288 72.1642 32.862 71.5445 33.4863L69.521 35.6055V35.6875H74.1011V37H67.4019ZM78.1477 26.8145H79.8909L82.5569 31.4492H82.6662L85.3186 26.8145H87.0754L83.3772 33.001V37H81.8391V33.001L78.1477 26.8145ZM87.4 37V29.3574H88.8287V30.5811H88.9107C89.052 30.1709 89.2981 29.8473 89.649 29.6104C90.0045 29.3688 90.4055 29.248 90.8521 29.248C90.9433 29.248 91.0504 29.2526 91.1734 29.2617C91.301 29.2663 91.4036 29.2731 91.4811 29.2822V30.7041C91.4218 30.6859 91.3147 30.6676 91.1598 30.6494C91.0094 30.6312 90.8567 30.6221 90.7018 30.6221C90.3508 30.6221 90.0364 30.6973 89.7584 30.8477C89.485 30.9935 89.2685 31.1963 89.109 31.4561C88.954 31.7113 88.8766 32.0075 88.8766 32.3447V37H87.4Z" fill="#AEB9E1"/>
<rect x="24" y="51.3262" width="89.3367" height="4.20408" rx="2.10204" fill="#3E3F68"/>
<rect x="24" y="51.3262" width="69.3673" height="4.20408" rx="2.10204" fill="#F46D6B"/>
<g clip-path="url(#clip0_2015_45301)">
<path d="M24 163C24 154.716 30.6518 148 38.8571 148H113.143C121.348 148 128 154.716 128 163C128 171.284 121.348 178 113.143 178H38.8571C30.6518 178 24 171.284 24 163Z" fill="url(#paint0_linear_2015_45301)"/>
<path d="M48.5488 166.25C47.9318 166.25 47.3896 166.107 46.9223 165.82C46.458 165.533 46.0945 165.126 45.8318 164.599C45.5722 164.069 45.4424 163.441 45.4424 162.716C45.4424 161.982 45.5737 161.352 45.8364 160.824C46.1021 160.294 46.4656 159.887 46.9268 159.603C47.3881 159.316 47.9134 159.173 48.503 159.173C48.8695 159.173 49.2116 159.228 49.5293 159.339C49.85 159.447 50.1341 159.603 50.3815 159.807C50.632 160.01 50.8382 160.251 51 160.528C51.165 160.803 51.2765 161.108 51.3345 161.444H50.2807C50.2165 161.238 50.1311 161.054 50.0241 160.894C49.9172 160.73 49.789 160.591 49.6393 160.477C49.4896 160.36 49.3201 160.272 49.1307 160.214C48.9444 160.152 48.7367 160.121 48.5076 160.121C48.1227 160.121 47.776 160.221 47.4675 160.422C47.159 160.619 46.9146 160.911 46.7344 161.296C46.5542 161.682 46.4641 162.153 46.4641 162.712C46.4641 163.27 46.5542 163.742 46.7344 164.127C46.9146 164.513 47.1621 164.806 47.4766 165.006C47.7913 165.203 48.1487 165.302 48.5488 165.302C48.9184 165.302 49.2407 165.227 49.5156 165.075C49.7904 164.921 50.0043 164.705 50.157 164.428C50.3097 164.15 50.3861 163.822 50.3861 163.442L50.6564 163.493H48.7046V162.633H51.3895V163.419C51.3895 163.999 51.2673 164.5 51.023 164.923C50.7817 165.345 50.4456 165.672 50.0149 165.903C49.5874 166.135 49.0986 166.25 48.5488 166.25ZM54.4272 166.264C53.9263 166.264 53.4925 166.155 53.126 165.936C52.7594 165.717 52.4769 165.409 52.2784 165.011C52.0829 164.61 51.9852 164.143 51.9852 163.609C51.9852 163.079 52.0813 162.611 52.2738 162.207C52.4693 161.803 52.7426 161.489 53.0939 161.264C53.4483 161.036 53.8636 160.921 54.3402 160.921C54.6304 160.921 54.9113 160.969 55.1832 161.065C55.4551 161.16 55.6994 161.312 55.9163 161.518C56.1332 161.725 56.3042 161.993 56.4295 162.323C56.5577 162.653 56.6219 163.051 56.6219 163.517V163.877H52.5487V163.123H56.1087L55.646 163.373C55.646 163.055 55.5971 162.775 55.4993 162.531C55.4016 162.288 55.255 162.098 55.0595 161.962C54.8671 161.824 54.6273 161.754 54.3402 161.754C54.053 161.754 53.8071 161.824 53.6025 161.962C53.4009 162.101 53.2466 162.285 53.1397 162.513C53.0328 162.741 52.9793 162.991 52.9793 163.262V163.776C52.9793 164.13 53.0405 164.431 53.1626 164.678C53.2848 164.924 53.4544 165.112 53.6712 165.242C53.8912 165.371 54.1462 165.436 54.4364 165.436C54.6257 165.436 54.7968 165.409 54.9495 165.353C55.1053 165.298 55.2397 165.214 55.3527 165.103C55.4657 164.992 55.5513 164.855 55.6093 164.692L56.5532 164.872C56.4768 165.149 56.3424 165.393 56.1499 165.603C55.9575 165.812 55.7147 165.976 55.4215 166.093C55.1313 166.207 54.7999 166.264 54.4272 166.264ZM59.7008 160.986V161.796H56.9059V160.986H59.7008ZM57.6528 159.756H58.647V164.641C58.647 164.878 58.6959 165.052 58.7936 165.163C58.8914 165.271 59.0487 165.325 59.2655 165.325C59.3175 165.325 59.3724 165.322 59.4305 165.316C59.4916 165.31 59.5527 165.301 59.6138 165.288L59.8017 166.121C59.7008 166.155 59.5908 166.181 59.4717 166.199C59.3526 166.218 59.2335 166.227 59.1143 166.227C58.6714 166.227 58.3171 166.102 58.0514 165.853C57.7856 165.6 57.6528 165.264 57.6528 164.844V159.756ZM66.3352 162.254L65.4326 162.411C65.3746 162.238 65.2661 162.079 65.1073 161.935C64.9515 161.79 64.7179 161.717 64.4063 161.717C64.1253 161.717 63.8901 161.782 63.7007 161.911C63.5144 162.038 63.4212 162.2 63.4212 162.397C63.4212 162.57 63.4838 162.71 63.6091 162.818C63.7374 162.926 63.9405 163.012 64.2185 163.077L65.0386 163.262C65.5059 163.37 65.8556 163.54 66.0878 163.771C66.32 164.002 66.436 164.298 66.436 164.659C66.436 164.971 66.3474 165.248 66.1703 165.492C65.9931 165.732 65.7473 165.922 65.4326 166.061C65.118 166.196 64.7545 166.264 64.3422 166.264C63.7679 166.264 63.3006 166.139 62.9401 165.89C62.5797 165.64 62.3583 165.288 62.2758 164.835L63.2333 164.687C63.2945 164.94 63.4182 165.131 63.6045 165.26C63.7938 165.39 64.0382 165.455 64.3375 165.455C64.6613 165.455 64.921 165.385 65.1164 165.247C65.315 165.108 65.4143 164.94 65.4143 164.742C65.4143 164.416 65.173 164.195 64.6904 164.081L63.8244 163.887C63.3448 163.776 62.9905 163.601 62.7614 163.364C62.5354 163.123 62.4224 162.821 62.4224 162.457C62.4224 162.152 62.5064 161.884 62.6744 161.652C62.8454 161.421 63.0791 161.242 63.3754 161.116C63.6748 160.986 64.0153 160.921 64.3971 160.921C64.953 160.921 65.3883 161.043 65.7029 161.287C66.0206 161.531 66.2314 161.853 66.3352 162.254ZM69.5149 160.986V161.796H66.7201V160.986H69.5149ZM67.4669 159.756H68.4612V164.641C68.4612 164.878 68.5101 165.052 68.6078 165.163C68.7055 165.271 68.8628 165.325 69.0797 165.325C69.1316 165.325 69.1866 165.322 69.2446 165.316C69.3058 165.31 69.3668 165.301 69.4279 165.288L69.6157 166.121C69.5149 166.155 69.405 166.181 69.2859 166.199C69.1667 166.218 69.0476 166.227 68.9285 166.227C68.4856 166.227 68.1313 166.102 67.8656 165.853C67.5998 165.6 67.4669 165.264 67.4669 164.844V159.756ZM71.7142 166.269C71.3905 166.269 71.0972 166.209 70.8345 166.088C70.5718 165.965 70.3641 165.786 70.2114 165.552C70.0586 165.317 69.9823 165.032 69.9823 164.696C69.9823 164.403 70.0373 164.164 70.1472 163.979C70.2603 163.791 70.4115 163.641 70.6008 163.53C70.7902 163.419 71.001 163.336 71.2331 163.281C71.4653 163.225 71.7036 163.182 71.9479 163.151C72.2564 163.117 72.5053 163.088 72.6947 163.063C72.8841 163.039 73.0215 163 73.1071 162.948C73.1957 162.892 73.2399 162.804 73.2399 162.684V162.661C73.2399 162.368 73.1574 162.141 72.9925 161.981C72.8307 161.82 72.5894 161.74 72.2686 161.74C71.9356 161.74 71.6714 161.814 71.4759 161.962C71.2836 162.107 71.1506 162.272 71.0774 162.457L70.1381 162.24C70.2511 161.925 70.4145 161.672 70.6284 161.481C70.8452 161.287 71.0926 161.145 71.3706 161.056C71.6516 160.966 71.9449 160.921 72.2503 160.921C72.4549 160.921 72.6718 160.946 72.9009 160.995C73.13 161.042 73.3453 161.13 73.5469 161.259C73.7516 161.386 73.9181 161.567 74.0464 161.805C74.1746 162.042 74.2387 162.349 74.2387 162.725V166.158H73.2629V165.45H73.2262C73.1651 165.577 73.0689 165.703 72.9376 165.829C72.8092 165.956 72.6443 166.061 72.4427 166.144C72.2411 166.227 71.9983 166.269 71.7142 166.269ZM71.9295 165.464C72.2075 165.464 72.4442 165.41 72.6397 165.302C72.8352 165.191 72.9849 165.046 73.0887 164.867C73.1926 164.688 73.2446 164.499 73.2446 164.298V163.628C73.2079 163.661 73.1391 163.694 73.0384 163.725C72.9376 163.756 72.823 163.782 72.6947 163.803C72.5664 163.825 72.4412 163.845 72.319 163.864C72.1968 163.879 72.0945 163.891 72.012 163.9C71.8196 163.928 71.644 163.971 71.4852 164.03C71.3263 164.086 71.198 164.169 71.1003 164.28C71.0056 164.388 70.9582 164.531 70.9582 164.71C70.9582 164.96 71.0498 165.148 71.2331 165.274C71.4164 165.401 71.6485 165.464 71.9295 165.464ZM75.1964 166.158V160.986H76.154V161.814H76.2089C76.3036 161.537 76.4686 161.318 76.7038 161.157C76.942 160.994 77.2108 160.912 77.5101 160.912C77.5713 160.912 77.6431 160.915 77.7255 160.921C77.811 160.925 77.8798 160.929 77.9317 160.935V161.897C77.892 161.885 77.8202 161.873 77.7163 161.86C77.6155 161.848 77.5132 161.842 77.4093 161.842C77.1742 161.842 76.9634 161.893 76.777 161.995C76.5938 162.093 76.4487 162.231 76.3418 162.406C76.238 162.579 76.186 162.779 76.186 163.008V166.158H75.1964ZM81.0885 160.986V161.796H78.2936V160.986H81.0885ZM79.0405 159.756H80.0347V164.641C80.0347 164.878 80.0836 165.052 80.1814 165.163C80.2791 165.271 80.4364 165.325 80.6533 165.325C80.7052 165.325 80.7602 165.322 80.8182 165.316C80.8793 165.31 80.9404 165.301 81.0015 165.288L81.1893 166.121C81.0885 166.155 80.9786 166.181 80.8594 166.199C80.7403 166.218 80.6212 166.227 80.502 166.227C80.0591 166.227 79.7048 166.102 79.439 165.853C79.1733 165.6 79.0405 165.264 79.0405 164.844V159.756ZM83.9521 166.264C83.4512 166.264 83.0174 166.155 82.6509 165.936C82.2843 165.717 82.0018 165.409 81.8033 165.011C81.6078 164.61 81.5101 164.143 81.5101 163.609C81.5101 163.079 81.6062 162.611 81.7987 162.207C81.9942 161.803 82.2675 161.489 82.6188 161.264C82.9732 161.036 83.3885 160.921 83.8651 160.921C84.1553 160.921 84.4363 160.969 84.7081 161.065C84.98 161.16 85.2243 161.312 85.4412 161.518C85.6581 161.725 85.8291 161.993 85.9544 162.323C86.0826 162.653 86.1468 163.051 86.1468 163.517V163.877H82.0736V163.123H85.6336L85.1709 163.373C85.1709 163.055 85.122 162.775 85.0242 162.531C84.9265 162.288 84.7799 162.098 84.5844 161.962C84.3919 161.824 84.1522 161.754 83.8651 161.754C83.5779 161.754 83.3321 161.824 83.1274 161.962C82.9258 162.101 82.7716 162.285 82.6646 162.513C82.5577 162.741 82.5043 162.991 82.5043 163.262V163.776C82.5043 164.13 82.5654 164.431 82.6875 164.678C82.8097 164.924 82.9793 165.112 83.1961 165.242C83.4161 165.371 83.6711 165.436 83.9612 165.436C84.1506 165.436 84.3217 165.409 84.4744 165.353C84.6302 165.298 84.7646 165.214 84.8776 165.103C84.9906 164.992 85.0762 164.855 85.1342 164.692L86.0781 164.872C86.0017 165.149 85.8673 165.393 85.6748 165.603C85.4825 165.812 85.2396 165.976 84.9464 166.093C84.6562 166.207 84.3248 166.264 83.9521 166.264ZM88.7492 166.26C88.3338 166.26 87.9642 166.153 87.6404 165.94C87.3167 165.725 87.0631 165.418 86.8799 165.02C86.6966 164.619 86.605 164.141 86.605 163.586C86.605 163.025 86.6981 162.545 86.8844 162.147C87.0708 161.749 87.3258 161.446 87.6496 161.236C87.9734 161.026 88.3399 160.921 88.7492 160.921C89.0699 160.921 89.3266 160.975 89.519 161.083C89.7145 161.188 89.8656 161.312 89.9725 161.453C90.0825 161.595 90.1665 161.72 90.2245 161.828H90.2841V159.265H91.2738V166.158H90.307V165.353H90.2245C90.1665 165.461 90.081 165.586 89.968 165.728C89.855 165.87 89.7007 165.994 89.5052 166.102C89.3128 166.207 89.0608 166.26 88.7492 166.26ZM88.9646 165.404C89.2517 165.404 89.4945 165.327 89.6931 165.173C89.8916 165.018 90.0413 164.804 90.1421 164.53C90.246 164.255 90.2979 163.937 90.2979 163.577C90.2979 163.216 90.2475 162.901 90.1467 162.633C90.0459 162.362 89.8962 162.152 89.6977 162.004C89.4991 161.853 89.2548 161.777 88.9646 161.777C88.6653 161.777 88.4163 161.856 88.2177 162.013C88.0192 162.17 87.8695 162.385 87.7687 162.656C87.6679 162.928 87.6175 163.234 87.6175 163.577C87.6175 163.922 87.6679 164.234 87.7687 164.511C87.8695 164.786 88.0192 165.003 88.2177 165.163C88.4193 165.324 88.6683 165.404 88.9646 165.404Z" fill="white"/>
<path d="M111.074 164.069C111.226 163.915 111.226 163.665 111.074 163.51L108.586 160.998C108.432 160.844 108.185 160.844 108.032 160.998C107.88 161.153 107.88 161.403 108.032 161.557L110.244 163.79L108.032 166.023C107.88 166.177 107.88 166.427 108.032 166.581C108.185 166.735 108.432 166.735 108.586 166.581L111.074 164.069ZM99.8496 163.79V164.184H110.797V163.79V163.395H99.8496V163.79Z" fill="white"/>
</g>
<defs>
<linearGradient id="paint0_linear_2015_45301" x1="59.8084" y1="152.132" x2="94.764" y2="197.474" gradientUnits="userSpaceOnUse">
<stop stop-color="#732CFF"/>
<stop offset="1" stop-color="#F46D6B"/>
</linearGradient>
<clipPath id="clip0_2015_45301">
<rect width="104" height="30" fill="white" transform="translate(24 148)"/>
</clipPath>
</defs>
</svg>
