<svg width="456" height="229" viewBox="0 0 456 229" fill="none" xmlns="http://www.w3.org/2000/svg">
<path d="M15 0.25H441C449.146 0.25 455.75 6.8538 455.75 15V214C455.75 222.146 449.146 228.75 441 228.75H15C6.8538 228.75 0.25 222.146 0.25 214V15C0.25 6.8538 6.8538 0.250001 15 0.25Z" fill="#1E1F40" stroke="#787996" stroke-width="0.5"/>
<path d="M52 71C52 69.3431 53.3431 68 55 68H184C185.657 68 187 69.3431 187 71C187 72.6569 185.657 74 184 74H55C53.3431 74 52 72.6569 52 71Z" fill="#333458"/>
<path d="M52 86C52 84.3431 53.3431 83 55 83H137C138.657 83 140 84.3431 140 86C140 87.6569 138.657 89 137 89H55C53.3431 89 52 87.6569 52 86Z" fill="#333458"/>
<path d="M359.809 43.156C359.228 43.156 358.7 43.052 358.223 42.844C357.755 42.6273 357.382 42.3067 357.105 41.882C356.828 41.4573 356.68 40.9287 356.663 40.296H357.768C357.777 40.6427 357.859 40.9633 358.015 41.258C358.18 41.544 358.414 41.7737 358.717 41.947C359.02 42.1203 359.384 42.207 359.809 42.207C360.234 42.207 360.589 42.1247 360.875 41.96C361.161 41.7953 361.378 41.5787 361.525 41.31C361.672 41.0327 361.746 40.725 361.746 40.387C361.746 39.9623 361.642 39.62 361.434 39.36C361.235 39.0913 360.962 38.8963 360.615 38.775C360.277 38.645 359.904 38.58 359.497 38.58H358.821V37.657H359.497C360.095 37.657 360.563 37.5183 360.901 37.241C361.239 36.9637 361.408 36.5823 361.408 36.097C361.408 35.6983 361.274 35.3647 361.005 35.096C360.745 34.8273 360.346 34.693 359.809 34.693C359.298 34.693 358.89 34.8403 358.587 35.135C358.284 35.4297 358.11 35.8067 358.067 36.266H356.962C356.988 35.772 357.122 35.3343 357.365 34.953C357.608 34.5717 357.937 34.277 358.353 34.069C358.769 33.8523 359.259 33.744 359.822 33.744C360.411 33.744 360.905 33.848 361.304 34.056C361.703 34.264 362.002 34.5413 362.201 34.888C362.409 35.2347 362.513 35.616 362.513 36.032C362.513 36.344 362.457 36.6387 362.344 36.916C362.231 37.1847 362.062 37.423 361.837 37.631C361.612 37.839 361.326 37.9863 360.979 38.073C361.334 38.1423 361.651 38.2767 361.928 38.476C362.214 38.6753 362.439 38.9353 362.604 39.256C362.769 39.5767 362.851 39.9537 362.851 40.387C362.851 40.881 362.734 41.3403 362.5 41.765C362.275 42.181 361.937 42.519 361.486 42.779C361.035 43.0303 360.476 43.156 359.809 43.156ZM368.049 43.156C367.251 43.156 366.562 42.961 365.982 42.571C365.41 42.1723 364.972 41.622 364.669 40.92C364.365 40.2093 364.214 39.386 364.214 38.45C364.214 37.514 364.365 36.695 364.669 35.993C364.972 35.2823 365.41 34.732 365.982 34.342C366.562 33.9433 367.251 33.744 368.049 33.744C368.846 33.744 369.526 33.9433 370.09 34.342C370.662 34.732 371.099 35.2823 371.403 35.993C371.706 36.695 371.858 37.514 371.858 38.45C371.858 39.386 371.706 40.2093 371.403 40.92C371.099 41.622 370.662 42.1723 370.09 42.571C369.526 42.961 368.846 43.156 368.049 43.156ZM368.036 42.194C368.556 42.194 369.019 42.0467 369.427 41.752C369.834 41.4487 370.155 41.0197 370.389 40.465C370.623 39.9017 370.74 39.23 370.74 38.45C370.74 37.67 370.623 37.0027 370.389 36.448C370.155 35.8847 369.834 35.4557 369.427 35.161C369.019 34.8663 368.556 34.719 368.036 34.719C367.516 34.719 367.048 34.8663 366.632 35.161C366.224 35.4557 365.904 35.8847 365.67 36.448C365.444 37.0027 365.332 37.67 365.332 38.45C365.332 39.23 365.444 39.9017 365.67 40.465C365.904 41.0197 366.224 41.4487 366.632 41.752C367.048 42.0467 367.516 42.194 368.036 42.194ZM376.723 43V33.9H379.401C380.467 33.9 381.342 34.0863 382.027 34.459C382.72 34.823 383.231 35.3473 383.561 36.032C383.899 36.708 384.068 37.5227 384.068 38.476C384.068 39.412 383.899 40.218 383.561 40.894C383.231 41.57 382.72 42.09 382.027 42.454C381.342 42.818 380.467 43 379.401 43H376.723ZM377.815 42.09H379.375C380.259 42.09 380.961 41.947 381.481 41.661C382.001 41.3663 382.373 40.9503 382.599 40.413C382.824 39.867 382.937 39.2213 382.937 38.476C382.937 37.7133 382.824 37.059 382.599 36.513C382.373 35.967 382.001 35.5467 381.481 35.252C380.961 34.9573 380.259 34.81 379.375 34.81H377.815V42.09ZM387.649 43.156C387.12 43.156 386.678 43.065 386.323 42.883C385.967 42.6923 385.703 42.4453 385.53 42.142C385.356 41.83 385.27 41.492 385.27 41.128C385.27 40.686 385.382 40.3133 385.608 40.01C385.842 39.698 386.167 39.464 386.583 39.308C387.007 39.1433 387.506 39.061 388.078 39.061H389.807C389.807 38.6537 389.742 38.3157 389.612 38.047C389.49 37.7697 389.308 37.5617 389.066 37.423C388.832 37.2843 388.537 37.215 388.182 37.215C387.766 37.215 387.406 37.319 387.103 37.527C386.799 37.735 386.613 38.0427 386.544 38.45H385.426C385.478 37.982 385.634 37.592 385.894 37.28C386.162 36.9593 386.5 36.7167 386.908 36.552C387.315 36.3787 387.74 36.292 388.182 36.292C388.788 36.292 389.291 36.4047 389.69 36.63C390.097 36.8467 390.4 37.1543 390.6 37.553C390.799 37.943 390.899 38.4067 390.899 38.944V43H389.924L389.859 41.843C389.772 42.025 389.659 42.1983 389.521 42.363C389.391 42.519 389.235 42.6577 389.053 42.779C388.871 42.8917 388.663 42.9827 388.429 43.052C388.203 43.1213 387.943 43.156 387.649 43.156ZM387.818 42.233C388.121 42.233 388.394 42.1723 388.637 42.051C388.888 41.921 389.1 41.7477 389.274 41.531C389.447 41.3057 389.577 41.0587 389.664 40.79C389.759 40.5213 389.807 40.2397 389.807 39.945V39.906H388.169C387.744 39.906 387.402 39.958 387.142 40.062C386.882 40.1573 386.695 40.296 386.583 40.478C386.47 40.6513 386.414 40.8507 386.414 41.076C386.414 41.31 386.466 41.5137 386.57 41.687C386.682 41.8603 386.843 41.9947 387.051 42.09C387.267 42.1853 387.523 42.233 387.818 42.233ZM393.022 45.86L394.621 42.272H394.244L391.67 36.448H392.853L394.985 41.453L397.221 36.448H398.352L394.166 45.86H393.022ZM401.528 43.156C400.982 43.156 400.506 43.065 400.098 42.883C399.7 42.701 399.379 42.4497 399.136 42.129C398.902 41.7997 398.759 41.414 398.707 40.972H399.825C399.869 41.1973 399.96 41.4053 400.098 41.596C400.237 41.7867 400.423 41.9427 400.657 42.064C400.9 42.1767 401.195 42.233 401.541 42.233C401.845 42.233 402.096 42.1897 402.295 42.103C402.495 42.0077 402.642 41.882 402.737 41.726C402.841 41.57 402.893 41.401 402.893 41.219C402.893 40.9503 402.828 40.7467 402.698 40.608C402.577 40.4693 402.395 40.361 402.152 40.283C401.91 40.1963 401.615 40.1227 401.268 40.062C400.982 40.01 400.701 39.9407 400.423 39.854C400.146 39.7673 399.899 39.6547 399.682 39.516C399.466 39.3687 399.292 39.191 399.162 38.983C399.041 38.775 398.98 38.5193 398.98 38.216C398.98 37.8433 399.076 37.514 399.266 37.228C399.457 36.9333 399.73 36.7037 400.085 36.539C400.449 36.3743 400.87 36.292 401.346 36.292C402.048 36.292 402.616 36.461 403.049 36.799C403.483 37.137 403.738 37.6267 403.816 38.268H402.737C402.694 37.9387 402.551 37.683 402.308 37.501C402.074 37.3103 401.749 37.215 401.333 37.215C400.926 37.215 400.614 37.2973 400.397 37.462C400.189 37.6267 400.085 37.8433 400.085 38.112C400.085 38.2853 400.142 38.4413 400.254 38.58C400.376 38.71 400.549 38.8227 400.774 38.918C401.008 39.0133 401.294 39.0913 401.632 39.152C402.066 39.23 402.46 39.334 402.815 39.464C403.171 39.594 403.457 39.789 403.673 40.049C403.899 40.3003 404.011 40.66 404.011 41.128C404.011 41.5353 403.907 41.8907 403.699 42.194C403.5 42.4973 403.214 42.7357 402.841 42.909C402.469 43.0737 402.031 43.156 401.528 43.156Z" fill="#AEB9E1"/>
<path d="M264.6 193V187.4H265.384L267.36 191.312L269.344 187.4H270.136V193H269.464V188.6L267.616 192.216H267.112L265.272 188.616V193H264.6ZM273.031 193.096C272.657 193.096 272.321 193.011 272.023 192.84C271.724 192.664 271.489 192.419 271.319 192.104C271.148 191.784 271.063 191.413 271.063 190.992C271.063 190.56 271.148 190.187 271.319 189.872C271.495 189.552 271.732 189.307 272.031 189.136C272.335 188.96 272.673 188.872 273.047 188.872C273.431 188.872 273.769 188.96 274.063 189.136C274.361 189.307 274.596 189.552 274.767 189.872C274.943 190.187 275.031 190.557 275.031 190.984C275.031 191.411 274.943 191.784 274.767 192.104C274.591 192.419 274.353 192.664 274.055 192.84C273.756 193.011 273.415 193.096 273.031 193.096ZM273.039 192.52C273.268 192.52 273.481 192.464 273.679 192.352C273.876 192.235 274.036 192.061 274.159 191.832C274.281 191.603 274.343 191.32 274.343 190.984C274.343 190.643 274.281 190.36 274.159 190.136C274.041 189.907 273.884 189.736 273.687 189.624C273.495 189.507 273.281 189.448 273.047 189.448C272.823 189.448 272.609 189.507 272.407 189.624C272.209 189.736 272.049 189.907 271.927 190.136C271.809 190.36 271.751 190.643 271.751 190.984C271.751 191.32 271.809 191.603 271.927 191.832C272.049 192.061 272.207 192.235 272.399 192.352C272.596 192.464 272.809 192.52 273.039 192.52ZM275.917 193V188.968H276.525L276.557 189.672C276.685 189.421 276.866 189.227 277.101 189.088C277.341 188.944 277.613 188.872 277.917 188.872C278.231 188.872 278.503 188.936 278.733 189.064C278.962 189.187 279.141 189.376 279.269 189.632C279.397 189.883 279.461 190.203 279.461 190.592V193H278.789V190.664C278.789 190.259 278.698 189.955 278.517 189.752C278.341 189.549 278.09 189.448 277.765 189.448C277.541 189.448 277.341 189.504 277.165 189.616C276.989 189.723 276.847 189.88 276.741 190.088C276.639 190.291 276.589 190.544 276.589 190.848V193H275.917Z" fill="#AEB9E1"/>
<path d="M293.912 193V187.952H292.24V187.4H296.256V187.952H294.584V193H293.912ZM298.054 193.096C297.745 193.096 297.473 193.035 297.238 192.912C297.009 192.789 296.83 192.6 296.702 192.344C296.579 192.088 296.518 191.768 296.518 191.384V188.968H297.19V191.312C297.19 191.712 297.278 192.013 297.454 192.216C297.63 192.419 297.878 192.52 298.198 192.52C298.422 192.52 298.625 192.467 298.806 192.36C298.987 192.248 299.129 192.091 299.23 191.888C299.337 191.68 299.39 191.427 299.39 191.128V188.968H300.062V193H299.454L299.414 192.296C299.291 192.547 299.11 192.744 298.87 192.888C298.63 193.027 298.358 193.096 298.054 193.096ZM302.888 193.096C302.509 193.096 302.173 193.008 301.88 192.832C301.592 192.656 301.365 192.411 301.2 192.096C301.035 191.776 300.952 191.405 300.952 190.984C300.952 190.557 301.032 190.187 301.192 189.872C301.357 189.557 301.587 189.312 301.88 189.136C302.179 188.96 302.52 188.872 302.904 188.872C303.299 188.872 303.632 188.96 303.904 189.136C304.181 189.312 304.392 189.544 304.536 189.832C304.685 190.115 304.76 190.427 304.76 190.768C304.76 190.821 304.76 190.877 304.76 190.936C304.76 190.995 304.757 191.061 304.752 191.136H301.456V190.616H304.104C304.088 190.248 303.965 189.96 303.736 189.752C303.512 189.544 303.229 189.44 302.888 189.44C302.659 189.44 302.445 189.493 302.248 189.6C302.056 189.701 301.901 189.853 301.784 190.056C301.667 190.253 301.608 190.501 301.608 190.8V191.024C301.608 191.355 301.667 191.632 301.784 191.856C301.907 192.08 302.064 192.248 302.256 192.36C302.453 192.472 302.664 192.528 302.888 192.528C303.171 192.528 303.403 192.467 303.584 192.344C303.771 192.216 303.904 192.045 303.984 191.832H304.648C304.584 192.072 304.472 192.288 304.312 192.48C304.152 192.672 303.952 192.824 303.712 192.936C303.477 193.043 303.203 193.096 302.888 193.096ZM307.131 193.096C306.795 193.096 306.501 193.04 306.251 192.928C306.005 192.816 305.808 192.661 305.659 192.464C305.515 192.261 305.427 192.024 305.395 191.752H306.083C306.109 191.891 306.165 192.019 306.251 192.136C306.336 192.253 306.451 192.349 306.595 192.424C306.744 192.493 306.925 192.528 307.139 192.528C307.325 192.528 307.48 192.501 307.603 192.448C307.725 192.389 307.816 192.312 307.875 192.216C307.939 192.12 307.971 192.016 307.971 191.904C307.971 191.739 307.931 191.613 307.851 191.528C307.776 191.443 307.664 191.376 307.515 191.328C307.365 191.275 307.184 191.229 306.971 191.192C306.795 191.16 306.621 191.117 306.451 191.064C306.28 191.011 306.128 190.941 305.995 190.856C305.861 190.765 305.755 190.656 305.675 190.528C305.6 190.4 305.563 190.243 305.563 190.056C305.563 189.827 305.621 189.624 305.739 189.448C305.856 189.267 306.024 189.125 306.243 189.024C306.467 188.923 306.725 188.872 307.019 188.872C307.451 188.872 307.8 188.976 308.067 189.184C308.333 189.392 308.491 189.693 308.539 190.088H307.875C307.848 189.885 307.76 189.728 307.611 189.616C307.467 189.499 307.267 189.44 307.011 189.44C306.76 189.44 306.568 189.491 306.435 189.592C306.307 189.693 306.243 189.827 306.243 189.992C306.243 190.099 306.277 190.195 306.347 190.28C306.421 190.36 306.528 190.429 306.667 190.488C306.811 190.547 306.987 190.595 307.195 190.632C307.461 190.68 307.704 190.744 307.923 190.824C308.141 190.904 308.317 191.024 308.451 191.184C308.589 191.339 308.659 191.56 308.659 191.848C308.659 192.099 308.595 192.317 308.467 192.504C308.344 192.691 308.168 192.837 307.939 192.944C307.709 193.045 307.44 193.096 307.131 193.096Z" fill="#AEB9E1"/>
<path d="M324.752 193L323.216 187.4H323.936L325.144 192.2L326.512 187.4H327.264L328.6 192.216L329.824 187.4H330.544L328.976 193H328.208L326.872 188.368L325.504 193H324.752ZM332.608 193.096C332.229 193.096 331.893 193.008 331.6 192.832C331.312 192.656 331.085 192.411 330.92 192.096C330.755 191.776 330.672 191.405 330.672 190.984C330.672 190.557 330.752 190.187 330.912 189.872C331.077 189.557 331.307 189.312 331.6 189.136C331.899 188.96 332.24 188.872 332.624 188.872C333.019 188.872 333.352 188.96 333.624 189.136C333.901 189.312 334.112 189.544 334.256 189.832C334.405 190.115 334.48 190.427 334.48 190.768C334.48 190.821 334.48 190.877 334.48 190.936C334.48 190.995 334.477 191.061 334.472 191.136H331.176V190.616H333.824C333.808 190.248 333.685 189.96 333.456 189.752C333.232 189.544 332.949 189.44 332.608 189.44C332.379 189.44 332.165 189.493 331.968 189.6C331.776 189.701 331.621 189.853 331.504 190.056C331.387 190.253 331.328 190.501 331.328 190.8V191.024C331.328 191.355 331.387 191.632 331.504 191.856C331.627 192.08 331.784 192.248 331.976 192.36C332.173 192.472 332.384 192.528 332.608 192.528C332.891 192.528 333.123 192.467 333.304 192.344C333.491 192.216 333.624 192.045 333.704 191.832H334.368C334.304 192.072 334.192 192.288 334.032 192.48C333.872 192.672 333.672 192.824 333.432 192.936C333.197 193.043 332.923 193.096 332.608 193.096ZM337.107 193.096C336.717 193.096 336.376 193.005 336.083 192.824C335.789 192.637 335.563 192.384 335.403 192.064C335.243 191.744 335.163 191.381 335.163 190.976C335.163 190.571 335.243 190.211 335.403 189.896C335.563 189.576 335.789 189.325 336.083 189.144C336.381 188.963 336.725 188.872 337.115 188.872C337.445 188.872 337.733 188.939 337.979 189.072C338.229 189.205 338.421 189.392 338.555 189.632V187.24H339.227V193H338.619L338.563 192.336C338.477 192.469 338.368 192.595 338.235 192.712C338.101 192.824 337.941 192.917 337.755 192.992C337.568 193.061 337.352 193.096 337.107 193.096ZM337.187 192.512C337.453 192.512 337.688 192.448 337.891 192.32C338.093 192.192 338.251 192.016 338.363 191.792C338.475 191.563 338.531 191.293 338.531 190.984C338.531 190.68 338.475 190.413 338.363 190.184C338.251 189.955 338.093 189.776 337.891 189.648C337.688 189.52 337.453 189.456 337.187 189.456C336.925 189.456 336.693 189.52 336.491 189.648C336.288 189.776 336.131 189.955 336.019 190.184C335.907 190.413 335.851 190.68 335.851 190.984C335.851 191.293 335.907 191.563 336.019 191.792C336.131 192.016 336.288 192.192 336.491 192.32C336.693 192.448 336.925 192.512 337.187 192.512Z" fill="#AEB9E1"/>
<path d="M355.912 193V187.952H354.24V187.4H358.256V187.952H356.584V193H355.912ZM358.988 193V187.24H359.66V189.648C359.794 189.408 359.98 189.219 360.22 189.08C360.466 188.941 360.732 188.872 361.02 188.872C361.33 188.872 361.599 188.936 361.828 189.064C362.058 189.187 362.234 189.376 362.356 189.632C362.479 189.888 362.54 190.211 362.54 190.6V193H361.876V190.672C361.876 190.267 361.791 189.963 361.62 189.76C361.45 189.552 361.202 189.448 360.876 189.448C360.647 189.448 360.439 189.504 360.252 189.616C360.071 189.728 359.927 189.888 359.82 190.096C359.714 190.304 359.66 190.56 359.66 190.864V193H358.988ZM364.998 193.096C364.689 193.096 364.417 193.035 364.182 192.912C363.953 192.789 363.774 192.6 363.646 192.344C363.523 192.088 363.462 191.768 363.462 191.384V188.968H364.134V191.312C364.134 191.712 364.222 192.013 364.398 192.216C364.574 192.419 364.822 192.52 365.142 192.52C365.366 192.52 365.569 192.467 365.75 192.36C365.931 192.248 366.073 192.091 366.174 191.888C366.281 191.68 366.334 191.427 366.334 191.128V188.968H367.006V193H366.398L366.358 192.296C366.235 192.547 366.054 192.744 365.814 192.888C365.574 193.027 365.302 193.096 364.998 193.096ZM368.064 193V188.968H368.672L368.72 189.736C368.811 189.555 368.925 189.4 369.064 189.272C369.208 189.144 369.379 189.045 369.576 188.976C369.779 188.907 370.008 188.872 370.264 188.872V189.576H370.016C369.845 189.576 369.683 189.6 369.528 189.648C369.373 189.691 369.235 189.763 369.112 189.864C368.995 189.965 368.901 190.104 368.832 190.28C368.768 190.451 368.736 190.664 368.736 190.92V193H368.064ZM372.489 193.096C372.153 193.096 371.859 193.04 371.609 192.928C371.363 192.816 371.166 192.661 371.017 192.464C370.873 192.261 370.785 192.024 370.753 191.752H371.441C371.467 191.891 371.523 192.019 371.609 192.136C371.694 192.253 371.809 192.349 371.953 192.424C372.102 192.493 372.283 192.528 372.497 192.528C372.683 192.528 372.838 192.501 372.961 192.448C373.083 192.389 373.174 192.312 373.233 192.216C373.297 192.12 373.329 192.016 373.329 191.904C373.329 191.739 373.289 191.613 373.209 191.528C373.134 191.443 373.022 191.376 372.873 191.328C372.723 191.275 372.542 191.229 372.329 191.192C372.153 191.16 371.979 191.117 371.809 191.064C371.638 191.011 371.486 190.941 371.353 190.856C371.219 190.765 371.113 190.656 371.033 190.528C370.958 190.4 370.921 190.243 370.921 190.056C370.921 189.827 370.979 189.624 371.097 189.448C371.214 189.267 371.382 189.125 371.601 189.024C371.825 188.923 372.083 188.872 372.377 188.872C372.809 188.872 373.158 188.976 373.425 189.184C373.691 189.392 373.849 189.693 373.897 190.088H373.233C373.206 189.885 373.118 189.728 372.969 189.616C372.825 189.499 372.625 189.44 372.369 189.44C372.118 189.44 371.926 189.491 371.793 189.592C371.665 189.693 371.601 189.827 371.601 189.992C371.601 190.099 371.635 190.195 371.705 190.28C371.779 190.36 371.886 190.429 372.025 190.488C372.169 190.547 372.345 190.595 372.553 190.632C372.819 190.68 373.062 190.744 373.281 190.824C373.499 190.904 373.675 191.024 373.809 191.184C373.947 191.339 374.017 191.56 374.017 191.848C374.017 192.099 373.953 192.317 373.825 192.504C373.702 192.691 373.526 192.837 373.297 192.944C373.067 193.045 372.798 193.096 372.489 193.096Z" fill="#AEB9E1"/>
<path d="M383.6 193V187.4H387.008V187.952H384.272V189.92H386.6V190.464H384.272V193H383.6ZM387.785 193V188.968H388.393L388.441 189.736C388.532 189.555 388.647 189.4 388.785 189.272C388.929 189.144 389.1 189.045 389.297 188.976C389.5 188.907 389.729 188.872 389.985 188.872V189.576H389.737C389.567 189.576 389.404 189.6 389.249 189.648C389.095 189.691 388.956 189.763 388.833 189.864C388.716 189.965 388.623 190.104 388.553 190.28C388.489 190.451 388.457 190.664 388.457 190.92V193H387.785ZM390.754 193V188.968H391.426V193H390.754ZM391.09 188.112C390.957 188.112 390.845 188.069 390.754 187.984C390.669 187.893 390.626 187.781 390.626 187.648C390.626 187.515 390.669 187.408 390.754 187.328C390.845 187.243 390.957 187.2 391.09 187.2C391.218 187.2 391.328 187.243 391.418 187.328C391.509 187.408 391.554 187.515 391.554 187.648C391.554 187.781 391.509 187.893 391.418 187.984C391.328 188.069 391.218 188.112 391.09 188.112Z" fill="#AEB9E1"/>
<path d="M409.384 193.096C408.973 193.096 408.616 193.021 408.312 192.872C408.008 192.723 407.773 192.515 407.608 192.248C407.443 191.981 407.36 191.672 407.36 191.32H408.064C408.064 191.539 408.115 191.741 408.216 191.928C408.317 192.109 408.464 192.256 408.656 192.368C408.853 192.475 409.096 192.528 409.384 192.528C409.635 192.528 409.848 192.488 410.024 192.408C410.205 192.323 410.341 192.208 410.432 192.064C410.528 191.92 410.576 191.757 410.576 191.576C410.576 191.357 410.528 191.181 410.432 191.048C410.341 190.909 410.216 190.797 410.056 190.712C409.896 190.627 409.709 190.552 409.496 190.488C409.288 190.419 409.069 190.347 408.84 190.272C408.397 190.123 408.072 189.936 407.864 189.712C407.656 189.488 407.552 189.197 407.552 188.84C407.552 188.536 407.621 188.269 407.76 188.04C407.904 187.811 408.107 187.632 408.368 187.504C408.635 187.371 408.949 187.304 409.312 187.304C409.669 187.304 409.979 187.371 410.24 187.504C410.507 187.637 410.715 187.821 410.864 188.056C411.013 188.285 411.088 188.552 411.088 188.856H410.384C410.384 188.701 410.344 188.549 410.264 188.4C410.184 188.251 410.061 188.128 409.896 188.032C409.736 187.931 409.533 187.88 409.288 187.88C409.085 187.875 408.904 187.909 408.744 187.984C408.589 188.053 408.467 188.155 408.376 188.288C408.291 188.421 408.248 188.584 408.248 188.776C408.248 188.957 408.285 189.104 408.36 189.216C408.44 189.328 408.552 189.424 408.696 189.504C408.845 189.579 409.019 189.648 409.216 189.712C409.413 189.776 409.632 189.848 409.872 189.928C410.144 190.019 410.384 190.131 410.592 190.264C410.805 190.392 410.971 190.557 411.088 190.76C411.211 190.963 411.272 191.221 411.272 191.536C411.272 191.803 411.2 192.056 411.056 192.296C410.917 192.531 410.709 192.723 410.432 192.872C410.155 193.021 409.805 193.096 409.384 193.096ZM413.457 193.096C413.131 193.096 412.859 193.04 412.641 192.928C412.422 192.811 412.259 192.659 412.153 192.472C412.046 192.28 411.993 192.072 411.993 191.848C411.993 191.576 412.062 191.347 412.201 191.16C412.345 190.968 412.545 190.824 412.801 190.728C413.062 190.627 413.369 190.576 413.721 190.576H414.785C414.785 190.325 414.745 190.117 414.665 189.952C414.59 189.781 414.478 189.653 414.329 189.568C414.185 189.483 414.003 189.44 413.785 189.44C413.529 189.44 413.307 189.504 413.121 189.632C412.934 189.76 412.819 189.949 412.777 190.2H412.089C412.121 189.912 412.217 189.672 412.377 189.48C412.542 189.283 412.75 189.133 413.001 189.032C413.251 188.925 413.513 188.872 413.785 188.872C414.158 188.872 414.467 188.941 414.713 189.08C414.963 189.213 415.15 189.403 415.273 189.648C415.395 189.888 415.457 190.173 415.457 190.504V193H414.857L414.817 192.288C414.763 192.4 414.694 192.507 414.609 192.608C414.529 192.704 414.433 192.789 414.321 192.864C414.209 192.933 414.081 192.989 413.937 193.032C413.798 193.075 413.638 193.096 413.457 193.096ZM413.561 192.528C413.747 192.528 413.915 192.491 414.065 192.416C414.219 192.336 414.35 192.229 414.457 192.096C414.563 191.957 414.643 191.805 414.697 191.64C414.755 191.475 414.785 191.301 414.785 191.12V191.096H413.777C413.515 191.096 413.305 191.128 413.145 191.192C412.985 191.251 412.87 191.336 412.801 191.448C412.731 191.555 412.697 191.677 412.697 191.816C412.697 191.96 412.729 192.085 412.793 192.192C412.862 192.299 412.961 192.381 413.089 192.44C413.222 192.499 413.379 192.528 413.561 192.528ZM417.915 193C417.675 193 417.467 192.963 417.291 192.888C417.115 192.813 416.979 192.688 416.883 192.512C416.792 192.331 416.747 192.088 416.747 191.784V189.536H416.043V188.968H416.747L416.835 187.992H417.419V188.968H418.587V189.536H417.419V191.784C417.419 192.035 417.469 192.205 417.571 192.296C417.672 192.381 417.851 192.424 418.107 192.424H418.539V193H417.915Z" fill="#AEB9E1"/>
<path d="M319.425 44.18C318.755 44.18 318.14 44.06 317.58 43.82C317.03 43.57 316.59 43.2 316.26 42.71C315.94 42.21 315.77 41.585 315.75 40.835H317.25C317.26 41.215 317.35 41.56 317.52 41.87C317.69 42.18 317.935 42.43 318.255 42.62C318.585 42.8 318.975 42.89 319.425 42.89C319.875 42.89 320.25 42.805 320.55 42.635C320.86 42.465 321.09 42.235 321.24 41.945C321.4 41.655 321.48 41.33 321.48 40.97C321.48 40.52 321.37 40.155 321.15 39.875C320.94 39.595 320.65 39.385 320.28 39.245C319.92 39.105 319.515 39.035 319.065 39.035H318.285V37.775H319.065C319.695 37.775 320.195 37.63 320.565 37.34C320.945 37.05 321.135 36.64 321.135 36.11C321.135 35.67 320.99 35.31 320.7 35.03C320.41 34.75 319.985 34.61 319.425 34.61C318.865 34.61 318.42 34.77 318.09 35.09C317.77 35.41 317.59 35.815 317.55 36.305H316.065C316.095 35.715 316.25 35.195 316.53 34.745C316.82 34.285 317.21 33.935 317.7 33.695C318.2 33.445 318.775 33.32 319.425 33.32C320.125 33.32 320.71 33.445 321.18 33.695C321.66 33.935 322.02 34.26 322.26 34.67C322.51 35.08 322.635 35.53 322.635 36.02C322.635 36.39 322.565 36.735 322.425 37.055C322.285 37.365 322.085 37.635 321.825 37.865C321.565 38.095 321.25 38.26 320.88 38.36C321.28 38.44 321.64 38.595 321.96 38.825C322.28 39.055 322.53 39.355 322.71 39.725C322.89 40.085 322.98 40.505 322.98 40.985C322.98 41.555 322.845 42.085 322.575 42.575C322.305 43.055 321.905 43.445 321.375 43.745C320.855 44.035 320.205 44.18 319.425 44.18ZM328.526 44.18C327.836 44.18 327.211 44.055 326.651 43.805C326.101 43.545 325.661 43.185 325.331 42.725C325.011 42.265 324.851 41.73 324.851 41.12C324.851 40.69 324.931 40.295 325.091 39.935C325.251 39.565 325.476 39.245 325.766 38.975C326.056 38.705 326.396 38.51 326.786 38.39C326.266 38.18 325.856 37.87 325.556 37.46C325.256 37.05 325.106 36.6 325.106 36.11C325.106 35.6 325.241 35.135 325.511 34.715C325.781 34.295 326.171 33.96 326.681 33.71C327.191 33.45 327.806 33.32 328.526 33.32C329.246 33.32 329.861 33.45 330.371 33.71C330.881 33.96 331.266 34.295 331.526 34.715C331.796 35.135 331.931 35.6 331.931 36.11C331.931 36.6 331.781 37.055 331.481 37.475C331.191 37.885 330.786 38.19 330.266 38.39C330.656 38.51 330.996 38.705 331.286 38.975C331.576 39.245 331.801 39.565 331.961 39.935C332.121 40.295 332.201 40.69 332.201 41.12C332.201 41.73 332.036 42.265 331.706 42.725C331.386 43.185 330.946 43.545 330.386 43.805C329.836 44.055 329.216 44.18 328.526 44.18ZM328.526 42.89C329.256 42.89 329.801 42.72 330.161 42.38C330.531 42.03 330.716 41.575 330.716 41.015C330.716 40.385 330.516 39.905 330.116 39.575C329.726 39.245 329.196 39.08 328.526 39.08C327.856 39.08 327.321 39.245 326.921 39.575C326.531 39.905 326.336 40.385 326.336 41.015C326.336 41.575 326.516 42.03 326.876 42.38C327.246 42.72 327.796 42.89 328.526 42.89ZM328.526 37.895C329.116 37.895 329.581 37.74 329.921 37.43C330.271 37.12 330.446 36.725 330.446 36.245C330.446 35.695 330.276 35.28 329.936 35C329.596 34.72 329.126 34.58 328.526 34.58C327.936 34.58 327.471 34.72 327.131 35C326.791 35.28 326.621 35.695 326.621 36.245C326.621 36.725 326.791 37.12 327.131 37.43C327.471 37.74 327.936 37.895 328.526 37.895ZM337.299 44.18C336.619 44.18 336.039 44.05 335.559 43.79C335.079 43.52 334.699 43.165 334.419 42.725C334.139 42.275 333.969 41.79 333.909 41.27H335.304C335.404 41.79 335.629 42.195 335.979 42.485C336.329 42.765 336.774 42.905 337.314 42.905C337.814 42.905 338.254 42.755 338.634 42.455C339.014 42.155 339.319 41.7 339.549 41.09C339.779 40.48 339.909 39.71 339.939 38.78C339.949 38.75 339.954 38.72 339.954 38.69C339.954 38.66 339.954 38.63 339.954 38.6C339.794 38.9 339.574 39.175 339.294 39.425C339.014 39.675 338.684 39.875 338.304 40.025C337.934 40.165 337.519 40.235 337.059 40.235C336.469 40.235 335.914 40.1 335.394 39.83C334.884 39.55 334.464 39.155 334.134 38.645C333.814 38.135 333.654 37.54 333.654 36.86C333.654 36.25 333.799 35.675 334.089 35.135C334.389 34.595 334.809 34.16 335.349 33.83C335.899 33.49 336.544 33.32 337.284 33.32C338.054 33.32 338.699 33.465 339.219 33.755C339.749 34.035 340.169 34.42 340.479 34.91C340.799 35.39 341.029 35.93 341.169 36.53C341.319 37.12 341.394 37.73 341.394 38.36C341.394 39.51 341.234 40.525 340.914 41.405C340.594 42.275 340.129 42.955 339.519 43.445C338.909 43.935 338.169 44.18 337.299 44.18ZM337.389 38.96C337.819 38.96 338.204 38.865 338.544 38.675C338.884 38.475 339.154 38.21 339.354 37.88C339.554 37.55 339.654 37.185 339.654 36.785C339.654 36.365 339.554 35.995 339.354 35.675C339.154 35.345 338.879 35.09 338.529 34.91C338.189 34.72 337.804 34.625 337.374 34.625C336.954 34.625 336.574 34.72 336.234 34.91C335.894 35.09 335.624 35.345 335.424 35.675C335.234 35.995 335.139 36.37 335.139 36.8C335.139 37.23 335.234 37.61 335.424 37.94C335.624 38.26 335.894 38.51 336.234 38.69C336.574 38.87 336.959 38.96 337.389 38.96ZM345.713 42.965V36.335H347.033V42.965H345.713ZM342.878 40.28V39.02H349.883V40.28H342.878Z" fill="#F46D6B"/>
<path d="M57.5736 134.92V128.38H58.6986V134.92H57.5736ZM54.7086 132.175V131.11H61.5636V132.175H54.7086ZM66.8256 136.18C66.1056 136.18 65.4806 136.05 64.9506 135.79C64.4306 135.53 64.0156 135.175 63.7056 134.725C63.4056 134.275 63.2156 133.77 63.1356 133.21H64.3656C64.4856 133.77 64.7606 134.225 65.1906 134.575C65.6206 134.925 66.1706 135.1 66.8406 135.1C67.3406 135.1 67.7656 134.985 68.1156 134.755C68.4756 134.525 68.7506 134.21 68.9406 133.81C69.1406 133.41 69.2406 132.965 69.2406 132.475C69.2406 131.965 69.1406 131.515 68.9406 131.125C68.7406 130.735 68.4656 130.435 68.1156 130.225C67.7656 130.005 67.3556 129.895 66.8856 129.895C66.3156 129.895 65.8306 130.02 65.4306 130.27C65.0306 130.52 64.7306 130.84 64.5306 131.23H63.3156L64.1856 125.5H69.7356V126.595H65.1606L64.5756 129.82C64.8256 129.53 65.1556 129.295 65.5656 129.115C65.9856 128.925 66.4706 128.83 67.0206 128.83C67.5406 128.83 68.0106 128.92 68.4306 129.1C68.8506 129.28 69.2106 129.535 69.5106 129.865C69.8106 130.195 70.0406 130.58 70.2006 131.02C70.3706 131.46 70.4556 131.94 70.4556 132.46C70.4556 132.97 70.3706 133.45 70.2006 133.9C70.0406 134.34 69.8056 134.735 69.4956 135.085C69.1856 135.425 68.8056 135.695 68.3556 135.895C67.9056 136.085 67.3956 136.18 66.8256 136.18ZM75.7709 136.18C75.0909 136.18 74.4809 136.055 73.9409 135.805C73.4009 135.545 72.9709 135.19 72.6509 134.74C72.3309 134.28 72.1709 133.75 72.1709 133.15C72.1709 132.72 72.2559 132.32 72.4259 131.95C72.5959 131.58 72.8309 131.26 73.1309 130.99C73.4409 130.71 73.7959 130.515 74.1959 130.405C73.6359 130.205 73.2009 129.895 72.8909 129.475C72.5909 129.055 72.4409 128.6 72.4409 128.11C72.4409 127.59 72.5759 127.12 72.8459 126.7C73.1159 126.28 73.4959 125.945 73.9859 125.695C74.4859 125.445 75.0809 125.32 75.7709 125.32C76.4709 125.32 77.0659 125.445 77.5559 125.695C78.0559 125.945 78.4359 126.28 78.6959 126.7C78.9659 127.12 79.1009 127.59 79.1009 128.11C79.1009 128.6 78.9459 129.055 78.6359 129.475C78.3359 129.895 77.9059 130.205 77.3459 130.405C77.7559 130.515 78.1109 130.71 78.4109 130.99C78.7209 131.26 78.9559 131.58 79.1159 131.95C79.2859 132.32 79.3709 132.72 79.3709 133.15C79.3709 133.75 79.2109 134.28 78.8909 134.74C78.5809 135.19 78.1509 135.545 77.6009 135.805C77.0609 136.055 76.4509 136.18 75.7709 136.18ZM75.7709 135.07C76.5609 135.07 77.1459 134.89 77.5259 134.53C77.9159 134.16 78.1109 133.675 78.1109 133.075C78.1109 132.395 77.8959 131.88 77.4659 131.53C77.0459 131.18 76.4809 131.005 75.7709 131.005C75.0609 131.005 74.4909 131.18 74.0609 131.53C73.6409 131.88 73.4309 132.395 73.4309 133.075C73.4309 133.675 73.6259 134.16 74.0159 134.53C74.4059 134.89 74.9909 135.07 75.7709 135.07ZM75.7709 129.955C76.4009 129.955 76.9009 129.79 77.2709 129.46C77.6409 129.13 77.8259 128.705 77.8259 128.185C77.8259 127.595 77.6409 127.15 77.2709 126.85C76.9109 126.55 76.4109 126.4 75.7709 126.4C75.1409 126.4 74.6409 126.55 74.2709 126.85C73.9109 127.15 73.7309 127.595 73.7309 128.185C73.7309 128.705 73.9109 129.13 74.2709 129.46C74.6409 129.79 75.1409 129.955 75.7709 129.955ZM81.7319 136.075C81.4819 136.075 81.2719 135.995 81.1019 135.835C80.9419 135.665 80.8619 135.46 80.8619 135.22C80.8619 134.98 80.9419 134.78 81.1019 134.62C81.2719 134.45 81.4819 134.365 81.7319 134.365C81.9819 134.365 82.1869 134.45 82.3469 134.62C82.5069 134.78 82.5869 134.98 82.5869 135.22C82.5869 135.46 82.5069 135.665 82.3469 135.835C82.1869 135.995 81.9819 136.075 81.7319 136.075ZM87.5364 136.18C86.7764 136.18 86.1364 136.04 85.6164 135.76C85.0964 135.47 84.6814 135.09 84.3714 134.62C84.0614 134.14 83.8314 133.6 83.6814 133C83.5414 132.4 83.4714 131.79 83.4714 131.17C83.4714 130.01 83.6314 128.995 83.9514 128.125C84.2714 127.245 84.7314 126.56 85.3314 126.07C85.9414 125.57 86.6714 125.32 87.5214 125.32C88.1814 125.32 88.7464 125.45 89.2164 125.71C89.6964 125.96 90.0764 126.3 90.3564 126.73C90.6364 127.16 90.8064 127.64 90.8664 128.17H89.6964C89.5964 127.61 89.3514 127.18 88.9614 126.88C88.5814 126.57 88.0964 126.415 87.5064 126.415C86.9864 126.415 86.5164 126.58 86.0964 126.91C85.6764 127.23 85.3414 127.725 85.0914 128.395C84.8514 129.055 84.7114 129.9 84.6714 130.93C84.6714 130.94 84.6714 130.955 84.6714 130.975C84.6714 130.995 84.6714 131.015 84.6714 131.035C84.8314 130.725 85.0514 130.435 85.3314 130.165C85.6214 129.895 85.9664 129.68 86.3664 129.52C86.7664 129.36 87.2114 129.28 87.7014 129.28C88.2914 129.28 88.8464 129.42 89.3664 129.7C89.8864 129.98 90.3064 130.375 90.6264 130.885C90.9564 131.385 91.1214 131.975 91.1214 132.655C91.1214 133.245 90.9764 133.81 90.6864 134.35C90.4064 134.89 89.9964 135.33 89.4564 135.67C88.9164 136.01 88.2764 136.18 87.5364 136.18ZM87.4464 135.07C87.9064 135.07 88.3164 134.97 88.6764 134.77C89.0464 134.56 89.3314 134.28 89.5314 133.93C89.7414 133.57 89.8464 133.165 89.8464 132.715C89.8464 132.245 89.7414 131.835 89.5314 131.485C89.3314 131.135 89.0464 130.865 88.6764 130.675C88.3164 130.475 87.9064 130.375 87.4464 130.375C86.9864 130.375 86.5714 130.48 86.2014 130.69C85.8314 130.9 85.5364 131.185 85.3164 131.545C85.1064 131.895 85.0014 132.29 85.0014 132.73C85.0014 133.18 85.1064 133.585 85.3164 133.945C85.5364 134.295 85.8314 134.57 86.2014 134.77C86.5714 134.97 86.9864 135.07 87.4464 135.07ZM93.8863 136L99.9913 125.5H101.251L95.1463 136H93.8863ZM100.501 136.18C100.051 136.18 99.6463 136.08 99.2863 135.88C98.9263 135.67 98.6363 135.375 98.4163 134.995C98.2063 134.615 98.1013 134.17 98.1013 133.66C98.1013 133.14 98.2063 132.695 98.4163 132.325C98.6363 131.945 98.9263 131.655 99.2863 131.455C99.6463 131.245 100.051 131.14 100.501 131.14C100.961 131.14 101.366 131.245 101.716 131.455C102.076 131.655 102.361 131.945 102.571 132.325C102.781 132.695 102.886 133.14 102.886 133.66C102.886 134.17 102.781 134.615 102.571 134.995C102.361 135.375 102.076 135.67 101.716 135.88C101.356 136.08 100.951 136.18 100.501 136.18ZM100.486 135.205C100.726 135.205 100.946 135.15 101.146 135.04C101.346 134.92 101.506 134.745 101.626 134.515C101.756 134.285 101.821 134 101.821 133.66C101.821 133.31 101.761 133.02 101.641 132.79C101.521 132.56 101.361 132.39 101.161 132.28C100.961 132.16 100.741 132.1 100.501 132.1C100.271 132.1 100.051 132.16 99.8413 132.28C99.6413 132.39 99.4763 132.56 99.3463 132.79C99.2263 133.02 99.1663 133.31 99.1663 133.66C99.1663 134 99.2263 134.285 99.3463 134.515C99.4763 134.745 99.6413 134.92 99.8413 135.04C100.041 135.15 100.256 135.205 100.486 135.205ZM94.7263 130.375C94.2763 130.375 93.8713 130.275 93.5113 130.075C93.1513 129.865 92.8613 129.57 92.6413 129.19C92.4313 128.81 92.3263 128.365 92.3263 127.855C92.3263 127.335 92.4313 126.89 92.6413 126.52C92.8613 126.14 93.1513 125.85 93.5113 125.65C93.8813 125.44 94.2913 125.335 94.7413 125.335C95.1913 125.335 95.5963 125.44 95.9563 125.65C96.3163 125.85 96.6013 126.14 96.8113 126.52C97.0213 126.89 97.1263 127.335 97.1263 127.855C97.1263 128.365 97.0213 128.81 96.8113 129.19C96.6013 129.57 96.3113 129.865 95.9413 130.075C95.5813 130.275 95.1763 130.375 94.7263 130.375ZM94.7263 129.4C94.9663 129.4 95.1863 129.345 95.3863 129.235C95.5863 129.115 95.7463 128.94 95.8663 128.71C95.9863 128.48 96.0463 128.195 96.0463 127.855C96.0463 127.505 95.9863 127.215 95.8663 126.985C95.7463 126.745 95.5863 126.57 95.3863 126.46C95.1863 126.34 94.9713 126.28 94.7413 126.28C94.5113 126.28 94.2913 126.34 94.0813 126.46C93.8713 126.57 93.7013 126.745 93.5713 126.985C93.4513 127.215 93.3913 127.505 93.3913 127.855C93.3913 128.195 93.4513 128.48 93.5713 128.71C93.7013 128.94 93.8663 129.115 94.0663 129.235C94.2763 129.345 94.4963 129.4 94.7263 129.4Z" fill="#9864FF"/>
<path d="M110.863 136V126.535H107.728V125.5H115.258V126.535H112.123V136H110.863ZM116.631 136V125.2H117.891V129.715C118.141 129.265 118.491 128.91 118.941 128.65C119.401 128.39 119.901 128.26 120.441 128.26C121.021 128.26 121.526 128.38 121.956 128.62C122.386 128.85 122.716 129.205 122.946 129.685C123.176 130.165 123.291 130.77 123.291 131.5V136H122.046V131.635C122.046 130.875 121.886 130.305 121.566 129.925C121.246 129.535 120.781 129.34 120.171 129.34C119.741 129.34 119.351 129.445 119.001 129.655C118.661 129.865 118.391 130.165 118.191 130.555C117.991 130.945 117.891 131.425 117.891 131.995V136H116.631ZM125.274 136V128.44H126.534V136H125.274ZM125.904 126.835C125.654 126.835 125.444 126.755 125.274 126.595C125.114 126.425 125.034 126.215 125.034 125.965C125.034 125.715 125.114 125.515 125.274 125.365C125.444 125.205 125.654 125.125 125.904 125.125C126.144 125.125 126.349 125.205 126.519 125.365C126.689 125.515 126.774 125.715 126.774 125.965C126.774 126.215 126.689 126.425 126.519 126.595C126.349 126.755 126.144 126.835 125.904 126.835ZM131.502 136.18C130.872 136.18 130.322 136.075 129.852 135.865C129.392 135.655 129.022 135.365 128.742 134.995C128.472 134.615 128.307 134.17 128.247 133.66H129.537C129.587 133.92 129.692 134.16 129.852 134.38C130.012 134.6 130.227 134.78 130.497 134.92C130.777 135.05 131.117 135.115 131.517 135.115C131.867 135.115 132.157 135.065 132.387 134.965C132.617 134.855 132.787 134.71 132.897 134.53C133.017 134.35 133.077 134.155 133.077 133.945C133.077 133.635 133.002 133.4 132.852 133.24C132.712 133.08 132.502 132.955 132.222 132.865C131.942 132.765 131.602 132.68 131.202 132.61C130.872 132.55 130.547 132.47 130.227 132.37C129.907 132.27 129.622 132.14 129.372 131.98C129.122 131.81 128.922 131.605 128.772 131.365C128.632 131.125 128.562 130.83 128.562 130.48C128.562 130.05 128.672 129.67 128.892 129.34C129.112 129 129.427 128.735 129.837 128.545C130.257 128.355 130.742 128.26 131.292 128.26C132.102 128.26 132.757 128.455 133.257 128.845C133.757 129.235 134.052 129.8 134.142 130.54H132.897C132.847 130.16 132.682 129.865 132.402 129.655C132.132 129.435 131.757 129.325 131.277 129.325C130.807 129.325 130.447 129.42 130.197 129.61C129.957 129.8 129.837 130.05 129.837 130.36C129.837 130.56 129.902 130.74 130.032 130.9C130.172 131.05 130.372 131.18 130.632 131.29C130.902 131.4 131.232 131.49 131.622 131.56C132.122 131.65 132.577 131.77 132.987 131.92C133.397 132.07 133.727 132.295 133.977 132.595C134.237 132.885 134.367 133.3 134.367 133.84C134.367 134.31 134.247 134.72 134.007 135.07C133.777 135.42 133.447 135.695 133.017 135.895C132.587 136.085 132.082 136.18 131.502 136.18ZM140.781 139.3L142.626 135.16H142.191L139.221 128.44H140.586L143.046 134.215L145.626 128.44H146.931L142.101 139.3H140.781ZM150.798 136.18C150.088 136.18 149.458 136.015 148.908 135.685C148.368 135.355 147.943 134.895 147.633 134.305C147.323 133.705 147.168 133.01 147.168 132.22C147.168 131.42 147.318 130.725 147.618 130.135C147.928 129.545 148.358 129.085 148.908 128.755C149.468 128.425 150.108 128.26 150.828 128.26C151.568 128.26 152.193 128.425 152.703 128.755C153.223 129.085 153.618 129.52 153.888 130.06C154.168 130.59 154.308 131.175 154.308 131.815C154.308 131.915 154.308 132.02 154.308 132.13C154.308 132.24 154.303 132.365 154.293 132.505H148.113V131.53H153.078C153.048 130.84 152.818 130.3 152.388 129.91C151.968 129.52 151.438 129.325 150.798 129.325C150.368 129.325 149.968 129.425 149.598 129.625C149.238 129.815 148.948 130.1 148.728 130.48C148.508 130.85 148.398 131.315 148.398 131.875V132.295C148.398 132.915 148.508 133.435 148.728 133.855C148.958 134.275 149.253 134.59 149.613 134.8C149.983 135.01 150.378 135.115 150.798 135.115C151.328 135.115 151.763 135 152.103 134.77C152.453 134.53 152.703 134.21 152.853 133.81H154.098C153.978 134.26 153.768 134.665 153.468 135.025C153.168 135.385 152.793 135.67 152.343 135.88C151.903 136.08 151.388 136.18 150.798 136.18ZM158.363 136.18C157.753 136.18 157.243 136.075 156.833 135.865C156.423 135.645 156.118 135.36 155.918 135.01C155.718 134.65 155.618 134.26 155.618 133.84C155.618 133.33 155.748 132.9 156.008 132.55C156.278 132.19 156.653 131.92 157.133 131.74C157.623 131.55 158.198 131.455 158.858 131.455H160.853C160.853 130.985 160.778 130.595 160.628 130.285C160.488 129.965 160.278 129.725 159.998 129.565C159.728 129.405 159.388 129.325 158.978 129.325C158.498 129.325 158.083 129.445 157.733 129.685C157.383 129.925 157.168 130.28 157.088 130.75H155.798C155.858 130.21 156.038 129.76 156.338 129.4C156.648 129.03 157.038 128.75 157.508 128.56C157.978 128.36 158.468 128.26 158.978 128.26C159.678 128.26 160.258 128.39 160.718 128.65C161.188 128.9 161.538 129.255 161.768 129.715C161.998 130.165 162.113 130.7 162.113 131.32V136H160.988L160.913 134.665C160.813 134.875 160.683 135.075 160.523 135.265C160.373 135.445 160.193 135.605 159.983 135.745C159.773 135.875 159.533 135.98 159.263 136.06C159.003 136.14 158.703 136.18 158.363 136.18ZM158.558 135.115C158.908 135.115 159.223 135.045 159.503 134.905C159.793 134.755 160.038 134.555 160.238 134.305C160.438 134.045 160.588 133.76 160.688 133.45C160.798 133.14 160.853 132.815 160.853 132.475V132.43H158.963C158.473 132.43 158.078 132.49 157.778 132.61C157.478 132.72 157.263 132.88 157.133 133.09C157.003 133.29 156.938 133.52 156.938 133.78C156.938 134.05 156.998 134.285 157.118 134.485C157.248 134.685 157.433 134.84 157.673 134.95C157.923 135.06 158.218 135.115 158.558 135.115ZM163.957 136V128.44H165.097L165.187 129.88C165.357 129.54 165.572 129.25 165.832 129.01C166.102 128.77 166.422 128.585 166.792 128.455C167.172 128.325 167.602 128.26 168.082 128.26V129.58H167.617C167.297 129.58 166.992 129.625 166.702 129.715C166.412 129.795 166.152 129.93 165.922 130.12C165.702 130.31 165.527 130.57 165.397 130.9C165.277 131.22 165.217 131.62 165.217 132.1V136H163.957ZM176.269 139.48C175.589 139.48 174.984 139.39 174.454 139.21C173.934 139.04 173.529 138.775 173.239 138.415C172.949 138.055 172.804 137.61 172.804 137.08C172.804 136.85 172.849 136.605 172.939 136.345C173.039 136.085 173.204 135.83 173.434 135.58C173.674 135.33 174.009 135.105 174.439 134.905L175.309 135.415C174.779 135.635 174.434 135.885 174.274 136.165C174.114 136.455 174.034 136.72 174.034 136.96C174.034 137.29 174.129 137.565 174.319 137.785C174.509 138.005 174.774 138.17 175.114 138.28C175.454 138.39 175.839 138.445 176.269 138.445C176.699 138.445 177.069 138.385 177.379 138.265C177.689 138.145 177.929 137.975 178.099 137.755C178.269 137.535 178.354 137.275 178.354 136.975C178.354 136.625 178.224 136.33 177.964 136.09C177.704 135.86 177.209 135.725 176.479 135.685C175.889 135.645 175.394 135.59 174.994 135.52C174.594 135.45 174.264 135.37 174.004 135.28C173.744 135.18 173.524 135.07 173.344 134.95C173.174 134.83 173.019 134.705 172.879 134.575V134.23L174.334 132.79L175.429 133.18L173.929 134.53L174.124 134.005C174.234 134.085 174.339 134.16 174.439 134.23C174.539 134.3 174.674 134.36 174.844 134.41C175.014 134.46 175.249 134.505 175.549 134.545C175.859 134.585 176.264 134.625 176.764 134.665C177.454 134.715 178.004 134.835 178.414 135.025C178.834 135.215 179.134 135.47 179.314 135.79C179.504 136.11 179.599 136.49 179.599 136.93C179.599 137.36 179.479 137.765 179.239 138.145C179.009 138.535 178.649 138.855 178.159 139.105C177.669 139.355 177.039 139.48 176.269 139.48ZM176.254 133.63C175.624 133.63 175.084 133.51 174.634 133.27C174.194 133.03 173.859 132.71 173.629 132.31C173.399 131.9 173.284 131.445 173.284 130.945C173.284 130.445 173.399 129.995 173.629 129.595C173.869 129.195 174.209 128.875 174.649 128.635C175.089 128.385 175.624 128.26 176.254 128.26C176.884 128.26 177.419 128.385 177.859 128.635C178.299 128.875 178.634 129.195 178.864 129.595C179.094 129.995 179.209 130.445 179.209 130.945C179.209 131.445 179.094 131.9 178.864 132.31C178.634 132.71 178.299 133.03 177.859 133.27C177.419 133.51 176.884 133.63 176.254 133.63ZM176.254 132.595C176.794 132.595 177.219 132.455 177.529 132.175C177.839 131.895 177.994 131.485 177.994 130.945C177.994 130.415 177.839 130.01 177.529 129.73C177.219 129.45 176.794 129.31 176.254 129.31C175.724 129.31 175.294 129.45 174.964 129.73C174.644 130.01 174.484 130.415 174.484 130.945C174.484 131.485 174.644 131.895 174.964 132.175C175.284 132.455 175.714 132.595 176.254 132.595ZM177.484 129.505L177.109 128.44H180.199V129.385L177.484 129.505ZM181.543 136V128.44H182.683L182.773 129.88C182.943 129.54 183.158 129.25 183.418 129.01C183.688 128.77 184.008 128.585 184.378 128.455C184.758 128.325 185.188 128.26 185.668 128.26V129.58H185.203C184.883 129.58 184.578 129.625 184.288 129.715C183.998 129.795 183.738 129.93 183.508 130.12C183.288 130.31 183.113 130.57 182.983 130.9C182.863 131.22 182.803 131.62 182.803 132.1V136H181.543ZM190.086 136.18C189.386 136.18 188.756 136.02 188.196 135.7C187.636 135.37 187.196 134.91 186.876 134.32C186.556 133.72 186.396 133.025 186.396 132.235C186.396 131.425 186.556 130.725 186.876 130.135C187.206 129.535 187.651 129.075 188.211 128.755C188.781 128.425 189.416 128.26 190.116 128.26C190.836 128.26 191.471 128.425 192.021 128.755C192.581 129.075 193.021 129.535 193.341 130.135C193.671 130.725 193.836 131.42 193.836 132.22C193.836 133.02 193.671 133.72 193.341 134.32C193.011 134.91 192.566 135.37 192.006 135.7C191.446 136.02 190.806 136.18 190.086 136.18ZM190.101 135.1C190.531 135.1 190.931 134.995 191.301 134.785C191.671 134.565 191.971 134.24 192.201 133.81C192.431 133.38 192.546 132.85 192.546 132.22C192.546 131.58 192.431 131.05 192.201 130.63C191.981 130.2 191.686 129.88 191.316 129.67C190.956 129.45 190.556 129.34 190.116 129.34C189.696 129.34 189.296 129.45 188.916 129.67C188.546 129.88 188.246 130.2 188.016 130.63C187.796 131.05 187.686 131.58 187.686 132.22C187.686 132.85 187.796 133.38 188.016 133.81C188.246 134.24 188.541 134.565 188.901 134.785C189.271 134.995 189.671 135.1 190.101 135.1ZM196.75 136L194.53 128.44H195.79L197.515 134.815H197.29L199.165 128.44H200.59L202.495 134.8L202.255 134.815L203.965 128.44H205.24L203.035 136H201.745L199.765 129.34H200.02L198.04 136H196.75ZM209.525 136C209.075 136 208.685 135.93 208.355 135.79C208.025 135.65 207.77 135.415 207.59 135.085C207.42 134.745 207.335 134.29 207.335 133.72V129.505H206.015V128.44H207.335L207.5 126.61H208.595V128.44H210.785V129.505H208.595V133.72C208.595 134.19 208.69 134.51 208.88 134.68C209.07 134.84 209.405 134.92 209.885 134.92H210.695V136H209.525ZM212.324 136V125.2H213.584V129.715C213.834 129.265 214.184 128.91 214.634 128.65C215.094 128.39 215.594 128.26 216.134 128.26C216.714 128.26 217.219 128.38 217.649 128.62C218.079 128.85 218.409 129.205 218.639 129.685C218.869 130.165 218.984 130.77 218.984 131.5V136H217.739V131.635C217.739 130.875 217.579 130.305 217.259 129.925C216.939 129.535 216.474 129.34 215.864 129.34C215.434 129.34 215.044 129.445 214.694 129.655C214.354 129.865 214.084 130.165 213.884 130.555C213.684 130.945 213.584 131.425 213.584 131.995V136H212.324Z" fill="#AEB9E1"/>
<path d="M56.0508 49L64.9375 31.418V31.2676H54.6562V28.6289H68.1367V31.377L59.2637 49H56.0508ZM76.5859 49.2734C75.3372 49.2734 74.2161 49.0365 73.2227 48.5625C72.2383 48.0794 71.4499 47.4186 70.8574 46.5801C70.265 45.7324 69.9505 44.7708 69.9141 43.6953H72.8945C72.9674 44.5612 73.3548 45.2767 74.0566 45.8418C74.7585 46.4069 75.6016 46.6895 76.5859 46.6895C77.3698 46.6895 78.0625 46.5072 78.6641 46.1426C79.2656 45.778 79.7396 45.2812 80.0859 44.6523C80.4323 44.0143 80.6055 43.2852 80.6055 42.4648C80.6055 41.6445 80.4277 40.9108 80.0723 40.2637C79.7168 39.6074 79.2246 39.0924 78.5957 38.7188C77.9759 38.3451 77.2604 38.1582 76.4492 38.1582C75.8294 38.1582 75.2096 38.2676 74.5898 38.4863C73.9701 38.696 73.4688 38.9694 73.0859 39.3066L70.2559 38.8965L71.4043 28.6289H82.6016V31.2676H73.9746L73.332 36.9688H73.4414C73.8333 36.5768 74.3574 36.2578 75.0137 36.0117C75.679 35.7565 76.3945 35.6289 77.1602 35.6289C78.3997 35.6289 79.5026 35.9251 80.4688 36.5176C81.444 37.1009 82.2096 37.903 82.7656 38.9238C83.3216 39.9355 83.5996 41.0977 83.5996 42.4102C83.5996 43.7318 83.2988 44.9121 82.6973 45.9512C82.0957 46.9811 81.2663 47.7923 80.209 48.3848C79.1608 48.9772 77.9531 49.2734 76.5859 49.2734ZM87.5234 49.1914C86.9674 49.1914 86.4935 49 86.1016 48.6172C85.7188 48.2344 85.5273 47.765 85.5273 47.209C85.5273 46.653 85.7188 46.1836 86.1016 45.8008C86.4935 45.418 86.9674 45.2266 87.5234 45.2266C88.0794 45.2266 88.5488 45.418 88.9316 45.8008C89.3236 46.1836 89.5195 46.653 89.5195 47.209C89.5195 47.765 89.3236 48.2344 88.9316 48.6172C88.5488 49 88.0794 49.1914 87.5234 49.1914ZM98.9805 28.3418C99.8919 28.3509 100.785 28.5195 101.66 28.8477C102.544 29.1667 103.342 29.6953 104.053 30.4336C104.773 31.1719 105.347 32.1699 105.775 33.4277C106.204 34.6764 106.418 36.235 106.418 38.1035C106.418 39.8809 106.24 41.4622 105.885 42.8477C105.529 44.2331 105.014 45.4043 104.34 46.3613C103.674 47.3184 102.868 48.0475 101.92 48.5488C100.972 49.041 99.9102 49.2871 98.7344 49.2871C97.5221 49.2871 96.4421 49.0456 95.4941 48.5625C94.5462 48.0794 93.7806 47.4186 93.1973 46.5801C92.6139 45.7324 92.2448 44.7617 92.0898 43.668H95.125C95.3255 44.5339 95.7311 45.2402 96.3418 45.7871C96.9616 46.3249 97.7591 46.5938 98.7344 46.5938C100.22 46.5938 101.378 45.9421 102.207 44.6387C103.046 43.3353 103.469 41.5169 103.479 39.1836H103.328C102.973 39.7578 102.54 40.2546 102.029 40.6738C101.519 41.084 100.945 41.3984 100.307 41.6172C99.6686 41.8359 98.9941 41.9453 98.2832 41.9453C97.0983 41.9453 96.0228 41.6582 95.0566 41.084C94.0905 40.5098 93.3249 39.7214 92.7598 38.7188C92.1947 37.707 91.9076 36.554 91.8984 35.2598C91.9076 33.9655 92.2038 32.7943 92.7871 31.7461C93.3796 30.6979 94.2044 29.8685 95.2617 29.2578C96.319 28.638 97.5586 28.3327 98.9805 28.3418ZM98.9941 30.9395C98.2194 30.9395 97.5221 31.1309 96.9023 31.5137C96.2826 31.8965 95.7949 32.4115 95.4395 33.0586C95.084 33.7057 94.9062 34.4258 94.9062 35.2188C94.9062 36.0117 95.0749 36.7272 95.4121 37.3652C95.7585 38.0033 96.237 38.5137 96.8477 38.8965C97.4583 39.2702 98.151 39.457 98.9258 39.457C99.7096 39.457 100.411 39.2611 101.031 38.8691C101.66 38.4681 102.161 37.944 102.535 37.2969C102.909 36.6406 103.096 35.9342 103.096 35.1777C103.096 34.4303 102.918 33.7331 102.562 33.0859C102.207 32.4388 101.719 31.9193 101.1 31.5273C100.489 31.1354 99.7871 30.9395 98.9941 30.9395ZM109.043 49V28.6289H112.119V38.3633H112.365L120.924 28.6289H124.766L116.562 37.7891L124.807 49H121.102L114.512 39.9082L112.119 42.6836V49H109.043Z" fill="white"/>
<path d="M54 178C54 167.507 62.5066 159 73 159H168C178.493 159 187 167.507 187 178C187 188.493 178.493 197 168 197H73C62.5066 197 54 188.493 54 178Z" fill="url(#paint0_linear_234_4627)"/>
<path d="M85.3945 182.117C84.6055 182.117 83.9121 181.936 83.3145 181.572C82.7207 181.209 82.2559 180.693 81.9199 180.025C81.5879 179.354 81.4219 178.559 81.4219 177.641C81.4219 176.711 81.5898 175.912 81.9258 175.244C82.2656 174.572 82.7305 174.057 83.3203 173.697C83.9102 173.334 84.582 173.152 85.3359 173.152C85.8047 173.152 86.2422 173.223 86.6484 173.363C87.0586 173.5 87.4219 173.697 87.7383 173.955C88.0586 174.213 88.3223 174.518 88.5293 174.869C88.7402 175.217 88.8828 175.604 88.957 176.029H87.6094C87.5273 175.768 87.418 175.535 87.2812 175.332C87.1445 175.125 86.9805 174.949 86.7891 174.805C86.5977 174.656 86.3809 174.545 86.1387 174.471C85.9004 174.393 85.6348 174.354 85.3418 174.354C84.8496 174.354 84.4062 174.48 84.0117 174.734C83.6172 174.984 83.3047 175.354 83.0742 175.842C82.8438 176.33 82.7285 176.928 82.7285 177.635C82.7285 178.342 82.8438 178.939 83.0742 179.428C83.3047 179.916 83.6211 180.287 84.0234 180.541C84.4258 180.791 84.8828 180.916 85.3945 180.916C85.8672 180.916 86.2793 180.82 86.6309 180.629C86.9824 180.434 87.2559 180.16 87.4512 179.809C87.6465 179.457 87.7441 179.041 87.7441 178.561L88.0898 178.625H85.5938V177.535H89.0273V178.531C89.0273 179.266 88.8711 179.9 88.5586 180.436C88.25 180.971 87.8203 181.385 87.2695 181.678C86.7227 181.971 86.0977 182.117 85.3945 182.117ZM92.9121 182.135C92.2715 182.135 91.7168 181.996 91.248 181.719C90.7793 181.441 90.418 181.051 90.1641 180.547C89.9141 180.039 89.7891 179.447 89.7891 178.771C89.7891 178.1 89.9121 177.508 90.1582 176.996C90.4082 176.484 90.7578 176.086 91.207 175.801C91.6602 175.512 92.1914 175.367 92.8008 175.367C93.1719 175.367 93.5312 175.428 93.8789 175.549C94.2266 175.67 94.5391 175.861 94.8164 176.123C95.0938 176.385 95.3125 176.725 95.4727 177.143C95.6367 177.561 95.7188 178.064 95.7188 178.654V179.111H90.5098V178.156H95.0625L94.4707 178.473C94.4707 178.07 94.4082 177.715 94.2832 177.406C94.1582 177.098 93.9707 176.857 93.7207 176.686C93.4746 176.51 93.168 176.422 92.8008 176.422C92.4336 176.422 92.1191 176.51 91.8574 176.686C91.5996 176.861 91.4023 177.094 91.2656 177.383C91.1289 177.672 91.0605 177.988 91.0605 178.332V178.982C91.0605 179.432 91.1387 179.812 91.2949 180.125C91.4512 180.438 91.668 180.676 91.9453 180.84C92.2266 181.004 92.5527 181.086 92.9238 181.086C93.166 181.086 93.3848 181.051 93.5801 180.98C93.7793 180.91 93.9512 180.805 94.0957 180.664C94.2402 180.523 94.3496 180.35 94.4238 180.143L95.6309 180.371C95.5332 180.723 95.3613 181.031 95.1152 181.297C94.8691 181.562 94.5586 181.77 94.1836 181.918C93.8125 182.062 93.3887 182.135 92.9121 182.135ZM99.6562 175.449V176.475H96.082V175.449H99.6562ZM97.0371 173.891H98.3086V180.078C98.3086 180.379 98.3711 180.6 98.4961 180.74C98.6211 180.877 98.8223 180.945 99.0996 180.945C99.166 180.945 99.2363 180.941 99.3105 180.934C99.3887 180.926 99.4668 180.914 99.5449 180.898L99.7852 181.953C99.6562 181.996 99.5156 182.029 99.3633 182.053C99.2109 182.076 99.0586 182.088 98.9062 182.088C98.3398 182.088 97.8867 181.93 97.5469 181.613C97.207 181.293 97.0371 180.867 97.0371 180.336V173.891ZM108.141 177.055L106.986 177.254C106.912 177.035 106.773 176.834 106.57 176.65C106.371 176.467 106.072 176.375 105.674 176.375C105.314 176.375 105.014 176.457 104.771 176.621C104.533 176.781 104.414 176.986 104.414 177.236C104.414 177.455 104.494 177.633 104.654 177.77C104.818 177.906 105.078 178.016 105.434 178.098L106.482 178.332C107.08 178.469 107.527 178.684 107.824 178.977C108.121 179.27 108.27 179.645 108.27 180.102C108.27 180.496 108.156 180.848 107.93 181.156C107.703 181.461 107.389 181.701 106.986 181.877C106.584 182.049 106.119 182.135 105.592 182.135C104.857 182.135 104.26 181.977 103.799 181.66C103.338 181.344 103.055 180.898 102.949 180.324L104.174 180.137C104.252 180.457 104.41 180.699 104.648 180.863C104.891 181.027 105.203 181.109 105.586 181.109C106 181.109 106.332 181.021 106.582 180.846C106.836 180.67 106.963 180.457 106.963 180.207C106.963 179.793 106.654 179.514 106.037 179.369L104.93 179.123C104.316 178.982 103.863 178.762 103.57 178.461C103.281 178.156 103.137 177.773 103.137 177.312C103.137 176.926 103.244 176.586 103.459 176.293C103.678 176 103.977 175.773 104.355 175.613C104.738 175.449 105.174 175.367 105.662 175.367C106.373 175.367 106.93 175.521 107.332 175.83C107.738 176.139 108.008 176.547 108.141 177.055ZM112.207 175.449V176.475H108.633V175.449H112.207ZM109.588 173.891H110.859V180.078C110.859 180.379 110.922 180.6 111.047 180.74C111.172 180.877 111.373 180.945 111.65 180.945C111.717 180.945 111.787 180.941 111.861 180.934C111.939 180.926 112.018 180.914 112.096 180.898L112.336 181.953C112.207 181.996 112.066 182.029 111.914 182.053C111.762 182.076 111.609 182.088 111.457 182.088C110.891 182.088 110.438 181.93 110.098 181.613C109.758 181.293 109.588 180.867 109.588 180.336V173.891ZM115.02 182.141C114.605 182.141 114.23 182.064 113.895 181.912C113.559 181.756 113.293 181.529 113.098 181.232C112.902 180.936 112.805 180.574 112.805 180.148C112.805 179.777 112.875 179.475 113.016 179.24C113.16 179.002 113.354 178.812 113.596 178.672C113.838 178.531 114.107 178.426 114.404 178.355C114.701 178.285 115.006 178.23 115.318 178.191C115.713 178.148 116.031 178.111 116.273 178.08C116.516 178.049 116.691 178 116.801 177.934C116.914 177.863 116.971 177.752 116.971 177.6V177.57C116.971 177.199 116.865 176.912 116.654 176.709C116.447 176.506 116.139 176.404 115.729 176.404C115.303 176.404 114.965 176.498 114.715 176.686C114.469 176.869 114.299 177.078 114.205 177.312L113.004 177.037C113.148 176.639 113.357 176.318 113.631 176.076C113.908 175.83 114.225 175.65 114.58 175.537C114.939 175.424 115.314 175.367 115.705 175.367C115.967 175.367 116.244 175.398 116.537 175.461C116.83 175.52 117.105 175.631 117.363 175.795C117.625 175.955 117.838 176.186 118.002 176.486C118.166 176.787 118.248 177.176 118.248 177.652V182H117V181.104H116.953C116.875 181.264 116.752 181.424 116.584 181.584C116.42 181.744 116.209 181.877 115.951 181.982C115.693 182.088 115.383 182.141 115.02 182.141ZM115.295 181.121C115.65 181.121 115.953 181.053 116.203 180.916C116.453 180.775 116.645 180.592 116.777 180.365C116.91 180.139 116.977 179.898 116.977 179.645V178.795C116.93 178.838 116.842 178.879 116.713 178.918C116.584 178.957 116.438 178.99 116.273 179.018C116.109 179.045 115.949 179.07 115.793 179.094C115.637 179.113 115.506 179.129 115.4 179.141C115.154 179.176 114.93 179.23 114.727 179.305C114.523 179.375 114.359 179.48 114.234 179.621C114.113 179.758 114.053 179.939 114.053 180.166C114.053 180.482 114.17 180.721 114.404 180.881C114.639 181.041 114.936 181.121 115.295 181.121ZM119.473 182V175.449H120.697V176.498H120.768C120.889 176.146 121.1 175.869 121.4 175.666C121.705 175.459 122.049 175.355 122.432 175.355C122.51 175.355 122.602 175.359 122.707 175.367C122.816 175.371 122.904 175.377 122.971 175.385V176.604C122.92 176.588 122.828 176.572 122.695 176.557C122.566 176.541 122.436 176.533 122.303 176.533C122.002 176.533 121.732 176.598 121.494 176.727C121.26 176.852 121.074 177.025 120.938 177.248C120.805 177.467 120.738 177.721 120.738 178.01V182H119.473ZM127.008 175.449V176.475H123.434V175.449H127.008ZM124.389 173.891H125.66V180.078C125.66 180.379 125.723 180.6 125.848 180.74C125.973 180.877 126.174 180.945 126.451 180.945C126.518 180.945 126.588 180.941 126.662 180.934C126.74 180.926 126.818 180.914 126.896 180.898L127.137 181.953C127.008 181.996 126.867 182.029 126.715 182.053C126.562 182.076 126.41 182.088 126.258 182.088C125.691 182.088 125.238 181.93 124.898 181.613C124.559 181.293 124.389 180.867 124.389 180.336V173.891ZM130.67 182.135C130.029 182.135 129.475 181.996 129.006 181.719C128.537 181.441 128.176 181.051 127.922 180.547C127.672 180.039 127.547 179.447 127.547 178.771C127.547 178.1 127.67 177.508 127.916 176.996C128.166 176.484 128.516 176.086 128.965 175.801C129.418 175.512 129.949 175.367 130.559 175.367C130.93 175.367 131.289 175.428 131.637 175.549C131.984 175.67 132.297 175.861 132.574 176.123C132.852 176.385 133.07 176.725 133.23 177.143C133.395 177.561 133.477 178.064 133.477 178.654V179.111H128.268V178.156H132.82L132.229 178.473C132.229 178.07 132.166 177.715 132.041 177.406C131.916 177.098 131.729 176.857 131.479 176.686C131.232 176.51 130.926 176.422 130.559 176.422C130.191 176.422 129.877 176.51 129.615 176.686C129.357 176.861 129.16 177.094 129.023 177.383C128.887 177.672 128.818 177.988 128.818 178.332V178.982C128.818 179.432 128.896 179.812 129.053 180.125C129.209 180.438 129.426 180.676 129.703 180.84C129.984 181.004 130.311 181.086 130.682 181.086C130.924 181.086 131.143 181.051 131.338 180.98C131.537 180.91 131.709 180.805 131.854 180.664C131.998 180.523 132.107 180.35 132.182 180.143L133.389 180.371C133.291 180.723 133.119 181.031 132.873 181.297C132.627 181.562 132.316 181.77 131.941 181.918C131.57 182.062 131.146 182.135 130.67 182.135ZM136.805 182.129C136.273 182.129 135.801 181.994 135.387 181.725C134.973 181.451 134.648 181.062 134.414 180.559C134.18 180.051 134.062 179.445 134.062 178.742C134.062 178.031 134.182 177.424 134.42 176.92C134.658 176.416 134.984 176.031 135.398 175.766C135.812 175.5 136.281 175.367 136.805 175.367C137.215 175.367 137.543 175.436 137.789 175.572C138.039 175.705 138.232 175.861 138.369 176.041C138.51 176.221 138.617 176.379 138.691 176.516H138.768V173.27H140.033V182H138.797V180.98H138.691C138.617 181.117 138.508 181.275 138.363 181.455C138.219 181.635 138.021 181.793 137.771 181.93C137.525 182.062 137.203 182.129 136.805 182.129ZM137.08 181.045C137.447 181.045 137.758 180.947 138.012 180.752C138.266 180.557 138.457 180.285 138.586 179.938C138.719 179.59 138.785 179.188 138.785 178.73C138.785 178.273 138.721 177.875 138.592 177.535C138.463 177.191 138.271 176.926 138.018 176.738C137.764 176.547 137.451 176.451 137.08 176.451C136.697 176.451 136.379 176.551 136.125 176.75C135.871 176.949 135.68 177.221 135.551 177.564C135.422 177.908 135.357 178.297 135.357 178.73C135.357 179.168 135.422 179.562 135.551 179.914C135.68 180.262 135.871 180.537 136.125 180.74C136.383 180.943 136.701 181.045 137.08 181.045Z" fill="white"/>
<path d="M165.354 179.354C165.549 179.158 165.549 178.842 165.354 178.646L162.172 175.464C161.976 175.269 161.66 175.269 161.464 175.464C161.269 175.66 161.269 175.976 161.464 176.172L164.293 179L161.464 181.828C161.269 182.024 161.269 182.34 161.464 182.536C161.66 182.731 161.976 182.731 162.172 182.536L165.354 179.354ZM151 179V179.5H165V179V178.5H151V179Z" fill="white"/>
<path d="M354.968 102.306C354.968 98.8234 357.791 96 361.274 96C364.757 96 367.58 98.8233 367.58 102.306V175.878C367.58 179.36 364.757 182.184 361.274 182.184C357.791 182.184 354.968 179.36 354.968 175.878V102.306Z" fill="#2B2C51"/>
<path d="M266.019 120.5C266.019 116.91 268.929 114 272.519 114C276.108 114 279.019 116.91 279.019 120.5V175.5C279.019 179.09 276.108 182 272.519 182C268.929 182 266.019 179.09 266.019 175.5V120.5Z" fill="#2B2C51"/>
<path d="M295.019 104.5C295.019 100.91 297.929 98 301.519 98C305.108 98 308.019 100.91 308.019 104.5V175.5C308.019 179.09 305.108 182 301.519 182C297.929 182 295.019 179.09 295.019 175.5V104.5Z" fill="#2B2C51"/>
<rect x="355.019" y="151" width="13" height="31" rx="2" fill="#F46D6B"/>
<rect x="266.019" y="158" width="13" height="24" rx="2" fill="#F46D6B"/>
<rect x="295.019" y="152" width="13" height="30" rx="2" fill="#F46D6B"/>
<path d="M382 146.306C382 142.823 384.823 140 388.306 140C391.789 140 394.612 142.823 394.612 146.306V175.735C394.612 179.217 391.789 182.041 388.306 182.041C384.823 182.041 382 179.217 382 175.735V146.306Z" fill="#2B2C51"/>
<rect x="382" y="166" width="13" height="16" rx="2" fill="#F46D6B"/>
<path d="M407.029 161.246C407.029 157.763 409.853 154.939 413.335 154.939C416.818 154.939 419.642 157.763 419.642 161.246V175.96C419.642 179.443 416.818 182.266 413.335 182.266C409.853 182.266 407.029 179.443 407.029 175.96V161.246Z" fill="#2B2C51"/>
<rect x="407.019" y="163" width="13" height="19" rx="2" fill="#F46D6B"/>
<path d="M325 79C325 75.6863 327.686 73 331 73C334.314 73 337 75.6863 337 79V177.357C337 180.671 334.314 183.357 331 183.357C327.686 183.357 325 180.671 325 177.357V79Z" fill="#2B2C51"/>
<rect x="325" y="124" width="12" height="59" rx="2" fill="#F46D6B"/>
<path d="M411.422 42L408.236 36.4821H414.608L411.422 42Z" fill="#AEB9E1"/>
<defs>
<linearGradient id="paint0_linear_234_4627" x1="99.7934" y1="164.234" x2="143.961" y2="222.076" gradientUnits="userSpaceOnUse">
<stop stop-color="#732CFF"/>
<stop offset="1" stop-color="#F46D6B"/>
</linearGradient>
</defs>
</svg>
