<svg width="1189" height="1751" viewBox="0 0 1189 1751" fill="none" xmlns="http://www.w3.org/2000/svg">
<path opacity="0.11" d="M1158.37 653.302C1157.87 653.573 1157.68 654.199 1157.96 654.699C1158.23 655.2 1158.85 655.386 1159.35 655.115C1159.85 654.844 1160.04 654.218 1159.77 653.718C1159.5 653.217 1158.87 653.031 1158.37 653.302Z" fill="white"/>
<path d="M1152.73 649.911C1152.36 650.114 1152.22 650.584 1152.42 650.959C1152.62 651.334 1153.09 651.474 1153.47 651.271C1153.84 651.067 1153.98 650.598 1153.78 650.223C1153.58 649.847 1153.11 649.708 1152.73 649.911Z" fill="white"/>
<path d="M1142.93 667.522C1142.55 667.726 1142.41 668.195 1142.61 668.57C1142.82 668.946 1143.29 669.085 1143.66 668.882C1144.04 668.679 1144.18 668.21 1143.97 667.834C1143.77 667.459 1143.3 667.319 1142.93 667.522Z" fill="white"/>
<path d="M1181.94 647.576C1181.56 647.779 1181.42 648.249 1181.62 648.624C1181.83 648.999 1182.3 649.139 1182.67 648.936C1183.05 648.732 1183.19 648.263 1182.98 647.888C1182.78 647.512 1182.31 647.373 1181.94 647.576Z" fill="white"/>
<path d="M1150.17 634.893C1149.92 635.029 1149.82 635.341 1149.96 635.591C1150.09 635.842 1150.41 635.935 1150.66 635.799C1150.91 635.664 1151 635.351 1150.87 635.101C1150.73 634.851 1150.42 634.758 1150.17 634.893Z" fill="white"/>
<path d="M1051.38 688.378C1051.13 688.514 1051.03 688.826 1051.17 689.077C1051.31 689.327 1051.62 689.42 1051.87 689.284C1052.12 689.149 1052.21 688.836 1052.08 688.586C1051.94 688.336 1051.63 688.243 1051.38 688.378Z" fill="white"/>
<path d="M1015.24 739.593C1014.99 739.728 1014.9 740.041 1015.03 740.291C1015.17 740.541 1015.48 740.634 1015.73 740.499C1015.98 740.363 1016.07 740.051 1015.94 739.8C1015.8 739.55 1015.49 739.457 1015.24 739.593Z" fill="white"/>
<path d="M979.651 716.083C979.401 716.218 979.308 716.531 979.443 716.781C979.579 717.031 979.891 717.124 980.141 716.989C980.391 716.853 980.484 716.541 980.349 716.291C980.214 716.04 979.901 715.947 979.651 716.083Z" fill="white"/>
<path opacity="0.11" d="M1142.23 618.089C1141.98 618.224 1141.89 618.537 1142.03 618.787C1142.16 619.037 1142.47 619.13 1142.72 618.995C1142.97 618.859 1143.07 618.547 1142.93 618.297C1142.8 618.046 1142.48 617.953 1142.23 618.089Z" fill="white"/>
<path opacity="0.11" d="M1057.69 669.728C1057.44 669.863 1057.35 670.176 1057.48 670.426C1057.62 670.676 1057.93 670.769 1058.18 670.634C1058.43 670.498 1058.52 670.186 1058.39 669.936C1058.25 669.685 1057.94 669.592 1057.69 669.728Z" fill="white"/>
<path d="M1132.22 706.724C1131.97 706.86 1131.88 707.172 1132.01 707.422C1132.15 707.672 1132.46 707.765 1132.71 707.63C1132.96 707.495 1133.05 707.182 1132.92 706.932C1132.78 706.682 1132.47 706.589 1132.22 706.724Z" fill="white"/>
<path opacity="0.3" d="M1187.46 661.575C1187.21 661.711 1187.12 662.024 1187.25 662.274C1187.39 662.524 1187.7 662.617 1187.95 662.481C1188.2 662.346 1188.3 662.033 1188.16 661.783C1188.02 661.533 1187.71 661.44 1187.46 661.575Z" fill="white"/>
<path opacity="0.3" d="M998.227 748.215C997.977 748.351 997.884 748.663 998.02 748.913C998.155 749.163 998.468 749.256 998.718 749.121C998.968 748.986 999.061 748.673 998.926 748.423C998.79 748.173 998.478 748.08 998.227 748.215Z" fill="white"/>
<path opacity="0.11" d="M1081.24 727.295C1080.99 727.43 1080.9 727.743 1081.03 727.993C1081.17 728.243 1081.48 728.336 1081.73 728.201C1081.98 728.065 1082.08 727.753 1081.94 727.503C1081.81 727.253 1081.49 727.16 1081.24 727.295Z" fill="white"/>
<path opacity="0.11" d="M999.911 722.109C999.661 722.244 999.568 722.557 999.703 722.807C999.839 723.057 1000.15 723.15 1000.4 723.015C1000.65 722.879 1000.74 722.567 1000.61 722.317C1000.47 722.066 1000.16 721.973 999.911 722.109Z" fill="white"/>
<path opacity="0.3" d="M1112.35 655.954C1111.85 656.225 1111.66 656.851 1111.93 657.351C1112.2 657.852 1112.83 658.038 1113.33 657.767C1113.83 657.496 1114.02 656.87 1113.75 656.37C1113.48 655.869 1112.85 655.683 1112.35 655.954Z" fill="white"/>
<path opacity="0.11" d="M1092.97 684.024C1092.47 684.295 1092.28 684.921 1092.56 685.422C1092.83 685.923 1093.45 686.109 1093.95 685.838C1094.45 685.566 1094.64 684.941 1094.37 684.44C1094.1 683.939 1093.47 683.753 1092.97 684.024Z" fill="white"/>
<path d="M1101.78 699.761C1101.41 699.964 1101.27 700.433 1101.47 700.809C1101.68 701.184 1102.14 701.324 1102.52 701.12C1102.9 700.917 1103.03 700.448 1102.83 700.073C1102.63 699.697 1102.16 699.558 1101.78 699.761Z" fill="white"/>
<path d="M1107.29 635.252C1106.91 635.455 1106.77 635.924 1106.97 636.3C1107.18 636.675 1107.65 636.815 1108.02 636.611C1108.4 636.408 1108.54 635.939 1108.33 635.564C1108.13 635.188 1107.66 635.049 1107.29 635.252Z" fill="white"/>
<path d="M951.939 707.645C951.564 707.849 951.424 708.318 951.627 708.693C951.831 709.069 952.3 709.208 952.675 709.005C953.051 708.802 953.19 708.333 952.987 707.957C952.784 707.582 952.314 707.442 951.939 707.645Z" fill="white"/>
<path d="M1118.63 678.922C1118.25 679.125 1118.11 679.594 1118.31 679.969C1118.52 680.345 1118.99 680.484 1119.36 680.281C1119.74 680.078 1119.88 679.609 1119.67 679.233C1119.47 678.858 1119 678.718 1118.63 678.922Z" fill="white"/>
<path d="M1179.32 602.699C1178.94 602.902 1178.8 603.372 1179.01 603.747C1179.21 604.122 1179.68 604.262 1180.05 604.059C1180.43 603.855 1180.57 603.386 1180.37 603.011C1180.16 602.635 1179.69 602.496 1179.32 602.699Z" fill="white"/>
<path d="M1054.58 645.041C1054.2 645.245 1054.06 645.714 1054.26 646.089C1054.47 646.465 1054.94 646.604 1055.31 646.401C1055.69 646.198 1055.83 645.728 1055.62 645.353C1055.42 644.978 1054.95 644.838 1054.58 645.041Z" fill="white"/>
<path d="M951.18 740.874C950.804 741.077 950.665 741.546 950.868 741.922C951.071 742.297 951.54 742.437 951.916 742.233C952.291 742.03 952.431 741.561 952.228 741.185C952.024 740.81 951.555 740.67 951.18 740.874Z" fill="white"/>
<path d="M953.798 771.685C953.423 771.888 953.283 772.357 953.486 772.733C953.69 773.108 954.159 773.248 954.534 773.044C954.91 772.841 955.049 772.372 954.846 771.996C954.643 771.621 954.173 771.481 953.798 771.685Z" fill="white"/>
<path opacity="0.3" d="M1064.15 719.55C1063.65 719.821 1063.46 720.447 1063.74 720.947C1064.01 721.448 1064.63 721.634 1065.13 721.363C1065.63 721.092 1065.82 720.466 1065.55 719.965C1065.28 719.465 1064.65 719.279 1064.15 719.55Z" fill="white"/>
<path d="M1081.58 751.722C1081.08 751.993 1080.89 752.619 1081.16 753.119C1081.43 753.62 1082.06 753.806 1082.56 753.535C1083.06 753.264 1083.24 752.638 1082.97 752.138C1082.7 751.637 1082.08 751.451 1081.58 751.722Z" fill="white"/>
<path d="M1035.42 722.217C1035.04 722.42 1034.9 722.889 1035.11 723.264C1035.31 723.64 1035.78 723.779 1036.15 723.576C1036.53 723.373 1036.67 722.904 1036.47 722.528C1036.26 722.153 1035.79 722.013 1035.42 722.217Z" fill="white"/>
<path opacity="0.3" d="M1023.01 751.789C1022.51 752.06 1022.32 752.686 1022.59 753.186C1022.86 753.687 1023.49 753.873 1023.99 753.602C1024.49 753.331 1024.68 752.705 1024.41 752.205C1024.13 751.704 1023.51 751.518 1023.01 751.789Z" fill="white"/>
<path opacity="0.3" d="M960.727 743.905C960.227 744.177 960.04 744.802 960.312 745.303C960.583 745.804 961.208 745.99 961.709 745.719C962.21 745.448 962.396 744.822 962.125 744.321C961.854 743.82 961.228 743.634 960.727 743.905Z" fill="white"/>
<path opacity="0.3" d="M1013.26 714.294C1012.76 714.565 1012.57 715.191 1012.84 715.691C1013.11 716.192 1013.74 716.378 1014.24 716.107C1014.74 715.836 1014.92 715.21 1014.65 714.71C1014.38 714.209 1013.76 714.023 1013.26 714.294Z" fill="white"/>
<path opacity="0.11" d="M986.668 747.44C986.167 747.711 985.981 748.337 986.252 748.837C986.523 749.338 987.149 749.524 987.65 749.253C988.15 748.982 988.336 748.356 988.065 747.856C987.794 747.355 987.168 747.169 986.668 747.44Z" fill="white"/>
<path opacity="0.11" d="M1076.59 876.529C1076.09 876.8 1075.9 877.426 1076.17 877.927C1076.45 878.427 1077.07 878.614 1077.57 878.342C1078.07 878.071 1078.26 877.446 1077.99 876.945C1077.72 876.444 1077.09 876.258 1076.59 876.529Z" fill="white"/>
<path d="M1070.95 873.139C1070.57 873.342 1070.43 873.811 1070.64 874.186C1070.84 874.562 1071.31 874.701 1071.69 874.498C1072.06 874.295 1072.2 873.826 1072 873.45C1071.79 873.075 1071.32 872.935 1070.95 873.139Z" fill="white"/>
<path d="M1061.15 890.75C1060.77 890.953 1060.63 891.422 1060.83 891.798C1061.04 892.173 1061.51 892.313 1061.88 892.109C1062.26 891.906 1062.4 891.437 1062.19 891.061C1061.99 890.686 1061.52 890.546 1061.15 890.75Z" fill="white"/>
<path d="M1100.15 870.803C1099.78 871.007 1099.64 871.476 1099.84 871.851C1100.05 872.227 1100.52 872.366 1100.89 872.163C1101.27 871.96 1101.41 871.491 1101.2 871.115C1101 870.74 1100.53 870.6 1100.15 870.803Z" fill="white"/>
<path opacity="0.11" d="M1116.7 847.783C1116.2 848.054 1116.01 848.68 1116.28 849.181C1116.55 849.682 1117.18 849.868 1117.68 849.597C1118.18 849.326 1118.37 848.7 1118.1 848.199C1117.82 847.698 1117.2 847.512 1116.7 847.783Z" fill="white"/>
<path d="M1130.7 853.09C1130.45 853.226 1130.36 853.538 1130.5 853.788C1130.63 854.038 1130.94 854.131 1131.19 853.996C1131.44 853.861 1131.54 853.548 1131.4 853.298C1131.27 853.048 1130.95 852.955 1130.7 853.09Z" fill="white"/>
<path d="M1068.39 858.12C1068.14 858.256 1068.04 858.568 1068.18 858.818C1068.31 859.068 1068.63 859.161 1068.88 859.026C1069.13 858.891 1069.22 858.578 1069.08 858.328C1068.95 858.078 1068.64 857.985 1068.39 858.12Z" fill="white"/>
<path d="M969.598 911.605C969.347 911.74 969.254 912.053 969.39 912.303C969.525 912.553 969.838 912.646 970.088 912.51C970.338 912.375 970.431 912.062 970.296 911.812C970.16 911.562 969.848 911.469 969.598 911.605Z" fill="white"/>
<path d="M933.457 962.819C933.207 962.955 933.114 963.267 933.249 963.518C933.385 963.768 933.697 963.861 933.947 963.725C934.198 963.59 934.291 963.277 934.155 963.027C934.02 962.777 933.707 962.684 933.457 962.819Z" fill="white"/>
<path d="M897.871 939.308C897.621 939.443 897.528 939.756 897.663 940.006C897.799 940.256 898.111 940.349 898.362 940.214C898.612 940.078 898.705 939.766 898.569 939.516C898.434 939.265 898.121 939.172 897.871 939.308Z" fill="white"/>
<path opacity="0.11" d="M1131.59 844.993C1131.34 845.128 1131.25 845.441 1131.39 845.691C1131.52 845.941 1131.84 846.034 1132.09 845.899C1132.34 845.763 1132.43 845.451 1132.29 845.2C1132.16 844.95 1131.84 844.857 1131.59 844.993Z" fill="white"/>
<path opacity="0.11" d="M1060.45 841.315C1060.2 841.451 1060.11 841.764 1060.25 842.014C1060.38 842.264 1060.69 842.357 1060.94 842.221C1061.19 842.086 1061.29 841.773 1061.15 841.523C1061.02 841.273 1060.7 841.18 1060.45 841.315Z" fill="white"/>
<path opacity="0.11" d="M975.909 892.955C975.658 893.091 975.566 893.403 975.701 893.653C975.836 893.903 976.149 893.996 976.399 893.861C976.649 893.726 976.742 893.413 976.607 893.163C976.471 892.913 976.159 892.82 975.909 892.955Z" fill="white"/>
<path d="M1119.73 891.262C1119.48 891.398 1119.39 891.71 1119.52 891.96C1119.66 892.211 1119.97 892.304 1120.22 892.168C1120.47 892.033 1120.56 891.72 1120.43 891.47C1120.29 891.22 1119.98 891.127 1119.73 891.262Z" fill="white"/>
<path d="M1050.44 929.952C1050.19 930.087 1050.09 930.4 1050.23 930.65C1050.37 930.9 1050.68 930.993 1050.93 930.858C1051.18 930.722 1051.27 930.41 1051.14 930.159C1051 929.909 1050.69 929.816 1050.44 929.952Z" fill="white"/>
<path d="M1127.97 832.889C1127.72 833.024 1127.63 833.337 1127.76 833.587C1127.9 833.837 1128.21 833.93 1128.46 833.795C1128.71 833.659 1128.8 833.347 1128.67 833.097C1128.53 832.847 1128.22 832.754 1127.97 832.889Z" fill="white"/>
<path opacity="0.3" d="M1159.69 815.715C1159.44 815.85 1159.35 816.163 1159.48 816.413C1159.62 816.663 1159.93 816.756 1160.18 816.62C1160.43 816.485 1160.52 816.172 1160.39 815.922C1160.25 815.672 1159.94 815.579 1159.69 815.715Z" fill="white"/>
<path opacity="0.3" d="M1105.68 884.804C1105.43 884.939 1105.34 885.252 1105.47 885.502C1105.61 885.752 1105.92 885.845 1106.17 885.71C1106.42 885.574 1106.51 885.262 1106.38 885.011C1106.24 884.761 1105.93 884.668 1105.68 884.804Z" fill="white"/>
<path opacity="0.3" d="M1115.6 828.45C1115.35 828.586 1115.26 828.898 1115.39 829.149C1115.53 829.399 1115.84 829.492 1116.09 829.356C1116.34 829.221 1116.44 828.908 1116.3 828.658C1116.17 828.408 1115.85 828.315 1115.6 828.45Z" fill="white"/>
<path opacity="0.3" d="M1167.98 794.232C1167.73 794.368 1167.64 794.68 1167.77 794.931C1167.91 795.181 1168.22 795.274 1168.47 795.138C1168.72 795.003 1168.82 794.69 1168.68 794.44C1168.54 794.19 1168.23 794.097 1167.98 794.232Z" fill="white"/>
<path opacity="0.3" d="M916.446 971.443C916.196 971.578 916.103 971.891 916.239 972.141C916.374 972.391 916.687 972.484 916.937 972.349C917.187 972.213 917.28 971.9 917.144 971.65C917.009 971.4 916.696 971.307 916.446 971.443Z" fill="white"/>
<path opacity="0.11" d="M999.461 950.52C999.211 950.656 999.118 950.968 999.253 951.218C999.389 951.469 999.701 951.562 999.951 951.426C1000.2 951.291 1000.29 950.978 1000.16 950.728C1000.02 950.478 999.711 950.385 999.461 950.52Z" fill="white"/>
<path opacity="0.11" d="M918.131 945.335C917.881 945.47 917.788 945.783 917.924 946.033C918.059 946.283 918.372 946.376 918.622 946.24C918.872 946.105 918.965 945.792 918.829 945.542C918.694 945.292 918.381 945.199 918.131 945.335Z" fill="white"/>
<path opacity="0.3" d="M1030.57 879.181C1030.07 879.452 1029.88 880.077 1030.15 880.578C1030.42 881.079 1031.05 881.265 1031.55 880.994C1032.05 880.723 1032.24 880.097 1031.96 879.596C1031.69 879.096 1031.07 878.909 1030.57 879.181Z" fill="white"/>
<path opacity="0.11" d="M1011.19 907.251C1010.69 907.522 1010.5 908.148 1010.78 908.648C1011.05 909.149 1011.67 909.335 1012.17 909.064C1012.67 908.793 1012.86 908.167 1012.59 907.667C1012.32 907.166 1011.69 906.98 1011.19 907.251Z" fill="white"/>
<path d="M1020 922.989C1019.63 923.192 1019.49 923.661 1019.69 924.036C1019.89 924.412 1020.36 924.551 1020.74 924.348C1021.11 924.145 1021.25 923.676 1021.05 923.3C1020.85 922.925 1020.38 922.785 1020 922.989Z" fill="white"/>
<path d="M1025.5 858.48C1025.13 858.683 1024.99 859.153 1025.19 859.528C1025.4 859.903 1025.87 860.043 1026.24 859.84C1026.62 859.636 1026.76 859.167 1026.55 858.792C1026.35 858.416 1025.88 858.277 1025.5 858.48Z" fill="white"/>
<path d="M870.159 930.873C869.783 931.076 869.644 931.545 869.847 931.921C870.05 932.296 870.519 932.436 870.895 932.232C871.27 932.029 871.41 931.56 871.207 931.184C871.003 930.809 870.534 930.67 870.159 930.873Z" fill="white"/>
<path d="M1168.42 779.345C1168.04 779.548 1167.91 780.018 1168.11 780.393C1168.31 780.768 1168.78 780.908 1169.16 780.705C1169.53 780.501 1169.67 780.032 1169.47 779.657C1169.26 779.281 1168.8 779.142 1168.42 779.345Z" fill="white"/>
<path d="M1036.84 902.148C1036.47 902.351 1036.33 902.82 1036.53 903.196C1036.74 903.571 1037.2 903.711 1037.58 903.507C1037.96 903.304 1038.09 902.835 1037.89 902.459C1037.69 902.084 1037.22 901.944 1036.84 902.148Z" fill="white"/>
<path d="M1097.54 825.926C1097.16 826.13 1097.02 826.599 1097.22 826.974C1097.43 827.35 1097.9 827.489 1098.27 827.286C1098.65 827.083 1098.79 826.614 1098.58 826.238C1098.38 825.863 1097.91 825.723 1097.54 825.926Z" fill="white"/>
<path d="M972.795 868.269C972.419 868.472 972.28 868.941 972.483 869.317C972.686 869.692 973.155 869.832 973.531 869.628C973.906 869.425 974.046 868.956 973.842 868.58C973.639 868.205 973.17 868.065 972.795 868.269Z" fill="white"/>
<path d="M869.398 964.1C869.023 964.304 868.883 964.773 869.086 965.148C869.29 965.524 869.759 965.663 870.134 965.46C870.51 965.257 870.649 964.787 870.446 964.412C870.243 964.037 869.774 963.897 869.398 964.1Z" fill="white"/>
<path d="M872.016 994.91C871.641 995.113 871.501 995.582 871.705 995.958C871.908 996.333 872.377 996.473 872.752 996.269C873.128 996.066 873.267 995.597 873.064 995.222C872.861 994.846 872.392 994.707 872.016 994.91Z" fill="white"/>
<path opacity="0.3" d="M982.37 942.778C981.87 943.049 981.684 943.675 981.955 944.175C982.226 944.676 982.851 944.862 983.352 944.591C983.853 944.32 984.039 943.694 983.768 943.193C983.497 942.693 982.871 942.507 982.37 942.778Z" fill="white"/>
<path d="M999.795 974.95C999.294 975.221 999.108 975.847 999.379 976.347C999.65 976.848 1000.28 977.034 1000.78 976.763C1001.28 976.492 1001.46 975.866 1001.19 975.366C1000.92 974.865 1000.3 974.679 999.795 974.95Z" fill="white"/>
<path d="M953.637 945.443C953.261 945.646 953.122 946.115 953.325 946.491C953.528 946.866 953.998 947.006 954.373 946.803C954.748 946.599 954.888 946.13 954.685 945.755C954.481 945.379 954.012 945.24 953.637 945.443Z" fill="white"/>
<path opacity="0.3" d="M941.227 975.016C940.726 975.287 940.54 975.913 940.811 976.414C941.082 976.914 941.708 977.101 942.209 976.83C942.709 976.558 942.895 975.933 942.624 975.432C942.353 974.931 941.728 974.745 941.227 975.016Z" fill="white"/>
<path opacity="0.3" d="M878.948 967.132C878.447 967.403 878.261 968.029 878.532 968.529C878.803 969.03 879.429 969.216 879.929 968.945C880.43 968.674 880.616 968.048 880.345 967.548C880.074 967.047 879.448 966.861 878.948 967.132Z" fill="white"/>
<path opacity="0.3" d="M931.475 937.52C930.974 937.792 930.788 938.417 931.059 938.918C931.33 939.419 931.956 939.605 932.457 939.334C932.957 939.063 933.143 938.437 932.872 937.936C932.601 937.435 931.976 937.249 931.475 937.52Z" fill="white"/>
<path opacity="0.3" d="M1187.41 788.988C1186.91 789.259 1186.72 789.885 1186.99 790.386C1187.26 790.886 1187.89 791.073 1188.39 790.801C1188.89 790.53 1189.08 789.905 1188.8 789.404C1188.53 788.903 1187.91 788.717 1187.41 788.988Z" fill="white"/>
<path opacity="0.11" d="M904.887 970.667C904.386 970.939 904.2 971.564 904.471 972.065C904.742 972.566 905.368 972.752 905.869 972.481C906.369 972.21 906.556 971.584 906.284 971.083C906.013 970.582 905.388 970.396 904.887 970.667Z" fill="white"/>
<path opacity="0.3" d="M1181.15 844.526C1180.65 844.797 1180.46 845.423 1180.74 845.924C1181.01 846.424 1181.63 846.61 1182.13 846.339C1182.63 846.068 1182.82 845.442 1182.55 844.942C1182.28 844.441 1181.65 844.255 1181.15 844.526Z" fill="white"/>
<path opacity="0.3" d="M1186.21 816.002C1185.71 816.273 1185.53 816.899 1185.8 817.4C1186.07 817.9 1186.69 818.086 1187.19 817.815C1187.7 817.544 1187.88 816.919 1187.61 816.418C1187.34 815.917 1186.71 815.731 1186.21 816.002Z" fill="white"/>
<path d="M1158.14 831.789C1157.77 831.993 1157.63 832.462 1157.83 832.837C1158.03 833.213 1158.5 833.352 1158.88 833.149C1159.25 832.946 1159.39 832.476 1159.19 832.101C1158.99 831.726 1158.52 831.586 1158.14 831.789Z" fill="white"/>
<path opacity="0.11" d="M799.872 934.543C799.371 934.814 799.185 935.439 799.456 935.94C799.727 936.441 800.353 936.627 800.854 936.356C801.354 936.085 801.54 935.459 801.269 934.958C800.998 934.458 800.373 934.272 799.872 934.543Z" fill="white"/>
<path d="M794.231 931.152C793.856 931.355 793.716 931.824 793.919 932.2C794.123 932.575 794.592 932.715 794.967 932.512C795.343 932.308 795.482 931.839 795.279 931.464C795.076 931.088 794.607 930.949 794.231 931.152Z" fill="white"/>
<path d="M784.426 948.763C784.051 948.966 783.911 949.436 784.115 949.811C784.318 950.186 784.787 950.326 785.163 950.123C785.538 949.919 785.677 949.45 785.474 949.075C785.271 948.699 784.802 948.56 784.426 948.763Z" fill="white"/>
<path d="M823.437 928.818C823.062 929.021 822.922 929.49 823.125 929.866C823.329 930.241 823.798 930.381 824.173 930.177C824.549 929.974 824.688 929.505 824.485 929.13C824.282 928.754 823.813 928.615 823.437 928.818Z" fill="white"/>
<path opacity="0.11" d="M839.98 905.797C839.48 906.068 839.293 906.693 839.565 907.194C839.836 907.695 840.461 907.881 840.962 907.61C841.463 907.339 841.649 906.713 841.378 906.212C841.107 905.712 840.481 905.525 839.98 905.797Z" fill="white"/>
<path d="M853.986 911.103C853.736 911.239 853.643 911.551 853.778 911.801C853.914 912.052 854.226 912.145 854.476 912.009C854.726 911.874 854.819 911.561 854.684 911.311C854.549 911.061 854.236 910.968 853.986 911.103Z" fill="white"/>
<path d="M791.667 916.134C791.417 916.27 791.324 916.582 791.46 916.832C791.595 917.083 791.908 917.176 792.158 917.04C792.408 916.905 792.501 916.592 792.366 916.342C792.23 916.092 791.918 915.999 791.667 916.134Z" fill="white"/>
<path d="M692.878 969.619C692.628 969.754 692.535 970.067 692.67 970.317C692.806 970.567 693.118 970.66 693.368 970.525C693.619 970.389 693.711 970.077 693.576 969.826C693.441 969.576 693.128 969.483 692.878 969.619Z" fill="white"/>
<path d="M656.739 1020.83C656.489 1020.97 656.396 1021.28 656.531 1021.53C656.666 1021.78 656.979 1021.87 657.229 1021.74C657.479 1021.6 657.572 1021.29 657.437 1021.04C657.301 1020.79 656.989 1020.7 656.739 1020.83Z" fill="white"/>
<path d="M621.152 997.323C620.902 997.458 620.809 997.771 620.945 998.021C621.08 998.271 621.393 998.364 621.643 998.228C621.893 998.093 621.986 997.78 621.85 997.53C621.715 997.28 621.402 997.187 621.152 997.323Z" fill="white"/>
<path d="M948.698 845.761C948.448 845.897 948.355 846.21 948.491 846.46C948.626 846.71 948.939 846.803 949.189 846.667C949.439 846.532 949.532 846.219 949.396 845.969C949.261 845.719 948.948 845.626 948.698 845.761Z" fill="white"/>
<path opacity="0.11" d="M968.74 866.55C968.49 866.686 968.397 866.998 968.532 867.248C968.668 867.499 968.981 867.592 969.231 867.456C969.481 867.321 969.574 867.008 969.438 866.758C969.303 866.508 968.99 866.415 968.74 866.55Z" fill="white"/>
<path opacity="0.11" d="M982.579 845.578C982.329 845.714 982.236 846.026 982.371 846.277C982.507 846.527 982.819 846.62 983.07 846.484C983.32 846.349 983.413 846.036 983.277 845.786C983.142 845.536 982.829 845.443 982.579 845.578Z" fill="white"/>
<path opacity="0.11" d="M952.906 826.486C952.656 826.622 952.563 826.934 952.699 827.185C952.834 827.435 953.147 827.528 953.397 827.392C953.647 827.257 953.74 826.944 953.604 826.694C953.469 826.444 953.156 826.351 952.906 826.486Z" fill="white"/>
<path opacity="0.11" d="M854.878 903.006C854.628 903.141 854.535 903.454 854.671 903.704C854.806 903.954 855.119 904.047 855.369 903.912C855.619 903.776 855.712 903.464 855.577 903.214C855.441 902.963 855.128 902.87 854.878 903.006Z" fill="white"/>
<path opacity="0.11" d="M783.742 899.33C783.492 899.465 783.399 899.778 783.534 900.028C783.67 900.278 783.982 900.371 784.233 900.235C784.483 900.1 784.576 899.787 784.44 899.537C784.305 899.287 783.992 899.194 783.742 899.33Z" fill="white"/>
<path opacity="0.11" d="M699.19 950.969C698.94 951.104 698.847 951.417 698.982 951.667C699.118 951.917 699.43 952.01 699.68 951.874C699.931 951.739 700.024 951.426 699.888 951.176C699.753 950.926 699.44 950.833 699.19 950.969Z" fill="white"/>
<path opacity="0.3" d="M933.984 868.376C933.734 868.511 933.641 868.824 933.776 869.074C933.912 869.324 934.224 869.417 934.474 869.282C934.724 869.146 934.817 868.834 934.682 868.584C934.547 868.334 934.234 868.241 933.984 868.376Z" fill="white"/>
<path d="M843.014 949.276C842.763 949.411 842.67 949.724 842.806 949.974C842.941 950.224 843.254 950.317 843.504 950.182C843.754 950.046 843.847 949.734 843.712 949.483C843.576 949.233 843.264 949.14 843.014 949.276Z" fill="white"/>
<path d="M773.72 987.965C773.47 988.1 773.377 988.413 773.512 988.663C773.647 988.913 773.96 989.006 774.21 988.871C774.46 988.735 774.553 988.423 774.418 988.173C774.282 987.922 773.97 987.829 773.72 987.965Z" fill="white"/>
<path d="M851.254 890.901C851.004 891.037 850.911 891.349 851.047 891.6C851.182 891.85 851.495 891.943 851.745 891.807C851.995 891.672 852.088 891.359 851.953 891.109C851.817 890.859 851.504 890.766 851.254 890.901Z" fill="white"/>
<path opacity="0.3" d="M882.974 873.727C882.723 873.863 882.63 874.175 882.766 874.425C882.901 874.676 883.214 874.769 883.464 874.633C883.714 874.498 883.807 874.185 883.672 873.935C883.536 873.685 883.224 873.592 882.974 873.727Z" fill="white"/>
<path opacity="0.11" d="M935.337 881.706C935.087 881.841 934.994 882.154 935.129 882.404C935.265 882.654 935.577 882.747 935.827 882.611C936.077 882.476 936.17 882.163 936.035 881.913C935.9 881.663 935.587 881.57 935.337 881.706Z" fill="white"/>
<path opacity="0.3" d="M828.962 942.817C828.712 942.953 828.619 943.265 828.755 943.515C828.89 943.765 829.203 943.858 829.453 943.723C829.703 943.588 829.796 943.275 829.661 943.025C829.525 942.775 829.212 942.682 828.962 942.817Z" fill="white"/>
<path opacity="0.3" d="M838.884 886.464C838.634 886.6 838.541 886.912 838.676 887.162C838.811 887.412 839.124 887.505 839.374 887.37C839.624 887.235 839.717 886.922 839.582 886.672C839.446 886.422 839.134 886.329 838.884 886.464Z" fill="white"/>
<path opacity="0.3" d="M891.264 852.246C891.013 852.381 890.92 852.694 891.056 852.944C891.191 853.194 891.504 853.287 891.754 853.152C892.004 853.016 892.097 852.704 891.962 852.454C891.826 852.203 891.514 852.11 891.264 852.246Z" fill="white"/>
<path opacity="0.3" d="M920.842 875.49C920.592 875.625 920.499 875.938 920.634 876.188C920.77 876.438 921.082 876.531 921.332 876.395C921.582 876.26 921.675 875.947 921.54 875.697C921.404 875.447 921.092 875.354 920.842 875.49Z" fill="white"/>
<path opacity="0.3" d="M639.727 1029.46C639.477 1029.59 639.384 1029.9 639.519 1030.15C639.655 1030.4 639.967 1030.5 640.217 1030.36C640.468 1030.23 640.561 1029.91 640.425 1029.66C640.29 1029.41 639.977 1029.32 639.727 1029.46Z" fill="white"/>
<path opacity="0.11" d="M722.743 1008.53C722.493 1008.67 722.399 1008.98 722.535 1009.23C722.67 1009.48 722.983 1009.58 723.233 1009.44C723.483 1009.31 723.576 1008.99 723.441 1008.74C723.305 1008.49 722.993 1008.4 722.743 1008.53Z" fill="white"/>
<path opacity="0.11" d="M641.412 1003.35C641.162 1003.49 641.069 1003.8 641.204 1004.05C641.34 1004.3 641.652 1004.39 641.903 1004.26C642.153 1004.12 642.246 1003.81 642.11 1003.56C641.975 1003.31 641.662 1003.21 641.412 1003.35Z" fill="white"/>
<path opacity="0.3" d="M753.849 937.194C753.349 937.465 753.163 938.091 753.434 938.592C753.705 939.092 754.33 939.279 754.831 939.008C755.332 938.736 755.518 938.111 755.247 937.61C754.976 937.109 754.35 936.923 753.849 937.194Z" fill="white"/>
<path opacity="0.11" d="M734.471 965.265C733.971 965.536 733.785 966.162 734.056 966.663C734.327 967.163 734.953 967.349 735.453 967.078C735.954 966.807 736.14 966.181 735.869 965.681C735.598 965.18 734.972 964.994 734.471 965.265Z" fill="white"/>
<path d="M743.284 981.001C742.908 981.204 742.769 981.673 742.972 982.049C743.175 982.424 743.645 982.564 744.02 982.36C744.395 982.157 744.535 981.688 744.332 981.313C744.128 980.937 743.659 980.798 743.284 981.001Z" fill="white"/>
<path d="M748.787 916.493C748.411 916.697 748.272 917.166 748.475 917.541C748.678 917.917 749.147 918.056 749.523 917.853C749.898 917.65 750.038 917.181 749.835 916.805C749.631 916.43 749.162 916.29 748.787 916.493Z" fill="white"/>
<path d="M593.44 988.886C593.064 989.089 592.925 989.559 593.128 989.934C593.331 990.309 593.8 990.449 594.176 990.246C594.551 990.042 594.691 989.573 594.487 989.198C594.284 988.822 593.815 988.683 593.44 988.886Z" fill="white"/>
<path d="M891.702 837.358C891.327 837.562 891.187 838.031 891.391 838.406C891.594 838.782 892.063 838.921 892.438 838.718C892.814 838.515 892.953 838.046 892.75 837.67C892.547 837.295 892.078 837.155 891.702 837.358Z" fill="white"/>
<path d="M957.607 815.15C957.232 815.354 957.092 815.823 957.295 816.198C957.499 816.574 957.968 816.713 958.343 816.51C958.719 816.307 958.858 815.838 958.655 815.462C958.452 815.087 957.982 814.947 957.607 815.15Z" fill="white"/>
<path d="M975.126 829.104C974.75 829.308 974.611 829.777 974.814 830.152C975.017 830.528 975.486 830.667 975.862 830.464C976.237 830.26 976.377 829.791 976.173 829.416C975.97 829.041 975.501 828.901 975.126 829.104Z" fill="white"/>
<path d="M760.125 960.162C759.75 960.366 759.61 960.835 759.813 961.21C760.017 961.586 760.486 961.725 760.861 961.522C761.237 961.319 761.376 960.849 761.173 960.474C760.97 960.099 760.501 959.959 760.125 960.162Z" fill="white"/>
<path d="M820.817 883.94C820.442 884.143 820.302 884.612 820.505 884.988C820.709 885.363 821.178 885.503 821.553 885.299C821.929 885.096 822.068 884.627 821.865 884.252C821.662 883.876 821.192 883.737 820.817 883.94Z" fill="white"/>
<path d="M696.075 926.282C695.699 926.485 695.56 926.954 695.763 927.33C695.966 927.705 696.436 927.845 696.811 927.641C697.186 927.438 697.326 926.969 697.123 926.594C696.919 926.218 696.45 926.079 696.075 926.282Z" fill="white"/>
<path d="M592.68 1022.11C592.304 1022.32 592.165 1022.79 592.368 1023.16C592.571 1023.54 593.041 1023.68 593.416 1023.47C593.791 1023.27 593.931 1022.8 593.728 1022.43C593.524 1022.05 593.055 1021.91 592.68 1022.11Z" fill="white"/>
<path d="M595.297 1052.92C594.922 1053.13 594.782 1053.6 594.985 1053.97C595.189 1054.35 595.658 1054.49 596.033 1054.28C596.409 1054.08 596.548 1053.61 596.345 1053.24C596.142 1052.86 595.672 1052.72 595.297 1052.92Z" fill="white"/>
<path opacity="0.3" d="M705.659 1000.79C705.159 1001.06 704.973 1001.69 705.244 1002.19C705.515 1002.69 706.14 1002.88 706.641 1002.61C707.142 1002.33 707.328 1001.71 707.057 1001.21C706.786 1000.71 706.16 1000.52 705.659 1000.79Z" fill="white"/>
<path d="M723.076 1032.96C722.576 1033.23 722.39 1033.86 722.661 1034.36C722.932 1034.86 723.558 1035.05 724.058 1034.78C724.559 1034.5 724.745 1033.88 724.474 1033.38C724.203 1032.88 723.577 1032.69 723.076 1032.96Z" fill="white"/>
<path d="M676.919 1003.46C676.543 1003.66 676.404 1004.13 676.607 1004.51C676.81 1004.88 677.279 1005.02 677.655 1004.82C678.03 1004.61 678.17 1004.14 677.966 1003.77C677.763 1003.39 677.294 1003.25 676.919 1003.46Z" fill="white"/>
<path opacity="0.3" d="M664.509 1033.03C664.008 1033.3 663.822 1033.93 664.093 1034.43C664.364 1034.93 664.99 1035.11 665.491 1034.84C665.992 1034.57 666.178 1033.95 665.907 1033.44C665.635 1032.94 665.01 1032.76 664.509 1033.03Z" fill="white"/>
<path opacity="0.3" d="M602.227 1025.15C601.727 1025.42 601.54 1026.04 601.812 1026.54C602.083 1027.04 602.708 1027.23 603.209 1026.96C603.71 1026.69 603.896 1026.06 603.625 1025.56C603.354 1025.06 602.728 1024.87 602.227 1025.15Z" fill="white"/>
<path opacity="0.3" d="M654.756 995.535C654.255 995.806 654.069 996.431 654.34 996.932C654.612 997.433 655.237 997.619 655.738 997.348C656.239 997.077 656.425 996.451 656.154 995.95C655.883 995.45 655.257 995.263 654.756 995.535Z" fill="white"/>
<path opacity="0.3" d="M910.688 847.002C910.188 847.273 910.001 847.898 910.273 848.399C910.544 848.9 911.169 849.086 911.67 848.815C912.171 848.544 912.357 847.918 912.086 847.417C911.815 846.917 911.189 846.731 910.688 847.002Z" fill="white"/>
<path opacity="0.3" d="M960.892 852.048C960.392 852.319 960.206 852.945 960.477 853.446C960.748 853.946 961.373 854.133 961.874 853.862C962.375 853.59 962.561 852.965 962.29 852.464C962.019 851.963 961.393 851.777 960.892 852.048Z" fill="white"/>
<path opacity="0.11" d="M628.168 1028.68C627.668 1028.95 627.481 1029.58 627.753 1030.08C628.024 1030.58 628.649 1030.76 629.15 1030.49C629.651 1030.22 629.837 1029.6 629.566 1029.1C629.295 1028.6 628.669 1028.41 628.168 1028.68Z" fill="white"/>
<path opacity="0.3" d="M904.433 902.54C903.933 902.811 903.747 903.437 904.018 903.938C904.289 904.438 904.914 904.625 905.415 904.353C905.916 904.082 906.102 903.457 905.831 902.956C905.56 902.455 904.934 902.269 904.433 902.54Z" fill="white"/>
<path opacity="0.11" d="M921.576 904.978C921.075 905.25 920.889 905.875 921.16 906.376C921.431 906.877 922.057 907.063 922.558 906.792C923.058 906.521 923.245 905.895 922.973 905.394C922.702 904.893 922.077 904.707 921.576 904.978Z" fill="white"/>
<path opacity="0.3" d="M909.496 874.016C908.995 874.287 908.809 874.913 909.08 875.413C909.351 875.914 909.977 876.1 910.478 875.829C910.978 875.558 911.165 874.932 910.893 874.432C910.622 873.931 909.997 873.745 909.496 874.016Z" fill="white"/>
<path d="M881.423 889.803C881.048 890.006 880.908 890.475 881.112 890.851C881.315 891.226 881.784 891.366 882.16 891.163C882.535 890.959 882.675 890.49 882.471 890.115C882.268 889.739 881.799 889.6 881.423 889.803Z" fill="white"/>
<g filter="url(#filter0_f_2018_43044)">
<ellipse cx="609.054" cy="61.6814" rx="609.054" ry="61.6814" transform="matrix(-0.757667 0.652642 0.652642 0.757667 1360.04 431.422)" fill="#F46D6B" fill-opacity="0.9"/>
</g>
<defs>
<filter id="filter0_f_2018_43044" x="0.59082" y="0.379883" width="1876.48" height="1750.54" filterUnits="userSpaceOnUse" color-interpolation-filters="sRGB">
<feFlood flood-opacity="0" result="BackgroundImageFix"/>
<feBlend mode="normal" in="SourceGraphic" in2="BackgroundImageFix" result="shape"/>
<feGaussianBlur stdDeviation="237.5" result="effect1_foregroundBlur_2018_43044"/>
</filter>
</defs>
</svg>
