<svg width="497" height="77" viewBox="0 0 497 77" fill="none" xmlns="http://www.w3.org/2000/svg">
<rect x="0.25" y="0.25" width="496.5" height="76.5" rx="14.75" fill="#1E1F40" stroke="#787996" stroke-width="0.5"/>
<path d="M38.824 27V16.904H35.48V15.8H43.512V16.904H40.168V27H38.824ZM47.1393 27.192C46.3926 27.192 45.7206 27.0213 45.1233 26.68C44.5259 26.328 44.0566 25.8373 43.7153 25.208C43.3739 24.568 43.2033 23.8267 43.2033 22.984C43.2033 22.12 43.3739 21.3733 43.7153 20.744C44.0673 20.104 44.5419 19.6133 45.1393 19.272C45.7473 18.92 46.4246 18.744 47.1713 18.744C47.9393 18.744 48.6166 18.92 49.2033 19.272C49.8006 19.6133 50.2699 20.104 50.6113 20.744C50.9633 21.3733 51.1393 22.1147 51.1393 22.968C51.1393 23.8213 50.9633 24.568 50.6113 25.208C50.2593 25.8373 49.7846 26.328 49.1873 26.68C48.5899 27.0213 47.9073 27.192 47.1393 27.192ZM47.1553 26.04C47.6139 26.04 48.0406 25.928 48.4353 25.704C48.8299 25.4693 49.1499 25.1227 49.3953 24.664C49.6406 24.2053 49.7633 23.64 49.7633 22.968C49.7633 22.2853 49.6406 21.72 49.3953 21.272C49.1606 20.8133 48.8459 20.472 48.4513 20.248C48.0673 20.0133 47.6406 19.896 47.1713 19.896C46.7233 19.896 46.2966 20.0133 45.8913 20.248C45.4966 20.472 45.1766 20.8133 44.9313 21.272C44.6966 21.72 44.5793 22.2853 44.5793 22.968C44.5793 23.64 44.6966 24.2053 44.9313 24.664C45.1766 25.1227 45.4913 25.4693 45.8753 25.704C46.2699 25.928 46.6966 26.04 47.1553 26.04ZM55.7671 27C55.2871 27 54.8711 26.9253 54.5191 26.776C54.1671 26.6267 53.8951 26.376 53.7031 26.024C53.5218 25.6613 53.4311 25.176 53.4311 24.568V20.072H52.0231V18.936H53.4311L53.6071 16.984H54.7751V18.936H57.1111V20.072H54.7751V24.568C54.7751 25.0693 54.8765 25.4107 55.0791 25.592C55.2818 25.7627 55.6391 25.848 56.1511 25.848H57.0151V27H55.7671ZM61.3767 27.192C60.7261 27.192 60.1821 27.08 59.7447 26.856C59.3074 26.6213 58.9821 26.3173 58.7687 25.944C58.5554 25.56 58.4487 25.144 58.4487 24.696C58.4487 24.152 58.5874 23.6933 58.8647 23.32C59.1527 22.936 59.5527 22.648 60.0647 22.456C60.5874 22.2533 61.2007 22.152 61.9047 22.152H64.0327C64.0327 21.6507 63.9527 21.2347 63.7927 20.904C63.6434 20.5627 63.4194 20.3067 63.1207 20.136C62.8327 19.9653 62.4701 19.88 62.0327 19.88C61.5207 19.88 61.0781 20.008 60.7047 20.264C60.3314 20.52 60.1021 20.8987 60.0167 21.4H58.6407C58.7047 20.824 58.8967 20.344 59.2167 19.96C59.5474 19.5653 59.9634 19.2667 60.4647 19.064C60.9661 18.8507 61.4887 18.744 62.0327 18.744C62.7794 18.744 63.3981 18.8827 63.8888 19.16C64.3901 19.4267 64.7634 19.8053 65.0087 20.296C65.2541 20.776 65.3767 21.3467 65.3767 22.008V27H64.1767L64.0967 25.576C63.9901 25.8 63.8514 26.0133 63.6807 26.216C63.5207 26.408 63.3287 26.5787 63.1047 26.728C62.8807 26.8667 62.6247 26.9787 62.3367 27.064C62.0594 27.1493 61.7394 27.192 61.3767 27.192ZM61.5847 26.056C61.9581 26.056 62.2941 25.9813 62.5927 25.832C62.9021 25.672 63.1634 25.4587 63.3767 25.192C63.5901 24.9147 63.7501 24.6107 63.8568 24.28C63.9741 23.9493 64.0327 23.6027 64.0327 23.24V23.192H62.0167C61.4941 23.192 61.0727 23.256 60.7527 23.384C60.4327 23.5013 60.2034 23.672 60.0647 23.896C59.9261 24.1093 59.8567 24.3547 59.8567 24.632C59.8567 24.92 59.9207 25.1707 60.0487 25.384C60.1874 25.5973 60.3847 25.7627 60.6407 25.88C60.9074 25.9973 61.2221 26.056 61.5847 26.056ZM67.3439 27V15.48H68.6879V27H67.3439ZM74.9324 27V18.936H76.1484L76.2444 20.472C76.4257 20.1093 76.655 19.8 76.9324 19.544C77.2204 19.288 77.5617 19.0907 77.9564 18.952C78.3617 18.8133 78.8204 18.744 79.3324 18.744V20.152H78.8364C78.495 20.152 78.1697 20.2 77.8604 20.296C77.551 20.3813 77.2737 20.5253 77.0284 20.728C76.7937 20.9307 76.607 21.208 76.4684 21.56C76.3404 21.9013 76.2764 22.328 76.2764 22.84V27H74.9324ZM83.9814 27.192C83.224 27.192 82.552 27.016 81.9654 26.664C81.3894 26.312 80.936 25.8213 80.6054 25.192C80.2747 24.552 80.1094 23.8107 80.1094 22.968C80.1094 22.1147 80.2694 21.3733 80.5894 20.744C80.92 20.1147 81.3787 19.624 81.9654 19.272C82.5627 18.92 83.2454 18.744 84.0134 18.744C84.8027 18.744 85.4694 18.92 86.0134 19.272C86.568 19.624 86.9894 20.088 87.2774 20.664C87.576 21.2293 87.7254 21.8533 87.7254 22.536C87.7254 22.6427 87.7254 22.7547 87.7254 22.872C87.7254 22.9893 87.72 23.1227 87.7094 23.272H81.1174V22.232H86.4134C86.3814 21.496 86.136 20.92 85.6774 20.504C85.2294 20.088 84.664 19.88 83.9814 19.88C83.5227 19.88 83.096 19.9867 82.7014 20.2C82.3174 20.4027 82.008 20.7067 81.7734 21.112C81.5387 21.5067 81.4214 22.0027 81.4214 22.6V23.048C81.4214 23.7093 81.5387 24.264 81.7734 24.712C82.0187 25.16 82.3334 25.496 82.7174 25.72C83.112 25.944 83.5334 26.056 83.9814 26.056C84.5467 26.056 85.0107 25.9333 85.3734 25.688C85.7467 25.432 86.0134 25.0907 86.1734 24.664H87.5014C87.3734 25.144 87.1494 25.576 86.8294 25.96C86.5094 26.344 86.1094 26.648 85.6294 26.872C85.16 27.0853 84.6107 27.192 83.9814 27.192ZM91.4346 27L88.3786 18.936H89.7866L92.2186 25.704L94.6666 18.936H96.0426L92.9866 27H91.4346ZM100.57 27.192C99.8125 27.192 99.1405 27.016 98.5539 26.664C97.9779 26.312 97.5245 25.8213 97.1939 25.192C96.8632 24.552 96.6979 23.8107 96.6979 22.968C96.6979 22.1147 96.8579 21.3733 97.1779 20.744C97.5085 20.1147 97.9672 19.624 98.5539 19.272C99.1512 18.92 99.8339 18.744 100.602 18.744C101.391 18.744 102.058 18.92 102.602 19.272C103.157 19.624 103.578 20.088 103.866 20.664C104.165 21.2293 104.314 21.8533 104.314 22.536C104.314 22.6427 104.314 22.7547 104.314 22.872C104.314 22.9893 104.309 23.1227 104.298 23.272H97.7059V22.232H103.002C102.97 21.496 102.725 20.92 102.266 20.504C101.818 20.088 101.253 19.88 100.57 19.88C100.111 19.88 99.6845 19.9867 99.2899 20.2C98.9059 20.4027 98.5965 20.7067 98.3619 21.112C98.1272 21.5067 98.0099 22.0027 98.0099 22.6V23.048C98.0099 23.7093 98.1272 24.264 98.3619 24.712C98.6072 25.16 98.9219 25.496 99.3059 25.72C99.7005 25.944 100.122 26.056 100.57 26.056C101.135 26.056 101.599 25.9333 101.962 25.688C102.335 25.432 102.602 25.0907 102.762 24.664H104.09C103.962 25.144 103.738 25.576 103.418 25.96C103.098 26.344 102.698 26.648 102.218 26.872C101.749 27.0853 101.199 27.192 100.57 27.192ZM106.016 27V18.936H107.232L107.296 20.344C107.552 19.8427 107.914 19.4533 108.384 19.176C108.864 18.888 109.408 18.744 110.016 18.744C110.645 18.744 111.189 18.872 111.648 19.128C112.106 19.3733 112.464 19.752 112.72 20.264C112.976 20.7653 113.104 21.4053 113.104 22.184V27H111.76V22.328C111.76 21.5173 111.578 20.9093 111.216 20.504C110.864 20.0987 110.362 19.896 109.712 19.896C109.264 19.896 108.864 20.008 108.512 20.232C108.16 20.4453 107.877 20.76 107.664 21.176C107.461 21.5813 107.36 22.088 107.36 22.696V27H106.016ZM118.019 27.192C117.4 27.192 116.856 27.0693 116.387 26.824C115.928 26.5787 115.571 26.2 115.315 25.688C115.07 25.176 114.947 24.536 114.947 23.768V18.936H116.291V23.624C116.291 24.424 116.467 25.0267 116.819 25.432C117.171 25.8373 117.667 26.04 118.307 26.04C118.755 26.04 119.16 25.9333 119.523 25.72C119.886 25.496 120.168 25.1813 120.371 24.776C120.584 24.36 120.691 23.8533 120.691 23.256V18.936H122.035V27H120.819L120.739 25.592C120.494 26.0933 120.131 26.488 119.651 26.776C119.171 27.0533 118.627 27.192 118.019 27.192ZM127.687 27.192C126.93 27.192 126.258 27.016 125.671 26.664C125.095 26.312 124.642 25.8213 124.311 25.192C123.98 24.552 123.815 23.8107 123.815 22.968C123.815 22.1147 123.975 21.3733 124.295 20.744C124.626 20.1147 125.084 19.624 125.671 19.272C126.268 18.92 126.951 18.744 127.719 18.744C128.508 18.744 129.175 18.92 129.719 19.272C130.274 19.624 130.695 20.088 130.983 20.664C131.282 21.2293 131.431 21.8533 131.431 22.536C131.431 22.6427 131.431 22.7547 131.431 22.872C131.431 22.9893 131.426 23.1227 131.415 23.272H124.823V22.232H130.119C130.087 21.496 129.842 20.92 129.383 20.504C128.935 20.088 128.37 19.88 127.687 19.88C127.228 19.88 126.802 19.9867 126.407 20.2C126.023 20.4027 125.714 20.7067 125.479 21.112C125.244 21.5067 125.127 22.0027 125.127 22.6V23.048C125.127 23.7093 125.244 24.264 125.479 24.712C125.724 25.16 126.039 25.496 126.423 25.72C126.818 25.944 127.239 26.056 127.687 26.056C128.252 26.056 128.716 25.9333 129.079 25.688C129.452 25.432 129.719 25.0907 129.879 24.664H131.207C131.079 25.144 130.855 25.576 130.535 25.96C130.215 26.344 129.815 26.648 129.335 26.872C128.866 27.0853 128.316 27.192 127.687 27.192ZM140.871 27.192C140.124 27.192 139.452 27.0213 138.855 26.68C138.257 26.328 137.788 25.8373 137.447 25.208C137.105 24.568 136.935 23.8267 136.935 22.984C136.935 22.12 137.105 21.3733 137.447 20.744C137.799 20.104 138.273 19.6133 138.871 19.272C139.479 18.92 140.156 18.744 140.903 18.744C141.671 18.744 142.348 18.92 142.935 19.272C143.532 19.6133 144.001 20.104 144.343 20.744C144.695 21.3733 144.871 22.1147 144.871 22.968C144.871 23.8213 144.695 24.568 144.343 25.208C143.991 25.8373 143.516 26.328 142.919 26.68C142.321 27.0213 141.639 27.192 140.871 27.192ZM140.887 26.04C141.345 26.04 141.772 25.928 142.167 25.704C142.561 25.4693 142.881 25.1227 143.127 24.664C143.372 24.2053 143.495 23.64 143.495 22.968C143.495 22.2853 143.372 21.72 143.127 21.272C142.892 20.8133 142.577 20.472 142.183 20.248C141.799 20.0133 141.372 19.896 140.903 19.896C140.455 19.896 140.028 20.0133 139.623 20.248C139.228 20.472 138.908 20.8133 138.663 21.272C138.428 21.72 138.311 22.2853 138.311 22.968C138.311 23.64 138.428 24.2053 138.663 24.664C138.908 25.1227 139.223 25.4693 139.607 25.704C140.001 25.928 140.428 26.04 140.887 26.04ZM147.091 27V17.688C147.091 17.176 147.176 16.76 147.347 16.44C147.518 16.1093 147.768 15.8693 148.099 15.72C148.44 15.56 148.856 15.48 149.347 15.48H150.259V16.632H149.555C149.16 16.632 148.872 16.712 148.691 16.872C148.52 17.032 148.435 17.3147 148.435 17.72V27H147.091ZM145.859 20.072V18.936H150.467V20.072H145.859ZM159.707 27.192C158.96 27.192 158.288 27.0213 157.691 26.68C157.093 26.328 156.624 25.8373 156.283 25.208C155.941 24.568 155.771 23.8267 155.771 22.984C155.771 22.12 155.941 21.3733 156.283 20.744C156.635 20.104 157.109 19.6133 157.707 19.272C158.315 18.92 158.992 18.744 159.739 18.744C160.507 18.744 161.184 18.92 161.771 19.272C162.368 19.6133 162.837 20.104 163.179 20.744C163.531 21.3733 163.707 22.1147 163.707 22.968C163.707 23.8213 163.531 24.568 163.179 25.208C162.827 25.8373 162.352 26.328 161.755 26.68C161.157 27.0213 160.475 27.192 159.707 27.192ZM159.723 26.04C160.181 26.04 160.608 25.928 161.003 25.704C161.397 25.4693 161.717 25.1227 161.963 24.664C162.208 24.2053 162.331 23.64 162.331 22.968C162.331 22.2853 162.208 21.72 161.963 21.272C161.728 20.8133 161.413 20.472 161.019 20.248C160.635 20.0133 160.208 19.896 159.739 19.896C159.291 19.896 158.864 20.0133 158.459 20.248C158.064 20.472 157.744 20.8133 157.499 21.272C157.264 21.72 157.147 22.2853 157.147 22.968C157.147 23.64 157.264 24.2053 157.499 24.664C157.744 25.1227 158.059 25.4693 158.443 25.704C158.837 25.928 159.264 26.04 159.723 26.04ZM168.407 27.192C167.788 27.192 167.244 27.0693 166.775 26.824C166.316 26.5787 165.959 26.2 165.703 25.688C165.458 25.176 165.335 24.536 165.335 23.768V18.936H166.679V23.624C166.679 24.424 166.855 25.0267 167.207 25.432C167.559 25.8373 168.055 26.04 168.695 26.04C169.143 26.04 169.548 25.9333 169.911 25.72C170.274 25.496 170.556 25.1813 170.759 24.776C170.972 24.36 171.079 23.8533 171.079 23.256V18.936H172.423V27H171.207L171.127 25.592C170.882 26.0933 170.519 26.488 170.039 26.776C169.559 27.0533 169.015 27.192 168.407 27.192ZM174.539 27V18.936H175.755L175.851 20.472C176.032 20.1093 176.262 19.8 176.539 19.544C176.827 19.288 177.168 19.0907 177.563 18.952C177.968 18.8133 178.427 18.744 178.939 18.744V20.152H178.443C178.102 20.152 177.776 20.2 177.467 20.296C177.158 20.3813 176.88 20.5253 176.635 20.728C176.4 20.9307 176.214 21.208 176.075 21.56C175.947 21.9013 175.883 22.328 175.883 22.84V27H174.539ZM188.119 27.192C187.361 27.192 186.679 27.016 186.071 26.664C185.473 26.312 185.004 25.8213 184.663 25.192C184.321 24.552 184.151 23.816 184.151 22.984C184.151 22.1307 184.321 21.3893 184.663 20.76C185.004 20.1307 185.473 19.64 186.071 19.288C186.679 18.9253 187.361 18.744 188.119 18.744C189.079 18.744 189.879 18.9947 190.519 19.496C191.159 19.9867 191.564 20.648 191.735 21.48H190.359C190.252 20.9787 189.991 20.5893 189.575 20.312C189.159 20.0347 188.668 19.896 188.103 19.896C187.644 19.896 187.217 20.0133 186.823 20.248C186.428 20.472 186.113 20.8133 185.879 21.272C185.644 21.7307 185.527 22.296 185.527 22.968C185.527 23.4693 185.596 23.9173 185.735 24.312C185.873 24.696 186.06 25.016 186.295 25.272C186.529 25.528 186.801 25.7253 187.111 25.864C187.431 25.992 187.761 26.056 188.103 26.056C188.487 26.056 188.833 25.9973 189.143 25.88C189.452 25.752 189.713 25.5653 189.927 25.32C190.14 25.0747 190.284 24.7867 190.359 24.456H191.735C191.564 25.2667 191.153 25.928 190.503 26.44C189.863 26.9413 189.068 27.192 188.119 27.192ZM197.131 27.192C196.384 27.192 195.712 27.0213 195.115 26.68C194.518 26.328 194.048 25.8373 193.707 25.208C193.366 24.568 193.195 23.8267 193.195 22.984C193.195 22.12 193.366 21.3733 193.707 20.744C194.059 20.104 194.534 19.6133 195.131 19.272C195.739 18.92 196.416 18.744 197.163 18.744C197.931 18.744 198.608 18.92 199.195 19.272C199.792 19.6133 200.262 20.104 200.603 20.744C200.955 21.3733 201.131 22.1147 201.131 22.968C201.131 23.8213 200.955 24.568 200.603 25.208C200.251 25.8373 199.776 26.328 199.179 26.68C198.582 27.0213 197.899 27.192 197.131 27.192ZM197.147 26.04C197.606 26.04 198.032 25.928 198.427 25.704C198.822 25.4693 199.142 25.1227 199.387 24.664C199.632 24.2053 199.755 23.64 199.755 22.968C199.755 22.2853 199.632 21.72 199.387 21.272C199.152 20.8133 198.838 20.472 198.443 20.248C198.059 20.0133 197.632 19.896 197.163 19.896C196.715 19.896 196.288 20.0133 195.883 20.248C195.488 20.472 195.168 20.8133 194.923 21.272C194.688 21.72 194.571 22.2853 194.571 22.968C194.571 23.64 194.688 24.2053 194.923 24.664C195.168 25.1227 195.483 25.4693 195.867 25.704C196.262 25.928 196.688 26.04 197.147 26.04ZM202.903 27V18.936H204.119L204.199 20.088C204.455 19.672 204.797 19.3467 205.223 19.112C205.661 18.8667 206.135 18.744 206.647 18.744C207.063 18.744 207.437 18.8027 207.767 18.92C208.109 19.0267 208.407 19.1973 208.663 19.432C208.919 19.656 209.127 19.944 209.287 20.296C209.565 19.8053 209.943 19.4267 210.423 19.16C210.914 18.8827 211.437 18.744 211.991 18.744C212.61 18.744 213.149 18.872 213.607 19.128C214.077 19.3733 214.434 19.752 214.679 20.264C214.935 20.7653 215.063 21.4053 215.063 22.184V27H213.735V22.328C213.735 21.5173 213.57 20.9093 213.239 20.504C212.909 20.0987 212.445 19.896 211.847 19.896C211.431 19.896 211.058 20.008 210.727 20.232C210.397 20.4453 210.135 20.76 209.943 21.176C209.751 21.592 209.655 22.104 209.655 22.712V27H208.311V22.328C208.311 21.5173 208.146 20.9093 207.815 20.504C207.485 20.0987 207.015 19.896 206.407 19.896C206.002 19.896 205.634 20.008 205.303 20.232C204.983 20.4453 204.727 20.76 204.535 21.176C204.343 21.592 204.247 22.104 204.247 22.712V27H202.903ZM217.041 30.52V18.936H218.257L218.369 20.248C218.54 19.992 218.759 19.752 219.025 19.528C219.292 19.2933 219.612 19.1067 219.985 18.968C220.359 18.8187 220.785 18.744 221.265 18.744C222.055 18.744 222.737 18.9307 223.313 19.304C223.9 19.6773 224.353 20.184 224.673 20.824C225.004 21.4533 225.169 22.1733 225.169 22.984C225.169 23.7947 225.004 24.52 224.673 25.16C224.353 25.7893 223.9 26.2853 223.313 26.648C222.727 27.0107 222.039 27.192 221.249 27.192C220.599 27.192 220.023 27.0587 219.521 26.792C219.031 26.5253 218.652 26.152 218.385 25.672V30.52H217.041ZM221.105 26.024C221.628 26.024 222.092 25.896 222.497 25.64C222.903 25.384 223.217 25.032 223.441 24.584C223.676 24.1253 223.793 23.5867 223.793 22.968C223.793 22.36 223.676 21.8267 223.441 21.368C223.217 20.9093 222.903 20.552 222.497 20.296C222.092 20.04 221.628 19.912 221.105 19.912C220.572 19.912 220.103 20.04 219.697 20.296C219.292 20.552 218.977 20.9093 218.753 21.368C218.529 21.8267 218.417 22.36 218.417 22.968C218.417 23.5867 218.529 24.1253 218.753 24.584C218.977 25.032 219.292 25.384 219.697 25.64C220.103 25.896 220.572 26.024 221.105 26.024ZM229.569 27.192C228.918 27.192 228.374 27.08 227.937 26.856C227.5 26.6213 227.174 26.3173 226.961 25.944C226.748 25.56 226.641 25.144 226.641 24.696C226.641 24.152 226.78 23.6933 227.057 23.32C227.345 22.936 227.745 22.648 228.257 22.456C228.78 22.2533 229.393 22.152 230.097 22.152H232.225C232.225 21.6507 232.145 21.2347 231.985 20.904C231.836 20.5627 231.612 20.3067 231.313 20.136C231.025 19.9653 230.662 19.88 230.225 19.88C229.713 19.88 229.27 20.008 228.897 20.264C228.524 20.52 228.294 20.8987 228.209 21.4H226.833C226.897 20.824 227.089 20.344 227.409 19.96C227.74 19.5653 228.156 19.2667 228.657 19.064C229.158 18.8507 229.681 18.744 230.225 18.744C230.972 18.744 231.59 18.8827 232.081 19.16C232.582 19.4267 232.956 19.8053 233.201 20.296C233.446 20.776 233.569 21.3467 233.569 22.008V27H232.369L232.289 25.576C232.182 25.8 232.044 26.0133 231.873 26.216C231.713 26.408 231.521 26.5787 231.297 26.728C231.073 26.8667 230.817 26.9787 230.529 27.064C230.252 27.1493 229.932 27.192 229.569 27.192ZM229.777 26.056C230.15 26.056 230.486 25.9813 230.785 25.832C231.094 25.672 231.356 25.4587 231.569 25.192C231.782 24.9147 231.942 24.6107 232.049 24.28C232.166 23.9493 232.225 23.6027 232.225 23.24V23.192H230.209C229.686 23.192 229.265 23.256 228.945 23.384C228.625 23.5013 228.396 23.672 228.257 23.896C228.118 24.1093 228.049 24.3547 228.049 24.632C228.049 24.92 228.113 25.1707 228.241 25.384C228.38 25.5973 228.577 25.7627 228.833 25.88C229.1 25.9973 229.414 26.056 229.777 26.056ZM235.536 27V18.936H236.752L236.816 20.344C237.072 19.8427 237.435 19.4533 237.904 19.176C238.384 18.888 238.928 18.744 239.536 18.744C240.165 18.744 240.709 18.872 241.168 19.128C241.627 19.3733 241.984 19.752 242.24 20.264C242.496 20.7653 242.624 21.4053 242.624 22.184V27H241.28V22.328C241.28 21.5173 241.099 20.9093 240.736 20.504C240.384 20.0987 239.883 19.896 239.232 19.896C238.784 19.896 238.384 20.008 238.032 20.232C237.68 20.4453 237.397 20.76 237.184 21.176C236.981 21.5813 236.88 22.088 236.88 22.696V27H235.536ZM245.257 30.52L247.225 26.104H246.761L243.593 18.936H245.049L247.673 25.096L250.425 18.936H251.817L246.665 30.52H245.257Z" fill="white"/>
<path d="M40.4688 59.8164V41.6328H41.6211V59.8164H40.4688ZM41.0449 58.2344C39.9577 58.2344 39.0137 58.0651 38.2129 57.7266C37.4186 57.3815 36.7969 56.89 36.3477 56.252C35.8984 55.6139 35.6478 54.8555 35.5957 53.9766H37.8027C37.8483 54.5039 38.0176 54.9434 38.3105 55.2949C38.61 55.64 38.9974 55.8971 39.4727 56.0664C39.9479 56.2357 40.4688 56.3203 41.0352 56.3203C41.6536 56.3203 42.207 56.2227 42.6953 56.0273C43.1836 55.832 43.5645 55.5586 43.8379 55.207C44.1178 54.849 44.2578 54.4323 44.2578 53.957C44.2578 53.5273 44.1341 53.1758 43.8867 52.9023C43.6458 52.6289 43.3171 52.4043 42.9004 52.2285C42.4837 52.0462 42.015 51.8867 41.4941 51.75L39.7852 51.2812C38.6133 50.9688 37.6888 50.5033 37.0117 49.8848C36.3346 49.2598 35.9961 48.4427 35.9961 47.4336C35.9961 46.5938 36.2207 45.8613 36.6699 45.2363C37.1257 44.6113 37.7409 44.1263 38.5156 43.7812C39.2969 43.4297 40.1725 43.2539 41.1426 43.2539C42.1322 43.2539 43.0013 43.4297 43.75 43.7812C44.5052 44.1263 45.1009 44.6016 45.5371 45.207C45.9798 45.806 46.2109 46.4928 46.2305 47.2676H44.1016C44.0234 46.597 43.7109 46.0762 43.1641 45.7051C42.6237 45.334 41.9336 45.1484 41.0938 45.1484C40.5078 45.1484 39.9935 45.2428 39.5508 45.4316C39.1146 45.6139 38.776 45.8678 38.5352 46.1934C38.3008 46.5189 38.1836 46.8932 38.1836 47.3164C38.1836 47.7721 38.3236 48.1432 38.6035 48.4297C38.89 48.7161 39.235 48.944 39.6387 49.1133C40.0488 49.276 40.4427 49.4095 40.8203 49.5137L42.2363 49.8945C42.6986 50.0117 43.1738 50.168 43.6621 50.3633C44.1504 50.5586 44.6029 50.8158 45.0195 51.1348C45.4427 51.4473 45.7812 51.8379 46.0352 52.3066C46.2956 52.7689 46.4258 53.3288 46.4258 53.9863C46.4258 54.8001 46.2142 55.5293 45.791 56.1738C45.3678 56.8118 44.7559 57.3164 43.9551 57.6875C43.1543 58.0521 42.1842 58.2344 41.0449 58.2344ZM52.8125 58.1953C51.9206 58.1953 51.1198 58.026 50.4102 57.6875C49.707 57.3424 49.1439 56.8704 48.7207 56.2715C48.2975 55.666 48.0729 54.9792 48.0469 54.2109H50.1758C50.2279 54.8294 50.5046 55.3405 51.0059 55.7441C51.5072 56.1478 52.1094 56.3496 52.8125 56.3496C53.3724 56.3496 53.8672 56.2194 54.2969 55.959C54.7266 55.6986 55.0651 55.3438 55.3125 54.8945C55.5599 54.4388 55.6836 53.918 55.6836 53.332C55.6836 52.7461 55.5566 52.222 55.3027 51.7598C55.0488 51.291 54.6973 50.9232 54.248 50.6562C53.8053 50.3893 53.2943 50.2559 52.7148 50.2559C52.2721 50.2559 51.8294 50.334 51.3867 50.4902C50.944 50.64 50.5859 50.8353 50.3125 51.0762L48.291 50.7832L49.1113 43.4492H57.1094V45.334H50.9473L50.4883 49.4062H50.5664C50.8464 49.1263 51.2207 48.8984 51.6895 48.7227C52.1647 48.5404 52.6758 48.4492 53.2227 48.4492C54.1081 48.4492 54.8958 48.6608 55.5859 49.084C56.2826 49.5007 56.8294 50.0736 57.2266 50.8027C57.6237 51.5254 57.8223 52.3555 57.8223 53.293C57.8223 54.237 57.6074 55.0801 57.1777 55.8223C56.748 56.5579 56.1556 57.1374 55.4004 57.5605C54.6517 57.9837 53.7891 58.1953 52.8125 58.1953ZM64.5508 58.1953C63.9062 58.1953 63.2682 58.0814 62.6367 57.8535C62.0052 57.6257 61.4355 57.248 60.9277 56.7207C60.4199 56.1868 60.0098 55.4707 59.6973 54.5723C59.3913 53.6738 59.2383 52.5573 59.2383 51.2227C59.2383 49.9531 59.3652 48.8268 59.6191 47.8438C59.8796 46.8542 60.2474 46.0208 60.7227 45.3438C61.2044 44.6602 61.7839 44.1426 62.4609 43.791C63.138 43.4329 63.8997 43.2539 64.7461 43.2539C65.612 43.2539 66.3802 43.4264 67.0508 43.7715C67.7214 44.11 68.265 44.5788 68.6816 45.1777C69.1048 45.7767 69.3685 46.4603 69.4727 47.2285H67.3242C67.1745 46.623 66.8815 46.1315 66.4453 45.7539C66.0091 45.3698 65.4427 45.1777 64.7461 45.1777C63.6784 45.1777 62.8451 45.6432 62.2461 46.5742C61.6536 47.4987 61.3574 48.7878 61.3574 50.4414H61.4648C61.7188 50.0312 62.028 49.6797 62.3926 49.3867C62.7572 49.0872 63.1641 48.8594 63.6133 48.7031C64.069 48.5469 64.554 48.4688 65.0684 48.4688C65.9082 48.4688 66.6699 48.6738 67.3535 49.084C68.0436 49.4941 68.5905 50.0605 68.9941 50.7832C69.4043 51.4993 69.6094 52.3229 69.6094 53.2539C69.6094 54.1784 69.3978 55.015 68.9746 55.7637C68.5579 56.5124 67.9688 57.1048 67.207 57.541C66.4518 57.9772 65.5664 58.1953 64.5508 58.1953ZM64.541 56.3496C65.1009 56.3496 65.599 56.2129 66.0352 55.9395C66.4779 55.666 66.8294 55.2982 67.0898 54.8359C67.3503 54.3672 67.4805 53.8464 67.4805 53.2734C67.4805 52.7135 67.3535 52.2057 67.0996 51.75C66.8522 51.2943 66.5104 50.9329 66.0742 50.666C65.6445 50.3926 65.1497 50.2559 64.5898 50.2559C64.0365 50.2559 63.5352 50.3958 63.0859 50.6758C62.6367 50.9557 62.2786 51.3268 62.0117 51.7891C61.7513 52.2513 61.6211 52.7526 61.6211 53.293C61.6211 53.8333 61.748 54.3379 62.002 54.8066C62.2559 55.2754 62.6009 55.6497 63.0371 55.9297C63.4798 56.2096 63.9811 56.3496 64.541 56.3496ZM76.1914 58.1953C75.1758 58.1953 74.2773 58.0195 73.4961 57.668C72.7214 57.3164 72.1126 56.8346 71.6699 56.2227C71.2337 55.6042 71.0156 54.901 71.0156 54.1133C71.0156 53.5078 71.1426 52.9447 71.3965 52.4238C71.6569 51.903 72.0085 51.4701 72.4512 51.125C72.8939 50.7799 73.3919 50.5586 73.9453 50.4609V50.373C73.2227 50.1973 72.64 49.8099 72.1973 49.2109C71.7611 48.6055 71.543 47.9154 71.543 47.1406C71.543 46.3919 71.7415 45.7246 72.1387 45.1387C72.5423 44.5527 73.0924 44.0938 73.7891 43.7617C74.4922 43.4232 75.293 43.2539 76.1914 43.2539C77.0768 43.2539 77.8678 43.4232 78.5645 43.7617C79.2676 44.0938 79.8177 44.5527 80.2148 45.1387C80.6185 45.7246 80.8203 46.3919 80.8203 47.1406C80.8203 47.9154 80.599 48.6055 80.1562 49.2109C79.7201 49.8099 79.1471 50.1973 78.4375 50.373V50.4609C78.9844 50.5586 79.4792 50.7799 79.9219 51.125C80.3646 51.4701 80.7161 51.903 80.9766 52.4238C81.237 52.9447 81.3672 53.5078 81.3672 54.1133C81.3672 54.901 81.1458 55.6042 80.7031 56.2227C80.2604 56.8346 79.6484 57.3164 78.8672 57.668C78.0924 58.0195 77.2005 58.1953 76.1914 58.1953ZM76.1914 56.3984C76.7904 56.3984 77.3112 56.3008 77.7539 56.1055C78.1966 55.9036 78.5384 55.6204 78.7793 55.2559C79.0202 54.8913 79.1406 54.4681 79.1406 53.9863C79.1406 53.4785 79.0104 53.0326 78.75 52.6484C78.4961 52.2578 78.1478 51.9518 77.7051 51.7305C77.2624 51.5026 76.7578 51.3887 76.1914 51.3887C75.6185 51.3887 75.1074 51.4993 74.6582 51.7207C74.2155 51.9421 73.8672 52.248 73.6133 52.6387C73.3594 53.0293 73.2324 53.4785 73.2324 53.9863C73.2324 54.4681 73.3529 54.8913 73.5938 55.2559C73.8346 55.6204 74.1764 55.9036 74.6191 56.1055C75.0618 56.3008 75.5859 56.3984 76.1914 56.3984ZM76.1914 49.6406C76.6732 49.6406 77.0996 49.543 77.4707 49.3477C77.8483 49.1523 78.1445 48.8822 78.3594 48.5371C78.5807 48.1921 78.6914 47.7884 78.6914 47.3262C78.6914 46.8704 78.584 46.4733 78.3691 46.1348C78.1608 45.7962 77.8678 45.5326 77.4902 45.3438C77.1191 45.1549 76.6862 45.0605 76.1914 45.0605C75.6901 45.0605 75.2507 45.1549 74.873 45.3438C74.4954 45.5326 74.2025 45.7962 73.9941 46.1348C73.7858 46.4733 73.6816 46.8704 73.6816 47.3262C73.6816 47.7884 73.7891 48.1921 74.0039 48.5371C74.2188 48.8822 74.5117 49.1523 74.8828 49.3477C75.2604 49.543 75.6966 49.6406 76.1914 49.6406ZM82.7539 55.1582V53.3906L89.0332 43.4492H90.4297V46.0664H89.5312L85.0391 53.1758V53.293H93.6621V55.1582H82.7539ZM89.6289 58V54.6211L89.6484 53.8105V43.4492H91.7383V58H89.6289ZM94.9805 55.1582V53.3906L101.26 43.4492H102.656V46.0664H101.758L97.2656 53.1758V53.293H105.889V55.1582H94.9805ZM101.855 58V54.6211L101.875 53.8105V43.4492H103.965V58H101.855ZM112.559 58.1953C111.439 58.1953 110.479 57.9023 109.678 57.3164C108.883 56.7305 108.275 55.8841 107.852 54.7773C107.435 53.6641 107.227 52.3164 107.227 50.7344C107.227 49.1589 107.438 47.8145 107.861 46.7012C108.285 45.5814 108.893 44.7285 109.688 44.1426C110.488 43.5501 111.445 43.2539 112.559 43.2539C113.678 43.2539 114.635 43.5501 115.43 44.1426C116.23 44.7285 116.839 45.5814 117.256 46.7012C117.679 47.8145 117.891 49.1589 117.891 50.7344C117.891 52.3164 117.682 53.6641 117.266 54.7773C116.849 55.8841 116.243 56.7305 115.449 57.3164C114.655 57.9023 113.691 58.1953 112.559 58.1953ZM112.559 56.3203C113.242 56.3203 113.818 56.1022 114.287 55.666C114.756 55.2298 115.114 54.5951 115.361 53.7617C115.609 52.9219 115.732 51.9128 115.732 50.7344C115.732 49.5495 115.609 48.5404 115.361 47.707C115.114 46.8672 114.756 46.2292 114.287 45.793C113.818 45.3503 113.242 45.1289 112.559 45.1289C111.549 45.1289 110.768 45.6204 110.215 46.6035C109.668 47.5801 109.395 48.957 109.395 50.7344C109.395 51.9128 109.518 52.9219 109.766 53.7617C110.013 54.5951 110.371 55.2298 110.84 55.666C111.315 56.1022 111.888 56.3203 112.559 56.3203ZM120.664 58.1367C120.267 58.1367 119.928 58 119.648 57.7266C119.375 57.4531 119.238 57.1178 119.238 56.7207C119.238 56.3236 119.375 55.9883 119.648 55.7148C119.928 55.4414 120.267 55.3047 120.664 55.3047C121.061 55.3047 121.396 55.4414 121.67 55.7148C121.95 55.9883 122.09 56.3236 122.09 56.7207C122.09 57.1178 121.95 57.4531 121.67 57.7266C121.396 58 121.061 58.1367 120.664 58.1367ZM128.799 58.1953C127.816 58.1953 126.943 58.0293 126.182 57.6973C125.42 57.3587 124.818 56.89 124.375 56.291C123.932 55.6921 123.698 54.9987 123.672 54.2109H125.879C125.911 54.6406 126.058 55.0117 126.318 55.3242C126.579 55.6367 126.921 55.8809 127.344 56.0566C127.773 56.2259 128.252 56.3105 128.779 56.3105C129.352 56.3105 129.86 56.2096 130.303 56.0078C130.745 55.806 131.09 55.5293 131.338 55.1777C131.592 54.8197 131.719 54.4062 131.719 53.9375C131.719 53.4492 131.595 53.0195 131.348 52.6484C131.1 52.2708 130.739 51.9779 130.264 51.7695C129.788 51.5612 129.215 51.457 128.545 51.457H127.305V49.6602H128.545C129.079 49.6602 129.551 49.5625 129.961 49.3672C130.371 49.1719 130.69 48.9017 130.918 48.5566C131.152 48.2116 131.27 47.8047 131.27 47.3359C131.27 46.8867 131.169 46.4961 130.967 46.1641C130.765 45.8255 130.482 45.5651 130.117 45.3828C129.753 45.194 129.323 45.0996 128.828 45.0996C128.353 45.0996 127.91 45.1842 127.5 45.3535C127.09 45.5228 126.755 45.7669 126.494 46.0859C126.24 46.3984 126.107 46.7793 126.094 47.2285H123.975C123.994 46.4408 124.222 45.7507 124.658 45.1582C125.101 44.5592 125.687 44.0938 126.416 43.7617C127.152 43.4232 127.965 43.2539 128.857 43.2539C129.788 43.2539 130.592 43.4362 131.27 43.8008C131.953 44.1589 132.48 44.6406 132.852 45.2461C133.223 45.8451 133.408 46.4993 133.408 47.209C133.408 48.0358 133.18 48.7324 132.725 49.2988C132.269 49.8587 131.66 50.2396 130.898 50.4414V50.5488C131.862 50.6986 132.607 51.0827 133.135 51.7012C133.669 52.3197 133.936 53.0879 133.936 54.0059C133.936 54.8066 133.711 55.5228 133.262 56.1543C132.819 56.7858 132.21 57.2839 131.436 57.6484C130.667 58.013 129.788 58.1953 128.799 58.1953ZM140.85 58.1953C139.867 58.1953 138.994 58.0293 138.232 57.6973C137.471 57.3587 136.868 56.89 136.426 56.291C135.983 55.6921 135.749 54.9987 135.723 54.2109H137.93C137.962 54.6406 138.109 55.0117 138.369 55.3242C138.63 55.6367 138.971 55.8809 139.395 56.0566C139.824 56.2259 140.303 56.3105 140.83 56.3105C141.403 56.3105 141.911 56.2096 142.354 56.0078C142.796 55.806 143.141 55.5293 143.389 55.1777C143.643 54.8197 143.77 54.4062 143.77 53.9375C143.77 53.4492 143.646 53.0195 143.398 52.6484C143.151 52.2708 142.79 51.9779 142.314 51.7695C141.839 51.5612 141.266 51.457 140.596 51.457H139.355V49.6602H140.596C141.13 49.6602 141.602 49.5625 142.012 49.3672C142.422 49.1719 142.741 48.9017 142.969 48.5566C143.203 48.2116 143.32 47.8047 143.32 47.3359C143.32 46.8867 143.219 46.4961 143.018 46.1641C142.816 45.8255 142.533 45.5651 142.168 45.3828C141.803 45.194 141.374 45.0996 140.879 45.0996C140.404 45.0996 139.961 45.1842 139.551 45.3535C139.141 45.5228 138.805 45.7669 138.545 46.0859C138.291 46.3984 138.158 46.7793 138.145 47.2285H136.025C136.045 46.4408 136.273 45.7507 136.709 45.1582C137.152 44.5592 137.738 44.0938 138.467 43.7617C139.202 43.4232 140.016 43.2539 140.908 43.2539C141.839 43.2539 142.643 43.4362 143.32 43.8008C144.004 44.1589 144.531 44.6406 144.902 45.2461C145.273 45.8451 145.459 46.4993 145.459 47.209C145.459 48.0358 145.231 48.7324 144.775 49.2988C144.32 49.8587 143.711 50.2396 142.949 50.4414V50.5488C143.913 50.6986 144.658 51.0827 145.186 51.7012C145.719 52.3197 145.986 53.0879 145.986 54.0059C145.986 54.8066 145.762 55.5228 145.312 56.1543C144.87 56.7858 144.261 57.2839 143.486 57.6484C142.718 58.013 141.839 58.1953 140.85 58.1953Z" fill="#F46D6B"/>
<rect x="281.5" y="11.5" width="203" height="54" rx="27" stroke="url(#paint0_linear_2138_45082)"/>
<path d="M338.59 44.5L338.59 32.6L346.104 32.6L346.104 33.994L340.29 33.994L340.29 37.802L345.594 37.802L345.594 39.162L340.29 39.162L340.29 43.106L346.104 43.106L346.104 44.5L338.59 44.5ZM347.163 44.5L350.121 40.216L347.163 35.932L348.999 35.932L351.243 39.264L353.504 35.932L355.323 35.932L352.365 40.216L355.323 44.5L353.504 44.5L351.243 41.151L348.999 44.5L347.163 44.5ZM356.573 48.24L356.573 35.932L358.103 35.932L358.273 37.258C358.454 36.9973 358.681 36.7537 358.953 36.527C359.225 36.289 359.548 36.0963 359.922 35.949C360.307 35.8017 360.755 35.728 361.265 35.728C362.081 35.728 362.795 35.9263 363.407 36.323C364.03 36.7197 364.512 37.258 364.852 37.938C365.203 38.6067 365.379 39.3717 365.379 40.233C365.379 41.0943 365.203 41.865 364.852 42.545C364.5 43.2137 364.013 43.7407 363.39 44.126C362.778 44.5113 362.064 44.704 361.248 44.704C360.579 44.704 359.99 44.5737 359.48 44.313C358.97 44.041 358.567 43.667 358.273 43.191L358.273 48.24L356.573 48.24ZM360.976 43.225C361.497 43.225 361.956 43.1003 362.353 42.851C362.761 42.6017 363.078 42.2503 363.305 41.797C363.543 41.3437 363.662 40.8167 363.662 40.216C363.662 39.6153 363.543 39.094 363.305 38.652C363.078 38.1987 362.761 37.8473 362.353 37.598C361.956 37.3373 361.497 37.207 360.976 37.207C360.443 37.207 359.973 37.3373 359.565 37.598C359.168 37.8473 358.856 38.1987 358.63 38.652C358.403 39.094 358.29 39.6153 358.29 40.216C358.29 40.8167 358.403 41.3437 358.63 41.797C358.856 42.2503 359.168 42.6017 359.565 42.851C359.973 43.1003 360.443 43.225 360.976 43.225ZM371.036 44.704C370.231 44.704 369.506 44.517 368.86 44.143C368.225 43.769 367.721 43.2477 367.347 42.579C366.984 41.899 366.803 41.117 366.803 40.233C366.803 39.3263 366.99 38.5387 367.364 37.87C367.738 37.19 368.248 36.663 368.894 36.289C369.54 35.915 370.265 35.728 371.07 35.728C371.886 35.728 372.611 35.915 373.246 36.289C373.88 36.663 374.379 37.1843 374.742 37.853C375.116 38.5217 375.303 39.3093 375.303 40.216C375.303 41.1227 375.116 41.9103 374.742 42.579C374.379 43.2477 373.875 43.769 373.229 44.143C372.583 44.517 371.852 44.704 371.036 44.704ZM371.036 43.242C371.5 43.242 371.92 43.1287 372.294 42.902C372.679 42.6753 372.985 42.341 373.212 41.899C373.45 41.4457 373.569 40.8847 373.569 40.216C373.569 39.5473 373.455 38.992 373.229 38.55C373.002 38.0967 372.696 37.7567 372.311 37.53C371.937 37.3033 371.523 37.19 371.07 37.19C370.616 37.19 370.197 37.3033 369.812 37.53C369.426 37.7567 369.115 38.0967 368.877 38.55C368.65 38.992 368.537 39.5473 368.537 40.216C368.537 40.8847 368.65 41.4457 368.877 41.899C369.115 42.341 369.421 42.6753 369.795 42.902C370.18 43.1287 370.594 43.242 371.036 43.242ZM377.064 44.5L377.064 35.932L378.594 35.932L378.747 37.547C378.94 37.1617 379.189 36.8387 379.495 36.578C379.801 36.306 380.158 36.0963 380.566 35.949C380.986 35.8017 381.462 35.728 381.994 35.728L381.994 37.53L381.382 37.53C381.031 37.53 380.697 37.5753 380.379 37.666C380.062 37.7453 379.779 37.887 379.529 38.091C379.291 38.295 379.104 38.5727 378.968 38.924C378.832 39.2753 378.764 39.7117 378.764 40.233L378.764 44.5L377.064 44.5ZM386.854 44.5C386.31 44.5 385.839 44.415 385.443 44.245C385.046 44.075 384.74 43.7917 384.525 43.395C384.309 42.9983 384.202 42.46 384.202 41.78L384.202 37.377L382.723 37.377L382.723 35.932L384.202 35.932L384.406 33.79L385.902 33.79L385.902 35.932L388.333 35.932L388.333 37.377L385.902 37.377L385.902 41.797C385.902 42.2843 386.004 42.6187 386.208 42.8C386.412 42.97 386.763 43.055 387.262 43.055L388.248 43.055L388.248 44.5L386.854 44.5ZM397.889 44.704C397.073 44.704 396.353 44.5113 395.73 44.126C395.107 43.7293 394.619 43.1967 394.268 42.528C393.928 41.848 393.758 41.0773 393.758 40.216C393.758 39.3433 393.928 38.5727 394.268 37.904C394.619 37.2353 395.107 36.7083 395.73 36.323C396.365 35.9263 397.09 35.728 397.906 35.728C398.575 35.728 399.164 35.864 399.674 36.136C400.184 36.3967 400.581 36.7707 400.864 37.258L400.864 32.26L402.564 32.26L402.564 44.5L401.034 44.5L400.864 43.174C400.694 43.4347 400.473 43.684 400.201 43.922C399.929 44.1487 399.6 44.3357 399.215 44.483C398.83 44.6303 398.388 44.704 397.889 44.704ZM398.161 43.225C398.694 43.225 399.164 43.1003 399.572 42.851C399.98 42.6017 400.292 42.2503 400.507 41.797C400.734 41.3437 400.847 40.8167 400.847 40.216C400.847 39.6153 400.734 39.094 400.507 38.652C400.292 38.1987 399.98 37.8473 399.572 37.598C399.164 37.3373 398.694 37.207 398.161 37.207C397.651 37.207 397.192 37.3373 396.784 37.598C396.376 37.8473 396.059 38.1987 395.832 38.652C395.605 39.094 395.492 39.6153 395.492 40.216C395.492 40.8167 395.605 41.3437 395.832 41.797C396.059 42.2503 396.376 42.6017 396.784 42.851C397.192 43.1003 397.651 43.225 398.161 43.225ZM407.489 44.704C406.787 44.704 406.203 44.585 405.738 44.347C405.274 44.109 404.928 43.7917 404.701 43.395C404.475 42.987 404.361 42.5507 404.361 42.086C404.361 41.5193 404.509 41.0377 404.803 40.641C405.098 40.233 405.517 39.9213 406.061 39.706C406.605 39.4907 407.257 39.383 408.016 39.383L410.243 39.383C410.243 38.8843 410.17 38.4707 410.022 38.142C409.875 37.8133 409.654 37.5697 409.359 37.411C409.076 37.241 408.713 37.156 408.271 37.156C407.761 37.156 407.325 37.2807 406.962 37.53C406.6 37.768 406.373 38.125 406.282 38.601L404.582 38.601C404.65 38.0003 404.854 37.4903 405.194 37.071C405.546 36.6403 405.993 36.3117 406.537 36.085C407.081 35.847 407.659 35.728 408.271 35.728C409.076 35.728 409.75 35.8697 410.294 36.153C410.838 36.4363 411.246 36.8387 411.518 37.36C411.802 37.87 411.943 38.482 411.943 39.196L411.943 44.5L410.464 44.5L410.328 43.055C410.204 43.2817 410.056 43.497 409.886 43.701C409.716 43.905 409.512 44.0807 409.274 44.228C409.048 44.3753 408.781 44.4887 408.475 44.568C408.181 44.6587 407.852 44.704 407.489 44.704ZM407.812 43.327C408.175 43.327 408.504 43.2533 408.798 43.106C409.093 42.9587 409.342 42.7603 409.546 42.511C409.762 42.2503 409.92 41.9613 410.022 41.644C410.136 41.3153 410.198 40.981 410.209 40.641L410.209 40.59L408.186 40.59C407.699 40.59 407.302 40.6523 406.996 40.777C406.702 40.8903 406.486 41.049 406.35 41.253C406.214 41.457 406.146 41.695 406.146 41.967C406.146 42.2503 406.209 42.494 406.333 42.698C406.469 42.8907 406.662 43.0437 406.911 43.157C407.161 43.2703 407.461 43.327 407.812 43.327ZM417.229 44.5C416.685 44.5 416.214 44.415 415.818 44.245C415.421 44.075 415.115 43.7917 414.9 43.395C414.684 42.9983 414.577 42.46 414.577 41.78L414.577 37.377L413.098 37.377L413.098 35.932L414.577 35.932L414.781 33.79L416.277 33.79L416.277 35.932L418.708 35.932L418.708 37.377L416.277 37.377L416.277 41.797C416.277 42.2843 416.379 42.6187 416.583 42.8C416.787 42.97 417.138 43.055 417.637 43.055L418.623 43.055L418.623 44.5L417.229 44.5ZM423.183 44.704C422.481 44.704 421.897 44.585 421.432 44.347C420.968 44.109 420.622 43.7917 420.395 43.395C420.169 42.987 420.055 42.5507 420.055 42.086C420.055 41.5193 420.203 41.0377 420.497 40.641C420.792 40.233 421.211 39.9213 421.755 39.706C422.299 39.4907 422.951 39.383 423.71 39.383L425.937 39.383C425.937 38.8843 425.864 38.4707 425.716 38.142C425.569 37.8133 425.348 37.5697 425.053 37.411C424.77 37.241 424.407 37.156 423.965 37.156C423.455 37.156 423.019 37.2807 422.656 37.53C422.294 37.768 422.067 38.125 421.976 38.601L420.276 38.601C420.344 38.0003 420.548 37.4903 420.888 37.071C421.24 36.6403 421.687 36.3117 422.231 36.085C422.775 35.847 423.353 35.728 423.965 35.728C424.77 35.728 425.444 35.8697 425.988 36.153C426.532 36.4363 426.94 36.8387 427.212 37.36C427.496 37.87 427.637 38.482 427.637 39.196L427.637 44.5L426.158 44.5L426.022 43.055C425.898 43.2817 425.75 43.497 425.58 43.701C425.41 43.905 425.206 44.0807 424.968 44.228C424.742 44.3753 424.475 44.4887 424.169 44.568C423.875 44.6587 423.546 44.704 423.183 44.704ZM423.506 43.327C423.869 43.327 424.198 43.2533 424.492 43.106C424.787 42.9587 425.036 42.7603 425.24 42.511C425.456 42.2503 425.614 41.9613 425.716 41.644C425.83 41.3153 425.892 40.981 425.903 40.641L425.903 40.59L423.88 40.59C423.393 40.59 422.996 40.6523 422.69 40.777C422.396 40.8903 422.18 41.049 422.044 41.253C421.908 41.457 421.84 41.695 421.84 41.967C421.84 42.2503 421.903 42.494 422.027 42.698C422.163 42.8907 422.356 43.0437 422.605 43.157C422.855 43.2703 423.155 43.327 423.506 43.327Z" fill="white"/>
<defs>
<linearGradient id="paint0_linear_2138_45082" x1="351.24" y1="18.5749" x2="414.099" y2="105.815" gradientUnits="userSpaceOnUse">
<stop stop-color="#732CFF"/>
<stop offset="1" stop-color="#F46D6B"/>
</linearGradient>
</defs>
</svg>
