<svg width="1920" height="1080" viewBox="0 0 1920 1080" fill="none" xmlns="http://www.w3.org/2000/svg">
<path d="M1613.49 104.839L1614.49 104.666L1615.01 103.79L1615.19 104.795L1616.06 105.317L1615.06 105.491L1614.53 106.367L1614.36 105.362L1613.49 104.839Z" fill="#6F6C7D"/>
<path d="M1644.67 318.866L1645.67 318.693L1646.2 317.817L1646.37 318.822L1647.25 319.344L1646.24 319.518L1645.72 320.394L1645.54 319.389L1644.67 318.866Z" fill="#6F6C7D"/>
<path d="M1275.11 667.862L1276.11 667.688L1276.64 666.812L1276.81 667.817L1277.69 668.34L1276.68 668.513L1276.16 669.389L1275.99 668.384L1275.11 667.862Z" fill="#6F6C7D"/>
<path d="M874.194 801.296L875.199 801.123L875.721 800.247L875.895 801.252L876.77 801.774L875.765 801.948L875.243 802.824L875.069 801.819L874.194 801.296Z" fill="#6F6C7D"/>
<path d="M767.57 577.26L768.575 577.086L769.097 576.21L769.271 577.215L770.147 577.737L769.142 577.911L768.62 578.787L768.446 577.782L767.57 577.26Z" fill="#6F6C7D"/>
<path d="M875.22 504.271L876.225 504.097L876.748 503.221L876.921 504.226L877.797 504.749L876.792 504.922L876.27 505.798L876.096 504.793L875.22 504.271Z" fill="#6F6C7D"/>
<path d="M876.648 656.317L877.653 656.143L878.175 655.267L878.349 656.272L879.225 656.795L878.22 656.968L877.697 657.844L877.524 656.839L876.648 656.317Z" fill="#6F6C7D"/>
<path d="M696.184 741.275L697.189 741.101L697.711 740.225L697.885 741.23L698.761 741.753L697.756 741.926L697.233 742.802L697.06 741.797L696.184 741.275Z" fill="#6F6C7D"/>
<path d="M762.233 928.019L763.238 927.846L763.761 926.97L763.934 927.975L764.81 928.497L763.805 928.671L763.283 929.547L763.109 928.542L762.233 928.019Z" fill="#6F6C7D"/>
<path d="M1347.66 210.424L1348.67 210.251L1349.19 209.375L1349.36 210.38L1350.24 210.902L1349.23 211.076L1348.71 211.952L1348.54 210.947L1347.66 210.424Z" fill="#6F6C7D"/>
<path d="M1536.76 76.0052L1537.77 75.8317L1538.29 74.9558L1538.46 75.9608L1539.34 76.4832L1538.33 76.6568L1537.81 77.5327L1537.64 76.5277L1536.76 76.0052Z" fill="#6F6C7D"/>
<path d="M1397.61 131.058L1398.62 130.885L1399.14 130.009L1399.31 131.014L1400.19 131.536L1399.18 131.71L1398.66 132.586L1398.49 131.581L1397.61 131.058Z" fill="#6F6C7D"/>
<path d="M1348.17 842.123L1349.18 841.95L1349.7 841.074L1349.87 842.079L1350.75 842.601L1349.74 842.775L1349.22 843.651L1349.05 842.646L1348.17 842.123Z" fill="#6F6C7D"/>
<path d="M1058.56 911.032L1059.57 910.858L1060.09 909.982L1060.26 910.987L1061.14 911.51L1060.14 911.683L1059.61 912.559L1059.44 911.554L1058.56 911.032Z" fill="#6F6C7D"/>
<path d="M1259.71 218.537L1260.72 218.363L1261.24 217.488L1261.41 218.493L1262.29 219.015L1261.28 219.189L1260.76 220.064L1260.59 219.059L1259.71 218.537Z" fill="#6F6C7D"/>
<path d="M857.226 1059.25L858.231 1059.07L858.753 1058.2L858.927 1059.2L859.803 1059.72L858.798 1059.9L858.275 1060.77L858.102 1059.77L857.226 1059.25Z" fill="#6F6C7D"/>
<path d="M1504.61 781.962L1505.62 781.789L1506.14 780.913L1506.31 781.918L1507.19 782.44L1506.18 782.614L1505.66 783.49L1505.49 782.485L1504.61 781.962Z" fill="#6F6C7D"/>
<path d="M1632.37 395.669L1633.37 395.495L1633.89 394.619L1634.07 395.624L1634.94 396.147L1633.94 396.32L1633.42 397.196L1633.24 396.191L1632.37 395.669Z" fill="#6F6C7D"/>
<path d="M1883.3 425.12L1884.31 424.946L1884.83 424.07L1885.01 425.075L1885.88 425.598L1884.88 425.771L1884.35 426.647L1884.18 425.642L1883.3 425.12Z" fill="white"/>
<path d="M1789.71 258.312L1790.72 258.139L1791.24 257.263L1791.42 258.268L1792.29 258.79L1791.29 258.964L1790.76 259.84L1790.59 258.835L1789.71 258.312Z" fill="white"/>
<path d="M1582.82 226.606L1583.83 226.433L1584.35 225.557L1584.52 226.562L1585.4 227.084L1584.39 227.258L1583.87 228.134L1583.7 227.129L1582.82 226.606Z" fill="white"/>
<path d="M1411.96 488.552L1412.97 488.379L1413.49 487.503L1413.66 488.508L1414.54 489.03L1413.54 489.204L1413.01 490.08L1412.84 489.075L1411.96 488.552Z" fill="white"/>
<path d="M1078.67 727.346L1079.68 727.172L1080.2 726.296L1080.38 727.301L1081.25 727.824L1080.25 727.997L1079.72 728.873L1079.55 727.868L1078.67 727.346Z" fill="white"/>
<path d="M814.661 725.878L815.666 725.704L816.189 724.828L816.362 725.833L817.238 726.356L816.233 726.529L815.711 727.405L815.537 726.4L814.661 725.878Z" fill="white"/>
<path d="M1471.57 263.929L1472.58 263.755L1473.1 262.879L1473.27 263.884L1474.15 264.407L1473.15 264.58L1472.62 265.456L1472.45 264.451L1471.57 263.929Z" fill="white"/>
<path d="M1544.93 7.13354L1545.93 6.95998L1546.46 6.08407L1546.63 7.08907L1547.51 7.61151L1546.5 7.78507L1545.98 8.66098L1545.81 7.65598L1544.93 7.13354Z" fill="white"/>
<path d="M1443.8 155.643L1444.81 155.47L1445.33 154.594L1445.5 155.599L1446.38 156.121L1445.37 156.295L1444.85 157.171L1444.68 156.166L1443.8 155.643Z" fill="white"/>
<g filter="url(#filter0_f_2063_43085)">
<path d="M1454.07 364.247L1455.08 364.074L1455.6 363.198L1455.77 364.203L1456.65 364.725L1455.64 364.899L1455.12 365.775L1454.95 364.77L1454.07 364.247Z" fill="white"/>
</g>
<g filter="url(#filter1_f_2063_43085)">
<path d="M1213.12 737.423L1214.13 737.249L1214.65 736.373L1214.82 737.378L1215.7 737.901L1214.7 738.074L1214.17 738.95L1214 737.945L1213.12 737.423Z" fill="white"/>
</g>
<g filter="url(#filter2_f_2063_43085)">
<path d="M1198.31 986.408L1199.31 986.234L1199.83 985.358L1200.01 986.363L1200.88 986.886L1199.88 987.059L1199.36 987.935L1199.18 986.93L1198.31 986.408Z" fill="white"/>
</g>
<g filter="url(#filter3_f_2063_43085)">
<path d="M951.155 1040.63L952.16 1040.46L952.682 1039.58L952.856 1040.59L953.731 1041.11L952.726 1041.28L952.204 1042.16L952.03 1041.16L951.155 1040.63Z" fill="white"/>
</g>
<g filter="url(#filter4_f_2063_43085)">
<path d="M1540.07 708.152L1541.07 707.978L1541.59 707.102L1541.77 708.107L1542.64 708.63L1541.64 708.803L1541.11 709.679L1540.94 708.674L1540.07 708.152Z" fill="white"/>
</g>
<g filter="url(#filter5_f_2063_43085)">
<path d="M1668.93 516.105L1669.94 515.931L1670.46 515.056L1670.63 516.061L1671.51 516.583L1670.51 516.757L1669.98 517.632L1669.81 516.627L1668.93 516.105Z" fill="white"/>
</g>
<g filter="url(#filter6_f_2063_43085)">
<path d="M1163.74 594.167L1164.75 593.993L1165.27 593.117L1165.44 594.122L1166.32 594.644L1165.31 594.818L1164.79 595.694L1164.62 594.689L1163.74 594.167Z" fill="white"/>
</g>
<g filter="url(#filter7_f_2063_43085)">
<path d="M1022.29 605.045L1025.37 604.513L1026.97 601.827L1027.5 604.909L1030.19 606.511L1027.11 607.043L1025.51 609.729L1024.97 606.647L1022.29 605.045Z" fill="#868592"/>
</g>
<g filter="url(#filter8_f_2063_43085)">
<path d="M974.784 878.927L977.866 878.394L979.468 875.708L980 878.79L982.686 880.392L979.604 880.924L978.002 883.611L977.47 880.529L974.784 878.927Z" fill="#6E6B7C"/>
</g>
<g filter="url(#filter9_f_2063_43085)">
<path d="M1420.55 778.456L1423.63 777.924L1425.23 775.238L1425.76 778.32L1428.45 779.922L1425.37 780.454L1423.77 783.14L1423.23 780.058L1420.55 778.456Z" fill="#868592"/>
</g>
<g filter="url(#filter10_f_2063_43085)">
<path d="M818.379 889.681L821.461 889.149L823.063 886.463L823.596 889.545L826.282 891.147L823.2 891.679L821.598 894.365L821.065 891.283L818.379 889.681Z" fill="white"/>
</g>
<g filter="url(#filter11_f_2063_43085)">
<path d="M1403.65 606.745L1406.73 606.213L1408.34 603.527L1408.87 606.609L1411.55 608.211L1408.47 608.743L1406.87 611.43L1406.34 608.348L1403.65 606.745Z" fill="#868592"/>
</g>
<g filter="url(#filter12_f_2063_43085)">
<path d="M1702.51 144.737L1705.6 144.205L1707.2 141.519L1707.73 144.601L1710.42 146.203L1707.33 146.735L1705.73 149.421L1705.2 146.339L1702.51 144.737Z" fill="white"/>
</g>
<g filter="url(#filter13_f_2063_43085)">
<path d="M1650.33 72.6437L1653.41 72.1114L1655.01 69.4254L1655.54 72.5073L1658.23 74.1094L1655.15 74.6417L1653.54 77.3277L1653.01 74.2458L1650.33 72.6437Z" fill="white"/>
</g>
<g filter="url(#filter14_f_2063_43085)">
<path d="M1561.78 281.175L1564.87 280.643L1566.47 277.957L1567 281.039L1569.69 282.641L1566.6 283.173L1565 285.859L1564.47 282.777L1561.78 281.175Z" fill="#6E6B7C"/>
</g>
<g filter="url(#filter15_f_2063_43085)">
<path d="M1355.51 366.296L1358.6 365.764L1360.2 363.078L1360.73 366.16L1363.42 367.762L1360.33 368.294L1358.73 370.98L1358.2 367.898L1355.51 366.296Z" fill="white"/>
</g>
<g filter="url(#filter16_f_2063_43085)">
<path d="M1419.49 226.159L1422.58 225.627L1424.18 222.941L1424.71 226.023L1427.4 227.625L1424.32 228.157L1422.71 230.843L1422.18 227.761L1419.49 226.159Z" fill="white"/>
</g>
<g opacity="0.5">
<path d="M1856.01 844.407L1856.85 844.995L1857.83 844.745L1857.25 845.578L1857.5 846.567L1856.66 845.979L1855.67 846.229L1856.26 845.395L1856.01 844.407Z" fill="#6F6C7D"/>
<path d="M1347.92 829.866L1348.75 830.454L1349.74 830.204L1349.15 831.038L1349.4 832.026L1348.57 831.438L1347.58 831.688L1348.17 830.855L1347.92 829.866Z" fill="#6F6C7D"/>
<path d="M970.074 640.728L970.908 641.316L971.896 641.066L971.308 641.9L971.558 642.888L970.725 642.301L969.736 642.551L970.324 641.717L970.074 640.728Z" fill="#6F6C7D"/>
<path d="M1053.1 406.916L1053.93 407.504L1054.92 407.254L1054.33 408.088L1054.58 409.076L1053.75 408.488L1052.76 408.738L1053.35 407.905L1053.1 406.916Z" fill="#6F6C7D"/>
<path d="M1180.83 431.426L1181.66 432.014L1182.65 431.764L1182.06 432.597L1182.31 433.586L1181.48 432.998L1180.49 433.248L1181.08 432.415L1180.83 431.426Z" fill="#6F6C7D"/>
<path d="M1074.33 539.948L1075.16 540.536L1076.15 540.286L1075.56 541.119L1075.81 542.108L1074.98 541.52L1073.99 541.77L1074.58 540.937L1074.33 539.948Z" fill="#6F6C7D"/>
<path d="M886.644 472.415L887.477 473.003L888.466 472.753L887.878 473.586L888.128 474.575L887.294 473.987L886.306 474.237L886.893 473.404L886.644 472.415Z" fill="#6F6C7D"/>
<path d="M801.299 651.167L802.133 651.755L803.121 651.505L802.534 652.338L802.783 653.327L801.95 652.739L800.961 652.989L801.549 652.156L801.299 651.167Z" fill="#6F6C7D"/>
<path d="M1722.68 557.711L1723.51 558.299L1724.5 558.049L1723.91 558.882L1724.16 559.871L1723.33 559.283L1722.34 559.533L1722.93 558.7L1722.68 557.711Z" fill="#6F6C7D"/>
<path d="M1814.12 536.911L1814.95 537.499L1815.94 537.249L1815.35 538.082L1815.6 539.071L1814.77 538.483L1813.78 538.733L1814.37 537.9L1814.12 536.911Z" fill="#6F6C7D"/>
<path d="M1276.36 1004.75L1277.19 1005.34L1278.18 1005.09L1277.59 1005.92L1277.84 1006.91L1277.01 1006.32L1276.02 1006.57L1276.61 1005.74L1276.36 1004.75Z" fill="#6F6C7D"/>
<path d="M738.567 947.981L739.4 948.569L740.389 948.319L739.801 949.153L740.051 950.141L739.218 949.554L738.229 949.804L738.817 948.97L738.567 947.981Z" fill="#6F6C7D"/>
<path d="M1022.85 848.692L1023.68 849.28L1024.67 849.03L1024.08 849.863L1024.33 850.852L1023.5 850.264L1022.51 850.514L1023.1 849.681L1022.85 848.692Z" fill="#6F6C7D"/>
<path d="M1654.75 501.257L1655.58 501.845L1656.57 501.595L1655.98 502.429L1656.23 503.418L1655.4 502.83L1654.41 503.08L1655 502.246L1654.75 501.257Z" fill="#6F6C7D"/>
<path d="M775.678 811.128L776.512 811.716L777.5 811.466L776.912 812.3L777.162 813.288L776.329 812.7L775.34 812.95L775.928 812.117L775.678 811.128Z" fill="#6F6C7D"/>
<path d="M1429.52 1072.83L1430.35 1073.42L1431.34 1073.17L1430.75 1074L1431 1074.99L1430.17 1074.4L1429.18 1074.65L1429.77 1073.82L1429.52 1072.83Z" fill="#6F6C7D"/>
<path d="M1793.01 890.016L1793.84 890.604L1794.83 890.354L1794.24 891.187L1794.49 892.176L1793.66 891.588L1792.67 891.838L1793.26 891.005L1793.01 890.016Z" fill="#6F6C7D"/>
<path d="M1877.52 735.436L1878.35 736.024L1879.34 735.774L1878.75 736.608L1879 737.597L1878.17 737.009L1877.18 737.259L1877.77 736.425L1877.52 735.436Z" fill="white"/>
<path d="M1571.48 799.846L1572.31 800.434L1573.3 800.184L1572.71 801.017L1572.96 802.006L1572.13 801.418L1571.14 801.668L1571.73 800.834L1571.48 799.846Z" fill="white"/>
<path d="M1166.95 733.027L1167.79 733.615L1168.78 733.365L1168.19 734.199L1168.44 735.188L1167.61 734.6L1166.62 734.85L1167.2 734.016L1166.95 733.027Z" fill="white"/>
<path d="M981.308 545.304L982.141 545.892L983.13 545.642L982.542 546.475L982.792 547.464L981.958 546.876L980.97 547.126L981.558 546.293L981.308 545.304Z" fill="white"/>
<path d="M1772.46 683.164L1773.29 683.751L1774.28 683.502L1773.7 684.335L1773.95 685.324L1773.11 684.736L1772.12 684.986L1772.71 684.152L1772.46 683.164Z" fill="white"/>
<path d="M1829.39 586.957L1830.23 587.545L1831.22 587.295L1830.63 588.128L1830.88 589.117L1830.04 588.529L1829.06 588.779L1829.64 587.946L1829.39 586.957Z" fill="white"/>
<g filter="url(#filter17_f_2063_43085)">
<path d="M1689.15 741.725L1689.98 742.313L1690.97 742.063L1690.39 742.896L1690.64 743.885L1689.8 743.297L1688.81 743.547L1689.4 742.713L1689.15 741.725Z" fill="white"/>
</g>
<g filter="url(#filter18_f_2063_43085)">
<path d="M1254.9 835.222L1255.73 835.81L1256.72 835.56L1256.13 836.394L1256.38 837.383L1255.55 836.795L1254.56 837.045L1255.15 836.211L1254.9 835.222Z" fill="white"/>
</g>
<g filter="url(#filter19_f_2063_43085)">
<path d="M1068.36 1000.8L1069.2 1001.39L1070.19 1001.14L1069.6 1001.98L1069.85 1002.97L1069.01 1002.38L1068.03 1002.63L1068.61 1001.79L1068.36 1000.8Z" fill="white"/>
</g>
<g filter="url(#filter20_f_2063_43085)">
<path d="M855.257 864.384L856.09 864.972L857.079 864.722L856.491 865.556L856.741 866.544L855.908 865.956L854.919 866.206L855.507 865.373L855.257 864.384Z" fill="white"/>
</g>
<g filter="url(#filter21_f_2063_43085)">
<path d="M1506.78 1045.71L1507.61 1046.3L1508.6 1046.05L1508.01 1046.88L1508.26 1047.87L1507.43 1047.28L1506.44 1047.53L1507.03 1046.7L1506.78 1045.71Z" fill="white"/>
</g>
<g filter="url(#filter22_f_2063_43085)">
<path d="M1733.7 1001.03L1734.53 1001.62L1735.52 1001.37L1734.93 1002.21L1735.18 1003.19L1734.35 1002.61L1733.36 1002.86L1733.95 1002.02L1733.7 1001.03Z" fill="white"/>
</g>
<g filter="url(#filter23_f_2063_43085)">
<path d="M1321.28 699.006L1322.11 699.594L1323.1 699.344L1322.51 700.178L1322.76 701.166L1321.93 700.578L1320.94 700.828L1321.53 699.995L1321.28 699.006Z" fill="white"/>
</g>
<g filter="url(#filter24_f_2063_43085)">
<path d="M1213.56 606.676L1216.12 608.479L1219.15 607.712L1217.35 610.268L1218.11 613.3L1215.56 611.497L1212.53 612.264L1214.33 609.708L1213.56 606.676Z" fill="#868592"/>
</g>
<g filter="url(#filter25_f_2063_43085)">
<path d="M986.309 766.749L988.865 768.552L991.897 767.786L990.094 770.341L990.861 773.374L988.305 771.571L985.273 772.337L987.076 769.782L986.309 766.749Z" fill="#6E6B7C"/>
</g>
<g filter="url(#filter26_f_2063_43085)">
<path d="M1372.56 1010.91L1375.11 1012.71L1378.14 1011.95L1376.34 1014.5L1377.11 1017.53L1374.55 1015.73L1371.52 1016.5L1373.32 1013.94L1372.56 1010.91Z" fill="#868592"/>
</g>
<g filter="url(#filter27_f_2063_43085)">
<path d="M868.11 663.759L870.666 665.562L873.698 664.796L871.895 667.351L872.661 670.384L870.106 668.581L867.074 669.347L868.876 666.792L868.11 663.759Z" fill="white"/>
</g>
<g filter="url(#filter28_f_2063_43085)">
<path d="M1482.03 877.543L1484.58 879.346L1487.61 878.58L1485.81 881.136L1486.58 884.168L1484.02 882.365L1480.99 883.131L1482.79 880.576L1482.03 877.543Z" fill="#868592"/>
</g>
<g filter="url(#filter29_f_2063_43085)">
<path d="M1824.05 759.147L1826.61 760.95L1829.64 760.183L1827.84 762.739L1828.61 765.771L1826.05 763.968L1823.02 764.735L1824.82 762.179L1824.05 759.147Z" fill="#6E6B7C"/>
</g>
<g filter="url(#filter30_f_2063_43085)">
<path d="M1618.01 673.482L1620.57 675.285L1623.6 674.518L1621.79 677.074L1622.56 680.106L1620.01 678.303L1616.97 679.07L1618.78 676.514L1618.01 673.482Z" fill="white"/>
</g>
<g filter="url(#filter31_f_2063_43085)">
<path d="M1762.34 619.631L1764.9 621.434L1767.93 620.667L1766.13 623.223L1766.89 626.255L1764.34 624.452L1761.31 625.219L1763.11 622.663L1762.34 619.631Z" fill="white"/>
</g>
</g>
<path d="M369.266 241.53L370.285 241.485L370.915 240.683L370.959 241.702L371.762 242.331L370.743 242.376L370.113 243.178L370.069 242.159L369.266 241.53Z" fill="#6F6C7D"/>
<path d="M373.031 457.784L374.05 457.739L374.679 456.937L374.724 457.956L375.526 458.585L374.507 458.63L373.878 459.432L373.833 458.413L373.031 457.784Z" fill="#6F6C7D"/>
<path d="M92.1906 312.519L93.2095 312.475L93.8389 311.672L93.8835 312.691L94.686 313.32L93.6671 313.365L93.0377 314.168L92.9931 313.149L92.1906 312.519Z" fill="#6F6C7D"/>
<path d="M296.825 203.191L297.844 203.146L298.473 202.344L298.518 203.362L299.32 203.992L298.301 204.036L297.672 204.839L297.627 203.82L296.825 203.191Z" fill="#6F6C7D"/>
<path d="M151.811 240.135L152.83 240.091L153.459 239.288L153.504 240.307L154.306 240.937L153.287 240.981L152.658 241.784L152.613 240.765L151.811 240.135Z" fill="#6F6C7D"/>
<path d="M12.5134 939.174L13.5323 939.129L14.1617 938.326L14.2063 939.345L15.0088 939.975L13.9899 940.019L13.3605 940.822L13.3159 939.803L12.5134 939.174Z" fill="#6F6C7D"/>
<path d="M3.92232 309.403L4.94123 309.358L5.57062 308.556L5.61521 309.575L6.41772 310.204L5.39882 310.249L4.76943 311.051L4.72483 310.032L3.92232 309.403Z" fill="#6F6C7D"/>
<path d="M175.325 899.356L176.344 899.312L176.973 898.509L177.018 899.528L177.82 900.157L176.801 900.202L176.172 901.005L176.127 899.986L175.325 899.356Z" fill="#6F6C7D"/>
<path d="M351.08 532.404L352.099 532.359L352.729 531.557L352.773 532.576L353.576 533.205L352.557 533.25L351.927 534.052L351.883 533.033L351.08 532.404Z" fill="#6F6C7D"/>
<path d="M596.25 593.469L597.269 593.424L597.898 592.622L597.943 593.64L598.745 594.27L597.726 594.314L597.097 595.117L597.052 594.098L596.25 593.469Z" fill="white"/>
<path d="M524.59 416.13L525.608 416.086L526.238 415.283L526.282 416.302L527.085 416.932L526.066 416.976L525.437 417.779L525.392 416.76L524.59 416.13Z" fill="white"/>
<path d="M323.394 358.42L324.413 358.375L325.043 357.573L325.087 358.591L325.89 359.221L324.871 359.265L324.241 360.068L324.197 359.049L323.394 358.42Z" fill="white"/>
<path d="M120.669 596.56L121.688 596.515L122.318 595.713L122.362 596.731L123.165 597.361L122.146 597.405L121.516 598.208L121.472 597.189L120.669 596.56Z" fill="white"/>
<path d="M208.309 381.32L209.328 381.275L209.958 380.472L210.002 381.491L210.805 382.121L209.786 382.165L209.156 382.968L209.112 381.949L208.309 381.32Z" fill="white"/>
<path d="M313.668 135.913L314.687 135.868L315.316 135.066L315.361 136.085L316.163 136.714L315.144 136.758L314.515 137.561L314.47 136.542L313.668 135.913Z" fill="white"/>
<path d="M194.507 270.385L195.526 270.34L196.155 269.538L196.2 270.557L197.002 271.186L195.984 271.231L195.354 272.033L195.31 271.014L194.507 270.385Z" fill="white"/>
<g filter="url(#filter32_f_2063_43085)">
<path d="M178.217 478.605L179.236 478.56L179.865 477.758L179.91 478.777L180.712 479.406L179.693 479.451L179.064 480.253L179.02 479.234L178.217 478.605Z" fill="white"/>
</g>
<g filter="url(#filter33_f_2063_43085)">
<path d="M219.861 830.643L220.88 830.598L221.509 829.796L221.554 830.815L222.356 831.444L221.338 831.489L220.708 832.291L220.664 831.272L219.861 830.643Z" fill="white"/>
</g>
<g filter="url(#filter34_f_2063_43085)">
<path d="M372.064 656.507L373.083 656.463L373.712 655.66L373.757 656.679L374.56 657.308L373.541 657.353L372.911 658.156L372.867 657.137L372.064 656.507Z" fill="white"/>
</g>
<g filter="url(#filter35_f_2063_43085)">
<path d="M92.3867 885.208L95.5112 885.071L97.4413 882.61L97.5781 885.735L100.039 887.665L96.9145 887.802L94.9844 890.263L94.8476 887.138L92.3867 885.208Z" fill="#868592"/>
</g>
<g filter="url(#filter36_f_2063_43085)">
<path d="M97.4223 712.742L100.547 712.605L102.477 710.144L102.614 713.269L105.075 715.199L101.95 715.336L100.02 717.797L99.8833 714.672L97.4223 712.742Z" fill="#868592"/>
</g>
<g filter="url(#filter37_f_2063_43085)">
<path d="M452.51 292.405L455.635 292.269L457.565 289.808L457.702 292.932L460.163 294.862L457.038 294.999L455.108 297.46L454.971 294.336L452.51 292.405Z" fill="white"/>
</g>
<g filter="url(#filter38_f_2063_43085)">
<path d="M409.896 214.271L413.021 214.134L414.951 211.673L415.087 214.798L417.548 216.728L414.424 216.865L412.494 219.326L412.357 216.201L409.896 214.271Z" fill="white"/>
</g>
<g filter="url(#filter39_f_2063_43085)">
<path d="M295.601 409.877L298.726 409.74L300.656 407.279L300.792 410.404L303.253 412.334L300.129 412.47L298.199 414.931L298.062 411.807L295.601 409.877Z" fill="#6E6B7C"/>
</g>
<g filter="url(#filter40_f_2063_43085)">
<path d="M80.1948 468.127L83.3194 467.991L85.2494 465.53L85.3862 468.654L87.8472 470.584L84.7226 470.721L82.7925 473.182L82.6558 470.058L80.1948 468.127Z" fill="white"/>
</g>
<g filter="url(#filter41_f_2063_43085)">
<path d="M161.446 337.245L164.57 337.108L166.5 334.647L166.637 337.772L169.098 339.702L165.974 339.839L164.043 342.3L163.907 339.175L161.446 337.245Z" fill="white"/>
</g>
<g opacity="0.5">
<path d="M666.209 850.323L666.961 851.012L667.974 850.89L667.285 851.642L667.407 852.654L666.655 851.966L665.643 852.088L666.332 851.336L666.209 850.323Z" fill="#6F6C7D"/>
<path d="M515.957 1005.9L516.709 1006.59L517.721 1006.47L517.032 1007.22L517.155 1008.23L516.403 1007.54L515.39 1007.66L516.079 1006.91L515.957 1005.9Z" fill="#6F6C7D"/>
<path d="M13.8171 926.983L14.5691 927.672L15.5816 927.55L14.8927 928.302L15.0151 929.314L14.2631 928.625L13.2506 928.748L13.9395 927.996L13.8171 926.983Z" fill="#6F6C7D"/>
<path d="M420.09 704.598L420.842 705.287L421.855 705.165L421.166 705.917L421.288 706.929L420.536 706.24L419.524 706.363L420.213 705.611L420.09 704.598Z" fill="#6F6C7D"/>
<path d="M642.096 771.99L642.848 772.678L643.86 772.556L643.171 773.308L643.294 774.321L642.542 773.632L641.529 773.754L642.218 773.002L642.096 771.99Z" fill="#6F6C7D"/>
<path d="M513.431 695.573L514.183 696.262L515.196 696.14L514.507 696.892L514.629 697.904L513.877 697.215L512.865 697.338L513.554 696.586L513.431 695.573Z" fill="#6F6C7D"/>
<path d="M359.879 639.979L360.631 640.668L361.643 640.546L360.954 641.298L361.077 642.31L360.325 641.621L359.312 641.744L360.001 640.992L359.879 639.979Z" fill="#6F6C7D"/>
<path d="M447.671 1043.14L448.423 1043.83L449.435 1043.71L448.746 1044.46L448.869 1045.47L448.117 1044.78L447.104 1044.91L447.793 1044.16L447.671 1043.14Z" fill="#6F6C7D"/>
<path d="M551.12 900.54L551.872 901.229L552.884 901.107L552.195 901.859L552.318 902.871L551.566 902.182L550.553 902.305L551.242 901.553L551.12 900.54Z" fill="white"/>
<path d="M239.381 925.583L240.133 926.272L241.145 926.149L240.456 926.901L240.579 927.914L239.827 927.225L238.814 927.347L239.503 926.595L239.381 925.583Z" fill="white"/>
<path d="M453.549 835.356L454.301 836.044L455.314 835.922L454.625 836.674L454.747 837.687L453.995 836.998L452.983 837.12L453.672 836.368L453.549 835.356Z" fill="white"/>
<path d="M701.578 736.326L702.33 737.015L703.343 736.893L702.654 737.645L702.776 738.657L702.024 737.969L701.012 738.091L701.701 737.339L701.578 736.326Z" fill="white"/>
<path d="M522.232 747.153L522.984 747.842L523.997 747.72L523.308 748.472L523.43 749.484L522.678 748.796L521.666 748.918L522.355 748.166L522.232 747.153Z" fill="white"/>
<g filter="url(#filter42_f_2063_43085)">
<path d="M363.479 882.868L364.231 883.557L365.244 883.435L364.555 884.187L364.677 885.199L363.925 884.51L362.913 884.633L363.602 883.881L363.479 882.868Z" fill="white"/>
</g>
<g filter="url(#filter43_f_2063_43085)">
<path d="M4.00366 793.8L4.75566 794.489L5.76817 794.367L5.07923 795.119L5.20164 796.131L4.44963 795.443L3.43713 795.565L4.12607 794.813L4.00366 793.8Z" fill="white"/>
</g>
<g filter="url(#filter44_f_2063_43085)">
<path d="M140.79 991.298L143.096 993.41L146.201 993.035L144.088 995.341L144.463 998.446L142.157 996.333L139.052 996.709L141.165 994.403L140.79 991.298Z" fill="#868592"/>
</g>
<g filter="url(#filter45_f_2063_43085)">
<path d="M689.097 945.16L691.403 947.273L694.508 946.897L692.395 949.203L692.771 952.308L690.465 950.196L687.36 950.571L689.473 948.265L689.097 945.16Z" fill="white"/>
</g>
<g filter="url(#filter46_f_2063_43085)">
<path d="M714.214 859.778L716.52 861.89L719.625 861.515L717.512 863.821L717.888 866.926L715.581 864.813L712.477 865.189L714.589 862.883L714.214 859.778Z" fill="white"/>
</g>
<g filter="url(#filter47_f_2063_43085)">
<path d="M495.081 917.273L497.387 919.386L500.492 919.011L498.379 921.317L498.755 924.422L496.449 922.309L493.344 922.684L495.456 920.378L495.081 917.273Z" fill="#6E6B7C"/>
</g>
<g filter="url(#filter48_f_2063_43085)">
<path d="M301.576 806.147L303.882 808.26L306.987 807.885L304.874 810.191L305.25 813.296L302.944 811.183L299.839 811.558L301.952 809.252L301.576 806.147Z" fill="white"/>
</g>
<g filter="url(#filter49_f_2063_43085)">
<path d="M451.578 771.053L453.884 773.165L456.989 772.79L454.876 775.096L455.251 778.201L452.945 776.088L449.84 776.464L451.953 774.158L451.578 771.053Z" fill="white"/>
</g>
</g>
<defs>
<filter id="filter0_f_2063_43085" x="1453.07" y="362.198" width="4.57715" height="4.5769" filterUnits="userSpaceOnUse" color-interpolation-filters="sRGB">
<feFlood flood-opacity="0" result="BackgroundImageFix"/>
<feBlend mode="normal" in="SourceGraphic" in2="BackgroundImageFix" result="shape"/>
<feGaussianBlur stdDeviation="0.5" result="effect1_foregroundBlur_2063_43085"/>
</filter>
<filter id="filter1_f_2063_43085" x="1212.12" y="735.373" width="4.57715" height="4.5769" filterUnits="userSpaceOnUse" color-interpolation-filters="sRGB">
<feFlood flood-opacity="0" result="BackgroundImageFix"/>
<feBlend mode="normal" in="SourceGraphic" in2="BackgroundImageFix" result="shape"/>
<feGaussianBlur stdDeviation="0.5" result="effect1_foregroundBlur_2063_43085"/>
</filter>
<filter id="filter2_f_2063_43085" x="1197.31" y="984.358" width="4.57715" height="4.5769" filterUnits="userSpaceOnUse" color-interpolation-filters="sRGB">
<feFlood flood-opacity="0" result="BackgroundImageFix"/>
<feBlend mode="normal" in="SourceGraphic" in2="BackgroundImageFix" result="shape"/>
<feGaussianBlur stdDeviation="0.5" result="effect1_foregroundBlur_2063_43085"/>
</filter>
<filter id="filter3_f_2063_43085" x="950.154" y="1038.58" width="4.57715" height="4.5769" filterUnits="userSpaceOnUse" color-interpolation-filters="sRGB">
<feFlood flood-opacity="0" result="BackgroundImageFix"/>
<feBlend mode="normal" in="SourceGraphic" in2="BackgroundImageFix" result="shape"/>
<feGaussianBlur stdDeviation="0.5" result="effect1_foregroundBlur_2063_43085"/>
</filter>
<filter id="filter4_f_2063_43085" x="1539.06" y="706.102" width="4.57715" height="4.5769" filterUnits="userSpaceOnUse" color-interpolation-filters="sRGB">
<feFlood flood-opacity="0" result="BackgroundImageFix"/>
<feBlend mode="normal" in="SourceGraphic" in2="BackgroundImageFix" result="shape"/>
<feGaussianBlur stdDeviation="0.5" result="effect1_foregroundBlur_2063_43085"/>
</filter>
<filter id="filter5_f_2063_43085" x="1667.93" y="514.056" width="4.57715" height="4.5769" filterUnits="userSpaceOnUse" color-interpolation-filters="sRGB">
<feFlood flood-opacity="0" result="BackgroundImageFix"/>
<feBlend mode="normal" in="SourceGraphic" in2="BackgroundImageFix" result="shape"/>
<feGaussianBlur stdDeviation="0.5" result="effect1_foregroundBlur_2063_43085"/>
</filter>
<filter id="filter6_f_2063_43085" x="1162.74" y="592.117" width="4.57715" height="4.5769" filterUnits="userSpaceOnUse" color-interpolation-filters="sRGB">
<feFlood flood-opacity="0" result="BackgroundImageFix"/>
<feBlend mode="normal" in="SourceGraphic" in2="BackgroundImageFix" result="shape"/>
<feGaussianBlur stdDeviation="0.5" result="effect1_foregroundBlur_2063_43085"/>
</filter>
<filter id="filter7_f_2063_43085" x="1021.29" y="600.827" width="9.90234" height="9.90234" filterUnits="userSpaceOnUse" color-interpolation-filters="sRGB">
<feFlood flood-opacity="0" result="BackgroundImageFix"/>
<feBlend mode="normal" in="SourceGraphic" in2="BackgroundImageFix" result="shape"/>
<feGaussianBlur stdDeviation="0.5" result="effect1_foregroundBlur_2063_43085"/>
</filter>
<filter id="filter8_f_2063_43085" x="973.784" y="874.708" width="9.90234" height="9.90234" filterUnits="userSpaceOnUse" color-interpolation-filters="sRGB">
<feFlood flood-opacity="0" result="BackgroundImageFix"/>
<feBlend mode="normal" in="SourceGraphic" in2="BackgroundImageFix" result="shape"/>
<feGaussianBlur stdDeviation="0.5" result="effect1_foregroundBlur_2063_43085"/>
</filter>
<filter id="filter9_f_2063_43085" x="1419.55" y="774.238" width="9.90234" height="9.90234" filterUnits="userSpaceOnUse" color-interpolation-filters="sRGB">
<feFlood flood-opacity="0" result="BackgroundImageFix"/>
<feBlend mode="normal" in="SourceGraphic" in2="BackgroundImageFix" result="shape"/>
<feGaussianBlur stdDeviation="0.5" result="effect1_foregroundBlur_2063_43085"/>
</filter>
<filter id="filter10_f_2063_43085" x="817.379" y="885.463" width="9.90234" height="9.90234" filterUnits="userSpaceOnUse" color-interpolation-filters="sRGB">
<feFlood flood-opacity="0" result="BackgroundImageFix"/>
<feBlend mode="normal" in="SourceGraphic" in2="BackgroundImageFix" result="shape"/>
<feGaussianBlur stdDeviation="0.5" result="effect1_foregroundBlur_2063_43085"/>
</filter>
<filter id="filter11_f_2063_43085" x="1402.65" y="602.527" width="9.90234" height="9.90234" filterUnits="userSpaceOnUse" color-interpolation-filters="sRGB">
<feFlood flood-opacity="0" result="BackgroundImageFix"/>
<feBlend mode="normal" in="SourceGraphic" in2="BackgroundImageFix" result="shape"/>
<feGaussianBlur stdDeviation="0.5" result="effect1_foregroundBlur_2063_43085"/>
</filter>
<filter id="filter12_f_2063_43085" x="1701.51" y="140.519" width="9.90234" height="9.90234" filterUnits="userSpaceOnUse" color-interpolation-filters="sRGB">
<feFlood flood-opacity="0" result="BackgroundImageFix"/>
<feBlend mode="normal" in="SourceGraphic" in2="BackgroundImageFix" result="shape"/>
<feGaussianBlur stdDeviation="0.5" result="effect1_foregroundBlur_2063_43085"/>
</filter>
<filter id="filter13_f_2063_43085" x="1649.33" y="68.4254" width="9.90234" height="9.90234" filterUnits="userSpaceOnUse" color-interpolation-filters="sRGB">
<feFlood flood-opacity="0" result="BackgroundImageFix"/>
<feBlend mode="normal" in="SourceGraphic" in2="BackgroundImageFix" result="shape"/>
<feGaussianBlur stdDeviation="0.5" result="effect1_foregroundBlur_2063_43085"/>
</filter>
<filter id="filter14_f_2063_43085" x="1560.78" y="276.957" width="9.90234" height="9.90234" filterUnits="userSpaceOnUse" color-interpolation-filters="sRGB">
<feFlood flood-opacity="0" result="BackgroundImageFix"/>
<feBlend mode="normal" in="SourceGraphic" in2="BackgroundImageFix" result="shape"/>
<feGaussianBlur stdDeviation="0.5" result="effect1_foregroundBlur_2063_43085"/>
</filter>
<filter id="filter15_f_2063_43085" x="1354.51" y="362.078" width="9.90234" height="9.90234" filterUnits="userSpaceOnUse" color-interpolation-filters="sRGB">
<feFlood flood-opacity="0" result="BackgroundImageFix"/>
<feBlend mode="normal" in="SourceGraphic" in2="BackgroundImageFix" result="shape"/>
<feGaussianBlur stdDeviation="0.5" result="effect1_foregroundBlur_2063_43085"/>
</filter>
<filter id="filter16_f_2063_43085" x="1418.49" y="221.941" width="9.90234" height="9.90234" filterUnits="userSpaceOnUse" color-interpolation-filters="sRGB">
<feFlood flood-opacity="0" result="BackgroundImageFix"/>
<feBlend mode="normal" in="SourceGraphic" in2="BackgroundImageFix" result="shape"/>
<feGaussianBlur stdDeviation="0.5" result="effect1_foregroundBlur_2063_43085"/>
</filter>
<filter id="filter17_f_2063_43085" x="1687.81" y="740.725" width="4.16016" height="4.16016" filterUnits="userSpaceOnUse" color-interpolation-filters="sRGB">
<feFlood flood-opacity="0" result="BackgroundImageFix"/>
<feBlend mode="normal" in="SourceGraphic" in2="BackgroundImageFix" result="shape"/>
<feGaussianBlur stdDeviation="0.5" result="effect1_foregroundBlur_2063_43085"/>
</filter>
<filter id="filter18_f_2063_43085" x="1253.56" y="834.222" width="4.16016" height="4.1601" filterUnits="userSpaceOnUse" color-interpolation-filters="sRGB">
<feFlood flood-opacity="0" result="BackgroundImageFix"/>
<feBlend mode="normal" in="SourceGraphic" in2="BackgroundImageFix" result="shape"/>
<feGaussianBlur stdDeviation="0.5" result="effect1_foregroundBlur_2063_43085"/>
</filter>
<filter id="filter19_f_2063_43085" x="1067.03" y="999.805" width="4.16016" height="4.1601" filterUnits="userSpaceOnUse" color-interpolation-filters="sRGB">
<feFlood flood-opacity="0" result="BackgroundImageFix"/>
<feBlend mode="normal" in="SourceGraphic" in2="BackgroundImageFix" result="shape"/>
<feGaussianBlur stdDeviation="0.5" result="effect1_foregroundBlur_2063_43085"/>
</filter>
<filter id="filter20_f_2063_43085" x="853.919" y="863.384" width="4.16016" height="4.1601" filterUnits="userSpaceOnUse" color-interpolation-filters="sRGB">
<feFlood flood-opacity="0" result="BackgroundImageFix"/>
<feBlend mode="normal" in="SourceGraphic" in2="BackgroundImageFix" result="shape"/>
<feGaussianBlur stdDeviation="0.5" result="effect1_foregroundBlur_2063_43085"/>
</filter>
<filter id="filter21_f_2063_43085" x="1505.44" y="1044.71" width="4.16016" height="4.1601" filterUnits="userSpaceOnUse" color-interpolation-filters="sRGB">
<feFlood flood-opacity="0" result="BackgroundImageFix"/>
<feBlend mode="normal" in="SourceGraphic" in2="BackgroundImageFix" result="shape"/>
<feGaussianBlur stdDeviation="0.5" result="effect1_foregroundBlur_2063_43085"/>
</filter>
<filter id="filter22_f_2063_43085" x="1732.36" y="1000.03" width="4.16016" height="4.1601" filterUnits="userSpaceOnUse" color-interpolation-filters="sRGB">
<feFlood flood-opacity="0" result="BackgroundImageFix"/>
<feBlend mode="normal" in="SourceGraphic" in2="BackgroundImageFix" result="shape"/>
<feGaussianBlur stdDeviation="0.5" result="effect1_foregroundBlur_2063_43085"/>
</filter>
<filter id="filter23_f_2063_43085" x="1319.94" y="698.006" width="4.16016" height="4.16016" filterUnits="userSpaceOnUse" color-interpolation-filters="sRGB">
<feFlood flood-opacity="0" result="BackgroundImageFix"/>
<feBlend mode="normal" in="SourceGraphic" in2="BackgroundImageFix" result="shape"/>
<feGaussianBlur stdDeviation="0.5" result="effect1_foregroundBlur_2063_43085"/>
</filter>
<filter id="filter24_f_2063_43085" x="1211.53" y="605.676" width="8.62402" height="8.62415" filterUnits="userSpaceOnUse" color-interpolation-filters="sRGB">
<feFlood flood-opacity="0" result="BackgroundImageFix"/>
<feBlend mode="normal" in="SourceGraphic" in2="BackgroundImageFix" result="shape"/>
<feGaussianBlur stdDeviation="0.5" result="effect1_foregroundBlur_2063_43085"/>
</filter>
<filter id="filter25_f_2063_43085" x="984.273" y="765.749" width="8.62402" height="8.62415" filterUnits="userSpaceOnUse" color-interpolation-filters="sRGB">
<feFlood flood-opacity="0" result="BackgroundImageFix"/>
<feBlend mode="normal" in="SourceGraphic" in2="BackgroundImageFix" result="shape"/>
<feGaussianBlur stdDeviation="0.5" result="effect1_foregroundBlur_2063_43085"/>
</filter>
<filter id="filter26_f_2063_43085" x="1370.52" y="1009.91" width="8.62402" height="8.62427" filterUnits="userSpaceOnUse" color-interpolation-filters="sRGB">
<feFlood flood-opacity="0" result="BackgroundImageFix"/>
<feBlend mode="normal" in="SourceGraphic" in2="BackgroundImageFix" result="shape"/>
<feGaussianBlur stdDeviation="0.5" result="effect1_foregroundBlur_2063_43085"/>
</filter>
<filter id="filter27_f_2063_43085" x="866.074" y="662.759" width="8.62402" height="8.62415" filterUnits="userSpaceOnUse" color-interpolation-filters="sRGB">
<feFlood flood-opacity="0" result="BackgroundImageFix"/>
<feBlend mode="normal" in="SourceGraphic" in2="BackgroundImageFix" result="shape"/>
<feGaussianBlur stdDeviation="0.5" result="effect1_foregroundBlur_2063_43085"/>
</filter>
<filter id="filter28_f_2063_43085" x="1479.99" y="876.543" width="8.62402" height="8.62427" filterUnits="userSpaceOnUse" color-interpolation-filters="sRGB">
<feFlood flood-opacity="0" result="BackgroundImageFix"/>
<feBlend mode="normal" in="SourceGraphic" in2="BackgroundImageFix" result="shape"/>
<feGaussianBlur stdDeviation="0.5" result="effect1_foregroundBlur_2063_43085"/>
</filter>
<filter id="filter29_f_2063_43085" x="1822.02" y="758.147" width="8.62402" height="8.62415" filterUnits="userSpaceOnUse" color-interpolation-filters="sRGB">
<feFlood flood-opacity="0" result="BackgroundImageFix"/>
<feBlend mode="normal" in="SourceGraphic" in2="BackgroundImageFix" result="shape"/>
<feGaussianBlur stdDeviation="0.5" result="effect1_foregroundBlur_2063_43085"/>
</filter>
<filter id="filter30_f_2063_43085" x="1615.97" y="672.482" width="8.62402" height="8.62415" filterUnits="userSpaceOnUse" color-interpolation-filters="sRGB">
<feFlood flood-opacity="0" result="BackgroundImageFix"/>
<feBlend mode="normal" in="SourceGraphic" in2="BackgroundImageFix" result="shape"/>
<feGaussianBlur stdDeviation="0.5" result="effect1_foregroundBlur_2063_43085"/>
</filter>
<filter id="filter31_f_2063_43085" x="1760.31" y="618.631" width="8.62402" height="8.62415" filterUnits="userSpaceOnUse" color-interpolation-filters="sRGB">
<feFlood flood-opacity="0" result="BackgroundImageFix"/>
<feBlend mode="normal" in="SourceGraphic" in2="BackgroundImageFix" result="shape"/>
<feGaussianBlur stdDeviation="0.5" result="effect1_foregroundBlur_2063_43085"/>
</filter>
<filter id="filter32_f_2063_43085" x="177.217" y="476.758" width="4.49561" height="4.49548" filterUnits="userSpaceOnUse" color-interpolation-filters="sRGB">
<feFlood flood-opacity="0" result="BackgroundImageFix"/>
<feBlend mode="normal" in="SourceGraphic" in2="BackgroundImageFix" result="shape"/>
<feGaussianBlur stdDeviation="0.5" result="effect1_foregroundBlur_2063_43085"/>
</filter>
<filter id="filter33_f_2063_43085" x="218.861" y="828.796" width="4.49561" height="4.49536" filterUnits="userSpaceOnUse" color-interpolation-filters="sRGB">
<feFlood flood-opacity="0" result="BackgroundImageFix"/>
<feBlend mode="normal" in="SourceGraphic" in2="BackgroundImageFix" result="shape"/>
<feGaussianBlur stdDeviation="0.5" result="effect1_foregroundBlur_2063_43085"/>
</filter>
<filter id="filter34_f_2063_43085" x="371.064" y="654.66" width="4.49561" height="4.49548" filterUnits="userSpaceOnUse" color-interpolation-filters="sRGB">
<feFlood flood-opacity="0" result="BackgroundImageFix"/>
<feBlend mode="normal" in="SourceGraphic" in2="BackgroundImageFix" result="shape"/>
<feGaussianBlur stdDeviation="0.5" result="effect1_foregroundBlur_2063_43085"/>
</filter>
<filter id="filter35_f_2063_43085" x="91.3867" y="881.61" width="9.65234" height="9.6524" filterUnits="userSpaceOnUse" color-interpolation-filters="sRGB">
<feFlood flood-opacity="0" result="BackgroundImageFix"/>
<feBlend mode="normal" in="SourceGraphic" in2="BackgroundImageFix" result="shape"/>
<feGaussianBlur stdDeviation="0.5" result="effect1_foregroundBlur_2063_43085"/>
</filter>
<filter id="filter36_f_2063_43085" x="96.4224" y="709.144" width="9.65234" height="9.65247" filterUnits="userSpaceOnUse" color-interpolation-filters="sRGB">
<feFlood flood-opacity="0" result="BackgroundImageFix"/>
<feBlend mode="normal" in="SourceGraphic" in2="BackgroundImageFix" result="shape"/>
<feGaussianBlur stdDeviation="0.5" result="effect1_foregroundBlur_2063_43085"/>
</filter>
<filter id="filter37_f_2063_43085" x="451.51" y="288.808" width="9.65234" height="9.65247" filterUnits="userSpaceOnUse" color-interpolation-filters="sRGB">
<feFlood flood-opacity="0" result="BackgroundImageFix"/>
<feBlend mode="normal" in="SourceGraphic" in2="BackgroundImageFix" result="shape"/>
<feGaussianBlur stdDeviation="0.5" result="effect1_foregroundBlur_2063_43085"/>
</filter>
<filter id="filter38_f_2063_43085" x="408.896" y="210.673" width="9.65234" height="9.65247" filterUnits="userSpaceOnUse" color-interpolation-filters="sRGB">
<feFlood flood-opacity="0" result="BackgroundImageFix"/>
<feBlend mode="normal" in="SourceGraphic" in2="BackgroundImageFix" result="shape"/>
<feGaussianBlur stdDeviation="0.5" result="effect1_foregroundBlur_2063_43085"/>
</filter>
<filter id="filter39_f_2063_43085" x="294.601" y="406.279" width="9.65234" height="9.65247" filterUnits="userSpaceOnUse" color-interpolation-filters="sRGB">
<feFlood flood-opacity="0" result="BackgroundImageFix"/>
<feBlend mode="normal" in="SourceGraphic" in2="BackgroundImageFix" result="shape"/>
<feGaussianBlur stdDeviation="0.5" result="effect1_foregroundBlur_2063_43085"/>
</filter>
<filter id="filter40_f_2063_43085" x="79.1948" y="464.53" width="9.65234" height="9.65247" filterUnits="userSpaceOnUse" color-interpolation-filters="sRGB">
<feFlood flood-opacity="0" result="BackgroundImageFix"/>
<feBlend mode="normal" in="SourceGraphic" in2="BackgroundImageFix" result="shape"/>
<feGaussianBlur stdDeviation="0.5" result="effect1_foregroundBlur_2063_43085"/>
</filter>
<filter id="filter41_f_2063_43085" x="160.446" y="333.647" width="9.65234" height="9.65247" filterUnits="userSpaceOnUse" color-interpolation-filters="sRGB">
<feFlood flood-opacity="0" result="BackgroundImageFix"/>
<feBlend mode="normal" in="SourceGraphic" in2="BackgroundImageFix" result="shape"/>
<feGaussianBlur stdDeviation="0.5" result="effect1_foregroundBlur_2063_43085"/>
</filter>
<filter id="filter42_f_2063_43085" x="361.913" y="881.868" width="4.33105" height="4.33105" filterUnits="userSpaceOnUse" color-interpolation-filters="sRGB">
<feFlood flood-opacity="0" result="BackgroundImageFix"/>
<feBlend mode="normal" in="SourceGraphic" in2="BackgroundImageFix" result="shape"/>
<feGaussianBlur stdDeviation="0.5" result="effect1_foregroundBlur_2063_43085"/>
</filter>
<filter id="filter43_f_2063_43085" x="2.43701" y="792.8" width="4.33105" height="4.33105" filterUnits="userSpaceOnUse" color-interpolation-filters="sRGB">
<feFlood flood-opacity="0" result="BackgroundImageFix"/>
<feBlend mode="normal" in="SourceGraphic" in2="BackgroundImageFix" result="shape"/>
<feGaussianBlur stdDeviation="0.5" result="effect1_foregroundBlur_2063_43085"/>
</filter>
<filter id="filter44_f_2063_43085" x="138.052" y="990.298" width="9.14844" height="9.14838" filterUnits="userSpaceOnUse" color-interpolation-filters="sRGB">
<feFlood flood-opacity="0" result="BackgroundImageFix"/>
<feBlend mode="normal" in="SourceGraphic" in2="BackgroundImageFix" result="shape"/>
<feGaussianBlur stdDeviation="0.5" result="effect1_foregroundBlur_2063_43085"/>
</filter>
<filter id="filter45_f_2063_43085" x="686.36" y="944.16" width="9.14844" height="9.14838" filterUnits="userSpaceOnUse" color-interpolation-filters="sRGB">
<feFlood flood-opacity="0" result="BackgroundImageFix"/>
<feBlend mode="normal" in="SourceGraphic" in2="BackgroundImageFix" result="shape"/>
<feGaussianBlur stdDeviation="0.5" result="effect1_foregroundBlur_2063_43085"/>
</filter>
<filter id="filter46_f_2063_43085" x="711.477" y="858.778" width="9.14844" height="9.14838" filterUnits="userSpaceOnUse" color-interpolation-filters="sRGB">
<feFlood flood-opacity="0" result="BackgroundImageFix"/>
<feBlend mode="normal" in="SourceGraphic" in2="BackgroundImageFix" result="shape"/>
<feGaussianBlur stdDeviation="0.5" result="effect1_foregroundBlur_2063_43085"/>
</filter>
<filter id="filter47_f_2063_43085" x="492.344" y="916.273" width="9.14844" height="9.14838" filterUnits="userSpaceOnUse" color-interpolation-filters="sRGB">
<feFlood flood-opacity="0" result="BackgroundImageFix"/>
<feBlend mode="normal" in="SourceGraphic" in2="BackgroundImageFix" result="shape"/>
<feGaussianBlur stdDeviation="0.5" result="effect1_foregroundBlur_2063_43085"/>
</filter>
<filter id="filter48_f_2063_43085" x="298.839" y="805.147" width="9.14844" height="9.14838" filterUnits="userSpaceOnUse" color-interpolation-filters="sRGB">
<feFlood flood-opacity="0" result="BackgroundImageFix"/>
<feBlend mode="normal" in="SourceGraphic" in2="BackgroundImageFix" result="shape"/>
<feGaussianBlur stdDeviation="0.5" result="effect1_foregroundBlur_2063_43085"/>
</filter>
<filter id="filter49_f_2063_43085" x="448.84" y="770.053" width="9.14844" height="9.14844" filterUnits="userSpaceOnUse" color-interpolation-filters="sRGB">
<feFlood flood-opacity="0" result="BackgroundImageFix"/>
<feBlend mode="normal" in="SourceGraphic" in2="BackgroundImageFix" result="shape"/>
<feGaussianBlur stdDeviation="0.5" result="effect1_foregroundBlur_2063_43085"/>
</filter>
</defs>
</svg>
